M48
; DRILL file {KiCad 7.0.3} date mar 20 jun 2023 17:29:56
; FORMAT={-:-/ absolute / inch / decimal}
; #@! TF.CreationDate,2023-06-20T17:29:56-05:00
; #@! TF.GenerationSoftware,Kicad,Pcbnew,7.0.3
; #@! TF.FileFunction,Plated,1,2,PTH
FMAT,2
INCH
; #@! TA.AperFunction,Plated,PTH,ComponentDrill
T1C0.0276
; #@! TA.AperFunction,Plated,PTH,ComponentDrill
T2C0.0291
; #@! TA.AperFunction,Plated,PTH,ViaDrill
T3C0.0295
; #@! TA.AperFunction,Plated,PTH,ComponentDrill
T4C0.0295
; #@! TA.AperFunction,Plated,PTH,ComponentDrill
T5C0.0315
; #@! TA.AperFunction,Plated,PTH,ComponentDrill
T6C0.0429
; #@! TA.AperFunction,Plated,PTH,ComponentDrill
T7C0.0520
; #@! TA.AperFunction,Plated,PTH,ComponentDrill
T8C0.0591
; #@! TA.AperFunction,Plated,PTH,ComponentDrill
T9C0.1063
%
G90
G05
T1
X6.4837Y-3.8974
X6.4837Y-3.9974
T2
X5.0837Y-4.5989
T3
X6.3037Y-4.8589
X6.4637Y-2.8174
X6.4637Y-3.6974
T4
X5.0837Y-4.6974
T5
X5.2868Y-4.5955
X5.2868Y-4.6939
T6
X5.2338Y-2.6969
X5.2338Y-2.7969
X5.2338Y-2.8969
X5.2338Y-2.9969
X5.2338Y-3.0969
X5.2338Y-3.1969
X5.2338Y-3.2969
X5.2338Y-3.3969
X5.2338Y-3.4969
X5.2338Y-3.5969
X5.2338Y-3.6969
X5.2338Y-3.7969
X5.2338Y-3.8969
X5.2338Y-3.9969
X5.2338Y-4.0969
X6.2Y-2.7
X6.2Y-2.8
X6.2Y-2.9
X6.2Y-3.0
X6.2Y-3.1
X6.2Y-3.2
X6.2Y-3.3
X6.2Y-3.4
X6.2Y-3.5
X6.2Y-3.6
X6.2Y-3.7
X6.2Y-3.8
X6.2Y-3.9
X6.2Y-4.0
X6.2Y-4.1
T7
X5.6254Y-4.6942
X5.8222Y-4.6942
X6.9237Y-2.8037
X6.9237Y-3.0005
X6.9237Y-3.1974
X6.9237Y-3.3942
T8
X6.9237Y-3.6837
X6.9237Y-3.8805
X6.9237Y-4.0774
T9
X4.8437Y-2.4574
X4.8437Y-4.8574
X7.0837Y-2.4574
X7.0837Y-4.8613
T0
M30
