%TF.GenerationSoftware,KiCad,Pcbnew,7.0.3*%
%TF.CreationDate,2023-06-20T17:30:00-05:00*%
%TF.ProjectId,ambient_measurement,616d6269-656e-4745-9f6d-656173757265,rev?*%
%TF.SameCoordinates,Original*%
%TF.FileFunction,Soldermask,Bot*%
%TF.FilePolarity,Negative*%
%FSLAX46Y46*%
G04 Gerber Fmt 4.6, Leading zero omitted, Abs format (unit mm)*
G04 Created by KiCad (PCBNEW 7.0.3) date 2023-06-20 17:30:00*
%MOMM*%
%LPD*%
G01*
G04 APERTURE LIST*
%ADD10C,5.400000*%
%ADD11R,2.125000X3.960000*%
%ADD12O,2.125000X3.960000*%
%ADD13C,2.125000*%
%ADD14O,2.125000X2.125000*%
%ADD15R,2.000000X2.000000*%
%ADD16C,2.000000*%
%ADD17R,3.960000X3.960000*%
%ADD18C,3.960000*%
%ADD19O,3.960000X3.960000*%
%ADD20R,2.540000X2.000000*%
%ADD21R,2.540000X1.950000*%
%ADD22R,2.540000X2.100000*%
%ADD23R,2.540000X1.740000*%
G04 APERTURE END LIST*
D10*
%TO.C,H2*%
X179925500Y-123477000D03*
%TD*%
D11*
%TO.C,5V1*%
X142884388Y-119233000D03*
D12*
X147884388Y-119233000D03*
%TD*%
D13*
%TO.C,R1*%
X164685500Y-98993000D03*
D14*
X164685500Y-101533000D03*
%TD*%
D15*
%TO.C,C1*%
X134285500Y-119226112D03*
D16*
X134285500Y-116726112D03*
%TD*%
D17*
%TO.C,J1*%
X175861500Y-103565000D03*
D18*
X175861500Y-98565000D03*
X175861500Y-93565000D03*
%TD*%
D17*
%TO.C,J2*%
X175861500Y-86213000D03*
D19*
X175861500Y-81213000D03*
X175861500Y-76213000D03*
X175861500Y-71213000D03*
%TD*%
D10*
%TO.C,H4*%
X179925500Y-62417000D03*
%TD*%
D16*
%TO.C,C2*%
X129125500Y-119313000D03*
X129125500Y-116813000D03*
%TD*%
D20*
%TO.C,J_esp1*%
X157480000Y-104140000D03*
D21*
X157480000Y-101600000D03*
X157480000Y-99060000D03*
X157480000Y-96520000D03*
X157480000Y-93980000D03*
X157480000Y-91440000D03*
X157480000Y-88900000D03*
X157480000Y-86360000D03*
X157480000Y-83820000D03*
X157480000Y-81280000D03*
X157480000Y-78740000D03*
X157480000Y-76200000D03*
X157480000Y-73660000D03*
X157480000Y-71120000D03*
X157480000Y-68580000D03*
%TD*%
D10*
%TO.C,H3*%
X123029500Y-123377000D03*
%TD*%
D22*
%TO.C,J_esp0*%
X132939500Y-68501000D03*
D23*
X132939500Y-71041000D03*
X132939500Y-73581000D03*
D21*
X132939500Y-76121000D03*
X132939500Y-78661000D03*
X132939500Y-81201000D03*
X132939500Y-83741000D03*
X132939500Y-86281000D03*
X132939500Y-88821000D03*
X132939500Y-91361000D03*
X132939500Y-93901000D03*
X132939500Y-96441000D03*
X132939500Y-98981000D03*
X132939500Y-101521000D03*
X132939500Y-104061000D03*
%TD*%
D10*
%TO.C,H1*%
X123029500Y-62417000D03*
%TD*%
M02*
