%TF.GenerationSoftware,KiCad,Pcbnew,7.0.3*%
%TF.CreationDate,2023-06-20T17:30:00-05:00*%
%TF.ProjectId,ambient_measurement,616d6269-656e-4745-9f6d-656173757265,rev?*%
%TF.SameCoordinates,Original*%
%TF.FileFunction,Copper,L1,Top*%
%TF.FilePolarity,Positive*%
%FSLAX46Y46*%
G04 Gerber Fmt 4.6, Leading zero omitted, Abs format (unit mm)*
G04 Created by KiCad (PCBNEW 7.0.3) date 2023-06-20 17:30:00*
%MOMM*%
%LPD*%
G01*
G04 APERTURE LIST*
%TA.AperFunction,NonConductor*%
%ADD10C,0.200000*%
%TD*%
%ADD11C,0.300000*%
%TA.AperFunction,NonConductor*%
%ADD12C,0.300000*%
%TD*%
%TA.AperFunction,ComponentPad*%
%ADD13C,5.400000*%
%TD*%
%TA.AperFunction,ComponentPad*%
%ADD14R,2.125000X3.960000*%
%TD*%
%TA.AperFunction,ComponentPad*%
%ADD15O,2.125000X3.960000*%
%TD*%
%TA.AperFunction,ComponentPad*%
%ADD16C,2.125000*%
%TD*%
%TA.AperFunction,ComponentPad*%
%ADD17O,2.125000X2.125000*%
%TD*%
%TA.AperFunction,ComponentPad*%
%ADD18R,2.000000X2.000000*%
%TD*%
%TA.AperFunction,ComponentPad*%
%ADD19C,2.000000*%
%TD*%
%TA.AperFunction,ComponentPad*%
%ADD20R,3.960000X3.960000*%
%TD*%
%TA.AperFunction,ComponentPad*%
%ADD21C,3.960000*%
%TD*%
%TA.AperFunction,ComponentPad*%
%ADD22O,3.960000X3.960000*%
%TD*%
%TA.AperFunction,ComponentPad*%
%ADD23R,2.540000X2.000000*%
%TD*%
%TA.AperFunction,ComponentPad*%
%ADD24R,2.540000X1.950000*%
%TD*%
%TA.AperFunction,ComponentPad*%
%ADD25R,2.540000X2.100000*%
%TD*%
%TA.AperFunction,ComponentPad*%
%ADD26R,2.540000X1.740000*%
%TD*%
%TA.AperFunction,ViaPad*%
%ADD27C,2.125000*%
%TD*%
%TA.AperFunction,Conductor*%
%ADD28C,1.330000*%
%TD*%
G04 APERTURE END LIST*
D10*
X117589500Y-57897000D02*
X185221500Y-57897000D01*
X185221500Y-128101000D01*
X117589500Y-128101000D01*
X117589500Y-57897000D01*
D11*
D12*
X168358671Y-97939154D02*
X168358671Y-97224868D01*
X168358671Y-97224868D02*
X167644385Y-97153440D01*
X167644385Y-97153440D02*
X167715814Y-97224868D01*
X167715814Y-97224868D02*
X167787242Y-97367726D01*
X167787242Y-97367726D02*
X167787242Y-97724868D01*
X167787242Y-97724868D02*
X167715814Y-97867726D01*
X167715814Y-97867726D02*
X167644385Y-97939154D01*
X167644385Y-97939154D02*
X167501528Y-98010583D01*
X167501528Y-98010583D02*
X167144385Y-98010583D01*
X167144385Y-98010583D02*
X167001528Y-97939154D01*
X167001528Y-97939154D02*
X166930100Y-97867726D01*
X166930100Y-97867726D02*
X166858671Y-97724868D01*
X166858671Y-97724868D02*
X166858671Y-97367726D01*
X166858671Y-97367726D02*
X166930100Y-97224868D01*
X166930100Y-97224868D02*
X167001528Y-97153440D01*
X168358671Y-98439154D02*
X166858671Y-98939154D01*
X166858671Y-98939154D02*
X168358671Y-99439154D01*
D11*
D12*
X153044011Y-125714757D02*
X152901154Y-125643328D01*
X152901154Y-125643328D02*
X152686868Y-125643328D01*
X152686868Y-125643328D02*
X152472582Y-125714757D01*
X152472582Y-125714757D02*
X152329725Y-125857614D01*
X152329725Y-125857614D02*
X152258296Y-126000471D01*
X152258296Y-126000471D02*
X152186868Y-126286185D01*
X152186868Y-126286185D02*
X152186868Y-126500471D01*
X152186868Y-126500471D02*
X152258296Y-126786185D01*
X152258296Y-126786185D02*
X152329725Y-126929042D01*
X152329725Y-126929042D02*
X152472582Y-127071900D01*
X152472582Y-127071900D02*
X152686868Y-127143328D01*
X152686868Y-127143328D02*
X152829725Y-127143328D01*
X152829725Y-127143328D02*
X153044011Y-127071900D01*
X153044011Y-127071900D02*
X153115439Y-127000471D01*
X153115439Y-127000471D02*
X153115439Y-126500471D01*
X153115439Y-126500471D02*
X152829725Y-126500471D01*
X153758296Y-127143328D02*
X153758296Y-125643328D01*
X153758296Y-125643328D02*
X154615439Y-127143328D01*
X154615439Y-127143328D02*
X154615439Y-125643328D01*
X155329725Y-127143328D02*
X155329725Y-125643328D01*
X155329725Y-125643328D02*
X155686868Y-125643328D01*
X155686868Y-125643328D02*
X155901154Y-125714757D01*
X155901154Y-125714757D02*
X156044011Y-125857614D01*
X156044011Y-125857614D02*
X156115440Y-126000471D01*
X156115440Y-126000471D02*
X156186868Y-126286185D01*
X156186868Y-126286185D02*
X156186868Y-126500471D01*
X156186868Y-126500471D02*
X156115440Y-126786185D01*
X156115440Y-126786185D02*
X156044011Y-126929042D01*
X156044011Y-126929042D02*
X155901154Y-127071900D01*
X155901154Y-127071900D02*
X155686868Y-127143328D01*
X155686868Y-127143328D02*
X155329725Y-127143328D01*
D11*
D12*
X168483742Y-74679511D02*
X168555171Y-74536654D01*
X168555171Y-74536654D02*
X168555171Y-74322368D01*
X168555171Y-74322368D02*
X168483742Y-74108082D01*
X168483742Y-74108082D02*
X168340885Y-73965225D01*
X168340885Y-73965225D02*
X168198028Y-73893796D01*
X168198028Y-73893796D02*
X167912314Y-73822368D01*
X167912314Y-73822368D02*
X167698028Y-73822368D01*
X167698028Y-73822368D02*
X167412314Y-73893796D01*
X167412314Y-73893796D02*
X167269457Y-73965225D01*
X167269457Y-73965225D02*
X167126600Y-74108082D01*
X167126600Y-74108082D02*
X167055171Y-74322368D01*
X167055171Y-74322368D02*
X167055171Y-74465225D01*
X167055171Y-74465225D02*
X167126600Y-74679511D01*
X167126600Y-74679511D02*
X167198028Y-74750939D01*
X167198028Y-74750939D02*
X167698028Y-74750939D01*
X167698028Y-74750939D02*
X167698028Y-74465225D01*
X167055171Y-75393796D02*
X168555171Y-75393796D01*
X168555171Y-75393796D02*
X167055171Y-76250939D01*
X167055171Y-76250939D02*
X168555171Y-76250939D01*
X167055171Y-76965225D02*
X168555171Y-76965225D01*
X168555171Y-76965225D02*
X168555171Y-77322368D01*
X168555171Y-77322368D02*
X168483742Y-77536654D01*
X168483742Y-77536654D02*
X168340885Y-77679511D01*
X168340885Y-77679511D02*
X168198028Y-77750940D01*
X168198028Y-77750940D02*
X167912314Y-77822368D01*
X167912314Y-77822368D02*
X167698028Y-77822368D01*
X167698028Y-77822368D02*
X167412314Y-77750940D01*
X167412314Y-77750940D02*
X167269457Y-77679511D01*
X167269457Y-77679511D02*
X167126600Y-77536654D01*
X167126600Y-77536654D02*
X167055171Y-77322368D01*
X167055171Y-77322368D02*
X167055171Y-76965225D01*
D11*
D12*
X168015814Y-101882011D02*
X168087242Y-101953439D01*
X168087242Y-101953439D02*
X168158671Y-102096297D01*
X168158671Y-102096297D02*
X168158671Y-102453439D01*
X168158671Y-102453439D02*
X168087242Y-102596297D01*
X168087242Y-102596297D02*
X168015814Y-102667725D01*
X168015814Y-102667725D02*
X167872957Y-102739154D01*
X167872957Y-102739154D02*
X167730100Y-102739154D01*
X167730100Y-102739154D02*
X167515814Y-102667725D01*
X167515814Y-102667725D02*
X166658671Y-101810582D01*
X166658671Y-101810582D02*
X166658671Y-102739154D01*
X168158671Y-104096296D02*
X168158671Y-103382010D01*
X168158671Y-103382010D02*
X167444385Y-103310582D01*
X167444385Y-103310582D02*
X167515814Y-103382010D01*
X167515814Y-103382010D02*
X167587242Y-103524868D01*
X167587242Y-103524868D02*
X167587242Y-103882010D01*
X167587242Y-103882010D02*
X167515814Y-104024868D01*
X167515814Y-104024868D02*
X167444385Y-104096296D01*
X167444385Y-104096296D02*
X167301528Y-104167725D01*
X167301528Y-104167725D02*
X166944385Y-104167725D01*
X166944385Y-104167725D02*
X166801528Y-104096296D01*
X166801528Y-104096296D02*
X166730100Y-104024868D01*
X166730100Y-104024868D02*
X166658671Y-103882010D01*
X166658671Y-103882010D02*
X166658671Y-103524868D01*
X166658671Y-103524868D02*
X166730100Y-103382010D01*
X166730100Y-103382010D02*
X166801528Y-103310582D01*
D11*
D12*
X168287242Y-92182011D02*
X168358671Y-92039154D01*
X168358671Y-92039154D02*
X168358671Y-91824868D01*
X168358671Y-91824868D02*
X168287242Y-91610582D01*
X168287242Y-91610582D02*
X168144385Y-91467725D01*
X168144385Y-91467725D02*
X168001528Y-91396296D01*
X168001528Y-91396296D02*
X167715814Y-91324868D01*
X167715814Y-91324868D02*
X167501528Y-91324868D01*
X167501528Y-91324868D02*
X167215814Y-91396296D01*
X167215814Y-91396296D02*
X167072957Y-91467725D01*
X167072957Y-91467725D02*
X166930100Y-91610582D01*
X166930100Y-91610582D02*
X166858671Y-91824868D01*
X166858671Y-91824868D02*
X166858671Y-91967725D01*
X166858671Y-91967725D02*
X166930100Y-92182011D01*
X166930100Y-92182011D02*
X167001528Y-92253439D01*
X167001528Y-92253439D02*
X167501528Y-92253439D01*
X167501528Y-92253439D02*
X167501528Y-91967725D01*
X166858671Y-92896296D02*
X168358671Y-92896296D01*
X168358671Y-92896296D02*
X166858671Y-93753439D01*
X166858671Y-93753439D02*
X168358671Y-93753439D01*
X166858671Y-94467725D02*
X168358671Y-94467725D01*
X168358671Y-94467725D02*
X168358671Y-94824868D01*
X168358671Y-94824868D02*
X168287242Y-95039154D01*
X168287242Y-95039154D02*
X168144385Y-95182011D01*
X168144385Y-95182011D02*
X168001528Y-95253440D01*
X168001528Y-95253440D02*
X167715814Y-95324868D01*
X167715814Y-95324868D02*
X167501528Y-95324868D01*
X167501528Y-95324868D02*
X167215814Y-95253440D01*
X167215814Y-95253440D02*
X167072957Y-95182011D01*
X167072957Y-95182011D02*
X166930100Y-95039154D01*
X166930100Y-95039154D02*
X166858671Y-94824868D01*
X166858671Y-94824868D02*
X166858671Y-94467725D01*
D11*
D12*
X138848011Y-100990757D02*
X138705154Y-100919328D01*
X138705154Y-100919328D02*
X138490868Y-100919328D01*
X138490868Y-100919328D02*
X138276582Y-100990757D01*
X138276582Y-100990757D02*
X138133725Y-101133614D01*
X138133725Y-101133614D02*
X138062296Y-101276471D01*
X138062296Y-101276471D02*
X137990868Y-101562185D01*
X137990868Y-101562185D02*
X137990868Y-101776471D01*
X137990868Y-101776471D02*
X138062296Y-102062185D01*
X138062296Y-102062185D02*
X138133725Y-102205042D01*
X138133725Y-102205042D02*
X138276582Y-102347900D01*
X138276582Y-102347900D02*
X138490868Y-102419328D01*
X138490868Y-102419328D02*
X138633725Y-102419328D01*
X138633725Y-102419328D02*
X138848011Y-102347900D01*
X138848011Y-102347900D02*
X138919439Y-102276471D01*
X138919439Y-102276471D02*
X138919439Y-101776471D01*
X138919439Y-101776471D02*
X138633725Y-101776471D01*
X139562296Y-102419328D02*
X139562296Y-100919328D01*
X139562296Y-100919328D02*
X140419439Y-102419328D01*
X140419439Y-102419328D02*
X140419439Y-100919328D01*
X141133725Y-102419328D02*
X141133725Y-100919328D01*
X141133725Y-100919328D02*
X141490868Y-100919328D01*
X141490868Y-100919328D02*
X141705154Y-100990757D01*
X141705154Y-100990757D02*
X141848011Y-101133614D01*
X141848011Y-101133614D02*
X141919440Y-101276471D01*
X141919440Y-101276471D02*
X141990868Y-101562185D01*
X141990868Y-101562185D02*
X141990868Y-101776471D01*
X141990868Y-101776471D02*
X141919440Y-102062185D01*
X141919440Y-102062185D02*
X141848011Y-102205042D01*
X141848011Y-102205042D02*
X141705154Y-102347900D01*
X141705154Y-102347900D02*
X141490868Y-102419328D01*
X141490868Y-102419328D02*
X141133725Y-102419328D01*
D11*
D12*
X168412314Y-80139511D02*
X168483742Y-80210939D01*
X168483742Y-80210939D02*
X168555171Y-80353797D01*
X168555171Y-80353797D02*
X168555171Y-80710939D01*
X168555171Y-80710939D02*
X168483742Y-80853797D01*
X168483742Y-80853797D02*
X168412314Y-80925225D01*
X168412314Y-80925225D02*
X168269457Y-80996654D01*
X168269457Y-80996654D02*
X168126600Y-80996654D01*
X168126600Y-80996654D02*
X167912314Y-80925225D01*
X167912314Y-80925225D02*
X167055171Y-80068082D01*
X167055171Y-80068082D02*
X167055171Y-80996654D01*
X168412314Y-81568082D02*
X168483742Y-81639510D01*
X168483742Y-81639510D02*
X168555171Y-81782368D01*
X168555171Y-81782368D02*
X168555171Y-82139510D01*
X168555171Y-82139510D02*
X168483742Y-82282368D01*
X168483742Y-82282368D02*
X168412314Y-82353796D01*
X168412314Y-82353796D02*
X168269457Y-82425225D01*
X168269457Y-82425225D02*
X168126600Y-82425225D01*
X168126600Y-82425225D02*
X167912314Y-82353796D01*
X167912314Y-82353796D02*
X167055171Y-81496653D01*
X167055171Y-81496653D02*
X167055171Y-82425225D01*
D11*
D12*
X138301154Y-125643328D02*
X137586868Y-125643328D01*
X137586868Y-125643328D02*
X137515440Y-126357614D01*
X137515440Y-126357614D02*
X137586868Y-126286185D01*
X137586868Y-126286185D02*
X137729726Y-126214757D01*
X137729726Y-126214757D02*
X138086868Y-126214757D01*
X138086868Y-126214757D02*
X138229726Y-126286185D01*
X138229726Y-126286185D02*
X138301154Y-126357614D01*
X138301154Y-126357614D02*
X138372583Y-126500471D01*
X138372583Y-126500471D02*
X138372583Y-126857614D01*
X138372583Y-126857614D02*
X138301154Y-127000471D01*
X138301154Y-127000471D02*
X138229726Y-127071900D01*
X138229726Y-127071900D02*
X138086868Y-127143328D01*
X138086868Y-127143328D02*
X137729726Y-127143328D01*
X137729726Y-127143328D02*
X137586868Y-127071900D01*
X137586868Y-127071900D02*
X137515440Y-127000471D01*
X138801154Y-125643328D02*
X139301154Y-127143328D01*
X139301154Y-127143328D02*
X139801154Y-125643328D01*
D11*
D12*
X168412314Y-84839511D02*
X168483742Y-84910939D01*
X168483742Y-84910939D02*
X168555171Y-85053797D01*
X168555171Y-85053797D02*
X168555171Y-85410939D01*
X168555171Y-85410939D02*
X168483742Y-85553797D01*
X168483742Y-85553797D02*
X168412314Y-85625225D01*
X168412314Y-85625225D02*
X168269457Y-85696654D01*
X168269457Y-85696654D02*
X168126600Y-85696654D01*
X168126600Y-85696654D02*
X167912314Y-85625225D01*
X167912314Y-85625225D02*
X167055171Y-84768082D01*
X167055171Y-84768082D02*
X167055171Y-85696654D01*
X167055171Y-87125225D02*
X167055171Y-86268082D01*
X167055171Y-86696653D02*
X168555171Y-86696653D01*
X168555171Y-86696653D02*
X168340885Y-86553796D01*
X168340885Y-86553796D02*
X168198028Y-86410939D01*
X168198028Y-86410939D02*
X168126600Y-86268082D01*
D11*
D12*
X139405154Y-103419328D02*
X138690868Y-103419328D01*
X138690868Y-103419328D02*
X138619440Y-104133614D01*
X138619440Y-104133614D02*
X138690868Y-104062185D01*
X138690868Y-104062185D02*
X138833726Y-103990757D01*
X138833726Y-103990757D02*
X139190868Y-103990757D01*
X139190868Y-103990757D02*
X139333726Y-104062185D01*
X139333726Y-104062185D02*
X139405154Y-104133614D01*
X139405154Y-104133614D02*
X139476583Y-104276471D01*
X139476583Y-104276471D02*
X139476583Y-104633614D01*
X139476583Y-104633614D02*
X139405154Y-104776471D01*
X139405154Y-104776471D02*
X139333726Y-104847900D01*
X139333726Y-104847900D02*
X139190868Y-104919328D01*
X139190868Y-104919328D02*
X138833726Y-104919328D01*
X138833726Y-104919328D02*
X138690868Y-104847900D01*
X138690868Y-104847900D02*
X138619440Y-104776471D01*
X139905154Y-103419328D02*
X140405154Y-104919328D01*
X140405154Y-104919328D02*
X140905154Y-103419328D01*
D11*
D12*
X168555171Y-70964654D02*
X168555171Y-70250368D01*
X168555171Y-70250368D02*
X167840885Y-70178940D01*
X167840885Y-70178940D02*
X167912314Y-70250368D01*
X167912314Y-70250368D02*
X167983742Y-70393226D01*
X167983742Y-70393226D02*
X167983742Y-70750368D01*
X167983742Y-70750368D02*
X167912314Y-70893226D01*
X167912314Y-70893226D02*
X167840885Y-70964654D01*
X167840885Y-70964654D02*
X167698028Y-71036083D01*
X167698028Y-71036083D02*
X167340885Y-71036083D01*
X167340885Y-71036083D02*
X167198028Y-70964654D01*
X167198028Y-70964654D02*
X167126600Y-70893226D01*
X167126600Y-70893226D02*
X167055171Y-70750368D01*
X167055171Y-70750368D02*
X167055171Y-70393226D01*
X167055171Y-70393226D02*
X167126600Y-70250368D01*
X167126600Y-70250368D02*
X167198028Y-70178940D01*
X168555171Y-71464654D02*
X167055171Y-71964654D01*
X167055171Y-71964654D02*
X168555171Y-72464654D01*
D13*
%TO.P,H2,1*%
%TO.N,N/C*%
X179925500Y-123477000D03*
%TD*%
D14*
%TO.P,5V1,1,Pin_1*%
%TO.N,5v*%
X142884388Y-119233000D03*
D15*
%TO.P,5V1,2,Pin_2*%
%TO.N,GND5V*%
X147884388Y-119233000D03*
%TD*%
D16*
%TO.P,R1,1*%
%TO.N,5v*%
X164685500Y-98993000D03*
D17*
%TO.P,R1,2*%
%TO.N,D25*%
X164685500Y-101533000D03*
%TD*%
D18*
%TO.P,C1,1*%
%TO.N,5v*%
X134285500Y-119226112D03*
D19*
%TO.P,C1,2*%
%TO.N,GND5V*%
X134285500Y-116726112D03*
%TD*%
D20*
%TO.P,J1,1,Pin_1*%
%TO.N,D25*%
X175861500Y-103565000D03*
D21*
%TO.P,J1,2,Pin_2*%
%TO.N,5v*%
X175861500Y-98565000D03*
%TO.P,J1,3,Pin_3*%
%TO.N,GND5V*%
X175861500Y-93565000D03*
%TD*%
D20*
%TO.P,J2,1,Pin_1*%
%TO.N,D21*%
X175861500Y-86213000D03*
D22*
%TO.P,J2,2,Pin_2*%
%TO.N,D22*%
X175861500Y-81213000D03*
%TO.P,J2,3,Pin_3*%
%TO.N,GND5V*%
X175861500Y-76213000D03*
%TO.P,J2,4,Pin_4*%
%TO.N,5v*%
X175861500Y-71213000D03*
%TD*%
D13*
%TO.P,H4,1*%
%TO.N,N/C*%
X179925500Y-62417000D03*
%TD*%
D19*
%TO.P,C2,1*%
%TO.N,5v*%
X129125500Y-119313000D03*
%TO.P,C2,2*%
%TO.N,GND5V*%
X129125500Y-116813000D03*
%TD*%
D23*
%TO.P,J_esp1,1,Pin_1*%
%TO.N,3V3*%
X157480000Y-104140000D03*
D24*
%TO.P,J_esp1,2,Pin_2*%
%TO.N,GND2*%
X157480000Y-101600000D03*
%TO.P,J_esp1,3,Pin_3*%
%TO.N,D15*%
X157480000Y-99060000D03*
%TO.P,J_esp1,4,Pin_4*%
%TO.N,D2*%
X157480000Y-96520000D03*
%TO.P,J_esp1,5,Pin_5*%
%TO.N,D4*%
X157480000Y-93980000D03*
%TO.P,J_esp1,6,Pin_6*%
%TO.N,RX2*%
X157480000Y-91440000D03*
%TO.P,J_esp1,7,Pin_7*%
%TO.N,TX2*%
X157480000Y-88900000D03*
%TO.P,J_esp1,8,Pin_8*%
%TO.N,D5*%
X157480000Y-86360000D03*
%TO.P,J_esp1,9,Pin_9*%
%TO.N,D18*%
X157480000Y-83820000D03*
%TO.P,J_esp1,10,Pin_10*%
%TO.N,D19*%
X157480000Y-81280000D03*
%TO.P,J_esp1,11,Pin_11*%
%TO.N,D21*%
X157480000Y-78740000D03*
%TO.P,J_esp1,12,Pin_12*%
%TO.N,RX0*%
X157480000Y-76200000D03*
%TO.P,J_esp1,13,Pin_13*%
%TO.N,TX0*%
X157480000Y-73660000D03*
%TO.P,J_esp1,14,Pin_14*%
%TO.N,D22*%
X157480000Y-71120000D03*
%TO.P,J_esp1,15,Pin_15*%
%TO.N,D23*%
X157480000Y-68580000D03*
%TD*%
D13*
%TO.P,H3,1*%
%TO.N,N/C*%
X123029500Y-123377000D03*
%TD*%
D25*
%TO.P,J_esp0,1,Pin_1*%
%TO.N,EN*%
X132939500Y-68501000D03*
D26*
%TO.P,J_esp0,2,Pin_2*%
%TO.N,VP*%
X132939500Y-71041000D03*
%TO.P,J_esp0,3,Pin_3*%
%TO.N,VN*%
X132939500Y-73581000D03*
D24*
%TO.P,J_esp0,4,Pin_4*%
%TO.N,D34*%
X132939500Y-76121000D03*
%TO.P,J_esp0,5,Pin_5*%
%TO.N,D35*%
X132939500Y-78661000D03*
%TO.P,J_esp0,6,Pin_6*%
%TO.N,D32*%
X132939500Y-81201000D03*
%TO.P,J_esp0,7,Pin_7*%
%TO.N,D33*%
X132939500Y-83741000D03*
%TO.P,J_esp0,8,Pin_8*%
%TO.N,D25*%
X132939500Y-86281000D03*
%TO.P,J_esp0,9,Pin_9*%
%TO.N,D26*%
X132939500Y-88821000D03*
%TO.P,J_esp0,10,Pin_10*%
%TO.N,D27*%
X132939500Y-91361000D03*
%TO.P,J_esp0,11,Pin_11*%
%TO.N,D14*%
X132939500Y-93901000D03*
%TO.P,J_esp0,12,Pin_12*%
%TO.N,D12*%
X132939500Y-96441000D03*
%TO.P,J_esp0,13,Pin_13*%
%TO.N,D13*%
X132939500Y-98981000D03*
%TO.P,J_esp0,14,Pin_14*%
%TO.N,GND5V*%
X132939500Y-101521000D03*
%TO.P,J_esp0,15,Pin_15*%
%TO.N,5v*%
X132939500Y-104061000D03*
%TD*%
D13*
%TO.P,H1,1*%
%TO.N,N/C*%
X123029500Y-62417000D03*
%TD*%
D27*
%TO.N,5v*%
X164177500Y-71561000D03*
X160113500Y-123417000D03*
X164177500Y-93913000D03*
%TD*%
D28*
%TO.N,5v*%
X163669500Y-98993000D02*
X164685500Y-98993000D01*
X164177500Y-71561000D02*
X164177500Y-93913000D01*
X161637500Y-101025000D02*
X163669500Y-98993000D01*
X161637500Y-121893000D02*
X160113500Y-123417000D01*
X161637500Y-101025000D02*
X161637500Y-121893000D01*
%TD*%
M02*
