%TF.GenerationSoftware,KiCad,Pcbnew,7.0.3*%
%TF.CreationDate,2023-06-20T17:30:00-05:00*%
%TF.ProjectId,ambient_measurement,616d6269-656e-4745-9f6d-656173757265,rev?*%
%TF.SameCoordinates,Original*%
%TF.FileFunction,Legend,Top*%
%TF.FilePolarity,Positive*%
%FSLAX46Y46*%
G04 Gerber Fmt 4.6, Leading zero omitted, Abs format (unit mm)*
G04 Created by KiCad (PCBNEW 7.0.3) date 2023-06-20 17:30:00*
%MOMM*%
%LPD*%
G01*
G04 APERTURE LIST*
%ADD10C,0.150000*%
%ADD11C,0.120000*%
G04 APERTURE END LIST*
D10*
%TO.C,H2*%
X179262279Y-120231819D02*
X179262279Y-119231819D01*
X179262279Y-119708009D02*
X179833707Y-119708009D01*
X179833707Y-120231819D02*
X179833707Y-119231819D01*
X180262279Y-119327057D02*
X180309898Y-119279438D01*
X180309898Y-119279438D02*
X180405136Y-119231819D01*
X180405136Y-119231819D02*
X180643231Y-119231819D01*
X180643231Y-119231819D02*
X180738469Y-119279438D01*
X180738469Y-119279438D02*
X180786088Y-119327057D01*
X180786088Y-119327057D02*
X180833707Y-119422295D01*
X180833707Y-119422295D02*
X180833707Y-119517533D01*
X180833707Y-119517533D02*
X180786088Y-119660390D01*
X180786088Y-119660390D02*
X180214660Y-120231819D01*
X180214660Y-120231819D02*
X180833707Y-120231819D01*
%TO.C,R1*%
X167060319Y-100330982D02*
X166584128Y-100664315D01*
X167060319Y-100902410D02*
X166060319Y-100902410D01*
X166060319Y-100902410D02*
X166060319Y-100521458D01*
X166060319Y-100521458D02*
X166107938Y-100426220D01*
X166107938Y-100426220D02*
X166155557Y-100378601D01*
X166155557Y-100378601D02*
X166250795Y-100330982D01*
X166250795Y-100330982D02*
X166393652Y-100330982D01*
X166393652Y-100330982D02*
X166488890Y-100378601D01*
X166488890Y-100378601D02*
X166536509Y-100426220D01*
X166536509Y-100426220D02*
X166584128Y-100521458D01*
X166584128Y-100521458D02*
X166584128Y-100902410D01*
X167060319Y-99378601D02*
X167060319Y-99950029D01*
X167060319Y-99664315D02*
X166060319Y-99664315D01*
X166060319Y-99664315D02*
X166203176Y-99759553D01*
X166203176Y-99759553D02*
X166298414Y-99854791D01*
X166298414Y-99854791D02*
X166346033Y-99950029D01*
%TO.C,C1*%
X130895080Y-118044094D02*
X130942700Y-118091713D01*
X130942700Y-118091713D02*
X130990319Y-118234570D01*
X130990319Y-118234570D02*
X130990319Y-118329808D01*
X130990319Y-118329808D02*
X130942700Y-118472665D01*
X130942700Y-118472665D02*
X130847461Y-118567903D01*
X130847461Y-118567903D02*
X130752223Y-118615522D01*
X130752223Y-118615522D02*
X130561747Y-118663141D01*
X130561747Y-118663141D02*
X130418890Y-118663141D01*
X130418890Y-118663141D02*
X130228414Y-118615522D01*
X130228414Y-118615522D02*
X130133176Y-118567903D01*
X130133176Y-118567903D02*
X130037938Y-118472665D01*
X130037938Y-118472665D02*
X129990319Y-118329808D01*
X129990319Y-118329808D02*
X129990319Y-118234570D01*
X129990319Y-118234570D02*
X130037938Y-118091713D01*
X130037938Y-118091713D02*
X130085557Y-118044094D01*
X130990319Y-117091713D02*
X130990319Y-117663141D01*
X130990319Y-117377427D02*
X129990319Y-117377427D01*
X129990319Y-117377427D02*
X130133176Y-117472665D01*
X130133176Y-117472665D02*
X130228414Y-117567903D01*
X130228414Y-117567903D02*
X130276033Y-117663141D01*
%TO.C,J1*%
X168116319Y-103799649D02*
X168830604Y-103799649D01*
X168830604Y-103799649D02*
X168973461Y-103847268D01*
X168973461Y-103847268D02*
X169068700Y-103942506D01*
X169068700Y-103942506D02*
X169116319Y-104085363D01*
X169116319Y-104085363D02*
X169116319Y-104180601D01*
X169116319Y-102799649D02*
X169116319Y-103371077D01*
X169116319Y-103085363D02*
X168116319Y-103085363D01*
X168116319Y-103085363D02*
X168259176Y-103180601D01*
X168259176Y-103180601D02*
X168354414Y-103275839D01*
X168354414Y-103275839D02*
X168402033Y-103371077D01*
%TO.C,J2*%
X168166319Y-78947649D02*
X168880604Y-78947649D01*
X168880604Y-78947649D02*
X169023461Y-78995268D01*
X169023461Y-78995268D02*
X169118700Y-79090506D01*
X169118700Y-79090506D02*
X169166319Y-79233363D01*
X169166319Y-79233363D02*
X169166319Y-79328601D01*
X168261557Y-78519077D02*
X168213938Y-78471458D01*
X168213938Y-78471458D02*
X168166319Y-78376220D01*
X168166319Y-78376220D02*
X168166319Y-78138125D01*
X168166319Y-78138125D02*
X168213938Y-78042887D01*
X168213938Y-78042887D02*
X168261557Y-77995268D01*
X168261557Y-77995268D02*
X168356795Y-77947649D01*
X168356795Y-77947649D02*
X168452033Y-77947649D01*
X168452033Y-77947649D02*
X168594890Y-77995268D01*
X168594890Y-77995268D02*
X169166319Y-78566696D01*
X169166319Y-78566696D02*
X169166319Y-77947649D01*
%TO.C,H4*%
X179262279Y-59171819D02*
X179262279Y-58171819D01*
X179262279Y-58648009D02*
X179833707Y-58648009D01*
X179833707Y-59171819D02*
X179833707Y-58171819D01*
X180738469Y-58505152D02*
X180738469Y-59171819D01*
X180500374Y-58124200D02*
X180262279Y-58838485D01*
X180262279Y-58838485D02*
X180881326Y-58838485D01*
%TO.C,C2*%
X126985080Y-118130982D02*
X127032700Y-118178601D01*
X127032700Y-118178601D02*
X127080319Y-118321458D01*
X127080319Y-118321458D02*
X127080319Y-118416696D01*
X127080319Y-118416696D02*
X127032700Y-118559553D01*
X127032700Y-118559553D02*
X126937461Y-118654791D01*
X126937461Y-118654791D02*
X126842223Y-118702410D01*
X126842223Y-118702410D02*
X126651747Y-118750029D01*
X126651747Y-118750029D02*
X126508890Y-118750029D01*
X126508890Y-118750029D02*
X126318414Y-118702410D01*
X126318414Y-118702410D02*
X126223176Y-118654791D01*
X126223176Y-118654791D02*
X126127938Y-118559553D01*
X126127938Y-118559553D02*
X126080319Y-118416696D01*
X126080319Y-118416696D02*
X126080319Y-118321458D01*
X126080319Y-118321458D02*
X126127938Y-118178601D01*
X126127938Y-118178601D02*
X126175557Y-118130982D01*
X126175557Y-117750029D02*
X126127938Y-117702410D01*
X126127938Y-117702410D02*
X126080319Y-117607172D01*
X126080319Y-117607172D02*
X126080319Y-117369077D01*
X126080319Y-117369077D02*
X126127938Y-117273839D01*
X126127938Y-117273839D02*
X126175557Y-117226220D01*
X126175557Y-117226220D02*
X126270795Y-117178601D01*
X126270795Y-117178601D02*
X126366033Y-117178601D01*
X126366033Y-117178601D02*
X126508890Y-117226220D01*
X126508890Y-117226220D02*
X127080319Y-117797648D01*
X127080319Y-117797648D02*
X127080319Y-117178601D01*
%TO.C,J_esp1*%
X152622319Y-87861316D02*
X153336604Y-87861316D01*
X153336604Y-87861316D02*
X153479461Y-87908935D01*
X153479461Y-87908935D02*
X153574700Y-88004173D01*
X153574700Y-88004173D02*
X153622319Y-88147030D01*
X153622319Y-88147030D02*
X153622319Y-88242268D01*
X153717557Y-87623221D02*
X153717557Y-86861316D01*
X153574700Y-86242268D02*
X153622319Y-86337506D01*
X153622319Y-86337506D02*
X153622319Y-86527982D01*
X153622319Y-86527982D02*
X153574700Y-86623220D01*
X153574700Y-86623220D02*
X153479461Y-86670839D01*
X153479461Y-86670839D02*
X153098509Y-86670839D01*
X153098509Y-86670839D02*
X153003271Y-86623220D01*
X153003271Y-86623220D02*
X152955652Y-86527982D01*
X152955652Y-86527982D02*
X152955652Y-86337506D01*
X152955652Y-86337506D02*
X153003271Y-86242268D01*
X153003271Y-86242268D02*
X153098509Y-86194649D01*
X153098509Y-86194649D02*
X153193747Y-86194649D01*
X153193747Y-86194649D02*
X153288985Y-86670839D01*
X153574700Y-85813696D02*
X153622319Y-85718458D01*
X153622319Y-85718458D02*
X153622319Y-85527982D01*
X153622319Y-85527982D02*
X153574700Y-85432744D01*
X153574700Y-85432744D02*
X153479461Y-85385125D01*
X153479461Y-85385125D02*
X153431842Y-85385125D01*
X153431842Y-85385125D02*
X153336604Y-85432744D01*
X153336604Y-85432744D02*
X153288985Y-85527982D01*
X153288985Y-85527982D02*
X153288985Y-85670839D01*
X153288985Y-85670839D02*
X153241366Y-85766077D01*
X153241366Y-85766077D02*
X153146128Y-85813696D01*
X153146128Y-85813696D02*
X153098509Y-85813696D01*
X153098509Y-85813696D02*
X153003271Y-85766077D01*
X153003271Y-85766077D02*
X152955652Y-85670839D01*
X152955652Y-85670839D02*
X152955652Y-85527982D01*
X152955652Y-85527982D02*
X153003271Y-85432744D01*
X152955652Y-84956553D02*
X153955652Y-84956553D01*
X153003271Y-84956553D02*
X152955652Y-84861315D01*
X152955652Y-84861315D02*
X152955652Y-84670839D01*
X152955652Y-84670839D02*
X153003271Y-84575601D01*
X153003271Y-84575601D02*
X153050890Y-84527982D01*
X153050890Y-84527982D02*
X153146128Y-84480363D01*
X153146128Y-84480363D02*
X153431842Y-84480363D01*
X153431842Y-84480363D02*
X153527080Y-84527982D01*
X153527080Y-84527982D02*
X153574700Y-84575601D01*
X153574700Y-84575601D02*
X153622319Y-84670839D01*
X153622319Y-84670839D02*
X153622319Y-84861315D01*
X153622319Y-84861315D02*
X153574700Y-84956553D01*
X153622319Y-83527982D02*
X153622319Y-84099410D01*
X153622319Y-83813696D02*
X152622319Y-83813696D01*
X152622319Y-83813696D02*
X152765176Y-83908934D01*
X152765176Y-83908934D02*
X152860414Y-84004172D01*
X152860414Y-84004172D02*
X152908033Y-84099410D01*
%TO.C,H3*%
X122366279Y-120131819D02*
X122366279Y-119131819D01*
X122366279Y-119608009D02*
X122937707Y-119608009D01*
X122937707Y-120131819D02*
X122937707Y-119131819D01*
X123318660Y-119131819D02*
X123937707Y-119131819D01*
X123937707Y-119131819D02*
X123604374Y-119512771D01*
X123604374Y-119512771D02*
X123747231Y-119512771D01*
X123747231Y-119512771D02*
X123842469Y-119560390D01*
X123842469Y-119560390D02*
X123890088Y-119608009D01*
X123890088Y-119608009D02*
X123937707Y-119703247D01*
X123937707Y-119703247D02*
X123937707Y-119941342D01*
X123937707Y-119941342D02*
X123890088Y-120036580D01*
X123890088Y-120036580D02*
X123842469Y-120084200D01*
X123842469Y-120084200D02*
X123747231Y-120131819D01*
X123747231Y-120131819D02*
X123461517Y-120131819D01*
X123461517Y-120131819D02*
X123366279Y-120084200D01*
X123366279Y-120084200D02*
X123318660Y-120036580D01*
%TO.C,J_esp0*%
X137876819Y-88642316D02*
X138591104Y-88642316D01*
X138591104Y-88642316D02*
X138733961Y-88689935D01*
X138733961Y-88689935D02*
X138829200Y-88785173D01*
X138829200Y-88785173D02*
X138876819Y-88928030D01*
X138876819Y-88928030D02*
X138876819Y-89023268D01*
X138972057Y-88404221D02*
X138972057Y-87642316D01*
X138829200Y-87023268D02*
X138876819Y-87118506D01*
X138876819Y-87118506D02*
X138876819Y-87308982D01*
X138876819Y-87308982D02*
X138829200Y-87404220D01*
X138829200Y-87404220D02*
X138733961Y-87451839D01*
X138733961Y-87451839D02*
X138353009Y-87451839D01*
X138353009Y-87451839D02*
X138257771Y-87404220D01*
X138257771Y-87404220D02*
X138210152Y-87308982D01*
X138210152Y-87308982D02*
X138210152Y-87118506D01*
X138210152Y-87118506D02*
X138257771Y-87023268D01*
X138257771Y-87023268D02*
X138353009Y-86975649D01*
X138353009Y-86975649D02*
X138448247Y-86975649D01*
X138448247Y-86975649D02*
X138543485Y-87451839D01*
X138829200Y-86594696D02*
X138876819Y-86499458D01*
X138876819Y-86499458D02*
X138876819Y-86308982D01*
X138876819Y-86308982D02*
X138829200Y-86213744D01*
X138829200Y-86213744D02*
X138733961Y-86166125D01*
X138733961Y-86166125D02*
X138686342Y-86166125D01*
X138686342Y-86166125D02*
X138591104Y-86213744D01*
X138591104Y-86213744D02*
X138543485Y-86308982D01*
X138543485Y-86308982D02*
X138543485Y-86451839D01*
X138543485Y-86451839D02*
X138495866Y-86547077D01*
X138495866Y-86547077D02*
X138400628Y-86594696D01*
X138400628Y-86594696D02*
X138353009Y-86594696D01*
X138353009Y-86594696D02*
X138257771Y-86547077D01*
X138257771Y-86547077D02*
X138210152Y-86451839D01*
X138210152Y-86451839D02*
X138210152Y-86308982D01*
X138210152Y-86308982D02*
X138257771Y-86213744D01*
X138210152Y-85737553D02*
X139210152Y-85737553D01*
X138257771Y-85737553D02*
X138210152Y-85642315D01*
X138210152Y-85642315D02*
X138210152Y-85451839D01*
X138210152Y-85451839D02*
X138257771Y-85356601D01*
X138257771Y-85356601D02*
X138305390Y-85308982D01*
X138305390Y-85308982D02*
X138400628Y-85261363D01*
X138400628Y-85261363D02*
X138686342Y-85261363D01*
X138686342Y-85261363D02*
X138781580Y-85308982D01*
X138781580Y-85308982D02*
X138829200Y-85356601D01*
X138829200Y-85356601D02*
X138876819Y-85451839D01*
X138876819Y-85451839D02*
X138876819Y-85642315D01*
X138876819Y-85642315D02*
X138829200Y-85737553D01*
X137876819Y-84642315D02*
X137876819Y-84547077D01*
X137876819Y-84547077D02*
X137924438Y-84451839D01*
X137924438Y-84451839D02*
X137972057Y-84404220D01*
X137972057Y-84404220D02*
X138067295Y-84356601D01*
X138067295Y-84356601D02*
X138257771Y-84308982D01*
X138257771Y-84308982D02*
X138495866Y-84308982D01*
X138495866Y-84308982D02*
X138686342Y-84356601D01*
X138686342Y-84356601D02*
X138781580Y-84404220D01*
X138781580Y-84404220D02*
X138829200Y-84451839D01*
X138829200Y-84451839D02*
X138876819Y-84547077D01*
X138876819Y-84547077D02*
X138876819Y-84642315D01*
X138876819Y-84642315D02*
X138829200Y-84737553D01*
X138829200Y-84737553D02*
X138781580Y-84785172D01*
X138781580Y-84785172D02*
X138686342Y-84832791D01*
X138686342Y-84832791D02*
X138495866Y-84880410D01*
X138495866Y-84880410D02*
X138257771Y-84880410D01*
X138257771Y-84880410D02*
X138067295Y-84832791D01*
X138067295Y-84832791D02*
X137972057Y-84785172D01*
X137972057Y-84785172D02*
X137924438Y-84737553D01*
X137924438Y-84737553D02*
X137876819Y-84642315D01*
%TO.C,H1*%
X122366279Y-59171819D02*
X122366279Y-58171819D01*
X122366279Y-58648009D02*
X122937707Y-58648009D01*
X122937707Y-59171819D02*
X122937707Y-58171819D01*
X123937707Y-59171819D02*
X123366279Y-59171819D01*
X123651993Y-59171819D02*
X123651993Y-58171819D01*
X123651993Y-58171819D02*
X123556755Y-58314676D01*
X123556755Y-58314676D02*
X123461517Y-58409914D01*
X123461517Y-58409914D02*
X123366279Y-58457533D01*
D11*
%TO.C,5V1*%
X140234388Y-112933000D02*
X140234388Y-125533000D01*
X140234388Y-125533000D02*
X150584388Y-125533000D01*
X150584388Y-117733000D02*
X151084388Y-118033000D01*
X150584388Y-123133000D02*
X150584388Y-117733000D01*
X150584388Y-124583000D02*
X151084388Y-124833000D01*
X150584388Y-125533000D02*
X150584388Y-124583000D01*
X151084388Y-112933000D02*
X140234388Y-112933000D01*
X151084388Y-118033000D02*
X151084388Y-112933000D01*
X151084388Y-122883000D02*
X150584388Y-123133000D01*
X151084388Y-122933000D02*
X151084388Y-122883000D01*
X151084388Y-124833000D02*
X151084388Y-122933000D01*
%TO.C,R1*%
X164685500Y-99913000D02*
X164685500Y-100533000D01*
X165605500Y-98993000D02*
G75*
G03*
X165605500Y-98993000I-920000J0D01*
G01*
%TO.C,C1*%
X132810500Y-120780887D02*
X132810500Y-120280887D01*
X132560500Y-120530887D02*
X133060500Y-120530887D01*
X131705500Y-117976112D02*
X136865500Y-117976112D01*
X131705500Y-117936112D02*
X136865500Y-117936112D01*
X131706500Y-117896112D02*
X136864500Y-117896112D01*
X131707500Y-117856112D02*
X136863500Y-117856112D01*
X131709500Y-117816112D02*
X136861500Y-117816112D01*
X131712500Y-117776112D02*
X136858500Y-117776112D01*
X131716500Y-117736112D02*
X133245500Y-117736112D01*
X135325500Y-117736112D02*
X136854500Y-117736112D01*
X131720500Y-117696112D02*
X133245500Y-117696112D01*
X135325500Y-117696112D02*
X136850500Y-117696112D01*
X131724500Y-117656112D02*
X133245500Y-117656112D01*
X135325500Y-117656112D02*
X136846500Y-117656112D01*
X131729500Y-117616112D02*
X133245500Y-117616112D01*
X135325500Y-117616112D02*
X136841500Y-117616112D01*
X131735500Y-117576112D02*
X133245500Y-117576112D01*
X135325500Y-117576112D02*
X136835500Y-117576112D01*
X131742500Y-117536112D02*
X133245500Y-117536112D01*
X135325500Y-117536112D02*
X136828500Y-117536112D01*
X131749500Y-117496112D02*
X133245500Y-117496112D01*
X135325500Y-117496112D02*
X136821500Y-117496112D01*
X131757500Y-117456112D02*
X133245500Y-117456112D01*
X135325500Y-117456112D02*
X136813500Y-117456112D01*
X131765500Y-117416112D02*
X133245500Y-117416112D01*
X135325500Y-117416112D02*
X136805500Y-117416112D01*
X131774500Y-117376112D02*
X133245500Y-117376112D01*
X135325500Y-117376112D02*
X136796500Y-117376112D01*
X131784500Y-117336112D02*
X133245500Y-117336112D01*
X135325500Y-117336112D02*
X136786500Y-117336112D01*
X131794500Y-117296112D02*
X133245500Y-117296112D01*
X135325500Y-117296112D02*
X136776500Y-117296112D01*
X131805500Y-117255112D02*
X133245500Y-117255112D01*
X135325500Y-117255112D02*
X136765500Y-117255112D01*
X131817500Y-117215112D02*
X133245500Y-117215112D01*
X135325500Y-117215112D02*
X136753500Y-117215112D01*
X131830500Y-117175112D02*
X133245500Y-117175112D01*
X135325500Y-117175112D02*
X136740500Y-117175112D01*
X131843500Y-117135112D02*
X133245500Y-117135112D01*
X135325500Y-117135112D02*
X136727500Y-117135112D01*
X131857500Y-117095112D02*
X133245500Y-117095112D01*
X135325500Y-117095112D02*
X136713500Y-117095112D01*
X131871500Y-117055112D02*
X133245500Y-117055112D01*
X135325500Y-117055112D02*
X136699500Y-117055112D01*
X131887500Y-117015112D02*
X133245500Y-117015112D01*
X135325500Y-117015112D02*
X136683500Y-117015112D01*
X131903500Y-116975112D02*
X133245500Y-116975112D01*
X135325500Y-116975112D02*
X136667500Y-116975112D01*
X131920500Y-116935112D02*
X133245500Y-116935112D01*
X135325500Y-116935112D02*
X136650500Y-116935112D01*
X131937500Y-116895112D02*
X133245500Y-116895112D01*
X135325500Y-116895112D02*
X136633500Y-116895112D01*
X131956500Y-116855112D02*
X133245500Y-116855112D01*
X135325500Y-116855112D02*
X136614500Y-116855112D01*
X131975500Y-116815112D02*
X133245500Y-116815112D01*
X135325500Y-116815112D02*
X136595500Y-116815112D01*
X131995500Y-116775112D02*
X133245500Y-116775112D01*
X135325500Y-116775112D02*
X136575500Y-116775112D01*
X132017500Y-116735112D02*
X133245500Y-116735112D01*
X135325500Y-116735112D02*
X136553500Y-116735112D01*
X132038500Y-116695112D02*
X133245500Y-116695112D01*
X135325500Y-116695112D02*
X136532500Y-116695112D01*
X132061500Y-116655112D02*
X133245500Y-116655112D01*
X135325500Y-116655112D02*
X136509500Y-116655112D01*
X132085500Y-116615112D02*
X133245500Y-116615112D01*
X135325500Y-116615112D02*
X136485500Y-116615112D01*
X132110500Y-116575112D02*
X133245500Y-116575112D01*
X135325500Y-116575112D02*
X136460500Y-116575112D01*
X132136500Y-116535112D02*
X133245500Y-116535112D01*
X135325500Y-116535112D02*
X136434500Y-116535112D01*
X132163500Y-116495112D02*
X133245500Y-116495112D01*
X135325500Y-116495112D02*
X136407500Y-116495112D01*
X132190500Y-116455112D02*
X133245500Y-116455112D01*
X135325500Y-116455112D02*
X136380500Y-116455112D01*
X132220500Y-116415112D02*
X133245500Y-116415112D01*
X135325500Y-116415112D02*
X136350500Y-116415112D01*
X132250500Y-116375112D02*
X133245500Y-116375112D01*
X135325500Y-116375112D02*
X136320500Y-116375112D01*
X132281500Y-116335112D02*
X133245500Y-116335112D01*
X135325500Y-116335112D02*
X136289500Y-116335112D01*
X132314500Y-116295112D02*
X133245500Y-116295112D01*
X135325500Y-116295112D02*
X136256500Y-116295112D01*
X132348500Y-116255112D02*
X133245500Y-116255112D01*
X135325500Y-116255112D02*
X136222500Y-116255112D01*
X132384500Y-116215112D02*
X133245500Y-116215112D01*
X135325500Y-116215112D02*
X136186500Y-116215112D01*
X132421500Y-116175112D02*
X133245500Y-116175112D01*
X135325500Y-116175112D02*
X136149500Y-116175112D01*
X132459500Y-116135112D02*
X133245500Y-116135112D01*
X135325500Y-116135112D02*
X136111500Y-116135112D01*
X132500500Y-116095112D02*
X133245500Y-116095112D01*
X135325500Y-116095112D02*
X136070500Y-116095112D01*
X132542500Y-116055112D02*
X133245500Y-116055112D01*
X135325500Y-116055112D02*
X136028500Y-116055112D01*
X132586500Y-116015112D02*
X133245500Y-116015112D01*
X135325500Y-116015112D02*
X135984500Y-116015112D01*
X132632500Y-115975112D02*
X133245500Y-115975112D01*
X135325500Y-115975112D02*
X135938500Y-115975112D01*
X132680500Y-115935112D02*
X133245500Y-115935112D01*
X135325500Y-115935112D02*
X135890500Y-115935112D01*
X132731500Y-115895112D02*
X133245500Y-115895112D01*
X135325500Y-115895112D02*
X135839500Y-115895112D01*
X132785500Y-115855112D02*
X133245500Y-115855112D01*
X135325500Y-115855112D02*
X135785500Y-115855112D01*
X132842500Y-115815112D02*
X133245500Y-115815112D01*
X135325500Y-115815112D02*
X135728500Y-115815112D01*
X132902500Y-115775112D02*
X133245500Y-115775112D01*
X135325500Y-115775112D02*
X135668500Y-115775112D01*
X132966500Y-115735112D02*
X133245500Y-115735112D01*
X135325500Y-115735112D02*
X135604500Y-115735112D01*
X133034500Y-115695112D02*
X133245500Y-115695112D01*
X135325500Y-115695112D02*
X135536500Y-115695112D01*
X133107500Y-115655112D02*
X135463500Y-115655112D01*
X133187500Y-115615112D02*
X135383500Y-115615112D01*
X133274500Y-115575112D02*
X135296500Y-115575112D01*
X133370500Y-115535112D02*
X135200500Y-115535112D01*
X133480500Y-115495112D02*
X135090500Y-115495112D01*
X133608500Y-115455112D02*
X134962500Y-115455112D01*
X133767500Y-115415112D02*
X134803500Y-115415112D01*
X134001500Y-115375112D02*
X134569500Y-115375112D01*
X136905500Y-117976112D02*
G75*
G03*
X136905500Y-117976112I-2620000J0D01*
G01*
%TO.C,J1*%
X169361500Y-106565000D02*
X169361500Y-103565000D01*
X172361500Y-106565000D02*
X169361500Y-106565000D01*
X169741500Y-106185000D02*
X182481500Y-106185000D01*
X169741500Y-106185000D02*
X182481500Y-106185000D01*
X169741500Y-106185000D02*
X169741500Y-90945000D01*
X169741500Y-106185000D02*
X169741500Y-90945000D01*
X182481500Y-106185000D02*
X182481500Y-90945000D01*
X182481500Y-106185000D02*
X182481500Y-90945000D01*
X169741500Y-90945000D02*
X182481500Y-90945000D01*
X169741500Y-90945000D02*
X182481500Y-90945000D01*
%TO.C,J2*%
X169561500Y-88863000D02*
X169561500Y-68063000D01*
X182161500Y-88863000D02*
X169561500Y-88863000D01*
X174361500Y-68563000D02*
X179761500Y-68563000D01*
X179761500Y-68563000D02*
X179461500Y-68013000D01*
X181211500Y-68563000D02*
X182161500Y-68563000D01*
X182161500Y-68563000D02*
X182161500Y-88863000D01*
X169561500Y-68063000D02*
X174611500Y-68063000D01*
X174611500Y-68063000D02*
X174361500Y-68563000D01*
X179461500Y-68013000D02*
X181511500Y-68013000D01*
X181511500Y-68013000D02*
X181211500Y-68563000D01*
%TO.C,C2*%
X127755500Y-120683000D02*
X130495500Y-120683000D01*
X127755500Y-120683000D02*
X127755500Y-115443000D01*
X130495500Y-120683000D02*
X130495500Y-115443000D01*
X127755500Y-115443000D02*
X130495500Y-115443000D01*
%TO.C,J_esp1*%
X154520000Y-107050000D02*
X154520000Y-104640000D01*
X156930000Y-107050000D02*
X154520000Y-107050000D01*
X154820000Y-106750000D02*
X157350000Y-106750000D01*
X157350000Y-106750000D02*
X157350000Y-106620000D01*
X159160000Y-106750000D02*
X160140000Y-106750000D01*
X160140000Y-106750000D02*
X160140000Y-90280000D01*
X157350000Y-106620000D02*
X159160000Y-106620000D01*
X159160000Y-106620000D02*
X159160000Y-106750000D01*
X160140000Y-90280000D02*
X161640000Y-90280000D01*
X161640000Y-90280000D02*
X161640000Y-82440000D01*
X160140000Y-82440000D02*
X160140000Y-65970000D01*
X161640000Y-82440000D02*
X160140000Y-82440000D01*
X157350000Y-66100000D02*
X157350000Y-65970000D01*
X159160000Y-66100000D02*
X157350000Y-66100000D01*
X154820000Y-65970000D02*
X154820000Y-106750000D01*
X157350000Y-65970000D02*
X154820000Y-65970000D01*
X159160000Y-65970000D02*
X159160000Y-66100000D01*
X160140000Y-65970000D02*
X159160000Y-65970000D01*
%TO.C,J_esp0*%
X135899500Y-65591000D02*
X135899500Y-68001000D01*
X133489500Y-65591000D02*
X135899500Y-65591000D01*
X135599500Y-65891000D02*
X133069500Y-65891000D01*
X133069500Y-65891000D02*
X133069500Y-66021000D01*
X131259500Y-65891000D02*
X130279500Y-65891000D01*
X130279500Y-65891000D02*
X130279500Y-82361000D01*
X133069500Y-66021000D02*
X131259500Y-66021000D01*
X131259500Y-66021000D02*
X131259500Y-65891000D01*
X130279500Y-82361000D02*
X128779500Y-82361000D01*
X128779500Y-82361000D02*
X128779500Y-90201000D01*
X130279500Y-90201000D02*
X130279500Y-106671000D01*
X128779500Y-90201000D02*
X130279500Y-90201000D01*
X133069500Y-106541000D02*
X133069500Y-106671000D01*
X131259500Y-106541000D02*
X133069500Y-106541000D01*
X135599500Y-106671000D02*
X135599500Y-65891000D01*
X133069500Y-106671000D02*
X135599500Y-106671000D01*
X131259500Y-106671000D02*
X131259500Y-106541000D01*
X130279500Y-106671000D02*
X131259500Y-106671000D01*
%TD*%
M02*
