%TF.GenerationSoftware,KiCad,Pcbnew,6.0.7+dfsg-1+b1*%
%TF.CreationDate,2022-10-19T23:41:24-05:00*%
%TF.ProjectId,solar_battery_charge,736f6c61-725f-4626-9174-746572795f63,rev?*%
%TF.SameCoordinates,Original*%
%TF.FileFunction,Legend,Top*%
%TF.FilePolarity,Positive*%
%FSLAX46Y46*%
G04 Gerber Fmt 4.6, Leading zero omitted, Abs format (unit mm)*
G04 Created by KiCad (PCBNEW 6.0.7+dfsg-1+b1) date 2022-10-19 23:41:24*
%MOMM*%
%LPD*%
G01*
G04 APERTURE LIST*
%ADD10C,0.150000*%
%ADD11C,0.120000*%
G04 APERTURE END LIST*
D10*
%TO.C,U1*%
X148838095Y-50052380D02*
X148838095Y-50861904D01*
X148885714Y-50957142D01*
X148933333Y-51004761D01*
X149028571Y-51052380D01*
X149219047Y-51052380D01*
X149314285Y-51004761D01*
X149361904Y-50957142D01*
X149409523Y-50861904D01*
X149409523Y-50052380D01*
X150409523Y-51052380D02*
X149838095Y-51052380D01*
X150123809Y-51052380D02*
X150123809Y-50052380D01*
X150028571Y-50195238D01*
X149933333Y-50290476D01*
X149838095Y-50338095D01*
%TO.C,J4*%
X105016666Y-37997380D02*
X105016666Y-38711666D01*
X104969047Y-38854523D01*
X104873809Y-38949761D01*
X104730952Y-38997380D01*
X104635714Y-38997380D01*
X105921428Y-38330714D02*
X105921428Y-38997380D01*
X105683333Y-37949761D02*
X105445238Y-38664047D01*
X106064285Y-38664047D01*
%TO.C,H3*%
X99438095Y-68052380D02*
X99438095Y-67052380D01*
X99438095Y-67528571D02*
X100009523Y-67528571D01*
X100009523Y-68052380D02*
X100009523Y-67052380D01*
X100390476Y-67052380D02*
X101009523Y-67052380D01*
X100676190Y-67433333D01*
X100819047Y-67433333D01*
X100914285Y-67480952D01*
X100961904Y-67528571D01*
X101009523Y-67623809D01*
X101009523Y-67861904D01*
X100961904Y-67957142D01*
X100914285Y-68004761D01*
X100819047Y-68052380D01*
X100533333Y-68052380D01*
X100438095Y-68004761D01*
X100390476Y-67957142D01*
%TO.C,J2*%
X110375866Y-49850380D02*
X110375866Y-50564666D01*
X110328247Y-50707523D01*
X110233009Y-50802761D01*
X110090152Y-50850380D01*
X109994914Y-50850380D01*
X110804438Y-49945619D02*
X110852057Y-49898000D01*
X110947295Y-49850380D01*
X111185390Y-49850380D01*
X111280628Y-49898000D01*
X111328247Y-49945619D01*
X111375866Y-50040857D01*
X111375866Y-50136095D01*
X111328247Y-50278952D01*
X110756819Y-50850380D01*
X111375866Y-50850380D01*
%TO.C,H4*%
X162838095Y-68252380D02*
X162838095Y-67252380D01*
X162838095Y-67728571D02*
X163409523Y-67728571D01*
X163409523Y-68252380D02*
X163409523Y-67252380D01*
X164314285Y-67585714D02*
X164314285Y-68252380D01*
X164076190Y-67204761D02*
X163838095Y-67919047D01*
X164457142Y-67919047D01*
%TO.C,J6*%
X122316666Y-31382380D02*
X122316666Y-32096666D01*
X122269047Y-32239523D01*
X122173809Y-32334761D01*
X122030952Y-32382380D01*
X121935714Y-32382380D01*
X123221428Y-31382380D02*
X123030952Y-31382380D01*
X122935714Y-31430000D01*
X122888095Y-31477619D01*
X122792857Y-31620476D01*
X122745238Y-31810952D01*
X122745238Y-32191904D01*
X122792857Y-32287142D01*
X122840476Y-32334761D01*
X122935714Y-32382380D01*
X123126190Y-32382380D01*
X123221428Y-32334761D01*
X123269047Y-32287142D01*
X123316666Y-32191904D01*
X123316666Y-31953809D01*
X123269047Y-31858571D01*
X123221428Y-31810952D01*
X123126190Y-31763333D01*
X122935714Y-31763333D01*
X122840476Y-31810952D01*
X122792857Y-31858571D01*
X122745238Y-31953809D01*
%TO.C,U2*%
X124438095Y-49452380D02*
X124438095Y-50261904D01*
X124485714Y-50357142D01*
X124533333Y-50404761D01*
X124628571Y-50452380D01*
X124819047Y-50452380D01*
X124914285Y-50404761D01*
X124961904Y-50357142D01*
X125009523Y-50261904D01*
X125009523Y-49452380D01*
X125438095Y-49547619D02*
X125485714Y-49500000D01*
X125580952Y-49452380D01*
X125819047Y-49452380D01*
X125914285Y-49500000D01*
X125961904Y-49547619D01*
X126009523Y-49642857D01*
X126009523Y-49738095D01*
X125961904Y-49880952D01*
X125390476Y-50452380D01*
X126009523Y-50452380D01*
%TO.C,H1*%
X102538095Y-28132380D02*
X102538095Y-27132380D01*
X102538095Y-27608571D02*
X103109523Y-27608571D01*
X103109523Y-28132380D02*
X103109523Y-27132380D01*
X104109523Y-28132380D02*
X103538095Y-28132380D01*
X103823809Y-28132380D02*
X103823809Y-27132380D01*
X103728571Y-27275238D01*
X103633333Y-27370476D01*
X103538095Y-27418095D01*
%TO.C,J7*%
X142247619Y-50466666D02*
X141533333Y-50466666D01*
X141390476Y-50419047D01*
X141295238Y-50323809D01*
X141247619Y-50180952D01*
X141247619Y-50085714D01*
X142247619Y-50847619D02*
X142247619Y-51514285D01*
X141247619Y-51085714D01*
%TO.C,U3*%
X138433295Y-30485180D02*
X138433295Y-31294704D01*
X138480914Y-31389942D01*
X138528533Y-31437561D01*
X138623771Y-31485180D01*
X138814247Y-31485180D01*
X138909485Y-31437561D01*
X138957104Y-31389942D01*
X139004723Y-31294704D01*
X139004723Y-30485180D01*
X139385676Y-30485180D02*
X140004723Y-30485180D01*
X139671390Y-30866133D01*
X139814247Y-30866133D01*
X139909485Y-30913752D01*
X139957104Y-30961371D01*
X140004723Y-31056609D01*
X140004723Y-31294704D01*
X139957104Y-31389942D01*
X139909485Y-31437561D01*
X139814247Y-31485180D01*
X139528533Y-31485180D01*
X139433295Y-31437561D01*
X139385676Y-31389942D01*
%TO.C,J3*%
X102585866Y-49830380D02*
X102585866Y-50544666D01*
X102538247Y-50687523D01*
X102443009Y-50782761D01*
X102300152Y-50830380D01*
X102204914Y-50830380D01*
X102966819Y-49830380D02*
X103585866Y-49830380D01*
X103252533Y-50211333D01*
X103395390Y-50211333D01*
X103490628Y-50258952D01*
X103538247Y-50306571D01*
X103585866Y-50401809D01*
X103585866Y-50639904D01*
X103538247Y-50735142D01*
X103490628Y-50782761D01*
X103395390Y-50830380D01*
X103109676Y-50830380D01*
X103014438Y-50782761D01*
X102966819Y-50735142D01*
%TO.C,J1*%
X164617466Y-49349980D02*
X164617466Y-50064266D01*
X164569847Y-50207123D01*
X164474609Y-50302361D01*
X164331752Y-50349980D01*
X164236514Y-50349980D01*
X165617466Y-50349980D02*
X165046038Y-50349980D01*
X165331752Y-50349980D02*
X165331752Y-49349980D01*
X165236514Y-49492838D01*
X165141276Y-49588076D01*
X165046038Y-49635695D01*
%TO.C,H2*%
X159448095Y-28632380D02*
X159448095Y-27632380D01*
X159448095Y-28108571D02*
X160019523Y-28108571D01*
X160019523Y-28632380D02*
X160019523Y-27632380D01*
X160448095Y-27727619D02*
X160495714Y-27680000D01*
X160590952Y-27632380D01*
X160829047Y-27632380D01*
X160924285Y-27680000D01*
X160971904Y-27727619D01*
X161019523Y-27822857D01*
X161019523Y-27918095D01*
X160971904Y-28060952D01*
X160400476Y-28632380D01*
X161019523Y-28632380D01*
%TO.C,J5*%
X122316666Y-64323980D02*
X122316666Y-65038266D01*
X122269047Y-65181123D01*
X122173809Y-65276361D01*
X122030952Y-65323980D01*
X121935714Y-65323980D01*
X123269047Y-64323980D02*
X122792857Y-64323980D01*
X122745238Y-64800171D01*
X122792857Y-64752552D01*
X122888095Y-64704933D01*
X123126190Y-64704933D01*
X123221428Y-64752552D01*
X123269047Y-64800171D01*
X123316666Y-64895409D01*
X123316666Y-65133504D01*
X123269047Y-65228742D01*
X123221428Y-65276361D01*
X123126190Y-65323980D01*
X122888095Y-65323980D01*
X122792857Y-65276361D01*
X122745238Y-65228742D01*
%TO.C,U4*%
X138385895Y-61444780D02*
X138385895Y-62254304D01*
X138433514Y-62349542D01*
X138481133Y-62397161D01*
X138576371Y-62444780D01*
X138766847Y-62444780D01*
X138862085Y-62397161D01*
X138909704Y-62349542D01*
X138957323Y-62254304D01*
X138957323Y-61444780D01*
X139862085Y-61778114D02*
X139862085Y-62444780D01*
X139623990Y-61397161D02*
X139385895Y-62111447D01*
X140004942Y-62111447D01*
D11*
%TO.C,U1*%
X156287500Y-45475000D02*
X151107500Y-45475000D01*
X156287500Y-52446000D02*
X154777500Y-52446000D01*
X151087500Y-45465000D02*
X151097500Y-55715000D01*
X154777500Y-45475000D02*
X154777500Y-55715000D01*
X156287500Y-55715000D02*
X151097500Y-55715000D01*
X156287500Y-48745000D02*
X154777500Y-48745000D01*
X156287500Y-45475000D02*
X156287500Y-55715000D01*
%TO.C,J4*%
X100470000Y-31690000D02*
X100470000Y-39310000D01*
X100470000Y-39310000D02*
X110630000Y-39310000D01*
X110630000Y-31690000D02*
X100470000Y-31690000D01*
X110630000Y-39310000D02*
X110630000Y-31690000D01*
X100470000Y-32960000D02*
X110630000Y-32960000D01*
%TO.C,J2*%
X116521700Y-46278000D02*
X116521700Y-48688000D01*
X116221700Y-46578000D02*
X113691700Y-46578000D01*
X116221700Y-54178000D02*
X116221700Y-46578000D01*
X110901700Y-54178000D02*
X111881700Y-54178000D01*
X114111700Y-46278000D02*
X116521700Y-46278000D01*
X110901700Y-46578000D02*
X110901700Y-46838000D01*
X113691700Y-54048000D02*
X113691700Y-54178000D01*
X109401700Y-53918000D02*
X110901700Y-53918000D01*
X111881700Y-54048000D02*
X113691700Y-54048000D01*
X113691700Y-54178000D02*
X116221700Y-54178000D01*
X110901700Y-53918000D02*
X110901700Y-54178000D01*
X109401700Y-46838000D02*
X109401700Y-53918000D01*
X110901700Y-46838000D02*
X109401700Y-46838000D01*
X111881700Y-46578000D02*
X110901700Y-46578000D01*
X111881700Y-46708000D02*
X111881700Y-46578000D01*
X111881700Y-54178000D02*
X111881700Y-54048000D01*
X113691700Y-46578000D02*
X113691700Y-46708000D01*
X113691700Y-46708000D02*
X111881700Y-46708000D01*
%TO.C,J6*%
X123567500Y-28390000D02*
X122067500Y-28390000D01*
X119277500Y-28260000D02*
X119277500Y-28130000D01*
X121087500Y-35600000D02*
X121087500Y-35730000D01*
X122067500Y-28130000D02*
X121087500Y-28130000D01*
X116747500Y-35730000D02*
X119277500Y-35730000D01*
X116447500Y-36030000D02*
X116447500Y-33620000D01*
X119277500Y-28130000D02*
X116747500Y-28130000D01*
X121087500Y-35730000D02*
X122067500Y-35730000D01*
X122067500Y-35730000D02*
X122067500Y-35470000D01*
X119277500Y-35730000D02*
X119277500Y-35600000D01*
X121087500Y-28130000D02*
X121087500Y-28260000D01*
X119277500Y-35600000D02*
X121087500Y-35600000D01*
X116747500Y-28130000D02*
X116747500Y-35730000D01*
X122067500Y-28390000D02*
X122067500Y-28130000D01*
X118857500Y-36030000D02*
X116447500Y-36030000D01*
X121087500Y-28260000D02*
X119277500Y-28260000D01*
X122067500Y-35470000D02*
X123567500Y-35470000D01*
X123567500Y-35470000D02*
X123567500Y-28390000D01*
%TO.C,U2*%
X127110000Y-46590000D02*
X127110000Y-47850000D01*
X127110000Y-53410000D02*
X127110000Y-52150000D01*
X121100000Y-46590000D02*
X127110000Y-46590000D01*
X123350000Y-53410000D02*
X127110000Y-53410000D01*
%TO.C,J7*%
X132800000Y-47260000D02*
X132800000Y-54340000D01*
X135280000Y-54470000D02*
X137090000Y-54470000D01*
X137090000Y-47000000D02*
X137090000Y-47130000D01*
X137510000Y-46700000D02*
X139920000Y-46700000D01*
X139620000Y-47000000D02*
X137090000Y-47000000D01*
X139920000Y-46700000D02*
X139920000Y-49110000D01*
X137090000Y-54470000D02*
X137090000Y-54600000D01*
X132800000Y-54340000D02*
X134300000Y-54340000D01*
X134300000Y-54600000D02*
X135280000Y-54600000D01*
X139620000Y-54600000D02*
X139620000Y-47000000D01*
X135280000Y-47130000D02*
X135280000Y-47000000D01*
X135280000Y-47000000D02*
X134300000Y-47000000D01*
X134300000Y-47260000D02*
X132800000Y-47260000D01*
X137090000Y-47130000D02*
X135280000Y-47130000D01*
X135280000Y-54600000D02*
X135280000Y-54470000D01*
X137090000Y-54600000D02*
X139620000Y-54600000D01*
X134300000Y-54340000D02*
X134300000Y-54600000D01*
X134300000Y-47000000D02*
X134300000Y-47260000D01*
%TO.C,U3*%
X125500200Y-24902800D02*
X125500200Y-42702800D01*
X153300200Y-24902800D02*
X125550200Y-24902800D01*
X125500200Y-42702800D02*
X153250200Y-42702800D01*
X153300200Y-42702800D02*
X153300200Y-24902800D01*
%TO.C,J3*%
X108621700Y-46578000D02*
X106091700Y-46578000D01*
X106091700Y-54048000D02*
X106091700Y-54178000D01*
X101801700Y-46838000D02*
X101801700Y-53918000D01*
X103301700Y-46578000D02*
X103301700Y-46838000D01*
X103301700Y-46838000D02*
X101801700Y-46838000D01*
X104281700Y-46708000D02*
X104281700Y-46578000D01*
X103301700Y-53918000D02*
X103301700Y-54178000D01*
X104281700Y-46578000D02*
X103301700Y-46578000D01*
X106091700Y-46578000D02*
X106091700Y-46708000D01*
X101801700Y-53918000D02*
X103301700Y-53918000D01*
X104281700Y-54048000D02*
X106091700Y-54048000D01*
X106091700Y-46708000D02*
X104281700Y-46708000D01*
X106511700Y-46278000D02*
X108921700Y-46278000D01*
X104281700Y-54178000D02*
X104281700Y-54048000D01*
X108621700Y-54178000D02*
X108621700Y-46578000D01*
X106091700Y-54178000D02*
X108621700Y-54178000D01*
X108921700Y-46278000D02*
X108921700Y-48688000D01*
X103301700Y-54178000D02*
X104281700Y-54178000D01*
%TO.C,J1*%
X172370800Y-56037600D02*
X164260800Y-56037600D01*
X172370800Y-42067600D02*
X172370800Y-42717600D01*
X172370800Y-56687600D02*
X172890800Y-56687600D01*
X157190800Y-53777600D02*
X157190800Y-51977600D01*
X164260800Y-42717600D02*
X172370800Y-42717600D01*
X172890800Y-42067600D02*
X172370800Y-42067600D01*
X172370800Y-56037600D02*
X172370800Y-56687600D01*
X157410800Y-56037600D02*
X160740800Y-56037600D01*
X172890800Y-56687600D02*
X172890800Y-42067600D01*
X157410800Y-56037600D02*
X157410800Y-42717600D01*
X157410800Y-42717600D02*
X160740800Y-42717600D01*
%TO.C,J5*%
X119277500Y-61201600D02*
X119277500Y-61071600D01*
X122067500Y-68411600D02*
X123567500Y-68411600D01*
X122067500Y-61331600D02*
X122067500Y-61071600D01*
X118857500Y-68971600D02*
X116447500Y-68971600D01*
X121087500Y-61201600D02*
X119277500Y-61201600D01*
X123567500Y-61331600D02*
X122067500Y-61331600D01*
X122067500Y-61071600D02*
X121087500Y-61071600D01*
X121087500Y-61071600D02*
X121087500Y-61201600D01*
X116447500Y-68971600D02*
X116447500Y-66561600D01*
X122067500Y-68671600D02*
X122067500Y-68411600D01*
X121087500Y-68541600D02*
X121087500Y-68671600D01*
X119277500Y-61071600D02*
X116747500Y-61071600D01*
X121087500Y-68671600D02*
X122067500Y-68671600D01*
X119277500Y-68541600D02*
X121087500Y-68541600D01*
X116747500Y-68671600D02*
X119277500Y-68671600D01*
X116747500Y-61071600D02*
X116747500Y-68671600D01*
X123567500Y-68411600D02*
X123567500Y-61331600D01*
X119277500Y-68671600D02*
X119277500Y-68541600D01*
%TO.C,U4*%
X125347800Y-73792400D02*
X153097800Y-73792400D01*
X153147800Y-73792400D02*
X153147800Y-55992400D01*
X125347800Y-55992400D02*
X125347800Y-73792400D01*
X153147800Y-55992400D02*
X125397800Y-55992400D01*
%TD*%
M02*
