M48
; DRILL file {KiCad 6.0.7+dfsg-1+b1} date Mon 31 Oct 2022 04:48:14 PM -05
; FORMAT={-:-/ absolute / inch / decimal}
; #@! TF.CreationDate,2022-10-31T16:48:14-05:00
; #@! TF.GenerationSoftware,Kicad,Pcbnew,6.0.7+dfsg-1+b1
; #@! TF.FileFunction,Plated,1,2,PTH
FMAT,2
INCH
; #@! TA.AperFunction,Plated,PTH,ComponentDrill
T1C0.0374
; #@! TA.AperFunction,Plated,PTH,ComponentDrill
T2C0.0429
; #@! TA.AperFunction,Plated,PTH,ComponentDrill
T3C0.0433
; #@! TA.AperFunction,Plated,PTH,ComponentDrill
T4C0.0598
; #@! TA.AperFunction,Plated,PTH,ComponentDrill
T5C0.0906
%
G90
G05
T1
X6.291Y-1.8062
X6.291Y-1.9046
X6.291Y-1.9834
X6.291Y-2.0818
T2
X4.0146Y-1.9315
X4.0146Y-2.0315
X4.3138Y-1.9315
X4.3138Y-2.0315
X4.5889Y-2.5169
X4.5889Y-2.6169
X4.6912Y-1.2807
X4.6912Y-1.3807
X4.9921Y-1.0594
X4.9921Y-1.1884
X4.9921Y-1.4715
X4.9921Y-1.6004
X4.9921Y-2.2878
X4.9921Y-2.4167
X4.9921Y-2.6998
X4.9921Y-2.8287
X5.1434Y-1.9185
X5.1434Y-2.0185
X5.4584Y-1.9185
X5.4584Y-2.0185
X5.8937Y-1.0594
X5.8937Y-1.6004
X5.8937Y-2.2878
X5.8937Y-2.8287
X6.4111Y-1.3752
X6.4111Y-1.4752
T3
X6.0243Y-1.8919
X6.0243Y-1.9919
X6.0243Y-2.0919
T4
X4.0555Y-1.3976
X4.2555Y-1.3976
T5
X6.3977Y-1.6853
X6.3977Y-2.2027
T0
M30
