M48
; DRILL file {KiCad 6.0.7+dfsg-1+b1} date Thu 20 Oct 2022 12:29:22 AM -05
; FORMAT={-:-/ absolute / inch / decimal}
; #@! TF.CreationDate,2022-10-20T00:29:22-05:00
; #@! TF.GenerationSoftware,Kicad,Pcbnew,6.0.7+dfsg-1+b1
; #@! TF.FileFunction,Plated,1,2,PTH
FMAT,2
INCH
; #@! TA.AperFunction,Plated,PTH,ComponentDrill
T1C0.0374
; #@! TA.AperFunction,Plated,PTH,ComponentDrill
T2C0.0429
; #@! TA.AperFunction,Plated,PTH,ComponentDrill
T3C0.0433
; #@! TA.AperFunction,Plated,PTH,ComponentDrill
T4C0.0598
; #@! TA.AperFunction,Plated,PTH,ComponentDrill
T5C0.0906
%
G90
G05
T1
X6.291Y-1.8062
X6.291Y-1.9046
X6.291Y-1.9834
X6.291Y-2.0818
T2
X4.0146Y-1.9315
X4.0146Y-2.0315
X4.3138Y-1.9315
X4.3138Y-2.0315
X4.7011Y-1.2071
X4.7011Y-1.3071
X4.7011Y-2.504
X4.7011Y-2.604
X4.9901Y-2.7359
X4.9901Y-2.854
X4.992Y-2.2595
X4.992Y-2.3777
X4.9961Y-1.5119
X4.9961Y-1.63
X4.998Y-1.0355
X4.998Y-1.1537
X5.1434Y-1.9185
X5.1434Y-2.0185
X5.4584Y-1.9185
X5.4584Y-2.0185
X5.9743Y-2.2595
X5.9743Y-2.8521
X5.9803Y-1.0355
X5.9803Y-1.6281
X6.4111Y-1.3752
X6.4111Y-1.4752
T3
X6.0243Y-1.8919
X6.0243Y-1.9919
X6.0243Y-2.0919
T4
X4.0555Y-1.3976
X4.2555Y-1.3976
T5
X6.3977Y-1.6853
X6.3977Y-2.2027
T0
M30
