%TF.GenerationSoftware,KiCad,Pcbnew,6.0.7+dfsg-1+b1*%
%TF.CreationDate,2022-10-19T23:41:24-05:00*%
%TF.ProjectId,solar_battery_charge,736f6c61-725f-4626-9174-746572795f63,rev?*%
%TF.SameCoordinates,Original*%
%TF.FileFunction,Soldermask,Top*%
%TF.FilePolarity,Negative*%
%FSLAX46Y46*%
G04 Gerber Fmt 4.6, Leading zero omitted, Abs format (unit mm)*
G04 Created by KiCad (PCBNEW 6.0.7+dfsg-1+b1) date 2022-10-19 23:41:24*
%MOMM*%
%LPD*%
G01*
G04 APERTURE LIST*
G04 Aperture macros list*
%AMRoundRect*
0 Rectangle with rounded corners*
0 $1 Rounding radius*
0 $2 $3 $4 $5 $6 $7 $8 $9 X,Y pos of 4 corners*
0 Add a 4 corners polygon primitive as box body*
4,1,4,$2,$3,$4,$5,$6,$7,$8,$9,$2,$3,0*
0 Add four circle primitives for the rounded corners*
1,1,$1+$1,$2,$3*
1,1,$1+$1,$4,$5*
1,1,$1+$1,$6,$7*
1,1,$1+$1,$8,$9*
0 Add four rect primitives between the rounded corners*
20,1,$1+$1,$2,$3,$4,$5,0*
20,1,$1+$1,$4,$5,$6,$7,0*
20,1,$1+$1,$6,$7,$8,$9,0*
20,1,$1+$1,$8,$9,$2,$3,0*%
%AMFreePoly0*
4,1,5,1.500000,-1.500000,-1.500000,-1.500000,-1.500000,1.500000,1.500000,1.500000,1.500000,-1.500000,1.500000,-1.500000,$1*%
G04 Aperture macros list end*
%ADD10R,3.000000X1.905000*%
%ADD11R,2.700000X1.905000*%
%ADD12R,3.000000X4.500000*%
%ADD13R,3.000000X4.000000*%
%ADD14C,2.000000*%
%ADD15RoundRect,0.250000X-1.250000X0.620000X-1.250000X-0.620000X1.250000X-0.620000X1.250000X0.620000X0*%
%ADD16R,2.540000X1.740000*%
%ADD17RoundRect,0.250000X1.250000X-0.620000X1.250000X0.620000X-1.250000X0.620000X-1.250000X-0.620000X0*%
%ADD18R,2.000000X1.500000*%
%ADD19R,2.000000X3.800000*%
%ADD20RoundRect,0.250000X-1.020000X0.620000X-1.020000X-0.620000X1.020000X-0.620000X1.020000X0.620000X0*%
%ADD21R,3.000000X1.600000*%
%ADD22FreePoly0,90.000000*%
%ADD23R,3.000000X3.000000*%
G04 APERTURE END LIST*
D10*
%TO.C,U1*%
X153017500Y-48055000D03*
D11*
X153017500Y-50595000D03*
X153017500Y-53135000D03*
%TD*%
D12*
%TO.C,J4*%
X108090000Y-35500000D03*
D13*
X103010000Y-35500000D03*
%TD*%
D14*
%TO.C,H3*%
X100200000Y-70800000D03*
%TD*%
D15*
%TO.C,J2*%
X113561700Y-49108000D03*
D16*
X113561700Y-51648000D03*
%TD*%
D14*
%TO.C,H4*%
X163600000Y-71000000D03*
%TD*%
D17*
%TO.C,J6*%
X119407500Y-33200000D03*
D16*
X119407500Y-30660000D03*
%TD*%
D18*
%TO.C,U2*%
X122050000Y-47700000D03*
D19*
X128350000Y-50000000D03*
D18*
X122050000Y-50000000D03*
X122050000Y-52300000D03*
%TD*%
D14*
%TO.C,H1*%
X100070000Y-27800000D03*
%TD*%
D15*
%TO.C,J7*%
X136960000Y-49530000D03*
D16*
X136960000Y-52070000D03*
%TD*%
D20*
%TO.C,U3*%
X126900200Y-38402800D03*
D16*
X126950200Y-29302800D03*
X126900200Y-41402800D03*
X126950200Y-26302800D03*
X151900200Y-41352800D03*
X151900200Y-26302800D03*
%TD*%
D15*
%TO.C,J3*%
X105961700Y-49108000D03*
D16*
X105961700Y-51648000D03*
%TD*%
D21*
%TO.C,J1*%
X159790800Y-52877600D03*
X159790800Y-50377600D03*
X159790800Y-48377600D03*
X159790800Y-45877600D03*
D22*
X162500800Y-42807600D03*
D23*
X162500800Y-55947600D03*
%TD*%
D14*
%TO.C,H2*%
X163800000Y-28200000D03*
%TD*%
D17*
%TO.C,J5*%
X119407500Y-66141600D03*
D16*
X119407500Y-63601600D03*
%TD*%
D20*
%TO.C,U4*%
X126747800Y-69492400D03*
D16*
X126797800Y-60392400D03*
X126747800Y-72492400D03*
X126797800Y-57392400D03*
X151747800Y-72442400D03*
X151747800Y-57392400D03*
%TD*%
M02*
