%TF.GenerationSoftware,KiCad,Pcbnew,6.0.7+dfsg-1+b1*%
%TF.CreationDate,2022-10-20T00:29:16-05:00*%
%TF.ProjectId,solar_battery_charge,736f6c61-725f-4626-9174-746572795f63,rev?*%
%TF.SameCoordinates,Original*%
%TF.FileFunction,Copper,L1,Top*%
%TF.FilePolarity,Positive*%
%FSLAX46Y46*%
G04 Gerber Fmt 4.6, Leading zero omitted, Abs format (unit mm)*
G04 Created by KiCad (PCBNEW 6.0.7+dfsg-1+b1) date 2022-10-20 00:29:16*
%MOMM*%
%LPD*%
G01*
G04 APERTURE LIST*
G04 Aperture macros list*
%AMRoundRect*
0 Rectangle with rounded corners*
0 $1 Rounding radius*
0 $2 $3 $4 $5 $6 $7 $8 $9 X,Y pos of 4 corners*
0 Add a 4 corners polygon primitive as box body*
4,1,4,$2,$3,$4,$5,$6,$7,$8,$9,$2,$3,0*
0 Add four circle primitives for the rounded corners*
1,1,$1+$1,$2,$3*
1,1,$1+$1,$4,$5*
1,1,$1+$1,$6,$7*
1,1,$1+$1,$8,$9*
0 Add four rect primitives between the rounded corners*
20,1,$1+$1,$2,$3,$4,$5,0*
20,1,$1+$1,$4,$5,$6,$7,0*
20,1,$1+$1,$6,$7,$8,$9,0*
20,1,$1+$1,$8,$9,$2,$3,0*%
%AMFreePoly0*
4,1,5,1.500000,-1.500000,-1.500000,-1.500000,-1.500000,1.500000,1.500000,1.500000,1.500000,-1.500000,1.500000,-1.500000,$1*%
G04 Aperture macros list end*
%TA.AperFunction,NonConductor*%
%ADD10C,0.200000*%
%TD*%
%TA.AperFunction,ComponentPad*%
%ADD11RoundRect,0.250000X-1.250000X0.620000X-1.250000X-0.620000X1.250000X-0.620000X1.250000X0.620000X0*%
%TD*%
%TA.AperFunction,ComponentPad*%
%ADD12R,2.540000X1.740000*%
%TD*%
%TA.AperFunction,ComponentPad*%
%ADD13R,3.000000X1.905000*%
%TD*%
%TA.AperFunction,ComponentPad*%
%ADD14R,2.700000X1.905000*%
%TD*%
%TA.AperFunction,ComponentPad*%
%ADD15R,3.000000X4.500000*%
%TD*%
%TA.AperFunction,ComponentPad*%
%ADD16R,3.000000X4.000000*%
%TD*%
%TA.AperFunction,ComponentPad*%
%ADD17RoundRect,0.250000X1.250000X-0.620000X1.250000X0.620000X-1.250000X0.620000X-1.250000X-0.620000X0*%
%TD*%
%TA.AperFunction,SMDPad,CuDef*%
%ADD18R,2.000000X1.500000*%
%TD*%
%TA.AperFunction,SMDPad,CuDef*%
%ADD19R,2.000000X3.800000*%
%TD*%
%TA.AperFunction,ComponentPad*%
%ADD20RoundRect,0.250000X-1.020000X0.620000X-1.020000X-0.620000X1.020000X-0.620000X1.020000X0.620000X0*%
%TD*%
%TA.AperFunction,ComponentPad*%
%ADD21R,3.000000X1.600000*%
%TD*%
%TA.AperFunction,ComponentPad*%
%ADD22FreePoly0,90.000000*%
%TD*%
%TA.AperFunction,ComponentPad*%
%ADD23R,3.000000X3.000000*%
%TD*%
%TA.AperFunction,Conductor*%
%ADD24C,1.250000*%
%TD*%
%TA.AperFunction,Conductor*%
%ADD25C,1.500000*%
%TD*%
%TA.AperFunction,Conductor*%
%ADD26C,1.000000*%
%TD*%
G04 APERTURE END LIST*
D10*
X170800000Y-24377600D02*
X96520000Y-24377600D01*
X96520000Y-24377600D02*
X96520000Y-74377600D01*
X96520000Y-74377600D02*
X170800000Y-74377600D01*
X170800000Y-74377600D02*
X170800000Y-24377600D01*
D11*
%TO.P,J9,1,Pin_1*%
%TO.N,battery-*%
X130642500Y-48730000D03*
D12*
%TO.P,J9,2,Pin_2*%
%TO.N,battery+*%
X130642500Y-51270000D03*
%TD*%
D11*
%TO.P,J8,1,Pin_1*%
%TO.N,solarPanel-*%
X162842500Y-34930000D03*
D12*
%TO.P,J8,2,Pin_2*%
%TO.N,solarPanel+*%
X162842500Y-37470000D03*
%TD*%
D13*
%TO.P,U1,1,VI*%
%TO.N,solarPanel+*%
X153017500Y-48055000D03*
D14*
%TO.P,U1,2,GND*%
%TO.N,solarPanel-*%
X153017500Y-50595000D03*
%TO.P,U1,3,VO*%
%TO.N,5v+*%
X153017500Y-53135000D03*
%TD*%
D15*
%TO.P,J4,1,Pin_1*%
%TO.N,battery-*%
X108090000Y-35500000D03*
D16*
%TO.P,J4,2,Pin_2*%
%TO.N,5.0v_bat*%
X103010000Y-35500000D03*
%TD*%
D12*
%TO.P,J2,2,Pin_2*%
%TO.N,5.0v_bat*%
X109570000Y-51600000D03*
D11*
%TO.P,J2,1,Pin_1*%
%TO.N,battery-*%
X109570000Y-49060000D03*
%TD*%
D17*
%TO.P,J6,1,Pin_1*%
%TO.N,batery2-*%
X119407500Y-33200000D03*
D12*
%TO.P,J6,2,Pin_2*%
%TO.N,batery2+*%
X119407500Y-30660000D03*
%TD*%
D18*
%TO.P,U2,3,VI*%
%TO.N,battery+*%
X118058300Y-52252000D03*
%TO.P,U2,2,VO*%
%TO.N,5.0v_bat*%
X118058300Y-49952000D03*
D19*
X124358300Y-49952000D03*
D18*
%TO.P,U2,1,GND*%
%TO.N,battery-*%
X118058300Y-47652000D03*
%TD*%
D11*
%TO.P,J7,1,Pin_1*%
%TO.N,battery-*%
X138642500Y-48730000D03*
D12*
%TO.P,J7,2,Pin_2*%
%TO.N,battery+*%
X138642500Y-51270000D03*
%TD*%
D20*
%TO.P,U3,1,B-*%
%TO.N,batery2-*%
X126900200Y-38402800D03*
D12*
%TO.P,U3,2,B+*%
%TO.N,batery2+*%
X126950200Y-29302800D03*
%TO.P,U3,3,OUT-*%
%TO.N,battery-*%
X126900200Y-41402800D03*
%TO.P,U3,4,OUT+*%
%TO.N,battery_series*%
X126950200Y-26302800D03*
%TO.P,U3,5,-*%
%TO.N,solarPanel-*%
X151900200Y-41352800D03*
%TO.P,U3,6,+*%
%TO.N,5v+*%
X151900200Y-26302800D03*
%TD*%
%TO.P,J3,2,Pin_2*%
%TO.N,5.0v_bat*%
X101970000Y-51600000D03*
D11*
%TO.P,J3,1,Pin_1*%
%TO.N,battery-*%
X101970000Y-49060000D03*
%TD*%
D21*
%TO.P,J1,1,VBUS*%
%TO.N,unconnected-(J1-Pad1)*%
X159790800Y-52877600D03*
%TO.P,J1,2,D-*%
%TO.N,solarPanel-*%
X159790800Y-50377600D03*
%TO.P,J1,3,D+*%
%TO.N,solarPanel+*%
X159790800Y-48377600D03*
%TO.P,J1,4,GND*%
%TO.N,unconnected-(J1-Pad4)*%
X159790800Y-45877600D03*
D22*
%TO.P,J1,5,Shield*%
%TO.N,unconnected-(J1-Pad5)*%
X162500800Y-42807600D03*
D23*
X162500800Y-55947600D03*
%TD*%
D17*
%TO.P,J5,1,Pin_1*%
%TO.N,batery1-*%
X119407500Y-66141600D03*
D12*
%TO.P,J5,2,Pin_2*%
%TO.N,batery1+*%
X119407500Y-63601600D03*
%TD*%
D20*
%TO.P,U4,1,B-*%
%TO.N,batery1-*%
X126747800Y-69492400D03*
D12*
%TO.P,U4,2,B+*%
%TO.N,batery1+*%
X126797800Y-60392400D03*
%TO.P,U4,3,OUT-*%
%TO.N,battery_series*%
X126747800Y-72492400D03*
%TO.P,U4,4,OUT+*%
%TO.N,battery+*%
X126797800Y-57392400D03*
%TO.P,U4,5,-*%
%TO.N,solarPanel-*%
X151747800Y-72442400D03*
%TO.P,U4,6,+*%
%TO.N,5v+*%
X151747800Y-57392400D03*
%TD*%
D24*
%TO.N,5.0v_bat*%
X101550000Y-38680000D02*
X101550000Y-36960000D01*
X101550000Y-36960000D02*
X103010000Y-35500000D01*
X99200000Y-51600000D02*
X98200000Y-50600000D01*
X98200000Y-50600000D02*
X98200000Y-42030000D01*
X98200000Y-42030000D02*
X101550000Y-38680000D01*
%TO.N,battery-*%
X108090000Y-40540000D02*
X108090000Y-42940000D01*
X108090000Y-42940000D02*
X101970000Y-49060000D01*
X130642500Y-48730000D02*
X130642500Y-47642500D01*
X130642500Y-47642500D02*
X128000000Y-45000000D01*
X128000000Y-45000000D02*
X120000000Y-45000000D01*
X120000000Y-45000000D02*
X118058300Y-46941700D01*
X118058300Y-46941700D02*
X118058300Y-47652000D01*
%TO.N,battery+*%
X130642500Y-51270000D02*
X130642500Y-53157500D01*
X129600000Y-54200000D02*
X119000000Y-54200000D01*
X130642500Y-53157500D02*
X129600000Y-54200000D01*
X119000000Y-54200000D02*
X118058300Y-53258300D01*
X118058300Y-53258300D02*
X118058300Y-52252000D01*
D25*
X138642500Y-51270000D02*
X130642500Y-51270000D01*
%TO.N,battery-*%
X138642500Y-48730000D02*
X130642500Y-48730000D01*
%TO.N,battery+*%
X126797800Y-57392400D02*
X137407600Y-57392400D01*
X137407600Y-57392400D02*
X138642500Y-56157500D01*
X138642500Y-56157500D02*
X138642500Y-51270000D01*
%TO.N,battery-*%
X126900200Y-41402800D02*
X135802800Y-41402800D01*
X135802800Y-41402800D02*
X138642500Y-44242500D01*
X138642500Y-44242500D02*
X138642500Y-48730000D01*
%TO.N,battery_series*%
X126950200Y-26302800D02*
X130852800Y-26302800D01*
X130852800Y-26302800D02*
X144800000Y-40250000D01*
X144800000Y-40250000D02*
X144800000Y-64648400D01*
X144800000Y-64648400D02*
X136956000Y-72492400D01*
X136956000Y-72492400D02*
X126747800Y-72492400D01*
%TO.N,solarPanel-*%
X151900200Y-41352800D02*
X148827200Y-41352800D01*
X148827200Y-41352800D02*
X148200000Y-41980000D01*
X148200000Y-41980000D02*
X148200000Y-50000000D01*
X148200000Y-50000000D02*
X148795000Y-50595000D01*
X148795000Y-50595000D02*
X148000000Y-51390000D01*
X148000000Y-51390000D02*
X148000000Y-72068800D01*
X148000000Y-72068800D02*
X147626400Y-72442400D01*
X147626400Y-72442400D02*
X151747800Y-72442400D01*
D26*
%TO.N,solarPanel+*%
X153017500Y-48055000D02*
X153017500Y-47382500D01*
X157130000Y-37470000D02*
X162842500Y-37470000D01*
X153017500Y-47382500D02*
X155800000Y-44600000D01*
X155800000Y-44600000D02*
X155800000Y-38800000D01*
X155800000Y-38800000D02*
X157130000Y-37470000D01*
%TO.N,solarPanel-*%
X151900200Y-41352800D02*
X151900200Y-36699800D01*
X151900200Y-36699800D02*
X153670000Y-34930000D01*
X153670000Y-34930000D02*
X162842500Y-34930000D01*
D25*
%TO.N,5v+*%
X155830000Y-55947500D02*
X155830000Y-60920000D01*
X155830000Y-60920000D02*
X160230000Y-65320000D01*
X160230000Y-65320000D02*
X165610000Y-65320000D01*
X165610000Y-65320000D02*
X167800000Y-63130000D01*
X167800000Y-63130000D02*
X167800000Y-32400000D01*
X151900200Y-28900200D02*
X151900200Y-26302800D01*
X167800000Y-32400000D02*
X166600000Y-31200000D01*
X166600000Y-31200000D02*
X154200000Y-31200000D01*
X154200000Y-31200000D02*
X151900200Y-28900200D01*
%TO.N,batery1-*%
X126747800Y-69492400D02*
X126747800Y-67547800D01*
X125341600Y-66141600D02*
X119407500Y-66141600D01*
X126747800Y-67547800D02*
X125341600Y-66141600D01*
%TO.N,batery1+*%
X126797800Y-62002200D02*
X125198400Y-63601600D01*
X126797800Y-60392400D02*
X126797800Y-62002200D01*
X125198400Y-63601600D02*
X119407500Y-63601600D01*
%TO.N,batery2-*%
X123878000Y-33200000D02*
X126900200Y-36222200D01*
X126900200Y-36222200D02*
X126900200Y-38402800D01*
X119407500Y-33200000D02*
X123878000Y-33200000D01*
%TO.N,batery2+*%
X126950200Y-29302800D02*
X120764700Y-29302800D01*
D26*
X119417500Y-30670000D02*
X119407500Y-30660000D01*
D25*
X120764700Y-29302800D02*
X119407500Y-30660000D01*
D26*
%TO.N,solarPanel+*%
X153340100Y-48377600D02*
X153017500Y-48055000D01*
X159790800Y-48377600D02*
X153340100Y-48377600D01*
X153342500Y-48380000D02*
X153017500Y-48055000D01*
%TO.N,solarPanel-*%
X159573400Y-50595000D02*
X159790800Y-50377600D01*
X153017500Y-50595000D02*
X159573400Y-50595000D01*
D25*
X153017500Y-50595000D02*
X148795000Y-50595000D01*
D26*
X153112500Y-50690000D02*
X153017500Y-50595000D01*
%TO.N,battery-*%
X109570000Y-49060000D02*
X101970000Y-49060000D01*
X110978000Y-47652000D02*
X109570000Y-49060000D01*
D25*
X108090000Y-40540000D02*
X108090000Y-35500000D01*
X101970800Y-49059200D02*
X101970000Y-49060000D01*
D26*
X118058300Y-47652000D02*
X110978000Y-47652000D01*
D25*
X126900200Y-41603400D02*
X126900200Y-41402800D01*
%TO.N,5v+*%
X153017500Y-53135000D02*
X155830000Y-55947500D01*
X154800000Y-57400000D02*
X154792400Y-57392400D01*
X154792400Y-57392400D02*
X151747800Y-57392400D01*
X155830000Y-56370000D02*
X154800000Y-57400000D01*
X155830000Y-55947500D02*
X155830000Y-56370000D01*
D26*
%TO.N,5.0v_bat*%
X109570000Y-51600000D02*
X101970000Y-51600000D01*
D25*
X101970000Y-51600000D02*
X99200000Y-51600000D01*
D26*
X114360300Y-51600000D02*
X109570000Y-51600000D01*
X116008300Y-49952000D02*
X114360300Y-51600000D01*
X118058300Y-49952000D02*
X116008300Y-49952000D01*
X109722000Y-51752000D02*
X109570000Y-51600000D01*
%TD*%
M02*
