%TF.GenerationSoftware,KiCad,Pcbnew,7.0.3*%
%TF.CreationDate,2023-06-20T17:59:41-05:00*%
%TF.ProjectId,water_tank_module,77617465-725f-4746-916e-6b5f6d6f6475,rev?*%
%TF.SameCoordinates,Original*%
%TF.FileFunction,Soldermask,Top*%
%TF.FilePolarity,Negative*%
%FSLAX46Y46*%
G04 Gerber Fmt 4.6, Leading zero omitted, Abs format (unit mm)*
G04 Created by KiCad (PCBNEW 7.0.3) date 2023-06-20 17:59:41*
%MOMM*%
%LPD*%
G01*
G04 APERTURE LIST*
%ADD10R,5.000000X3.300000*%
%ADD11O,5.000000X3.300000*%
%ADD12R,3.500000X4.000000*%
%ADD13O,3.500000X4.000000*%
%ADD14C,5.400000*%
%ADD15R,3.000000X2.500000*%
%ADD16O,3.000000X2.500000*%
%ADD17R,2.540000X2.100000*%
%ADD18R,2.540000X1.740000*%
%ADD19R,2.540000X1.950000*%
%ADD20R,3.000000X3.960000*%
%ADD21O,3.000000X3.960000*%
%ADD22O,2.850000X2.025000*%
%ADD23R,2.540000X2.000000*%
G04 APERTURE END LIST*
D10*
%TO.C,J4*%
X181670000Y-103000000D03*
D11*
X181670000Y-98000000D03*
X181670000Y-93000000D03*
%TD*%
D10*
%TO.C,J2*%
X181527500Y-119857500D03*
D11*
X181527500Y-114857500D03*
X181527500Y-109857500D03*
%TD*%
D12*
%TO.C,J3*%
X129562500Y-124357500D03*
D13*
X134562500Y-124357500D03*
X139562500Y-124357500D03*
X144562500Y-124357500D03*
X149562500Y-124357500D03*
%TD*%
D14*
%TO.C,H2*%
X185420000Y-135000000D03*
%TD*%
D15*
%TO.C,C1*%
X171070887Y-82999113D03*
D16*
X174620887Y-82999113D03*
%TD*%
D14*
%TO.C,H3*%
X119750000Y-71000000D03*
%TD*%
D17*
%TO.C,J_esp0*%
X154875000Y-72105000D03*
D18*
X154875000Y-74645000D03*
X154875000Y-77185000D03*
D19*
X154875000Y-79725000D03*
X154875000Y-82265000D03*
X154875000Y-84805000D03*
X154875000Y-87345000D03*
X154875000Y-89885000D03*
X154875000Y-92425000D03*
X154875000Y-94965000D03*
X154875000Y-97505000D03*
X154875000Y-100045000D03*
X154875000Y-102585000D03*
X154875000Y-105125000D03*
X154875000Y-107665000D03*
%TD*%
D20*
%TO.C,5V1*%
X170298200Y-73688063D03*
D21*
X175298200Y-73688063D03*
%TD*%
D14*
%TO.C,H4*%
X185420000Y-71000000D03*
%TD*%
%TO.C,H1*%
X119750000Y-135000000D03*
%TD*%
D12*
%TO.C,J1*%
X160277500Y-123892500D03*
D13*
X155277500Y-123892500D03*
%TD*%
D22*
%TO.C,R11*%
X169870000Y-114554750D03*
X169870000Y-117094750D03*
%TD*%
D23*
%TO.C,J_esp1*%
X130334500Y-107744000D03*
D19*
X130334500Y-105204000D03*
X130334500Y-102664000D03*
X130334500Y-100124000D03*
X130334500Y-97584000D03*
X130334500Y-95044000D03*
X130334500Y-92504000D03*
X130334500Y-89964000D03*
X130334500Y-87424000D03*
X130334500Y-84884000D03*
X130334500Y-82344000D03*
X130334500Y-79804000D03*
X130334500Y-77264000D03*
X130334500Y-74724000D03*
X130334500Y-72184000D03*
%TD*%
M02*
