%TF.GenerationSoftware,KiCad,Pcbnew,7.0.3*%
%TF.CreationDate,2023-06-20T17:59:41-05:00*%
%TF.ProjectId,water_tank_module,77617465-725f-4746-916e-6b5f6d6f6475,rev?*%
%TF.SameCoordinates,Original*%
%TF.FileFunction,Copper,L2,Bot*%
%TF.FilePolarity,Positive*%
%FSLAX46Y46*%
G04 Gerber Fmt 4.6, Leading zero omitted, Abs format (unit mm)*
G04 Created by KiCad (PCBNEW 7.0.3) date 2023-06-20 17:59:41*
%MOMM*%
%LPD*%
G01*
G04 APERTURE LIST*
%TA.AperFunction,NonConductor*%
%ADD10C,0.200000*%
%TD*%
%ADD11C,0.300000*%
%TA.AperFunction,NonConductor*%
%ADD12C,0.300000*%
%TD*%
%TA.AperFunction,ComponentPad*%
%ADD13R,5.000000X3.300000*%
%TD*%
%TA.AperFunction,ComponentPad*%
%ADD14O,5.000000X3.300000*%
%TD*%
%TA.AperFunction,ComponentPad*%
%ADD15R,3.500000X4.000000*%
%TD*%
%TA.AperFunction,ComponentPad*%
%ADD16O,3.500000X4.000000*%
%TD*%
%TA.AperFunction,ComponentPad*%
%ADD17C,5.400000*%
%TD*%
%TA.AperFunction,ComponentPad*%
%ADD18R,3.000000X2.500000*%
%TD*%
%TA.AperFunction,ComponentPad*%
%ADD19O,3.000000X2.500000*%
%TD*%
%TA.AperFunction,ComponentPad*%
%ADD20R,2.540000X2.100000*%
%TD*%
%TA.AperFunction,ComponentPad*%
%ADD21R,2.540000X1.740000*%
%TD*%
%TA.AperFunction,ComponentPad*%
%ADD22R,2.540000X1.950000*%
%TD*%
%TA.AperFunction,ComponentPad*%
%ADD23R,3.000000X3.960000*%
%TD*%
%TA.AperFunction,ComponentPad*%
%ADD24O,3.000000X3.960000*%
%TD*%
%TA.AperFunction,ComponentPad*%
%ADD25O,2.850000X2.025000*%
%TD*%
%TA.AperFunction,ComponentPad*%
%ADD26R,2.540000X2.000000*%
%TD*%
%TA.AperFunction,ViaPad*%
%ADD27C,2.300000*%
%TD*%
%TA.AperFunction,Conductor*%
%ADD28C,1.250000*%
%TD*%
G04 APERTURE END LIST*
D10*
X116170000Y-66100000D02*
X189270000Y-66100000D01*
X189270000Y-140085000D01*
X116170000Y-140085000D01*
X116170000Y-66100000D01*
D11*
D12*
X153802183Y-134019298D02*
X153802183Y-135419298D01*
X153802183Y-134719298D02*
X156252183Y-134719298D01*
X156252183Y-134719298D02*
X155902183Y-134952631D01*
X155902183Y-134952631D02*
X155668850Y-135185965D01*
X155668850Y-135185965D02*
X155552183Y-135419298D01*
X156252183Y-133202632D02*
X156252183Y-131685965D01*
X156252183Y-131685965D02*
X155318850Y-132502632D01*
X155318850Y-132502632D02*
X155318850Y-132152632D01*
X155318850Y-132152632D02*
X155202183Y-131919298D01*
X155202183Y-131919298D02*
X155085516Y-131802632D01*
X155085516Y-131802632D02*
X154852183Y-131685965D01*
X154852183Y-131685965D02*
X154268850Y-131685965D01*
X154268850Y-131685965D02*
X154035516Y-131802632D01*
X154035516Y-131802632D02*
X153918850Y-131919298D01*
X153918850Y-131919298D02*
X153802183Y-132152632D01*
X153802183Y-132152632D02*
X153802183Y-132852632D01*
X153802183Y-132852632D02*
X153918850Y-133085965D01*
X153918850Y-133085965D02*
X154035516Y-133202632D01*
D11*
D12*
X174291671Y-98188345D02*
X174291671Y-98902631D01*
X174291671Y-98902631D02*
X173577385Y-98974059D01*
X173577385Y-98974059D02*
X173648814Y-98902631D01*
X173648814Y-98902631D02*
X173720242Y-98759774D01*
X173720242Y-98759774D02*
X173720242Y-98402631D01*
X173720242Y-98402631D02*
X173648814Y-98259774D01*
X173648814Y-98259774D02*
X173577385Y-98188345D01*
X173577385Y-98188345D02*
X173434528Y-98116916D01*
X173434528Y-98116916D02*
X173077385Y-98116916D01*
X173077385Y-98116916D02*
X172934528Y-98188345D01*
X172934528Y-98188345D02*
X172863100Y-98259774D01*
X172863100Y-98259774D02*
X172791671Y-98402631D01*
X172791671Y-98402631D02*
X172791671Y-98759774D01*
X172791671Y-98759774D02*
X172863100Y-98902631D01*
X172863100Y-98902631D02*
X172934528Y-98974059D01*
X174291671Y-97688345D02*
X172791671Y-97188345D01*
X172791671Y-97188345D02*
X174291671Y-96688345D01*
D11*
D12*
X148302183Y-134019298D02*
X148302183Y-135419298D01*
X148302183Y-134719298D02*
X150752183Y-134719298D01*
X150752183Y-134719298D02*
X150402183Y-134952631D01*
X150402183Y-134952631D02*
X150168850Y-135185965D01*
X150168850Y-135185965D02*
X150052183Y-135419298D01*
X149935516Y-131919298D02*
X148302183Y-131919298D01*
X150868850Y-132502632D02*
X149118850Y-133085965D01*
X149118850Y-133085965D02*
X149118850Y-131569298D01*
D11*
D12*
X174220242Y-111145488D02*
X174291671Y-111288346D01*
X174291671Y-111288346D02*
X174291671Y-111502631D01*
X174291671Y-111502631D02*
X174220242Y-111716917D01*
X174220242Y-111716917D02*
X174077385Y-111859774D01*
X174077385Y-111859774D02*
X173934528Y-111931203D01*
X173934528Y-111931203D02*
X173648814Y-112002631D01*
X173648814Y-112002631D02*
X173434528Y-112002631D01*
X173434528Y-112002631D02*
X173148814Y-111931203D01*
X173148814Y-111931203D02*
X173005957Y-111859774D01*
X173005957Y-111859774D02*
X172863100Y-111716917D01*
X172863100Y-111716917D02*
X172791671Y-111502631D01*
X172791671Y-111502631D02*
X172791671Y-111359774D01*
X172791671Y-111359774D02*
X172863100Y-111145488D01*
X172863100Y-111145488D02*
X172934528Y-111074060D01*
X172934528Y-111074060D02*
X173434528Y-111074060D01*
X173434528Y-111074060D02*
X173434528Y-111359774D01*
X172791671Y-110431203D02*
X174291671Y-110431203D01*
X174291671Y-110431203D02*
X172791671Y-109574060D01*
X172791671Y-109574060D02*
X174291671Y-109574060D01*
X172791671Y-108859774D02*
X174291671Y-108859774D01*
X174291671Y-108859774D02*
X174291671Y-108502631D01*
X174291671Y-108502631D02*
X174220242Y-108288345D01*
X174220242Y-108288345D02*
X174077385Y-108145488D01*
X174077385Y-108145488D02*
X173934528Y-108074059D01*
X173934528Y-108074059D02*
X173648814Y-108002631D01*
X173648814Y-108002631D02*
X173434528Y-108002631D01*
X173434528Y-108002631D02*
X173148814Y-108074059D01*
X173148814Y-108074059D02*
X173005957Y-108145488D01*
X173005957Y-108145488D02*
X172863100Y-108288345D01*
X172863100Y-108288345D02*
X172791671Y-108502631D01*
X172791671Y-108502631D02*
X172791671Y-108859774D01*
D11*
D12*
X181459564Y-81515494D02*
X181566707Y-81729780D01*
X181566707Y-81729780D02*
X181566707Y-82051208D01*
X181566707Y-82051208D02*
X181459564Y-82372637D01*
X181459564Y-82372637D02*
X181245278Y-82586922D01*
X181245278Y-82586922D02*
X181030992Y-82694065D01*
X181030992Y-82694065D02*
X180602421Y-82801208D01*
X180602421Y-82801208D02*
X180280992Y-82801208D01*
X180280992Y-82801208D02*
X179852421Y-82694065D01*
X179852421Y-82694065D02*
X179638135Y-82586922D01*
X179638135Y-82586922D02*
X179423850Y-82372637D01*
X179423850Y-82372637D02*
X179316707Y-82051208D01*
X179316707Y-82051208D02*
X179316707Y-81836922D01*
X179316707Y-81836922D02*
X179423850Y-81515494D01*
X179423850Y-81515494D02*
X179530992Y-81408351D01*
X179530992Y-81408351D02*
X180280992Y-81408351D01*
X180280992Y-81408351D02*
X180280992Y-81836922D01*
X179316707Y-80444065D02*
X181566707Y-80444065D01*
X181566707Y-80444065D02*
X179316707Y-79158351D01*
X179316707Y-79158351D02*
X181566707Y-79158351D01*
X179316707Y-78086922D02*
X181566707Y-78086922D01*
X181566707Y-78086922D02*
X181566707Y-77551208D01*
X181566707Y-77551208D02*
X181459564Y-77229779D01*
X181459564Y-77229779D02*
X181245278Y-77015494D01*
X181245278Y-77015494D02*
X181030992Y-76908351D01*
X181030992Y-76908351D02*
X180602421Y-76801208D01*
X180602421Y-76801208D02*
X180280992Y-76801208D01*
X180280992Y-76801208D02*
X179852421Y-76908351D01*
X179852421Y-76908351D02*
X179638135Y-77015494D01*
X179638135Y-77015494D02*
X179423850Y-77229779D01*
X179423850Y-77229779D02*
X179316707Y-77551208D01*
X179316707Y-77551208D02*
X179316707Y-78086922D01*
X181566707Y-74765494D02*
X181566707Y-75836922D01*
X181566707Y-75836922D02*
X180495278Y-75944065D01*
X180495278Y-75944065D02*
X180602421Y-75836922D01*
X180602421Y-75836922D02*
X180709564Y-75622637D01*
X180709564Y-75622637D02*
X180709564Y-75086922D01*
X180709564Y-75086922D02*
X180602421Y-74872637D01*
X180602421Y-74872637D02*
X180495278Y-74765494D01*
X180495278Y-74765494D02*
X180280992Y-74658351D01*
X180280992Y-74658351D02*
X179745278Y-74658351D01*
X179745278Y-74658351D02*
X179530992Y-74765494D01*
X179530992Y-74765494D02*
X179423850Y-74872637D01*
X179423850Y-74872637D02*
X179316707Y-75086922D01*
X179316707Y-75086922D02*
X179316707Y-75622637D01*
X179316707Y-75622637D02*
X179423850Y-75836922D01*
X179423850Y-75836922D02*
X179530992Y-75944065D01*
X181566707Y-74015494D02*
X179316707Y-73265494D01*
X179316707Y-73265494D02*
X181566707Y-72515494D01*
D11*
D12*
X174220242Y-93845488D02*
X174291671Y-93988346D01*
X174291671Y-93988346D02*
X174291671Y-94202631D01*
X174291671Y-94202631D02*
X174220242Y-94416917D01*
X174220242Y-94416917D02*
X174077385Y-94559774D01*
X174077385Y-94559774D02*
X173934528Y-94631203D01*
X173934528Y-94631203D02*
X173648814Y-94702631D01*
X173648814Y-94702631D02*
X173434528Y-94702631D01*
X173434528Y-94702631D02*
X173148814Y-94631203D01*
X173148814Y-94631203D02*
X173005957Y-94559774D01*
X173005957Y-94559774D02*
X172863100Y-94416917D01*
X172863100Y-94416917D02*
X172791671Y-94202631D01*
X172791671Y-94202631D02*
X172791671Y-94059774D01*
X172791671Y-94059774D02*
X172863100Y-93845488D01*
X172863100Y-93845488D02*
X172934528Y-93774060D01*
X172934528Y-93774060D02*
X173434528Y-93774060D01*
X173434528Y-93774060D02*
X173434528Y-94059774D01*
X172791671Y-93131203D02*
X174291671Y-93131203D01*
X174291671Y-93131203D02*
X172791671Y-92274060D01*
X172791671Y-92274060D02*
X174291671Y-92274060D01*
X172791671Y-91559774D02*
X174291671Y-91559774D01*
X174291671Y-91559774D02*
X174291671Y-91202631D01*
X174291671Y-91202631D02*
X174220242Y-90988345D01*
X174220242Y-90988345D02*
X174077385Y-90845488D01*
X174077385Y-90845488D02*
X173934528Y-90774059D01*
X173934528Y-90774059D02*
X173648814Y-90702631D01*
X173648814Y-90702631D02*
X173434528Y-90702631D01*
X173434528Y-90702631D02*
X173148814Y-90774059D01*
X173148814Y-90774059D02*
X173005957Y-90845488D01*
X173005957Y-90845488D02*
X172863100Y-90988345D01*
X172863100Y-90988345D02*
X172791671Y-91202631D01*
X172791671Y-91202631D02*
X172791671Y-91559774D01*
D11*
D12*
X145435517Y-135419298D02*
X145552183Y-135302631D01*
X145552183Y-135302631D02*
X145668850Y-135069298D01*
X145668850Y-135069298D02*
X145668850Y-134485965D01*
X145668850Y-134485965D02*
X145552183Y-134252631D01*
X145552183Y-134252631D02*
X145435517Y-134135965D01*
X145435517Y-134135965D02*
X145202183Y-134019298D01*
X145202183Y-134019298D02*
X144968850Y-134019298D01*
X144968850Y-134019298D02*
X144618850Y-134135965D01*
X144618850Y-134135965D02*
X143218850Y-135535965D01*
X143218850Y-135535965D02*
X143218850Y-134019298D01*
X145668850Y-131919298D02*
X145668850Y-132385965D01*
X145668850Y-132385965D02*
X145552183Y-132619298D01*
X145552183Y-132619298D02*
X145435517Y-132735965D01*
X145435517Y-132735965D02*
X145085517Y-132969298D01*
X145085517Y-132969298D02*
X144618850Y-133085965D01*
X144618850Y-133085965D02*
X143685517Y-133085965D01*
X143685517Y-133085965D02*
X143452183Y-132969298D01*
X143452183Y-132969298D02*
X143335517Y-132852632D01*
X143335517Y-132852632D02*
X143218850Y-132619298D01*
X143218850Y-132619298D02*
X143218850Y-132152632D01*
X143218850Y-132152632D02*
X143335517Y-131919298D01*
X143335517Y-131919298D02*
X143452183Y-131802632D01*
X143452183Y-131802632D02*
X143685517Y-131685965D01*
X143685517Y-131685965D02*
X144268850Y-131685965D01*
X144268850Y-131685965D02*
X144502183Y-131802632D01*
X144502183Y-131802632D02*
X144618850Y-131919298D01*
X144618850Y-131919298D02*
X144735517Y-132152632D01*
X144735517Y-132152632D02*
X144735517Y-132619298D01*
X144735517Y-132619298D02*
X144618850Y-132852632D01*
X144618850Y-132852632D02*
X144502183Y-132969298D01*
X144502183Y-132969298D02*
X144268850Y-133085965D01*
D11*
D12*
X174291671Y-104116917D02*
X174291671Y-103188345D01*
X174291671Y-103188345D02*
X173720242Y-103688345D01*
X173720242Y-103688345D02*
X173720242Y-103474060D01*
X173720242Y-103474060D02*
X173648814Y-103331203D01*
X173648814Y-103331203D02*
X173577385Y-103259774D01*
X173577385Y-103259774D02*
X173434528Y-103188345D01*
X173434528Y-103188345D02*
X173077385Y-103188345D01*
X173077385Y-103188345D02*
X172934528Y-103259774D01*
X172934528Y-103259774D02*
X172863100Y-103331203D01*
X172863100Y-103331203D02*
X172791671Y-103474060D01*
X172791671Y-103474060D02*
X172791671Y-103902631D01*
X172791671Y-103902631D02*
X172863100Y-104045488D01*
X172863100Y-104045488D02*
X172934528Y-104116917D01*
X173791671Y-101902632D02*
X172791671Y-101902632D01*
X174363100Y-102259774D02*
X173291671Y-102616917D01*
X173291671Y-102616917D02*
X173291671Y-101688346D01*
D11*
D12*
X173748814Y-120945488D02*
X173820242Y-120874060D01*
X173820242Y-120874060D02*
X173891671Y-120731203D01*
X173891671Y-120731203D02*
X173891671Y-120374060D01*
X173891671Y-120374060D02*
X173820242Y-120231203D01*
X173820242Y-120231203D02*
X173748814Y-120159774D01*
X173748814Y-120159774D02*
X173605957Y-120088345D01*
X173605957Y-120088345D02*
X173463100Y-120088345D01*
X173463100Y-120088345D02*
X173248814Y-120159774D01*
X173248814Y-120159774D02*
X172391671Y-121016917D01*
X172391671Y-121016917D02*
X172391671Y-120088345D01*
X173891671Y-118731203D02*
X173891671Y-119445489D01*
X173891671Y-119445489D02*
X173177385Y-119516917D01*
X173177385Y-119516917D02*
X173248814Y-119445489D01*
X173248814Y-119445489D02*
X173320242Y-119302632D01*
X173320242Y-119302632D02*
X173320242Y-118945489D01*
X173320242Y-118945489D02*
X173248814Y-118802632D01*
X173248814Y-118802632D02*
X173177385Y-118731203D01*
X173177385Y-118731203D02*
X173034528Y-118659774D01*
X173034528Y-118659774D02*
X172677385Y-118659774D01*
X172677385Y-118659774D02*
X172534528Y-118731203D01*
X172534528Y-118731203D02*
X172463100Y-118802632D01*
X172463100Y-118802632D02*
X172391671Y-118945489D01*
X172391671Y-118945489D02*
X172391671Y-119302632D01*
X172391671Y-119302632D02*
X172463100Y-119445489D01*
X172463100Y-119445489D02*
X172534528Y-119516917D01*
D11*
D12*
X135502183Y-135535965D02*
X135502183Y-134019298D01*
X135502183Y-134019298D02*
X134568850Y-134835965D01*
X134568850Y-134835965D02*
X134568850Y-134485965D01*
X134568850Y-134485965D02*
X134452183Y-134252631D01*
X134452183Y-134252631D02*
X134335516Y-134135965D01*
X134335516Y-134135965D02*
X134102183Y-134019298D01*
X134102183Y-134019298D02*
X133518850Y-134019298D01*
X133518850Y-134019298D02*
X133285516Y-134135965D01*
X133285516Y-134135965D02*
X133168850Y-134252631D01*
X133168850Y-134252631D02*
X133052183Y-134485965D01*
X133052183Y-134485965D02*
X133052183Y-135185965D01*
X133052183Y-135185965D02*
X133168850Y-135419298D01*
X133168850Y-135419298D02*
X133285516Y-135535965D01*
X135502183Y-133202632D02*
X135502183Y-131685965D01*
X135502183Y-131685965D02*
X134568850Y-132502632D01*
X134568850Y-132502632D02*
X134568850Y-132152632D01*
X134568850Y-132152632D02*
X134452183Y-131919298D01*
X134452183Y-131919298D02*
X134335516Y-131802632D01*
X134335516Y-131802632D02*
X134102183Y-131685965D01*
X134102183Y-131685965D02*
X133518850Y-131685965D01*
X133518850Y-131685965D02*
X133285516Y-131802632D01*
X133285516Y-131802632D02*
X133168850Y-131919298D01*
X133168850Y-131919298D02*
X133052183Y-132152632D01*
X133052183Y-132152632D02*
X133052183Y-132852632D01*
X133052183Y-132852632D02*
X133168850Y-133085965D01*
X133168850Y-133085965D02*
X133285516Y-133202632D01*
D11*
D12*
X129905964Y-134184483D02*
X128039298Y-134184483D01*
D11*
D12*
X140352184Y-135419298D02*
X140468850Y-135302631D01*
X140468850Y-135302631D02*
X140585517Y-135069298D01*
X140585517Y-135069298D02*
X140585517Y-134485965D01*
X140585517Y-134485965D02*
X140468850Y-134252631D01*
X140468850Y-134252631D02*
X140352184Y-134135965D01*
X140352184Y-134135965D02*
X140118850Y-134019298D01*
X140118850Y-134019298D02*
X139885517Y-134019298D01*
X139885517Y-134019298D02*
X139535517Y-134135965D01*
X139535517Y-134135965D02*
X138135517Y-135535965D01*
X138135517Y-135535965D02*
X138135517Y-134019298D01*
X140585517Y-133202632D02*
X140585517Y-131569298D01*
X140585517Y-131569298D02*
X138135517Y-132619298D01*
D11*
D12*
X167066707Y-78586923D02*
X167066707Y-79658351D01*
X167066707Y-79658351D02*
X165995278Y-79765494D01*
X165995278Y-79765494D02*
X166102421Y-79658351D01*
X166102421Y-79658351D02*
X166209564Y-79444066D01*
X166209564Y-79444066D02*
X166209564Y-78908351D01*
X166209564Y-78908351D02*
X166102421Y-78694066D01*
X166102421Y-78694066D02*
X165995278Y-78586923D01*
X165995278Y-78586923D02*
X165780992Y-78479780D01*
X165780992Y-78479780D02*
X165245278Y-78479780D01*
X165245278Y-78479780D02*
X165030992Y-78586923D01*
X165030992Y-78586923D02*
X164923850Y-78694066D01*
X164923850Y-78694066D02*
X164816707Y-78908351D01*
X164816707Y-78908351D02*
X164816707Y-79444066D01*
X164816707Y-79444066D02*
X164923850Y-79658351D01*
X164923850Y-79658351D02*
X165030992Y-79765494D01*
X167066707Y-77836923D02*
X164816707Y-77086923D01*
X164816707Y-77086923D02*
X167066707Y-76336923D01*
X165673850Y-75586923D02*
X165673850Y-73872638D01*
X164816707Y-74729780D02*
X166530992Y-74729780D01*
D11*
D12*
X161155964Y-133684483D02*
X159289298Y-133684483D01*
D11*
D12*
X149986917Y-104182435D02*
X150201203Y-104075292D01*
X150201203Y-104075292D02*
X150522631Y-104075292D01*
X150522631Y-104075292D02*
X150844060Y-104182435D01*
X150844060Y-104182435D02*
X151058345Y-104396721D01*
X151058345Y-104396721D02*
X151165488Y-104611007D01*
X151165488Y-104611007D02*
X151272631Y-105039578D01*
X151272631Y-105039578D02*
X151272631Y-105361007D01*
X151272631Y-105361007D02*
X151165488Y-105789578D01*
X151165488Y-105789578D02*
X151058345Y-106003864D01*
X151058345Y-106003864D02*
X150844060Y-106218150D01*
X150844060Y-106218150D02*
X150522631Y-106325292D01*
X150522631Y-106325292D02*
X150308345Y-106325292D01*
X150308345Y-106325292D02*
X149986917Y-106218150D01*
X149986917Y-106218150D02*
X149879774Y-106111007D01*
X149879774Y-106111007D02*
X149879774Y-105361007D01*
X149879774Y-105361007D02*
X150308345Y-105361007D01*
X148915488Y-106325292D02*
X148915488Y-104075292D01*
X148915488Y-104075292D02*
X147629774Y-106325292D01*
X147629774Y-106325292D02*
X147629774Y-104075292D01*
X146558345Y-106325292D02*
X146558345Y-104075292D01*
X146558345Y-104075292D02*
X146022631Y-104075292D01*
X146022631Y-104075292D02*
X145701202Y-104182435D01*
X145701202Y-104182435D02*
X145486917Y-104396721D01*
X145486917Y-104396721D02*
X145379774Y-104611007D01*
X145379774Y-104611007D02*
X145272631Y-105039578D01*
X145272631Y-105039578D02*
X145272631Y-105361007D01*
X145272631Y-105361007D02*
X145379774Y-105789578D01*
X145379774Y-105789578D02*
X145486917Y-106003864D01*
X145486917Y-106003864D02*
X145701202Y-106218150D01*
X145701202Y-106218150D02*
X146022631Y-106325292D01*
X146022631Y-106325292D02*
X146558345Y-106325292D01*
D11*
D12*
X149755965Y-107467816D02*
X150922631Y-107467816D01*
X150922631Y-107467816D02*
X151039298Y-108634483D01*
X151039298Y-108634483D02*
X150922631Y-108517816D01*
X150922631Y-108517816D02*
X150689298Y-108401150D01*
X150689298Y-108401150D02*
X150105965Y-108401150D01*
X150105965Y-108401150D02*
X149872631Y-108517816D01*
X149872631Y-108517816D02*
X149755965Y-108634483D01*
X149755965Y-108634483D02*
X149639298Y-108867816D01*
X149639298Y-108867816D02*
X149639298Y-109451150D01*
X149639298Y-109451150D02*
X149755965Y-109684483D01*
X149755965Y-109684483D02*
X149872631Y-109801150D01*
X149872631Y-109801150D02*
X150105965Y-109917816D01*
X150105965Y-109917816D02*
X150689298Y-109917816D01*
X150689298Y-109917816D02*
X150922631Y-109801150D01*
X150922631Y-109801150D02*
X151039298Y-109684483D01*
X148939298Y-107467816D02*
X148122632Y-109917816D01*
X148122632Y-109917816D02*
X147305965Y-107467816D01*
X146489298Y-108984483D02*
X144622632Y-108984483D01*
X145555965Y-109917816D02*
X145555965Y-108051150D01*
D11*
D12*
X122359298Y-118217816D02*
X123175965Y-117051150D01*
X123759298Y-118217816D02*
X123759298Y-115767816D01*
X123759298Y-115767816D02*
X122825965Y-115767816D01*
X122825965Y-115767816D02*
X122592632Y-115884483D01*
X122592632Y-115884483D02*
X122475965Y-116001150D01*
X122475965Y-116001150D02*
X122359298Y-116234483D01*
X122359298Y-116234483D02*
X122359298Y-116584483D01*
X122359298Y-116584483D02*
X122475965Y-116817816D01*
X122475965Y-116817816D02*
X122592632Y-116934483D01*
X122592632Y-116934483D02*
X122825965Y-117051150D01*
X122825965Y-117051150D02*
X123759298Y-117051150D01*
X120492632Y-116934483D02*
X121309298Y-116934483D01*
X121309298Y-118217816D02*
X121309298Y-115767816D01*
X121309298Y-115767816D02*
X120142632Y-115767816D01*
D11*
D12*
X174291671Y-114688345D02*
X174291671Y-115402631D01*
X174291671Y-115402631D02*
X173577385Y-115474059D01*
X173577385Y-115474059D02*
X173648814Y-115402631D01*
X173648814Y-115402631D02*
X173720242Y-115259774D01*
X173720242Y-115259774D02*
X173720242Y-114902631D01*
X173720242Y-114902631D02*
X173648814Y-114759774D01*
X173648814Y-114759774D02*
X173577385Y-114688345D01*
X173577385Y-114688345D02*
X173434528Y-114616916D01*
X173434528Y-114616916D02*
X173077385Y-114616916D01*
X173077385Y-114616916D02*
X172934528Y-114688345D01*
X172934528Y-114688345D02*
X172863100Y-114759774D01*
X172863100Y-114759774D02*
X172791671Y-114902631D01*
X172791671Y-114902631D02*
X172791671Y-115259774D01*
X172791671Y-115259774D02*
X172863100Y-115402631D01*
X172863100Y-115402631D02*
X172934528Y-115474059D01*
X174291671Y-114188345D02*
X172791671Y-113688345D01*
X172791671Y-113688345D02*
X174291671Y-113188345D01*
D13*
%TO.P,J4,1,Pin_1*%
%TO.N,D34*%
X181670000Y-103000000D03*
D14*
%TO.P,J4,2,Pin_2*%
%TO.N,5v*%
X181670000Y-98000000D03*
%TO.P,J4,3,Pin_3*%
%TO.N,GND5V*%
X181670000Y-93000000D03*
%TD*%
D13*
%TO.P,J2,1,Pin_1*%
%TO.N,D25*%
X181527500Y-119857500D03*
D14*
%TO.P,J2,2,Pin_2*%
%TO.N,5v*%
X181527500Y-114857500D03*
%TO.P,J2,3,Pin_3*%
%TO.N,GND5V*%
X181527500Y-109857500D03*
%TD*%
D15*
%TO.P,J3,1,Pin_1*%
%TO.N,GND5V*%
X129562500Y-124357500D03*
D16*
%TO.P,J3,2,Pin_2*%
%TO.N,D33*%
X134562500Y-124357500D03*
%TO.P,J3,3,Pin_3*%
%TO.N,D27*%
X139562500Y-124357500D03*
%TO.P,J3,4,Pin_4*%
%TO.N,D26*%
X144562500Y-124357500D03*
%TO.P,J3,5,Pin_5*%
%TO.N,D14*%
X149562500Y-124357500D03*
%TD*%
D17*
%TO.P,H2,1*%
%TO.N,N/C*%
X185420000Y-135000000D03*
%TD*%
D18*
%TO.P,C1,1*%
%TO.N,5v*%
X171070887Y-82999113D03*
D19*
%TO.P,C1,2*%
%TO.N,GND5V*%
X174620887Y-82999113D03*
%TD*%
D17*
%TO.P,H3,1*%
%TO.N,N/C*%
X119750000Y-71000000D03*
%TD*%
D20*
%TO.P,J_esp0,1,Pin_1*%
%TO.N,EN*%
X154875000Y-72105000D03*
D21*
%TO.P,J_esp0,2,Pin_2*%
%TO.N,VP*%
X154875000Y-74645000D03*
%TO.P,J_esp0,3,Pin_3*%
%TO.N,VN*%
X154875000Y-77185000D03*
D22*
%TO.P,J_esp0,4,Pin_4*%
%TO.N,D34*%
X154875000Y-79725000D03*
%TO.P,J_esp0,5,Pin_5*%
%TO.N,D35*%
X154875000Y-82265000D03*
%TO.P,J_esp0,6,Pin_6*%
%TO.N,D32*%
X154875000Y-84805000D03*
%TO.P,J_esp0,7,Pin_7*%
%TO.N,D33*%
X154875000Y-87345000D03*
%TO.P,J_esp0,8,Pin_8*%
%TO.N,D25*%
X154875000Y-89885000D03*
%TO.P,J_esp0,9,Pin_9*%
%TO.N,D26*%
X154875000Y-92425000D03*
%TO.P,J_esp0,10,Pin_10*%
%TO.N,D27*%
X154875000Y-94965000D03*
%TO.P,J_esp0,11,Pin_11*%
%TO.N,D14*%
X154875000Y-97505000D03*
%TO.P,J_esp0,12,Pin_12*%
%TO.N,D12*%
X154875000Y-100045000D03*
%TO.P,J_esp0,13,Pin_13*%
%TO.N,D13*%
X154875000Y-102585000D03*
%TO.P,J_esp0,14,Pin_14*%
%TO.N,GND5V*%
X154875000Y-105125000D03*
%TO.P,J_esp0,15,Pin_15*%
%TO.N,5v*%
X154875000Y-107665000D03*
%TD*%
D23*
%TO.P,5V1,1,Pin_1*%
%TO.N,5v*%
X170298200Y-73688063D03*
D24*
%TO.P,5V1,2,Pin_2*%
%TO.N,GND5V*%
X175298200Y-73688063D03*
%TD*%
D17*
%TO.P,H4,1*%
%TO.N,N/C*%
X185420000Y-71000000D03*
%TD*%
%TO.P,H1,1*%
%TO.N,N/C*%
X119750000Y-135000000D03*
%TD*%
D15*
%TO.P,J1,1,Pin_1*%
%TO.N,GND5V*%
X160277500Y-123892500D03*
D16*
%TO.P,J1,2,Pin_2*%
%TO.N,D13*%
X155277500Y-123892500D03*
%TD*%
D25*
%TO.P,R11,1*%
%TO.N,5v*%
X169870000Y-114554750D03*
%TO.P,R11,2*%
%TO.N,D25*%
X169870000Y-117094750D03*
%TD*%
D26*
%TO.P,J_esp1,1,Pin_1*%
%TO.N,3V3*%
X130334500Y-107744000D03*
D22*
%TO.P,J_esp1,2,Pin_2*%
%TO.N,GND2*%
X130334500Y-105204000D03*
%TO.P,J_esp1,3,Pin_3*%
%TO.N,D15*%
X130334500Y-102664000D03*
%TO.P,J_esp1,4,Pin_4*%
%TO.N,D2*%
X130334500Y-100124000D03*
%TO.P,J_esp1,5,Pin_5*%
%TO.N,D4*%
X130334500Y-97584000D03*
%TO.P,J_esp1,6,Pin_6*%
%TO.N,RX2*%
X130334500Y-95044000D03*
%TO.P,J_esp1,7,Pin_7*%
%TO.N,TX2*%
X130334500Y-92504000D03*
%TO.P,J_esp1,8,Pin_8*%
%TO.N,D5*%
X130334500Y-89964000D03*
%TO.P,J_esp1,9,Pin_9*%
%TO.N,D18*%
X130334500Y-87424000D03*
%TO.P,J_esp1,10,Pin_10*%
%TO.N,D19*%
X130334500Y-84884000D03*
%TO.P,J_esp1,11,Pin_11*%
%TO.N,D21*%
X130334500Y-82344000D03*
%TO.P,J_esp1,12,Pin_12*%
%TO.N,RX0*%
X130334500Y-79804000D03*
%TO.P,J_esp1,13,Pin_13*%
%TO.N,TX0*%
X130334500Y-77264000D03*
%TO.P,J_esp1,14,Pin_14*%
%TO.N,D22*%
X130334500Y-74724000D03*
%TO.P,J_esp1,15,Pin_15*%
%TO.N,D23*%
X130334500Y-72184000D03*
%TD*%
D27*
%TO.N,D26*%
X148295000Y-92425000D03*
X144670000Y-115500000D03*
%TO.N,GND5V*%
X168470000Y-97200000D03*
X174170887Y-87000887D03*
X160314000Y-105125000D03*
X168470000Y-109519000D03*
X124830000Y-129540000D03*
X166670000Y-126500000D03*
%TD*%
D28*
%TO.N,D26*%
X142610000Y-113440000D02*
X142610000Y-98110000D01*
X142610000Y-98110000D02*
X148295000Y-92425000D01*
X144670000Y-115500000D02*
X144670000Y-115250000D01*
X144670000Y-115500000D02*
X142610000Y-113440000D01*
%TO.N,GND5V*%
X159370000Y-124800000D02*
X159370000Y-125100000D01*
X124830000Y-134620000D02*
X128210000Y-138000000D01*
X168470000Y-109519000D02*
X168470000Y-97200000D01*
X166670000Y-135500000D02*
X164170000Y-138000000D01*
X174069113Y-87000887D02*
X168470000Y-92600000D01*
X161584000Y-105125000D02*
X160314000Y-105125000D01*
X124830000Y-129540000D02*
X124830000Y-134620000D01*
X174170887Y-87000887D02*
X174069113Y-87000887D01*
X128210000Y-138000000D02*
X133670000Y-138000000D01*
X168470000Y-109519000D02*
X168470000Y-110450000D01*
X160277500Y-123892500D02*
X159370000Y-124800000D01*
X168470000Y-98239000D02*
X161584000Y-105125000D01*
X168470000Y-110450000D02*
X166670000Y-112250000D01*
X168470000Y-92661000D02*
X168470000Y-97200000D01*
X164170000Y-138000000D02*
X132918600Y-138000000D01*
X168470000Y-97200000D02*
X168470000Y-98239000D01*
X166670000Y-112250000D02*
X166670000Y-135500000D01*
%TD*%
M02*
