%TF.GenerationSoftware,KiCad,Pcbnew,7.0.3*%
%TF.CreationDate,2023-06-20T17:59:41-05:00*%
%TF.ProjectId,water_tank_module,77617465-725f-4746-916e-6b5f6d6f6475,rev?*%
%TF.SameCoordinates,Original*%
%TF.FileFunction,Copper,L1,Top*%
%TF.FilePolarity,Positive*%
%FSLAX46Y46*%
G04 Gerber Fmt 4.6, Leading zero omitted, Abs format (unit mm)*
G04 Created by KiCad (PCBNEW 7.0.3) date 2023-06-20 17:59:41*
%MOMM*%
%LPD*%
G01*
G04 APERTURE LIST*
%ADD10C,0.300000*%
%TA.AperFunction,NonConductor*%
%ADD11C,0.300000*%
%TD*%
%TA.AperFunction,ComponentPad*%
%ADD12R,5.000000X3.300000*%
%TD*%
%TA.AperFunction,ComponentPad*%
%ADD13O,5.000000X3.300000*%
%TD*%
%TA.AperFunction,ComponentPad*%
%ADD14R,3.500000X4.000000*%
%TD*%
%TA.AperFunction,ComponentPad*%
%ADD15O,3.500000X4.000000*%
%TD*%
%TA.AperFunction,ComponentPad*%
%ADD16C,5.400000*%
%TD*%
%TA.AperFunction,ComponentPad*%
%ADD17R,3.000000X2.500000*%
%TD*%
%TA.AperFunction,ComponentPad*%
%ADD18O,3.000000X2.500000*%
%TD*%
%TA.AperFunction,ComponentPad*%
%ADD19R,2.540000X2.100000*%
%TD*%
%TA.AperFunction,ComponentPad*%
%ADD20R,2.540000X1.740000*%
%TD*%
%TA.AperFunction,ComponentPad*%
%ADD21R,2.540000X1.950000*%
%TD*%
%TA.AperFunction,ComponentPad*%
%ADD22R,3.000000X3.960000*%
%TD*%
%TA.AperFunction,ComponentPad*%
%ADD23O,3.000000X3.960000*%
%TD*%
%TA.AperFunction,ComponentPad*%
%ADD24O,2.850000X2.025000*%
%TD*%
%TA.AperFunction,ComponentPad*%
%ADD25R,2.540000X2.000000*%
%TD*%
%TA.AperFunction,ViaPad*%
%ADD26C,2.300000*%
%TD*%
%TA.AperFunction,Conductor*%
%ADD27C,1.250000*%
%TD*%
G04 APERTURE END LIST*
D10*
D11*
X139956968Y-75034483D02*
X140773635Y-75034483D01*
X141123635Y-76317816D02*
X139956968Y-76317816D01*
X139956968Y-76317816D02*
X139956968Y-73867816D01*
X139956968Y-73867816D02*
X141123635Y-73867816D01*
X142056968Y-76201150D02*
X142406968Y-76317816D01*
X142406968Y-76317816D02*
X142990302Y-76317816D01*
X142990302Y-76317816D02*
X143223635Y-76201150D01*
X143223635Y-76201150D02*
X143340302Y-76084483D01*
X143340302Y-76084483D02*
X143456968Y-75851150D01*
X143456968Y-75851150D02*
X143456968Y-75617816D01*
X143456968Y-75617816D02*
X143340302Y-75384483D01*
X143340302Y-75384483D02*
X143223635Y-75267816D01*
X143223635Y-75267816D02*
X142990302Y-75151150D01*
X142990302Y-75151150D02*
X142523635Y-75034483D01*
X142523635Y-75034483D02*
X142290302Y-74917816D01*
X142290302Y-74917816D02*
X142173635Y-74801150D01*
X142173635Y-74801150D02*
X142056968Y-74567816D01*
X142056968Y-74567816D02*
X142056968Y-74334483D01*
X142056968Y-74334483D02*
X142173635Y-74101150D01*
X142173635Y-74101150D02*
X142290302Y-73984483D01*
X142290302Y-73984483D02*
X142523635Y-73867816D01*
X142523635Y-73867816D02*
X143106968Y-73867816D01*
X143106968Y-73867816D02*
X143456968Y-73984483D01*
X144506968Y-76317816D02*
X144506968Y-73867816D01*
X144506968Y-73867816D02*
X145440301Y-73867816D01*
X145440301Y-73867816D02*
X145673635Y-73984483D01*
X145673635Y-73984483D02*
X145790301Y-74101150D01*
X145790301Y-74101150D02*
X145906968Y-74334483D01*
X145906968Y-74334483D02*
X145906968Y-74684483D01*
X145906968Y-74684483D02*
X145790301Y-74917816D01*
X145790301Y-74917816D02*
X145673635Y-75034483D01*
X145673635Y-75034483D02*
X145440301Y-75151150D01*
X145440301Y-75151150D02*
X144506968Y-75151150D01*
X146723635Y-73867816D02*
X148240301Y-73867816D01*
X148240301Y-73867816D02*
X147423635Y-74801150D01*
X147423635Y-74801150D02*
X147773635Y-74801150D01*
X147773635Y-74801150D02*
X148006968Y-74917816D01*
X148006968Y-74917816D02*
X148123635Y-75034483D01*
X148123635Y-75034483D02*
X148240301Y-75267816D01*
X148240301Y-75267816D02*
X148240301Y-75851150D01*
X148240301Y-75851150D02*
X148123635Y-76084483D01*
X148123635Y-76084483D02*
X148006968Y-76201150D01*
X148006968Y-76201150D02*
X147773635Y-76317816D01*
X147773635Y-76317816D02*
X147073635Y-76317816D01*
X147073635Y-76317816D02*
X146840301Y-76201150D01*
X146840301Y-76201150D02*
X146723635Y-76084483D01*
X149173634Y-74101150D02*
X149290301Y-73984483D01*
X149290301Y-73984483D02*
X149523634Y-73867816D01*
X149523634Y-73867816D02*
X150106968Y-73867816D01*
X150106968Y-73867816D02*
X150340301Y-73984483D01*
X150340301Y-73984483D02*
X150456968Y-74101150D01*
X150456968Y-74101150D02*
X150573634Y-74334483D01*
X150573634Y-74334483D02*
X150573634Y-74567816D01*
X150573634Y-74567816D02*
X150456968Y-74917816D01*
X150456968Y-74917816D02*
X149056968Y-76317816D01*
X149056968Y-76317816D02*
X150573634Y-76317816D01*
D10*
D11*
X143171150Y-138969298D02*
X143054483Y-138852631D01*
X143054483Y-138852631D02*
X142937816Y-138619298D01*
X142937816Y-138619298D02*
X142937816Y-138035965D01*
X142937816Y-138035965D02*
X143054483Y-137802631D01*
X143054483Y-137802631D02*
X143171150Y-137685965D01*
X143171150Y-137685965D02*
X143404483Y-137569298D01*
X143404483Y-137569298D02*
X143637816Y-137569298D01*
X143637816Y-137569298D02*
X143987816Y-137685965D01*
X143987816Y-137685965D02*
X145387816Y-139085965D01*
X145387816Y-139085965D02*
X145387816Y-137569298D01*
X142937816Y-135469298D02*
X142937816Y-135935965D01*
X142937816Y-135935965D02*
X143054483Y-136169298D01*
X143054483Y-136169298D02*
X143171150Y-136285965D01*
X143171150Y-136285965D02*
X143521150Y-136519298D01*
X143521150Y-136519298D02*
X143987816Y-136635965D01*
X143987816Y-136635965D02*
X144921150Y-136635965D01*
X144921150Y-136635965D02*
X145154483Y-136519298D01*
X145154483Y-136519298D02*
X145271150Y-136402632D01*
X145271150Y-136402632D02*
X145387816Y-136169298D01*
X145387816Y-136169298D02*
X145387816Y-135702632D01*
X145387816Y-135702632D02*
X145271150Y-135469298D01*
X145271150Y-135469298D02*
X145154483Y-135352632D01*
X145154483Y-135352632D02*
X144921150Y-135235965D01*
X144921150Y-135235965D02*
X144337816Y-135235965D01*
X144337816Y-135235965D02*
X144104483Y-135352632D01*
X144104483Y-135352632D02*
X143987816Y-135469298D01*
X143987816Y-135469298D02*
X143871150Y-135702632D01*
X143871150Y-135702632D02*
X143871150Y-136169298D01*
X143871150Y-136169298D02*
X143987816Y-136402632D01*
X143987816Y-136402632D02*
X144104483Y-136519298D01*
X144104483Y-136519298D02*
X144337816Y-136635965D01*
D10*
D11*
X122195701Y-118217816D02*
X121379034Y-117051150D01*
X120795701Y-118217816D02*
X120795701Y-115767816D01*
X120795701Y-115767816D02*
X121729034Y-115767816D01*
X121729034Y-115767816D02*
X121962368Y-115884483D01*
X121962368Y-115884483D02*
X122079034Y-116001150D01*
X122079034Y-116001150D02*
X122195701Y-116234483D01*
X122195701Y-116234483D02*
X122195701Y-116584483D01*
X122195701Y-116584483D02*
X122079034Y-116817816D01*
X122079034Y-116817816D02*
X121962368Y-116934483D01*
X121962368Y-116934483D02*
X121729034Y-117051150D01*
X121729034Y-117051150D02*
X120795701Y-117051150D01*
X124062368Y-116934483D02*
X123245701Y-116934483D01*
X123245701Y-118217816D02*
X123245701Y-115767816D01*
X123245701Y-115767816D02*
X124412368Y-115767816D01*
D10*
D11*
X138171150Y-139069298D02*
X138054483Y-138952631D01*
X138054483Y-138952631D02*
X137937816Y-138719298D01*
X137937816Y-138719298D02*
X137937816Y-138135965D01*
X137937816Y-138135965D02*
X138054483Y-137902631D01*
X138054483Y-137902631D02*
X138171150Y-137785965D01*
X138171150Y-137785965D02*
X138404483Y-137669298D01*
X138404483Y-137669298D02*
X138637816Y-137669298D01*
X138637816Y-137669298D02*
X138987816Y-137785965D01*
X138987816Y-137785965D02*
X140387816Y-139185965D01*
X140387816Y-139185965D02*
X140387816Y-137669298D01*
X137937816Y-136852632D02*
X137937816Y-135219298D01*
X137937816Y-135219298D02*
X140387816Y-136269298D01*
D10*
D11*
X133137816Y-139185965D02*
X133137816Y-137669298D01*
X133137816Y-137669298D02*
X134071150Y-138485965D01*
X134071150Y-138485965D02*
X134071150Y-138135965D01*
X134071150Y-138135965D02*
X134187816Y-137902631D01*
X134187816Y-137902631D02*
X134304483Y-137785965D01*
X134304483Y-137785965D02*
X134537816Y-137669298D01*
X134537816Y-137669298D02*
X135121150Y-137669298D01*
X135121150Y-137669298D02*
X135354483Y-137785965D01*
X135354483Y-137785965D02*
X135471150Y-137902631D01*
X135471150Y-137902631D02*
X135587816Y-138135965D01*
X135587816Y-138135965D02*
X135587816Y-138835965D01*
X135587816Y-138835965D02*
X135471150Y-139069298D01*
X135471150Y-139069298D02*
X135354483Y-139185965D01*
X133137816Y-136852632D02*
X133137816Y-135335965D01*
X133137816Y-135335965D02*
X134071150Y-136152632D01*
X134071150Y-136152632D02*
X134071150Y-135802632D01*
X134071150Y-135802632D02*
X134187816Y-135569298D01*
X134187816Y-135569298D02*
X134304483Y-135452632D01*
X134304483Y-135452632D02*
X134537816Y-135335965D01*
X134537816Y-135335965D02*
X135121150Y-135335965D01*
X135121150Y-135335965D02*
X135354483Y-135452632D01*
X135354483Y-135452632D02*
X135471150Y-135569298D01*
X135471150Y-135569298D02*
X135587816Y-135802632D01*
X135587816Y-135802632D02*
X135587816Y-136502632D01*
X135587816Y-136502632D02*
X135471150Y-136735965D01*
X135471150Y-136735965D02*
X135354483Y-136852632D01*
D10*
D11*
X155787816Y-137769298D02*
X155787816Y-139169298D01*
X155787816Y-138469298D02*
X153337816Y-138469298D01*
X153337816Y-138469298D02*
X153687816Y-138702631D01*
X153687816Y-138702631D02*
X153921150Y-138935965D01*
X153921150Y-138935965D02*
X154037816Y-139169298D01*
X153337816Y-136952632D02*
X153337816Y-135435965D01*
X153337816Y-135435965D02*
X154271150Y-136252632D01*
X154271150Y-136252632D02*
X154271150Y-135902632D01*
X154271150Y-135902632D02*
X154387816Y-135669298D01*
X154387816Y-135669298D02*
X154504483Y-135552632D01*
X154504483Y-135552632D02*
X154737816Y-135435965D01*
X154737816Y-135435965D02*
X155321150Y-135435965D01*
X155321150Y-135435965D02*
X155554483Y-135552632D01*
X155554483Y-135552632D02*
X155671150Y-135669298D01*
X155671150Y-135669298D02*
X155787816Y-135902632D01*
X155787816Y-135902632D02*
X155787816Y-136602632D01*
X155787816Y-136602632D02*
X155671150Y-136835965D01*
X155671150Y-136835965D02*
X155554483Y-136952632D01*
D10*
D11*
X179452435Y-81552631D02*
X179345292Y-81766917D01*
X179345292Y-81766917D02*
X179345292Y-82088345D01*
X179345292Y-82088345D02*
X179452435Y-82409774D01*
X179452435Y-82409774D02*
X179666721Y-82624059D01*
X179666721Y-82624059D02*
X179881007Y-82731202D01*
X179881007Y-82731202D02*
X180309578Y-82838345D01*
X180309578Y-82838345D02*
X180631007Y-82838345D01*
X180631007Y-82838345D02*
X181059578Y-82731202D01*
X181059578Y-82731202D02*
X181273864Y-82624059D01*
X181273864Y-82624059D02*
X181488150Y-82409774D01*
X181488150Y-82409774D02*
X181595292Y-82088345D01*
X181595292Y-82088345D02*
X181595292Y-81874059D01*
X181595292Y-81874059D02*
X181488150Y-81552631D01*
X181488150Y-81552631D02*
X181381007Y-81445488D01*
X181381007Y-81445488D02*
X180631007Y-81445488D01*
X180631007Y-81445488D02*
X180631007Y-81874059D01*
X181595292Y-80481202D02*
X179345292Y-80481202D01*
X179345292Y-80481202D02*
X181595292Y-79195488D01*
X181595292Y-79195488D02*
X179345292Y-79195488D01*
X181595292Y-78124059D02*
X179345292Y-78124059D01*
X179345292Y-78124059D02*
X179345292Y-77588345D01*
X179345292Y-77588345D02*
X179452435Y-77266916D01*
X179452435Y-77266916D02*
X179666721Y-77052631D01*
X179666721Y-77052631D02*
X179881007Y-76945488D01*
X179881007Y-76945488D02*
X180309578Y-76838345D01*
X180309578Y-76838345D02*
X180631007Y-76838345D01*
X180631007Y-76838345D02*
X181059578Y-76945488D01*
X181059578Y-76945488D02*
X181273864Y-77052631D01*
X181273864Y-77052631D02*
X181488150Y-77266916D01*
X181488150Y-77266916D02*
X181595292Y-77588345D01*
X181595292Y-77588345D02*
X181595292Y-78124059D01*
X179345292Y-74802631D02*
X179345292Y-75874059D01*
X179345292Y-75874059D02*
X180416721Y-75981202D01*
X180416721Y-75981202D02*
X180309578Y-75874059D01*
X180309578Y-75874059D02*
X180202435Y-75659774D01*
X180202435Y-75659774D02*
X180202435Y-75124059D01*
X180202435Y-75124059D02*
X180309578Y-74909774D01*
X180309578Y-74909774D02*
X180416721Y-74802631D01*
X180416721Y-74802631D02*
X180631007Y-74695488D01*
X180631007Y-74695488D02*
X181166721Y-74695488D01*
X181166721Y-74695488D02*
X181381007Y-74802631D01*
X181381007Y-74802631D02*
X181488150Y-74909774D01*
X181488150Y-74909774D02*
X181595292Y-75124059D01*
X181595292Y-75124059D02*
X181595292Y-75659774D01*
X181595292Y-75659774D02*
X181488150Y-75874059D01*
X181488150Y-75874059D02*
X181381007Y-75981202D01*
X179345292Y-74052631D02*
X181595292Y-73302631D01*
X181595292Y-73302631D02*
X179345292Y-72552631D01*
D10*
D11*
X150487816Y-137669298D02*
X150487816Y-139069298D01*
X150487816Y-138369298D02*
X148037816Y-138369298D01*
X148037816Y-138369298D02*
X148387816Y-138602631D01*
X148387816Y-138602631D02*
X148621150Y-138835965D01*
X148621150Y-138835965D02*
X148737816Y-139069298D01*
X148854483Y-135569298D02*
X150487816Y-135569298D01*
X147921150Y-136152632D02*
X149671150Y-136735965D01*
X149671150Y-136735965D02*
X149671150Y-135219298D01*
D10*
D11*
X164645292Y-78624060D02*
X164645292Y-79695488D01*
X164645292Y-79695488D02*
X165716721Y-79802631D01*
X165716721Y-79802631D02*
X165609578Y-79695488D01*
X165609578Y-79695488D02*
X165502435Y-79481203D01*
X165502435Y-79481203D02*
X165502435Y-78945488D01*
X165502435Y-78945488D02*
X165609578Y-78731203D01*
X165609578Y-78731203D02*
X165716721Y-78624060D01*
X165716721Y-78624060D02*
X165931007Y-78516917D01*
X165931007Y-78516917D02*
X166466721Y-78516917D01*
X166466721Y-78516917D02*
X166681007Y-78624060D01*
X166681007Y-78624060D02*
X166788150Y-78731203D01*
X166788150Y-78731203D02*
X166895292Y-78945488D01*
X166895292Y-78945488D02*
X166895292Y-79481203D01*
X166895292Y-79481203D02*
X166788150Y-79695488D01*
X166788150Y-79695488D02*
X166681007Y-79802631D01*
X164645292Y-77874060D02*
X166895292Y-77124060D01*
X166895292Y-77124060D02*
X164645292Y-76374060D01*
X166038150Y-75624060D02*
X166038150Y-73909775D01*
X166895292Y-74766917D02*
X165181007Y-74766917D01*
D12*
%TO.P,J4,1,Pin_1*%
%TO.N,D34*%
X181670000Y-103000000D03*
D13*
%TO.P,J4,2,Pin_2*%
%TO.N,5v*%
X181670000Y-98000000D03*
%TO.P,J4,3,Pin_3*%
%TO.N,GND5V*%
X181670000Y-93000000D03*
%TD*%
D12*
%TO.P,J2,1,Pin_1*%
%TO.N,D25*%
X181527500Y-119857500D03*
D13*
%TO.P,J2,2,Pin_2*%
%TO.N,5v*%
X181527500Y-114857500D03*
%TO.P,J2,3,Pin_3*%
%TO.N,GND5V*%
X181527500Y-109857500D03*
%TD*%
D14*
%TO.P,J3,1,Pin_1*%
%TO.N,GND5V*%
X129562500Y-124357500D03*
D15*
%TO.P,J3,2,Pin_2*%
%TO.N,D33*%
X134562500Y-124357500D03*
%TO.P,J3,3,Pin_3*%
%TO.N,D27*%
X139562500Y-124357500D03*
%TO.P,J3,4,Pin_4*%
%TO.N,D26*%
X144562500Y-124357500D03*
%TO.P,J3,5,Pin_5*%
%TO.N,D14*%
X149562500Y-124357500D03*
%TD*%
D16*
%TO.P,H2,1*%
%TO.N,N/C*%
X185420000Y-135000000D03*
%TD*%
D17*
%TO.P,C1,1*%
%TO.N,5v*%
X171070887Y-82999113D03*
D18*
%TO.P,C1,2*%
%TO.N,GND5V*%
X174620887Y-82999113D03*
%TD*%
D16*
%TO.P,H3,1*%
%TO.N,N/C*%
X119750000Y-71000000D03*
%TD*%
D19*
%TO.P,J_esp0,1,Pin_1*%
%TO.N,EN*%
X154875000Y-72105000D03*
D20*
%TO.P,J_esp0,2,Pin_2*%
%TO.N,VP*%
X154875000Y-74645000D03*
%TO.P,J_esp0,3,Pin_3*%
%TO.N,VN*%
X154875000Y-77185000D03*
D21*
%TO.P,J_esp0,4,Pin_4*%
%TO.N,D34*%
X154875000Y-79725000D03*
%TO.P,J_esp0,5,Pin_5*%
%TO.N,D35*%
X154875000Y-82265000D03*
%TO.P,J_esp0,6,Pin_6*%
%TO.N,D32*%
X154875000Y-84805000D03*
%TO.P,J_esp0,7,Pin_7*%
%TO.N,D33*%
X154875000Y-87345000D03*
%TO.P,J_esp0,8,Pin_8*%
%TO.N,D25*%
X154875000Y-89885000D03*
%TO.P,J_esp0,9,Pin_9*%
%TO.N,D26*%
X154875000Y-92425000D03*
%TO.P,J_esp0,10,Pin_10*%
%TO.N,D27*%
X154875000Y-94965000D03*
%TO.P,J_esp0,11,Pin_11*%
%TO.N,D14*%
X154875000Y-97505000D03*
%TO.P,J_esp0,12,Pin_12*%
%TO.N,D12*%
X154875000Y-100045000D03*
%TO.P,J_esp0,13,Pin_13*%
%TO.N,D13*%
X154875000Y-102585000D03*
%TO.P,J_esp0,14,Pin_14*%
%TO.N,GND5V*%
X154875000Y-105125000D03*
%TO.P,J_esp0,15,Pin_15*%
%TO.N,5v*%
X154875000Y-107665000D03*
%TD*%
D22*
%TO.P,5V1,1,Pin_1*%
%TO.N,5v*%
X170298200Y-73688063D03*
D23*
%TO.P,5V1,2,Pin_2*%
%TO.N,GND5V*%
X175298200Y-73688063D03*
%TD*%
D16*
%TO.P,H4,1*%
%TO.N,N/C*%
X185420000Y-71000000D03*
%TD*%
%TO.P,H1,1*%
%TO.N,N/C*%
X119750000Y-135000000D03*
%TD*%
D14*
%TO.P,J1,1,Pin_1*%
%TO.N,GND5V*%
X160277500Y-123892500D03*
D15*
%TO.P,J1,2,Pin_2*%
%TO.N,D13*%
X155277500Y-123892500D03*
%TD*%
D24*
%TO.P,R11,1*%
%TO.N,5v*%
X169870000Y-114554750D03*
%TO.P,R11,2*%
%TO.N,D25*%
X169870000Y-117094750D03*
%TD*%
D25*
%TO.P,J_esp1,1,Pin_1*%
%TO.N,3V3*%
X130334500Y-107744000D03*
D21*
%TO.P,J_esp1,2,Pin_2*%
%TO.N,GND2*%
X130334500Y-105204000D03*
%TO.P,J_esp1,3,Pin_3*%
%TO.N,D15*%
X130334500Y-102664000D03*
%TO.P,J_esp1,4,Pin_4*%
%TO.N,D2*%
X130334500Y-100124000D03*
%TO.P,J_esp1,5,Pin_5*%
%TO.N,D4*%
X130334500Y-97584000D03*
%TO.P,J_esp1,6,Pin_6*%
%TO.N,RX2*%
X130334500Y-95044000D03*
%TO.P,J_esp1,7,Pin_7*%
%TO.N,TX2*%
X130334500Y-92504000D03*
%TO.P,J_esp1,8,Pin_8*%
%TO.N,D5*%
X130334500Y-89964000D03*
%TO.P,J_esp1,9,Pin_9*%
%TO.N,D18*%
X130334500Y-87424000D03*
%TO.P,J_esp1,10,Pin_10*%
%TO.N,D19*%
X130334500Y-84884000D03*
%TO.P,J_esp1,11,Pin_11*%
%TO.N,D21*%
X130334500Y-82344000D03*
%TO.P,J_esp1,12,Pin_12*%
%TO.N,RX0*%
X130334500Y-79804000D03*
%TO.P,J_esp1,13,Pin_13*%
%TO.N,TX0*%
X130334500Y-77264000D03*
%TO.P,J_esp1,14,Pin_14*%
%TO.N,D22*%
X130334500Y-74724000D03*
%TO.P,J_esp1,15,Pin_15*%
%TO.N,D23*%
X130334500Y-72184000D03*
%TD*%
D26*
%TO.N,D26*%
X148295000Y-92425000D03*
X144670000Y-115500000D03*
%TO.N,GND5V*%
X168470000Y-97200000D03*
X174170887Y-87000887D03*
X160314000Y-105125000D03*
X168470000Y-109519000D03*
X124830000Y-129540000D03*
X166670000Y-126500000D03*
%TD*%
D27*
%TO.N,D34*%
X154875000Y-79725000D02*
X158795000Y-79725000D01*
X171170000Y-103000000D02*
X181670000Y-103000000D01*
X161070000Y-82000000D02*
X161070000Y-88800000D01*
X161070000Y-88800000D02*
X166170000Y-93900000D01*
X166170000Y-93900000D02*
X166170000Y-98000000D01*
X158795000Y-79725000D02*
X161070000Y-82000000D01*
X166170000Y-98000000D02*
X171170000Y-103000000D01*
%TO.N,D33*%
X150865200Y-87421200D02*
X154798800Y-87421200D01*
X139770000Y-106800000D02*
X139770000Y-93800000D01*
X139770000Y-93800000D02*
X146170000Y-87400000D01*
X146170000Y-87400000D02*
X150870000Y-87400000D01*
X134562500Y-112007500D02*
X139770000Y-106800000D01*
X154798800Y-87421200D02*
X154875000Y-87345000D01*
X134562500Y-112007500D02*
X134562500Y-124357500D01*
%TO.N,D25*%
X169870000Y-117094750D02*
X170514750Y-117094750D01*
X170514750Y-117094750D02*
X173220000Y-119800000D01*
X157955000Y-89885000D02*
X154875000Y-89885000D01*
X167464750Y-117094750D02*
X163870000Y-113500000D01*
X173777500Y-119857500D02*
X181527500Y-119857500D01*
X163870000Y-113500000D02*
X163870000Y-95800000D01*
X169870000Y-117094750D02*
X167464750Y-117094750D01*
X173220000Y-119800000D02*
X174770000Y-119800000D01*
X163870000Y-95800000D02*
X157955000Y-89885000D01*
%TO.N,D26*%
X144670000Y-115500000D02*
X144670000Y-124250000D01*
X148295000Y-92425000D02*
X154875000Y-92425000D01*
X144670000Y-124250000D02*
X144562500Y-124357500D01*
%TO.N,D27*%
X142370000Y-102300000D02*
X149705000Y-94965000D01*
X139562500Y-112807500D02*
X142370000Y-110000000D01*
X142370000Y-110000000D02*
X142370000Y-102300000D01*
X139562500Y-112807500D02*
X139562500Y-124357500D01*
X149705000Y-94965000D02*
X154875000Y-94965000D01*
%TO.N,D14*%
X146670000Y-102400000D02*
X146670000Y-112000000D01*
X154875000Y-97505000D02*
X151565000Y-97505000D01*
X149562500Y-114892500D02*
X149562500Y-124357500D01*
X146670000Y-112000000D02*
X149562500Y-114892500D01*
X151565000Y-97505000D02*
X146670000Y-102400000D01*
%TO.N,D13*%
X150420000Y-111250000D02*
X150420000Y-104150000D01*
X150420000Y-104150000D02*
X151985000Y-102585000D01*
X155277500Y-116107500D02*
X155277500Y-123892500D01*
X155277500Y-116107500D02*
X150420000Y-111250000D01*
X151985000Y-102585000D02*
X154875000Y-102585000D01*
%TO.N,D19*%
X130332500Y-84886000D02*
X130334500Y-84884000D01*
%TO.N,5v*%
X187670000Y-112500000D02*
X185312500Y-114857500D01*
X181224750Y-114554750D02*
X181527500Y-114857500D01*
X187670000Y-122250000D02*
X185420000Y-124500000D01*
X161828000Y-115158000D02*
X160078000Y-115158000D01*
X181670000Y-98000000D02*
X184170000Y-98000000D01*
X171170000Y-92000000D02*
X174920000Y-92000000D01*
X171170000Y-124500000D02*
X161828000Y-115158000D01*
X171670887Y-82999113D02*
X169670000Y-85000000D01*
X178920000Y-88000000D02*
X186170000Y-88000000D01*
X187670000Y-112500000D02*
X187670000Y-122250000D01*
X187670000Y-89500000D02*
X187670000Y-94500000D01*
X170289000Y-81682113D02*
X170289000Y-73697263D01*
X171670000Y-124500000D02*
X171170000Y-124500000D01*
X169870000Y-114554750D02*
X181224750Y-114554750D01*
X160078000Y-115158000D02*
X154875000Y-109955000D01*
X185420000Y-124500000D02*
X171670000Y-124500000D01*
X186170000Y-88000000D02*
X187670000Y-89500000D01*
X185312500Y-114857500D02*
X181527500Y-114857500D01*
X169670000Y-90500000D02*
X171170000Y-92000000D01*
X154875000Y-109955000D02*
X154875000Y-107665000D01*
X169670000Y-85000000D02*
X169670000Y-90500000D01*
X154670000Y-107870000D02*
X154875000Y-107665000D01*
X181219750Y-114549750D02*
X181527500Y-114857500D01*
X184170000Y-98000000D02*
X187670000Y-94500000D01*
X174920000Y-92000000D02*
X178920000Y-88000000D01*
X187670000Y-94500000D02*
X187670000Y-112500000D01*
%TO.N,GND5V*%
X175670000Y-81500000D02*
X174170887Y-82999113D01*
X168470000Y-97200000D02*
X173970000Y-97200000D01*
X173970000Y-97200000D02*
X178170000Y-93000000D01*
X164062500Y-123892500D02*
X166670000Y-126500000D01*
X175670000Y-81500000D02*
X175670000Y-74059863D01*
X180494000Y-110891000D02*
X181527500Y-109857500D01*
X160314000Y-105125000D02*
X154875000Y-105125000D01*
X124830000Y-129540000D02*
X124830000Y-126775000D01*
X168470000Y-109519000D02*
X169842000Y-110891000D01*
X127247500Y-124357500D02*
X129562500Y-124357500D01*
X174170887Y-87000887D02*
X174170887Y-82999113D01*
X178170000Y-93000000D02*
X181670000Y-93000000D01*
X169842000Y-110891000D02*
X180494000Y-110891000D01*
X160277500Y-123892500D02*
X164062500Y-123892500D01*
X124830000Y-126775000D02*
X127247500Y-124357500D01*
%TD*%
M02*
