M48
; DRILL file {KiCad 7.0.3} date mar 20 jun 2023 17:59:43
; FORMAT={-:-/ absolute / inch / decimal}
; #@! TF.CreationDate,2023-06-20T17:59:43-05:00
; #@! TF.GenerationSoftware,Kicad,Pcbnew,7.0.3
; #@! TF.FileFunction,Plated,1,2,PTH
FMAT,2
INCH
; #@! TA.AperFunction,Plated,PTH,ComponentDrill
T1C0.0276
; #@! TA.AperFunction,Plated,PTH,ViaDrill
T2C0.0295
; #@! TA.AperFunction,Plated,PTH,ComponentDrill
T3C0.0315
; #@! TA.AperFunction,Plated,PTH,ComponentDrill
T4C0.0429
; #@! TA.AperFunction,Plated,PTH,ComponentDrill
T5C0.0520
; #@! TA.AperFunction,Plated,PTH,ComponentDrill
T6C0.0591
; #@! TA.AperFunction,Plated,PTH,ComponentDrill
T7C0.1063
%
G90
G05
T1
X6.6878Y-4.51
X6.6878Y-4.61
T2
X4.9146Y-5.1
X5.6957Y-4.5472
X5.8384Y-3.6388
X6.3116Y-4.1388
X6.5618Y-4.9803
X6.6327Y-3.8268
X6.6327Y-4.3118
X6.8571Y-3.4252
T3
X6.7587Y-3.2677
X6.8571Y-3.2677
T4
X5.1313Y-2.8419
X5.1313Y-2.9419
X5.1313Y-3.0419
X5.1313Y-3.1419
X5.1313Y-3.2419
X5.1313Y-3.3419
X5.1313Y-3.4419
X5.1313Y-3.5419
X5.1313Y-3.6419
X5.1313Y-3.7419
X5.1313Y-3.8419
X5.1313Y-3.9419
X5.1313Y-4.0419
X5.1313Y-4.1419
X5.1313Y-4.2419
X6.0974Y-2.8388
X6.0974Y-2.9388
X6.0974Y-3.0388
X6.0974Y-3.1388
X6.0974Y-3.2388
X6.0974Y-3.3388
X6.0974Y-3.4388
X6.0974Y-3.5388
X6.0974Y-3.6388
X6.0974Y-3.7388
X6.0974Y-3.8388
X6.0974Y-3.9388
X6.0974Y-4.0388
X6.0974Y-4.1388
X6.0974Y-4.2388
T5
X6.7047Y-2.9011
X6.9015Y-2.9011
T6
X5.1009Y-4.896
X5.2977Y-4.896
X5.4946Y-4.896
X5.6914Y-4.896
X5.8883Y-4.896
X6.1133Y-4.8777
X6.3101Y-4.8777
X7.1468Y-4.3251
X7.1468Y-4.5219
X7.1468Y-4.7188
X7.1524Y-3.6614
X7.1524Y-3.8583
X7.1524Y-4.0551
T7
X4.7146Y-2.7953
X4.7146Y-5.315
X7.3Y-2.7953
X7.3Y-5.315
T0
M30
