%TF.GenerationSoftware,KiCad,Pcbnew,6.0.11+dfsg-1*%
%TF.CreationDate,2023-04-26T14:23:15-05:00*%
%TF.ProjectId,water_tank_module,77617465-725f-4746-916e-6b5f6d6f6475,rev?*%
%TF.SameCoordinates,Original*%
%TF.FileFunction,Copper,L2,Bot*%
%TF.FilePolarity,Positive*%
%FSLAX46Y46*%
G04 Gerber Fmt 4.6, Leading zero omitted, Abs format (unit mm)*
G04 Created by KiCad (PCBNEW 6.0.11+dfsg-1) date 2023-04-26 14:23:15*
%MOMM*%
%LPD*%
G01*
G04 APERTURE LIST*
%ADD10C,0.300000*%
%TA.AperFunction,NonConductor*%
%ADD11C,0.300000*%
%TD*%
%TA.AperFunction,ComponentPad*%
%ADD12R,5.000000X3.300000*%
%TD*%
%TA.AperFunction,ComponentPad*%
%ADD13O,5.000000X3.300000*%
%TD*%
%TA.AperFunction,ComponentPad*%
%ADD14R,3.500000X4.000000*%
%TD*%
%TA.AperFunction,ComponentPad*%
%ADD15O,3.500000X4.000000*%
%TD*%
%TA.AperFunction,ComponentPad*%
%ADD16C,5.400000*%
%TD*%
%TA.AperFunction,ComponentPad*%
%ADD17R,2.000000X3.000000*%
%TD*%
%TA.AperFunction,ComponentPad*%
%ADD18O,2.000000X3.000000*%
%TD*%
%TA.AperFunction,ComponentPad*%
%ADD19R,3.000000X2.500000*%
%TD*%
%TA.AperFunction,ComponentPad*%
%ADD20O,3.000000X2.500000*%
%TD*%
%TA.AperFunction,ComponentPad*%
%ADD21R,2.540000X2.100000*%
%TD*%
%TA.AperFunction,ComponentPad*%
%ADD22R,2.540000X1.740000*%
%TD*%
%TA.AperFunction,ComponentPad*%
%ADD23R,2.540000X1.950000*%
%TD*%
%TA.AperFunction,ComponentPad*%
%ADD24R,3.000000X3.960000*%
%TD*%
%TA.AperFunction,ComponentPad*%
%ADD25O,3.000000X3.960000*%
%TD*%
%TA.AperFunction,ComponentPad*%
%ADD26O,2.850000X2.025000*%
%TD*%
%TA.AperFunction,ComponentPad*%
%ADD27R,2.540000X2.000000*%
%TD*%
%TA.AperFunction,ViaPad*%
%ADD28C,2.300000*%
%TD*%
%TA.AperFunction,Conductor*%
%ADD29C,1.250000*%
%TD*%
G04 APERTURE END LIST*
D10*
D11*
X165410400Y-75025000D02*
X164593733Y-75025000D01*
X164243733Y-76308333D02*
X165410400Y-76308333D01*
X165410400Y-73858333D01*
X164243733Y-73858333D01*
X163310400Y-76191666D02*
X162960400Y-76308333D01*
X162377066Y-76308333D01*
X162143733Y-76191666D01*
X162027066Y-76075000D01*
X161910400Y-75841666D01*
X161910400Y-75608333D01*
X162027066Y-75375000D01*
X162143733Y-75258333D01*
X162377066Y-75141666D01*
X162843733Y-75025000D01*
X163077066Y-74908333D01*
X163193733Y-74791666D01*
X163310400Y-74558333D01*
X163310400Y-74325000D01*
X163193733Y-74091666D01*
X163077066Y-73975000D01*
X162843733Y-73858333D01*
X162260400Y-73858333D01*
X161910400Y-73975000D01*
X160860400Y-76308333D02*
X160860400Y-73858333D01*
X159927066Y-73858333D01*
X159693733Y-73975000D01*
X159577066Y-74091666D01*
X159460400Y-74325000D01*
X159460400Y-74675000D01*
X159577066Y-74908333D01*
X159693733Y-75025000D01*
X159927066Y-75141666D01*
X160860400Y-75141666D01*
X158643733Y-73858333D02*
X157127066Y-73858333D01*
X157943733Y-74791666D01*
X157593733Y-74791666D01*
X157360400Y-74908333D01*
X157243733Y-75025000D01*
X157127066Y-75258333D01*
X157127066Y-75841666D01*
X157243733Y-76075000D01*
X157360400Y-76191666D01*
X157593733Y-76308333D01*
X158293733Y-76308333D01*
X158527066Y-76191666D01*
X158643733Y-76075000D01*
X156193733Y-74091666D02*
X156077066Y-73975000D01*
X155843733Y-73858333D01*
X155260400Y-73858333D01*
X155027066Y-73975000D01*
X154910400Y-74091666D01*
X154793733Y-74325000D01*
X154793733Y-74558333D01*
X154910400Y-74908333D01*
X156310400Y-76308333D01*
X154793733Y-76308333D01*
D12*
%TO.P,J4,1,Pin_1*%
%TO.N,D34*%
X123500000Y-103000000D03*
D13*
%TO.P,J4,2,Pin_2*%
%TO.N,5v*%
X123500000Y-98000000D03*
%TO.P,J4,3,Pin_3*%
%TO.N,GND5V*%
X123500000Y-93000000D03*
%TD*%
D12*
%TO.P,J2,1,Pin_1*%
%TO.N,D25*%
X123642500Y-119857500D03*
D13*
%TO.P,J2,2,Pin_2*%
%TO.N,5v*%
X123642500Y-114857500D03*
%TO.P,J2,3,Pin_3*%
%TO.N,GND5V*%
X123642500Y-109857500D03*
%TD*%
D14*
%TO.P,J3,1,Pin_1*%
%TO.N,GND5V*%
X175607500Y-124357500D03*
D15*
%TO.P,J3,2,Pin_2*%
%TO.N,D33*%
X170607500Y-124357500D03*
%TO.P,J3,3,Pin_3*%
%TO.N,D27*%
X165607500Y-124357500D03*
%TO.P,J3,4,Pin_4*%
%TO.N,D26*%
X160607500Y-124357500D03*
%TO.P,J3,5,Pin_5*%
%TO.N,D14*%
X155607500Y-124357500D03*
%TD*%
D16*
%TO.P,H2,1*%
%TO.N,N/C*%
X119750000Y-135000000D03*
%TD*%
D17*
%TO.P,U4,1,GND*%
%TO.N,GND5V*%
X194423000Y-91244000D03*
%TO.P,U4,2,VCC*%
%TO.N,5v*%
X194423000Y-94784000D03*
%TO.P,U4,3,CE*%
%TO.N,D4*%
X191883000Y-91244000D03*
%TO.P,U4,4,~{CSN}*%
%TO.N,D5*%
X191883000Y-94784000D03*
%TO.P,U4,5,SCK*%
%TO.N,D18*%
X189343000Y-91244000D03*
%TO.P,U4,6,MOSI*%
%TO.N,D23*%
X189343000Y-94784000D03*
%TO.P,U4,7,MISO*%
%TO.N,D19*%
X186803000Y-91244000D03*
D18*
%TO.P,U4,8,IRQ*%
%TO.N,unconnected-(U4-Pad8)*%
X186803000Y-94784000D03*
%TD*%
D19*
%TO.P,C1,1*%
%TO.N,5v*%
X134099113Y-82999113D03*
D20*
%TO.P,C1,2*%
%TO.N,GND5V*%
X130549113Y-82999113D03*
%TD*%
D16*
%TO.P,H3,1*%
%TO.N,N/C*%
X195250000Y-71000000D03*
%TD*%
D21*
%TO.P,J_esp0,1,Pin_1*%
%TO.N,EN*%
X150295000Y-72105000D03*
D22*
%TO.P,J_esp0,2,Pin_2*%
%TO.N,VP*%
X150295000Y-74645000D03*
%TO.P,J_esp0,3,Pin_3*%
%TO.N,VN*%
X150295000Y-77185000D03*
D23*
%TO.P,J_esp0,4,Pin_4*%
%TO.N,D34*%
X150295000Y-79725000D03*
%TO.P,J_esp0,5,Pin_5*%
%TO.N,D35*%
X150295000Y-82265000D03*
%TO.P,J_esp0,6,Pin_6*%
%TO.N,D32*%
X150295000Y-84805000D03*
%TO.P,J_esp0,7,Pin_7*%
%TO.N,D33*%
X150295000Y-87345000D03*
%TO.P,J_esp0,8,Pin_8*%
%TO.N,D25*%
X150295000Y-89885000D03*
%TO.P,J_esp0,9,Pin_9*%
%TO.N,D26*%
X150295000Y-92425000D03*
%TO.P,J_esp0,10,Pin_10*%
%TO.N,D27*%
X150295000Y-94965000D03*
%TO.P,J_esp0,11,Pin_11*%
%TO.N,D14*%
X150295000Y-97505000D03*
%TO.P,J_esp0,12,Pin_12*%
%TO.N,D12*%
X150295000Y-100045000D03*
%TO.P,J_esp0,13,Pin_13*%
%TO.N,D13*%
X150295000Y-102585000D03*
%TO.P,J_esp0,14,Pin_14*%
%TO.N,GND5V*%
X150295000Y-105125000D03*
%TO.P,J_esp0,15,Pin_15*%
%TO.N,5v*%
X150295000Y-107665000D03*
%TD*%
D24*
%TO.P,5V1,1,Pin_1*%
%TO.N,5v*%
X134871800Y-73688063D03*
D25*
%TO.P,5V1,2,Pin_2*%
%TO.N,GND5V*%
X129871800Y-73688063D03*
%TD*%
D16*
%TO.P,H4,1*%
%TO.N,N/C*%
X119750000Y-71000000D03*
%TD*%
%TO.P,H1,1*%
%TO.N,N/C*%
X195250000Y-135000000D03*
%TD*%
D14*
%TO.P,J1,1,Pin_1*%
%TO.N,GND5V*%
X144892500Y-123892500D03*
D15*
%TO.P,J1,2,Pin_2*%
%TO.N,D13*%
X149892500Y-123892500D03*
%TD*%
D26*
%TO.P,R11,1*%
%TO.N,5v*%
X134500000Y-114549750D03*
%TO.P,R11,2*%
%TO.N,D25*%
X134500000Y-117089750D03*
%TD*%
D27*
%TO.P,J_esp1,1,Pin_1*%
%TO.N,3V3*%
X174835500Y-107744000D03*
D23*
%TO.P,J_esp1,2,Pin_2*%
%TO.N,GND2*%
X174835500Y-105204000D03*
%TO.P,J_esp1,3,Pin_3*%
%TO.N,D15*%
X174835500Y-102664000D03*
%TO.P,J_esp1,4,Pin_4*%
%TO.N,D2*%
X174835500Y-100124000D03*
%TO.P,J_esp1,5,Pin_5*%
%TO.N,D4*%
X174835500Y-97584000D03*
%TO.P,J_esp1,6,Pin_6*%
%TO.N,RX2*%
X174835500Y-95044000D03*
%TO.P,J_esp1,7,Pin_7*%
%TO.N,TX2*%
X174835500Y-92504000D03*
%TO.P,J_esp1,8,Pin_8*%
%TO.N,D5*%
X174835500Y-89964000D03*
%TO.P,J_esp1,9,Pin_9*%
%TO.N,D18*%
X174835500Y-87424000D03*
%TO.P,J_esp1,10,Pin_10*%
%TO.N,D19*%
X174835500Y-84884000D03*
%TO.P,J_esp1,11,Pin_11*%
%TO.N,D21*%
X174835500Y-82344000D03*
%TO.P,J_esp1,12,Pin_12*%
%TO.N,RX0*%
X174835500Y-79804000D03*
%TO.P,J_esp1,13,Pin_13*%
%TO.N,TX0*%
X174835500Y-77264000D03*
%TO.P,J_esp1,14,Pin_14*%
%TO.N,D22*%
X174835500Y-74724000D03*
%TO.P,J_esp1,15,Pin_15*%
%TO.N,D23*%
X174835500Y-72184000D03*
%TD*%
D28*
%TO.N,D26*%
X156875000Y-92425000D03*
X160500000Y-115500000D03*
%TO.N,D18*%
X187528000Y-87472000D03*
%TO.N,D23*%
X189343000Y-98943000D03*
X171780000Y-72232000D03*
%TO.N,GND5V*%
X134356500Y-98606500D03*
X130999113Y-87500887D03*
X196037000Y-85440000D03*
X144856000Y-105125000D03*
X134391000Y-110891000D03*
X185500000Y-125500000D03*
X138500000Y-126500000D03*
%TD*%
D29*
%TO.N,D34*%
X134000000Y-103000000D02*
X123500000Y-103000000D01*
X144100000Y-88800000D02*
X138000000Y-94900000D01*
X150295000Y-79725000D02*
X146375000Y-79725000D01*
X138000000Y-94900000D02*
X138000000Y-99000000D01*
X138000000Y-99000000D02*
X134000000Y-103000000D01*
X146375000Y-79725000D02*
X144100000Y-82000000D01*
X144100000Y-82000000D02*
X144100000Y-88800000D01*
%TO.N,D33*%
X154304800Y-87421200D02*
X150371200Y-87421200D01*
X165400000Y-106800000D02*
X165400000Y-93800000D01*
X165400000Y-93800000D02*
X159000000Y-87400000D01*
X159000000Y-87400000D02*
X154300000Y-87400000D01*
X170607500Y-112007500D02*
X165400000Y-106800000D01*
X150371200Y-87421200D02*
X150295000Y-87345000D01*
X170607500Y-112007500D02*
X170607500Y-124357500D01*
%TO.N,D25*%
X131500000Y-119750000D02*
X131392500Y-119857500D01*
X131392500Y-119857500D02*
X123642500Y-119857500D01*
X140411000Y-112491000D02*
X140411000Y-96689000D01*
X147215000Y-89885000D02*
X150295000Y-89885000D01*
X135812250Y-117089750D02*
X140411000Y-112491000D01*
X134500000Y-117250000D02*
X132000000Y-119750000D01*
X132000000Y-119750000D02*
X131500000Y-119750000D01*
X140411000Y-96689000D02*
X147215000Y-89885000D01*
X134500000Y-117089750D02*
X134500000Y-117250000D01*
%TO.N,D26*%
X160500000Y-115500000D02*
X160500000Y-124250000D01*
X156875000Y-92425000D02*
X150295000Y-92425000D01*
X160500000Y-124250000D02*
X160607500Y-124357500D01*
%TO.N,D27*%
X162800000Y-102300000D02*
X155465000Y-94965000D01*
X165607500Y-112807500D02*
X162800000Y-110000000D01*
X162800000Y-110000000D02*
X162800000Y-102300000D01*
X165607500Y-112807500D02*
X165607500Y-124357500D01*
X155465000Y-94965000D02*
X150295000Y-94965000D01*
%TO.N,D14*%
X158500000Y-102400000D02*
X158500000Y-112000000D01*
X150295000Y-97505000D02*
X153605000Y-97505000D01*
X155607500Y-114892500D02*
X155607500Y-124357500D01*
X158500000Y-112000000D02*
X155607500Y-114892500D01*
X153605000Y-97505000D02*
X158500000Y-102400000D01*
%TO.N,D13*%
X154750000Y-111250000D02*
X154750000Y-104150000D01*
X154750000Y-104150000D02*
X153185000Y-102585000D01*
X149892500Y-116107500D02*
X154750000Y-111250000D01*
X149892500Y-123892500D02*
X149892500Y-116107500D01*
X153185000Y-102585000D02*
X150295000Y-102585000D01*
%TO.N,D4*%
X191883000Y-81209800D02*
X191883000Y-91744000D01*
X168600000Y-94960000D02*
X168600000Y-71300000D01*
X174835500Y-97584000D02*
X171224000Y-97584000D01*
X178206200Y-67533000D02*
X191883000Y-81209800D01*
X171224000Y-97584000D02*
X168600000Y-94960000D01*
X168600000Y-71300000D02*
X172367000Y-67533000D01*
X172367000Y-67533000D02*
X178206200Y-67533000D01*
%TO.N,D5*%
X191883000Y-100017000D02*
X190400000Y-101500000D01*
X184400000Y-101500000D02*
X179781000Y-96881000D01*
X179781000Y-91790000D02*
X177955000Y-89964000D01*
X191883000Y-94284000D02*
X191883000Y-100017000D01*
X177955000Y-89964000D02*
X174835500Y-89964000D01*
X179781000Y-96881000D02*
X179781000Y-91790000D01*
X190400000Y-101500000D02*
X184400000Y-101500000D01*
%TO.N,D18*%
X189343000Y-91744000D02*
X189343000Y-89287000D01*
X189343000Y-89287000D02*
X187528000Y-87472000D01*
%TO.N,D19*%
X179987000Y-84884000D02*
X174835500Y-84884000D01*
X186803000Y-91700000D02*
X179987000Y-84884000D01*
X174837500Y-84886000D02*
X174835500Y-84884000D01*
X186803000Y-91744000D02*
X186803000Y-91700000D01*
%TO.N,D23*%
X189343000Y-94284000D02*
X189343000Y-98943000D01*
X171828000Y-72184000D02*
X171780000Y-72232000D01*
X174835500Y-72184000D02*
X171828000Y-72184000D01*
%TO.N,5v*%
X117500000Y-112500000D02*
X119857500Y-114857500D01*
X117500000Y-122250000D02*
X119750000Y-124500000D01*
X123500000Y-98000000D02*
X121000000Y-98000000D01*
X194423000Y-94284000D02*
X194423000Y-123327000D01*
X134000000Y-92000000D02*
X130250000Y-92000000D01*
X133499113Y-82999113D02*
X135500000Y-85000000D01*
X184250000Y-133500000D02*
X140000000Y-133500000D01*
X126250000Y-88000000D02*
X119000000Y-88000000D01*
X117500000Y-112500000D02*
X117500000Y-122250000D01*
X150295000Y-109955000D02*
X145092000Y-115158000D01*
X117500000Y-89500000D02*
X117500000Y-94500000D01*
X143342000Y-115158000D02*
X145092000Y-115158000D01*
X134881000Y-81682113D02*
X134881000Y-73697263D01*
X119750000Y-124500000D02*
X133500000Y-124500000D01*
X140000000Y-133500000D02*
X134250000Y-127750000D01*
X119000000Y-88000000D02*
X117500000Y-89500000D01*
X194423000Y-123327000D02*
X184250000Y-133500000D01*
X134250000Y-127750000D02*
X134250000Y-124250000D01*
X134250000Y-124250000D02*
X143342000Y-115158000D01*
X134500000Y-114549750D02*
X123950250Y-114549750D01*
X150295000Y-107665000D02*
X150295000Y-109955000D01*
X119857500Y-114857500D02*
X123642500Y-114857500D01*
X135500000Y-90500000D02*
X134000000Y-92000000D01*
X135500000Y-85000000D02*
X135500000Y-90500000D01*
X150500000Y-107870000D02*
X150295000Y-107665000D01*
X123950250Y-114549750D02*
X123642500Y-114857500D01*
X121000000Y-98000000D02*
X117500000Y-94500000D01*
X130250000Y-92000000D02*
X126250000Y-88000000D01*
X117500000Y-94500000D02*
X117500000Y-112500000D01*
%TO.N,GND5V*%
X129500000Y-81500000D02*
X130999113Y-82999113D01*
X124676000Y-110891000D02*
X123642500Y-109857500D01*
X138500000Y-126500000D02*
X142285000Y-126500000D01*
X184357500Y-124357500D02*
X175607500Y-124357500D01*
X127000000Y-93000000D02*
X123500000Y-93000000D01*
X129500000Y-81500000D02*
X129500000Y-74059863D01*
X196037000Y-85440000D02*
X194386000Y-87091000D01*
X134391000Y-110891000D02*
X124676000Y-110891000D01*
X134356500Y-98606500D02*
X132606500Y-98606500D01*
X144856000Y-105125000D02*
X150295000Y-105125000D01*
X194386000Y-91707000D02*
X194423000Y-91744000D01*
X132606500Y-98606500D02*
X127000000Y-93000000D01*
X142285000Y-126500000D02*
X144892500Y-123892500D01*
X194386000Y-87091000D02*
X194386000Y-91707000D01*
X130999113Y-87500887D02*
X130999113Y-82999113D01*
X185500000Y-125500000D02*
X184357500Y-124357500D01*
%TD*%
M02*
