%TF.GenerationSoftware,KiCad,Pcbnew,6.0.11+dfsg-1*%
%TF.CreationDate,2023-04-26T14:23:15-05:00*%
%TF.ProjectId,water_tank_module,77617465-725f-4746-916e-6b5f6d6f6475,rev?*%
%TF.SameCoordinates,Original*%
%TF.FileFunction,Legend,Top*%
%TF.FilePolarity,Positive*%
%FSLAX46Y46*%
G04 Gerber Fmt 4.6, Leading zero omitted, Abs format (unit mm)*
G04 Created by KiCad (PCBNEW 6.0.11+dfsg-1) date 2023-04-26 14:23:15*
%MOMM*%
%LPD*%
G01*
G04 APERTURE LIST*
%ADD10C,0.150000*%
%ADD11C,0.120000*%
G04 APERTURE END LIST*
D10*
%TO.C,J4*%
X115752380Y-103333333D02*
X116466666Y-103333333D01*
X116609523Y-103380952D01*
X116704761Y-103476190D01*
X116752380Y-103619047D01*
X116752380Y-103714285D01*
X116085714Y-102428571D02*
X116752380Y-102428571D01*
X115704761Y-102666666D02*
X116419047Y-102904761D01*
X116419047Y-102285714D01*
%TO.C,J2*%
X115894880Y-120190833D02*
X116609166Y-120190833D01*
X116752023Y-120238452D01*
X116847261Y-120333690D01*
X116894880Y-120476547D01*
X116894880Y-120571785D01*
X115990119Y-119762261D02*
X115942500Y-119714642D01*
X115894880Y-119619404D01*
X115894880Y-119381309D01*
X115942500Y-119286071D01*
X115990119Y-119238452D01*
X116085357Y-119190833D01*
X116180595Y-119190833D01*
X116323452Y-119238452D01*
X116894880Y-119809880D01*
X116894880Y-119190833D01*
%TO.C,J3*%
X175274166Y-131009880D02*
X175274166Y-131724166D01*
X175226547Y-131867023D01*
X175131309Y-131962261D01*
X174988452Y-132009880D01*
X174893214Y-132009880D01*
X175655119Y-131009880D02*
X176274166Y-131009880D01*
X175940833Y-131390833D01*
X176083690Y-131390833D01*
X176178928Y-131438452D01*
X176226547Y-131486071D01*
X176274166Y-131581309D01*
X176274166Y-131819404D01*
X176226547Y-131914642D01*
X176178928Y-131962261D01*
X176083690Y-132009880D01*
X175797976Y-132009880D01*
X175702738Y-131962261D01*
X175655119Y-131914642D01*
%TO.C,H2*%
X118988095Y-131752380D02*
X118988095Y-130752380D01*
X118988095Y-131228571D02*
X119559523Y-131228571D01*
X119559523Y-131752380D02*
X119559523Y-130752380D01*
X119988095Y-130847619D02*
X120035714Y-130800000D01*
X120130952Y-130752380D01*
X120369047Y-130752380D01*
X120464285Y-130800000D01*
X120511904Y-130847619D01*
X120559523Y-130942857D01*
X120559523Y-131038095D01*
X120511904Y-131180952D01*
X119940476Y-131752380D01*
X120559523Y-131752380D01*
%TO.C,U4*%
X191425380Y-104997904D02*
X192234904Y-104997904D01*
X192330142Y-104950285D01*
X192377761Y-104902666D01*
X192425380Y-104807428D01*
X192425380Y-104616952D01*
X192377761Y-104521714D01*
X192330142Y-104474095D01*
X192234904Y-104426476D01*
X191425380Y-104426476D01*
X191758714Y-103521714D02*
X192425380Y-103521714D01*
X191377761Y-103759809D02*
X192092047Y-103997904D01*
X192092047Y-103378857D01*
%TO.C,C1*%
X132082446Y-87106255D02*
X132034827Y-87153874D01*
X131891970Y-87201493D01*
X131796732Y-87201493D01*
X131653874Y-87153874D01*
X131558636Y-87058636D01*
X131511017Y-86963398D01*
X131463398Y-86772922D01*
X131463398Y-86630065D01*
X131511017Y-86439589D01*
X131558636Y-86344351D01*
X131653874Y-86249113D01*
X131796732Y-86201493D01*
X131891970Y-86201493D01*
X132034827Y-86249113D01*
X132082446Y-86296732D01*
X133034827Y-87201493D02*
X132463398Y-87201493D01*
X132749113Y-87201493D02*
X132749113Y-86201493D01*
X132653874Y-86344351D01*
X132558636Y-86439589D01*
X132463398Y-86487208D01*
%TO.C,H3*%
X194488095Y-67752380D02*
X194488095Y-66752380D01*
X194488095Y-67228571D02*
X195059523Y-67228571D01*
X195059523Y-67752380D02*
X195059523Y-66752380D01*
X195440476Y-66752380D02*
X196059523Y-66752380D01*
X195726190Y-67133333D01*
X195869047Y-67133333D01*
X195964285Y-67180952D01*
X196011904Y-67228571D01*
X196059523Y-67323809D01*
X196059523Y-67561904D01*
X196011904Y-67657142D01*
X195964285Y-67704761D01*
X195869047Y-67752380D01*
X195583333Y-67752380D01*
X195488095Y-67704761D01*
X195440476Y-67657142D01*
%TO.C,J_esp0*%
X155229880Y-92345000D02*
X155944166Y-92345000D01*
X156087023Y-92392619D01*
X156182261Y-92487857D01*
X156229880Y-92630714D01*
X156229880Y-92725952D01*
X156325119Y-92106904D02*
X156325119Y-91345000D01*
X156182261Y-90725952D02*
X156229880Y-90821190D01*
X156229880Y-91011666D01*
X156182261Y-91106904D01*
X156087023Y-91154523D01*
X155706071Y-91154523D01*
X155610833Y-91106904D01*
X155563214Y-91011666D01*
X155563214Y-90821190D01*
X155610833Y-90725952D01*
X155706071Y-90678333D01*
X155801309Y-90678333D01*
X155896547Y-91154523D01*
X156182261Y-90297380D02*
X156229880Y-90202142D01*
X156229880Y-90011666D01*
X156182261Y-89916428D01*
X156087023Y-89868809D01*
X156039404Y-89868809D01*
X155944166Y-89916428D01*
X155896547Y-90011666D01*
X155896547Y-90154523D01*
X155848928Y-90249761D01*
X155753690Y-90297380D01*
X155706071Y-90297380D01*
X155610833Y-90249761D01*
X155563214Y-90154523D01*
X155563214Y-90011666D01*
X155610833Y-89916428D01*
X155563214Y-89440238D02*
X156563214Y-89440238D01*
X155610833Y-89440238D02*
X155563214Y-89345000D01*
X155563214Y-89154523D01*
X155610833Y-89059285D01*
X155658452Y-89011666D01*
X155753690Y-88964047D01*
X156039404Y-88964047D01*
X156134642Y-89011666D01*
X156182261Y-89059285D01*
X156229880Y-89154523D01*
X156229880Y-89345000D01*
X156182261Y-89440238D01*
X155229880Y-88345000D02*
X155229880Y-88249761D01*
X155277500Y-88154523D01*
X155325119Y-88106904D01*
X155420357Y-88059285D01*
X155610833Y-88011666D01*
X155848928Y-88011666D01*
X156039404Y-88059285D01*
X156134642Y-88106904D01*
X156182261Y-88154523D01*
X156229880Y-88249761D01*
X156229880Y-88345000D01*
X156182261Y-88440238D01*
X156134642Y-88487857D01*
X156039404Y-88535476D01*
X155848928Y-88583095D01*
X155610833Y-88583095D01*
X155420357Y-88535476D01*
X155325119Y-88487857D01*
X155277500Y-88440238D01*
X155229880Y-88345000D01*
%TO.C,5V1*%
X131640133Y-75140443D02*
X131163942Y-75140443D01*
X131116323Y-75616634D01*
X131163942Y-75569015D01*
X131259180Y-75521396D01*
X131497276Y-75521396D01*
X131592514Y-75569015D01*
X131640133Y-75616634D01*
X131687752Y-75711872D01*
X131687752Y-75949967D01*
X131640133Y-76045205D01*
X131592514Y-76092824D01*
X131497276Y-76140443D01*
X131259180Y-76140443D01*
X131163942Y-76092824D01*
X131116323Y-76045205D01*
X131973466Y-75140443D02*
X132306800Y-76140443D01*
X132640133Y-75140443D01*
X133497276Y-76140443D02*
X132925847Y-76140443D01*
X133211561Y-76140443D02*
X133211561Y-75140443D01*
X133116323Y-75283301D01*
X133021085Y-75378539D01*
X132925847Y-75426158D01*
%TO.C,H4*%
X118988095Y-67752380D02*
X118988095Y-66752380D01*
X118988095Y-67228571D02*
X119559523Y-67228571D01*
X119559523Y-67752380D02*
X119559523Y-66752380D01*
X120464285Y-67085714D02*
X120464285Y-67752380D01*
X120226190Y-66704761D02*
X119988095Y-67419047D01*
X120607142Y-67419047D01*
%TO.C,H1*%
X194488095Y-131752380D02*
X194488095Y-130752380D01*
X194488095Y-131228571D02*
X195059523Y-131228571D01*
X195059523Y-131752380D02*
X195059523Y-130752380D01*
X196059523Y-131752380D02*
X195488095Y-131752380D01*
X195773809Y-131752380D02*
X195773809Y-130752380D01*
X195678571Y-130895238D01*
X195583333Y-130990476D01*
X195488095Y-131038095D01*
%TO.C,J1*%
X144559166Y-116144880D02*
X144559166Y-116859166D01*
X144511547Y-117002023D01*
X144416309Y-117097261D01*
X144273452Y-117144880D01*
X144178214Y-117144880D01*
X145559166Y-117144880D02*
X144987738Y-117144880D01*
X145273452Y-117144880D02*
X145273452Y-116144880D01*
X145178214Y-116287738D01*
X145082976Y-116382976D01*
X144987738Y-116430595D01*
%TO.C,R11*%
X136872380Y-116462607D02*
X136396190Y-116795940D01*
X136872380Y-117034035D02*
X135872380Y-117034035D01*
X135872380Y-116653083D01*
X135920000Y-116557845D01*
X135967619Y-116510226D01*
X136062857Y-116462607D01*
X136205714Y-116462607D01*
X136300952Y-116510226D01*
X136348571Y-116557845D01*
X136396190Y-116653083D01*
X136396190Y-117034035D01*
X136872380Y-115510226D02*
X136872380Y-116081654D01*
X136872380Y-115795940D02*
X135872380Y-115795940D01*
X136015238Y-115891178D01*
X136110476Y-115986416D01*
X136158095Y-116081654D01*
X136872380Y-114557845D02*
X136872380Y-115129273D01*
X136872380Y-114843559D02*
X135872380Y-114843559D01*
X136015238Y-114938797D01*
X136110476Y-115034035D01*
X136158095Y-115129273D01*
%TO.C,J_esp1*%
X169975380Y-91564000D02*
X170689666Y-91564000D01*
X170832523Y-91611619D01*
X170927761Y-91706857D01*
X170975380Y-91849714D01*
X170975380Y-91944952D01*
X171070619Y-91325904D02*
X171070619Y-90564000D01*
X170927761Y-89944952D02*
X170975380Y-90040190D01*
X170975380Y-90230666D01*
X170927761Y-90325904D01*
X170832523Y-90373523D01*
X170451571Y-90373523D01*
X170356333Y-90325904D01*
X170308714Y-90230666D01*
X170308714Y-90040190D01*
X170356333Y-89944952D01*
X170451571Y-89897333D01*
X170546809Y-89897333D01*
X170642047Y-90373523D01*
X170927761Y-89516380D02*
X170975380Y-89421142D01*
X170975380Y-89230666D01*
X170927761Y-89135428D01*
X170832523Y-89087809D01*
X170784904Y-89087809D01*
X170689666Y-89135428D01*
X170642047Y-89230666D01*
X170642047Y-89373523D01*
X170594428Y-89468761D01*
X170499190Y-89516380D01*
X170451571Y-89516380D01*
X170356333Y-89468761D01*
X170308714Y-89373523D01*
X170308714Y-89230666D01*
X170356333Y-89135428D01*
X170308714Y-88659238D02*
X171308714Y-88659238D01*
X170356333Y-88659238D02*
X170308714Y-88564000D01*
X170308714Y-88373523D01*
X170356333Y-88278285D01*
X170403952Y-88230666D01*
X170499190Y-88183047D01*
X170784904Y-88183047D01*
X170880142Y-88230666D01*
X170927761Y-88278285D01*
X170975380Y-88373523D01*
X170975380Y-88564000D01*
X170927761Y-88659238D01*
X170975380Y-87230666D02*
X170975380Y-87802095D01*
X170975380Y-87516380D02*
X169975380Y-87516380D01*
X170118238Y-87611619D01*
X170213476Y-87706857D01*
X170261095Y-87802095D01*
D11*
%TO.C,J4*%
X120000000Y-106000000D02*
X117000000Y-106000000D01*
X117380000Y-105620000D02*
X117380000Y-90380000D01*
X117380000Y-90380000D02*
X130120000Y-90380000D01*
X117000000Y-106000000D02*
X117000000Y-103000000D01*
X117380000Y-105620000D02*
X117380000Y-90380000D01*
X130120000Y-105620000D02*
X130120000Y-90380000D01*
X117380000Y-105620000D02*
X130120000Y-105620000D01*
X117380000Y-90380000D02*
X130120000Y-90380000D01*
X117380000Y-105620000D02*
X130120000Y-105620000D01*
X130120000Y-105620000D02*
X130120000Y-90380000D01*
%TO.C,J2*%
X117522500Y-122477500D02*
X117522500Y-107237500D01*
X120142500Y-122857500D02*
X117142500Y-122857500D01*
X117522500Y-122477500D02*
X130262500Y-122477500D01*
X117522500Y-107237500D02*
X130262500Y-107237500D01*
X117522500Y-107237500D02*
X130262500Y-107237500D01*
X117522500Y-122477500D02*
X117522500Y-107237500D01*
X130262500Y-122477500D02*
X130262500Y-107237500D01*
X117142500Y-122857500D02*
X117142500Y-119857500D01*
X130262500Y-122477500D02*
X130262500Y-107237500D01*
X117522500Y-122477500D02*
X130262500Y-122477500D01*
%TO.C,J3*%
X178227500Y-117737500D02*
X152987500Y-117737500D01*
X152987500Y-130477500D02*
X152987500Y-117737500D01*
X152987500Y-130477500D02*
X152987500Y-117737500D01*
X178227500Y-130477500D02*
X152987500Y-130477500D01*
X178227500Y-117737500D02*
X152987500Y-117737500D01*
X178227500Y-130477500D02*
X178227500Y-117737500D01*
X178607500Y-127857500D02*
X178607500Y-130857500D01*
X178227500Y-130477500D02*
X178227500Y-117737500D01*
X178227500Y-130477500D02*
X152987500Y-130477500D01*
X178607500Y-130857500D02*
X175607500Y-130857500D01*
%TO.C,U4*%
X195947000Y-90474000D02*
X195947000Y-90474000D01*
X195947000Y-90474000D02*
X195947000Y-95808000D01*
X196523000Y-90144000D02*
X196523000Y-119344000D01*
X185279000Y-95808000D02*
X185279000Y-90474000D01*
X193153000Y-90728000D02*
X193153000Y-90728000D01*
X181073000Y-90144000D02*
X196523000Y-90144000D01*
X185279000Y-90474000D02*
X185279000Y-90474000D01*
X195439000Y-93014000D02*
X193153000Y-93014000D01*
X193153000Y-93014000D02*
X193153000Y-90728000D01*
X195947000Y-95808000D02*
X185279000Y-95808000D01*
X196523000Y-90144000D02*
X196523000Y-90144000D01*
X185279000Y-90474000D02*
X195947000Y-90474000D01*
X196523000Y-119344000D02*
X181073000Y-119344000D01*
X181073000Y-119344000D02*
X181073000Y-90144000D01*
%TO.C,C1*%
X129768113Y-83804113D02*
X129768113Y-82194113D01*
X131008113Y-81959113D02*
X131008113Y-80731113D01*
X130608113Y-81959113D02*
X130608113Y-80995113D01*
X131729113Y-85527113D02*
X131729113Y-84039113D01*
X131689113Y-85519113D02*
X131689113Y-84039113D01*
X130528113Y-84936113D02*
X130528113Y-84039113D01*
X130968113Y-81959113D02*
X130968113Y-80752113D01*
X130368113Y-84784113D02*
X130368113Y-84039113D01*
X129968113Y-84250113D02*
X129968113Y-84039113D01*
X130088113Y-81959113D02*
X130088113Y-81556113D01*
X131969113Y-81959113D02*
X131969113Y-80434113D01*
X131528113Y-81959113D02*
X131528113Y-80519113D01*
X131849113Y-85549113D02*
X131849113Y-84039113D01*
X131729113Y-81959113D02*
X131729113Y-80471113D01*
X131368113Y-85427113D02*
X131368113Y-84039113D01*
X130928113Y-81959113D02*
X130928113Y-80775113D01*
X131328113Y-81959113D02*
X131328113Y-80585113D01*
X131929113Y-85560113D02*
X131929113Y-84039113D01*
X130128113Y-84499113D02*
X130128113Y-84039113D01*
X131849113Y-81959113D02*
X131849113Y-80449113D01*
X131769113Y-85535113D02*
X131769113Y-84039113D01*
X131569113Y-85490113D02*
X131569113Y-84039113D01*
X131288113Y-81959113D02*
X131288113Y-80601113D01*
X130608113Y-85003113D02*
X130608113Y-84039113D01*
X130488113Y-81959113D02*
X130488113Y-81098113D01*
X130808113Y-85148113D02*
X130808113Y-84039113D01*
X130768113Y-85121113D02*
X130768113Y-84039113D01*
X131448113Y-85454113D02*
X131448113Y-84039113D01*
X132249113Y-85579113D02*
X132249113Y-80419113D01*
X132129113Y-85577113D02*
X132129113Y-80421113D01*
X132089113Y-85575113D02*
X132089113Y-80423113D01*
X131328113Y-85413113D02*
X131328113Y-84039113D01*
X132169113Y-85578113D02*
X132169113Y-80420113D01*
X129848113Y-84010113D02*
X129848113Y-81988113D01*
X130328113Y-81959113D02*
X130328113Y-81256113D01*
X130688113Y-85064113D02*
X130688113Y-84039113D01*
X131488113Y-85467113D02*
X131488113Y-84039113D01*
X131008113Y-85267113D02*
X131008113Y-84039113D01*
X130368113Y-81959113D02*
X130368113Y-81214113D01*
X130168113Y-81959113D02*
X130168113Y-81445113D01*
X130448113Y-81959113D02*
X130448113Y-81135113D01*
X130888113Y-81959113D02*
X130888113Y-80799113D01*
X131528113Y-85479113D02*
X131528113Y-84039113D01*
X131929113Y-81959113D02*
X131929113Y-80438113D01*
X130208113Y-81959113D02*
X130208113Y-81394113D01*
X130288113Y-81959113D02*
X130288113Y-81300113D01*
X134803888Y-84724113D02*
X134803888Y-84224113D01*
X131649113Y-85510113D02*
X131649113Y-84039113D01*
X131368113Y-81959113D02*
X131368113Y-80571113D01*
X130728113Y-81959113D02*
X130728113Y-80904113D01*
X131769113Y-81959113D02*
X131769113Y-80463113D01*
X131889113Y-85555113D02*
X131889113Y-84039113D01*
X131128113Y-81959113D02*
X131128113Y-80670113D01*
X130128113Y-81959113D02*
X130128113Y-81499113D01*
X130448113Y-84863113D02*
X130448113Y-84039113D01*
X131248113Y-85381113D02*
X131248113Y-84039113D01*
X130568113Y-84970113D02*
X130568113Y-84039113D01*
X130168113Y-84553113D02*
X130168113Y-84039113D01*
X130928113Y-85223113D02*
X130928113Y-84039113D01*
X129808113Y-83914113D02*
X129808113Y-82084113D01*
X129928113Y-84177113D02*
X129928113Y-81821113D01*
X130408113Y-84825113D02*
X130408113Y-84039113D01*
X131969113Y-85564113D02*
X131969113Y-84039113D01*
X130328113Y-84742113D02*
X130328113Y-84039113D01*
X131408113Y-85441113D02*
X131408113Y-84039113D01*
X131088113Y-85309113D02*
X131088113Y-84039113D01*
X130528113Y-81959113D02*
X130528113Y-81062113D01*
X130568113Y-81959113D02*
X130568113Y-81028113D01*
X130208113Y-84604113D02*
X130208113Y-84039113D01*
X132009113Y-85568113D02*
X132009113Y-84039113D01*
X130888113Y-85199113D02*
X130888113Y-84039113D01*
X129888113Y-84097113D02*
X129888113Y-81901113D01*
X129728113Y-83676113D02*
X129728113Y-82322113D01*
X132209113Y-85579113D02*
X132209113Y-80419113D01*
X130848113Y-81959113D02*
X130848113Y-80824113D01*
X130688113Y-81959113D02*
X130688113Y-80934113D01*
X131208113Y-81959113D02*
X131208113Y-80634113D01*
X130288113Y-84698113D02*
X130288113Y-84039113D01*
X131809113Y-85542113D02*
X131809113Y-84039113D01*
X131128113Y-85328113D02*
X131128113Y-84039113D01*
X130008113Y-81959113D02*
X130008113Y-81680113D01*
X131689113Y-81959113D02*
X131689113Y-80479113D01*
X131889113Y-81959113D02*
X131889113Y-80443113D01*
X130248113Y-81959113D02*
X130248113Y-81346113D01*
X131048113Y-81959113D02*
X131048113Y-80709113D01*
X131168113Y-81959113D02*
X131168113Y-80651113D01*
X130808113Y-81959113D02*
X130808113Y-80850113D01*
X132009113Y-81959113D02*
X132009113Y-80430113D01*
X131168113Y-85347113D02*
X131168113Y-84039113D01*
X131448113Y-81959113D02*
X131448113Y-80544113D01*
X130048113Y-84382113D02*
X130048113Y-84039113D01*
X131408113Y-81959113D02*
X131408113Y-80557113D01*
X131609113Y-81959113D02*
X131609113Y-80498113D01*
X130728113Y-85094113D02*
X130728113Y-84039113D01*
X130848113Y-85174113D02*
X130848113Y-84039113D01*
X130488113Y-84900113D02*
X130488113Y-84039113D01*
X131208113Y-85364113D02*
X131208113Y-84039113D01*
X131088113Y-81959113D02*
X131088113Y-80689113D01*
X130648113Y-85034113D02*
X130648113Y-84039113D01*
X131649113Y-81959113D02*
X131649113Y-80488113D01*
X130048113Y-81959113D02*
X130048113Y-81616113D01*
X132049113Y-85572113D02*
X132049113Y-80426113D01*
X131248113Y-81959113D02*
X131248113Y-80617113D01*
X131609113Y-85500113D02*
X131609113Y-84039113D01*
X129688113Y-83517113D02*
X129688113Y-82481113D01*
X131288113Y-85397113D02*
X131288113Y-84039113D01*
X131809113Y-81959113D02*
X131809113Y-80456113D01*
X130008113Y-84318113D02*
X130008113Y-84039113D01*
X130088113Y-84442113D02*
X130088113Y-84039113D01*
X130968113Y-85246113D02*
X130968113Y-84039113D01*
X130768113Y-81959113D02*
X130768113Y-80877113D01*
X130248113Y-84652113D02*
X130248113Y-84039113D01*
X131569113Y-81959113D02*
X131569113Y-80508113D01*
X130648113Y-81959113D02*
X130648113Y-80964113D01*
X130408113Y-81959113D02*
X130408113Y-81173113D01*
X131048113Y-85289113D02*
X131048113Y-84039113D01*
X135053888Y-84474113D02*
X134553888Y-84474113D01*
X131488113Y-81959113D02*
X131488113Y-80531113D01*
X129648113Y-83283113D02*
X129648113Y-82715113D01*
X129968113Y-81959113D02*
X129968113Y-81748113D01*
X134869113Y-82999113D02*
G75*
G03*
X134869113Y-82999113I-2620000J0D01*
G01*
%TO.C,J_esp0*%
X147635000Y-110275000D02*
X148615000Y-110275000D01*
X148615000Y-110275000D02*
X148615000Y-110145000D01*
X153255000Y-69195000D02*
X153255000Y-71605000D01*
X150845000Y-69195000D02*
X153255000Y-69195000D01*
X147635000Y-93805000D02*
X147635000Y-110275000D01*
X147635000Y-69495000D02*
X147635000Y-85965000D01*
X146135000Y-93805000D02*
X147635000Y-93805000D01*
X152955000Y-110275000D02*
X152955000Y-69495000D01*
X148615000Y-110145000D02*
X150425000Y-110145000D01*
X148615000Y-69495000D02*
X147635000Y-69495000D01*
X150425000Y-69495000D02*
X150425000Y-69625000D01*
X146135000Y-85965000D02*
X146135000Y-93805000D01*
X150425000Y-69625000D02*
X148615000Y-69625000D01*
X152955000Y-69495000D02*
X150425000Y-69495000D01*
X150425000Y-110275000D02*
X152955000Y-110275000D01*
X148615000Y-69625000D02*
X148615000Y-69495000D01*
X147635000Y-85965000D02*
X146135000Y-85965000D01*
X150425000Y-110145000D02*
X150425000Y-110275000D01*
%TO.C,5V1*%
X127171800Y-68338063D02*
X126671800Y-68088063D01*
X137521800Y-79988063D02*
X137521800Y-67388063D01*
X126671800Y-69988063D02*
X126671800Y-70038063D01*
X126671800Y-70038063D02*
X127171800Y-69788063D01*
X126671800Y-68088063D02*
X126671800Y-69988063D01*
X127171800Y-69788063D02*
X127171800Y-75188063D01*
X127171800Y-75188063D02*
X126671800Y-74888063D01*
X126671800Y-79988063D02*
X137521800Y-79988063D01*
X126671800Y-74888063D02*
X126671800Y-79988063D01*
X137521800Y-67388063D02*
X127171800Y-67388063D01*
X127171800Y-67388063D02*
X127171800Y-68338063D01*
%TO.C,J1*%
X141892500Y-120392500D02*
X141892500Y-117392500D01*
X152512500Y-117772500D02*
X152512500Y-130512500D01*
X152512500Y-117772500D02*
X152512500Y-130512500D01*
X142272500Y-130512500D02*
X152512500Y-130512500D01*
X142272500Y-117772500D02*
X152512500Y-117772500D01*
X142272500Y-117772500D02*
X152512500Y-117772500D01*
X142272500Y-117772500D02*
X142272500Y-130512500D01*
X142272500Y-117772500D02*
X142272500Y-130512500D01*
X141892500Y-117392500D02*
X144892500Y-117392500D01*
X142272500Y-130512500D02*
X152512500Y-130512500D01*
%TO.C,R11*%
X134500000Y-115469750D02*
X134500000Y-116089750D01*
X135420000Y-114549750D02*
G75*
G03*
X135420000Y-114549750I-920000J0D01*
G01*
%TO.C,J_esp1*%
X174285500Y-110654000D02*
X171875500Y-110654000D01*
X174705500Y-110224000D02*
X176515500Y-110224000D01*
X172175500Y-69574000D02*
X172175500Y-110354000D01*
X176515500Y-110354000D02*
X177495500Y-110354000D01*
X177495500Y-93884000D02*
X178995500Y-93884000D01*
X174705500Y-110354000D02*
X174705500Y-110224000D01*
X178995500Y-86044000D02*
X177495500Y-86044000D01*
X176515500Y-110224000D02*
X176515500Y-110354000D01*
X174705500Y-69574000D02*
X172175500Y-69574000D01*
X177495500Y-110354000D02*
X177495500Y-93884000D01*
X176515500Y-69574000D02*
X176515500Y-69704000D01*
X177495500Y-86044000D02*
X177495500Y-69574000D01*
X171875500Y-110654000D02*
X171875500Y-108244000D01*
X177495500Y-69574000D02*
X176515500Y-69574000D01*
X176515500Y-69704000D02*
X174705500Y-69704000D01*
X178995500Y-93884000D02*
X178995500Y-86044000D01*
X174705500Y-69704000D02*
X174705500Y-69574000D01*
X172175500Y-110354000D02*
X174705500Y-110354000D01*
%TD*%
M02*
