M48
; DRILL file {KiCad 7.0.3} date mar 13 jun 2023 13:40:30
; FORMAT={-:-/ absolute / inch / decimal}
; #@! TF.CreationDate,2023-06-13T13:40:30-05:00
; #@! TF.GenerationSoftware,Kicad,Pcbnew,7.0.3
; #@! TF.FileFunction,Plated,1,2,PTH
FMAT,2
INCH
; #@! TA.AperFunction,Plated,PTH,ViaDrill
T1C0.0276
; #@! TA.AperFunction,Plated,PTH,ComponentDrill
T2C0.0276
; #@! TA.AperFunction,Plated,PTH,ComponentDrill
T3C0.0300
; #@! TA.AperFunction,Plated,PTH,ComponentDrill
T4C0.0315
; #@! TA.AperFunction,Plated,PTH,ComponentDrill
T5C0.0394
; #@! TA.AperFunction,Plated,PTH,ComponentDrill
T6C0.0429
; #@! TA.AperFunction,Plated,PTH,ComponentDrill
T7C0.0433
; #@! TA.AperFunction,Plated,PTH,ComponentDrill
T8C0.0512
; #@! TA.AperFunction,Plated,PTH,ComponentDrill
T9C0.0520
; #@! TA.AperFunction,Plated,PTH,ComponentDrill
T10C0.0591
; #@! TA.AperFunction,Plated,PTH,ComponentDrill
T11C0.1063
; #@! TA.AperFunction,Plated,PTH,ComponentDrill
T12C0.1260
%
G90
G05
T1
X2.12Y-4.93
X2.64Y-2.7
X2.66Y-2.27
X2.69Y-4.93
X2.79Y-4.08
X2.9Y-3.49
X2.92Y-4.93
X3.14Y-1.45
X3.42Y-3.19
X3.42Y-3.54
X3.45Y-4.93
X3.5Y-2.3
X3.6Y-2.54
X3.6Y-2.77
X3.61Y-3.8459
X3.7Y-3.62
X3.7Y-4.93
X3.72Y-3.41
X3.78Y-2.94
X3.86Y-2.44
X4.2Y-3.91
X4.22Y-3.79
X4.38Y-3.4
X4.41Y-3.24
X4.55Y-2.12
X4.55Y-3.4
X4.67Y-3.13
X4.9Y-3.28
X5.13Y-2.31
X5.14Y-4.93
X5.36Y-2.89
X5.36Y-2.99
X5.38Y-3.58
X5.58Y-4.32
T2
X2.0Y-4.928
X2.0Y-5.128
X2.3Y-4.2
X2.3Y-4.4
X2.4Y-4.3
X2.6469Y-4.107
X2.6469Y-4.307
X2.7542Y-3.1948
X2.7542Y-3.2948
X2.81Y-4.9298
X2.81Y-5.1298
X3.16Y-4.2
X3.16Y-4.4
X3.26Y-4.3
X3.5269Y-4.097
X3.5269Y-4.297
X3.57Y-4.9298
X3.57Y-5.1298
X4.03Y-4.2
X4.03Y-4.4
X4.13Y-4.3
X4.3669Y-4.107
X4.3669Y-4.307
X4.81Y-4.2
X4.81Y-4.4
X4.91Y-4.3
X5.19Y-4.102
X5.19Y-4.302
X5.27Y-4.928
X5.27Y-5.128
T3
X2.268Y-5.025
X2.268Y-5.1266
X2.268Y-5.53
X2.268Y-5.815
X3.0731Y-5.03
X3.0731Y-5.1316
X3.0731Y-5.535
X3.0731Y-5.82
X3.8531Y-5.035
X3.8531Y-5.1366
X3.8531Y-5.54
X3.8531Y-5.825
T4
X3.3446Y-1.3426
X3.3446Y-1.441
X3.6446Y-1.3408
X3.6446Y-1.4393
T5
X4.9082Y-2.7915
X4.9082Y-2.8915
X4.9082Y-2.9915
X4.9082Y-3.0915
X5.0082Y-2.7915
X5.0082Y-2.8915
X5.0082Y-2.9915
X5.0082Y-3.0915
X5.48Y-5.2077
X5.9524Y-5.2077
T6
X3.1762Y-2.1418
X3.1762Y-2.2418
X3.1762Y-2.3418
X3.1762Y-2.4418
X3.1762Y-2.5418
X3.1762Y-2.6418
X3.1762Y-2.7418
X3.1762Y-2.8418
X3.1762Y-2.9418
X3.1762Y-3.0418
X3.1762Y-3.1418
X3.1762Y-3.2418
X3.1762Y-3.3418
X3.1762Y-3.4418
X3.1762Y-3.5418
X4.1423Y-2.1387
X4.1423Y-2.2387
X4.1423Y-2.3387
X4.1423Y-2.4387
X4.1423Y-2.5387
X4.1423Y-2.6387
X4.1423Y-2.7387
X4.1423Y-2.8387
X4.1423Y-2.9387
X4.1423Y-3.0387
X4.1423Y-3.1387
X4.1423Y-3.2387
X4.1423Y-3.3387
X4.1423Y-3.4387
X4.1423Y-3.5387
T7
X2.4748Y-4.72
X2.4748Y-5.12
X3.31Y-4.73
X3.31Y-5.13
X4.1Y-4.74
X4.1Y-5.14
X5.01Y-4.8
X5.01Y-5.2
T8
X5.478Y-5.69
X5.7142Y-5.1309
X5.9524Y-5.688
T9
X2.26Y-6.27
X2.4569Y-6.27
X3.0731Y-6.28
X3.27Y-6.28
X3.8531Y-6.28
X4.0046Y-1.3918
X4.05Y-6.28
X4.2015Y-1.3918
X4.4731Y-6.28
X4.67Y-6.28
X5.1443Y-6.3
X5.3411Y-6.3
X5.7411Y-6.3
X5.938Y-6.3
T10
X2.31Y-1.71
X2.31Y-1.9069
X2.3185Y-2.3091
X2.3185Y-2.506
X2.3185Y-2.7028
X2.3185Y-2.9491
X2.3185Y-3.146
X2.3185Y-3.3428
T11
X2.1361Y-1.32
X2.69Y-5.8
X4.92Y-5.8
X6.04Y-1.35
T12
X2.14Y-3.78
X6.0252Y-3.79
T0
M30
