%TF.GenerationSoftware,KiCad,Pcbnew,6.0.11+dfsg-1*%
%TF.CreationDate,2023-03-14T15:36:54-05:00*%
%TF.ProjectId,water_tank_module,77617465-725f-4746-916e-6b5f6d6f6475,rev?*%
%TF.SameCoordinates,Original*%
%TF.FileFunction,Soldermask,Bot*%
%TF.FilePolarity,Negative*%
%FSLAX46Y46*%
G04 Gerber Fmt 4.6, Leading zero omitted, Abs format (unit mm)*
G04 Created by KiCad (PCBNEW 6.0.11+dfsg-1) date 2023-03-14 15:36:54*
%MOMM*%
%LPD*%
G01*
G04 APERTURE LIST*
G04 Aperture macros list*
%AMRoundRect*
0 Rectangle with rounded corners*
0 $1 Rounding radius*
0 $2 $3 $4 $5 $6 $7 $8 $9 X,Y pos of 4 corners*
0 Add a 4 corners polygon primitive as box body*
4,1,4,$2,$3,$4,$5,$6,$7,$8,$9,$2,$3,0*
0 Add four circle primitives for the rounded corners*
1,1,$1+$1,$2,$3*
1,1,$1+$1,$4,$5*
1,1,$1+$1,$6,$7*
1,1,$1+$1,$8,$9*
0 Add four rect primitives between the rounded corners*
20,1,$1+$1,$2,$3,$4,$5,0*
20,1,$1+$1,$4,$5,$6,$7,0*
20,1,$1+$1,$6,$7,$8,$9,0*
20,1,$1+$1,$8,$9,$2,$3,0*%
G04 Aperture macros list end*
%ADD10C,5.400000*%
%ADD11O,3.000000X1.950000*%
%ADD12RoundRect,0.286765X-1.213235X0.688235X-1.213235X-0.688235X1.213235X-0.688235X1.213235X0.688235X0*%
%ADD13C,1.700000*%
%ADD14R,2.000000X2.000000*%
%ADD15O,1.700000X3.000000*%
%ADD16RoundRect,0.250000X-0.600000X-1.250000X0.600000X-1.250000X0.600000X1.250000X-0.600000X1.250000X0*%
%ADD17C,1.900000*%
%ADD18R,1.800000X1.800000*%
%ADD19R,2.540000X1.740000*%
%ADD20RoundRect,0.250000X-1.020000X0.620000X-1.020000X-0.620000X1.020000X-0.620000X1.020000X0.620000X0*%
%ADD21O,3.000000X3.960000*%
%ADD22R,3.000000X3.960000*%
%ADD23O,2.000000X2.000000*%
%ADD24C,2.000000*%
%ADD25RoundRect,0.250000X1.020000X-0.620000X1.020000X0.620000X-1.020000X0.620000X-1.020000X-0.620000X0*%
G04 APERTURE END LIST*
D10*
%TO.C,H2*%
X64897000Y-80391000D03*
%TD*%
D11*
%TO.C,J_EC1*%
X64888000Y-59949750D03*
X64888000Y-57449750D03*
D12*
X64888000Y-54949750D03*
%TD*%
D13*
%TO.C,U4*%
X121703000Y-49484000D03*
D14*
X121703000Y-46944000D03*
X124243000Y-49484000D03*
X124243000Y-46944000D03*
X126783000Y-49484000D03*
X126783000Y-46944000D03*
X129323000Y-49484000D03*
X129323000Y-46944000D03*
%TD*%
D15*
%TO.C,J1*%
X103405000Y-78948000D03*
X100905000Y-78948000D03*
X98405000Y-78948000D03*
X95905000Y-78948000D03*
X93405000Y-78948000D03*
D16*
X90905000Y-78948000D03*
%TD*%
D17*
%TO.C,C1*%
X70571113Y-39486250D03*
D18*
X73071113Y-39486250D03*
%TD*%
D11*
%TO.C,J_DS18*%
X64888000Y-72149750D03*
X64888000Y-69649750D03*
D12*
X64888000Y-67149750D03*
%TD*%
D10*
%TO.C,H3*%
X96774000Y-27559000D03*
%TD*%
D19*
%TO.C,J_esp0*%
X85195000Y-62865000D03*
X85195000Y-60325000D03*
X85195000Y-57785000D03*
X85195000Y-55245000D03*
X85195000Y-52705000D03*
X85195000Y-50165000D03*
X85195000Y-47625000D03*
X85195000Y-45085000D03*
X85195000Y-42545000D03*
X85195000Y-40005000D03*
X85195000Y-37465000D03*
X85195000Y-34925000D03*
X85195000Y-32385000D03*
X85195000Y-29845000D03*
D20*
X85195000Y-27305000D03*
%TD*%
D21*
%TO.C,5V1*%
X69453000Y-30590250D03*
D22*
X74453000Y-30590250D03*
%TD*%
D10*
%TO.C,H1*%
X127000000Y-80391000D03*
%TD*%
D23*
%TO.C,R11*%
X69088000Y-72289750D03*
D24*
X69088000Y-69749750D03*
%TD*%
D19*
%TO.C,J_esp1*%
X109735500Y-27384000D03*
X109735500Y-29924000D03*
X109735500Y-32464000D03*
X109735500Y-35004000D03*
X109735500Y-37544000D03*
X109735500Y-40084000D03*
X109735500Y-42624000D03*
X109735500Y-45164000D03*
X109735500Y-47704000D03*
X109735500Y-50244000D03*
X109735500Y-52784000D03*
X109735500Y-55324000D03*
X109735500Y-57864000D03*
X109735500Y-60404000D03*
D25*
X109735500Y-62944000D03*
%TD*%
M02*
