%TF.GenerationSoftware,KiCad,Pcbnew,6.0.11+dfsg-1*%
%TF.CreationDate,2023-03-06T11:02:43-05:00*%
%TF.ProjectId,water_tank_module,77617465-725f-4746-916e-6b5f6d6f6475,rev?*%
%TF.SameCoordinates,Original*%
%TF.FileFunction,Legend,Bot*%
%TF.FilePolarity,Positive*%
%FSLAX46Y46*%
G04 Gerber Fmt 4.6, Leading zero omitted, Abs format (unit mm)*
G04 Created by KiCad (PCBNEW 6.0.11+dfsg-1) date 2023-03-06 11:02:43*
%MOMM*%
%LPD*%
G01*
G04 APERTURE LIST*
%ADD10C,0.150000*%
%ADD11C,0.120000*%
G04 APERTURE END LIST*
D10*
%TO.C,J_EC1*%
X61777380Y-57715333D02*
X62491666Y-57715333D01*
X62634523Y-57667714D01*
X62729761Y-57572476D01*
X62777380Y-57429619D01*
X62777380Y-57334380D01*
X62872619Y-57953428D02*
X62872619Y-58715333D01*
X62253571Y-58953428D02*
X62253571Y-59286761D01*
X62777380Y-59429619D02*
X62777380Y-58953428D01*
X61777380Y-58953428D01*
X61777380Y-59429619D01*
X62682142Y-60429619D02*
X62729761Y-60382000D01*
X62777380Y-60239142D01*
X62777380Y-60143904D01*
X62729761Y-60001047D01*
X62634523Y-59905809D01*
X62539285Y-59858190D01*
X62348809Y-59810571D01*
X62205952Y-59810571D01*
X62015476Y-59858190D01*
X61920238Y-59905809D01*
X61825000Y-60001047D01*
X61777380Y-60143904D01*
X61777380Y-60239142D01*
X61825000Y-60382000D01*
X61872619Y-60429619D01*
X62777380Y-61382000D02*
X62777380Y-60810571D01*
X62777380Y-61096285D02*
X61777380Y-61096285D01*
X61920238Y-61001047D01*
X62015476Y-60905809D01*
X62063095Y-60810571D01*
%TO.C,U4*%
X107146904Y-55314380D02*
X107146904Y-56123904D01*
X107099285Y-56219142D01*
X107051666Y-56266761D01*
X106956428Y-56314380D01*
X106765952Y-56314380D01*
X106670714Y-56266761D01*
X106623095Y-56219142D01*
X106575476Y-56123904D01*
X106575476Y-55314380D01*
X105670714Y-55647714D02*
X105670714Y-56314380D01*
X105908809Y-55266761D02*
X106146904Y-55981047D01*
X105527857Y-55981047D01*
%TO.C,C1*%
X50358553Y-43985142D02*
X50406172Y-44032761D01*
X50549029Y-44080380D01*
X50644267Y-44080380D01*
X50787125Y-44032761D01*
X50882363Y-43937523D01*
X50929982Y-43842285D01*
X50977601Y-43651809D01*
X50977601Y-43508952D01*
X50929982Y-43318476D01*
X50882363Y-43223238D01*
X50787125Y-43128000D01*
X50644267Y-43080380D01*
X50549029Y-43080380D01*
X50406172Y-43128000D01*
X50358553Y-43175619D01*
X49406172Y-44080380D02*
X49977601Y-44080380D01*
X49691887Y-44080380D02*
X49691887Y-43080380D01*
X49787125Y-43223238D01*
X49882363Y-43318476D01*
X49977601Y-43366095D01*
%TO.C,J_DS18*%
X61577380Y-69215333D02*
X62291666Y-69215333D01*
X62434523Y-69167714D01*
X62529761Y-69072476D01*
X62577380Y-68929619D01*
X62577380Y-68834380D01*
X62672619Y-69453428D02*
X62672619Y-70215333D01*
X62577380Y-70453428D02*
X61577380Y-70453428D01*
X61577380Y-70691523D01*
X61625000Y-70834380D01*
X61720238Y-70929619D01*
X61815476Y-70977238D01*
X62005952Y-71024857D01*
X62148809Y-71024857D01*
X62339285Y-70977238D01*
X62434523Y-70929619D01*
X62529761Y-70834380D01*
X62577380Y-70691523D01*
X62577380Y-70453428D01*
X62529761Y-71405809D02*
X62577380Y-71548666D01*
X62577380Y-71786761D01*
X62529761Y-71882000D01*
X62482142Y-71929619D01*
X62386904Y-71977238D01*
X62291666Y-71977238D01*
X62196428Y-71929619D01*
X62148809Y-71882000D01*
X62101190Y-71786761D01*
X62053571Y-71596285D01*
X62005952Y-71501047D01*
X61958333Y-71453428D01*
X61863095Y-71405809D01*
X61767857Y-71405809D01*
X61672619Y-71453428D01*
X61625000Y-71501047D01*
X61577380Y-71596285D01*
X61577380Y-71834380D01*
X61625000Y-71977238D01*
X62577380Y-72929619D02*
X62577380Y-72358190D01*
X62577380Y-72643904D02*
X61577380Y-72643904D01*
X61720238Y-72548666D01*
X61815476Y-72453428D01*
X61863095Y-72358190D01*
X62005952Y-73501047D02*
X61958333Y-73405809D01*
X61910714Y-73358190D01*
X61815476Y-73310571D01*
X61767857Y-73310571D01*
X61672619Y-73358190D01*
X61625000Y-73405809D01*
X61577380Y-73501047D01*
X61577380Y-73691523D01*
X61625000Y-73786761D01*
X61672619Y-73834380D01*
X61767857Y-73882000D01*
X61815476Y-73882000D01*
X61910714Y-73834380D01*
X61958333Y-73786761D01*
X62005952Y-73691523D01*
X62005952Y-73501047D01*
X62053571Y-73405809D01*
X62101190Y-73358190D01*
X62196428Y-73310571D01*
X62386904Y-73310571D01*
X62482142Y-73358190D01*
X62529761Y-73405809D01*
X62577380Y-73501047D01*
X62577380Y-73691523D01*
X62529761Y-73786761D01*
X62482142Y-73834380D01*
X62386904Y-73882000D01*
X62196428Y-73882000D01*
X62101190Y-73834380D01*
X62053571Y-73786761D01*
X62005952Y-73691523D01*
%TO.C,J_esp0*%
X63202619Y-47642000D02*
X62488333Y-47642000D01*
X62345476Y-47689619D01*
X62250238Y-47784857D01*
X62202619Y-47927714D01*
X62202619Y-48022952D01*
X62107380Y-47403904D02*
X62107380Y-46642000D01*
X62250238Y-46022952D02*
X62202619Y-46118190D01*
X62202619Y-46308666D01*
X62250238Y-46403904D01*
X62345476Y-46451523D01*
X62726428Y-46451523D01*
X62821666Y-46403904D01*
X62869285Y-46308666D01*
X62869285Y-46118190D01*
X62821666Y-46022952D01*
X62726428Y-45975333D01*
X62631190Y-45975333D01*
X62535952Y-46451523D01*
X62250238Y-45594380D02*
X62202619Y-45499142D01*
X62202619Y-45308666D01*
X62250238Y-45213428D01*
X62345476Y-45165809D01*
X62393095Y-45165809D01*
X62488333Y-45213428D01*
X62535952Y-45308666D01*
X62535952Y-45451523D01*
X62583571Y-45546761D01*
X62678809Y-45594380D01*
X62726428Y-45594380D01*
X62821666Y-45546761D01*
X62869285Y-45451523D01*
X62869285Y-45308666D01*
X62821666Y-45213428D01*
X62869285Y-44737238D02*
X61869285Y-44737238D01*
X62821666Y-44737238D02*
X62869285Y-44642000D01*
X62869285Y-44451523D01*
X62821666Y-44356285D01*
X62774047Y-44308666D01*
X62678809Y-44261047D01*
X62393095Y-44261047D01*
X62297857Y-44308666D01*
X62250238Y-44356285D01*
X62202619Y-44451523D01*
X62202619Y-44642000D01*
X62250238Y-44737238D01*
X63202619Y-43642000D02*
X63202619Y-43546761D01*
X63155000Y-43451523D01*
X63107380Y-43403904D01*
X63012142Y-43356285D01*
X62821666Y-43308666D01*
X62583571Y-43308666D01*
X62393095Y-43356285D01*
X62297857Y-43403904D01*
X62250238Y-43451523D01*
X62202619Y-43546761D01*
X62202619Y-43642000D01*
X62250238Y-43737238D01*
X62297857Y-43784857D01*
X62393095Y-43832476D01*
X62583571Y-43880095D01*
X62821666Y-43880095D01*
X63012142Y-43832476D01*
X63107380Y-43784857D01*
X63155000Y-43737238D01*
X63202619Y-43642000D01*
%TO.C,5V1*%
X50791666Y-32434380D02*
X51267857Y-32434380D01*
X51315476Y-32910571D01*
X51267857Y-32862952D01*
X51172619Y-32815333D01*
X50934523Y-32815333D01*
X50839285Y-32862952D01*
X50791666Y-32910571D01*
X50744047Y-33005809D01*
X50744047Y-33243904D01*
X50791666Y-33339142D01*
X50839285Y-33386761D01*
X50934523Y-33434380D01*
X51172619Y-33434380D01*
X51267857Y-33386761D01*
X51315476Y-33339142D01*
X50458333Y-32434380D02*
X50125000Y-33434380D01*
X49791666Y-32434380D01*
X48934523Y-33434380D02*
X49505952Y-33434380D01*
X49220238Y-33434380D02*
X49220238Y-32434380D01*
X49315476Y-32577238D01*
X49410714Y-32672476D01*
X49505952Y-32720095D01*
%TO.C,J2*%
X81858333Y-80434380D02*
X81858333Y-81148666D01*
X81905952Y-81291523D01*
X82001190Y-81386761D01*
X82144047Y-81434380D01*
X82239285Y-81434380D01*
X81429761Y-80529619D02*
X81382142Y-80482000D01*
X81286904Y-80434380D01*
X81048809Y-80434380D01*
X80953571Y-80482000D01*
X80905952Y-80529619D01*
X80858333Y-80624857D01*
X80858333Y-80720095D01*
X80905952Y-80862952D01*
X81477380Y-81434380D01*
X80858333Y-81434380D01*
%TO.C,R11*%
X51457380Y-73409142D02*
X50981190Y-73075809D01*
X51457380Y-72837714D02*
X50457380Y-72837714D01*
X50457380Y-73218666D01*
X50505000Y-73313904D01*
X50552619Y-73361523D01*
X50647857Y-73409142D01*
X50790714Y-73409142D01*
X50885952Y-73361523D01*
X50933571Y-73313904D01*
X50981190Y-73218666D01*
X50981190Y-72837714D01*
X51457380Y-74361523D02*
X51457380Y-73790095D01*
X51457380Y-74075809D02*
X50457380Y-74075809D01*
X50600238Y-73980571D01*
X50695476Y-73885333D01*
X50743095Y-73790095D01*
X51457380Y-75313904D02*
X51457380Y-74742476D01*
X51457380Y-75028190D02*
X50457380Y-75028190D01*
X50600238Y-74932952D01*
X50695476Y-74837714D01*
X50743095Y-74742476D01*
%TO.C,J_esp1*%
X98072619Y-46782000D02*
X97358333Y-46782000D01*
X97215476Y-46829619D01*
X97120238Y-46924857D01*
X97072619Y-47067714D01*
X97072619Y-47162952D01*
X96977380Y-46543904D02*
X96977380Y-45782000D01*
X97120238Y-45162952D02*
X97072619Y-45258190D01*
X97072619Y-45448666D01*
X97120238Y-45543904D01*
X97215476Y-45591523D01*
X97596428Y-45591523D01*
X97691666Y-45543904D01*
X97739285Y-45448666D01*
X97739285Y-45258190D01*
X97691666Y-45162952D01*
X97596428Y-45115333D01*
X97501190Y-45115333D01*
X97405952Y-45591523D01*
X97120238Y-44734380D02*
X97072619Y-44639142D01*
X97072619Y-44448666D01*
X97120238Y-44353428D01*
X97215476Y-44305809D01*
X97263095Y-44305809D01*
X97358333Y-44353428D01*
X97405952Y-44448666D01*
X97405952Y-44591523D01*
X97453571Y-44686761D01*
X97548809Y-44734380D01*
X97596428Y-44734380D01*
X97691666Y-44686761D01*
X97739285Y-44591523D01*
X97739285Y-44448666D01*
X97691666Y-44353428D01*
X97739285Y-43877238D02*
X96739285Y-43877238D01*
X97691666Y-43877238D02*
X97739285Y-43782000D01*
X97739285Y-43591523D01*
X97691666Y-43496285D01*
X97644047Y-43448666D01*
X97548809Y-43401047D01*
X97263095Y-43401047D01*
X97167857Y-43448666D01*
X97120238Y-43496285D01*
X97072619Y-43591523D01*
X97072619Y-43782000D01*
X97120238Y-43877238D01*
X97072619Y-42448666D02*
X97072619Y-43020095D01*
X97072619Y-42734380D02*
X98072619Y-42734380D01*
X97929761Y-42829619D01*
X97834523Y-42924857D01*
X97786904Y-43020095D01*
D11*
%TO.C,J_EC1*%
X57125000Y-55872000D02*
X55915000Y-55872000D01*
X55415000Y-65592000D02*
X55415000Y-55372000D01*
X59435000Y-55372000D02*
X59435000Y-65592000D01*
X57235000Y-55072000D02*
X59735000Y-55072000D01*
X57935000Y-56372000D02*
X59435000Y-56372000D01*
X57935000Y-55372000D02*
X57935000Y-56372000D01*
X57935000Y-64592000D02*
X59435000Y-64592000D01*
X55915000Y-65092000D02*
X57125000Y-65092000D01*
X59435000Y-65592000D02*
X55415000Y-65592000D01*
X55415000Y-55372000D02*
X59435000Y-55372000D01*
X55915000Y-55872000D02*
X55915000Y-65092000D01*
X57935000Y-65592000D02*
X57935000Y-64592000D01*
X57125000Y-55372000D02*
X57125000Y-55872000D01*
X57125000Y-65092000D02*
X57125000Y-65592000D01*
X59735000Y-55072000D02*
X59735000Y-57572000D01*
%TO.C,U4*%
X105115000Y-54386000D02*
X105115000Y-54386000D01*
X105115000Y-54386000D02*
X110449000Y-54386000D01*
X104785000Y-54962000D02*
X133985000Y-54962000D01*
X110449000Y-43718000D02*
X105115000Y-43718000D01*
X105369000Y-51592000D02*
X105369000Y-51592000D01*
X104785000Y-39512000D02*
X104785000Y-54962000D01*
X105115000Y-43718000D02*
X105115000Y-43718000D01*
X107655000Y-53878000D02*
X107655000Y-51592000D01*
X107655000Y-51592000D02*
X105369000Y-51592000D01*
X110449000Y-54386000D02*
X110449000Y-43718000D01*
X104785000Y-54962000D02*
X104785000Y-54962000D01*
X105115000Y-43718000D02*
X105115000Y-54386000D01*
X133985000Y-54962000D02*
X133985000Y-39512000D01*
X133985000Y-39512000D02*
X104785000Y-39512000D01*
%TO.C,C1*%
X52672887Y-40683000D02*
X52672887Y-39073000D01*
X51432887Y-38838000D02*
X51432887Y-37610000D01*
X51832887Y-38838000D02*
X51832887Y-37874000D01*
X50711887Y-42406000D02*
X50711887Y-40918000D01*
X50751887Y-42398000D02*
X50751887Y-40918000D01*
X51912887Y-41815000D02*
X51912887Y-40918000D01*
X51472887Y-38838000D02*
X51472887Y-37631000D01*
X52072887Y-41663000D02*
X52072887Y-40918000D01*
X52472887Y-41129000D02*
X52472887Y-40918000D01*
X52352887Y-38838000D02*
X52352887Y-38435000D01*
X50471887Y-38838000D02*
X50471887Y-37313000D01*
X50912887Y-38838000D02*
X50912887Y-37398000D01*
X50591887Y-42428000D02*
X50591887Y-40918000D01*
X50711887Y-38838000D02*
X50711887Y-37350000D01*
X51072887Y-42306000D02*
X51072887Y-40918000D01*
X51512887Y-38838000D02*
X51512887Y-37654000D01*
X51112887Y-38838000D02*
X51112887Y-37464000D01*
X50511887Y-42439000D02*
X50511887Y-40918000D01*
X52312887Y-41378000D02*
X52312887Y-40918000D01*
X50591887Y-38838000D02*
X50591887Y-37328000D01*
X50671887Y-42414000D02*
X50671887Y-40918000D01*
X50871887Y-42369000D02*
X50871887Y-40918000D01*
X51152887Y-38838000D02*
X51152887Y-37480000D01*
X51832887Y-41882000D02*
X51832887Y-40918000D01*
X51952887Y-38838000D02*
X51952887Y-37977000D01*
X51632887Y-42027000D02*
X51632887Y-40918000D01*
X51672887Y-42000000D02*
X51672887Y-40918000D01*
X50992887Y-42333000D02*
X50992887Y-40918000D01*
X50191887Y-42458000D02*
X50191887Y-37298000D01*
X50311887Y-42456000D02*
X50311887Y-37300000D01*
X50351887Y-42454000D02*
X50351887Y-37302000D01*
X51112887Y-42292000D02*
X51112887Y-40918000D01*
X50271887Y-42457000D02*
X50271887Y-37299000D01*
X52592887Y-40889000D02*
X52592887Y-38867000D01*
X52112887Y-38838000D02*
X52112887Y-38135000D01*
X51752887Y-41943000D02*
X51752887Y-40918000D01*
X50952887Y-42346000D02*
X50952887Y-40918000D01*
X51432887Y-42146000D02*
X51432887Y-40918000D01*
X52072887Y-38838000D02*
X52072887Y-38093000D01*
X52272887Y-38838000D02*
X52272887Y-38324000D01*
X51992887Y-38838000D02*
X51992887Y-38014000D01*
X51552887Y-38838000D02*
X51552887Y-37678000D01*
X50912887Y-42358000D02*
X50912887Y-40918000D01*
X50511887Y-38838000D02*
X50511887Y-37317000D01*
X52232887Y-38838000D02*
X52232887Y-38273000D01*
X52152887Y-38838000D02*
X52152887Y-38179000D01*
X47637112Y-41603000D02*
X47637112Y-41103000D01*
X50791887Y-42389000D02*
X50791887Y-40918000D01*
X51072887Y-38838000D02*
X51072887Y-37450000D01*
X51712887Y-38838000D02*
X51712887Y-37783000D01*
X50671887Y-38838000D02*
X50671887Y-37342000D01*
X50551887Y-42434000D02*
X50551887Y-40918000D01*
X51312887Y-38838000D02*
X51312887Y-37549000D01*
X52312887Y-38838000D02*
X52312887Y-38378000D01*
X51992887Y-41742000D02*
X51992887Y-40918000D01*
X51192887Y-42260000D02*
X51192887Y-40918000D01*
X51872887Y-41849000D02*
X51872887Y-40918000D01*
X52272887Y-41432000D02*
X52272887Y-40918000D01*
X51512887Y-42102000D02*
X51512887Y-40918000D01*
X52632887Y-40793000D02*
X52632887Y-38963000D01*
X52512887Y-41056000D02*
X52512887Y-38700000D01*
X52032887Y-41704000D02*
X52032887Y-40918000D01*
X50471887Y-42443000D02*
X50471887Y-40918000D01*
X52112887Y-41621000D02*
X52112887Y-40918000D01*
X51032887Y-42320000D02*
X51032887Y-40918000D01*
X51352887Y-42188000D02*
X51352887Y-40918000D01*
X51912887Y-38838000D02*
X51912887Y-37941000D01*
X51872887Y-38838000D02*
X51872887Y-37907000D01*
X52232887Y-41483000D02*
X52232887Y-40918000D01*
X50431887Y-42447000D02*
X50431887Y-40918000D01*
X51552887Y-42078000D02*
X51552887Y-40918000D01*
X52552887Y-40976000D02*
X52552887Y-38780000D01*
X52712887Y-40555000D02*
X52712887Y-39201000D01*
X50231887Y-42458000D02*
X50231887Y-37298000D01*
X51592887Y-38838000D02*
X51592887Y-37703000D01*
X51752887Y-38838000D02*
X51752887Y-37813000D01*
X51232887Y-38838000D02*
X51232887Y-37513000D01*
X52152887Y-41577000D02*
X52152887Y-40918000D01*
X50631887Y-42421000D02*
X50631887Y-40918000D01*
X51312887Y-42207000D02*
X51312887Y-40918000D01*
X52432887Y-38838000D02*
X52432887Y-38559000D01*
X50751887Y-38838000D02*
X50751887Y-37358000D01*
X50551887Y-38838000D02*
X50551887Y-37322000D01*
X52192887Y-38838000D02*
X52192887Y-38225000D01*
X51392887Y-38838000D02*
X51392887Y-37588000D01*
X51272887Y-38838000D02*
X51272887Y-37530000D01*
X51632887Y-38838000D02*
X51632887Y-37729000D01*
X50431887Y-38838000D02*
X50431887Y-37309000D01*
X51272887Y-42226000D02*
X51272887Y-40918000D01*
X50992887Y-38838000D02*
X50992887Y-37423000D01*
X52392887Y-41261000D02*
X52392887Y-40918000D01*
X51032887Y-38838000D02*
X51032887Y-37436000D01*
X50831887Y-38838000D02*
X50831887Y-37377000D01*
X51712887Y-41973000D02*
X51712887Y-40918000D01*
X51592887Y-42053000D02*
X51592887Y-40918000D01*
X51952887Y-41779000D02*
X51952887Y-40918000D01*
X51232887Y-42243000D02*
X51232887Y-40918000D01*
X51352887Y-38838000D02*
X51352887Y-37568000D01*
X51792887Y-41913000D02*
X51792887Y-40918000D01*
X50791887Y-38838000D02*
X50791887Y-37367000D01*
X52392887Y-38838000D02*
X52392887Y-38495000D01*
X50391887Y-42451000D02*
X50391887Y-37305000D01*
X51192887Y-38838000D02*
X51192887Y-37496000D01*
X50831887Y-42379000D02*
X50831887Y-40918000D01*
X52752887Y-40396000D02*
X52752887Y-39360000D01*
X51152887Y-42276000D02*
X51152887Y-40918000D01*
X50631887Y-38838000D02*
X50631887Y-37335000D01*
X52432887Y-41197000D02*
X52432887Y-40918000D01*
X52352887Y-41321000D02*
X52352887Y-40918000D01*
X51472887Y-42125000D02*
X51472887Y-40918000D01*
X51672887Y-38838000D02*
X51672887Y-37756000D01*
X52192887Y-41531000D02*
X52192887Y-40918000D01*
X50871887Y-38838000D02*
X50871887Y-37387000D01*
X51792887Y-38838000D02*
X51792887Y-37843000D01*
X52032887Y-38838000D02*
X52032887Y-38052000D01*
X51392887Y-42168000D02*
X51392887Y-40918000D01*
X47387112Y-41353000D02*
X47887112Y-41353000D01*
X50952887Y-38838000D02*
X50952887Y-37410000D01*
X52792887Y-40162000D02*
X52792887Y-39594000D01*
X52472887Y-38838000D02*
X52472887Y-38627000D01*
X52811887Y-39878000D02*
G75*
G03*
X52811887Y-39878000I-2620000J0D01*
G01*
%TO.C,J_DS18*%
X57125000Y-77292000D02*
X57125000Y-77792000D01*
X55915000Y-68072000D02*
X55915000Y-77292000D01*
X57935000Y-76792000D02*
X59435000Y-76792000D01*
X55415000Y-77792000D02*
X55415000Y-67572000D01*
X57935000Y-67572000D02*
X57935000Y-68572000D01*
X57125000Y-67572000D02*
X57125000Y-68072000D01*
X57935000Y-68572000D02*
X59435000Y-68572000D01*
X55915000Y-77292000D02*
X57125000Y-77292000D01*
X59435000Y-67572000D02*
X59435000Y-77792000D01*
X59435000Y-77792000D02*
X55415000Y-77792000D01*
X57935000Y-77792000D02*
X57935000Y-76792000D01*
X55415000Y-67572000D02*
X59435000Y-67572000D01*
X57125000Y-68072000D02*
X55915000Y-68072000D01*
X59735000Y-67272000D02*
X59735000Y-69772000D01*
X57235000Y-67272000D02*
X59735000Y-67272000D01*
%TO.C,J_esp0*%
X70797500Y-65572000D02*
X69817500Y-65572000D01*
X69817500Y-65572000D02*
X69817500Y-65442000D01*
X65177500Y-24492000D02*
X65177500Y-26902000D01*
X67587500Y-24492000D02*
X65177500Y-24492000D01*
X70797500Y-49102000D02*
X70797500Y-65572000D01*
X70797500Y-24792000D02*
X70797500Y-41262000D01*
X72297500Y-49102000D02*
X70797500Y-49102000D01*
X65477500Y-65572000D02*
X65477500Y-24792000D01*
X69817500Y-65442000D02*
X68007500Y-65442000D01*
X69817500Y-24792000D02*
X70797500Y-24792000D01*
X68007500Y-24792000D02*
X68007500Y-24922000D01*
X72297500Y-41262000D02*
X72297500Y-49102000D01*
X68007500Y-24922000D02*
X69817500Y-24922000D01*
X65477500Y-24792000D02*
X68007500Y-24792000D01*
X68007500Y-65572000D02*
X65477500Y-65572000D01*
X69817500Y-24922000D02*
X69817500Y-24792000D01*
X70797500Y-41262000D02*
X72297500Y-41262000D01*
X68007500Y-65442000D02*
X68007500Y-65572000D01*
%TO.C,5V1*%
X55260000Y-25632000D02*
X55760000Y-25382000D01*
X44910000Y-37282000D02*
X44910000Y-24682000D01*
X55760000Y-27282000D02*
X55760000Y-27332000D01*
X55760000Y-27332000D02*
X55260000Y-27082000D01*
X55760000Y-25382000D02*
X55760000Y-27282000D01*
X55260000Y-27082000D02*
X55260000Y-32482000D01*
X55260000Y-32482000D02*
X55760000Y-32182000D01*
X55760000Y-37282000D02*
X44910000Y-37282000D01*
X55760000Y-32182000D02*
X55760000Y-37282000D01*
X44910000Y-24682000D02*
X55260000Y-24682000D01*
X55260000Y-24682000D02*
X55260000Y-25632000D01*
%TO.C,J2*%
X88635000Y-76372000D02*
X74415000Y-76372000D01*
X89435000Y-77692000D02*
X89435000Y-80192000D01*
X89135000Y-75872000D02*
X89135000Y-79892000D01*
X74915000Y-78392000D02*
X74915000Y-79892000D01*
X89135000Y-77582000D02*
X88635000Y-77582000D01*
X88635000Y-77582000D02*
X88635000Y-76372000D01*
X73915000Y-75872000D02*
X89135000Y-75872000D01*
X89435000Y-80192000D02*
X86935000Y-80192000D01*
X89135000Y-78392000D02*
X88135000Y-78392000D01*
X74415000Y-77582000D02*
X73915000Y-77582000D01*
X88135000Y-78392000D02*
X88135000Y-79892000D01*
X89135000Y-79892000D02*
X73915000Y-79892000D01*
X74415000Y-76372000D02*
X74415000Y-77582000D01*
X73915000Y-79892000D02*
X73915000Y-75872000D01*
X73915000Y-78392000D02*
X74915000Y-78392000D01*
%TO.C,R11*%
X52925000Y-73702000D02*
X52925000Y-74322000D01*
X53845000Y-72782000D02*
G75*
G03*
X53845000Y-72782000I-920000J0D01*
G01*
%TO.C,J_esp1*%
X93762500Y-65872000D02*
X96172500Y-65872000D01*
X93342500Y-65442000D02*
X91532500Y-65442000D01*
X95872500Y-24792000D02*
X95872500Y-65572000D01*
X91532500Y-65572000D02*
X90552500Y-65572000D01*
X90552500Y-49102000D02*
X89052500Y-49102000D01*
X93342500Y-65572000D02*
X93342500Y-65442000D01*
X89052500Y-41262000D02*
X90552500Y-41262000D01*
X91532500Y-65442000D02*
X91532500Y-65572000D01*
X93342500Y-24792000D02*
X95872500Y-24792000D01*
X90552500Y-65572000D02*
X90552500Y-49102000D01*
X91532500Y-24792000D02*
X91532500Y-24922000D01*
X90552500Y-41262000D02*
X90552500Y-24792000D01*
X96172500Y-65872000D02*
X96172500Y-63462000D01*
X90552500Y-24792000D02*
X91532500Y-24792000D01*
X91532500Y-24922000D02*
X93342500Y-24922000D01*
X89052500Y-49102000D02*
X89052500Y-41262000D01*
X93342500Y-24922000D02*
X93342500Y-24792000D01*
X95872500Y-65572000D02*
X93342500Y-65572000D01*
%TD*%
M02*
