%TF.GenerationSoftware,KiCad,Pcbnew,6.0.11+dfsg-1*%
%TF.CreationDate,2023-03-13T21:30:02-05:00*%
%TF.ProjectId,water_tank_module,77617465-725f-4746-916e-6b5f6d6f6475,rev?*%
%TF.SameCoordinates,Original*%
%TF.FileFunction,Soldermask,Bot*%
%TF.FilePolarity,Negative*%
%FSLAX46Y46*%
G04 Gerber Fmt 4.6, Leading zero omitted, Abs format (unit mm)*
G04 Created by KiCad (PCBNEW 6.0.11+dfsg-1) date 2023-03-13 21:30:02*
%MOMM*%
%LPD*%
G01*
G04 APERTURE LIST*
G04 Aperture macros list*
%AMRoundRect*
0 Rectangle with rounded corners*
0 $1 Rounding radius*
0 $2 $3 $4 $5 $6 $7 $8 $9 X,Y pos of 4 corners*
0 Add a 4 corners polygon primitive as box body*
4,1,4,$2,$3,$4,$5,$6,$7,$8,$9,$2,$3,0*
0 Add four circle primitives for the rounded corners*
1,1,$1+$1,$2,$3*
1,1,$1+$1,$4,$5*
1,1,$1+$1,$6,$7*
1,1,$1+$1,$8,$9*
0 Add four rect primitives between the rounded corners*
20,1,$1+$1,$2,$3,$4,$5,0*
20,1,$1+$1,$4,$5,$6,$7,0*
20,1,$1+$1,$6,$7,$8,$9,0*
20,1,$1+$1,$8,$9,$2,$3,0*%
G04 Aperture macros list end*
%ADD10RoundRect,0.250000X0.600000X0.725000X-0.600000X0.725000X-0.600000X-0.725000X0.600000X-0.725000X0*%
%ADD11O,1.700000X1.950000*%
%ADD12C,5.400000*%
%ADD13RoundRect,0.286765X-1.213235X0.688235X-1.213235X-0.688235X1.213235X-0.688235X1.213235X0.688235X0*%
%ADD14O,3.000000X1.950000*%
%ADD15R,2.000000X2.000000*%
%ADD16C,1.700000*%
%ADD17R,1.800000X1.800000*%
%ADD18C,1.900000*%
%ADD19RoundRect,0.250000X-1.020000X0.620000X-1.020000X-0.620000X1.020000X-0.620000X1.020000X0.620000X0*%
%ADD20R,2.540000X1.740000*%
%ADD21R,3.000000X3.960000*%
%ADD22O,3.000000X3.960000*%
%ADD23C,2.000000*%
%ADD24O,2.000000X2.000000*%
%ADD25RoundRect,0.250000X1.020000X-0.620000X1.020000X0.620000X-1.020000X0.620000X-1.020000X-0.620000X0*%
G04 APERTURE END LIST*
D10*
%TO.C,J1*%
X92819000Y-75184000D03*
D11*
X90319000Y-75184000D03*
X87819000Y-75184000D03*
X85319000Y-75184000D03*
X82819000Y-75184000D03*
X80319000Y-75184000D03*
%TD*%
D12*
%TO.C,H2*%
X112758000Y-80391000D03*
%TD*%
D13*
%TO.C,J_EC1*%
X57125000Y-57982000D03*
D14*
X57125000Y-60482000D03*
X57125000Y-62982000D03*
%TD*%
D15*
%TO.C,U4*%
X106385000Y-52862000D03*
X108925000Y-52862000D03*
X106385000Y-50322000D03*
X108925000Y-50322000D03*
X106385000Y-47782000D03*
X108925000Y-47782000D03*
X106385000Y-45242000D03*
D16*
X108925000Y-45242000D03*
%TD*%
D17*
%TO.C,C1*%
X48941887Y-39878000D03*
D18*
X51441887Y-39878000D03*
%TD*%
D13*
%TO.C,J_DS18*%
X57125000Y-70182000D03*
D14*
X57125000Y-72682000D03*
X57125000Y-75182000D03*
%TD*%
D12*
%TO.C,H3*%
X80881000Y-27559000D03*
%TD*%
D19*
%TO.C,J_esp0*%
X68137500Y-27402000D03*
D20*
X68137500Y-29942000D03*
X68137500Y-32482000D03*
X68137500Y-35022000D03*
X68137500Y-37562000D03*
X68137500Y-40102000D03*
X68137500Y-42642000D03*
X68137500Y-45182000D03*
X68137500Y-47722000D03*
X68137500Y-50262000D03*
X68137500Y-52802000D03*
X68137500Y-55342000D03*
X68137500Y-57882000D03*
X68137500Y-60422000D03*
X68137500Y-62962000D03*
%TD*%
D21*
%TO.C,5V1*%
X47560000Y-30982000D03*
D22*
X52560000Y-30982000D03*
%TD*%
D12*
%TO.C,H1*%
X50655000Y-80391000D03*
%TD*%
D23*
%TO.C,R11*%
X52925000Y-72782000D03*
D24*
X52925000Y-75322000D03*
%TD*%
D25*
%TO.C,J_esp1*%
X93212500Y-62962000D03*
D20*
X93212500Y-60422000D03*
X93212500Y-57882000D03*
X93212500Y-55342000D03*
X93212500Y-52802000D03*
X93212500Y-50262000D03*
X93212500Y-47722000D03*
X93212500Y-45182000D03*
X93212500Y-42642000D03*
X93212500Y-40102000D03*
X93212500Y-37562000D03*
X93212500Y-35022000D03*
X93212500Y-32482000D03*
X93212500Y-29942000D03*
X93212500Y-27402000D03*
%TD*%
M02*
