M48
; DRILL file {KiCad 6.0.11+dfsg-1} date Mon 13 Mar 2023 09:30:05 PM -05
; FORMAT={-:-/ absolute / inch / decimal}
; #@! TF.CreationDate,2023-03-13T21:30:05-05:00
; #@! TF.GenerationSoftware,Kicad,Pcbnew,6.0.11+dfsg-1
; #@! TF.FileFunction,Plated,1,2,PTH
FMAT,2
INCH
; #@! TA.AperFunction,Plated,PTH,ComponentDrill
T1C0.0276
; #@! TA.AperFunction,Plated,PTH,ComponentDrill
T2C0.0315
; #@! TA.AperFunction,Plated,PTH,ComponentDrill
T3C0.0374
; #@! TA.AperFunction,Plated,PTH,ComponentDrill
T4C0.0394
; #@! TA.AperFunction,Plated,PTH,ComponentDrill
T5C0.0429
; #@! TA.AperFunction,Plated,PTH,ComponentDrill
T6C0.0520
; #@! TA.AperFunction,Plated,PTH,ComponentDrill
T7C0.1063
%
G90
G05
T1
X2.0837Y-2.8654
X2.0837Y-2.9654
T2
X1.9268Y-1.57
X2.0253Y-1.57
T3
X2.249Y-2.2828
X2.249Y-2.3812
X2.249Y-2.4796
X2.249Y-2.7631
X2.249Y-2.8615
X2.249Y-2.9599
X3.1622Y-2.96
X3.2606Y-2.96
X3.359Y-2.96
X3.4574Y-2.96
X3.5559Y-2.96
X3.6543Y-2.96
T4
X4.1884Y-1.7812
X4.1884Y-1.8812
X4.1884Y-1.9812
X4.1884Y-2.0812
X4.2884Y-1.7812
X4.2884Y-1.8812
X4.2884Y-1.9812
X4.2884Y-2.0812
T5
X2.6826Y-1.0788
X2.6826Y-1.1788
X2.6826Y-1.2788
X2.6826Y-1.3788
X2.6826Y-1.4788
X2.6826Y-1.5788
X2.6826Y-1.6788
X2.6826Y-1.7788
X2.6826Y-1.8788
X2.6826Y-1.9788
X2.6826Y-2.0788
X2.6826Y-2.1788
X2.6826Y-2.2788
X2.6826Y-2.3788
X2.6826Y-2.4788
X3.6698Y-1.0788
X3.6698Y-1.1788
X3.6698Y-1.2788
X3.6698Y-1.3788
X3.6698Y-1.4788
X3.6698Y-1.5788
X3.6698Y-1.6788
X3.6698Y-1.7788
X3.6698Y-1.8788
X3.6698Y-1.9788
X3.6698Y-2.0788
X3.6698Y-2.1788
X3.6698Y-2.2788
X3.6698Y-2.3788
X3.6698Y-2.4788
T6
X1.8724Y-1.2198
X2.0693Y-1.2198
T7
X1.9943Y-3.165
X3.1843Y-1.085
X4.4393Y-3.165
T0
M30
