%TF.GenerationSoftware,KiCad,Pcbnew,6.0.11+dfsg-1*%
%TF.CreationDate,2023-03-06T11:02:43-05:00*%
%TF.ProjectId,water_tank_module,77617465-725f-4746-916e-6b5f6d6f6475,rev?*%
%TF.SameCoordinates,Original*%
%TF.FileFunction,Copper,L2,Bot*%
%TF.FilePolarity,Positive*%
%FSLAX46Y46*%
G04 Gerber Fmt 4.6, Leading zero omitted, Abs format (unit mm)*
G04 Created by KiCad (PCBNEW 6.0.11+dfsg-1) date 2023-03-06 11:02:43*
%MOMM*%
%LPD*%
G01*
G04 APERTURE LIST*
G04 Aperture macros list*
%AMRoundRect*
0 Rectangle with rounded corners*
0 $1 Rounding radius*
0 $2 $3 $4 $5 $6 $7 $8 $9 X,Y pos of 4 corners*
0 Add a 4 corners polygon primitive as box body*
4,1,4,$2,$3,$4,$5,$6,$7,$8,$9,$2,$3,0*
0 Add four circle primitives for the rounded corners*
1,1,$1+$1,$2,$3*
1,1,$1+$1,$4,$5*
1,1,$1+$1,$6,$7*
1,1,$1+$1,$8,$9*
0 Add four rect primitives between the rounded corners*
20,1,$1+$1,$2,$3,$4,$5,0*
20,1,$1+$1,$4,$5,$6,$7,0*
20,1,$1+$1,$6,$7,$8,$9,0*
20,1,$1+$1,$8,$9,$2,$3,0*%
G04 Aperture macros list end*
%TA.AperFunction,NonConductor*%
%ADD10C,0.200000*%
%TD*%
%ADD11C,0.300000*%
%TA.AperFunction,NonConductor*%
%ADD12C,0.300000*%
%TD*%
%TA.AperFunction,ComponentPad*%
%ADD13RoundRect,0.286765X-1.213235X0.688235X-1.213235X-0.688235X1.213235X-0.688235X1.213235X0.688235X0*%
%TD*%
%TA.AperFunction,ComponentPad*%
%ADD14O,3.000000X1.950000*%
%TD*%
%TA.AperFunction,ComponentPad*%
%ADD15R,2.000000X2.000000*%
%TD*%
%TA.AperFunction,ComponentPad*%
%ADD16C,1.700000*%
%TD*%
%TA.AperFunction,ComponentPad*%
%ADD17R,1.800000X1.800000*%
%TD*%
%TA.AperFunction,ComponentPad*%
%ADD18C,1.900000*%
%TD*%
%TA.AperFunction,ComponentPad*%
%ADD19RoundRect,0.250000X-1.020000X0.620000X-1.020000X-0.620000X1.020000X-0.620000X1.020000X0.620000X0*%
%TD*%
%TA.AperFunction,ComponentPad*%
%ADD20R,2.540000X1.740000*%
%TD*%
%TA.AperFunction,ComponentPad*%
%ADD21R,3.000000X3.960000*%
%TD*%
%TA.AperFunction,ComponentPad*%
%ADD22O,3.000000X3.960000*%
%TD*%
%TA.AperFunction,ComponentPad*%
%ADD23RoundRect,0.294118X0.705882X0.955882X-0.705882X0.955882X-0.705882X-0.955882X0.705882X-0.955882X0*%
%TD*%
%TA.AperFunction,ComponentPad*%
%ADD24O,1.950000X2.500000*%
%TD*%
%TA.AperFunction,ComponentPad*%
%ADD25C,2.000000*%
%TD*%
%TA.AperFunction,ComponentPad*%
%ADD26O,2.000000X2.000000*%
%TD*%
%TA.AperFunction,ComponentPad*%
%ADD27RoundRect,0.250000X1.020000X-0.620000X1.020000X0.620000X-1.020000X0.620000X-1.020000X-0.620000X0*%
%TD*%
%TA.AperFunction,Conductor*%
%ADD28C,1.250000*%
%TD*%
G04 APERTURE END LIST*
D10*
X119855000Y-84630000D02*
X43595000Y-84630000D01*
X43595000Y-84630000D02*
X43595000Y-22570000D01*
X43595000Y-22570000D02*
X119855000Y-22570000D01*
X119855000Y-22570000D02*
X119855000Y-84630000D01*
D11*
D12*
X56525000Y-25432000D02*
X56667857Y-25360571D01*
X56882142Y-25360571D01*
X57096428Y-25432000D01*
X57239285Y-25574857D01*
X57310714Y-25717714D01*
X57382142Y-26003428D01*
X57382142Y-26217714D01*
X57310714Y-26503428D01*
X57239285Y-26646285D01*
X57096428Y-26789142D01*
X56882142Y-26860571D01*
X56739285Y-26860571D01*
X56525000Y-26789142D01*
X56453571Y-26717714D01*
X56453571Y-26217714D01*
X56739285Y-26217714D01*
X55810714Y-26860571D02*
X55810714Y-25360571D01*
X54953571Y-26860571D01*
X54953571Y-25360571D01*
X54239285Y-26860571D02*
X54239285Y-25360571D01*
X53882142Y-25360571D01*
X53667857Y-25432000D01*
X53525000Y-25574857D01*
X53453571Y-25717714D01*
X53382142Y-26003428D01*
X53382142Y-26217714D01*
X53453571Y-26503428D01*
X53525000Y-26646285D01*
X53667857Y-26789142D01*
X53882142Y-26860571D01*
X54239285Y-26860571D01*
X52025000Y-25360571D02*
X52739285Y-25360571D01*
X52810714Y-26074857D01*
X52739285Y-26003428D01*
X52596428Y-25932000D01*
X52239285Y-25932000D01*
X52096428Y-26003428D01*
X52025000Y-26074857D01*
X51953571Y-26217714D01*
X51953571Y-26574857D01*
X52025000Y-26717714D01*
X52096428Y-26789142D01*
X52239285Y-26860571D01*
X52596428Y-26860571D01*
X52739285Y-26789142D01*
X52810714Y-26717714D01*
X51525000Y-25360571D02*
X51025000Y-26860571D01*
X50525000Y-25360571D01*
D11*
D12*
X47739285Y-25360571D02*
X48453571Y-25360571D01*
X48525000Y-26074857D01*
X48453571Y-26003428D01*
X48310714Y-25932000D01*
X47953571Y-25932000D01*
X47810714Y-26003428D01*
X47739285Y-26074857D01*
X47667857Y-26217714D01*
X47667857Y-26574857D01*
X47739285Y-26717714D01*
X47810714Y-26789142D01*
X47953571Y-26860571D01*
X48310714Y-26860571D01*
X48453571Y-26789142D01*
X48525000Y-26717714D01*
X47239285Y-25360571D02*
X46739285Y-26860571D01*
X46239285Y-25360571D01*
X45739285Y-26289142D02*
X44596428Y-26289142D01*
X45167857Y-26860571D02*
X45167857Y-25717714D01*
D11*
D12*
X114763571Y-54115571D02*
X115263571Y-53401285D01*
X115620714Y-54115571D02*
X115620714Y-52615571D01*
X115049285Y-52615571D01*
X114906428Y-52687000D01*
X114835000Y-52758428D01*
X114763571Y-52901285D01*
X114763571Y-53115571D01*
X114835000Y-53258428D01*
X114906428Y-53329857D01*
X115049285Y-53401285D01*
X115620714Y-53401285D01*
X113620714Y-53329857D02*
X114120714Y-53329857D01*
X114120714Y-54115571D02*
X114120714Y-52615571D01*
X113406428Y-52615571D01*
D11*
D12*
X117689866Y-80671071D02*
X117502366Y-79171071D01*
X117136294Y-80242500D01*
X116502366Y-79171071D01*
X116689866Y-80671071D01*
X115332723Y-80671071D02*
X115234508Y-79885357D01*
X115288080Y-79742500D01*
X115422008Y-79671071D01*
X115707723Y-79671071D01*
X115859508Y-79742500D01*
X115323794Y-80599642D02*
X115475580Y-80671071D01*
X115832723Y-80671071D01*
X115966651Y-80599642D01*
X116020223Y-80456785D01*
X116002366Y-80313928D01*
X115913080Y-80171071D01*
X115761294Y-80099642D01*
X115404151Y-80099642D01*
X115252366Y-80028214D01*
X114707723Y-79671071D02*
X114136294Y-79671071D01*
X114430937Y-79171071D02*
X114591651Y-80456785D01*
X114538080Y-80599642D01*
X114404151Y-80671071D01*
X114261294Y-80671071D01*
X113761294Y-80671071D02*
X113636294Y-79671071D01*
X113573794Y-79171071D02*
X113654151Y-79242500D01*
X113591651Y-79313928D01*
X113511294Y-79242500D01*
X113573794Y-79171071D01*
X113591651Y-79313928D01*
X112395223Y-80599642D02*
X112547008Y-80671071D01*
X112832723Y-80671071D01*
X112966651Y-80599642D01*
X113029151Y-80528214D01*
X113082723Y-80385357D01*
X113029151Y-79956785D01*
X112939866Y-79813928D01*
X112859508Y-79742500D01*
X112707723Y-79671071D01*
X112422008Y-79671071D01*
X112288080Y-79742500D01*
X111118437Y-80671071D02*
X111020223Y-79885357D01*
X111073794Y-79742500D01*
X111207723Y-79671071D01*
X111493437Y-79671071D01*
X111645223Y-79742500D01*
X111109508Y-80599642D02*
X111261294Y-80671071D01*
X111618437Y-80671071D01*
X111752366Y-80599642D01*
X111805937Y-80456785D01*
X111788080Y-80313928D01*
X111698794Y-80171071D01*
X111547008Y-80099642D01*
X111189866Y-80099642D01*
X111038080Y-80028214D01*
X110466651Y-80599642D02*
X110332723Y-80671071D01*
X110047008Y-80671071D01*
X109895223Y-80599642D01*
X109805937Y-80456785D01*
X109797008Y-80385357D01*
X109850580Y-80242500D01*
X109984508Y-80171071D01*
X110198794Y-80171071D01*
X110332723Y-80099642D01*
X110386294Y-79956785D01*
X110377366Y-79885357D01*
X110288080Y-79742500D01*
X110136294Y-79671071D01*
X109922008Y-79671071D01*
X109788080Y-79742500D01*
X119234508Y-82300357D02*
X118734508Y-82300357D01*
X118618437Y-83086071D02*
X119332723Y-83086071D01*
X119145223Y-81586071D01*
X118430937Y-81586071D01*
X118038080Y-83014642D02*
X117832723Y-83086071D01*
X117475580Y-83086071D01*
X117323794Y-83014642D01*
X117243437Y-82943214D01*
X117154151Y-82800357D01*
X117136294Y-82657500D01*
X117189866Y-82514642D01*
X117252366Y-82443214D01*
X117386294Y-82371785D01*
X117663080Y-82300357D01*
X117797008Y-82228928D01*
X117859508Y-82157500D01*
X117913080Y-82014642D01*
X117895223Y-81871785D01*
X117805937Y-81728928D01*
X117725580Y-81657500D01*
X117573794Y-81586071D01*
X117216651Y-81586071D01*
X117011294Y-81657500D01*
X116547008Y-83086071D02*
X116359508Y-81586071D01*
X115788080Y-81586071D01*
X115654151Y-81657500D01*
X115591651Y-81728928D01*
X115538080Y-81871785D01*
X115564866Y-82086071D01*
X115654151Y-82228928D01*
X115734508Y-82300357D01*
X115886294Y-82371785D01*
X116457723Y-82371785D01*
X115002366Y-81586071D02*
X114073794Y-81586071D01*
X114645223Y-82157500D01*
X114430937Y-82157500D01*
X114297008Y-82228928D01*
X114234508Y-82300357D01*
X114180937Y-82443214D01*
X114225580Y-82800357D01*
X114314866Y-82943214D01*
X114395223Y-83014642D01*
X114547008Y-83086071D01*
X114975580Y-83086071D01*
X115109508Y-83014642D01*
X115172008Y-82943214D01*
X113520223Y-81728928D02*
X113439866Y-81657500D01*
X113288080Y-81586071D01*
X112930937Y-81586071D01*
X112797008Y-81657500D01*
X112734508Y-81728928D01*
X112680937Y-81871785D01*
X112698794Y-82014642D01*
X112797008Y-82228928D01*
X113761294Y-83086071D01*
X112832723Y-83086071D01*
X112118437Y-82514642D02*
X110975580Y-82514642D01*
X109475580Y-83086071D02*
X109886294Y-82371785D01*
X110332723Y-83086071D02*
X110145223Y-81586071D01*
X109573794Y-81586071D01*
X109439866Y-81657500D01*
X109377366Y-81728928D01*
X109323794Y-81871785D01*
X109350580Y-82086071D01*
X109439866Y-82228928D01*
X109520223Y-82300357D01*
X109672008Y-82371785D01*
X110243437Y-82371785D01*
X108234508Y-82300357D02*
X108734508Y-82300357D01*
X108832723Y-83086071D02*
X108645223Y-81586071D01*
X107930937Y-81586071D01*
D13*
%TO.P,J_EC1,1,Pin_1*%
%TO.N,GND5V*%
X57125000Y-57982000D03*
D14*
%TO.P,J_EC1,2,Pin_2*%
%TO.N,5v*%
X57125000Y-60482000D03*
%TO.P,J_EC1,3,Pin_3*%
%TO.N,D34*%
X57125000Y-62982000D03*
%TD*%
D15*
%TO.P,U4,1,GND*%
%TO.N,GND5V*%
X106385000Y-52862000D03*
%TO.P,U4,2,VCC*%
%TO.N,5v*%
X108925000Y-52862000D03*
%TO.P,U4,3,CE*%
%TO.N,D4*%
X106385000Y-50322000D03*
%TO.P,U4,4,~{CSN}*%
%TO.N,D5*%
X108925000Y-50322000D03*
%TO.P,U4,5,SCK*%
%TO.N,D18*%
X106385000Y-47782000D03*
%TO.P,U4,6,MOSI*%
%TO.N,D23*%
X108925000Y-47782000D03*
%TO.P,U4,7,MISO*%
%TO.N,D19*%
X106385000Y-45242000D03*
D16*
%TO.P,U4,8,IRQ*%
%TO.N,unconnected-(U4-Pad8)*%
X108925000Y-45242000D03*
%TD*%
D17*
%TO.P,C1,1*%
%TO.N,5v*%
X48941887Y-39878000D03*
D18*
%TO.P,C1,2*%
%TO.N,GND5V*%
X51441887Y-39878000D03*
%TD*%
D13*
%TO.P,J_DS18,1,Pin_1*%
%TO.N,GND5V*%
X57125000Y-70182000D03*
D14*
%TO.P,J_DS18,2,Pin_2*%
%TO.N,5v*%
X57125000Y-72682000D03*
%TO.P,J_DS18,3,Pin_3*%
%TO.N,D35*%
X57125000Y-75182000D03*
%TD*%
D19*
%TO.P,J_esp0,1,Pin_1*%
%TO.N,EN*%
X68137500Y-27402000D03*
D20*
%TO.P,J_esp0,2,Pin_2*%
%TO.N,VP*%
X68137500Y-29942000D03*
%TO.P,J_esp0,3,Pin_3*%
%TO.N,VN*%
X68137500Y-32482000D03*
%TO.P,J_esp0,4,Pin_4*%
%TO.N,D34*%
X68137500Y-35022000D03*
%TO.P,J_esp0,5,Pin_5*%
%TO.N,D35*%
X68137500Y-37562000D03*
%TO.P,J_esp0,6,Pin_6*%
%TO.N,D32*%
X68137500Y-40102000D03*
%TO.P,J_esp0,7,Pin_7*%
%TO.N,D33*%
X68137500Y-42642000D03*
%TO.P,J_esp0,8,Pin_8*%
%TO.N,D25*%
X68137500Y-45182000D03*
%TO.P,J_esp0,9,Pin_9*%
%TO.N,D26*%
X68137500Y-47722000D03*
%TO.P,J_esp0,10,Pin_10*%
%TO.N,D27*%
X68137500Y-50262000D03*
%TO.P,J_esp0,11,Pin_11*%
%TO.N,D14*%
X68137500Y-52802000D03*
%TO.P,J_esp0,12,Pin_12*%
%TO.N,D12*%
X68137500Y-55342000D03*
%TO.P,J_esp0,13,Pin_13*%
%TO.N,D13*%
X68137500Y-57882000D03*
%TO.P,J_esp0,14,Pin_14*%
%TO.N,GND5V*%
X68137500Y-60422000D03*
%TO.P,J_esp0,15,Pin_15*%
%TO.N,5v*%
X68137500Y-62962000D03*
%TD*%
D21*
%TO.P,5V1,1,Pin_1*%
%TO.N,5v*%
X47560000Y-30982000D03*
D22*
%TO.P,5V1,2,Pin_2*%
%TO.N,GND5V*%
X52560000Y-30982000D03*
%TD*%
D23*
%TO.P,J2,1,Pin_1*%
%TO.N,D25*%
X86525000Y-77582000D03*
D24*
%TO.P,J2,2,Pin_2*%
%TO.N,D26*%
X84025000Y-77582000D03*
%TO.P,J2,3,Pin_3*%
%TO.N,D32*%
X81525000Y-77582000D03*
%TO.P,J2,4,Pin_4*%
%TO.N,D33*%
X79025000Y-77582000D03*
%TO.P,J2,5,Pin_5*%
%TO.N,GND5V*%
X76525000Y-77582000D03*
%TD*%
D25*
%TO.P,R11,1*%
%TO.N,5v*%
X52925000Y-72782000D03*
D26*
%TO.P,R11,2*%
%TO.N,D35*%
X52925000Y-75322000D03*
%TD*%
D27*
%TO.P,J_esp1,1,Pin_1*%
%TO.N,3V3*%
X93212500Y-62962000D03*
D20*
%TO.P,J_esp1,2,Pin_2*%
%TO.N,GND2*%
X93212500Y-60422000D03*
%TO.P,J_esp1,3,Pin_3*%
%TO.N,D15*%
X93212500Y-57882000D03*
%TO.P,J_esp1,4,Pin_4*%
%TO.N,D2*%
X93212500Y-55342000D03*
%TO.P,J_esp1,5,Pin_5*%
%TO.N,D4*%
X93212500Y-52802000D03*
%TO.P,J_esp1,6,Pin_6*%
%TO.N,RX2*%
X93212500Y-50262000D03*
%TO.P,J_esp1,7,Pin_7*%
%TO.N,TX2*%
X93212500Y-47722000D03*
%TO.P,J_esp1,8,Pin_8*%
%TO.N,D5*%
X93212500Y-45182000D03*
%TO.P,J_esp1,9,Pin_9*%
%TO.N,D18*%
X93212500Y-42642000D03*
%TO.P,J_esp1,10,Pin_10*%
%TO.N,D19*%
X93212500Y-40102000D03*
%TO.P,J_esp1,11,Pin_11*%
%TO.N,D21*%
X93212500Y-37562000D03*
%TO.P,J_esp1,12,Pin_12*%
%TO.N,RX0*%
X93212500Y-35022000D03*
%TO.P,J_esp1,13,Pin_13*%
%TO.N,TX0*%
X93212500Y-32482000D03*
%TO.P,J_esp1,14,Pin_14*%
%TO.N,D22*%
X93212500Y-29942000D03*
%TO.P,J_esp1,15,Pin_15*%
%TO.N,D23*%
X93212500Y-27402000D03*
%TD*%
D28*
%TO.N,D35*%
X56985000Y-75322000D02*
X57125000Y-75182000D01*
X52925000Y-75322000D02*
X56985000Y-75322000D01*
%TO.N,D32*%
X68137500Y-40102000D02*
X70657500Y-40102000D01*
X81525000Y-50969500D02*
X81525000Y-77582000D01*
X70657500Y-40102000D02*
X81525000Y-50969500D01*
%TO.N,D33*%
X68137500Y-42642000D02*
X70657500Y-42642000D01*
X70657500Y-42642000D02*
X79025000Y-51009500D01*
X79025000Y-51009500D02*
X79025000Y-77582000D01*
%TO.N,D4*%
X100705000Y-52802000D02*
X103185000Y-50322000D01*
X93212500Y-52802000D02*
X100705000Y-52802000D01*
X103185000Y-50322000D02*
X106385000Y-50322000D01*
%TO.N,D18*%
X97585000Y-42642000D02*
X102725000Y-47782000D01*
X102725000Y-47782000D02*
X106385000Y-47782000D01*
X93212500Y-42642000D02*
X97585000Y-42642000D01*
%TO.N,D19*%
X93212500Y-40102000D02*
X101245000Y-40102000D01*
X101245000Y-40102000D02*
X106385000Y-45242000D01*
%TO.N,D23*%
X117325000Y-34582000D02*
X117325000Y-44182000D01*
X113725000Y-47782000D02*
X108925000Y-47782000D01*
X117325000Y-44182000D02*
X113725000Y-47782000D01*
X110145000Y-27402000D02*
X117325000Y-34582000D01*
X93212500Y-27402000D02*
X110145000Y-27402000D01*
%TO.N,5v*%
X68117500Y-62982000D02*
X68137500Y-62962000D01*
X47560000Y-38561000D02*
X47560000Y-30982000D01*
X57125000Y-72682000D02*
X66825000Y-72682000D01*
X52925000Y-72782000D02*
X57025000Y-72782000D01*
X60425000Y-60482000D02*
X62925000Y-62982000D01*
X68137500Y-62962000D02*
X68137500Y-71369500D01*
X48941887Y-71055113D02*
X48770000Y-71227000D01*
X57125000Y-60482000D02*
X60425000Y-60482000D01*
X62925000Y-62982000D02*
X62945000Y-62962000D01*
X48877000Y-39878000D02*
X47560000Y-38561000D01*
X62945000Y-62962000D02*
X68137500Y-62962000D01*
X48941887Y-39878000D02*
X48877000Y-39878000D01*
X50325000Y-72782000D02*
X52925000Y-72782000D01*
X48770000Y-71227000D02*
X50325000Y-72782000D01*
X66825000Y-72682000D02*
X68137500Y-71369500D01*
X48941887Y-39878000D02*
X48941887Y-71055113D01*
X57025000Y-72782000D02*
X57125000Y-72682000D01*
%TO.N,GND5V*%
X92125000Y-82582000D02*
X78325000Y-82582000D01*
X61325000Y-57982000D02*
X63765000Y-60422000D01*
X72565000Y-60422000D02*
X68137500Y-60422000D01*
X106385000Y-68322000D02*
X92125000Y-82582000D01*
X52941000Y-38378887D02*
X52941000Y-31363000D01*
X57125000Y-57982000D02*
X61325000Y-57982000D01*
X52560000Y-56617000D02*
X53271000Y-57328000D01*
X76525000Y-64382000D02*
X72565000Y-60422000D01*
X51441887Y-39878000D02*
X51441887Y-55498887D01*
X106385000Y-52862000D02*
X106385000Y-68322000D01*
X51441887Y-39878000D02*
X52941000Y-38378887D01*
X76525000Y-80782000D02*
X76525000Y-77582000D01*
X52560000Y-68817000D02*
X53925000Y-70182000D01*
X76525000Y-77582000D02*
X76525000Y-64382000D01*
X68077500Y-60482000D02*
X68137500Y-60422000D01*
X51441887Y-55498887D02*
X53271000Y-57328000D01*
X53925000Y-70182000D02*
X57125000Y-70182000D01*
X53271000Y-57328000D02*
X53925000Y-57982000D01*
X52560000Y-56617000D02*
X52560000Y-68817000D01*
X63765000Y-60422000D02*
X68137500Y-60422000D01*
X53925000Y-57982000D02*
X57125000Y-57982000D01*
X52941000Y-31363000D02*
X52560000Y-30982000D01*
X78325000Y-82582000D02*
X76525000Y-80782000D01*
%TD*%
M02*
