M48
; DRILL file {KiCad 7.0.3} date mar 20 jun 2023 18:43:08
; FORMAT={-:-/ absolute / inch / decimal}
; #@! TF.CreationDate,2023-06-20T18:43:08-05:00
; #@! TF.GenerationSoftware,Kicad,Pcbnew,7.0.3
; #@! TF.FileFunction,Plated,1,2,PTH
FMAT,2
INCH
; #@! TA.AperFunction,Plated,PTH,ViaDrill
T1C0.0276
; #@! TA.AperFunction,Plated,PTH,ComponentDrill
T2C0.0276
; #@! TA.AperFunction,Plated,PTH,ComponentDrill
T3C0.0300
; #@! TA.AperFunction,Plated,PTH,ComponentDrill
T4C0.0315
; #@! TA.AperFunction,Plated,PTH,ComponentDrill
T5C0.0394
; #@! TA.AperFunction,Plated,PTH,ComponentDrill
T6C0.0429
; #@! TA.AperFunction,Plated,PTH,ComponentDrill
T7C0.0433
; #@! TA.AperFunction,Plated,PTH,ComponentDrill
T8C0.0512
; #@! TA.AperFunction,Plated,PTH,ComponentDrill
T9C0.0520
; #@! TA.AperFunction,Plated,PTH,ComponentDrill
T10C0.0591
; #@! TA.AperFunction,Plated,PTH,ComponentDrill
T11C0.1063
; #@! TA.AperFunction,Plated,PTH,ComponentDrill
T12C0.1260
%
G90
G05
T1
X2.12Y-4.93
X2.69Y-4.93
X2.79Y-4.08
X2.9Y-3.49
X2.92Y-4.93
X3.425Y-2.15
X3.45Y-4.93
X3.6Y-2.54
X3.6Y-2.77
X3.61Y-3.8459
X3.7Y-3.62
X3.7Y-4.93
X4.2Y-3.91
X4.22Y-3.79
X4.3Y-1.8
X4.4113Y-2.4387
X4.4113Y-2.8387
X5.0875Y-2.9875
X5.14Y-4.93
X5.25Y-1.675
X5.275Y-2.1
X5.3096Y-2.35
X5.58Y-4.32
T2
X2.0Y-4.928
X2.0Y-5.128
X2.3Y-4.2
X2.3Y-4.4
X2.4Y-4.3
X2.6469Y-4.107
X2.6469Y-4.307
X2.81Y-4.9298
X2.81Y-5.1298
X3.16Y-4.2
X3.16Y-4.4
X3.26Y-4.3
X3.5269Y-4.097
X3.5269Y-4.297
X3.57Y-4.9298
X3.57Y-5.1298
X4.03Y-4.2
X4.03Y-4.4
X4.13Y-4.3
X4.3669Y-4.107
X4.3669Y-4.307
X4.81Y-4.2
X4.81Y-4.4
X4.91Y-4.3
X5.175Y-3.0735
X5.175Y-3.1735
X5.19Y-4.102
X5.19Y-4.302
X5.27Y-4.928
X5.27Y-5.128
T3
X2.268Y-5.025
X2.268Y-5.1266
X2.268Y-5.53
X2.268Y-5.815
X3.0731Y-5.03
X3.0731Y-5.1316
X3.0731Y-5.535
X3.0731Y-5.82
X3.8531Y-5.035
X3.8531Y-5.1366
X3.8531Y-5.54
X3.8531Y-5.825
T4
X3.3446Y-1.3426
X3.3446Y-1.441
X3.6446Y-1.3408
X3.6446Y-1.4393
T5
X5.48Y-5.2077
X5.9524Y-5.2077
T6
X3.1762Y-2.1418
X3.1762Y-2.2418
X3.1762Y-2.3418
X3.1762Y-2.4418
X3.1762Y-2.5418
X3.1762Y-2.6418
X3.1762Y-2.7418
X3.1762Y-2.8418
X3.1762Y-2.9418
X3.1762Y-3.0418
X3.1762Y-3.1418
X3.1762Y-3.2418
X3.1762Y-3.3418
X3.1762Y-3.4418
X3.1762Y-3.5418
X4.1423Y-2.1387
X4.1423Y-2.2387
X4.1423Y-2.3387
X4.1423Y-2.4387
X4.1423Y-2.5387
X4.1423Y-2.6387
X4.1423Y-2.7387
X4.1423Y-2.8387
X4.1423Y-2.9387
X4.1423Y-3.0387
X4.1423Y-3.1387
X4.1423Y-3.2387
X4.1423Y-3.3387
X4.1423Y-3.4387
X4.1423Y-3.5387
T7
X2.4748Y-4.72
X2.4748Y-5.12
X3.31Y-4.73
X3.31Y-5.13
X4.1Y-4.74
X4.1Y-5.14
X5.01Y-4.8
X5.01Y-5.2
T8
X5.478Y-5.69
X5.7142Y-5.1309
X5.9524Y-5.688
T9
X2.26Y-6.35
X2.4569Y-6.35
X3.0731Y-6.36
X3.27Y-6.36
X3.8531Y-6.36
X4.0046Y-1.3918
X4.05Y-6.36
X4.2015Y-1.3918
X4.4731Y-6.36
X4.67Y-6.36
X5.1443Y-6.35
X5.3411Y-6.35
X5.7411Y-6.35
X5.938Y-6.35
T10
X5.7708Y-2.3338
X5.7708Y-2.5306
X5.7708Y-2.7275
X5.7708Y-3.0338
X5.7708Y-3.2306
X5.7708Y-3.4275
X5.775Y-1.8
X5.775Y-1.9969
T11
X2.1211Y-1.245
X2.69Y-5.8
X4.92Y-5.8
X6.025Y-1.245
T12
X2.1358Y-3.78
X6.0211Y-3.79
T0
M30
