%TF.GenerationSoftware,KiCad,Pcbnew,7.0.3*%
%TF.CreationDate,2023-07-15T06:29:25-05:00*%
%TF.ProjectId,intregration1,696e7472-6567-4726-9174-696f6e312e6b,rev?*%
%TF.SameCoordinates,Original*%
%TF.FileFunction,Legend,Bot*%
%TF.FilePolarity,Positive*%
%FSLAX46Y46*%
G04 Gerber Fmt 4.6, Leading zero omitted, Abs format (unit mm)*
G04 Created by KiCad (PCBNEW 7.0.3) date 2023-07-15 06:29:25*
%MOMM*%
%LPD*%
G01*
G04 APERTURE LIST*
%ADD10C,0.150000*%
%ADD11C,0.120000*%
G04 APERTURE END LIST*
D10*
%TO.C,R1*%
X133819819Y-79269517D02*
X133343628Y-78936184D01*
X133819819Y-78698089D02*
X132819819Y-78698089D01*
X132819819Y-78698089D02*
X132819819Y-79079041D01*
X132819819Y-79079041D02*
X132867438Y-79174279D01*
X132867438Y-79174279D02*
X132915057Y-79221898D01*
X132915057Y-79221898D02*
X133010295Y-79269517D01*
X133010295Y-79269517D02*
X133153152Y-79269517D01*
X133153152Y-79269517D02*
X133248390Y-79221898D01*
X133248390Y-79221898D02*
X133296009Y-79174279D01*
X133296009Y-79174279D02*
X133343628Y-79079041D01*
X133343628Y-79079041D02*
X133343628Y-78698089D01*
X133819819Y-80221898D02*
X133819819Y-79650470D01*
X133819819Y-79936184D02*
X132819819Y-79936184D01*
X132819819Y-79936184D02*
X132962676Y-79840946D01*
X132962676Y-79840946D02*
X133057914Y-79745708D01*
X133057914Y-79745708D02*
X133105533Y-79650470D01*
%TO.C,D2*%
X107064819Y-124836589D02*
X106064819Y-124836589D01*
X106064819Y-124836589D02*
X106064819Y-125074684D01*
X106064819Y-125074684D02*
X106112438Y-125217541D01*
X106112438Y-125217541D02*
X106207676Y-125312779D01*
X106207676Y-125312779D02*
X106302914Y-125360398D01*
X106302914Y-125360398D02*
X106493390Y-125408017D01*
X106493390Y-125408017D02*
X106636247Y-125408017D01*
X106636247Y-125408017D02*
X106826723Y-125360398D01*
X106826723Y-125360398D02*
X106921961Y-125312779D01*
X106921961Y-125312779D02*
X107017200Y-125217541D01*
X107017200Y-125217541D02*
X107064819Y-125074684D01*
X107064819Y-125074684D02*
X107064819Y-124836589D01*
X106160057Y-125788970D02*
X106112438Y-125836589D01*
X106112438Y-125836589D02*
X106064819Y-125931827D01*
X106064819Y-125931827D02*
X106064819Y-126169922D01*
X106064819Y-126169922D02*
X106112438Y-126265160D01*
X106112438Y-126265160D02*
X106160057Y-126312779D01*
X106160057Y-126312779D02*
X106255295Y-126360398D01*
X106255295Y-126360398D02*
X106350533Y-126360398D01*
X106350533Y-126360398D02*
X106493390Y-126312779D01*
X106493390Y-126312779D02*
X107064819Y-125741351D01*
X107064819Y-125741351D02*
X107064819Y-126360398D01*
X106694819Y-130392779D02*
X105694819Y-130392779D01*
X106694819Y-130964207D02*
X106123390Y-130535636D01*
X105694819Y-130964207D02*
X106266247Y-130392779D01*
%TO.C,R2*%
X65764819Y-106789017D02*
X65288628Y-106455684D01*
X65764819Y-106217589D02*
X64764819Y-106217589D01*
X64764819Y-106217589D02*
X64764819Y-106598541D01*
X64764819Y-106598541D02*
X64812438Y-106693779D01*
X64812438Y-106693779D02*
X64860057Y-106741398D01*
X64860057Y-106741398D02*
X64955295Y-106789017D01*
X64955295Y-106789017D02*
X65098152Y-106789017D01*
X65098152Y-106789017D02*
X65193390Y-106741398D01*
X65193390Y-106741398D02*
X65241009Y-106693779D01*
X65241009Y-106693779D02*
X65288628Y-106598541D01*
X65288628Y-106598541D02*
X65288628Y-106217589D01*
X64860057Y-107169970D02*
X64812438Y-107217589D01*
X64812438Y-107217589D02*
X64764819Y-107312827D01*
X64764819Y-107312827D02*
X64764819Y-107550922D01*
X64764819Y-107550922D02*
X64812438Y-107646160D01*
X64812438Y-107646160D02*
X64860057Y-107693779D01*
X64860057Y-107693779D02*
X64955295Y-107741398D01*
X64955295Y-107741398D02*
X65050533Y-107741398D01*
X65050533Y-107741398D02*
X65193390Y-107693779D01*
X65193390Y-107693779D02*
X65764819Y-107122351D01*
X65764819Y-107122351D02*
X65764819Y-107741398D01*
%TO.C,J_fan1*%
X61496078Y-166459819D02*
X61496078Y-167174104D01*
X61496078Y-167174104D02*
X61543697Y-167316961D01*
X61543697Y-167316961D02*
X61638935Y-167412200D01*
X61638935Y-167412200D02*
X61781792Y-167459819D01*
X61781792Y-167459819D02*
X61877030Y-167459819D01*
X61257983Y-167555057D02*
X60496078Y-167555057D01*
X60400839Y-166793152D02*
X60019887Y-166793152D01*
X60257982Y-167459819D02*
X60257982Y-166602676D01*
X60257982Y-166602676D02*
X60210363Y-166507438D01*
X60210363Y-166507438D02*
X60115125Y-166459819D01*
X60115125Y-166459819D02*
X60019887Y-166459819D01*
X59257982Y-167459819D02*
X59257982Y-166936009D01*
X59257982Y-166936009D02*
X59305601Y-166840771D01*
X59305601Y-166840771D02*
X59400839Y-166793152D01*
X59400839Y-166793152D02*
X59591315Y-166793152D01*
X59591315Y-166793152D02*
X59686553Y-166840771D01*
X59257982Y-167412200D02*
X59353220Y-167459819D01*
X59353220Y-167459819D02*
X59591315Y-167459819D01*
X59591315Y-167459819D02*
X59686553Y-167412200D01*
X59686553Y-167412200D02*
X59734172Y-167316961D01*
X59734172Y-167316961D02*
X59734172Y-167221723D01*
X59734172Y-167221723D02*
X59686553Y-167126485D01*
X59686553Y-167126485D02*
X59591315Y-167078866D01*
X59591315Y-167078866D02*
X59353220Y-167078866D01*
X59353220Y-167078866D02*
X59257982Y-167031247D01*
X58781791Y-166793152D02*
X58781791Y-167459819D01*
X58781791Y-166888390D02*
X58734172Y-166840771D01*
X58734172Y-166840771D02*
X58638934Y-166793152D01*
X58638934Y-166793152D02*
X58496077Y-166793152D01*
X58496077Y-166793152D02*
X58400839Y-166840771D01*
X58400839Y-166840771D02*
X58353220Y-166936009D01*
X58353220Y-166936009D02*
X58353220Y-167459819D01*
X57353220Y-167459819D02*
X57924648Y-167459819D01*
X57638934Y-167459819D02*
X57638934Y-166459819D01*
X57638934Y-166459819D02*
X57734172Y-166602676D01*
X57734172Y-166602676D02*
X57829410Y-166697914D01*
X57829410Y-166697914D02*
X57924648Y-166745533D01*
%TO.C,5V1*%
X109204982Y-27816819D02*
X109681172Y-27816819D01*
X109681172Y-27816819D02*
X109728791Y-28293009D01*
X109728791Y-28293009D02*
X109681172Y-28245390D01*
X109681172Y-28245390D02*
X109585934Y-28197771D01*
X109585934Y-28197771D02*
X109347839Y-28197771D01*
X109347839Y-28197771D02*
X109252601Y-28245390D01*
X109252601Y-28245390D02*
X109204982Y-28293009D01*
X109204982Y-28293009D02*
X109157363Y-28388247D01*
X109157363Y-28388247D02*
X109157363Y-28626342D01*
X109157363Y-28626342D02*
X109204982Y-28721580D01*
X109204982Y-28721580D02*
X109252601Y-28769200D01*
X109252601Y-28769200D02*
X109347839Y-28816819D01*
X109347839Y-28816819D02*
X109585934Y-28816819D01*
X109585934Y-28816819D02*
X109681172Y-28769200D01*
X109681172Y-28769200D02*
X109728791Y-28721580D01*
X108871648Y-27816819D02*
X108538315Y-28816819D01*
X108538315Y-28816819D02*
X108204982Y-27816819D01*
X107347839Y-28816819D02*
X107919267Y-28816819D01*
X107633553Y-28816819D02*
X107633553Y-27816819D01*
X107633553Y-27816819D02*
X107728791Y-27959676D01*
X107728791Y-27959676D02*
X107824029Y-28054914D01*
X107824029Y-28054914D02*
X107919267Y-28102533D01*
%TO.C,R5*%
X130360819Y-106662017D02*
X129884628Y-106328684D01*
X130360819Y-106090589D02*
X129360819Y-106090589D01*
X129360819Y-106090589D02*
X129360819Y-106471541D01*
X129360819Y-106471541D02*
X129408438Y-106566779D01*
X129408438Y-106566779D02*
X129456057Y-106614398D01*
X129456057Y-106614398D02*
X129551295Y-106662017D01*
X129551295Y-106662017D02*
X129694152Y-106662017D01*
X129694152Y-106662017D02*
X129789390Y-106614398D01*
X129789390Y-106614398D02*
X129837009Y-106566779D01*
X129837009Y-106566779D02*
X129884628Y-106471541D01*
X129884628Y-106471541D02*
X129884628Y-106090589D01*
X129360819Y-107566779D02*
X129360819Y-107090589D01*
X129360819Y-107090589D02*
X129837009Y-107042970D01*
X129837009Y-107042970D02*
X129789390Y-107090589D01*
X129789390Y-107090589D02*
X129741771Y-107185827D01*
X129741771Y-107185827D02*
X129741771Y-107423922D01*
X129741771Y-107423922D02*
X129789390Y-107519160D01*
X129789390Y-107519160D02*
X129837009Y-107566779D01*
X129837009Y-107566779D02*
X129932247Y-107614398D01*
X129932247Y-107614398D02*
X130170342Y-107614398D01*
X130170342Y-107614398D02*
X130265580Y-107566779D01*
X130265580Y-107566779D02*
X130313200Y-107519160D01*
X130313200Y-107519160D02*
X130360819Y-107423922D01*
X130360819Y-107423922D02*
X130360819Y-107185827D01*
X130360819Y-107185827D02*
X130313200Y-107090589D01*
X130313200Y-107090589D02*
X130265580Y-107042970D01*
%TO.C,J_LOAD2*%
X140057744Y-153754819D02*
X140057744Y-154469104D01*
X140057744Y-154469104D02*
X140105363Y-154611961D01*
X140105363Y-154611961D02*
X140200601Y-154707200D01*
X140200601Y-154707200D02*
X140343458Y-154754819D01*
X140343458Y-154754819D02*
X140438696Y-154754819D01*
X139819649Y-154850057D02*
X139057744Y-154850057D01*
X138343458Y-154754819D02*
X138819648Y-154754819D01*
X138819648Y-154754819D02*
X138819648Y-153754819D01*
X137819648Y-153754819D02*
X137629172Y-153754819D01*
X137629172Y-153754819D02*
X137533934Y-153802438D01*
X137533934Y-153802438D02*
X137438696Y-153897676D01*
X137438696Y-153897676D02*
X137391077Y-154088152D01*
X137391077Y-154088152D02*
X137391077Y-154421485D01*
X137391077Y-154421485D02*
X137438696Y-154611961D01*
X137438696Y-154611961D02*
X137533934Y-154707200D01*
X137533934Y-154707200D02*
X137629172Y-154754819D01*
X137629172Y-154754819D02*
X137819648Y-154754819D01*
X137819648Y-154754819D02*
X137914886Y-154707200D01*
X137914886Y-154707200D02*
X138010124Y-154611961D01*
X138010124Y-154611961D02*
X138057743Y-154421485D01*
X138057743Y-154421485D02*
X138057743Y-154088152D01*
X138057743Y-154088152D02*
X138010124Y-153897676D01*
X138010124Y-153897676D02*
X137914886Y-153802438D01*
X137914886Y-153802438D02*
X137819648Y-153754819D01*
X137010124Y-154469104D02*
X136533934Y-154469104D01*
X137105362Y-154754819D02*
X136772029Y-153754819D01*
X136772029Y-153754819D02*
X136438696Y-154754819D01*
X136105362Y-154754819D02*
X136105362Y-153754819D01*
X136105362Y-153754819D02*
X135867267Y-153754819D01*
X135867267Y-153754819D02*
X135724410Y-153802438D01*
X135724410Y-153802438D02*
X135629172Y-153897676D01*
X135629172Y-153897676D02*
X135581553Y-153992914D01*
X135581553Y-153992914D02*
X135533934Y-154183390D01*
X135533934Y-154183390D02*
X135533934Y-154326247D01*
X135533934Y-154326247D02*
X135581553Y-154516723D01*
X135581553Y-154516723D02*
X135629172Y-154611961D01*
X135629172Y-154611961D02*
X135724410Y-154707200D01*
X135724410Y-154707200D02*
X135867267Y-154754819D01*
X135867267Y-154754819D02*
X136105362Y-154754819D01*
X135152981Y-153850057D02*
X135105362Y-153802438D01*
X135105362Y-153802438D02*
X135010124Y-153754819D01*
X135010124Y-153754819D02*
X134772029Y-153754819D01*
X134772029Y-153754819D02*
X134676791Y-153802438D01*
X134676791Y-153802438D02*
X134629172Y-153850057D01*
X134629172Y-153850057D02*
X134581553Y-153945295D01*
X134581553Y-153945295D02*
X134581553Y-154040533D01*
X134581553Y-154040533D02*
X134629172Y-154183390D01*
X134629172Y-154183390D02*
X135200600Y-154754819D01*
X135200600Y-154754819D02*
X134581553Y-154754819D01*
%TO.C,H6*%
X54913220Y-92666819D02*
X54913220Y-91666819D01*
X54913220Y-92143009D02*
X54341792Y-92143009D01*
X54341792Y-92666819D02*
X54341792Y-91666819D01*
X53437030Y-91666819D02*
X53627506Y-91666819D01*
X53627506Y-91666819D02*
X53722744Y-91714438D01*
X53722744Y-91714438D02*
X53770363Y-91762057D01*
X53770363Y-91762057D02*
X53865601Y-91904914D01*
X53865601Y-91904914D02*
X53913220Y-92095390D01*
X53913220Y-92095390D02*
X53913220Y-92476342D01*
X53913220Y-92476342D02*
X53865601Y-92571580D01*
X53865601Y-92571580D02*
X53817982Y-92619200D01*
X53817982Y-92619200D02*
X53722744Y-92666819D01*
X53722744Y-92666819D02*
X53532268Y-92666819D01*
X53532268Y-92666819D02*
X53437030Y-92619200D01*
X53437030Y-92619200D02*
X53389411Y-92571580D01*
X53389411Y-92571580D02*
X53341792Y-92476342D01*
X53341792Y-92476342D02*
X53341792Y-92238247D01*
X53341792Y-92238247D02*
X53389411Y-92143009D01*
X53389411Y-92143009D02*
X53437030Y-92095390D01*
X53437030Y-92095390D02*
X53532268Y-92047771D01*
X53532268Y-92047771D02*
X53722744Y-92047771D01*
X53722744Y-92047771D02*
X53817982Y-92095390D01*
X53817982Y-92095390D02*
X53865601Y-92143009D01*
X53865601Y-92143009D02*
X53913220Y-92238247D01*
%TO.C,D6*%
X123094819Y-44445589D02*
X122094819Y-44445589D01*
X122094819Y-44445589D02*
X122094819Y-44683684D01*
X122094819Y-44683684D02*
X122142438Y-44826541D01*
X122142438Y-44826541D02*
X122237676Y-44921779D01*
X122237676Y-44921779D02*
X122332914Y-44969398D01*
X122332914Y-44969398D02*
X122523390Y-45017017D01*
X122523390Y-45017017D02*
X122666247Y-45017017D01*
X122666247Y-45017017D02*
X122856723Y-44969398D01*
X122856723Y-44969398D02*
X122951961Y-44921779D01*
X122951961Y-44921779D02*
X123047200Y-44826541D01*
X123047200Y-44826541D02*
X123094819Y-44683684D01*
X123094819Y-44683684D02*
X123094819Y-44445589D01*
X122094819Y-45874160D02*
X122094819Y-45683684D01*
X122094819Y-45683684D02*
X122142438Y-45588446D01*
X122142438Y-45588446D02*
X122190057Y-45540827D01*
X122190057Y-45540827D02*
X122332914Y-45445589D01*
X122332914Y-45445589D02*
X122523390Y-45397970D01*
X122523390Y-45397970D02*
X122904342Y-45397970D01*
X122904342Y-45397970D02*
X122999580Y-45445589D01*
X122999580Y-45445589D02*
X123047200Y-45493208D01*
X123047200Y-45493208D02*
X123094819Y-45588446D01*
X123094819Y-45588446D02*
X123094819Y-45778922D01*
X123094819Y-45778922D02*
X123047200Y-45874160D01*
X123047200Y-45874160D02*
X122999580Y-45921779D01*
X122999580Y-45921779D02*
X122904342Y-45969398D01*
X122904342Y-45969398D02*
X122666247Y-45969398D01*
X122666247Y-45969398D02*
X122571009Y-45921779D01*
X122571009Y-45921779D02*
X122523390Y-45874160D01*
X122523390Y-45874160D02*
X122475771Y-45778922D01*
X122475771Y-45778922D02*
X122475771Y-45588446D01*
X122475771Y-45588446D02*
X122523390Y-45493208D01*
X122523390Y-45493208D02*
X122571009Y-45445589D01*
X122571009Y-45445589D02*
X122666247Y-45397970D01*
X124519819Y-37301779D02*
X123519819Y-37301779D01*
X124519819Y-37873207D02*
X123948390Y-37444636D01*
X123519819Y-37873207D02*
X124091247Y-37301779D01*
%TO.C,J2*%
X138832319Y-59042850D02*
X139546604Y-59042850D01*
X139546604Y-59042850D02*
X139689461Y-58995231D01*
X139689461Y-58995231D02*
X139784700Y-58899993D01*
X139784700Y-58899993D02*
X139832319Y-58757136D01*
X139832319Y-58757136D02*
X139832319Y-58661898D01*
X138927557Y-59471422D02*
X138879938Y-59519041D01*
X138879938Y-59519041D02*
X138832319Y-59614279D01*
X138832319Y-59614279D02*
X138832319Y-59852374D01*
X138832319Y-59852374D02*
X138879938Y-59947612D01*
X138879938Y-59947612D02*
X138927557Y-59995231D01*
X138927557Y-59995231D02*
X139022795Y-60042850D01*
X139022795Y-60042850D02*
X139118033Y-60042850D01*
X139118033Y-60042850D02*
X139260890Y-59995231D01*
X139260890Y-59995231D02*
X139832319Y-59423803D01*
X139832319Y-59423803D02*
X139832319Y-60042850D01*
%TO.C,H2*%
X153698220Y-28377819D02*
X153698220Y-27377819D01*
X153698220Y-27854009D02*
X153126792Y-27854009D01*
X153126792Y-28377819D02*
X153126792Y-27377819D01*
X152698220Y-27473057D02*
X152650601Y-27425438D01*
X152650601Y-27425438D02*
X152555363Y-27377819D01*
X152555363Y-27377819D02*
X152317268Y-27377819D01*
X152317268Y-27377819D02*
X152222030Y-27425438D01*
X152222030Y-27425438D02*
X152174411Y-27473057D01*
X152174411Y-27473057D02*
X152126792Y-27568295D01*
X152126792Y-27568295D02*
X152126792Y-27663533D01*
X152126792Y-27663533D02*
X152174411Y-27806390D01*
X152174411Y-27806390D02*
X152745839Y-28377819D01*
X152745839Y-28377819D02*
X152126792Y-28377819D01*
%TO.C,J1*%
X138832319Y-76822850D02*
X139546604Y-76822850D01*
X139546604Y-76822850D02*
X139689461Y-76775231D01*
X139689461Y-76775231D02*
X139784700Y-76679993D01*
X139784700Y-76679993D02*
X139832319Y-76537136D01*
X139832319Y-76537136D02*
X139832319Y-76441898D01*
X139832319Y-77822850D02*
X139832319Y-77251422D01*
X139832319Y-77537136D02*
X138832319Y-77537136D01*
X138832319Y-77537136D02*
X138975176Y-77441898D01*
X138975176Y-77441898D02*
X139070414Y-77346660D01*
X139070414Y-77346660D02*
X139118033Y-77251422D01*
%TO.C,J_AC_INPUT1*%
X120296792Y-165824819D02*
X120296792Y-166539104D01*
X120296792Y-166539104D02*
X120344411Y-166681961D01*
X120344411Y-166681961D02*
X120439649Y-166777200D01*
X120439649Y-166777200D02*
X120582506Y-166824819D01*
X120582506Y-166824819D02*
X120677744Y-166824819D01*
X120058697Y-166920057D02*
X119296792Y-166920057D01*
X119106315Y-166539104D02*
X118630125Y-166539104D01*
X119201553Y-166824819D02*
X118868220Y-165824819D01*
X118868220Y-165824819D02*
X118534887Y-166824819D01*
X117630125Y-166729580D02*
X117677744Y-166777200D01*
X117677744Y-166777200D02*
X117820601Y-166824819D01*
X117820601Y-166824819D02*
X117915839Y-166824819D01*
X117915839Y-166824819D02*
X118058696Y-166777200D01*
X118058696Y-166777200D02*
X118153934Y-166681961D01*
X118153934Y-166681961D02*
X118201553Y-166586723D01*
X118201553Y-166586723D02*
X118249172Y-166396247D01*
X118249172Y-166396247D02*
X118249172Y-166253390D01*
X118249172Y-166253390D02*
X118201553Y-166062914D01*
X118201553Y-166062914D02*
X118153934Y-165967676D01*
X118153934Y-165967676D02*
X118058696Y-165872438D01*
X118058696Y-165872438D02*
X117915839Y-165824819D01*
X117915839Y-165824819D02*
X117820601Y-165824819D01*
X117820601Y-165824819D02*
X117677744Y-165872438D01*
X117677744Y-165872438D02*
X117630125Y-165920057D01*
X117439649Y-166920057D02*
X116677744Y-166920057D01*
X116439648Y-166824819D02*
X116439648Y-165824819D01*
X115963458Y-166824819D02*
X115963458Y-165824819D01*
X115963458Y-165824819D02*
X115392030Y-166824819D01*
X115392030Y-166824819D02*
X115392030Y-165824819D01*
X114915839Y-166824819D02*
X114915839Y-165824819D01*
X114915839Y-165824819D02*
X114534887Y-165824819D01*
X114534887Y-165824819D02*
X114439649Y-165872438D01*
X114439649Y-165872438D02*
X114392030Y-165920057D01*
X114392030Y-165920057D02*
X114344411Y-166015295D01*
X114344411Y-166015295D02*
X114344411Y-166158152D01*
X114344411Y-166158152D02*
X114392030Y-166253390D01*
X114392030Y-166253390D02*
X114439649Y-166301009D01*
X114439649Y-166301009D02*
X114534887Y-166348628D01*
X114534887Y-166348628D02*
X114915839Y-166348628D01*
X113915839Y-165824819D02*
X113915839Y-166634342D01*
X113915839Y-166634342D02*
X113868220Y-166729580D01*
X113868220Y-166729580D02*
X113820601Y-166777200D01*
X113820601Y-166777200D02*
X113725363Y-166824819D01*
X113725363Y-166824819D02*
X113534887Y-166824819D01*
X113534887Y-166824819D02*
X113439649Y-166777200D01*
X113439649Y-166777200D02*
X113392030Y-166729580D01*
X113392030Y-166729580D02*
X113344411Y-166634342D01*
X113344411Y-166634342D02*
X113344411Y-165824819D01*
X113011077Y-165824819D02*
X112439649Y-165824819D01*
X112725363Y-166824819D02*
X112725363Y-165824819D01*
X111582506Y-166824819D02*
X112153934Y-166824819D01*
X111868220Y-166824819D02*
X111868220Y-165824819D01*
X111868220Y-165824819D02*
X111963458Y-165967676D01*
X111963458Y-165967676D02*
X112058696Y-166062914D01*
X112058696Y-166062914D02*
X112153934Y-166110533D01*
%TO.C,J_LOAD1*%
X155217744Y-153754819D02*
X155217744Y-154469104D01*
X155217744Y-154469104D02*
X155265363Y-154611961D01*
X155265363Y-154611961D02*
X155360601Y-154707200D01*
X155360601Y-154707200D02*
X155503458Y-154754819D01*
X155503458Y-154754819D02*
X155598696Y-154754819D01*
X154979649Y-154850057D02*
X154217744Y-154850057D01*
X153503458Y-154754819D02*
X153979648Y-154754819D01*
X153979648Y-154754819D02*
X153979648Y-153754819D01*
X152979648Y-153754819D02*
X152789172Y-153754819D01*
X152789172Y-153754819D02*
X152693934Y-153802438D01*
X152693934Y-153802438D02*
X152598696Y-153897676D01*
X152598696Y-153897676D02*
X152551077Y-154088152D01*
X152551077Y-154088152D02*
X152551077Y-154421485D01*
X152551077Y-154421485D02*
X152598696Y-154611961D01*
X152598696Y-154611961D02*
X152693934Y-154707200D01*
X152693934Y-154707200D02*
X152789172Y-154754819D01*
X152789172Y-154754819D02*
X152979648Y-154754819D01*
X152979648Y-154754819D02*
X153074886Y-154707200D01*
X153074886Y-154707200D02*
X153170124Y-154611961D01*
X153170124Y-154611961D02*
X153217743Y-154421485D01*
X153217743Y-154421485D02*
X153217743Y-154088152D01*
X153217743Y-154088152D02*
X153170124Y-153897676D01*
X153170124Y-153897676D02*
X153074886Y-153802438D01*
X153074886Y-153802438D02*
X152979648Y-153754819D01*
X152170124Y-154469104D02*
X151693934Y-154469104D01*
X152265362Y-154754819D02*
X151932029Y-153754819D01*
X151932029Y-153754819D02*
X151598696Y-154754819D01*
X151265362Y-154754819D02*
X151265362Y-153754819D01*
X151265362Y-153754819D02*
X151027267Y-153754819D01*
X151027267Y-153754819D02*
X150884410Y-153802438D01*
X150884410Y-153802438D02*
X150789172Y-153897676D01*
X150789172Y-153897676D02*
X150741553Y-153992914D01*
X150741553Y-153992914D02*
X150693934Y-154183390D01*
X150693934Y-154183390D02*
X150693934Y-154326247D01*
X150693934Y-154326247D02*
X150741553Y-154516723D01*
X150741553Y-154516723D02*
X150789172Y-154611961D01*
X150789172Y-154611961D02*
X150884410Y-154707200D01*
X150884410Y-154707200D02*
X151027267Y-154754819D01*
X151027267Y-154754819D02*
X151265362Y-154754819D01*
X149741553Y-154754819D02*
X150312981Y-154754819D01*
X150027267Y-154754819D02*
X150027267Y-153754819D01*
X150027267Y-153754819D02*
X150122505Y-153897676D01*
X150122505Y-153897676D02*
X150217743Y-153992914D01*
X150217743Y-153992914D02*
X150312981Y-154040533D01*
%TO.C,J_esp1*%
X85532180Y-73683316D02*
X84817895Y-73683316D01*
X84817895Y-73683316D02*
X84675038Y-73730935D01*
X84675038Y-73730935D02*
X84579800Y-73826173D01*
X84579800Y-73826173D02*
X84532180Y-73969030D01*
X84532180Y-73969030D02*
X84532180Y-74064268D01*
X84436942Y-73445221D02*
X84436942Y-72683316D01*
X84579800Y-72064268D02*
X84532180Y-72159506D01*
X84532180Y-72159506D02*
X84532180Y-72349982D01*
X84532180Y-72349982D02*
X84579800Y-72445220D01*
X84579800Y-72445220D02*
X84675038Y-72492839D01*
X84675038Y-72492839D02*
X85055990Y-72492839D01*
X85055990Y-72492839D02*
X85151228Y-72445220D01*
X85151228Y-72445220D02*
X85198847Y-72349982D01*
X85198847Y-72349982D02*
X85198847Y-72159506D01*
X85198847Y-72159506D02*
X85151228Y-72064268D01*
X85151228Y-72064268D02*
X85055990Y-72016649D01*
X85055990Y-72016649D02*
X84960752Y-72016649D01*
X84960752Y-72016649D02*
X84865514Y-72492839D01*
X84579800Y-71635696D02*
X84532180Y-71540458D01*
X84532180Y-71540458D02*
X84532180Y-71349982D01*
X84532180Y-71349982D02*
X84579800Y-71254744D01*
X84579800Y-71254744D02*
X84675038Y-71207125D01*
X84675038Y-71207125D02*
X84722657Y-71207125D01*
X84722657Y-71207125D02*
X84817895Y-71254744D01*
X84817895Y-71254744D02*
X84865514Y-71349982D01*
X84865514Y-71349982D02*
X84865514Y-71492839D01*
X84865514Y-71492839D02*
X84913133Y-71588077D01*
X84913133Y-71588077D02*
X85008371Y-71635696D01*
X85008371Y-71635696D02*
X85055990Y-71635696D01*
X85055990Y-71635696D02*
X85151228Y-71588077D01*
X85151228Y-71588077D02*
X85198847Y-71492839D01*
X85198847Y-71492839D02*
X85198847Y-71349982D01*
X85198847Y-71349982D02*
X85151228Y-71254744D01*
X85198847Y-70778553D02*
X84198847Y-70778553D01*
X85151228Y-70778553D02*
X85198847Y-70683315D01*
X85198847Y-70683315D02*
X85198847Y-70492839D01*
X85198847Y-70492839D02*
X85151228Y-70397601D01*
X85151228Y-70397601D02*
X85103609Y-70349982D01*
X85103609Y-70349982D02*
X85008371Y-70302363D01*
X85008371Y-70302363D02*
X84722657Y-70302363D01*
X84722657Y-70302363D02*
X84627419Y-70349982D01*
X84627419Y-70349982D02*
X84579800Y-70397601D01*
X84579800Y-70397601D02*
X84532180Y-70492839D01*
X84532180Y-70492839D02*
X84532180Y-70683315D01*
X84532180Y-70683315D02*
X84579800Y-70778553D01*
X84532180Y-69349982D02*
X84532180Y-69921410D01*
X84532180Y-69635696D02*
X85532180Y-69635696D01*
X85532180Y-69635696D02*
X85389323Y-69730934D01*
X85389323Y-69730934D02*
X85294085Y-69826172D01*
X85294085Y-69826172D02*
X85246466Y-69921410D01*
%TO.C,Q2*%
X97092057Y-109223445D02*
X97044438Y-109128207D01*
X97044438Y-109128207D02*
X96949200Y-109032969D01*
X96949200Y-109032969D02*
X96806342Y-108890112D01*
X96806342Y-108890112D02*
X96758723Y-108794874D01*
X96758723Y-108794874D02*
X96758723Y-108699636D01*
X96996819Y-108747255D02*
X96949200Y-108652017D01*
X96949200Y-108652017D02*
X96853961Y-108556779D01*
X96853961Y-108556779D02*
X96663485Y-108509160D01*
X96663485Y-108509160D02*
X96330152Y-108509160D01*
X96330152Y-108509160D02*
X96139676Y-108556779D01*
X96139676Y-108556779D02*
X96044438Y-108652017D01*
X96044438Y-108652017D02*
X95996819Y-108747255D01*
X95996819Y-108747255D02*
X95996819Y-108937731D01*
X95996819Y-108937731D02*
X96044438Y-109032969D01*
X96044438Y-109032969D02*
X96139676Y-109128207D01*
X96139676Y-109128207D02*
X96330152Y-109175826D01*
X96330152Y-109175826D02*
X96663485Y-109175826D01*
X96663485Y-109175826D02*
X96853961Y-109128207D01*
X96853961Y-109128207D02*
X96949200Y-109032969D01*
X96949200Y-109032969D02*
X96996819Y-108937731D01*
X96996819Y-108937731D02*
X96996819Y-108747255D01*
X96092057Y-109556779D02*
X96044438Y-109604398D01*
X96044438Y-109604398D02*
X95996819Y-109699636D01*
X95996819Y-109699636D02*
X95996819Y-109937731D01*
X95996819Y-109937731D02*
X96044438Y-110032969D01*
X96044438Y-110032969D02*
X96092057Y-110080588D01*
X96092057Y-110080588D02*
X96187295Y-110128207D01*
X96187295Y-110128207D02*
X96282533Y-110128207D01*
X96282533Y-110128207D02*
X96425390Y-110080588D01*
X96425390Y-110080588D02*
X96996819Y-109509160D01*
X96996819Y-109509160D02*
X96996819Y-110128207D01*
%TO.C,J4*%
X153339819Y-50485350D02*
X154054104Y-50485350D01*
X154054104Y-50485350D02*
X154196961Y-50437731D01*
X154196961Y-50437731D02*
X154292200Y-50342493D01*
X154292200Y-50342493D02*
X154339819Y-50199636D01*
X154339819Y-50199636D02*
X154339819Y-50104398D01*
X153673152Y-51390112D02*
X154339819Y-51390112D01*
X153292200Y-51152017D02*
X154006485Y-50913922D01*
X154006485Y-50913922D02*
X154006485Y-51532969D01*
%TO.C,D3*%
X86998819Y-124582589D02*
X85998819Y-124582589D01*
X85998819Y-124582589D02*
X85998819Y-124820684D01*
X85998819Y-124820684D02*
X86046438Y-124963541D01*
X86046438Y-124963541D02*
X86141676Y-125058779D01*
X86141676Y-125058779D02*
X86236914Y-125106398D01*
X86236914Y-125106398D02*
X86427390Y-125154017D01*
X86427390Y-125154017D02*
X86570247Y-125154017D01*
X86570247Y-125154017D02*
X86760723Y-125106398D01*
X86760723Y-125106398D02*
X86855961Y-125058779D01*
X86855961Y-125058779D02*
X86951200Y-124963541D01*
X86951200Y-124963541D02*
X86998819Y-124820684D01*
X86998819Y-124820684D02*
X86998819Y-124582589D01*
X85998819Y-125487351D02*
X85998819Y-126106398D01*
X85998819Y-126106398D02*
X86379771Y-125773065D01*
X86379771Y-125773065D02*
X86379771Y-125915922D01*
X86379771Y-125915922D02*
X86427390Y-126011160D01*
X86427390Y-126011160D02*
X86475009Y-126058779D01*
X86475009Y-126058779D02*
X86570247Y-126106398D01*
X86570247Y-126106398D02*
X86808342Y-126106398D01*
X86808342Y-126106398D02*
X86903580Y-126058779D01*
X86903580Y-126058779D02*
X86951200Y-126011160D01*
X86951200Y-126011160D02*
X86998819Y-125915922D01*
X86998819Y-125915922D02*
X86998819Y-125630208D01*
X86998819Y-125630208D02*
X86951200Y-125534970D01*
X86951200Y-125534970D02*
X86903580Y-125487351D01*
X86628819Y-130138779D02*
X85628819Y-130138779D01*
X86628819Y-130710207D02*
X86057390Y-130281636D01*
X85628819Y-130710207D02*
X86200247Y-130138779D01*
%TO.C,J_esp0*%
X100277680Y-74464316D02*
X99563395Y-74464316D01*
X99563395Y-74464316D02*
X99420538Y-74511935D01*
X99420538Y-74511935D02*
X99325300Y-74607173D01*
X99325300Y-74607173D02*
X99277680Y-74750030D01*
X99277680Y-74750030D02*
X99277680Y-74845268D01*
X99182442Y-74226221D02*
X99182442Y-73464316D01*
X99325300Y-72845268D02*
X99277680Y-72940506D01*
X99277680Y-72940506D02*
X99277680Y-73130982D01*
X99277680Y-73130982D02*
X99325300Y-73226220D01*
X99325300Y-73226220D02*
X99420538Y-73273839D01*
X99420538Y-73273839D02*
X99801490Y-73273839D01*
X99801490Y-73273839D02*
X99896728Y-73226220D01*
X99896728Y-73226220D02*
X99944347Y-73130982D01*
X99944347Y-73130982D02*
X99944347Y-72940506D01*
X99944347Y-72940506D02*
X99896728Y-72845268D01*
X99896728Y-72845268D02*
X99801490Y-72797649D01*
X99801490Y-72797649D02*
X99706252Y-72797649D01*
X99706252Y-72797649D02*
X99611014Y-73273839D01*
X99325300Y-72416696D02*
X99277680Y-72321458D01*
X99277680Y-72321458D02*
X99277680Y-72130982D01*
X99277680Y-72130982D02*
X99325300Y-72035744D01*
X99325300Y-72035744D02*
X99420538Y-71988125D01*
X99420538Y-71988125D02*
X99468157Y-71988125D01*
X99468157Y-71988125D02*
X99563395Y-72035744D01*
X99563395Y-72035744D02*
X99611014Y-72130982D01*
X99611014Y-72130982D02*
X99611014Y-72273839D01*
X99611014Y-72273839D02*
X99658633Y-72369077D01*
X99658633Y-72369077D02*
X99753871Y-72416696D01*
X99753871Y-72416696D02*
X99801490Y-72416696D01*
X99801490Y-72416696D02*
X99896728Y-72369077D01*
X99896728Y-72369077D02*
X99944347Y-72273839D01*
X99944347Y-72273839D02*
X99944347Y-72130982D01*
X99944347Y-72130982D02*
X99896728Y-72035744D01*
X99944347Y-71559553D02*
X98944347Y-71559553D01*
X99896728Y-71559553D02*
X99944347Y-71464315D01*
X99944347Y-71464315D02*
X99944347Y-71273839D01*
X99944347Y-71273839D02*
X99896728Y-71178601D01*
X99896728Y-71178601D02*
X99849109Y-71130982D01*
X99849109Y-71130982D02*
X99753871Y-71083363D01*
X99753871Y-71083363D02*
X99468157Y-71083363D01*
X99468157Y-71083363D02*
X99372919Y-71130982D01*
X99372919Y-71130982D02*
X99325300Y-71178601D01*
X99325300Y-71178601D02*
X99277680Y-71273839D01*
X99277680Y-71273839D02*
X99277680Y-71464315D01*
X99277680Y-71464315D02*
X99325300Y-71559553D01*
X100277680Y-70464315D02*
X100277680Y-70369077D01*
X100277680Y-70369077D02*
X100230061Y-70273839D01*
X100230061Y-70273839D02*
X100182442Y-70226220D01*
X100182442Y-70226220D02*
X100087204Y-70178601D01*
X100087204Y-70178601D02*
X99896728Y-70130982D01*
X99896728Y-70130982D02*
X99658633Y-70130982D01*
X99658633Y-70130982D02*
X99468157Y-70178601D01*
X99468157Y-70178601D02*
X99372919Y-70226220D01*
X99372919Y-70226220D02*
X99325300Y-70273839D01*
X99325300Y-70273839D02*
X99277680Y-70369077D01*
X99277680Y-70369077D02*
X99277680Y-70464315D01*
X99277680Y-70464315D02*
X99325300Y-70559553D01*
X99325300Y-70559553D02*
X99372919Y-70607172D01*
X99372919Y-70607172D02*
X99468157Y-70654791D01*
X99468157Y-70654791D02*
X99658633Y-70702410D01*
X99658633Y-70702410D02*
X99896728Y-70702410D01*
X99896728Y-70702410D02*
X100087204Y-70654791D01*
X100087204Y-70654791D02*
X100182442Y-70607172D01*
X100182442Y-70607172D02*
X100230061Y-70559553D01*
X100230061Y-70559553D02*
X100277680Y-70464315D01*
%TO.C,U_wpump1*%
X93260819Y-133377708D02*
X94070342Y-133377708D01*
X94070342Y-133377708D02*
X94165580Y-133425327D01*
X94165580Y-133425327D02*
X94213200Y-133472946D01*
X94213200Y-133472946D02*
X94260819Y-133568184D01*
X94260819Y-133568184D02*
X94260819Y-133758660D01*
X94260819Y-133758660D02*
X94213200Y-133853898D01*
X94213200Y-133853898D02*
X94165580Y-133901517D01*
X94165580Y-133901517D02*
X94070342Y-133949136D01*
X94070342Y-133949136D02*
X93260819Y-133949136D01*
X94356057Y-134187232D02*
X94356057Y-134949136D01*
X93594152Y-135091994D02*
X94260819Y-135282470D01*
X94260819Y-135282470D02*
X93784628Y-135472946D01*
X93784628Y-135472946D02*
X94260819Y-135663422D01*
X94260819Y-135663422D02*
X93594152Y-135853898D01*
X93594152Y-136234851D02*
X94594152Y-136234851D01*
X93641771Y-136234851D02*
X93594152Y-136330089D01*
X93594152Y-136330089D02*
X93594152Y-136520565D01*
X93594152Y-136520565D02*
X93641771Y-136615803D01*
X93641771Y-136615803D02*
X93689390Y-136663422D01*
X93689390Y-136663422D02*
X93784628Y-136711041D01*
X93784628Y-136711041D02*
X94070342Y-136711041D01*
X94070342Y-136711041D02*
X94165580Y-136663422D01*
X94165580Y-136663422D02*
X94213200Y-136615803D01*
X94213200Y-136615803D02*
X94260819Y-136520565D01*
X94260819Y-136520565D02*
X94260819Y-136330089D01*
X94260819Y-136330089D02*
X94213200Y-136234851D01*
X93594152Y-137568184D02*
X94260819Y-137568184D01*
X93594152Y-137139613D02*
X94117961Y-137139613D01*
X94117961Y-137139613D02*
X94213200Y-137187232D01*
X94213200Y-137187232D02*
X94260819Y-137282470D01*
X94260819Y-137282470D02*
X94260819Y-137425327D01*
X94260819Y-137425327D02*
X94213200Y-137520565D01*
X94213200Y-137520565D02*
X94165580Y-137568184D01*
X94260819Y-138044375D02*
X93594152Y-138044375D01*
X93689390Y-138044375D02*
X93641771Y-138091994D01*
X93641771Y-138091994D02*
X93594152Y-138187232D01*
X93594152Y-138187232D02*
X93594152Y-138330089D01*
X93594152Y-138330089D02*
X93641771Y-138425327D01*
X93641771Y-138425327D02*
X93737009Y-138472946D01*
X93737009Y-138472946D02*
X94260819Y-138472946D01*
X93737009Y-138472946D02*
X93641771Y-138520565D01*
X93641771Y-138520565D02*
X93594152Y-138615803D01*
X93594152Y-138615803D02*
X93594152Y-138758660D01*
X93594152Y-138758660D02*
X93641771Y-138853899D01*
X93641771Y-138853899D02*
X93737009Y-138901518D01*
X93737009Y-138901518D02*
X94260819Y-138901518D01*
X93594152Y-139377708D02*
X94594152Y-139377708D01*
X93641771Y-139377708D02*
X93594152Y-139472946D01*
X93594152Y-139472946D02*
X93594152Y-139663422D01*
X93594152Y-139663422D02*
X93641771Y-139758660D01*
X93641771Y-139758660D02*
X93689390Y-139806279D01*
X93689390Y-139806279D02*
X93784628Y-139853898D01*
X93784628Y-139853898D02*
X94070342Y-139853898D01*
X94070342Y-139853898D02*
X94165580Y-139806279D01*
X94165580Y-139806279D02*
X94213200Y-139758660D01*
X94213200Y-139758660D02*
X94260819Y-139663422D01*
X94260819Y-139663422D02*
X94260819Y-139472946D01*
X94260819Y-139472946D02*
X94213200Y-139377708D01*
X94260819Y-140806279D02*
X94260819Y-140234851D01*
X94260819Y-140520565D02*
X93260819Y-140520565D01*
X93260819Y-140520565D02*
X93403676Y-140425327D01*
X93403676Y-140425327D02*
X93498914Y-140330089D01*
X93498914Y-140330089D02*
X93546533Y-140234851D01*
%TO.C,R3*%
X109452819Y-106789017D02*
X108976628Y-106455684D01*
X109452819Y-106217589D02*
X108452819Y-106217589D01*
X108452819Y-106217589D02*
X108452819Y-106598541D01*
X108452819Y-106598541D02*
X108500438Y-106693779D01*
X108500438Y-106693779D02*
X108548057Y-106741398D01*
X108548057Y-106741398D02*
X108643295Y-106789017D01*
X108643295Y-106789017D02*
X108786152Y-106789017D01*
X108786152Y-106789017D02*
X108881390Y-106741398D01*
X108881390Y-106741398D02*
X108929009Y-106693779D01*
X108929009Y-106693779D02*
X108976628Y-106598541D01*
X108976628Y-106598541D02*
X108976628Y-106217589D01*
X108452819Y-107122351D02*
X108452819Y-107741398D01*
X108452819Y-107741398D02*
X108833771Y-107408065D01*
X108833771Y-107408065D02*
X108833771Y-107550922D01*
X108833771Y-107550922D02*
X108881390Y-107646160D01*
X108881390Y-107646160D02*
X108929009Y-107693779D01*
X108929009Y-107693779D02*
X109024247Y-107741398D01*
X109024247Y-107741398D02*
X109262342Y-107741398D01*
X109262342Y-107741398D02*
X109357580Y-107693779D01*
X109357580Y-107693779D02*
X109405200Y-107646160D01*
X109405200Y-107646160D02*
X109452819Y-107550922D01*
X109452819Y-107550922D02*
X109452819Y-107265208D01*
X109452819Y-107265208D02*
X109405200Y-107169970D01*
X109405200Y-107169970D02*
X109357580Y-107122351D01*
%TO.C,J_oxygen1*%
X83197030Y-165824819D02*
X83197030Y-166539104D01*
X83197030Y-166539104D02*
X83244649Y-166681961D01*
X83244649Y-166681961D02*
X83339887Y-166777200D01*
X83339887Y-166777200D02*
X83482744Y-166824819D01*
X83482744Y-166824819D02*
X83577982Y-166824819D01*
X82958935Y-166920057D02*
X82197030Y-166920057D01*
X81816077Y-166824819D02*
X81911315Y-166777200D01*
X81911315Y-166777200D02*
X81958934Y-166729580D01*
X81958934Y-166729580D02*
X82006553Y-166634342D01*
X82006553Y-166634342D02*
X82006553Y-166348628D01*
X82006553Y-166348628D02*
X81958934Y-166253390D01*
X81958934Y-166253390D02*
X81911315Y-166205771D01*
X81911315Y-166205771D02*
X81816077Y-166158152D01*
X81816077Y-166158152D02*
X81673220Y-166158152D01*
X81673220Y-166158152D02*
X81577982Y-166205771D01*
X81577982Y-166205771D02*
X81530363Y-166253390D01*
X81530363Y-166253390D02*
X81482744Y-166348628D01*
X81482744Y-166348628D02*
X81482744Y-166634342D01*
X81482744Y-166634342D02*
X81530363Y-166729580D01*
X81530363Y-166729580D02*
X81577982Y-166777200D01*
X81577982Y-166777200D02*
X81673220Y-166824819D01*
X81673220Y-166824819D02*
X81816077Y-166824819D01*
X81149410Y-166824819D02*
X80625601Y-166158152D01*
X81149410Y-166158152D02*
X80625601Y-166824819D01*
X80339886Y-166158152D02*
X80101791Y-166824819D01*
X79863696Y-166158152D02*
X80101791Y-166824819D01*
X80101791Y-166824819D02*
X80197029Y-167062914D01*
X80197029Y-167062914D02*
X80244648Y-167110533D01*
X80244648Y-167110533D02*
X80339886Y-167158152D01*
X79054172Y-166158152D02*
X79054172Y-166967676D01*
X79054172Y-166967676D02*
X79101791Y-167062914D01*
X79101791Y-167062914D02*
X79149410Y-167110533D01*
X79149410Y-167110533D02*
X79244648Y-167158152D01*
X79244648Y-167158152D02*
X79387505Y-167158152D01*
X79387505Y-167158152D02*
X79482743Y-167110533D01*
X79054172Y-166777200D02*
X79149410Y-166824819D01*
X79149410Y-166824819D02*
X79339886Y-166824819D01*
X79339886Y-166824819D02*
X79435124Y-166777200D01*
X79435124Y-166777200D02*
X79482743Y-166729580D01*
X79482743Y-166729580D02*
X79530362Y-166634342D01*
X79530362Y-166634342D02*
X79530362Y-166348628D01*
X79530362Y-166348628D02*
X79482743Y-166253390D01*
X79482743Y-166253390D02*
X79435124Y-166205771D01*
X79435124Y-166205771D02*
X79339886Y-166158152D01*
X79339886Y-166158152D02*
X79149410Y-166158152D01*
X79149410Y-166158152D02*
X79054172Y-166205771D01*
X78197029Y-166777200D02*
X78292267Y-166824819D01*
X78292267Y-166824819D02*
X78482743Y-166824819D01*
X78482743Y-166824819D02*
X78577981Y-166777200D01*
X78577981Y-166777200D02*
X78625600Y-166681961D01*
X78625600Y-166681961D02*
X78625600Y-166301009D01*
X78625600Y-166301009D02*
X78577981Y-166205771D01*
X78577981Y-166205771D02*
X78482743Y-166158152D01*
X78482743Y-166158152D02*
X78292267Y-166158152D01*
X78292267Y-166158152D02*
X78197029Y-166205771D01*
X78197029Y-166205771D02*
X78149410Y-166301009D01*
X78149410Y-166301009D02*
X78149410Y-166396247D01*
X78149410Y-166396247D02*
X78625600Y-166491485D01*
X77720838Y-166158152D02*
X77720838Y-166824819D01*
X77720838Y-166253390D02*
X77673219Y-166205771D01*
X77673219Y-166205771D02*
X77577981Y-166158152D01*
X77577981Y-166158152D02*
X77435124Y-166158152D01*
X77435124Y-166158152D02*
X77339886Y-166205771D01*
X77339886Y-166205771D02*
X77292267Y-166301009D01*
X77292267Y-166301009D02*
X77292267Y-166824819D01*
X76292267Y-166824819D02*
X76863695Y-166824819D01*
X76577981Y-166824819D02*
X76577981Y-165824819D01*
X76577981Y-165824819D02*
X76673219Y-165967676D01*
X76673219Y-165967676D02*
X76768457Y-166062914D01*
X76768457Y-166062914D02*
X76863695Y-166110533D01*
%TO.C,H1*%
X54538220Y-28377819D02*
X54538220Y-27377819D01*
X54538220Y-27854009D02*
X53966792Y-27854009D01*
X53966792Y-28377819D02*
X53966792Y-27377819D01*
X52966792Y-28377819D02*
X53538220Y-28377819D01*
X53252506Y-28377819D02*
X53252506Y-27377819D01*
X53252506Y-27377819D02*
X53347744Y-27520676D01*
X53347744Y-27520676D02*
X53442982Y-27615914D01*
X53442982Y-27615914D02*
X53538220Y-27663533D01*
%TO.C,Q1*%
X53150057Y-109223445D02*
X53102438Y-109128207D01*
X53102438Y-109128207D02*
X53007200Y-109032969D01*
X53007200Y-109032969D02*
X52864342Y-108890112D01*
X52864342Y-108890112D02*
X52816723Y-108794874D01*
X52816723Y-108794874D02*
X52816723Y-108699636D01*
X53054819Y-108747255D02*
X53007200Y-108652017D01*
X53007200Y-108652017D02*
X52911961Y-108556779D01*
X52911961Y-108556779D02*
X52721485Y-108509160D01*
X52721485Y-108509160D02*
X52388152Y-108509160D01*
X52388152Y-108509160D02*
X52197676Y-108556779D01*
X52197676Y-108556779D02*
X52102438Y-108652017D01*
X52102438Y-108652017D02*
X52054819Y-108747255D01*
X52054819Y-108747255D02*
X52054819Y-108937731D01*
X52054819Y-108937731D02*
X52102438Y-109032969D01*
X52102438Y-109032969D02*
X52197676Y-109128207D01*
X52197676Y-109128207D02*
X52388152Y-109175826D01*
X52388152Y-109175826D02*
X52721485Y-109175826D01*
X52721485Y-109175826D02*
X52911961Y-109128207D01*
X52911961Y-109128207D02*
X53007200Y-109032969D01*
X53007200Y-109032969D02*
X53054819Y-108937731D01*
X53054819Y-108937731D02*
X53054819Y-108747255D01*
X53054819Y-110128207D02*
X53054819Y-109556779D01*
X53054819Y-109842493D02*
X52054819Y-109842493D01*
X52054819Y-109842493D02*
X52197676Y-109747255D01*
X52197676Y-109747255D02*
X52292914Y-109652017D01*
X52292914Y-109652017D02*
X52340533Y-109556779D01*
%TO.C,D4*%
X130178819Y-126360589D02*
X129178819Y-126360589D01*
X129178819Y-126360589D02*
X129178819Y-126598684D01*
X129178819Y-126598684D02*
X129226438Y-126741541D01*
X129226438Y-126741541D02*
X129321676Y-126836779D01*
X129321676Y-126836779D02*
X129416914Y-126884398D01*
X129416914Y-126884398D02*
X129607390Y-126932017D01*
X129607390Y-126932017D02*
X129750247Y-126932017D01*
X129750247Y-126932017D02*
X129940723Y-126884398D01*
X129940723Y-126884398D02*
X130035961Y-126836779D01*
X130035961Y-126836779D02*
X130131200Y-126741541D01*
X130131200Y-126741541D02*
X130178819Y-126598684D01*
X130178819Y-126598684D02*
X130178819Y-126360589D01*
X129512152Y-127789160D02*
X130178819Y-127789160D01*
X129131200Y-127551065D02*
X129845485Y-127312970D01*
X129845485Y-127312970D02*
X129845485Y-127932017D01*
X129808819Y-131916779D02*
X128808819Y-131916779D01*
X129808819Y-132488207D02*
X129237390Y-132059636D01*
X128808819Y-132488207D02*
X129380247Y-131916779D01*
%TO.C,D1*%
X65785819Y-124328589D02*
X64785819Y-124328589D01*
X64785819Y-124328589D02*
X64785819Y-124566684D01*
X64785819Y-124566684D02*
X64833438Y-124709541D01*
X64833438Y-124709541D02*
X64928676Y-124804779D01*
X64928676Y-124804779D02*
X65023914Y-124852398D01*
X65023914Y-124852398D02*
X65214390Y-124900017D01*
X65214390Y-124900017D02*
X65357247Y-124900017D01*
X65357247Y-124900017D02*
X65547723Y-124852398D01*
X65547723Y-124852398D02*
X65642961Y-124804779D01*
X65642961Y-124804779D02*
X65738200Y-124709541D01*
X65738200Y-124709541D02*
X65785819Y-124566684D01*
X65785819Y-124566684D02*
X65785819Y-124328589D01*
X65785819Y-125852398D02*
X65785819Y-125280970D01*
X65785819Y-125566684D02*
X64785819Y-125566684D01*
X64785819Y-125566684D02*
X64928676Y-125471446D01*
X64928676Y-125471446D02*
X65023914Y-125376208D01*
X65023914Y-125376208D02*
X65071533Y-125280970D01*
X65415819Y-129884779D02*
X64415819Y-129884779D01*
X65415819Y-130456207D02*
X64844390Y-130027636D01*
X64415819Y-130456207D02*
X64987247Y-129884779D01*
%TO.C,H3*%
X68989220Y-144074819D02*
X68989220Y-143074819D01*
X68989220Y-143551009D02*
X68417792Y-143551009D01*
X68417792Y-144074819D02*
X68417792Y-143074819D01*
X68036839Y-143074819D02*
X67417792Y-143074819D01*
X67417792Y-143074819D02*
X67751125Y-143455771D01*
X67751125Y-143455771D02*
X67608268Y-143455771D01*
X67608268Y-143455771D02*
X67513030Y-143503390D01*
X67513030Y-143503390D02*
X67465411Y-143551009D01*
X67465411Y-143551009D02*
X67417792Y-143646247D01*
X67417792Y-143646247D02*
X67417792Y-143884342D01*
X67417792Y-143884342D02*
X67465411Y-143979580D01*
X67465411Y-143979580D02*
X67513030Y-144027200D01*
X67513030Y-144027200D02*
X67608268Y-144074819D01*
X67608268Y-144074819D02*
X67893982Y-144074819D01*
X67893982Y-144074819D02*
X67989220Y-144027200D01*
X67989220Y-144027200D02*
X68036839Y-143979580D01*
%TO.C,K_LIGHTS1*%
X154795819Y-134881827D02*
X153795819Y-134881827D01*
X154795819Y-135453255D02*
X154224390Y-135024684D01*
X153795819Y-135453255D02*
X154367247Y-134881827D01*
X154891057Y-135643732D02*
X154891057Y-136405636D01*
X154795819Y-137119922D02*
X154795819Y-136643732D01*
X154795819Y-136643732D02*
X153795819Y-136643732D01*
X154795819Y-137453256D02*
X153795819Y-137453256D01*
X153843438Y-138453255D02*
X153795819Y-138358017D01*
X153795819Y-138358017D02*
X153795819Y-138215160D01*
X153795819Y-138215160D02*
X153843438Y-138072303D01*
X153843438Y-138072303D02*
X153938676Y-137977065D01*
X153938676Y-137977065D02*
X154033914Y-137929446D01*
X154033914Y-137929446D02*
X154224390Y-137881827D01*
X154224390Y-137881827D02*
X154367247Y-137881827D01*
X154367247Y-137881827D02*
X154557723Y-137929446D01*
X154557723Y-137929446D02*
X154652961Y-137977065D01*
X154652961Y-137977065D02*
X154748200Y-138072303D01*
X154748200Y-138072303D02*
X154795819Y-138215160D01*
X154795819Y-138215160D02*
X154795819Y-138310398D01*
X154795819Y-138310398D02*
X154748200Y-138453255D01*
X154748200Y-138453255D02*
X154700580Y-138500874D01*
X154700580Y-138500874D02*
X154367247Y-138500874D01*
X154367247Y-138500874D02*
X154367247Y-138310398D01*
X154795819Y-138929446D02*
X153795819Y-138929446D01*
X154272009Y-138929446D02*
X154272009Y-139500874D01*
X154795819Y-139500874D02*
X153795819Y-139500874D01*
X153795819Y-139834208D02*
X153795819Y-140405636D01*
X154795819Y-140119922D02*
X153795819Y-140119922D01*
X154748200Y-140691351D02*
X154795819Y-140834208D01*
X154795819Y-140834208D02*
X154795819Y-141072303D01*
X154795819Y-141072303D02*
X154748200Y-141167541D01*
X154748200Y-141167541D02*
X154700580Y-141215160D01*
X154700580Y-141215160D02*
X154605342Y-141262779D01*
X154605342Y-141262779D02*
X154510104Y-141262779D01*
X154510104Y-141262779D02*
X154414866Y-141215160D01*
X154414866Y-141215160D02*
X154367247Y-141167541D01*
X154367247Y-141167541D02*
X154319628Y-141072303D01*
X154319628Y-141072303D02*
X154272009Y-140881827D01*
X154272009Y-140881827D02*
X154224390Y-140786589D01*
X154224390Y-140786589D02*
X154176771Y-140738970D01*
X154176771Y-140738970D02*
X154081533Y-140691351D01*
X154081533Y-140691351D02*
X153986295Y-140691351D01*
X153986295Y-140691351D02*
X153891057Y-140738970D01*
X153891057Y-140738970D02*
X153843438Y-140786589D01*
X153843438Y-140786589D02*
X153795819Y-140881827D01*
X153795819Y-140881827D02*
X153795819Y-141119922D01*
X153795819Y-141119922D02*
X153843438Y-141262779D01*
X154795819Y-142215160D02*
X154795819Y-141643732D01*
X154795819Y-141929446D02*
X153795819Y-141929446D01*
X153795819Y-141929446D02*
X153938676Y-141834208D01*
X153938676Y-141834208D02*
X154033914Y-141738970D01*
X154033914Y-141738970D02*
X154081533Y-141643732D01*
%TO.C,J_wpump1*%
X102858220Y-165824819D02*
X102858220Y-166539104D01*
X102858220Y-166539104D02*
X102905839Y-166681961D01*
X102905839Y-166681961D02*
X103001077Y-166777200D01*
X103001077Y-166777200D02*
X103143934Y-166824819D01*
X103143934Y-166824819D02*
X103239172Y-166824819D01*
X102620125Y-166920057D02*
X101858220Y-166920057D01*
X101715362Y-166158152D02*
X101524886Y-166824819D01*
X101524886Y-166824819D02*
X101334410Y-166348628D01*
X101334410Y-166348628D02*
X101143934Y-166824819D01*
X101143934Y-166824819D02*
X100953458Y-166158152D01*
X100572505Y-166158152D02*
X100572505Y-167158152D01*
X100572505Y-166205771D02*
X100477267Y-166158152D01*
X100477267Y-166158152D02*
X100286791Y-166158152D01*
X100286791Y-166158152D02*
X100191553Y-166205771D01*
X100191553Y-166205771D02*
X100143934Y-166253390D01*
X100143934Y-166253390D02*
X100096315Y-166348628D01*
X100096315Y-166348628D02*
X100096315Y-166634342D01*
X100096315Y-166634342D02*
X100143934Y-166729580D01*
X100143934Y-166729580D02*
X100191553Y-166777200D01*
X100191553Y-166777200D02*
X100286791Y-166824819D01*
X100286791Y-166824819D02*
X100477267Y-166824819D01*
X100477267Y-166824819D02*
X100572505Y-166777200D01*
X99239172Y-166158152D02*
X99239172Y-166824819D01*
X99667743Y-166158152D02*
X99667743Y-166681961D01*
X99667743Y-166681961D02*
X99620124Y-166777200D01*
X99620124Y-166777200D02*
X99524886Y-166824819D01*
X99524886Y-166824819D02*
X99382029Y-166824819D01*
X99382029Y-166824819D02*
X99286791Y-166777200D01*
X99286791Y-166777200D02*
X99239172Y-166729580D01*
X98762981Y-166824819D02*
X98762981Y-166158152D01*
X98762981Y-166253390D02*
X98715362Y-166205771D01*
X98715362Y-166205771D02*
X98620124Y-166158152D01*
X98620124Y-166158152D02*
X98477267Y-166158152D01*
X98477267Y-166158152D02*
X98382029Y-166205771D01*
X98382029Y-166205771D02*
X98334410Y-166301009D01*
X98334410Y-166301009D02*
X98334410Y-166824819D01*
X98334410Y-166301009D02*
X98286791Y-166205771D01*
X98286791Y-166205771D02*
X98191553Y-166158152D01*
X98191553Y-166158152D02*
X98048696Y-166158152D01*
X98048696Y-166158152D02*
X97953457Y-166205771D01*
X97953457Y-166205771D02*
X97905838Y-166301009D01*
X97905838Y-166301009D02*
X97905838Y-166824819D01*
X97429648Y-166158152D02*
X97429648Y-167158152D01*
X97429648Y-166205771D02*
X97334410Y-166158152D01*
X97334410Y-166158152D02*
X97143934Y-166158152D01*
X97143934Y-166158152D02*
X97048696Y-166205771D01*
X97048696Y-166205771D02*
X97001077Y-166253390D01*
X97001077Y-166253390D02*
X96953458Y-166348628D01*
X96953458Y-166348628D02*
X96953458Y-166634342D01*
X96953458Y-166634342D02*
X97001077Y-166729580D01*
X97001077Y-166729580D02*
X97048696Y-166777200D01*
X97048696Y-166777200D02*
X97143934Y-166824819D01*
X97143934Y-166824819D02*
X97334410Y-166824819D01*
X97334410Y-166824819D02*
X97429648Y-166777200D01*
X96001077Y-166824819D02*
X96572505Y-166824819D01*
X96286791Y-166824819D02*
X96286791Y-165824819D01*
X96286791Y-165824819D02*
X96382029Y-165967676D01*
X96382029Y-165967676D02*
X96477267Y-166062914D01*
X96477267Y-166062914D02*
X96572505Y-166110533D01*
%TO.C,Q3*%
X74994057Y-109223445D02*
X74946438Y-109128207D01*
X74946438Y-109128207D02*
X74851200Y-109032969D01*
X74851200Y-109032969D02*
X74708342Y-108890112D01*
X74708342Y-108890112D02*
X74660723Y-108794874D01*
X74660723Y-108794874D02*
X74660723Y-108699636D01*
X74898819Y-108747255D02*
X74851200Y-108652017D01*
X74851200Y-108652017D02*
X74755961Y-108556779D01*
X74755961Y-108556779D02*
X74565485Y-108509160D01*
X74565485Y-108509160D02*
X74232152Y-108509160D01*
X74232152Y-108509160D02*
X74041676Y-108556779D01*
X74041676Y-108556779D02*
X73946438Y-108652017D01*
X73946438Y-108652017D02*
X73898819Y-108747255D01*
X73898819Y-108747255D02*
X73898819Y-108937731D01*
X73898819Y-108937731D02*
X73946438Y-109032969D01*
X73946438Y-109032969D02*
X74041676Y-109128207D01*
X74041676Y-109128207D02*
X74232152Y-109175826D01*
X74232152Y-109175826D02*
X74565485Y-109175826D01*
X74565485Y-109175826D02*
X74755961Y-109128207D01*
X74755961Y-109128207D02*
X74851200Y-109032969D01*
X74851200Y-109032969D02*
X74898819Y-108937731D01*
X74898819Y-108937731D02*
X74898819Y-108747255D01*
X73898819Y-109509160D02*
X73898819Y-110128207D01*
X73898819Y-110128207D02*
X74279771Y-109794874D01*
X74279771Y-109794874D02*
X74279771Y-109937731D01*
X74279771Y-109937731D02*
X74327390Y-110032969D01*
X74327390Y-110032969D02*
X74375009Y-110080588D01*
X74375009Y-110080588D02*
X74470247Y-110128207D01*
X74470247Y-110128207D02*
X74708342Y-110128207D01*
X74708342Y-110128207D02*
X74803580Y-110080588D01*
X74803580Y-110080588D02*
X74851200Y-110032969D01*
X74851200Y-110032969D02*
X74898819Y-109937731D01*
X74898819Y-109937731D02*
X74898819Y-109652017D01*
X74898819Y-109652017D02*
X74851200Y-109556779D01*
X74851200Y-109556779D02*
X74803580Y-109509160D01*
%TO.C,H4*%
X125631220Y-144074819D02*
X125631220Y-143074819D01*
X125631220Y-143551009D02*
X125059792Y-143551009D01*
X125059792Y-144074819D02*
X125059792Y-143074819D01*
X124155030Y-143408152D02*
X124155030Y-144074819D01*
X124393125Y-143027200D02*
X124631220Y-143741485D01*
X124631220Y-143741485D02*
X124012173Y-143741485D01*
%TO.C,U_oxygen1*%
X73448819Y-133226898D02*
X74258342Y-133226898D01*
X74258342Y-133226898D02*
X74353580Y-133274517D01*
X74353580Y-133274517D02*
X74401200Y-133322136D01*
X74401200Y-133322136D02*
X74448819Y-133417374D01*
X74448819Y-133417374D02*
X74448819Y-133607850D01*
X74448819Y-133607850D02*
X74401200Y-133703088D01*
X74401200Y-133703088D02*
X74353580Y-133750707D01*
X74353580Y-133750707D02*
X74258342Y-133798326D01*
X74258342Y-133798326D02*
X73448819Y-133798326D01*
X74544057Y-134036422D02*
X74544057Y-134798326D01*
X74448819Y-135179279D02*
X74401200Y-135084041D01*
X74401200Y-135084041D02*
X74353580Y-135036422D01*
X74353580Y-135036422D02*
X74258342Y-134988803D01*
X74258342Y-134988803D02*
X73972628Y-134988803D01*
X73972628Y-134988803D02*
X73877390Y-135036422D01*
X73877390Y-135036422D02*
X73829771Y-135084041D01*
X73829771Y-135084041D02*
X73782152Y-135179279D01*
X73782152Y-135179279D02*
X73782152Y-135322136D01*
X73782152Y-135322136D02*
X73829771Y-135417374D01*
X73829771Y-135417374D02*
X73877390Y-135464993D01*
X73877390Y-135464993D02*
X73972628Y-135512612D01*
X73972628Y-135512612D02*
X74258342Y-135512612D01*
X74258342Y-135512612D02*
X74353580Y-135464993D01*
X74353580Y-135464993D02*
X74401200Y-135417374D01*
X74401200Y-135417374D02*
X74448819Y-135322136D01*
X74448819Y-135322136D02*
X74448819Y-135179279D01*
X74448819Y-135845946D02*
X73782152Y-136369755D01*
X73782152Y-135845946D02*
X74448819Y-136369755D01*
X73782152Y-136655470D02*
X74448819Y-136893565D01*
X73782152Y-137131660D02*
X74448819Y-136893565D01*
X74448819Y-136893565D02*
X74686914Y-136798327D01*
X74686914Y-136798327D02*
X74734533Y-136750708D01*
X74734533Y-136750708D02*
X74782152Y-136655470D01*
X73782152Y-137941184D02*
X74591676Y-137941184D01*
X74591676Y-137941184D02*
X74686914Y-137893565D01*
X74686914Y-137893565D02*
X74734533Y-137845946D01*
X74734533Y-137845946D02*
X74782152Y-137750708D01*
X74782152Y-137750708D02*
X74782152Y-137607851D01*
X74782152Y-137607851D02*
X74734533Y-137512613D01*
X74401200Y-137941184D02*
X74448819Y-137845946D01*
X74448819Y-137845946D02*
X74448819Y-137655470D01*
X74448819Y-137655470D02*
X74401200Y-137560232D01*
X74401200Y-137560232D02*
X74353580Y-137512613D01*
X74353580Y-137512613D02*
X74258342Y-137464994D01*
X74258342Y-137464994D02*
X73972628Y-137464994D01*
X73972628Y-137464994D02*
X73877390Y-137512613D01*
X73877390Y-137512613D02*
X73829771Y-137560232D01*
X73829771Y-137560232D02*
X73782152Y-137655470D01*
X73782152Y-137655470D02*
X73782152Y-137845946D01*
X73782152Y-137845946D02*
X73829771Y-137941184D01*
X74401200Y-138798327D02*
X74448819Y-138703089D01*
X74448819Y-138703089D02*
X74448819Y-138512613D01*
X74448819Y-138512613D02*
X74401200Y-138417375D01*
X74401200Y-138417375D02*
X74305961Y-138369756D01*
X74305961Y-138369756D02*
X73925009Y-138369756D01*
X73925009Y-138369756D02*
X73829771Y-138417375D01*
X73829771Y-138417375D02*
X73782152Y-138512613D01*
X73782152Y-138512613D02*
X73782152Y-138703089D01*
X73782152Y-138703089D02*
X73829771Y-138798327D01*
X73829771Y-138798327D02*
X73925009Y-138845946D01*
X73925009Y-138845946D02*
X74020247Y-138845946D01*
X74020247Y-138845946D02*
X74115485Y-138369756D01*
X73782152Y-139274518D02*
X74448819Y-139274518D01*
X73877390Y-139274518D02*
X73829771Y-139322137D01*
X73829771Y-139322137D02*
X73782152Y-139417375D01*
X73782152Y-139417375D02*
X73782152Y-139560232D01*
X73782152Y-139560232D02*
X73829771Y-139655470D01*
X73829771Y-139655470D02*
X73925009Y-139703089D01*
X73925009Y-139703089D02*
X74448819Y-139703089D01*
X74448819Y-140703089D02*
X74448819Y-140131661D01*
X74448819Y-140417375D02*
X73448819Y-140417375D01*
X73448819Y-140417375D02*
X73591676Y-140322137D01*
X73591676Y-140322137D02*
X73686914Y-140226899D01*
X73686914Y-140226899D02*
X73734533Y-140131661D01*
%TO.C,R4*%
X88116819Y-106535017D02*
X87640628Y-106201684D01*
X88116819Y-105963589D02*
X87116819Y-105963589D01*
X87116819Y-105963589D02*
X87116819Y-106344541D01*
X87116819Y-106344541D02*
X87164438Y-106439779D01*
X87164438Y-106439779D02*
X87212057Y-106487398D01*
X87212057Y-106487398D02*
X87307295Y-106535017D01*
X87307295Y-106535017D02*
X87450152Y-106535017D01*
X87450152Y-106535017D02*
X87545390Y-106487398D01*
X87545390Y-106487398D02*
X87593009Y-106439779D01*
X87593009Y-106439779D02*
X87640628Y-106344541D01*
X87640628Y-106344541D02*
X87640628Y-105963589D01*
X87450152Y-107392160D02*
X88116819Y-107392160D01*
X87069200Y-107154065D02*
X87783485Y-106915970D01*
X87783485Y-106915970D02*
X87783485Y-107535017D01*
%TO.C,R9*%
X136232819Y-127644017D02*
X135756628Y-127310684D01*
X136232819Y-127072589D02*
X135232819Y-127072589D01*
X135232819Y-127072589D02*
X135232819Y-127453541D01*
X135232819Y-127453541D02*
X135280438Y-127548779D01*
X135280438Y-127548779D02*
X135328057Y-127596398D01*
X135328057Y-127596398D02*
X135423295Y-127644017D01*
X135423295Y-127644017D02*
X135566152Y-127644017D01*
X135566152Y-127644017D02*
X135661390Y-127596398D01*
X135661390Y-127596398D02*
X135709009Y-127548779D01*
X135709009Y-127548779D02*
X135756628Y-127453541D01*
X135756628Y-127453541D02*
X135756628Y-127072589D01*
X136232819Y-128120208D02*
X136232819Y-128310684D01*
X136232819Y-128310684D02*
X136185200Y-128405922D01*
X136185200Y-128405922D02*
X136137580Y-128453541D01*
X136137580Y-128453541D02*
X135994723Y-128548779D01*
X135994723Y-128548779D02*
X135804247Y-128596398D01*
X135804247Y-128596398D02*
X135423295Y-128596398D01*
X135423295Y-128596398D02*
X135328057Y-128548779D01*
X135328057Y-128548779D02*
X135280438Y-128501160D01*
X135280438Y-128501160D02*
X135232819Y-128405922D01*
X135232819Y-128405922D02*
X135232819Y-128215446D01*
X135232819Y-128215446D02*
X135280438Y-128120208D01*
X135280438Y-128120208D02*
X135328057Y-128072589D01*
X135328057Y-128072589D02*
X135423295Y-128024970D01*
X135423295Y-128024970D02*
X135661390Y-128024970D01*
X135661390Y-128024970D02*
X135756628Y-128072589D01*
X135756628Y-128072589D02*
X135804247Y-128120208D01*
X135804247Y-128120208D02*
X135851866Y-128215446D01*
X135851866Y-128215446D02*
X135851866Y-128405922D01*
X135851866Y-128405922D02*
X135804247Y-128501160D01*
X135804247Y-128501160D02*
X135756628Y-128548779D01*
X135756628Y-128548779D02*
X135661390Y-128596398D01*
%TO.C,Q4*%
X116904057Y-109223445D02*
X116856438Y-109128207D01*
X116856438Y-109128207D02*
X116761200Y-109032969D01*
X116761200Y-109032969D02*
X116618342Y-108890112D01*
X116618342Y-108890112D02*
X116570723Y-108794874D01*
X116570723Y-108794874D02*
X116570723Y-108699636D01*
X116808819Y-108747255D02*
X116761200Y-108652017D01*
X116761200Y-108652017D02*
X116665961Y-108556779D01*
X116665961Y-108556779D02*
X116475485Y-108509160D01*
X116475485Y-108509160D02*
X116142152Y-108509160D01*
X116142152Y-108509160D02*
X115951676Y-108556779D01*
X115951676Y-108556779D02*
X115856438Y-108652017D01*
X115856438Y-108652017D02*
X115808819Y-108747255D01*
X115808819Y-108747255D02*
X115808819Y-108937731D01*
X115808819Y-108937731D02*
X115856438Y-109032969D01*
X115856438Y-109032969D02*
X115951676Y-109128207D01*
X115951676Y-109128207D02*
X116142152Y-109175826D01*
X116142152Y-109175826D02*
X116475485Y-109175826D01*
X116475485Y-109175826D02*
X116665961Y-109128207D01*
X116665961Y-109128207D02*
X116761200Y-109032969D01*
X116761200Y-109032969D02*
X116808819Y-108937731D01*
X116808819Y-108937731D02*
X116808819Y-108747255D01*
X116142152Y-110032969D02*
X116808819Y-110032969D01*
X115761200Y-109794874D02*
X116475485Y-109556779D01*
X116475485Y-109556779D02*
X116475485Y-110175826D01*
%TO.C,H5*%
X153598220Y-92920819D02*
X153598220Y-91920819D01*
X153598220Y-92397009D02*
X153026792Y-92397009D01*
X153026792Y-92920819D02*
X153026792Y-91920819D01*
X152074411Y-91920819D02*
X152550601Y-91920819D01*
X152550601Y-91920819D02*
X152598220Y-92397009D01*
X152598220Y-92397009D02*
X152550601Y-92349390D01*
X152550601Y-92349390D02*
X152455363Y-92301771D01*
X152455363Y-92301771D02*
X152217268Y-92301771D01*
X152217268Y-92301771D02*
X152122030Y-92349390D01*
X152122030Y-92349390D02*
X152074411Y-92397009D01*
X152074411Y-92397009D02*
X152026792Y-92492247D01*
X152026792Y-92492247D02*
X152026792Y-92730342D01*
X152026792Y-92730342D02*
X152074411Y-92825580D01*
X152074411Y-92825580D02*
X152122030Y-92873200D01*
X152122030Y-92873200D02*
X152217268Y-92920819D01*
X152217268Y-92920819D02*
X152455363Y-92920819D01*
X152455363Y-92920819D02*
X152550601Y-92873200D01*
X152550601Y-92873200D02*
X152598220Y-92825580D01*
%TO.C,U_fan1*%
X52997819Y-134480850D02*
X53807342Y-134480850D01*
X53807342Y-134480850D02*
X53902580Y-134528469D01*
X53902580Y-134528469D02*
X53950200Y-134576088D01*
X53950200Y-134576088D02*
X53997819Y-134671326D01*
X53997819Y-134671326D02*
X53997819Y-134861802D01*
X53997819Y-134861802D02*
X53950200Y-134957040D01*
X53950200Y-134957040D02*
X53902580Y-135004659D01*
X53902580Y-135004659D02*
X53807342Y-135052278D01*
X53807342Y-135052278D02*
X52997819Y-135052278D01*
X54093057Y-135290374D02*
X54093057Y-136052278D01*
X53331152Y-136147517D02*
X53331152Y-136528469D01*
X53997819Y-136290374D02*
X53140676Y-136290374D01*
X53140676Y-136290374D02*
X53045438Y-136337993D01*
X53045438Y-136337993D02*
X52997819Y-136433231D01*
X52997819Y-136433231D02*
X52997819Y-136528469D01*
X53997819Y-137290374D02*
X53474009Y-137290374D01*
X53474009Y-137290374D02*
X53378771Y-137242755D01*
X53378771Y-137242755D02*
X53331152Y-137147517D01*
X53331152Y-137147517D02*
X53331152Y-136957041D01*
X53331152Y-136957041D02*
X53378771Y-136861803D01*
X53950200Y-137290374D02*
X53997819Y-137195136D01*
X53997819Y-137195136D02*
X53997819Y-136957041D01*
X53997819Y-136957041D02*
X53950200Y-136861803D01*
X53950200Y-136861803D02*
X53854961Y-136814184D01*
X53854961Y-136814184D02*
X53759723Y-136814184D01*
X53759723Y-136814184D02*
X53664485Y-136861803D01*
X53664485Y-136861803D02*
X53616866Y-136957041D01*
X53616866Y-136957041D02*
X53616866Y-137195136D01*
X53616866Y-137195136D02*
X53569247Y-137290374D01*
X53331152Y-137766565D02*
X53997819Y-137766565D01*
X53426390Y-137766565D02*
X53378771Y-137814184D01*
X53378771Y-137814184D02*
X53331152Y-137909422D01*
X53331152Y-137909422D02*
X53331152Y-138052279D01*
X53331152Y-138052279D02*
X53378771Y-138147517D01*
X53378771Y-138147517D02*
X53474009Y-138195136D01*
X53474009Y-138195136D02*
X53997819Y-138195136D01*
X53997819Y-139195136D02*
X53997819Y-138623708D01*
X53997819Y-138909422D02*
X52997819Y-138909422D01*
X52997819Y-138909422D02*
X53140676Y-138814184D01*
X53140676Y-138814184D02*
X53235914Y-138718946D01*
X53235914Y-138718946D02*
X53283533Y-138623708D01*
D11*
%TO.C,R1*%
X131445000Y-79687500D02*
X131445000Y-79067500D01*
X132365000Y-80607500D02*
G75*
G03*
X132365000Y-80607500I-920000J0D01*
G01*
%TO.C,D2*%
X104140000Y-129216000D02*
X104140000Y-128196000D01*
X105610000Y-128196000D02*
X102670000Y-128196000D01*
X102670000Y-128196000D02*
X102670000Y-122756000D01*
X105610000Y-127416000D02*
X102670000Y-127416000D01*
X105610000Y-127296000D02*
X102670000Y-127296000D01*
X105610000Y-127176000D02*
X102670000Y-127176000D01*
X105610000Y-122756000D02*
X105610000Y-128196000D01*
X102670000Y-122756000D02*
X105610000Y-122756000D01*
X104140000Y-121736000D02*
X104140000Y-122756000D01*
%TO.C,R2*%
X67230000Y-105237000D02*
X67230000Y-108397000D01*
X68150000Y-104317000D02*
G75*
G03*
X68150000Y-104317000I-920000J0D01*
G01*
%TO.C,J_fan1*%
X65054000Y-154990000D02*
X65054000Y-167590000D01*
X65054000Y-167590000D02*
X54704000Y-167590000D01*
X54704000Y-159790000D02*
X54204000Y-160090000D01*
X54704000Y-165190000D02*
X54704000Y-159790000D01*
X54704000Y-166640000D02*
X54204000Y-166890000D01*
X54704000Y-167590000D02*
X54704000Y-166640000D01*
X54204000Y-154990000D02*
X65054000Y-154990000D01*
X54204000Y-160090000D02*
X54204000Y-154990000D01*
X54204000Y-164940000D02*
X54704000Y-165190000D01*
X54204000Y-164990000D02*
X54204000Y-164940000D01*
X54204000Y-166890000D02*
X54204000Y-164990000D01*
%TO.C,5V1*%
X109367000Y-29052000D02*
X109367000Y-41652000D01*
X109367000Y-41652000D02*
X99017000Y-41652000D01*
X99017000Y-33852000D02*
X98517000Y-34152000D01*
X99017000Y-39252000D02*
X99017000Y-33852000D01*
X99017000Y-40702000D02*
X98517000Y-40952000D01*
X99017000Y-41652000D02*
X99017000Y-40702000D01*
X98517000Y-29052000D02*
X109367000Y-29052000D01*
X98517000Y-34152000D02*
X98517000Y-29052000D01*
X98517000Y-39002000D02*
X99017000Y-39252000D01*
X98517000Y-39052000D02*
X98517000Y-39002000D01*
X98517000Y-40952000D02*
X98517000Y-39052000D01*
%TO.C,R5*%
X131826000Y-105110000D02*
X131826000Y-108270000D01*
X132746000Y-104190000D02*
G75*
G03*
X132746000Y-104190000I-920000J0D01*
G01*
%TO.C,J_LOAD2*%
X138315000Y-154990000D02*
X138315000Y-167590000D01*
X138315000Y-167590000D02*
X127965000Y-167590000D01*
X127965000Y-159790000D02*
X127465000Y-160090000D01*
X127965000Y-165190000D02*
X127965000Y-159790000D01*
X127965000Y-166640000D02*
X127465000Y-166890000D01*
X127965000Y-167590000D02*
X127965000Y-166640000D01*
X127465000Y-154990000D02*
X138315000Y-154990000D01*
X127465000Y-160090000D02*
X127465000Y-154990000D01*
X127465000Y-164940000D02*
X127965000Y-165190000D01*
X127465000Y-164990000D02*
X127465000Y-164940000D01*
X127465000Y-166890000D02*
X127465000Y-164990000D01*
%TO.C,D6*%
X126365000Y-39005000D02*
X126365000Y-40200000D01*
X123640000Y-40200000D02*
X129090000Y-40200000D01*
X129090000Y-40200000D02*
X129090000Y-49970000D01*
X123640000Y-41629500D02*
X129090000Y-41629500D01*
X123640000Y-41749500D02*
X129090000Y-41749500D01*
X123640000Y-41869500D02*
X129090000Y-41869500D01*
X123640000Y-49970000D02*
X123640000Y-40200000D01*
X129090000Y-49970000D02*
X123640000Y-49970000D01*
X126365000Y-51165000D02*
X126365000Y-49970000D01*
%TO.C,J2*%
X140077500Y-56277500D02*
X140077500Y-59277500D01*
X143077500Y-56277500D02*
X140077500Y-56277500D01*
X140457500Y-56657500D02*
X153197500Y-56657500D01*
X140457500Y-56657500D02*
X153197500Y-56657500D01*
X140457500Y-56657500D02*
X140457500Y-71897500D01*
X140457500Y-56657500D02*
X140457500Y-71897500D01*
X153197500Y-56657500D02*
X153197500Y-71897500D01*
X153197500Y-56657500D02*
X153197500Y-71897500D01*
X140457500Y-71897500D02*
X153197500Y-71897500D01*
X140457500Y-71897500D02*
X153197500Y-71897500D01*
%TO.C,J1*%
X140077500Y-74057500D02*
X140077500Y-77057500D01*
X143077500Y-74057500D02*
X140077500Y-74057500D01*
X140457500Y-74437500D02*
X153197500Y-74437500D01*
X140457500Y-74437500D02*
X153197500Y-74437500D01*
X140457500Y-74437500D02*
X140457500Y-89677500D01*
X140457500Y-74437500D02*
X140457500Y-89677500D01*
X153197500Y-74437500D02*
X153197500Y-89677500D01*
X153197500Y-74437500D02*
X153197500Y-89677500D01*
X140457500Y-89677500D02*
X153197500Y-89677500D01*
X140457500Y-89677500D02*
X153197500Y-89677500D01*
%TO.C,J_AC_INPUT1*%
X121268000Y-155244000D02*
X121268000Y-167844000D01*
X121268000Y-167844000D02*
X110918000Y-167844000D01*
X110918000Y-160044000D02*
X110418000Y-160344000D01*
X110918000Y-165444000D02*
X110918000Y-160044000D01*
X110918000Y-166894000D02*
X110418000Y-167144000D01*
X110918000Y-167844000D02*
X110918000Y-166894000D01*
X110418000Y-155244000D02*
X121268000Y-155244000D01*
X110418000Y-160344000D02*
X110418000Y-155244000D01*
X110418000Y-165194000D02*
X110918000Y-165444000D01*
X110418000Y-165244000D02*
X110418000Y-165194000D01*
X110418000Y-167144000D02*
X110418000Y-165244000D01*
%TO.C,J_LOAD1*%
X153475000Y-154990000D02*
X153475000Y-167590000D01*
X153475000Y-167590000D02*
X143125000Y-167590000D01*
X143125000Y-159790000D02*
X142625000Y-160090000D01*
X143125000Y-165190000D02*
X143125000Y-159790000D01*
X143125000Y-166640000D02*
X142625000Y-166890000D01*
X143125000Y-167590000D02*
X143125000Y-166640000D01*
X142625000Y-154990000D02*
X153475000Y-154990000D01*
X142625000Y-160090000D02*
X142625000Y-154990000D01*
X142625000Y-164940000D02*
X143125000Y-165190000D01*
X142625000Y-164990000D02*
X142625000Y-164940000D01*
X142625000Y-166890000D02*
X142625000Y-164990000D01*
%TO.C,J_esp1*%
X83634500Y-92872000D02*
X83634500Y-90462000D01*
X81224500Y-92872000D02*
X83634500Y-92872000D01*
X83334500Y-92572000D02*
X80804500Y-92572000D01*
X80804500Y-92572000D02*
X80804500Y-92442000D01*
X78994500Y-92572000D02*
X78014500Y-92572000D01*
X78014500Y-92572000D02*
X78014500Y-76102000D01*
X80804500Y-92442000D02*
X78994500Y-92442000D01*
X78994500Y-92442000D02*
X78994500Y-92572000D01*
X78014500Y-76102000D02*
X76514500Y-76102000D01*
X76514500Y-76102000D02*
X76514500Y-68262000D01*
X78014500Y-68262000D02*
X78014500Y-51792000D01*
X76514500Y-68262000D02*
X78014500Y-68262000D01*
X80804500Y-51922000D02*
X80804500Y-51792000D01*
X78994500Y-51922000D02*
X80804500Y-51922000D01*
X83334500Y-51792000D02*
X83334500Y-92572000D01*
X80804500Y-51792000D02*
X83334500Y-51792000D01*
X78994500Y-51792000D02*
X78994500Y-51922000D01*
X78014500Y-51792000D02*
X78994500Y-51792000D01*
%TO.C,Q2*%
X98473961Y-104554144D02*
X99364916Y-105445098D01*
X97696144Y-105331961D02*
X98473961Y-104554144D01*
X98587098Y-106222916D02*
X97696144Y-105331961D01*
X98587099Y-106222916D02*
G75*
G03*
X99364629Y-105445327I3774901J-2997084D01*
G01*
%TO.C,J4*%
X153185000Y-53720000D02*
X153185000Y-50720000D01*
X150185000Y-53720000D02*
X153185000Y-53720000D01*
X152805000Y-53340000D02*
X140065000Y-53340000D01*
X152805000Y-53340000D02*
X140065000Y-53340000D01*
X152805000Y-53340000D02*
X152805000Y-43100000D01*
X152805000Y-53340000D02*
X152805000Y-43100000D01*
X140065000Y-53340000D02*
X140065000Y-43100000D01*
X140065000Y-53340000D02*
X140065000Y-43100000D01*
X152805000Y-43100000D02*
X140065000Y-43100000D01*
X152805000Y-43100000D02*
X140065000Y-43100000D01*
%TO.C,D3*%
X84074000Y-128962000D02*
X84074000Y-127942000D01*
X85544000Y-127942000D02*
X82604000Y-127942000D01*
X82604000Y-127942000D02*
X82604000Y-122502000D01*
X85544000Y-127162000D02*
X82604000Y-127162000D01*
X85544000Y-127042000D02*
X82604000Y-127042000D01*
X85544000Y-126922000D02*
X82604000Y-126922000D01*
X85544000Y-122502000D02*
X85544000Y-127942000D01*
X82604000Y-122502000D02*
X85544000Y-122502000D01*
X84074000Y-121482000D02*
X84074000Y-122502000D01*
%TO.C,J_esp0*%
X102255000Y-51413000D02*
X102255000Y-53823000D01*
X104665000Y-51413000D02*
X102255000Y-51413000D01*
X102555000Y-51713000D02*
X105085000Y-51713000D01*
X105085000Y-51713000D02*
X105085000Y-51843000D01*
X106895000Y-51713000D02*
X107875000Y-51713000D01*
X107875000Y-51713000D02*
X107875000Y-68183000D01*
X105085000Y-51843000D02*
X106895000Y-51843000D01*
X106895000Y-51843000D02*
X106895000Y-51713000D01*
X107875000Y-68183000D02*
X109375000Y-68183000D01*
X109375000Y-68183000D02*
X109375000Y-76023000D01*
X107875000Y-76023000D02*
X107875000Y-92493000D01*
X109375000Y-76023000D02*
X107875000Y-76023000D01*
X105085000Y-92363000D02*
X105085000Y-92493000D01*
X106895000Y-92363000D02*
X105085000Y-92363000D01*
X102555000Y-92493000D02*
X102555000Y-51713000D01*
X105085000Y-92493000D02*
X102555000Y-92493000D01*
X106895000Y-92493000D02*
X106895000Y-92363000D01*
X107875000Y-92493000D02*
X106895000Y-92493000D01*
%TO.C,U_wpump1*%
X95203000Y-125666500D02*
X100410000Y-125666500D01*
X100410000Y-125666500D02*
X100410000Y-150177500D01*
X100410000Y-150177500D02*
X95203000Y-150177500D01*
X95203000Y-150177500D02*
X95203000Y-125666500D01*
%TO.C,R3*%
X110918000Y-105237000D02*
X110918000Y-108397000D01*
X111838000Y-104317000D02*
G75*
G03*
X111838000Y-104317000I-920000J0D01*
G01*
%TO.C,J_oxygen1*%
X85708000Y-155244000D02*
X85708000Y-167844000D01*
X85708000Y-167844000D02*
X75358000Y-167844000D01*
X75358000Y-160044000D02*
X74858000Y-160344000D01*
X75358000Y-165444000D02*
X75358000Y-160044000D01*
X75358000Y-166894000D02*
X74858000Y-167144000D01*
X75358000Y-167844000D02*
X75358000Y-166894000D01*
X74858000Y-155244000D02*
X85708000Y-155244000D01*
X74858000Y-160344000D02*
X74858000Y-155244000D01*
X74858000Y-165194000D02*
X75358000Y-165444000D01*
X74858000Y-165244000D02*
X74858000Y-165194000D01*
X74858000Y-167144000D02*
X74858000Y-165244000D01*
%TO.C,Q1*%
X54531961Y-104554144D02*
X55422916Y-105445098D01*
X53754144Y-105331961D02*
X54531961Y-104554144D01*
X54645098Y-106222916D02*
X53754144Y-105331961D01*
X54645099Y-106222916D02*
G75*
G03*
X55422629Y-105445327I3774901J-2997084D01*
G01*
%TO.C,D4*%
X127254000Y-130740000D02*
X127254000Y-129720000D01*
X128724000Y-129720000D02*
X125784000Y-129720000D01*
X125784000Y-129720000D02*
X125784000Y-124280000D01*
X128724000Y-128940000D02*
X125784000Y-128940000D01*
X128724000Y-128820000D02*
X125784000Y-128820000D01*
X128724000Y-128700000D02*
X125784000Y-128700000D01*
X128724000Y-124280000D02*
X128724000Y-129720000D01*
X125784000Y-124280000D02*
X128724000Y-124280000D01*
X127254000Y-123260000D02*
X127254000Y-124280000D01*
%TO.C,D1*%
X62861000Y-128708000D02*
X62861000Y-127688000D01*
X64331000Y-127688000D02*
X61391000Y-127688000D01*
X61391000Y-127688000D02*
X61391000Y-122248000D01*
X64331000Y-126908000D02*
X61391000Y-126908000D01*
X64331000Y-126788000D02*
X61391000Y-126788000D01*
X64331000Y-126668000D02*
X61391000Y-126668000D01*
X64331000Y-122248000D02*
X64331000Y-127688000D01*
X61391000Y-122248000D02*
X64331000Y-122248000D01*
X62861000Y-121228000D02*
X62861000Y-122248000D01*
%TO.C,K_LIGHTS1*%
X137341000Y-128926000D02*
X143941000Y-128926000D01*
X137341000Y-128926000D02*
X137341000Y-148726000D01*
X146341000Y-128926000D02*
X152941000Y-128926000D01*
X145191000Y-132976000D02*
X145191000Y-132176000D01*
X145191000Y-132976000D02*
X148791000Y-132976000D01*
X151191000Y-133876000D02*
X151191000Y-136376000D01*
X143391000Y-134376000D02*
X143391000Y-138376000D01*
X146991000Y-134376000D02*
X143391000Y-134376000D01*
X139191000Y-136376000D02*
X139191000Y-133876000D01*
X139191000Y-136376000D02*
X143391000Y-136376000D01*
X146991000Y-136376000D02*
X151191000Y-136376000D01*
X143391000Y-138376000D02*
X146991000Y-138376000D01*
X146991000Y-138376000D02*
X143391000Y-134376000D01*
X146991000Y-138376000D02*
X146991000Y-134376000D01*
X145191000Y-139776000D02*
X148791000Y-139776000D01*
X145191000Y-139776000D02*
X145191000Y-141276000D01*
X148791000Y-139776000D02*
X148791000Y-132976000D01*
X145191000Y-141276000D02*
X142691000Y-145876000D01*
X140941000Y-144476000D02*
X143441000Y-144476000D01*
X149341000Y-144476000D02*
X146891000Y-144476000D01*
X137341000Y-148726000D02*
X152941000Y-148726000D01*
X152941000Y-148726000D02*
X152941000Y-128926000D01*
%TO.C,J_wpump1*%
X105520000Y-155244000D02*
X105520000Y-167844000D01*
X105520000Y-167844000D02*
X95170000Y-167844000D01*
X95170000Y-160044000D02*
X94670000Y-160344000D01*
X95170000Y-165444000D02*
X95170000Y-160044000D01*
X95170000Y-166894000D02*
X94670000Y-167144000D01*
X95170000Y-167844000D02*
X95170000Y-166894000D01*
X94670000Y-155244000D02*
X105520000Y-155244000D01*
X94670000Y-160344000D02*
X94670000Y-155244000D01*
X94670000Y-165194000D02*
X95170000Y-165444000D01*
X94670000Y-165244000D02*
X94670000Y-165194000D01*
X94670000Y-167144000D02*
X94670000Y-165244000D01*
%TO.C,Q3*%
X76375961Y-104554144D02*
X77266916Y-105445098D01*
X75598144Y-105331961D02*
X76375961Y-104554144D01*
X76489098Y-106222916D02*
X75598144Y-105331961D01*
X76489099Y-106222916D02*
G75*
G03*
X77266629Y-105445327I3774901J-2997084D01*
G01*
%TO.C,U_oxygen1*%
X75391000Y-125539500D02*
X80598000Y-125539500D01*
X80598000Y-125539500D02*
X80598000Y-150050500D01*
X80598000Y-150050500D02*
X75391000Y-150050500D01*
X75391000Y-150050500D02*
X75391000Y-125539500D01*
%TO.C,R4*%
X89582000Y-104983000D02*
X89582000Y-108143000D01*
X90502000Y-104063000D02*
G75*
G03*
X90502000Y-104063000I-920000J0D01*
G01*
%TO.C,R9*%
X133858000Y-129332000D02*
X133858000Y-126172000D01*
X134778000Y-130252000D02*
G75*
G03*
X134778000Y-130252000I-920000J0D01*
G01*
%TO.C,Q4*%
X118285961Y-104554144D02*
X119176916Y-105445098D01*
X117508144Y-105331961D02*
X118285961Y-104554144D01*
X118399098Y-106222916D02*
X117508144Y-105331961D01*
X118399099Y-106222916D02*
G75*
G03*
X119176629Y-105445327I3774901J-2997084D01*
G01*
%TO.C,U_fan1*%
X54940000Y-125412500D02*
X60147000Y-125412500D01*
X60147000Y-125412500D02*
X60147000Y-149923500D01*
X60147000Y-149923500D02*
X54940000Y-149923500D01*
X54940000Y-149923500D02*
X54940000Y-125412500D01*
%TD*%
M02*
