%TF.GenerationSoftware,KiCad,Pcbnew,7.0.3*%
%TF.CreationDate,2023-07-15T06:29:25-05:00*%
%TF.ProjectId,intregration1,696e7472-6567-4726-9174-696f6e312e6b,rev?*%
%TF.SameCoordinates,Original*%
%TF.FileFunction,Soldermask,Bot*%
%TF.FilePolarity,Negative*%
%FSLAX46Y46*%
G04 Gerber Fmt 4.6, Leading zero omitted, Abs format (unit mm)*
G04 Created by KiCad (PCBNEW 7.0.3) date 2023-07-15 06:29:25*
%MOMM*%
%LPD*%
G01*
G04 APERTURE LIST*
%ADD10C,2.100000*%
%ADD11O,2.125000X2.000000*%
%ADD12R,2.200000X2.200000*%
%ADD13O,2.200000X2.200000*%
%ADD14C,2.125000*%
%ADD15O,2.125000X2.125000*%
%ADD16R,3.500000X3.960000*%
%ADD17O,3.500000X3.960000*%
%ADD18C,5.600000*%
%ADD19R,2.600000X2.600000*%
%ADD20O,2.600000X2.600000*%
%ADD21R,3.500000X3.500000*%
%ADD22C,3.500000*%
%ADD23C,5.400000*%
%ADD24R,2.540000X2.000000*%
%ADD25R,2.540000X1.950000*%
%ADD26O,2.125000X3.000000*%
%ADD27R,2.540000X2.100000*%
%ADD28R,2.540000X1.740000*%
%ADD29C,2.000000*%
%ADD30C,3.000000*%
%ADD31C,2.500000*%
G04 APERTURE END LIST*
D10*
%TO.C,R1*%
X131445000Y-80607500D03*
D11*
X131445000Y-78067500D03*
%TD*%
D12*
%TO.C,D2*%
X104140000Y-130556000D03*
D13*
X104140000Y-120396000D03*
%TD*%
D14*
%TO.C,R2*%
X67230000Y-104317000D03*
D15*
X67230000Y-109397000D03*
%TD*%
D16*
%TO.C,J_fan1*%
X62404000Y-161290000D03*
D17*
X57404000Y-161290000D03*
%TD*%
D16*
%TO.C,5V1*%
X106717000Y-35352000D03*
D17*
X101717000Y-35352000D03*
%TD*%
D14*
%TO.C,R5*%
X131826000Y-104190000D03*
D15*
X131826000Y-109270000D03*
%TD*%
D16*
%TO.C,J_LOAD2*%
X135665000Y-161290000D03*
D17*
X130665000Y-161290000D03*
%TD*%
D18*
%TO.C,H6*%
X54250000Y-96012000D03*
%TD*%
D19*
%TO.C,D6*%
X126365000Y-37465000D03*
D20*
X126365000Y-52705000D03*
%TD*%
D21*
%TO.C,J2*%
X146577500Y-59277500D03*
D22*
X146577500Y-64277500D03*
X146577500Y-69277500D03*
%TD*%
D23*
%TO.C,H2*%
X153035000Y-31623000D03*
%TD*%
D21*
%TO.C,J1*%
X146577500Y-77057500D03*
D22*
X146577500Y-82057500D03*
X146577500Y-87057500D03*
%TD*%
D16*
%TO.C,J_AC_INPUT1*%
X118618000Y-161544000D03*
D17*
X113618000Y-161544000D03*
%TD*%
D16*
%TO.C,J_LOAD1*%
X150825000Y-161290000D03*
D17*
X145825000Y-161290000D03*
%TD*%
D24*
%TO.C,J_esp1*%
X80674500Y-89962000D03*
D25*
X80674500Y-87422000D03*
X80674500Y-84882000D03*
X80674500Y-82342000D03*
X80674500Y-79802000D03*
X80674500Y-77262000D03*
X80674500Y-74722000D03*
X80674500Y-72182000D03*
X80674500Y-69642000D03*
X80674500Y-67102000D03*
X80674500Y-64562000D03*
X80674500Y-62022000D03*
X80674500Y-59482000D03*
X80674500Y-56942000D03*
X80674500Y-54402000D03*
%TD*%
D26*
%TO.C,Q2*%
X102362000Y-106680000D03*
D15*
X104902000Y-109220000D03*
X102362000Y-111760000D03*
%TD*%
D21*
%TO.C,J4*%
X146685000Y-50720000D03*
D22*
X146685000Y-45720000D03*
%TD*%
D12*
%TO.C,D3*%
X84074000Y-130302000D03*
D13*
X84074000Y-120142000D03*
%TD*%
D27*
%TO.C,J_esp0*%
X105215000Y-54323000D03*
D28*
X105215000Y-56863000D03*
X105215000Y-59403000D03*
D25*
X105215000Y-61943000D03*
X105215000Y-64483000D03*
X105215000Y-67023000D03*
X105215000Y-69563000D03*
X105215000Y-72103000D03*
X105215000Y-74643000D03*
X105215000Y-77183000D03*
X105215000Y-79723000D03*
X105215000Y-82263000D03*
X105215000Y-84803000D03*
X105215000Y-87343000D03*
X105215000Y-89883000D03*
%TD*%
D22*
%TO.C,U_wpump1*%
X97870000Y-140716000D03*
X97870000Y-147955000D03*
D29*
X97870000Y-130470000D03*
X97870000Y-127889000D03*
%TD*%
D14*
%TO.C,R3*%
X110918000Y-104317000D03*
D15*
X110918000Y-109397000D03*
%TD*%
D16*
%TO.C,J_oxygen1*%
X83058000Y-161544000D03*
D17*
X78058000Y-161544000D03*
%TD*%
D23*
%TO.C,H1*%
X53875000Y-31623000D03*
%TD*%
D26*
%TO.C,Q1*%
X58420000Y-106680000D03*
D15*
X60960000Y-109220000D03*
X58420000Y-111760000D03*
%TD*%
D12*
%TO.C,D4*%
X127254000Y-132080000D03*
D13*
X127254000Y-121920000D03*
%TD*%
D12*
%TO.C,D1*%
X62861000Y-130048000D03*
D13*
X62861000Y-119888000D03*
%TD*%
D23*
%TO.C,H3*%
X68326000Y-147320000D03*
%TD*%
D30*
%TO.C,K_LIGHTS1*%
X145141000Y-130326000D03*
D31*
X151191000Y-132276000D03*
D22*
X151191000Y-144476000D03*
X139141000Y-144526000D03*
D31*
X139191000Y-132276000D03*
%TD*%
D16*
%TO.C,J_wpump1*%
X102870000Y-161544000D03*
D17*
X97870000Y-161544000D03*
%TD*%
D26*
%TO.C,Q3*%
X80264000Y-106680000D03*
D15*
X82804000Y-109220000D03*
X80264000Y-111760000D03*
%TD*%
D23*
%TO.C,H4*%
X124968000Y-147320000D03*
%TD*%
D22*
%TO.C,U_oxygen1*%
X78058000Y-140589000D03*
X78058000Y-147828000D03*
D29*
X78058000Y-130343000D03*
X78058000Y-127762000D03*
%TD*%
D14*
%TO.C,R4*%
X89582000Y-104063000D03*
D15*
X89582000Y-109143000D03*
%TD*%
D14*
%TO.C,R9*%
X133858000Y-130252000D03*
D15*
X133858000Y-125172000D03*
%TD*%
D26*
%TO.C,Q4*%
X122174000Y-106680000D03*
D15*
X124714000Y-109220000D03*
X122174000Y-111760000D03*
%TD*%
D18*
%TO.C,H5*%
X152935000Y-96266000D03*
%TD*%
D22*
%TO.C,U_fan1*%
X57607000Y-140462000D03*
X57607000Y-147701000D03*
D29*
X57607000Y-130216000D03*
X57607000Y-127635000D03*
%TD*%
M02*
