%TF.GenerationSoftware,KiCad,Pcbnew,7.0.3*%
%TF.CreationDate,2023-06-20T18:43:10-05:00*%
%TF.ProjectId,intregration1,696e7472-6567-4726-9174-696f6e312e6b,rev?*%
%TF.SameCoordinates,Original*%
%TF.FileFunction,Copper,L1,Top*%
%TF.FilePolarity,Positive*%
%FSLAX46Y46*%
G04 Gerber Fmt 4.6, Leading zero omitted, Abs format (unit mm)*
G04 Created by KiCad (PCBNEW 7.0.3) date 2023-06-20 18:43:10*
%MOMM*%
%LPD*%
G01*
G04 APERTURE LIST*
%TA.AperFunction,NonConductor*%
%ADD10C,0.200000*%
%TD*%
%ADD11C,0.300000*%
%TA.AperFunction,NonConductor*%
%ADD12C,0.300000*%
%TD*%
%TA.AperFunction,ComponentPad*%
%ADD13C,2.125000*%
%TD*%
%TA.AperFunction,ComponentPad*%
%ADD14O,2.125000X2.125000*%
%TD*%
%TA.AperFunction,ComponentPad*%
%ADD15C,2.100000*%
%TD*%
%TA.AperFunction,ComponentPad*%
%ADD16O,2.125000X2.000000*%
%TD*%
%TA.AperFunction,ComponentPad*%
%ADD17R,2.200000X2.200000*%
%TD*%
%TA.AperFunction,ComponentPad*%
%ADD18O,2.200000X2.200000*%
%TD*%
%TA.AperFunction,ComponentPad*%
%ADD19R,3.500000X3.960000*%
%TD*%
%TA.AperFunction,ComponentPad*%
%ADD20O,3.500000X3.960000*%
%TD*%
%TA.AperFunction,ComponentPad*%
%ADD21C,5.600000*%
%TD*%
%TA.AperFunction,ComponentPad*%
%ADD22R,3.500000X3.500000*%
%TD*%
%TA.AperFunction,ComponentPad*%
%ADD23C,3.500000*%
%TD*%
%TA.AperFunction,ComponentPad*%
%ADD24C,5.400000*%
%TD*%
%TA.AperFunction,ComponentPad*%
%ADD25C,2.000000*%
%TD*%
%TA.AperFunction,ComponentPad*%
%ADD26R,2.540000X2.000000*%
%TD*%
%TA.AperFunction,ComponentPad*%
%ADD27R,2.540000X1.950000*%
%TD*%
%TA.AperFunction,ComponentPad*%
%ADD28O,2.125000X3.000000*%
%TD*%
%TA.AperFunction,ComponentPad*%
%ADD29R,2.540000X2.100000*%
%TD*%
%TA.AperFunction,ComponentPad*%
%ADD30R,2.540000X1.740000*%
%TD*%
%TA.AperFunction,ComponentPad*%
%ADD31C,3.000000*%
%TD*%
%TA.AperFunction,ComponentPad*%
%ADD32C,2.500000*%
%TD*%
%TA.AperFunction,ComponentPad*%
%ADD33R,2.000000X2.000000*%
%TD*%
%TA.AperFunction,ViaPad*%
%ADD34C,2.125000*%
%TD*%
%TA.AperFunction,Conductor*%
%ADD35C,1.330000*%
%TD*%
%TA.AperFunction,Conductor*%
%ADD36C,3.500000*%
%TD*%
G04 APERTURE END LIST*
D10*
X48006000Y-168656000D02*
X159004000Y-168656000D01*
X159004000Y-27940000D01*
X48006000Y-27940000D01*
X48006000Y-168656000D01*
D11*
D12*
X52407844Y-38068447D02*
X52407844Y-35568447D01*
X52407844Y-35568447D02*
X53241177Y-37354161D01*
X53241177Y-37354161D02*
X54074510Y-35568447D01*
X54074510Y-35568447D02*
X54074510Y-38068447D01*
X56336415Y-38068447D02*
X56336415Y-36758923D01*
X56336415Y-36758923D02*
X56217368Y-36520828D01*
X56217368Y-36520828D02*
X55979272Y-36401780D01*
X55979272Y-36401780D02*
X55503082Y-36401780D01*
X55503082Y-36401780D02*
X55264987Y-36520828D01*
X56336415Y-37949400D02*
X56098320Y-38068447D01*
X56098320Y-38068447D02*
X55503082Y-38068447D01*
X55503082Y-38068447D02*
X55264987Y-37949400D01*
X55264987Y-37949400D02*
X55145939Y-37711304D01*
X55145939Y-37711304D02*
X55145939Y-37473209D01*
X55145939Y-37473209D02*
X55264987Y-37235114D01*
X55264987Y-37235114D02*
X55503082Y-37116066D01*
X55503082Y-37116066D02*
X56098320Y-37116066D01*
X56098320Y-37116066D02*
X56336415Y-36997019D01*
X57169749Y-36401780D02*
X58122130Y-36401780D01*
X57526892Y-35568447D02*
X57526892Y-37711304D01*
X57526892Y-37711304D02*
X57645939Y-37949400D01*
X57645939Y-37949400D02*
X57884034Y-38068447D01*
X57884034Y-38068447D02*
X58122130Y-38068447D01*
X58955463Y-38068447D02*
X58955463Y-36401780D01*
X58955463Y-35568447D02*
X58836415Y-35687495D01*
X58836415Y-35687495D02*
X58955463Y-35806542D01*
X58955463Y-35806542D02*
X59074510Y-35687495D01*
X59074510Y-35687495D02*
X58955463Y-35568447D01*
X58955463Y-35568447D02*
X58955463Y-35806542D01*
X61217367Y-37949400D02*
X60979272Y-38068447D01*
X60979272Y-38068447D02*
X60503081Y-38068447D01*
X60503081Y-38068447D02*
X60264986Y-37949400D01*
X60264986Y-37949400D02*
X60145939Y-37830352D01*
X60145939Y-37830352D02*
X60026891Y-37592257D01*
X60026891Y-37592257D02*
X60026891Y-36877971D01*
X60026891Y-36877971D02*
X60145939Y-36639876D01*
X60145939Y-36639876D02*
X60264986Y-36520828D01*
X60264986Y-36520828D02*
X60503081Y-36401780D01*
X60503081Y-36401780D02*
X60979272Y-36401780D01*
X60979272Y-36401780D02*
X61217367Y-36520828D01*
X63360224Y-38068447D02*
X63360224Y-36758923D01*
X63360224Y-36758923D02*
X63241177Y-36520828D01*
X63241177Y-36520828D02*
X63003081Y-36401780D01*
X63003081Y-36401780D02*
X62526891Y-36401780D01*
X62526891Y-36401780D02*
X62288796Y-36520828D01*
X63360224Y-37949400D02*
X63122129Y-38068447D01*
X63122129Y-38068447D02*
X62526891Y-38068447D01*
X62526891Y-38068447D02*
X62288796Y-37949400D01*
X62288796Y-37949400D02*
X62169748Y-37711304D01*
X62169748Y-37711304D02*
X62169748Y-37473209D01*
X62169748Y-37473209D02*
X62288796Y-37235114D01*
X62288796Y-37235114D02*
X62526891Y-37116066D01*
X62526891Y-37116066D02*
X63122129Y-37116066D01*
X63122129Y-37116066D02*
X63360224Y-36997019D01*
X64431653Y-37949400D02*
X64669748Y-38068447D01*
X64669748Y-38068447D02*
X65145939Y-38068447D01*
X65145939Y-38068447D02*
X65384034Y-37949400D01*
X65384034Y-37949400D02*
X65503082Y-37711304D01*
X65503082Y-37711304D02*
X65503082Y-37592257D01*
X65503082Y-37592257D02*
X65384034Y-37354161D01*
X65384034Y-37354161D02*
X65145939Y-37235114D01*
X65145939Y-37235114D02*
X64788796Y-37235114D01*
X64788796Y-37235114D02*
X64550701Y-37116066D01*
X64550701Y-37116066D02*
X64431653Y-36877971D01*
X64431653Y-36877971D02*
X64431653Y-36758923D01*
X64431653Y-36758923D02*
X64550701Y-36520828D01*
X64550701Y-36520828D02*
X64788796Y-36401780D01*
X64788796Y-36401780D02*
X65145939Y-36401780D01*
X65145939Y-36401780D02*
X65384034Y-36520828D01*
X68241177Y-35568447D02*
X68836415Y-38068447D01*
X68836415Y-38068447D02*
X69312606Y-36282733D01*
X69312606Y-36282733D02*
X69788796Y-38068447D01*
X69788796Y-38068447D02*
X70384035Y-35568447D01*
X72407844Y-38068447D02*
X72407844Y-36758923D01*
X72407844Y-36758923D02*
X72288797Y-36520828D01*
X72288797Y-36520828D02*
X72050701Y-36401780D01*
X72050701Y-36401780D02*
X71574511Y-36401780D01*
X71574511Y-36401780D02*
X71336416Y-36520828D01*
X72407844Y-37949400D02*
X72169749Y-38068447D01*
X72169749Y-38068447D02*
X71574511Y-38068447D01*
X71574511Y-38068447D02*
X71336416Y-37949400D01*
X71336416Y-37949400D02*
X71217368Y-37711304D01*
X71217368Y-37711304D02*
X71217368Y-37473209D01*
X71217368Y-37473209D02*
X71336416Y-37235114D01*
X71336416Y-37235114D02*
X71574511Y-37116066D01*
X71574511Y-37116066D02*
X72169749Y-37116066D01*
X72169749Y-37116066D02*
X72407844Y-36997019D01*
X73241178Y-36401780D02*
X74193559Y-36401780D01*
X73598321Y-35568447D02*
X73598321Y-37711304D01*
X73598321Y-37711304D02*
X73717368Y-37949400D01*
X73717368Y-37949400D02*
X73955463Y-38068447D01*
X73955463Y-38068447D02*
X74193559Y-38068447D01*
X75979273Y-37949400D02*
X75741177Y-38068447D01*
X75741177Y-38068447D02*
X75264987Y-38068447D01*
X75264987Y-38068447D02*
X75026892Y-37949400D01*
X75026892Y-37949400D02*
X74907844Y-37711304D01*
X74907844Y-37711304D02*
X74907844Y-36758923D01*
X74907844Y-36758923D02*
X75026892Y-36520828D01*
X75026892Y-36520828D02*
X75264987Y-36401780D01*
X75264987Y-36401780D02*
X75741177Y-36401780D01*
X75741177Y-36401780D02*
X75979273Y-36520828D01*
X75979273Y-36520828D02*
X76098320Y-36758923D01*
X76098320Y-36758923D02*
X76098320Y-36997019D01*
X76098320Y-36997019D02*
X74907844Y-37235114D01*
X77169749Y-38068447D02*
X77169749Y-36401780D01*
X77169749Y-36877971D02*
X77288796Y-36639876D01*
X77288796Y-36639876D02*
X77407844Y-36520828D01*
X77407844Y-36520828D02*
X77645939Y-36401780D01*
X77645939Y-36401780D02*
X77884034Y-36401780D01*
X52884034Y-39593447D02*
X54312605Y-39593447D01*
X53598319Y-42093447D02*
X53598319Y-39593447D01*
X56217367Y-42093447D02*
X56217367Y-40783923D01*
X56217367Y-40783923D02*
X56098320Y-40545828D01*
X56098320Y-40545828D02*
X55860224Y-40426780D01*
X55860224Y-40426780D02*
X55384034Y-40426780D01*
X55384034Y-40426780D02*
X55145939Y-40545828D01*
X56217367Y-41974400D02*
X55979272Y-42093447D01*
X55979272Y-42093447D02*
X55384034Y-42093447D01*
X55384034Y-42093447D02*
X55145939Y-41974400D01*
X55145939Y-41974400D02*
X55026891Y-41736304D01*
X55026891Y-41736304D02*
X55026891Y-41498209D01*
X55026891Y-41498209D02*
X55145939Y-41260114D01*
X55145939Y-41260114D02*
X55384034Y-41141066D01*
X55384034Y-41141066D02*
X55979272Y-41141066D01*
X55979272Y-41141066D02*
X56217367Y-41022019D01*
X57407844Y-40426780D02*
X57407844Y-42093447D01*
X57407844Y-40664876D02*
X57526891Y-40545828D01*
X57526891Y-40545828D02*
X57764986Y-40426780D01*
X57764986Y-40426780D02*
X58122129Y-40426780D01*
X58122129Y-40426780D02*
X58360225Y-40545828D01*
X58360225Y-40545828D02*
X58479272Y-40783923D01*
X58479272Y-40783923D02*
X58479272Y-42093447D01*
X59669749Y-42093447D02*
X59669749Y-39593447D01*
X59907844Y-41141066D02*
X60622130Y-42093447D01*
X60622130Y-40426780D02*
X59669749Y-41379161D01*
X63598321Y-42093447D02*
X63598321Y-39593447D01*
X63598321Y-39593447D02*
X64431654Y-41379161D01*
X64431654Y-41379161D02*
X65264987Y-39593447D01*
X65264987Y-39593447D02*
X65264987Y-42093447D01*
X66812606Y-42093447D02*
X66574511Y-41974400D01*
X66574511Y-41974400D02*
X66455464Y-41855352D01*
X66455464Y-41855352D02*
X66336416Y-41617257D01*
X66336416Y-41617257D02*
X66336416Y-40902971D01*
X66336416Y-40902971D02*
X66455464Y-40664876D01*
X66455464Y-40664876D02*
X66574511Y-40545828D01*
X66574511Y-40545828D02*
X66812606Y-40426780D01*
X66812606Y-40426780D02*
X67169749Y-40426780D01*
X67169749Y-40426780D02*
X67407845Y-40545828D01*
X67407845Y-40545828D02*
X67526892Y-40664876D01*
X67526892Y-40664876D02*
X67645940Y-40902971D01*
X67645940Y-40902971D02*
X67645940Y-41617257D01*
X67645940Y-41617257D02*
X67526892Y-41855352D01*
X67526892Y-41855352D02*
X67407845Y-41974400D01*
X67407845Y-41974400D02*
X67169749Y-42093447D01*
X67169749Y-42093447D02*
X66812606Y-42093447D01*
X69788797Y-42093447D02*
X69788797Y-39593447D01*
X69788797Y-41974400D02*
X69550702Y-42093447D01*
X69550702Y-42093447D02*
X69074511Y-42093447D01*
X69074511Y-42093447D02*
X68836416Y-41974400D01*
X68836416Y-41974400D02*
X68717369Y-41855352D01*
X68717369Y-41855352D02*
X68598321Y-41617257D01*
X68598321Y-41617257D02*
X68598321Y-40902971D01*
X68598321Y-40902971D02*
X68717369Y-40664876D01*
X68717369Y-40664876D02*
X68836416Y-40545828D01*
X68836416Y-40545828D02*
X69074511Y-40426780D01*
X69074511Y-40426780D02*
X69550702Y-40426780D01*
X69550702Y-40426780D02*
X69788797Y-40545828D01*
X72050702Y-40426780D02*
X72050702Y-42093447D01*
X70979274Y-40426780D02*
X70979274Y-41736304D01*
X70979274Y-41736304D02*
X71098321Y-41974400D01*
X71098321Y-41974400D02*
X71336416Y-42093447D01*
X71336416Y-42093447D02*
X71693559Y-42093447D01*
X71693559Y-42093447D02*
X71931655Y-41974400D01*
X71931655Y-41974400D02*
X72050702Y-41855352D01*
X73598321Y-42093447D02*
X73360226Y-41974400D01*
X73360226Y-41974400D02*
X73241179Y-41736304D01*
X73241179Y-41736304D02*
X73241179Y-39593447D01*
X75503084Y-41974400D02*
X75264988Y-42093447D01*
X75264988Y-42093447D02*
X74788798Y-42093447D01*
X74788798Y-42093447D02*
X74550703Y-41974400D01*
X74550703Y-41974400D02*
X74431655Y-41736304D01*
X74431655Y-41736304D02*
X74431655Y-40783923D01*
X74431655Y-40783923D02*
X74550703Y-40545828D01*
X74550703Y-40545828D02*
X74788798Y-40426780D01*
X74788798Y-40426780D02*
X75264988Y-40426780D01*
X75264988Y-40426780D02*
X75503084Y-40545828D01*
X75503084Y-40545828D02*
X75622131Y-40783923D01*
X75622131Y-40783923D02*
X75622131Y-41022019D01*
X75622131Y-41022019D02*
X74431655Y-41260114D01*
X76693560Y-41855352D02*
X76812607Y-41974400D01*
X76812607Y-41974400D02*
X76693560Y-42093447D01*
X76693560Y-42093447D02*
X76574512Y-41974400D01*
X76574512Y-41974400D02*
X76693560Y-41855352D01*
X76693560Y-41855352D02*
X76693560Y-42093447D01*
X50145938Y-48833923D02*
X50503081Y-48952971D01*
X50503081Y-48952971D02*
X50622128Y-49072019D01*
X50622128Y-49072019D02*
X50741176Y-49310114D01*
X50741176Y-49310114D02*
X50741176Y-49667257D01*
X50741176Y-49667257D02*
X50622128Y-49905352D01*
X50622128Y-49905352D02*
X50503081Y-50024400D01*
X50503081Y-50024400D02*
X50264986Y-50143447D01*
X50264986Y-50143447D02*
X49312605Y-50143447D01*
X49312605Y-50143447D02*
X49312605Y-47643447D01*
X49312605Y-47643447D02*
X50145938Y-47643447D01*
X50145938Y-47643447D02*
X50384033Y-47762495D01*
X50384033Y-47762495D02*
X50503081Y-47881542D01*
X50503081Y-47881542D02*
X50622128Y-48119638D01*
X50622128Y-48119638D02*
X50622128Y-48357733D01*
X50622128Y-48357733D02*
X50503081Y-48595828D01*
X50503081Y-48595828D02*
X50384033Y-48714876D01*
X50384033Y-48714876D02*
X50145938Y-48833923D01*
X50145938Y-48833923D02*
X49312605Y-48833923D01*
X52884033Y-48476780D02*
X52884033Y-50143447D01*
X51812605Y-48476780D02*
X51812605Y-49786304D01*
X51812605Y-49786304D02*
X51931652Y-50024400D01*
X51931652Y-50024400D02*
X52169747Y-50143447D01*
X52169747Y-50143447D02*
X52526890Y-50143447D01*
X52526890Y-50143447D02*
X52764986Y-50024400D01*
X52764986Y-50024400D02*
X52884033Y-49905352D01*
X54074510Y-50143447D02*
X54074510Y-48476780D01*
X54074510Y-47643447D02*
X53955462Y-47762495D01*
X53955462Y-47762495D02*
X54074510Y-47881542D01*
X54074510Y-47881542D02*
X54193557Y-47762495D01*
X54193557Y-47762495D02*
X54074510Y-47643447D01*
X54074510Y-47643447D02*
X54074510Y-47881542D01*
X55622128Y-50143447D02*
X55384033Y-50024400D01*
X55384033Y-50024400D02*
X55264986Y-49786304D01*
X55264986Y-49786304D02*
X55264986Y-47643447D01*
X57645938Y-50143447D02*
X57645938Y-47643447D01*
X57645938Y-50024400D02*
X57407843Y-50143447D01*
X57407843Y-50143447D02*
X56931652Y-50143447D01*
X56931652Y-50143447D02*
X56693557Y-50024400D01*
X56693557Y-50024400D02*
X56574510Y-49905352D01*
X56574510Y-49905352D02*
X56455462Y-49667257D01*
X56455462Y-49667257D02*
X56455462Y-48952971D01*
X56455462Y-48952971D02*
X56574510Y-48714876D01*
X56574510Y-48714876D02*
X56693557Y-48595828D01*
X56693557Y-48595828D02*
X56931652Y-48476780D01*
X56931652Y-48476780D02*
X57407843Y-48476780D01*
X57407843Y-48476780D02*
X57645938Y-48595828D01*
X58836415Y-50143447D02*
X58836415Y-48476780D01*
X58836415Y-47643447D02*
X58717367Y-47762495D01*
X58717367Y-47762495D02*
X58836415Y-47881542D01*
X58836415Y-47881542D02*
X58955462Y-47762495D01*
X58955462Y-47762495D02*
X58836415Y-47643447D01*
X58836415Y-47643447D02*
X58836415Y-47881542D01*
X60026891Y-48476780D02*
X60026891Y-50143447D01*
X60026891Y-48714876D02*
X60145938Y-48595828D01*
X60145938Y-48595828D02*
X60384033Y-48476780D01*
X60384033Y-48476780D02*
X60741176Y-48476780D01*
X60741176Y-48476780D02*
X60979272Y-48595828D01*
X60979272Y-48595828D02*
X61098319Y-48833923D01*
X61098319Y-48833923D02*
X61098319Y-50143447D01*
X63360224Y-48476780D02*
X63360224Y-50500590D01*
X63360224Y-50500590D02*
X63241177Y-50738685D01*
X63241177Y-50738685D02*
X63122129Y-50857733D01*
X63122129Y-50857733D02*
X62884034Y-50976780D01*
X62884034Y-50976780D02*
X62526891Y-50976780D01*
X62526891Y-50976780D02*
X62288796Y-50857733D01*
X63360224Y-50024400D02*
X63122129Y-50143447D01*
X63122129Y-50143447D02*
X62645938Y-50143447D01*
X62645938Y-50143447D02*
X62407843Y-50024400D01*
X62407843Y-50024400D02*
X62288796Y-49905352D01*
X62288796Y-49905352D02*
X62169748Y-49667257D01*
X62169748Y-49667257D02*
X62169748Y-48952971D01*
X62169748Y-48952971D02*
X62288796Y-48714876D01*
X62288796Y-48714876D02*
X62407843Y-48595828D01*
X62407843Y-48595828D02*
X62645938Y-48476780D01*
X62645938Y-48476780D02*
X63122129Y-48476780D01*
X63122129Y-48476780D02*
X63360224Y-48595828D01*
X67526891Y-50143447D02*
X67526891Y-48833923D01*
X67526891Y-48833923D02*
X67407844Y-48595828D01*
X67407844Y-48595828D02*
X67169748Y-48476780D01*
X67169748Y-48476780D02*
X66693558Y-48476780D01*
X66693558Y-48476780D02*
X66455463Y-48595828D01*
X67526891Y-50024400D02*
X67288796Y-50143447D01*
X67288796Y-50143447D02*
X66693558Y-50143447D01*
X66693558Y-50143447D02*
X66455463Y-50024400D01*
X66455463Y-50024400D02*
X66336415Y-49786304D01*
X66336415Y-49786304D02*
X66336415Y-49548209D01*
X66336415Y-49548209D02*
X66455463Y-49310114D01*
X66455463Y-49310114D02*
X66693558Y-49191066D01*
X66693558Y-49191066D02*
X67288796Y-49191066D01*
X67288796Y-49191066D02*
X67526891Y-49072019D01*
X68717368Y-48476780D02*
X68717368Y-50143447D01*
X68717368Y-48714876D02*
X68836415Y-48595828D01*
X68836415Y-48595828D02*
X69074510Y-48476780D01*
X69074510Y-48476780D02*
X69431653Y-48476780D01*
X69431653Y-48476780D02*
X69669749Y-48595828D01*
X69669749Y-48595828D02*
X69788796Y-48833923D01*
X69788796Y-48833923D02*
X69788796Y-50143447D01*
X73241177Y-50143447D02*
X73003082Y-50024400D01*
X73003082Y-50024400D02*
X72884035Y-49905352D01*
X72884035Y-49905352D02*
X72764987Y-49667257D01*
X72764987Y-49667257D02*
X72764987Y-48952971D01*
X72764987Y-48952971D02*
X72884035Y-48714876D01*
X72884035Y-48714876D02*
X73003082Y-48595828D01*
X73003082Y-48595828D02*
X73241177Y-48476780D01*
X73241177Y-48476780D02*
X73598320Y-48476780D01*
X73598320Y-48476780D02*
X73836416Y-48595828D01*
X73836416Y-48595828D02*
X73955463Y-48714876D01*
X73955463Y-48714876D02*
X74074511Y-48952971D01*
X74074511Y-48952971D02*
X74074511Y-49667257D01*
X74074511Y-49667257D02*
X73955463Y-49905352D01*
X73955463Y-49905352D02*
X73836416Y-50024400D01*
X73836416Y-50024400D02*
X73598320Y-50143447D01*
X73598320Y-50143447D02*
X73241177Y-50143447D01*
X75145940Y-48476780D02*
X75145940Y-50976780D01*
X75145940Y-48595828D02*
X75384035Y-48476780D01*
X75384035Y-48476780D02*
X75860225Y-48476780D01*
X75860225Y-48476780D02*
X76098321Y-48595828D01*
X76098321Y-48595828D02*
X76217368Y-48714876D01*
X76217368Y-48714876D02*
X76336416Y-48952971D01*
X76336416Y-48952971D02*
X76336416Y-49667257D01*
X76336416Y-49667257D02*
X76217368Y-49905352D01*
X76217368Y-49905352D02*
X76098321Y-50024400D01*
X76098321Y-50024400D02*
X75860225Y-50143447D01*
X75860225Y-50143447D02*
X75384035Y-50143447D01*
X75384035Y-50143447D02*
X75145940Y-50024400D01*
X78360226Y-50024400D02*
X78122130Y-50143447D01*
X78122130Y-50143447D02*
X77645940Y-50143447D01*
X77645940Y-50143447D02*
X77407845Y-50024400D01*
X77407845Y-50024400D02*
X77288797Y-49786304D01*
X77288797Y-49786304D02*
X77288797Y-48833923D01*
X77288797Y-48833923D02*
X77407845Y-48595828D01*
X77407845Y-48595828D02*
X77645940Y-48476780D01*
X77645940Y-48476780D02*
X78122130Y-48476780D01*
X78122130Y-48476780D02*
X78360226Y-48595828D01*
X78360226Y-48595828D02*
X78479273Y-48833923D01*
X78479273Y-48833923D02*
X78479273Y-49072019D01*
X78479273Y-49072019D02*
X77288797Y-49310114D01*
X79550702Y-48476780D02*
X79550702Y-50143447D01*
X79550702Y-48714876D02*
X79669749Y-48595828D01*
X79669749Y-48595828D02*
X79907844Y-48476780D01*
X79907844Y-48476780D02*
X80264987Y-48476780D01*
X80264987Y-48476780D02*
X80503083Y-48595828D01*
X80503083Y-48595828D02*
X80622130Y-48833923D01*
X80622130Y-48833923D02*
X80622130Y-50143447D01*
X55860225Y-54168447D02*
X55860225Y-52858923D01*
X55860225Y-52858923D02*
X55741178Y-52620828D01*
X55741178Y-52620828D02*
X55503082Y-52501780D01*
X55503082Y-52501780D02*
X55026892Y-52501780D01*
X55026892Y-52501780D02*
X54788797Y-52620828D01*
X55860225Y-54049400D02*
X55622130Y-54168447D01*
X55622130Y-54168447D02*
X55026892Y-54168447D01*
X55026892Y-54168447D02*
X54788797Y-54049400D01*
X54788797Y-54049400D02*
X54669749Y-53811304D01*
X54669749Y-53811304D02*
X54669749Y-53573209D01*
X54669749Y-53573209D02*
X54788797Y-53335114D01*
X54788797Y-53335114D02*
X55026892Y-53216066D01*
X55026892Y-53216066D02*
X55622130Y-53216066D01*
X55622130Y-53216066D02*
X55860225Y-53097019D01*
X58122130Y-52501780D02*
X58122130Y-54525590D01*
X58122130Y-54525590D02*
X58003083Y-54763685D01*
X58003083Y-54763685D02*
X57884035Y-54882733D01*
X57884035Y-54882733D02*
X57645940Y-55001780D01*
X57645940Y-55001780D02*
X57288797Y-55001780D01*
X57288797Y-55001780D02*
X57050702Y-54882733D01*
X58122130Y-54049400D02*
X57884035Y-54168447D01*
X57884035Y-54168447D02*
X57407844Y-54168447D01*
X57407844Y-54168447D02*
X57169749Y-54049400D01*
X57169749Y-54049400D02*
X57050702Y-53930352D01*
X57050702Y-53930352D02*
X56931654Y-53692257D01*
X56931654Y-53692257D02*
X56931654Y-52977971D01*
X56931654Y-52977971D02*
X57050702Y-52739876D01*
X57050702Y-52739876D02*
X57169749Y-52620828D01*
X57169749Y-52620828D02*
X57407844Y-52501780D01*
X57407844Y-52501780D02*
X57884035Y-52501780D01*
X57884035Y-52501780D02*
X58122130Y-52620828D01*
X59312607Y-54168447D02*
X59312607Y-52501780D01*
X59312607Y-52977971D02*
X59431654Y-52739876D01*
X59431654Y-52739876D02*
X59550702Y-52620828D01*
X59550702Y-52620828D02*
X59788797Y-52501780D01*
X59788797Y-52501780D02*
X60026892Y-52501780D01*
X60860226Y-54168447D02*
X60860226Y-52501780D01*
X60860226Y-51668447D02*
X60741178Y-51787495D01*
X60741178Y-51787495D02*
X60860226Y-51906542D01*
X60860226Y-51906542D02*
X60979273Y-51787495D01*
X60979273Y-51787495D02*
X60860226Y-51668447D01*
X60860226Y-51668447D02*
X60860226Y-51906542D01*
X63122130Y-54049400D02*
X62884035Y-54168447D01*
X62884035Y-54168447D02*
X62407844Y-54168447D01*
X62407844Y-54168447D02*
X62169749Y-54049400D01*
X62169749Y-54049400D02*
X62050702Y-53930352D01*
X62050702Y-53930352D02*
X61931654Y-53692257D01*
X61931654Y-53692257D02*
X61931654Y-52977971D01*
X61931654Y-52977971D02*
X62050702Y-52739876D01*
X62050702Y-52739876D02*
X62169749Y-52620828D01*
X62169749Y-52620828D02*
X62407844Y-52501780D01*
X62407844Y-52501780D02*
X62884035Y-52501780D01*
X62884035Y-52501780D02*
X63122130Y-52620828D01*
X65264987Y-52501780D02*
X65264987Y-54168447D01*
X64193559Y-52501780D02*
X64193559Y-53811304D01*
X64193559Y-53811304D02*
X64312606Y-54049400D01*
X64312606Y-54049400D02*
X64550701Y-54168447D01*
X64550701Y-54168447D02*
X64907844Y-54168447D01*
X64907844Y-54168447D02*
X65145940Y-54049400D01*
X65145940Y-54049400D02*
X65264987Y-53930352D01*
X66812606Y-54168447D02*
X66574511Y-54049400D01*
X66574511Y-54049400D02*
X66455464Y-53811304D01*
X66455464Y-53811304D02*
X66455464Y-51668447D01*
X67407845Y-52501780D02*
X68360226Y-52501780D01*
X67764988Y-51668447D02*
X67764988Y-53811304D01*
X67764988Y-53811304D02*
X67884035Y-54049400D01*
X67884035Y-54049400D02*
X68122130Y-54168447D01*
X68122130Y-54168447D02*
X68360226Y-54168447D01*
X70264987Y-52501780D02*
X70264987Y-54168447D01*
X69193559Y-52501780D02*
X69193559Y-53811304D01*
X69193559Y-53811304D02*
X69312606Y-54049400D01*
X69312606Y-54049400D02*
X69550701Y-54168447D01*
X69550701Y-54168447D02*
X69907844Y-54168447D01*
X69907844Y-54168447D02*
X70145940Y-54049400D01*
X70145940Y-54049400D02*
X70264987Y-53930352D01*
X71455464Y-54168447D02*
X71455464Y-52501780D01*
X71455464Y-52977971D02*
X71574511Y-52739876D01*
X71574511Y-52739876D02*
X71693559Y-52620828D01*
X71693559Y-52620828D02*
X71931654Y-52501780D01*
X71931654Y-52501780D02*
X72169749Y-52501780D01*
X73955464Y-54049400D02*
X73717368Y-54168447D01*
X73717368Y-54168447D02*
X73241178Y-54168447D01*
X73241178Y-54168447D02*
X73003083Y-54049400D01*
X73003083Y-54049400D02*
X72884035Y-53811304D01*
X72884035Y-53811304D02*
X72884035Y-52858923D01*
X72884035Y-52858923D02*
X73003083Y-52620828D01*
X73003083Y-52620828D02*
X73241178Y-52501780D01*
X73241178Y-52501780D02*
X73717368Y-52501780D01*
X73717368Y-52501780D02*
X73955464Y-52620828D01*
X73955464Y-52620828D02*
X74074511Y-52858923D01*
X74074511Y-52858923D02*
X74074511Y-53097019D01*
X74074511Y-53097019D02*
X72884035Y-53335114D01*
X75145940Y-53930352D02*
X75264987Y-54049400D01*
X75264987Y-54049400D02*
X75145940Y-54168447D01*
X75145940Y-54168447D02*
X75026892Y-54049400D01*
X75026892Y-54049400D02*
X75145940Y-53930352D01*
X75145940Y-53930352D02*
X75145940Y-54168447D01*
X59312606Y-55693447D02*
X60741177Y-55693447D01*
X60026891Y-58193447D02*
X60026891Y-55693447D01*
X61931653Y-58193447D02*
X61693558Y-58074400D01*
X61693558Y-58074400D02*
X61574511Y-57955352D01*
X61574511Y-57955352D02*
X61455463Y-57717257D01*
X61455463Y-57717257D02*
X61455463Y-57002971D01*
X61455463Y-57002971D02*
X61574511Y-56764876D01*
X61574511Y-56764876D02*
X61693558Y-56645828D01*
X61693558Y-56645828D02*
X61931653Y-56526780D01*
X61931653Y-56526780D02*
X62288796Y-56526780D01*
X62288796Y-56526780D02*
X62526892Y-56645828D01*
X62526892Y-56645828D02*
X62645939Y-56764876D01*
X62645939Y-56764876D02*
X62764987Y-57002971D01*
X62764987Y-57002971D02*
X62764987Y-57717257D01*
X62764987Y-57717257D02*
X62645939Y-57955352D01*
X62645939Y-57955352D02*
X62526892Y-58074400D01*
X62526892Y-58074400D02*
X62288796Y-58193447D01*
X62288796Y-58193447D02*
X61931653Y-58193447D01*
X64907844Y-58193447D02*
X64907844Y-55693447D01*
X64907844Y-58074400D02*
X64669749Y-58193447D01*
X64669749Y-58193447D02*
X64193558Y-58193447D01*
X64193558Y-58193447D02*
X63955463Y-58074400D01*
X63955463Y-58074400D02*
X63836416Y-57955352D01*
X63836416Y-57955352D02*
X63717368Y-57717257D01*
X63717368Y-57717257D02*
X63717368Y-57002971D01*
X63717368Y-57002971D02*
X63836416Y-56764876D01*
X63836416Y-56764876D02*
X63955463Y-56645828D01*
X63955463Y-56645828D02*
X64193558Y-56526780D01*
X64193558Y-56526780D02*
X64669749Y-56526780D01*
X64669749Y-56526780D02*
X64907844Y-56645828D01*
X67169749Y-58193447D02*
X67169749Y-56883923D01*
X67169749Y-56883923D02*
X67050702Y-56645828D01*
X67050702Y-56645828D02*
X66812606Y-56526780D01*
X66812606Y-56526780D02*
X66336416Y-56526780D01*
X66336416Y-56526780D02*
X66098321Y-56645828D01*
X67169749Y-58074400D02*
X66931654Y-58193447D01*
X66931654Y-58193447D02*
X66336416Y-58193447D01*
X66336416Y-58193447D02*
X66098321Y-58074400D01*
X66098321Y-58074400D02*
X65979273Y-57836304D01*
X65979273Y-57836304D02*
X65979273Y-57598209D01*
X65979273Y-57598209D02*
X66098321Y-57360114D01*
X66098321Y-57360114D02*
X66336416Y-57241066D01*
X66336416Y-57241066D02*
X66931654Y-57241066D01*
X66931654Y-57241066D02*
X67169749Y-57122019D01*
X68122130Y-56526780D02*
X68717368Y-58193447D01*
X69312607Y-56526780D02*
X68717368Y-58193447D01*
X68717368Y-58193447D02*
X68479273Y-58788685D01*
X68479273Y-58788685D02*
X68360226Y-58907733D01*
X68360226Y-58907733D02*
X68122130Y-59026780D01*
X70264988Y-57955352D02*
X70384035Y-58074400D01*
X70384035Y-58074400D02*
X70264988Y-58193447D01*
X70264988Y-58193447D02*
X70145940Y-58074400D01*
X70145940Y-58074400D02*
X70264988Y-57955352D01*
X70264988Y-57955352D02*
X70264988Y-58193447D01*
D11*
D12*
X109218796Y-91010828D02*
X108504510Y-91010828D01*
X108504510Y-91010828D02*
X108433082Y-91725114D01*
X108433082Y-91725114D02*
X108504510Y-91653685D01*
X108504510Y-91653685D02*
X108647368Y-91582257D01*
X108647368Y-91582257D02*
X109004510Y-91582257D01*
X109004510Y-91582257D02*
X109147368Y-91653685D01*
X109147368Y-91653685D02*
X109218796Y-91725114D01*
X109218796Y-91725114D02*
X109290225Y-91867971D01*
X109290225Y-91867971D02*
X109290225Y-92225114D01*
X109290225Y-92225114D02*
X109218796Y-92367971D01*
X109218796Y-92367971D02*
X109147368Y-92439400D01*
X109147368Y-92439400D02*
X109004510Y-92510828D01*
X109004510Y-92510828D02*
X108647368Y-92510828D01*
X108647368Y-92510828D02*
X108504510Y-92439400D01*
X108504510Y-92439400D02*
X108433082Y-92367971D01*
X109718796Y-91010828D02*
X110218796Y-92510828D01*
X110218796Y-92510828D02*
X110718796Y-91010828D01*
D11*
D12*
X150137257Y-69779774D02*
X150065828Y-69922632D01*
X150065828Y-69922632D02*
X150065828Y-70136917D01*
X150065828Y-70136917D02*
X150137257Y-70351203D01*
X150137257Y-70351203D02*
X150280114Y-70494060D01*
X150280114Y-70494060D02*
X150422971Y-70565489D01*
X150422971Y-70565489D02*
X150708685Y-70636917D01*
X150708685Y-70636917D02*
X150922971Y-70636917D01*
X150922971Y-70636917D02*
X151208685Y-70565489D01*
X151208685Y-70565489D02*
X151351542Y-70494060D01*
X151351542Y-70494060D02*
X151494400Y-70351203D01*
X151494400Y-70351203D02*
X151565828Y-70136917D01*
X151565828Y-70136917D02*
X151565828Y-69994060D01*
X151565828Y-69994060D02*
X151494400Y-69779774D01*
X151494400Y-69779774D02*
X151422971Y-69708346D01*
X151422971Y-69708346D02*
X150922971Y-69708346D01*
X150922971Y-69708346D02*
X150922971Y-69994060D01*
X151565828Y-69065489D02*
X150065828Y-69065489D01*
X150065828Y-69065489D02*
X151565828Y-68208346D01*
X151565828Y-68208346D02*
X150065828Y-68208346D01*
X151565828Y-67494060D02*
X150065828Y-67494060D01*
X150065828Y-67494060D02*
X150065828Y-67136917D01*
X150065828Y-67136917D02*
X150137257Y-66922631D01*
X150137257Y-66922631D02*
X150280114Y-66779774D01*
X150280114Y-66779774D02*
X150422971Y-66708345D01*
X150422971Y-66708345D02*
X150708685Y-66636917D01*
X150708685Y-66636917D02*
X150922971Y-66636917D01*
X150922971Y-66636917D02*
X151208685Y-66708345D01*
X151208685Y-66708345D02*
X151351542Y-66779774D01*
X151351542Y-66779774D02*
X151494400Y-66922631D01*
X151494400Y-66922631D02*
X151565828Y-67136917D01*
X151565828Y-67136917D02*
X151565828Y-67494060D01*
D11*
D12*
X100400225Y-30122257D02*
X100257368Y-30050828D01*
X100257368Y-30050828D02*
X100043082Y-30050828D01*
X100043082Y-30050828D02*
X99828796Y-30122257D01*
X99828796Y-30122257D02*
X99685939Y-30265114D01*
X99685939Y-30265114D02*
X99614510Y-30407971D01*
X99614510Y-30407971D02*
X99543082Y-30693685D01*
X99543082Y-30693685D02*
X99543082Y-30907971D01*
X99543082Y-30907971D02*
X99614510Y-31193685D01*
X99614510Y-31193685D02*
X99685939Y-31336542D01*
X99685939Y-31336542D02*
X99828796Y-31479400D01*
X99828796Y-31479400D02*
X100043082Y-31550828D01*
X100043082Y-31550828D02*
X100185939Y-31550828D01*
X100185939Y-31550828D02*
X100400225Y-31479400D01*
X100400225Y-31479400D02*
X100471653Y-31407971D01*
X100471653Y-31407971D02*
X100471653Y-30907971D01*
X100471653Y-30907971D02*
X100185939Y-30907971D01*
X101114510Y-31550828D02*
X101114510Y-30050828D01*
X101114510Y-30050828D02*
X101971653Y-31550828D01*
X101971653Y-31550828D02*
X101971653Y-30050828D01*
X102685939Y-31550828D02*
X102685939Y-30050828D01*
X102685939Y-30050828D02*
X103043082Y-30050828D01*
X103043082Y-30050828D02*
X103257368Y-30122257D01*
X103257368Y-30122257D02*
X103400225Y-30265114D01*
X103400225Y-30265114D02*
X103471654Y-30407971D01*
X103471654Y-30407971D02*
X103543082Y-30693685D01*
X103543082Y-30693685D02*
X103543082Y-30907971D01*
X103543082Y-30907971D02*
X103471654Y-31193685D01*
X103471654Y-31193685D02*
X103400225Y-31336542D01*
X103400225Y-31336542D02*
X103257368Y-31479400D01*
X103257368Y-31479400D02*
X103043082Y-31550828D01*
X103043082Y-31550828D02*
X102685939Y-31550828D01*
D11*
D12*
X150208685Y-78256917D02*
X150137257Y-78185489D01*
X150137257Y-78185489D02*
X150065828Y-78042632D01*
X150065828Y-78042632D02*
X150065828Y-77685489D01*
X150065828Y-77685489D02*
X150137257Y-77542632D01*
X150137257Y-77542632D02*
X150208685Y-77471203D01*
X150208685Y-77471203D02*
X150351542Y-77399774D01*
X150351542Y-77399774D02*
X150494400Y-77399774D01*
X150494400Y-77399774D02*
X150708685Y-77471203D01*
X150708685Y-77471203D02*
X151565828Y-78328346D01*
X151565828Y-78328346D02*
X151565828Y-77399774D01*
X150065828Y-76042632D02*
X150065828Y-76756918D01*
X150065828Y-76756918D02*
X150780114Y-76828346D01*
X150780114Y-76828346D02*
X150708685Y-76756918D01*
X150708685Y-76756918D02*
X150637257Y-76614061D01*
X150637257Y-76614061D02*
X150637257Y-76256918D01*
X150637257Y-76256918D02*
X150708685Y-76114061D01*
X150708685Y-76114061D02*
X150780114Y-76042632D01*
X150780114Y-76042632D02*
X150922971Y-75971203D01*
X150922971Y-75971203D02*
X151280114Y-75971203D01*
X151280114Y-75971203D02*
X151422971Y-76042632D01*
X151422971Y-76042632D02*
X151494400Y-76114061D01*
X151494400Y-76114061D02*
X151565828Y-76256918D01*
X151565828Y-76256918D02*
X151565828Y-76614061D01*
X151565828Y-76614061D02*
X151494400Y-76756918D01*
X151494400Y-76756918D02*
X151422971Y-76828346D01*
D11*
D12*
X156843796Y-82120828D02*
X156129510Y-82120828D01*
X156129510Y-82120828D02*
X156058082Y-82835114D01*
X156058082Y-82835114D02*
X156129510Y-82763685D01*
X156129510Y-82763685D02*
X156272368Y-82692257D01*
X156272368Y-82692257D02*
X156629510Y-82692257D01*
X156629510Y-82692257D02*
X156772368Y-82763685D01*
X156772368Y-82763685D02*
X156843796Y-82835114D01*
X156843796Y-82835114D02*
X156915225Y-82977971D01*
X156915225Y-82977971D02*
X156915225Y-83335114D01*
X156915225Y-83335114D02*
X156843796Y-83477971D01*
X156843796Y-83477971D02*
X156772368Y-83549400D01*
X156772368Y-83549400D02*
X156629510Y-83620828D01*
X156629510Y-83620828D02*
X156272368Y-83620828D01*
X156272368Y-83620828D02*
X156129510Y-83549400D01*
X156129510Y-83549400D02*
X156058082Y-83477971D01*
X157343796Y-82120828D02*
X157843796Y-83620828D01*
X157843796Y-83620828D02*
X158343796Y-82120828D01*
D11*
D12*
X150137257Y-87559774D02*
X150065828Y-87702632D01*
X150065828Y-87702632D02*
X150065828Y-87916917D01*
X150065828Y-87916917D02*
X150137257Y-88131203D01*
X150137257Y-88131203D02*
X150280114Y-88274060D01*
X150280114Y-88274060D02*
X150422971Y-88345489D01*
X150422971Y-88345489D02*
X150708685Y-88416917D01*
X150708685Y-88416917D02*
X150922971Y-88416917D01*
X150922971Y-88416917D02*
X151208685Y-88345489D01*
X151208685Y-88345489D02*
X151351542Y-88274060D01*
X151351542Y-88274060D02*
X151494400Y-88131203D01*
X151494400Y-88131203D02*
X151565828Y-87916917D01*
X151565828Y-87916917D02*
X151565828Y-87774060D01*
X151565828Y-87774060D02*
X151494400Y-87559774D01*
X151494400Y-87559774D02*
X151422971Y-87488346D01*
X151422971Y-87488346D02*
X150922971Y-87488346D01*
X150922971Y-87488346D02*
X150922971Y-87774060D01*
X151565828Y-86845489D02*
X150065828Y-86845489D01*
X150065828Y-86845489D02*
X151565828Y-85988346D01*
X151565828Y-85988346D02*
X150065828Y-85988346D01*
X151565828Y-85274060D02*
X150065828Y-85274060D01*
X150065828Y-85274060D02*
X150065828Y-84916917D01*
X150065828Y-84916917D02*
X150137257Y-84702631D01*
X150137257Y-84702631D02*
X150280114Y-84559774D01*
X150280114Y-84559774D02*
X150422971Y-84488345D01*
X150422971Y-84488345D02*
X150708685Y-84416917D01*
X150708685Y-84416917D02*
X150922971Y-84416917D01*
X150922971Y-84416917D02*
X151208685Y-84488345D01*
X151208685Y-84488345D02*
X151351542Y-84559774D01*
X151351542Y-84559774D02*
X151494400Y-84702631D01*
X151494400Y-84702631D02*
X151565828Y-84916917D01*
X151565828Y-84916917D02*
X151565828Y-85274060D01*
D11*
D12*
X150065828Y-60548346D02*
X150065828Y-59619774D01*
X150065828Y-59619774D02*
X150637257Y-60119774D01*
X150637257Y-60119774D02*
X150637257Y-59905489D01*
X150637257Y-59905489D02*
X150708685Y-59762632D01*
X150708685Y-59762632D02*
X150780114Y-59691203D01*
X150780114Y-59691203D02*
X150922971Y-59619774D01*
X150922971Y-59619774D02*
X151280114Y-59619774D01*
X151280114Y-59619774D02*
X151422971Y-59691203D01*
X151422971Y-59691203D02*
X151494400Y-59762632D01*
X151494400Y-59762632D02*
X151565828Y-59905489D01*
X151565828Y-59905489D02*
X151565828Y-60334060D01*
X151565828Y-60334060D02*
X151494400Y-60476917D01*
X151494400Y-60476917D02*
X151422971Y-60548346D01*
X150565828Y-58334061D02*
X151565828Y-58334061D01*
X149994400Y-58691203D02*
X151065828Y-59048346D01*
X151065828Y-59048346D02*
X151065828Y-58119775D01*
D11*
D12*
X150137257Y-51364774D02*
X150065828Y-51507632D01*
X150065828Y-51507632D02*
X150065828Y-51721917D01*
X150065828Y-51721917D02*
X150137257Y-51936203D01*
X150137257Y-51936203D02*
X150280114Y-52079060D01*
X150280114Y-52079060D02*
X150422971Y-52150489D01*
X150422971Y-52150489D02*
X150708685Y-52221917D01*
X150708685Y-52221917D02*
X150922971Y-52221917D01*
X150922971Y-52221917D02*
X151208685Y-52150489D01*
X151208685Y-52150489D02*
X151351542Y-52079060D01*
X151351542Y-52079060D02*
X151494400Y-51936203D01*
X151494400Y-51936203D02*
X151565828Y-51721917D01*
X151565828Y-51721917D02*
X151565828Y-51579060D01*
X151565828Y-51579060D02*
X151494400Y-51364774D01*
X151494400Y-51364774D02*
X151422971Y-51293346D01*
X151422971Y-51293346D02*
X150922971Y-51293346D01*
X150922971Y-51293346D02*
X150922971Y-51579060D01*
X151565828Y-50650489D02*
X150065828Y-50650489D01*
X150065828Y-50650489D02*
X151565828Y-49793346D01*
X151565828Y-49793346D02*
X150065828Y-49793346D01*
X151565828Y-49079060D02*
X150065828Y-49079060D01*
X150065828Y-49079060D02*
X150065828Y-48721917D01*
X150065828Y-48721917D02*
X150137257Y-48507631D01*
X150137257Y-48507631D02*
X150280114Y-48364774D01*
X150280114Y-48364774D02*
X150422971Y-48293345D01*
X150422971Y-48293345D02*
X150708685Y-48221917D01*
X150708685Y-48221917D02*
X150922971Y-48221917D01*
X150922971Y-48221917D02*
X151208685Y-48293345D01*
X151208685Y-48293345D02*
X151351542Y-48364774D01*
X151351542Y-48364774D02*
X151494400Y-48507631D01*
X151494400Y-48507631D02*
X151565828Y-48721917D01*
X151565828Y-48721917D02*
X151565828Y-49079060D01*
D11*
D12*
X106678796Y-30050828D02*
X105964510Y-30050828D01*
X105964510Y-30050828D02*
X105893082Y-30765114D01*
X105893082Y-30765114D02*
X105964510Y-30693685D01*
X105964510Y-30693685D02*
X106107368Y-30622257D01*
X106107368Y-30622257D02*
X106464510Y-30622257D01*
X106464510Y-30622257D02*
X106607368Y-30693685D01*
X106607368Y-30693685D02*
X106678796Y-30765114D01*
X106678796Y-30765114D02*
X106750225Y-30907971D01*
X106750225Y-30907971D02*
X106750225Y-31265114D01*
X106750225Y-31265114D02*
X106678796Y-31407971D01*
X106678796Y-31407971D02*
X106607368Y-31479400D01*
X106607368Y-31479400D02*
X106464510Y-31550828D01*
X106464510Y-31550828D02*
X106107368Y-31550828D01*
X106107368Y-31550828D02*
X105964510Y-31479400D01*
X105964510Y-31479400D02*
X105893082Y-31407971D01*
X107178796Y-30050828D02*
X107678796Y-31550828D01*
X107678796Y-31550828D02*
X108178796Y-30050828D01*
D11*
D12*
X142238796Y-63705828D02*
X141524510Y-63705828D01*
X141524510Y-63705828D02*
X141453082Y-64420114D01*
X141453082Y-64420114D02*
X141524510Y-64348685D01*
X141524510Y-64348685D02*
X141667368Y-64277257D01*
X141667368Y-64277257D02*
X142024510Y-64277257D01*
X142024510Y-64277257D02*
X142167368Y-64348685D01*
X142167368Y-64348685D02*
X142238796Y-64420114D01*
X142238796Y-64420114D02*
X142310225Y-64562971D01*
X142310225Y-64562971D02*
X142310225Y-64920114D01*
X142310225Y-64920114D02*
X142238796Y-65062971D01*
X142238796Y-65062971D02*
X142167368Y-65134400D01*
X142167368Y-65134400D02*
X142024510Y-65205828D01*
X142024510Y-65205828D02*
X141667368Y-65205828D01*
X141667368Y-65205828D02*
X141524510Y-65134400D01*
X141524510Y-65134400D02*
X141453082Y-65062971D01*
X142738796Y-63705828D02*
X143238796Y-65205828D01*
X143238796Y-65205828D02*
X143738796Y-63705828D01*
D11*
D12*
X150208685Y-46506917D02*
X150137257Y-46435489D01*
X150137257Y-46435489D02*
X150065828Y-46292632D01*
X150065828Y-46292632D02*
X150065828Y-45935489D01*
X150065828Y-45935489D02*
X150137257Y-45792632D01*
X150137257Y-45792632D02*
X150208685Y-45721203D01*
X150208685Y-45721203D02*
X150351542Y-45649774D01*
X150351542Y-45649774D02*
X150494400Y-45649774D01*
X150494400Y-45649774D02*
X150708685Y-45721203D01*
X150708685Y-45721203D02*
X151565828Y-46578346D01*
X151565828Y-46578346D02*
X151565828Y-45649774D01*
X150065828Y-45149775D02*
X150065828Y-44221203D01*
X150065828Y-44221203D02*
X150637257Y-44721203D01*
X150637257Y-44721203D02*
X150637257Y-44506918D01*
X150637257Y-44506918D02*
X150708685Y-44364061D01*
X150708685Y-44364061D02*
X150780114Y-44292632D01*
X150780114Y-44292632D02*
X150922971Y-44221203D01*
X150922971Y-44221203D02*
X151280114Y-44221203D01*
X151280114Y-44221203D02*
X151422971Y-44292632D01*
X151422971Y-44292632D02*
X151494400Y-44364061D01*
X151494400Y-44364061D02*
X151565828Y-44506918D01*
X151565828Y-44506918D02*
X151565828Y-44935489D01*
X151565828Y-44935489D02*
X151494400Y-45078346D01*
X151494400Y-45078346D02*
X151422971Y-45149775D01*
D11*
D12*
X109290225Y-86637257D02*
X109147368Y-86565828D01*
X109147368Y-86565828D02*
X108933082Y-86565828D01*
X108933082Y-86565828D02*
X108718796Y-86637257D01*
X108718796Y-86637257D02*
X108575939Y-86780114D01*
X108575939Y-86780114D02*
X108504510Y-86922971D01*
X108504510Y-86922971D02*
X108433082Y-87208685D01*
X108433082Y-87208685D02*
X108433082Y-87422971D01*
X108433082Y-87422971D02*
X108504510Y-87708685D01*
X108504510Y-87708685D02*
X108575939Y-87851542D01*
X108575939Y-87851542D02*
X108718796Y-87994400D01*
X108718796Y-87994400D02*
X108933082Y-88065828D01*
X108933082Y-88065828D02*
X109075939Y-88065828D01*
X109075939Y-88065828D02*
X109290225Y-87994400D01*
X109290225Y-87994400D02*
X109361653Y-87922971D01*
X109361653Y-87922971D02*
X109361653Y-87422971D01*
X109361653Y-87422971D02*
X109075939Y-87422971D01*
X110004510Y-88065828D02*
X110004510Y-86565828D01*
X110004510Y-86565828D02*
X110861653Y-88065828D01*
X110861653Y-88065828D02*
X110861653Y-86565828D01*
X111575939Y-88065828D02*
X111575939Y-86565828D01*
X111575939Y-86565828D02*
X111933082Y-86565828D01*
X111933082Y-86565828D02*
X112147368Y-86637257D01*
X112147368Y-86637257D02*
X112290225Y-86780114D01*
X112290225Y-86780114D02*
X112361654Y-86922971D01*
X112361654Y-86922971D02*
X112433082Y-87208685D01*
X112433082Y-87208685D02*
X112433082Y-87422971D01*
X112433082Y-87422971D02*
X112361654Y-87708685D01*
X112361654Y-87708685D02*
X112290225Y-87851542D01*
X112290225Y-87851542D02*
X112147368Y-87994400D01*
X112147368Y-87994400D02*
X111933082Y-88065828D01*
X111933082Y-88065828D02*
X111575939Y-88065828D01*
D13*
%TO.P,R6,1*%
%TO.N,Net-(D1-K)*%
X50800000Y-130252000D03*
D14*
%TO.P,R6,2*%
%TO.N,5v*%
X50800000Y-125172000D03*
%TD*%
D15*
%TO.P,R1,1*%
%TO.N,5v*%
X131445000Y-80607500D03*
D16*
%TO.P,R1,2*%
%TO.N,D25*%
X131445000Y-78067500D03*
%TD*%
D17*
%TO.P,D2,1,K*%
%TO.N,Net-(D2-K)*%
X104140000Y-130556000D03*
D18*
%TO.P,D2,2,A*%
%TO.N,Net-(D2-A)*%
X104140000Y-120396000D03*
%TD*%
D13*
%TO.P,R2,1*%
%TO.N,D22*%
X67230000Y-104317000D03*
D14*
%TO.P,R2,2*%
%TO.N,Net-(Q1-B)*%
X67230000Y-109397000D03*
%TD*%
D19*
%TO.P,J_fan1,1,Pin_1*%
%TO.N,AC2*%
X62404000Y-161290000D03*
D20*
%TO.P,J_fan1,2,Pin_2*%
%TO.N,Net-(J_fan1-Pin_2)*%
X57404000Y-161290000D03*
%TD*%
D19*
%TO.P,5V1,1,Pin_1*%
%TO.N,5v*%
X106717000Y-35352000D03*
D20*
%TO.P,5V1,2,Pin_2*%
%TO.N,GND5V*%
X101717000Y-35352000D03*
%TD*%
D13*
%TO.P,R5,1*%
%TO.N,D21*%
X131826000Y-104190000D03*
D14*
%TO.P,R5,2*%
%TO.N,Net-(Q4-B)*%
X131826000Y-109270000D03*
%TD*%
D19*
%TO.P,J_LOAD2,1,Pin_1*%
%TO.N,GND LOAD*%
X135665000Y-161290000D03*
D20*
%TO.P,J_LOAD2,2,Pin_2*%
%TO.N,Normally O*%
X130665000Y-161290000D03*
%TD*%
D21*
%TO.P,H6,1*%
%TO.N,N/C*%
X54250000Y-96012000D03*
%TD*%
D22*
%TO.P,J2,1,Pin_1*%
%TO.N,D34*%
X146577500Y-59277500D03*
D23*
%TO.P,J2,2,Pin_2*%
%TO.N,5v*%
X146577500Y-64277500D03*
%TO.P,J2,3,Pin_3*%
%TO.N,GND5V*%
X146577500Y-69277500D03*
%TD*%
D24*
%TO.P,H2,1*%
%TO.N,N/C*%
X153035000Y-31623000D03*
%TD*%
D25*
%TO.P,C2,1*%
%TO.N,5v*%
X84953000Y-36602000D03*
%TO.P,C2,2*%
%TO.N,GND5V*%
X84953000Y-34102000D03*
%TD*%
D22*
%TO.P,J1,1,Pin_1*%
%TO.N,D25*%
X146577500Y-77057500D03*
D23*
%TO.P,J1,2,Pin_2*%
%TO.N,5v*%
X146577500Y-82057500D03*
%TO.P,J1,3,Pin_3*%
%TO.N,GND5V*%
X146577500Y-87057500D03*
%TD*%
D19*
%TO.P,J_AC_INPUT1,1,Pin_1*%
%TO.N,AC1*%
X118618000Y-161544000D03*
D20*
%TO.P,J_AC_INPUT1,2,Pin_2*%
%TO.N,AC2*%
X113618000Y-161544000D03*
%TD*%
D19*
%TO.P,J_LOAD1,1,Pin_1*%
%TO.N,LOAD IN*%
X150825000Y-161290000D03*
D20*
%TO.P,J_LOAD1,2,Pin_2*%
%TO.N,GND LOAD*%
X145825000Y-161290000D03*
%TD*%
D26*
%TO.P,J_esp1,1,Pin_1*%
%TO.N,3V3*%
X80674500Y-89962000D03*
D27*
%TO.P,J_esp1,2,Pin_2*%
%TO.N,GND2*%
X80674500Y-87422000D03*
%TO.P,J_esp1,3,Pin_3*%
%TO.N,D15*%
X80674500Y-84882000D03*
%TO.P,J_esp1,4,Pin_4*%
%TO.N,D2*%
X80674500Y-82342000D03*
%TO.P,J_esp1,5,Pin_5*%
%TO.N,D4*%
X80674500Y-79802000D03*
%TO.P,J_esp1,6,Pin_6*%
%TO.N,RX2*%
X80674500Y-77262000D03*
%TO.P,J_esp1,7,Pin_7*%
%TO.N,TX2*%
X80674500Y-74722000D03*
%TO.P,J_esp1,8,Pin_8*%
%TO.N,D5*%
X80674500Y-72182000D03*
%TO.P,J_esp1,9,Pin_9*%
%TO.N,D18*%
X80674500Y-69642000D03*
%TO.P,J_esp1,10,Pin_10*%
%TO.N,D19*%
X80674500Y-67102000D03*
%TO.P,J_esp1,11,Pin_11*%
%TO.N,D21*%
X80674500Y-64562000D03*
%TO.P,J_esp1,12,Pin_12*%
%TO.N,RX0*%
X80674500Y-62022000D03*
%TO.P,J_esp1,13,Pin_13*%
%TO.N,TX0*%
X80674500Y-59482000D03*
%TO.P,J_esp1,14,Pin_14*%
%TO.N,D22*%
X80674500Y-56942000D03*
%TO.P,J_esp1,15,Pin_15*%
%TO.N,D23*%
X80674500Y-54402000D03*
%TD*%
D28*
%TO.P,Q2,1,E*%
%TO.N,GND5V*%
X102362000Y-106680000D03*
D14*
%TO.P,Q2,2,B*%
%TO.N,Net-(Q2-B)*%
X104902000Y-109220000D03*
%TO.P,Q2,3,C*%
%TO.N,Net-(D2-A)*%
X102362000Y-111760000D03*
%TD*%
D22*
%TO.P,J4,1,Pin_1*%
%TO.N,GND5V*%
X146685000Y-50720000D03*
D23*
%TO.P,J4,2,Pin_2*%
%TO.N,D23*%
X146685000Y-45720000D03*
%TD*%
D17*
%TO.P,D3,1,K*%
%TO.N,Net-(D3-K)*%
X84074000Y-130302000D03*
D18*
%TO.P,D3,2,A*%
%TO.N,Net-(D3-A)*%
X84074000Y-120142000D03*
%TD*%
D29*
%TO.P,J_esp0,1,Pin_1*%
%TO.N,EN*%
X105215000Y-54323000D03*
D30*
%TO.P,J_esp0,2,Pin_2*%
%TO.N,VP*%
X105215000Y-56863000D03*
%TO.P,J_esp0,3,Pin_3*%
%TO.N,VN*%
X105215000Y-59403000D03*
D27*
%TO.P,J_esp0,4,Pin_4*%
%TO.N,D34*%
X105215000Y-61943000D03*
%TO.P,J_esp0,5,Pin_5*%
%TO.N,D35*%
X105215000Y-64483000D03*
%TO.P,J_esp0,6,Pin_6*%
%TO.N,D32*%
X105215000Y-67023000D03*
%TO.P,J_esp0,7,Pin_7*%
%TO.N,D33*%
X105215000Y-69563000D03*
%TO.P,J_esp0,8,Pin_8*%
%TO.N,D25*%
X105215000Y-72103000D03*
%TO.P,J_esp0,9,Pin_9*%
%TO.N,D26*%
X105215000Y-74643000D03*
%TO.P,J_esp0,10,Pin_10*%
%TO.N,D27*%
X105215000Y-77183000D03*
%TO.P,J_esp0,11,Pin_11*%
%TO.N,D14*%
X105215000Y-79723000D03*
%TO.P,J_esp0,12,Pin_12*%
%TO.N,D12*%
X105215000Y-82263000D03*
%TO.P,J_esp0,13,Pin_13*%
%TO.N,D13*%
X105215000Y-84803000D03*
%TO.P,J_esp0,14,Pin_14*%
%TO.N,GND5V*%
X105215000Y-87343000D03*
%TO.P,J_esp0,15,Pin_15*%
%TO.N,5v*%
X105215000Y-89883000D03*
%TD*%
D23*
%TO.P,U_wpump1,11*%
%TO.N,AC1*%
X97870000Y-140716000D03*
%TO.P,U_wpump1,14*%
%TO.N,Net-(J_wpump1-Pin_2)*%
X97870000Y-147955000D03*
D25*
%TO.P,U_wpump1,A1*%
%TO.N,Net-(D2-K)*%
X97870000Y-130470000D03*
%TO.P,U_wpump1,A2*%
%TO.N,Net-(D2-A)*%
X97870000Y-127889000D03*
%TD*%
D13*
%TO.P,R3,1*%
%TO.N,D18*%
X110918000Y-104317000D03*
D14*
%TO.P,R3,2*%
%TO.N,Net-(Q2-B)*%
X110918000Y-109397000D03*
%TD*%
D19*
%TO.P,J_oxygen1,1,Pin_1*%
%TO.N,AC2*%
X83058000Y-161544000D03*
D20*
%TO.P,J_oxygen1,2,Pin_2*%
%TO.N,Net-(J_oxygen1-Pin_2)*%
X78058000Y-161544000D03*
%TD*%
D24*
%TO.P,H1,1*%
%TO.N,N/C*%
X53875000Y-31623000D03*
%TD*%
D28*
%TO.P,Q1,1,E*%
%TO.N,GND5V*%
X58420000Y-106680000D03*
D14*
%TO.P,Q1,2,B*%
%TO.N,Net-(Q1-B)*%
X60960000Y-109220000D03*
%TO.P,Q1,3,C*%
%TO.N,Net-(D1-A)*%
X58420000Y-111760000D03*
%TD*%
D17*
%TO.P,D4,1,K*%
%TO.N,Net-(D4-K)*%
X127254000Y-132080000D03*
D18*
%TO.P,D4,2,A*%
%TO.N,Net-(D4-A)*%
X127254000Y-121920000D03*
%TD*%
D17*
%TO.P,D1,1,K*%
%TO.N,Net-(D1-K)*%
X62861000Y-130048000D03*
D18*
%TO.P,D1,2,A*%
%TO.N,Net-(D1-A)*%
X62861000Y-119888000D03*
%TD*%
D24*
%TO.P,H3,1*%
%TO.N,N/C*%
X68326000Y-147320000D03*
%TD*%
D31*
%TO.P,K_LIGHTS1,1*%
%TO.N,LOAD IN*%
X145141000Y-130326000D03*
D32*
%TO.P,K_LIGHTS1,2*%
%TO.N,Net-(D4-A)*%
X151191000Y-132276000D03*
D23*
%TO.P,K_LIGHTS1,3*%
%TO.N,Normally O*%
X151191000Y-144476000D03*
%TO.P,K_LIGHTS1,4*%
%TO.N,Normally C*%
X139141000Y-144526000D03*
D32*
%TO.P,K_LIGHTS1,5*%
%TO.N,Net-(D4-K)*%
X139191000Y-132276000D03*
%TD*%
D19*
%TO.P,J_wpump1,1,Pin_1*%
%TO.N,AC2*%
X102870000Y-161544000D03*
D20*
%TO.P,J_wpump1,2,Pin_2*%
%TO.N,Net-(J_wpump1-Pin_2)*%
X97870000Y-161544000D03*
%TD*%
D33*
%TO.P,C1,1*%
%TO.N,5v*%
X92573000Y-36557113D03*
D25*
%TO.P,C1,2*%
%TO.N,GND5V*%
X92573000Y-34057113D03*
%TD*%
D28*
%TO.P,Q3,1,E*%
%TO.N,GND5V*%
X80264000Y-106680000D03*
D14*
%TO.P,Q3,2,B*%
%TO.N,Net-(Q3-B)*%
X82804000Y-109220000D03*
%TO.P,Q3,3,C*%
%TO.N,Net-(D3-A)*%
X80264000Y-111760000D03*
%TD*%
D24*
%TO.P,H4,1*%
%TO.N,N/C*%
X124968000Y-147320000D03*
%TD*%
D13*
%TO.P,R7,1*%
%TO.N,Net-(D2-K)*%
X90678000Y-130295750D03*
D14*
%TO.P,R7,2*%
%TO.N,5v*%
X90678000Y-125215750D03*
%TD*%
D23*
%TO.P,U_oxygen1,11*%
%TO.N,AC1*%
X78058000Y-140589000D03*
%TO.P,U_oxygen1,14*%
%TO.N,Net-(J_oxygen1-Pin_2)*%
X78058000Y-147828000D03*
D25*
%TO.P,U_oxygen1,A1*%
%TO.N,Net-(D3-K)*%
X78058000Y-130343000D03*
%TO.P,U_oxygen1,A2*%
%TO.N,Net-(D3-A)*%
X78058000Y-127762000D03*
%TD*%
D13*
%TO.P,R4,1*%
%TO.N,D19*%
X89582000Y-104063000D03*
D14*
%TO.P,R4,2*%
%TO.N,Net-(Q3-B)*%
X89582000Y-109143000D03*
%TD*%
D13*
%TO.P,R9,1*%
%TO.N,Net-(D4-K)*%
X133858000Y-130252000D03*
D14*
%TO.P,R9,2*%
%TO.N,5v*%
X133858000Y-125172000D03*
%TD*%
D28*
%TO.P,Q4,1,E*%
%TO.N,GND5V*%
X122174000Y-106680000D03*
D14*
%TO.P,Q4,2,B*%
%TO.N,Net-(Q4-B)*%
X124714000Y-109220000D03*
%TO.P,Q4,3,C*%
%TO.N,Net-(D4-A)*%
X122174000Y-111760000D03*
%TD*%
D21*
%TO.P,H5,1*%
%TO.N,N/C*%
X152935000Y-96266000D03*
%TD*%
D23*
%TO.P,U_fan1,11*%
%TO.N,AC1*%
X57607000Y-140462000D03*
%TO.P,U_fan1,14*%
%TO.N,Net-(J_fan1-Pin_2)*%
X57607000Y-147701000D03*
D25*
%TO.P,U_fan1,A1*%
%TO.N,Net-(D1-K)*%
X57607000Y-130216000D03*
%TO.P,U_fan1,A2*%
%TO.N,Net-(D1-A)*%
X57607000Y-127635000D03*
%TD*%
D13*
%TO.P,R8,1*%
%TO.N,Net-(D3-K)*%
X71374000Y-130295750D03*
D14*
%TO.P,R8,2*%
%TO.N,5v*%
X71374000Y-125215750D03*
%TD*%
D34*
%TO.N,5v*%
X87630000Y-125222000D03*
X68326000Y-125222000D03*
X141732000Y-109728000D03*
X74168000Y-125222000D03*
X130556000Y-125222000D03*
X93980000Y-125222000D03*
X53848000Y-125222000D03*
%TO.N,GND5V*%
X133985000Y-53340000D03*
X109220000Y-45720000D03*
%TO.N,D25*%
X112047000Y-72103000D03*
X129222500Y-75882500D03*
%TO.N,D34*%
X134862997Y-59690000D03*
X112047000Y-61943000D03*
%TO.N,D18*%
X106680000Y-99314000D03*
X93980000Y-91948000D03*
%TO.N,D19*%
X91440000Y-70358000D03*
X91694000Y-97685000D03*
%TO.N,D21*%
X107188000Y-96266000D03*
X91440000Y-64516000D03*
%TO.N,D22*%
X73660000Y-88646000D03*
X70866000Y-103632000D03*
%TO.N,D23*%
X86995000Y-54610000D03*
X133350000Y-42545000D03*
%TD*%
D35*
%TO.N,5v*%
X153812500Y-64277500D02*
X146577500Y-64277500D01*
X92945113Y-36557113D02*
X96774000Y-40386000D01*
X146435000Y-81915000D02*
X146577500Y-82057500D01*
X156845000Y-67310000D02*
X153812500Y-64277500D01*
X118110000Y-81026000D02*
X118110000Y-86360000D01*
X156845000Y-79375000D02*
X156845000Y-67310000D01*
X73914000Y-125222000D02*
X68326000Y-125222000D01*
X96774000Y-40386000D02*
X104394000Y-40386000D01*
X132895000Y-82057500D02*
X131445000Y-80607500D01*
X115570000Y-78486000D02*
X118110000Y-81026000D01*
X146577500Y-82057500D02*
X154162500Y-82057500D01*
X53798000Y-125172000D02*
X53848000Y-125222000D01*
X104394000Y-40386000D02*
X106717000Y-38063000D01*
X92528113Y-36602000D02*
X92573000Y-36557113D01*
X87630000Y-125222000D02*
X87680000Y-125172000D01*
X151130000Y-37465000D02*
X107389000Y-37465000D01*
X154162500Y-82057500D02*
X156845000Y-79375000D01*
X130556000Y-125222000D02*
X133808000Y-125222000D01*
X133808000Y-125222000D02*
X133858000Y-125172000D01*
X141732000Y-109728000D02*
X141732000Y-104648000D01*
X87630000Y-125222000D02*
X93980000Y-125222000D01*
X84725000Y-36830000D02*
X84953000Y-36602000D01*
X50800000Y-125172000D02*
X53798000Y-125172000D01*
X107389000Y-37465000D02*
X106717000Y-38137000D01*
X106717000Y-38137000D02*
X106717000Y-35352000D01*
X118110000Y-86360000D02*
X114587000Y-89883000D01*
X114587000Y-89883000D02*
X105215000Y-89883000D01*
X156845000Y-43180000D02*
X151130000Y-37465000D01*
X92573000Y-36557113D02*
X92945113Y-36557113D01*
X146577500Y-82057500D02*
X132895000Y-82057500D01*
X73864000Y-125172000D02*
X73914000Y-125222000D01*
X115570000Y-46990000D02*
X106717000Y-38137000D01*
X84953000Y-36602000D02*
X92528113Y-36602000D01*
X141732000Y-104648000D02*
X115570000Y-78486000D01*
X106717000Y-38063000D02*
X106717000Y-35352000D01*
X156845000Y-67310000D02*
X156845000Y-43180000D01*
X115570000Y-78486000D02*
X115570000Y-46990000D01*
%TO.N,GND5V*%
X96520000Y-106680000D02*
X122174000Y-106680000D01*
X100203000Y-90043000D02*
X100203000Y-54483000D01*
X100203000Y-54483000D02*
X91440000Y-45720000D01*
X92528113Y-34102000D02*
X92573000Y-34057113D01*
X93980000Y-106680000D02*
X96520000Y-106680000D01*
X84953000Y-34102000D02*
X92528113Y-34102000D01*
X132080000Y-64770000D02*
X132080000Y-55245000D01*
X146577500Y-87057500D02*
X132142500Y-87057500D01*
X136605000Y-50720000D02*
X146685000Y-50720000D01*
X131445000Y-65405000D02*
X132715000Y-65405000D01*
X125730000Y-71120000D02*
X131445000Y-65405000D01*
X58420000Y-106680000D02*
X58420000Y-105410000D01*
X95250000Y-94996000D02*
X95250000Y-105410000D01*
X80010000Y-35560000D02*
X80010000Y-41275000D01*
X132080000Y-55245000D02*
X133985000Y-53340000D01*
X102903000Y-87343000D02*
X105215000Y-87343000D01*
X132142500Y-87057500D02*
X125730000Y-80645000D01*
X133985000Y-53340000D02*
X136605000Y-50720000D01*
X136587500Y-69277500D02*
X133985000Y-66675000D01*
X93980000Y-106680000D02*
X95250000Y-105410000D01*
X91440000Y-45720000D02*
X90805000Y-45720000D01*
X100203000Y-90043000D02*
X102903000Y-87343000D01*
X101717000Y-35352000D02*
X100422113Y-34057113D01*
X95250000Y-94996000D02*
X100203000Y-90043000D01*
X84455000Y-45720000D02*
X90805000Y-45720000D01*
X80010000Y-41275000D02*
X84455000Y-45720000D01*
X95250000Y-105410000D02*
X96520000Y-106680000D01*
X58420000Y-106680000D02*
X93980000Y-106680000D01*
X125730000Y-80645000D02*
X125730000Y-71120000D01*
X133985000Y-66675000D02*
X132715000Y-65405000D01*
X146577500Y-69277500D02*
X136587500Y-69277500D01*
X90805000Y-45720000D02*
X109220000Y-45720000D01*
X81468000Y-34102000D02*
X80010000Y-35560000D01*
X100422113Y-34057113D02*
X92573000Y-34057113D01*
X132715000Y-65405000D02*
X132080000Y-64770000D01*
X84953000Y-34102000D02*
X81468000Y-34102000D01*
%TO.N,D25*%
X131445000Y-78067500D02*
X131655000Y-78277500D01*
X129222500Y-75882500D02*
X129260000Y-75882500D01*
X145357500Y-78277500D02*
X146577500Y-77057500D01*
X129260000Y-75882500D02*
X131445000Y-78067500D01*
X105215000Y-72103000D02*
X112047000Y-72103000D01*
X131655000Y-78277500D02*
X145357500Y-78277500D01*
%TO.N,D34*%
X105182000Y-61976000D02*
X105215000Y-61943000D01*
X146165000Y-59690000D02*
X146577500Y-59277500D01*
X134862997Y-59690000D02*
X146165000Y-59690000D01*
X112047000Y-61943000D02*
X105215000Y-61943000D01*
D36*
%TO.N,AC1*%
X118618000Y-154813000D02*
X118618000Y-161544000D01*
X57607000Y-140462000D02*
X104267000Y-140462000D01*
X104267000Y-140462000D02*
X118618000Y-154813000D01*
%TO.N,AC2*%
X83058000Y-163068000D02*
X86360000Y-166370000D01*
X83058000Y-161544000D02*
X83058000Y-163957000D01*
X83058000Y-161544000D02*
X83058000Y-163068000D01*
X62404000Y-163369000D02*
X62404000Y-161290000D01*
X83058000Y-163957000D02*
X80645000Y-166370000D01*
X65405000Y-166370000D02*
X62404000Y-163369000D01*
X86360000Y-166370000D02*
X100965000Y-166370000D01*
X80645000Y-166370000D02*
X65405000Y-166370000D01*
X102870000Y-164465000D02*
X102870000Y-161544000D01*
X113618000Y-161544000D02*
X102870000Y-161544000D01*
X100965000Y-166370000D02*
X102870000Y-164465000D01*
D35*
%TO.N,D18*%
X106680000Y-100079000D02*
X110918000Y-104317000D01*
X90170000Y-77702500D02*
X82109500Y-69642000D01*
X106680000Y-99314000D02*
X106680000Y-100079000D01*
X90170000Y-88138000D02*
X90170000Y-77702500D01*
X93980000Y-91948000D02*
X90170000Y-88138000D01*
X82109500Y-69642000D02*
X80674500Y-69642000D01*
%TO.N,D19*%
X91440000Y-70358000D02*
X88184000Y-67102000D01*
X89759000Y-99620000D02*
X89759000Y-103886000D01*
X91694000Y-97685000D02*
X89759000Y-99620000D01*
X88184000Y-67102000D02*
X80674500Y-67102000D01*
X89759000Y-103886000D02*
X89582000Y-104063000D01*
%TO.N,D21*%
X91440000Y-64516000D02*
X91394000Y-64562000D01*
X131826000Y-102870000D02*
X131826000Y-104190000D01*
X91394000Y-64562000D02*
X80674500Y-64562000D01*
X107188000Y-96266000D02*
X125222000Y-96266000D01*
X125222000Y-96266000D02*
X131826000Y-102870000D01*
%TO.N,D22*%
X78074500Y-56942000D02*
X80674500Y-56942000D01*
X73660000Y-61356500D02*
X78074500Y-56942000D01*
X70181000Y-104317000D02*
X70866000Y-103632000D01*
X67230000Y-104317000D02*
X70181000Y-104317000D01*
X73660000Y-88646000D02*
X73660000Y-61356500D01*
%TO.N,D23*%
X86995000Y-54610000D02*
X86776000Y-54402000D01*
X144145000Y-43180000D02*
X146685000Y-45720000D01*
X80674500Y-54402000D02*
X86360000Y-54402000D01*
X86360000Y-54402000D02*
X86995000Y-54610000D01*
X133985000Y-43180000D02*
X144145000Y-43180000D01*
X86776000Y-54402000D02*
X86568000Y-54402000D01*
X133350000Y-42545000D02*
X133985000Y-43180000D01*
D36*
%TO.N,Net-(J_fan1-Pin_2)*%
X57607000Y-161087000D02*
X57404000Y-161290000D01*
X57404000Y-147904000D02*
X57607000Y-147701000D01*
X57607000Y-147701000D02*
X57607000Y-161087000D01*
%TO.N,LOAD IN*%
X156210000Y-140970000D02*
X156210000Y-155702000D01*
X145141000Y-132187000D02*
X150368000Y-137414000D01*
X145141000Y-130326000D02*
X145141000Y-132187000D01*
X150825000Y-161290000D02*
X150825000Y-161087000D01*
X150368000Y-137414000D02*
X152654000Y-137414000D01*
X150825000Y-161087000D02*
X156210000Y-155702000D01*
X152654000Y-137414000D02*
X156210000Y-140970000D01*
%TO.N,GND LOAD*%
X135665000Y-161290000D02*
X145825000Y-161290000D01*
%TO.N,Normally O*%
X144791000Y-150876000D02*
X134366000Y-150876000D01*
X151191000Y-144476000D02*
X144791000Y-150876000D01*
X130665000Y-154577000D02*
X130665000Y-161290000D01*
X134366000Y-150876000D02*
X130665000Y-154577000D01*
%TO.N,Net-(J_oxygen1-Pin_2)*%
X78058000Y-147828000D02*
X78058000Y-161544000D01*
%TO.N,Net-(J_wpump1-Pin_2)*%
X97870000Y-147955000D02*
X97870000Y-161544000D01*
D35*
%TO.N,Net-(Q1-B)*%
X60960000Y-109220000D02*
X67053000Y-109220000D01*
X67053000Y-109220000D02*
X67230000Y-109397000D01*
%TO.N,Net-(Q2-B)*%
X110741000Y-109220000D02*
X110918000Y-109397000D01*
X104902000Y-109220000D02*
X110741000Y-109220000D01*
%TO.N,Net-(Q3-B)*%
X82804000Y-109220000D02*
X89505000Y-109220000D01*
X89505000Y-109220000D02*
X89582000Y-109143000D01*
%TO.N,Net-(Q4-B)*%
X131776000Y-109220000D02*
X131826000Y-109270000D01*
X124714000Y-109220000D02*
X131776000Y-109220000D01*
%TO.N,Net-(D1-K)*%
X62657000Y-130252000D02*
X62861000Y-130048000D01*
X50800000Y-130252000D02*
X62657000Y-130252000D01*
%TO.N,Net-(D2-K)*%
X104054000Y-130470000D02*
X104140000Y-130556000D01*
X97870000Y-130470000D02*
X104054000Y-130470000D01*
X97870000Y-130470000D02*
X90852250Y-130470000D01*
X90852250Y-130470000D02*
X90678000Y-130295750D01*
%TO.N,Net-(D3-K)*%
X71932000Y-130302000D02*
X84074000Y-130302000D01*
X71374000Y-130295750D02*
X71925750Y-130295750D01*
X71925750Y-130295750D02*
X71932000Y-130302000D01*
%TO.N,Net-(D4-K)*%
X133858000Y-130252000D02*
X135882000Y-132276000D01*
X135882000Y-132276000D02*
X139191000Y-132276000D01*
X132030000Y-132080000D02*
X133858000Y-130252000D01*
X127254000Y-132080000D02*
X132030000Y-132080000D01*
%TO.N,Net-(D1-A)*%
X57607000Y-127635000D02*
X57607000Y-125142000D01*
X62861000Y-116201000D02*
X58420000Y-111760000D01*
X57607000Y-125142000D02*
X62861000Y-119888000D01*
X62861000Y-119888000D02*
X62861000Y-116201000D01*
%TO.N,Net-(D3-A)*%
X78058000Y-127762000D02*
X78058000Y-126158000D01*
X78058000Y-126158000D02*
X84074000Y-120142000D01*
X84074000Y-115570000D02*
X80264000Y-111760000D01*
X84074000Y-120142000D02*
X84074000Y-115570000D01*
%TO.N,Net-(D2-A)*%
X102362000Y-118618000D02*
X104140000Y-120396000D01*
X97870000Y-126666000D02*
X104140000Y-120396000D01*
X102362000Y-111760000D02*
X102362000Y-118618000D01*
X97870000Y-127889000D02*
X97870000Y-126666000D01*
%TO.N,Net-(D4-A)*%
X127254000Y-121920000D02*
X148844000Y-121920000D01*
X151191000Y-124267000D02*
X151191000Y-132276000D01*
X127254000Y-116840000D02*
X122174000Y-111760000D01*
X148844000Y-121920000D02*
X151191000Y-124267000D01*
X127254000Y-121920000D02*
X127254000Y-116840000D01*
%TD*%
M02*
