%TF.GenerationSoftware,KiCad,Pcbnew,7.0.6*%
%TF.CreationDate,2023-08-24T16:04:53-05:00*%
%TF.ProjectId,basic_decoration_pcb,62617369-635f-4646-9563-6f726174696f,rev?*%
%TF.SameCoordinates,Original*%
%TF.FileFunction,Soldermask,Bot*%
%TF.FilePolarity,Negative*%
%FSLAX46Y46*%
G04 Gerber Fmt 4.6, Leading zero omitted, Abs format (unit mm)*
G04 Created by KiCad (PCBNEW 7.0.6) date 2023-08-24 16:04:53*
%MOMM*%
%LPD*%
G01*
G04 APERTURE LIST*
%ADD10R,3.960000X3.000000*%
%ADD11O,3.960000X3.000000*%
%ADD12C,5.400000*%
%ADD13R,2.540000X2.100000*%
%ADD14R,2.540000X1.740000*%
%ADD15R,2.540000X1.950000*%
%ADD16R,2.540000X2.000000*%
%ADD17R,2.125000X3.000000*%
%ADD18O,2.125000X3.125000*%
%ADD19R,3.000000X3.960000*%
%ADD20O,3.000000X3.960000*%
%ADD21C,2.125000*%
%ADD22O,2.125000X2.125000*%
G04 APERTURE END LIST*
D10*
%TO.C,J_AC_INPUT1*%
X219583000Y-78279000D03*
D11*
X219583000Y-73279000D03*
%TD*%
D10*
%TO.C,J_AC_LOAD1*%
X219583000Y-66929000D03*
D11*
X219583000Y-61929000D03*
%TD*%
D10*
%TO.C,Screen1*%
X158227000Y-57390000D03*
D11*
X158227000Y-62390000D03*
X158227000Y-67390000D03*
X158227000Y-72390000D03*
%TD*%
D10*
%TO.C,J3*%
X157973000Y-79154000D03*
D11*
X157973000Y-84154000D03*
X157973000Y-89154000D03*
%TD*%
D12*
%TO.C,H1*%
X218785560Y-53086000D03*
%TD*%
%TO.C,H3*%
X155194000Y-107696000D03*
%TD*%
D13*
%TO.C,J_esp0*%
X196861960Y-52865800D03*
D14*
X196861960Y-55405800D03*
X196861960Y-57945800D03*
D15*
X196861960Y-60485800D03*
X196861960Y-63025800D03*
X196861960Y-65565800D03*
X196861960Y-68105800D03*
X196861960Y-70645800D03*
X196861960Y-73185800D03*
X196861960Y-75725800D03*
X196861960Y-78265800D03*
X196861960Y-80805800D03*
X196861960Y-83345800D03*
X196861960Y-85885800D03*
X196861960Y-88425800D03*
%TD*%
D16*
%TO.C,J_esp1*%
X172321460Y-88504800D03*
D15*
X172321460Y-85964800D03*
X172321460Y-83424800D03*
X172321460Y-80884800D03*
X172321460Y-78344800D03*
X172321460Y-75804800D03*
X172321460Y-73264800D03*
X172321460Y-70724800D03*
X172321460Y-68184800D03*
X172321460Y-65644800D03*
X172321460Y-63104800D03*
X172321460Y-60564800D03*
X172321460Y-58024800D03*
X172321460Y-55484800D03*
X172321460Y-52944800D03*
%TD*%
D12*
%TO.C,H2*%
X222417760Y-107569000D03*
%TD*%
%TO.C,H4*%
X183896000Y-53213000D03*
%TD*%
D17*
%TO.C,Q1*%
X221727000Y-100118250D03*
D18*
X217917000Y-100118250D03*
X214107000Y-100118250D03*
%TD*%
D19*
%TO.C,5V1*%
X180071000Y-104394000D03*
D20*
X185071000Y-104394000D03*
%TD*%
D21*
%TO.C,R2*%
X205492250Y-100076000D03*
D22*
X210572250Y-100076000D03*
%TD*%
D21*
%TO.C,U1*%
X194437000Y-102997000D03*
X194437000Y-100457000D03*
X194437000Y-97917000D03*
X202057000Y-97917000D03*
X202057000Y-100457000D03*
X202057000Y-102997000D03*
%TD*%
%TO.C,R1*%
X190379250Y-109093000D03*
D22*
X195459250Y-109093000D03*
%TD*%
M02*
