%TF.GenerationSoftware,KiCad,Pcbnew,7.0.6*%
%TF.CreationDate,2023-08-24T15:26:22-05:00*%
%TF.ProjectId,basic_decoration_pcb,62617369-635f-4646-9563-6f726174696f,rev?*%
%TF.SameCoordinates,Original*%
%TF.FileFunction,Legend,Bot*%
%TF.FilePolarity,Positive*%
%FSLAX46Y46*%
G04 Gerber Fmt 4.6, Leading zero omitted, Abs format (unit mm)*
G04 Created by KiCad (PCBNEW 7.0.6) date 2023-08-24 15:26:22*
%MOMM*%
%LPD*%
G01*
G04 APERTURE LIST*
%ADD10C,0.150000*%
%ADD11C,0.120000*%
%ADD12C,0.152400*%
G04 APERTURE END LIST*
D10*
X218012238Y-96398307D02*
X218107476Y-96350688D01*
X218107476Y-96350688D02*
X218202714Y-96255450D01*
X218202714Y-96255450D02*
X218345571Y-96112592D01*
X218345571Y-96112592D02*
X218440809Y-96064973D01*
X218440809Y-96064973D02*
X218536047Y-96064973D01*
X218488428Y-96303069D02*
X218583666Y-96255450D01*
X218583666Y-96255450D02*
X218678904Y-96160211D01*
X218678904Y-96160211D02*
X218726523Y-95969735D01*
X218726523Y-95969735D02*
X218726523Y-95636402D01*
X218726523Y-95636402D02*
X218678904Y-95445926D01*
X218678904Y-95445926D02*
X218583666Y-95350688D01*
X218583666Y-95350688D02*
X218488428Y-95303069D01*
X218488428Y-95303069D02*
X218297952Y-95303069D01*
X218297952Y-95303069D02*
X218202714Y-95350688D01*
X218202714Y-95350688D02*
X218107476Y-95445926D01*
X218107476Y-95445926D02*
X218059857Y-95636402D01*
X218059857Y-95636402D02*
X218059857Y-95969735D01*
X218059857Y-95969735D02*
X218107476Y-96160211D01*
X218107476Y-96160211D02*
X218202714Y-96255450D01*
X218202714Y-96255450D02*
X218297952Y-96303069D01*
X218297952Y-96303069D02*
X218488428Y-96303069D01*
X217107476Y-96303069D02*
X217678904Y-96303069D01*
X217393190Y-96303069D02*
X217393190Y-95303069D01*
X217393190Y-95303069D02*
X217488428Y-95445926D01*
X217488428Y-95445926D02*
X217583666Y-95541164D01*
X217583666Y-95541164D02*
X217678904Y-95588783D01*
X197485095Y-101002180D02*
X197485095Y-100192657D01*
X197485095Y-100192657D02*
X197532714Y-100097419D01*
X197532714Y-100097419D02*
X197580333Y-100049800D01*
X197580333Y-100049800D02*
X197675571Y-100002180D01*
X197675571Y-100002180D02*
X197866047Y-100002180D01*
X197866047Y-100002180D02*
X197961285Y-100049800D01*
X197961285Y-100049800D02*
X198008904Y-100097419D01*
X198008904Y-100097419D02*
X198056523Y-100192657D01*
X198056523Y-100192657D02*
X198056523Y-101002180D01*
X199056523Y-100002180D02*
X198485095Y-100002180D01*
X198770809Y-100002180D02*
X198770809Y-101002180D01*
X198770809Y-101002180D02*
X198675571Y-100859323D01*
X198675571Y-100859323D02*
X198580333Y-100764085D01*
X198580333Y-100764085D02*
X198485095Y-100716466D01*
X194436999Y-103886919D02*
X194436999Y-104125014D01*
X194675094Y-104029776D02*
X194436999Y-104125014D01*
X194436999Y-104125014D02*
X194198904Y-104029776D01*
X194579856Y-104315490D02*
X194436999Y-104125014D01*
X194436999Y-104125014D02*
X194294142Y-104315490D01*
X194437000Y-104977280D02*
X194437000Y-104739185D01*
X194198905Y-104834423D02*
X194437000Y-104739185D01*
X194437000Y-104739185D02*
X194675095Y-104834423D01*
X194294143Y-104548709D02*
X194437000Y-104739185D01*
X194437000Y-104739185D02*
X194579857Y-104548709D01*
X151484200Y-62080476D02*
X151531819Y-62223333D01*
X151531819Y-62223333D02*
X151531819Y-62461428D01*
X151531819Y-62461428D02*
X151484200Y-62556666D01*
X151484200Y-62556666D02*
X151436580Y-62604285D01*
X151436580Y-62604285D02*
X151341342Y-62651904D01*
X151341342Y-62651904D02*
X151246104Y-62651904D01*
X151246104Y-62651904D02*
X151150866Y-62604285D01*
X151150866Y-62604285D02*
X151103247Y-62556666D01*
X151103247Y-62556666D02*
X151055628Y-62461428D01*
X151055628Y-62461428D02*
X151008009Y-62270952D01*
X151008009Y-62270952D02*
X150960390Y-62175714D01*
X150960390Y-62175714D02*
X150912771Y-62128095D01*
X150912771Y-62128095D02*
X150817533Y-62080476D01*
X150817533Y-62080476D02*
X150722295Y-62080476D01*
X150722295Y-62080476D02*
X150627057Y-62128095D01*
X150627057Y-62128095D02*
X150579438Y-62175714D01*
X150579438Y-62175714D02*
X150531819Y-62270952D01*
X150531819Y-62270952D02*
X150531819Y-62509047D01*
X150531819Y-62509047D02*
X150579438Y-62651904D01*
X151484200Y-63509047D02*
X151531819Y-63413809D01*
X151531819Y-63413809D02*
X151531819Y-63223333D01*
X151531819Y-63223333D02*
X151484200Y-63128095D01*
X151484200Y-63128095D02*
X151436580Y-63080476D01*
X151436580Y-63080476D02*
X151341342Y-63032857D01*
X151341342Y-63032857D02*
X151055628Y-63032857D01*
X151055628Y-63032857D02*
X150960390Y-63080476D01*
X150960390Y-63080476D02*
X150912771Y-63128095D01*
X150912771Y-63128095D02*
X150865152Y-63223333D01*
X150865152Y-63223333D02*
X150865152Y-63413809D01*
X150865152Y-63413809D02*
X150912771Y-63509047D01*
X151531819Y-63937619D02*
X150865152Y-63937619D01*
X151055628Y-63937619D02*
X150960390Y-63985238D01*
X150960390Y-63985238D02*
X150912771Y-64032857D01*
X150912771Y-64032857D02*
X150865152Y-64128095D01*
X150865152Y-64128095D02*
X150865152Y-64223333D01*
X151484200Y-64937619D02*
X151531819Y-64842381D01*
X151531819Y-64842381D02*
X151531819Y-64651905D01*
X151531819Y-64651905D02*
X151484200Y-64556667D01*
X151484200Y-64556667D02*
X151388961Y-64509048D01*
X151388961Y-64509048D02*
X151008009Y-64509048D01*
X151008009Y-64509048D02*
X150912771Y-64556667D01*
X150912771Y-64556667D02*
X150865152Y-64651905D01*
X150865152Y-64651905D02*
X150865152Y-64842381D01*
X150865152Y-64842381D02*
X150912771Y-64937619D01*
X150912771Y-64937619D02*
X151008009Y-64985238D01*
X151008009Y-64985238D02*
X151103247Y-64985238D01*
X151103247Y-64985238D02*
X151198485Y-64509048D01*
X151484200Y-65794762D02*
X151531819Y-65699524D01*
X151531819Y-65699524D02*
X151531819Y-65509048D01*
X151531819Y-65509048D02*
X151484200Y-65413810D01*
X151484200Y-65413810D02*
X151388961Y-65366191D01*
X151388961Y-65366191D02*
X151008009Y-65366191D01*
X151008009Y-65366191D02*
X150912771Y-65413810D01*
X150912771Y-65413810D02*
X150865152Y-65509048D01*
X150865152Y-65509048D02*
X150865152Y-65699524D01*
X150865152Y-65699524D02*
X150912771Y-65794762D01*
X150912771Y-65794762D02*
X151008009Y-65842381D01*
X151008009Y-65842381D02*
X151103247Y-65842381D01*
X151103247Y-65842381D02*
X151198485Y-65366191D01*
X150865152Y-66270953D02*
X151531819Y-66270953D01*
X150960390Y-66270953D02*
X150912771Y-66318572D01*
X150912771Y-66318572D02*
X150865152Y-66413810D01*
X150865152Y-66413810D02*
X150865152Y-66556667D01*
X150865152Y-66556667D02*
X150912771Y-66651905D01*
X150912771Y-66651905D02*
X151008009Y-66699524D01*
X151008009Y-66699524D02*
X151531819Y-66699524D01*
X151531819Y-67699524D02*
X151531819Y-67128096D01*
X151531819Y-67413810D02*
X150531819Y-67413810D01*
X150531819Y-67413810D02*
X150674676Y-67318572D01*
X150674676Y-67318572D02*
X150769914Y-67223334D01*
X150769914Y-67223334D02*
X150817533Y-67128096D01*
X220306819Y-91019333D02*
X219830628Y-90686000D01*
X220306819Y-90447905D02*
X219306819Y-90447905D01*
X219306819Y-90447905D02*
X219306819Y-90828857D01*
X219306819Y-90828857D02*
X219354438Y-90924095D01*
X219354438Y-90924095D02*
X219402057Y-90971714D01*
X219402057Y-90971714D02*
X219497295Y-91019333D01*
X219497295Y-91019333D02*
X219640152Y-91019333D01*
X219640152Y-91019333D02*
X219735390Y-90971714D01*
X219735390Y-90971714D02*
X219783009Y-90924095D01*
X219783009Y-90924095D02*
X219830628Y-90828857D01*
X219830628Y-90828857D02*
X219830628Y-90447905D01*
X219306819Y-91352667D02*
X219306819Y-91971714D01*
X219306819Y-91971714D02*
X219687771Y-91638381D01*
X219687771Y-91638381D02*
X219687771Y-91781238D01*
X219687771Y-91781238D02*
X219735390Y-91876476D01*
X219735390Y-91876476D02*
X219783009Y-91924095D01*
X219783009Y-91924095D02*
X219878247Y-91971714D01*
X219878247Y-91971714D02*
X220116342Y-91971714D01*
X220116342Y-91971714D02*
X220211580Y-91924095D01*
X220211580Y-91924095D02*
X220259200Y-91876476D01*
X220259200Y-91876476D02*
X220306819Y-91781238D01*
X220306819Y-91781238D02*
X220306819Y-91495524D01*
X220306819Y-91495524D02*
X220259200Y-91400286D01*
X220259200Y-91400286D02*
X220211580Y-91352667D01*
X208198916Y-102450819D02*
X208532249Y-101974628D01*
X208770344Y-102450819D02*
X208770344Y-101450819D01*
X208770344Y-101450819D02*
X208389392Y-101450819D01*
X208389392Y-101450819D02*
X208294154Y-101498438D01*
X208294154Y-101498438D02*
X208246535Y-101546057D01*
X208246535Y-101546057D02*
X208198916Y-101641295D01*
X208198916Y-101641295D02*
X208198916Y-101784152D01*
X208198916Y-101784152D02*
X208246535Y-101879390D01*
X208246535Y-101879390D02*
X208294154Y-101927009D01*
X208294154Y-101927009D02*
X208389392Y-101974628D01*
X208389392Y-101974628D02*
X208770344Y-101974628D01*
X207817963Y-101546057D02*
X207770344Y-101498438D01*
X207770344Y-101498438D02*
X207675106Y-101450819D01*
X207675106Y-101450819D02*
X207437011Y-101450819D01*
X207437011Y-101450819D02*
X207341773Y-101498438D01*
X207341773Y-101498438D02*
X207294154Y-101546057D01*
X207294154Y-101546057D02*
X207246535Y-101641295D01*
X207246535Y-101641295D02*
X207246535Y-101736533D01*
X207246535Y-101736533D02*
X207294154Y-101879390D01*
X207294154Y-101879390D02*
X207865582Y-102450819D01*
X207865582Y-102450819D02*
X207246535Y-102450819D01*
X193085916Y-111467819D02*
X193419249Y-110991628D01*
X193657344Y-111467819D02*
X193657344Y-110467819D01*
X193657344Y-110467819D02*
X193276392Y-110467819D01*
X193276392Y-110467819D02*
X193181154Y-110515438D01*
X193181154Y-110515438D02*
X193133535Y-110563057D01*
X193133535Y-110563057D02*
X193085916Y-110658295D01*
X193085916Y-110658295D02*
X193085916Y-110801152D01*
X193085916Y-110801152D02*
X193133535Y-110896390D01*
X193133535Y-110896390D02*
X193181154Y-110944009D01*
X193181154Y-110944009D02*
X193276392Y-110991628D01*
X193276392Y-110991628D02*
X193657344Y-110991628D01*
X192133535Y-111467819D02*
X192704963Y-111467819D01*
X192419249Y-111467819D02*
X192419249Y-110467819D01*
X192419249Y-110467819D02*
X192514487Y-110610676D01*
X192514487Y-110610676D02*
X192609725Y-110705914D01*
X192609725Y-110705914D02*
X192704963Y-110753533D01*
X225758819Y-68523618D02*
X226473104Y-68523618D01*
X226473104Y-68523618D02*
X226615961Y-68475999D01*
X226615961Y-68475999D02*
X226711200Y-68380761D01*
X226711200Y-68380761D02*
X226758819Y-68237904D01*
X226758819Y-68237904D02*
X226758819Y-68142666D01*
X226854057Y-68761714D02*
X226854057Y-69523618D01*
X226473104Y-69714095D02*
X226473104Y-70190285D01*
X226758819Y-69618857D02*
X225758819Y-69952190D01*
X225758819Y-69952190D02*
X226758819Y-70285523D01*
X226663580Y-71190285D02*
X226711200Y-71142666D01*
X226711200Y-71142666D02*
X226758819Y-70999809D01*
X226758819Y-70999809D02*
X226758819Y-70904571D01*
X226758819Y-70904571D02*
X226711200Y-70761714D01*
X226711200Y-70761714D02*
X226615961Y-70666476D01*
X226615961Y-70666476D02*
X226520723Y-70618857D01*
X226520723Y-70618857D02*
X226330247Y-70571238D01*
X226330247Y-70571238D02*
X226187390Y-70571238D01*
X226187390Y-70571238D02*
X225996914Y-70618857D01*
X225996914Y-70618857D02*
X225901676Y-70666476D01*
X225901676Y-70666476D02*
X225806438Y-70761714D01*
X225806438Y-70761714D02*
X225758819Y-70904571D01*
X225758819Y-70904571D02*
X225758819Y-70999809D01*
X225758819Y-70999809D02*
X225806438Y-71142666D01*
X225806438Y-71142666D02*
X225854057Y-71190285D01*
X226854057Y-71380762D02*
X226854057Y-72142666D01*
X225758819Y-72571238D02*
X225758819Y-72761714D01*
X225758819Y-72761714D02*
X225806438Y-72856952D01*
X225806438Y-72856952D02*
X225901676Y-72952190D01*
X225901676Y-72952190D02*
X226092152Y-72999809D01*
X226092152Y-72999809D02*
X226425485Y-72999809D01*
X226425485Y-72999809D02*
X226615961Y-72952190D01*
X226615961Y-72952190D02*
X226711200Y-72856952D01*
X226711200Y-72856952D02*
X226758819Y-72761714D01*
X226758819Y-72761714D02*
X226758819Y-72571238D01*
X226758819Y-72571238D02*
X226711200Y-72476000D01*
X226711200Y-72476000D02*
X226615961Y-72380762D01*
X226615961Y-72380762D02*
X226425485Y-72333143D01*
X226425485Y-72333143D02*
X226092152Y-72333143D01*
X226092152Y-72333143D02*
X225901676Y-72380762D01*
X225901676Y-72380762D02*
X225806438Y-72476000D01*
X225806438Y-72476000D02*
X225758819Y-72571238D01*
X225758819Y-73428381D02*
X226568342Y-73428381D01*
X226568342Y-73428381D02*
X226663580Y-73476000D01*
X226663580Y-73476000D02*
X226711200Y-73523619D01*
X226711200Y-73523619D02*
X226758819Y-73618857D01*
X226758819Y-73618857D02*
X226758819Y-73809333D01*
X226758819Y-73809333D02*
X226711200Y-73904571D01*
X226711200Y-73904571D02*
X226663580Y-73952190D01*
X226663580Y-73952190D02*
X226568342Y-73999809D01*
X226568342Y-73999809D02*
X225758819Y-73999809D01*
X225758819Y-74333143D02*
X225758819Y-74904571D01*
X226758819Y-74618857D02*
X225758819Y-74618857D01*
X226758819Y-75761714D02*
X226758819Y-75190286D01*
X226758819Y-75476000D02*
X225758819Y-75476000D01*
X225758819Y-75476000D02*
X225901676Y-75380762D01*
X225901676Y-75380762D02*
X225996914Y-75285524D01*
X225996914Y-75285524D02*
X226044533Y-75190286D01*
X211778819Y-69962523D02*
X212493104Y-69962523D01*
X212493104Y-69962523D02*
X212635961Y-69914904D01*
X212635961Y-69914904D02*
X212731200Y-69819666D01*
X212731200Y-69819666D02*
X212778819Y-69676809D01*
X212778819Y-69676809D02*
X212778819Y-69581571D01*
X212874057Y-70200619D02*
X212874057Y-70962523D01*
X212493104Y-71153000D02*
X212493104Y-71629190D01*
X212778819Y-71057762D02*
X211778819Y-71391095D01*
X211778819Y-71391095D02*
X212778819Y-71724428D01*
X212683580Y-72629190D02*
X212731200Y-72581571D01*
X212731200Y-72581571D02*
X212778819Y-72438714D01*
X212778819Y-72438714D02*
X212778819Y-72343476D01*
X212778819Y-72343476D02*
X212731200Y-72200619D01*
X212731200Y-72200619D02*
X212635961Y-72105381D01*
X212635961Y-72105381D02*
X212540723Y-72057762D01*
X212540723Y-72057762D02*
X212350247Y-72010143D01*
X212350247Y-72010143D02*
X212207390Y-72010143D01*
X212207390Y-72010143D02*
X212016914Y-72057762D01*
X212016914Y-72057762D02*
X211921676Y-72105381D01*
X211921676Y-72105381D02*
X211826438Y-72200619D01*
X211826438Y-72200619D02*
X211778819Y-72343476D01*
X211778819Y-72343476D02*
X211778819Y-72438714D01*
X211778819Y-72438714D02*
X211826438Y-72581571D01*
X211826438Y-72581571D02*
X211874057Y-72629190D01*
X212874057Y-72819667D02*
X212874057Y-73581571D01*
X212778819Y-73819667D02*
X211778819Y-73819667D01*
X212778819Y-74295857D02*
X211778819Y-74295857D01*
X211778819Y-74295857D02*
X212778819Y-74867285D01*
X212778819Y-74867285D02*
X211778819Y-74867285D01*
X212778819Y-75343476D02*
X211778819Y-75343476D01*
X211778819Y-75343476D02*
X211778819Y-75724428D01*
X211778819Y-75724428D02*
X211826438Y-75819666D01*
X211826438Y-75819666D02*
X211874057Y-75867285D01*
X211874057Y-75867285D02*
X211969295Y-75914904D01*
X211969295Y-75914904D02*
X212112152Y-75914904D01*
X212112152Y-75914904D02*
X212207390Y-75867285D01*
X212207390Y-75867285D02*
X212255009Y-75819666D01*
X212255009Y-75819666D02*
X212302628Y-75724428D01*
X212302628Y-75724428D02*
X212302628Y-75343476D01*
X211778819Y-76343476D02*
X212588342Y-76343476D01*
X212588342Y-76343476D02*
X212683580Y-76391095D01*
X212683580Y-76391095D02*
X212731200Y-76438714D01*
X212731200Y-76438714D02*
X212778819Y-76533952D01*
X212778819Y-76533952D02*
X212778819Y-76724428D01*
X212778819Y-76724428D02*
X212731200Y-76819666D01*
X212731200Y-76819666D02*
X212683580Y-76867285D01*
X212683580Y-76867285D02*
X212588342Y-76914904D01*
X212588342Y-76914904D02*
X211778819Y-76914904D01*
X211778819Y-77248238D02*
X211778819Y-77819666D01*
X212778819Y-77533952D02*
X211778819Y-77533952D01*
X212778819Y-78676809D02*
X212778819Y-78105381D01*
X212778819Y-78391095D02*
X211778819Y-78391095D01*
X211778819Y-78391095D02*
X211921676Y-78295857D01*
X211921676Y-78295857D02*
X212016914Y-78200619D01*
X212016914Y-78200619D02*
X212064533Y-78105381D01*
X150327819Y-83820666D02*
X151042104Y-83820666D01*
X151042104Y-83820666D02*
X151184961Y-83773047D01*
X151184961Y-83773047D02*
X151280200Y-83677809D01*
X151280200Y-83677809D02*
X151327819Y-83534952D01*
X151327819Y-83534952D02*
X151327819Y-83439714D01*
X150327819Y-84201619D02*
X150327819Y-84820666D01*
X150327819Y-84820666D02*
X150708771Y-84487333D01*
X150708771Y-84487333D02*
X150708771Y-84630190D01*
X150708771Y-84630190D02*
X150756390Y-84725428D01*
X150756390Y-84725428D02*
X150804009Y-84773047D01*
X150804009Y-84773047D02*
X150899247Y-84820666D01*
X150899247Y-84820666D02*
X151137342Y-84820666D01*
X151137342Y-84820666D02*
X151232580Y-84773047D01*
X151232580Y-84773047D02*
X151280200Y-84725428D01*
X151280200Y-84725428D02*
X151327819Y-84630190D01*
X151327819Y-84630190D02*
X151327819Y-84344476D01*
X151327819Y-84344476D02*
X151280200Y-84249238D01*
X151280200Y-84249238D02*
X151232580Y-84201619D01*
X178817666Y-110838819D02*
X179293856Y-110838819D01*
X179293856Y-110838819D02*
X179341475Y-111315009D01*
X179341475Y-111315009D02*
X179293856Y-111267390D01*
X179293856Y-111267390D02*
X179198618Y-111219771D01*
X179198618Y-111219771D02*
X178960523Y-111219771D01*
X178960523Y-111219771D02*
X178865285Y-111267390D01*
X178865285Y-111267390D02*
X178817666Y-111315009D01*
X178817666Y-111315009D02*
X178770047Y-111410247D01*
X178770047Y-111410247D02*
X178770047Y-111648342D01*
X178770047Y-111648342D02*
X178817666Y-111743580D01*
X178817666Y-111743580D02*
X178865285Y-111791200D01*
X178865285Y-111791200D02*
X178960523Y-111838819D01*
X178960523Y-111838819D02*
X179198618Y-111838819D01*
X179198618Y-111838819D02*
X179293856Y-111791200D01*
X179293856Y-111791200D02*
X179341475Y-111743580D01*
X178484332Y-110838819D02*
X178150999Y-111838819D01*
X178150999Y-111838819D02*
X177817666Y-110838819D01*
X176960523Y-111838819D02*
X177531951Y-111838819D01*
X177246237Y-111838819D02*
X177246237Y-110838819D01*
X177246237Y-110838819D02*
X177341475Y-110981676D01*
X177341475Y-110981676D02*
X177436713Y-111076914D01*
X177436713Y-111076914D02*
X177531951Y-111124533D01*
X219547464Y-49840819D02*
X219547464Y-48840819D01*
X219547464Y-49317009D02*
X218976036Y-49317009D01*
X218976036Y-49840819D02*
X218976036Y-48840819D01*
X217976036Y-49840819D02*
X218547464Y-49840819D01*
X218261750Y-49840819D02*
X218261750Y-48840819D01*
X218261750Y-48840819D02*
X218356988Y-48983676D01*
X218356988Y-48983676D02*
X218452226Y-49078914D01*
X218452226Y-49078914D02*
X218547464Y-49126533D01*
X155955904Y-104450819D02*
X155955904Y-103450819D01*
X155955904Y-103927009D02*
X155384476Y-103927009D01*
X155384476Y-104450819D02*
X155384476Y-103450819D01*
X155003523Y-103450819D02*
X154384476Y-103450819D01*
X154384476Y-103450819D02*
X154717809Y-103831771D01*
X154717809Y-103831771D02*
X154574952Y-103831771D01*
X154574952Y-103831771D02*
X154479714Y-103879390D01*
X154479714Y-103879390D02*
X154432095Y-103927009D01*
X154432095Y-103927009D02*
X154384476Y-104022247D01*
X154384476Y-104022247D02*
X154384476Y-104260342D01*
X154384476Y-104260342D02*
X154432095Y-104355580D01*
X154432095Y-104355580D02*
X154479714Y-104403200D01*
X154479714Y-104403200D02*
X154574952Y-104450819D01*
X154574952Y-104450819D02*
X154860666Y-104450819D01*
X154860666Y-104450819D02*
X154955904Y-104403200D01*
X154955904Y-104403200D02*
X155003523Y-104355580D01*
X191924640Y-73105800D02*
X191210355Y-73105800D01*
X191210355Y-73105800D02*
X191067498Y-73153419D01*
X191067498Y-73153419D02*
X190972260Y-73248657D01*
X190972260Y-73248657D02*
X190924640Y-73391514D01*
X190924640Y-73391514D02*
X190924640Y-73486752D01*
X190829402Y-72867705D02*
X190829402Y-72105800D01*
X190972260Y-71486752D02*
X190924640Y-71581990D01*
X190924640Y-71581990D02*
X190924640Y-71772466D01*
X190924640Y-71772466D02*
X190972260Y-71867704D01*
X190972260Y-71867704D02*
X191067498Y-71915323D01*
X191067498Y-71915323D02*
X191448450Y-71915323D01*
X191448450Y-71915323D02*
X191543688Y-71867704D01*
X191543688Y-71867704D02*
X191591307Y-71772466D01*
X191591307Y-71772466D02*
X191591307Y-71581990D01*
X191591307Y-71581990D02*
X191543688Y-71486752D01*
X191543688Y-71486752D02*
X191448450Y-71439133D01*
X191448450Y-71439133D02*
X191353212Y-71439133D01*
X191353212Y-71439133D02*
X191257974Y-71915323D01*
X190972260Y-71058180D02*
X190924640Y-70962942D01*
X190924640Y-70962942D02*
X190924640Y-70772466D01*
X190924640Y-70772466D02*
X190972260Y-70677228D01*
X190972260Y-70677228D02*
X191067498Y-70629609D01*
X191067498Y-70629609D02*
X191115117Y-70629609D01*
X191115117Y-70629609D02*
X191210355Y-70677228D01*
X191210355Y-70677228D02*
X191257974Y-70772466D01*
X191257974Y-70772466D02*
X191257974Y-70915323D01*
X191257974Y-70915323D02*
X191305593Y-71010561D01*
X191305593Y-71010561D02*
X191400831Y-71058180D01*
X191400831Y-71058180D02*
X191448450Y-71058180D01*
X191448450Y-71058180D02*
X191543688Y-71010561D01*
X191543688Y-71010561D02*
X191591307Y-70915323D01*
X191591307Y-70915323D02*
X191591307Y-70772466D01*
X191591307Y-70772466D02*
X191543688Y-70677228D01*
X191591307Y-70201037D02*
X190591307Y-70201037D01*
X191543688Y-70201037D02*
X191591307Y-70105799D01*
X191591307Y-70105799D02*
X191591307Y-69915323D01*
X191591307Y-69915323D02*
X191543688Y-69820085D01*
X191543688Y-69820085D02*
X191496069Y-69772466D01*
X191496069Y-69772466D02*
X191400831Y-69724847D01*
X191400831Y-69724847D02*
X191115117Y-69724847D01*
X191115117Y-69724847D02*
X191019879Y-69772466D01*
X191019879Y-69772466D02*
X190972260Y-69820085D01*
X190972260Y-69820085D02*
X190924640Y-69915323D01*
X190924640Y-69915323D02*
X190924640Y-70105799D01*
X190924640Y-70105799D02*
X190972260Y-70201037D01*
X191924640Y-69105799D02*
X191924640Y-69010561D01*
X191924640Y-69010561D02*
X191877021Y-68915323D01*
X191877021Y-68915323D02*
X191829402Y-68867704D01*
X191829402Y-68867704D02*
X191734164Y-68820085D01*
X191734164Y-68820085D02*
X191543688Y-68772466D01*
X191543688Y-68772466D02*
X191305593Y-68772466D01*
X191305593Y-68772466D02*
X191115117Y-68820085D01*
X191115117Y-68820085D02*
X191019879Y-68867704D01*
X191019879Y-68867704D02*
X190972260Y-68915323D01*
X190972260Y-68915323D02*
X190924640Y-69010561D01*
X190924640Y-69010561D02*
X190924640Y-69105799D01*
X190924640Y-69105799D02*
X190972260Y-69201037D01*
X190972260Y-69201037D02*
X191019879Y-69248656D01*
X191019879Y-69248656D02*
X191115117Y-69296275D01*
X191115117Y-69296275D02*
X191305593Y-69343894D01*
X191305593Y-69343894D02*
X191543688Y-69343894D01*
X191543688Y-69343894D02*
X191734164Y-69296275D01*
X191734164Y-69296275D02*
X191829402Y-69248656D01*
X191829402Y-69248656D02*
X191877021Y-69201037D01*
X191877021Y-69201037D02*
X191924640Y-69105799D01*
X177179140Y-72324800D02*
X176464855Y-72324800D01*
X176464855Y-72324800D02*
X176321998Y-72372419D01*
X176321998Y-72372419D02*
X176226760Y-72467657D01*
X176226760Y-72467657D02*
X176179140Y-72610514D01*
X176179140Y-72610514D02*
X176179140Y-72705752D01*
X176083902Y-72086705D02*
X176083902Y-71324800D01*
X176226760Y-70705752D02*
X176179140Y-70800990D01*
X176179140Y-70800990D02*
X176179140Y-70991466D01*
X176179140Y-70991466D02*
X176226760Y-71086704D01*
X176226760Y-71086704D02*
X176321998Y-71134323D01*
X176321998Y-71134323D02*
X176702950Y-71134323D01*
X176702950Y-71134323D02*
X176798188Y-71086704D01*
X176798188Y-71086704D02*
X176845807Y-70991466D01*
X176845807Y-70991466D02*
X176845807Y-70800990D01*
X176845807Y-70800990D02*
X176798188Y-70705752D01*
X176798188Y-70705752D02*
X176702950Y-70658133D01*
X176702950Y-70658133D02*
X176607712Y-70658133D01*
X176607712Y-70658133D02*
X176512474Y-71134323D01*
X176226760Y-70277180D02*
X176179140Y-70181942D01*
X176179140Y-70181942D02*
X176179140Y-69991466D01*
X176179140Y-69991466D02*
X176226760Y-69896228D01*
X176226760Y-69896228D02*
X176321998Y-69848609D01*
X176321998Y-69848609D02*
X176369617Y-69848609D01*
X176369617Y-69848609D02*
X176464855Y-69896228D01*
X176464855Y-69896228D02*
X176512474Y-69991466D01*
X176512474Y-69991466D02*
X176512474Y-70134323D01*
X176512474Y-70134323D02*
X176560093Y-70229561D01*
X176560093Y-70229561D02*
X176655331Y-70277180D01*
X176655331Y-70277180D02*
X176702950Y-70277180D01*
X176702950Y-70277180D02*
X176798188Y-70229561D01*
X176798188Y-70229561D02*
X176845807Y-70134323D01*
X176845807Y-70134323D02*
X176845807Y-69991466D01*
X176845807Y-69991466D02*
X176798188Y-69896228D01*
X176845807Y-69420037D02*
X175845807Y-69420037D01*
X176798188Y-69420037D02*
X176845807Y-69324799D01*
X176845807Y-69324799D02*
X176845807Y-69134323D01*
X176845807Y-69134323D02*
X176798188Y-69039085D01*
X176798188Y-69039085D02*
X176750569Y-68991466D01*
X176750569Y-68991466D02*
X176655331Y-68943847D01*
X176655331Y-68943847D02*
X176369617Y-68943847D01*
X176369617Y-68943847D02*
X176274379Y-68991466D01*
X176274379Y-68991466D02*
X176226760Y-69039085D01*
X176226760Y-69039085D02*
X176179140Y-69134323D01*
X176179140Y-69134323D02*
X176179140Y-69324799D01*
X176179140Y-69324799D02*
X176226760Y-69420037D01*
X176179140Y-67991466D02*
X176179140Y-68562894D01*
X176179140Y-68277180D02*
X177179140Y-68277180D01*
X177179140Y-68277180D02*
X177036283Y-68372418D01*
X177036283Y-68372418D02*
X176941045Y-68467656D01*
X176941045Y-68467656D02*
X176893426Y-68562894D01*
X223179664Y-104323819D02*
X223179664Y-103323819D01*
X223179664Y-103800009D02*
X222608236Y-103800009D01*
X222608236Y-104323819D02*
X222608236Y-103323819D01*
X222179664Y-103419057D02*
X222132045Y-103371438D01*
X222132045Y-103371438D02*
X222036807Y-103323819D01*
X222036807Y-103323819D02*
X221798712Y-103323819D01*
X221798712Y-103323819D02*
X221703474Y-103371438D01*
X221703474Y-103371438D02*
X221655855Y-103419057D01*
X221655855Y-103419057D02*
X221608236Y-103514295D01*
X221608236Y-103514295D02*
X221608236Y-103609533D01*
X221608236Y-103609533D02*
X221655855Y-103752390D01*
X221655855Y-103752390D02*
X222227283Y-104323819D01*
X222227283Y-104323819D02*
X221608236Y-104323819D01*
X184657904Y-49967819D02*
X184657904Y-48967819D01*
X184657904Y-49444009D02*
X184086476Y-49444009D01*
X184086476Y-49967819D02*
X184086476Y-48967819D01*
X183181714Y-49301152D02*
X183181714Y-49967819D01*
X183419809Y-48920200D02*
X183657904Y-49634485D01*
X183657904Y-49634485D02*
X183038857Y-49634485D01*
D11*
%TO.C,Q1*%
X223037000Y-96848250D02*
X212797000Y-96848250D01*
X219767000Y-96848250D02*
X219767000Y-98358250D01*
X216066000Y-96848250D02*
X216066000Y-98358250D01*
X223037000Y-96848250D02*
X223037000Y-101489250D01*
X223037000Y-101489250D02*
X212797000Y-101489250D01*
X212797000Y-96848250D02*
X212797000Y-101489250D01*
X223037000Y-98358250D02*
X212797000Y-98358250D01*
D12*
%TO.C,U1*%
X195069999Y-105029000D02*
X195069999Y-103778682D01*
X195069999Y-102215318D02*
X195069999Y-101238682D01*
X195069999Y-99675318D02*
X195069999Y-98698682D01*
X195069999Y-97135318D02*
X195069999Y-95885000D01*
X195069999Y-95885000D02*
X201424001Y-95885000D01*
X201424001Y-105029000D02*
X195069999Y-105029000D01*
X201424001Y-103778682D02*
X201424001Y-105029000D01*
X201424001Y-101238682D02*
X201424001Y-102215318D01*
X201424001Y-98698682D02*
X201424001Y-99675318D01*
X201424001Y-95885000D02*
X201424001Y-97135318D01*
D11*
%TO.C,Screen1*%
X164527000Y-54740000D02*
X151927000Y-54740000D01*
X162127000Y-75040000D02*
X161827000Y-75590000D01*
X163877000Y-75590000D02*
X163577000Y-75040000D01*
X151927000Y-75540000D02*
X156977000Y-75540000D01*
X156977000Y-75540000D02*
X156727000Y-75040000D01*
X161827000Y-75590000D02*
X163877000Y-75590000D01*
X151927000Y-54740000D02*
X151927000Y-75540000D01*
X156727000Y-75040000D02*
X162127000Y-75040000D01*
X164527000Y-75040000D02*
X164527000Y-54740000D01*
X163577000Y-75040000D02*
X164527000Y-75040000D01*
%TO.C,R3*%
X217932000Y-92806000D02*
X217932000Y-89646000D01*
X218852000Y-93726000D02*
G75*
G03*
X218852000Y-93726000I-920000J0D01*
G01*
%TO.C,R2*%
X206412250Y-100076000D02*
X209572250Y-100076000D01*
X206412250Y-100076000D02*
G75*
G03*
X206412250Y-100076000I-920000J0D01*
G01*
%TO.C,R1*%
X191299250Y-109093000D02*
X194459250Y-109093000D01*
X191299250Y-109093000D02*
G75*
G03*
X191299250Y-109093000I-920000J0D01*
G01*
%TO.C,J_AC_OUT1*%
X215664000Y-61856000D02*
X215414000Y-62356000D01*
X213014000Y-72706000D02*
X213014000Y-62356000D01*
X215614000Y-61856000D02*
X215664000Y-61856000D01*
X220514000Y-61856000D02*
X225614000Y-61856000D01*
X225614000Y-61856000D02*
X225614000Y-72706000D01*
X225614000Y-72706000D02*
X213014000Y-72706000D01*
X215414000Y-62356000D02*
X220814000Y-62356000D01*
X213964000Y-62356000D02*
X213714000Y-61856000D01*
X220814000Y-62356000D02*
X220514000Y-61856000D01*
X213014000Y-62356000D02*
X213964000Y-62356000D01*
X213714000Y-61856000D02*
X215614000Y-61856000D01*
%TO.C,J_AC_INPUT1*%
X222964000Y-84273000D02*
X223214000Y-83773000D01*
X225614000Y-73423000D02*
X225614000Y-83773000D01*
X223014000Y-84273000D02*
X222964000Y-84273000D01*
X218114000Y-84273000D02*
X213014000Y-84273000D01*
X213014000Y-84273000D02*
X213014000Y-73423000D01*
X213014000Y-73423000D02*
X225614000Y-73423000D01*
X223214000Y-83773000D02*
X217814000Y-83773000D01*
X224664000Y-83773000D02*
X224914000Y-84273000D01*
X217814000Y-83773000D02*
X218114000Y-84273000D01*
X225614000Y-83773000D02*
X224664000Y-83773000D01*
X224914000Y-84273000D02*
X223014000Y-84273000D01*
%TO.C,J3*%
X161623000Y-92404000D02*
X161873000Y-91904000D01*
X156723000Y-92404000D02*
X151673000Y-92404000D01*
X161873000Y-91904000D02*
X156473000Y-91904000D01*
X163323000Y-91904000D02*
X163623000Y-92404000D01*
X151673000Y-76504000D02*
X164273000Y-76504000D01*
X156473000Y-91904000D02*
X156723000Y-92404000D01*
X151673000Y-92404000D02*
X151673000Y-76504000D01*
X164273000Y-76504000D02*
X164273000Y-91904000D01*
X163623000Y-92404000D02*
X161623000Y-92404000D01*
X164273000Y-91904000D02*
X163323000Y-91904000D01*
%TO.C,5V1*%
X188271000Y-98794000D02*
X188271000Y-100694000D01*
X187771000Y-98094000D02*
X187771000Y-99044000D01*
X187771000Y-105894000D02*
X188271000Y-105594000D01*
X187771000Y-99044000D02*
X188271000Y-98794000D01*
X187771000Y-100494000D02*
X187771000Y-105894000D01*
X177421000Y-110694000D02*
X177421000Y-98094000D01*
X188271000Y-110694000D02*
X177421000Y-110694000D01*
X188271000Y-105594000D02*
X188271000Y-110694000D01*
X188271000Y-100694000D02*
X188271000Y-100744000D01*
X177421000Y-98094000D02*
X187771000Y-98094000D01*
X188271000Y-100744000D02*
X187771000Y-100494000D01*
%TO.C,J_esp0*%
X194201960Y-91035800D02*
X194201960Y-50255800D01*
X196731960Y-91035800D02*
X194201960Y-91035800D01*
X198541960Y-91035800D02*
X198541960Y-90905800D01*
X199521960Y-91035800D02*
X198541960Y-91035800D01*
X196731960Y-90905800D02*
X196731960Y-91035800D01*
X198541960Y-90905800D02*
X196731960Y-90905800D01*
X199521960Y-74565800D02*
X199521960Y-91035800D01*
X201021960Y-74565800D02*
X199521960Y-74565800D01*
X199521960Y-66725800D02*
X201021960Y-66725800D01*
X201021960Y-66725800D02*
X201021960Y-74565800D01*
X196731960Y-50385800D02*
X198541960Y-50385800D01*
X198541960Y-50385800D02*
X198541960Y-50255800D01*
X194201960Y-50255800D02*
X196731960Y-50255800D01*
X196731960Y-50255800D02*
X196731960Y-50385800D01*
X198541960Y-50255800D02*
X199521960Y-50255800D01*
X199521960Y-50255800D02*
X199521960Y-66725800D01*
X193901960Y-49955800D02*
X193901960Y-52365800D01*
X196311960Y-49955800D02*
X193901960Y-49955800D01*
%TO.C,J_esp1*%
X174981460Y-50334800D02*
X174981460Y-91114800D01*
X172451460Y-50334800D02*
X174981460Y-50334800D01*
X170641460Y-50334800D02*
X170641460Y-50464800D01*
X169661460Y-50334800D02*
X170641460Y-50334800D01*
X172451460Y-50464800D02*
X172451460Y-50334800D01*
X170641460Y-50464800D02*
X172451460Y-50464800D01*
X169661460Y-66804800D02*
X169661460Y-50334800D01*
X168161460Y-66804800D02*
X169661460Y-66804800D01*
X169661460Y-74644800D02*
X168161460Y-74644800D01*
X168161460Y-74644800D02*
X168161460Y-66804800D01*
X172451460Y-90984800D02*
X170641460Y-90984800D01*
X170641460Y-90984800D02*
X170641460Y-91114800D01*
X174981460Y-91114800D02*
X172451460Y-91114800D01*
X172451460Y-91114800D02*
X172451460Y-90984800D01*
X170641460Y-91114800D02*
X169661460Y-91114800D01*
X169661460Y-91114800D02*
X169661460Y-74644800D01*
X175281460Y-91414800D02*
X175281460Y-89004800D01*
X172871460Y-91414800D02*
X175281460Y-91414800D01*
%TD*%
M02*
