%TF.GenerationSoftware,KiCad,Pcbnew,7.0.6*%
%TF.CreationDate,2023-08-24T16:04:52-05:00*%
%TF.ProjectId,basic_decoration_pcb,62617369-635f-4646-9563-6f726174696f,rev?*%
%TF.SameCoordinates,Original*%
%TF.FileFunction,Copper,L1,Top*%
%TF.FilePolarity,Positive*%
%FSLAX46Y46*%
G04 Gerber Fmt 4.6, Leading zero omitted, Abs format (unit mm)*
G04 Created by KiCad (PCBNEW 7.0.6) date 2023-08-24 16:04:52*
%MOMM*%
%LPD*%
G01*
G04 APERTURE LIST*
%TA.AperFunction,ComponentPad*%
%ADD10R,3.960000X3.000000*%
%TD*%
%TA.AperFunction,ComponentPad*%
%ADD11O,3.960000X3.000000*%
%TD*%
%TA.AperFunction,ComponentPad*%
%ADD12C,5.400000*%
%TD*%
%TA.AperFunction,ComponentPad*%
%ADD13R,2.540000X2.100000*%
%TD*%
%TA.AperFunction,ComponentPad*%
%ADD14R,2.540000X1.740000*%
%TD*%
%TA.AperFunction,ComponentPad*%
%ADD15R,2.540000X1.950000*%
%TD*%
%TA.AperFunction,ComponentPad*%
%ADD16R,2.540000X2.000000*%
%TD*%
%TA.AperFunction,ComponentPad*%
%ADD17R,2.125000X3.000000*%
%TD*%
%TA.AperFunction,ComponentPad*%
%ADD18O,2.125000X3.125000*%
%TD*%
%TA.AperFunction,ComponentPad*%
%ADD19R,3.000000X3.960000*%
%TD*%
%TA.AperFunction,ComponentPad*%
%ADD20O,3.000000X3.960000*%
%TD*%
%TA.AperFunction,ComponentPad*%
%ADD21C,2.125000*%
%TD*%
%TA.AperFunction,ComponentPad*%
%ADD22O,2.125000X2.125000*%
%TD*%
%TA.AperFunction,Conductor*%
%ADD23C,2.125000*%
%TD*%
%TA.AperFunction,Conductor*%
%ADD24C,1.333000*%
%TD*%
G04 APERTURE END LIST*
D10*
%TO.P,J_AC_INPUT1,1,Pin_1*%
%TO.N,AC1_IN*%
X219583000Y-78279000D03*
D11*
%TO.P,J_AC_INPUT1,2,Pin_2*%
%TO.N,AC2_IN*%
X219583000Y-73279000D03*
%TD*%
D10*
%TO.P,J_AC_LOAD1,1,Pin_1*%
%TO.N,Net-(J_AC_LOAD1-Pin_1)*%
X219583000Y-66929000D03*
D11*
%TO.P,J_AC_LOAD1,2,Pin_2*%
%TO.N,AC2_IN*%
X219583000Y-61929000D03*
%TD*%
D10*
%TO.P,Screen1,1,Pin_1*%
%TO.N,D22*%
X158227000Y-57390000D03*
D11*
%TO.P,Screen1,2,Pin_2*%
%TO.N,D21*%
X158227000Y-62390000D03*
%TO.P,Screen1,3,Pin_3*%
%TO.N,GND2*%
X158227000Y-67390000D03*
%TO.P,Screen1,4,Pin_4*%
%TO.N,3V3*%
X158227000Y-72390000D03*
%TD*%
D10*
%TO.P,J3,1,Pin_1*%
%TO.N,D19*%
X157973000Y-79154000D03*
D11*
%TO.P,J3,2,Pin_2*%
%TO.N,GND2*%
X157973000Y-84154000D03*
%TO.P,J3,3,Pin_3*%
%TO.N,3V3*%
X157973000Y-89154000D03*
%TD*%
D12*
%TO.P,H1,1*%
%TO.N,N/C*%
X218785560Y-53086000D03*
%TD*%
%TO.P,H3,1*%
%TO.N,N/C*%
X155194000Y-107696000D03*
%TD*%
D13*
%TO.P,J_esp0,1,Pin_1*%
%TO.N,EN*%
X196861960Y-52865800D03*
D14*
%TO.P,J_esp0,2,Pin_2*%
%TO.N,VP*%
X196861960Y-55405800D03*
%TO.P,J_esp0,3,Pin_3*%
%TO.N,VN*%
X196861960Y-57945800D03*
D15*
%TO.P,J_esp0,4,Pin_4*%
%TO.N,D34*%
X196861960Y-60485800D03*
%TO.P,J_esp0,5,Pin_5*%
%TO.N,D35*%
X196861960Y-63025800D03*
%TO.P,J_esp0,6,Pin_6*%
%TO.N,D32*%
X196861960Y-65565800D03*
%TO.P,J_esp0,7,Pin_7*%
%TO.N,D33*%
X196861960Y-68105800D03*
%TO.P,J_esp0,8,Pin_8*%
%TO.N,D25*%
X196861960Y-70645800D03*
%TO.P,J_esp0,9,Pin_9*%
%TO.N,D26*%
X196861960Y-73185800D03*
%TO.P,J_esp0,10,Pin_10*%
%TO.N,D27*%
X196861960Y-75725800D03*
%TO.P,J_esp0,11,Pin_11*%
%TO.N,D14*%
X196861960Y-78265800D03*
%TO.P,J_esp0,12,Pin_12*%
%TO.N,D12*%
X196861960Y-80805800D03*
%TO.P,J_esp0,13,Pin_13*%
%TO.N,D13*%
X196861960Y-83345800D03*
%TO.P,J_esp0,14,Pin_14*%
%TO.N,GND5V*%
X196861960Y-85885800D03*
%TO.P,J_esp0,15,Pin_15*%
%TO.N,5v*%
X196861960Y-88425800D03*
%TD*%
D16*
%TO.P,J_esp1,1,Pin_1*%
%TO.N,3V3*%
X172321460Y-88504800D03*
D15*
%TO.P,J_esp1,2,Pin_2*%
%TO.N,GND2*%
X172321460Y-85964800D03*
%TO.P,J_esp1,3,Pin_3*%
%TO.N,D15*%
X172321460Y-83424800D03*
%TO.P,J_esp1,4,Pin_4*%
%TO.N,D2*%
X172321460Y-80884800D03*
%TO.P,J_esp1,5,Pin_5*%
%TO.N,D4*%
X172321460Y-78344800D03*
%TO.P,J_esp1,6,Pin_6*%
%TO.N,RX2*%
X172321460Y-75804800D03*
%TO.P,J_esp1,7,Pin_7*%
%TO.N,TX2*%
X172321460Y-73264800D03*
%TO.P,J_esp1,8,Pin_8*%
%TO.N,D5*%
X172321460Y-70724800D03*
%TO.P,J_esp1,9,Pin_9*%
%TO.N,D18*%
X172321460Y-68184800D03*
%TO.P,J_esp1,10,Pin_10*%
%TO.N,D19*%
X172321460Y-65644800D03*
%TO.P,J_esp1,11,Pin_11*%
%TO.N,D21*%
X172321460Y-63104800D03*
%TO.P,J_esp1,12,Pin_12*%
%TO.N,RX0*%
X172321460Y-60564800D03*
%TO.P,J_esp1,13,Pin_13*%
%TO.N,TX0*%
X172321460Y-58024800D03*
%TO.P,J_esp1,14,Pin_14*%
%TO.N,D22*%
X172321460Y-55484800D03*
%TO.P,J_esp1,15,Pin_15*%
%TO.N,D23*%
X172321460Y-52944800D03*
%TD*%
D12*
%TO.P,H2,1*%
%TO.N,N/C*%
X222417760Y-107569000D03*
%TD*%
%TO.P,H4,1*%
%TO.N,N/C*%
X183896000Y-53213000D03*
%TD*%
D17*
%TO.P,Q1,1,A1*%
%TO.N,AC1_IN*%
X221727000Y-100118250D03*
D18*
%TO.P,Q1,2,A2*%
%TO.N,Net-(J_AC_LOAD1-Pin_1)*%
X217917000Y-100118250D03*
%TO.P,Q1,3,G*%
%TO.N,Net-(Q1-G)*%
X214107000Y-100118250D03*
%TD*%
D19*
%TO.P,5V1,1,Pin_1*%
%TO.N,5v*%
X180071000Y-104394000D03*
D20*
%TO.P,5V1,2,Pin_2*%
%TO.N,GND5V*%
X185071000Y-104394000D03*
%TD*%
D21*
%TO.P,R2,1*%
%TO.N,Net-(R2-Pad1)*%
X205492250Y-100076000D03*
D22*
%TO.P,R2,2*%
%TO.N,Net-(Q1-G)*%
X210572250Y-100076000D03*
%TD*%
D21*
%TO.P,U1,1*%
%TO.N,Net-(R1-Pad2)*%
X194437000Y-102997000D03*
%TO.P,U1,2*%
%TO.N,GND5V*%
X194437000Y-100457000D03*
%TO.P,U1,3,NC*%
%TO.N,unconnected-(U1-NC-Pad3)*%
X194437000Y-97917000D03*
%TO.P,U1,4*%
%TO.N,Net-(R2-Pad1)*%
X202057000Y-97917000D03*
%TO.P,U1,5,NC*%
%TO.N,unconnected-(U1-NC-Pad5)*%
X202057000Y-100457000D03*
%TO.P,U1,6*%
%TO.N,AC1_IN*%
X202057000Y-102997000D03*
%TD*%
%TO.P,R1,1*%
%TO.N,D18*%
X190379250Y-109093000D03*
D22*
%TO.P,R1,2*%
%TO.N,Net-(R1-Pad2)*%
X195459250Y-109093000D03*
%TD*%
D23*
%TO.N,Net-(J_AC_LOAD1-Pin_1)*%
X217917000Y-100118250D02*
X217917000Y-94092000D01*
X208280000Y-60071000D02*
X210566000Y-57785000D01*
X217917000Y-94092000D02*
X208280000Y-84455000D01*
X208280000Y-84455000D02*
X208280000Y-60071000D01*
X210566000Y-57785000D02*
X221742000Y-57785000D01*
X221742000Y-57785000D02*
X223901000Y-59944000D01*
X223901000Y-59944000D02*
X223901000Y-65278000D01*
X223901000Y-65278000D02*
X222250000Y-66929000D01*
X222250000Y-66929000D02*
X219583000Y-66929000D01*
%TO.N,AC2_IN*%
X219583000Y-73279000D02*
X215519000Y-73279000D01*
X212598000Y-66040000D02*
X216709000Y-61929000D01*
X215519000Y-73279000D02*
X212598000Y-70358000D01*
X216709000Y-61929000D02*
X219583000Y-61929000D01*
X212598000Y-70358000D02*
X212598000Y-66040000D01*
%TO.N,AC1_IN*%
X221727000Y-100118250D02*
X221727000Y-80423000D01*
X221727000Y-80423000D02*
X219583000Y-78279000D01*
D24*
%TO.N,5v*%
X180071000Y-97805000D02*
X189450200Y-88425800D01*
X189450200Y-88425800D02*
X196861960Y-88425800D01*
X180071000Y-104394000D02*
X180071000Y-97805000D01*
%TO.N,GND5V*%
X190881000Y-100457000D02*
X194437000Y-100457000D01*
X199644000Y-92837000D02*
X202692000Y-89789000D01*
X201836800Y-85885800D02*
X196861960Y-85885800D01*
X202692000Y-86741000D02*
X201836800Y-85885800D01*
X186944000Y-104394000D02*
X190881000Y-100457000D01*
X185071000Y-104394000D02*
X186944000Y-104394000D01*
X202692000Y-89789000D02*
X202692000Y-86741000D01*
X185071000Y-104394000D02*
X185071000Y-100425000D01*
X185071000Y-100425000D02*
X192659000Y-92837000D01*
X192659000Y-92837000D02*
X199644000Y-92837000D01*
D23*
%TO.N,Net-(J_AC_LOAD1-Pin_1)*%
X217932000Y-100103250D02*
X217917000Y-100118250D01*
%TO.N,Net-(Q1-G)*%
X210614500Y-100118250D02*
X210572250Y-100076000D01*
X214107000Y-100118250D02*
X210614500Y-100118250D01*
D24*
%TO.N,D22*%
X158227000Y-57390000D02*
X160132200Y-55484800D01*
X160132200Y-55484800D02*
X172321460Y-55484800D01*
%TO.N,3V3*%
X157988000Y-72390000D02*
X154686000Y-75692000D01*
X172321460Y-88504800D02*
X158622200Y-88504800D01*
X158622200Y-88504800D02*
X157973000Y-89154000D01*
X158227000Y-72390000D02*
X157988000Y-72390000D01*
X154686000Y-85867000D02*
X157973000Y-89154000D01*
X154686000Y-75692000D02*
X154686000Y-85867000D01*
%TO.N,GND2*%
X172321460Y-85964800D02*
X159783800Y-85964800D01*
X152781000Y-69469000D02*
X154860000Y-67390000D01*
X154860000Y-67390000D02*
X158227000Y-67390000D01*
X176007800Y-85964800D02*
X177673000Y-87630000D01*
X177673000Y-89535000D02*
X173228000Y-93980000D01*
X173228000Y-93980000D02*
X155575000Y-93980000D01*
X155575000Y-93980000D02*
X152781000Y-91186000D01*
X159783800Y-85964800D02*
X157973000Y-84154000D01*
X152781000Y-91186000D02*
X152781000Y-69469000D01*
X172321460Y-85964800D02*
X176007800Y-85964800D01*
X177673000Y-87630000D02*
X177673000Y-89535000D01*
%TO.N,D18*%
X190379250Y-109093000D02*
X178435000Y-109093000D01*
X175641000Y-95377000D02*
X180340000Y-90678000D01*
X180340000Y-90678000D02*
X180340000Y-71882000D01*
X176657000Y-68199000D02*
X176642800Y-68184800D01*
X176642800Y-68184800D02*
X172321460Y-68184800D01*
X175641000Y-106299000D02*
X175641000Y-95377000D01*
X180340000Y-71882000D02*
X176642800Y-68184800D01*
X178435000Y-109093000D02*
X175641000Y-106299000D01*
%TO.N,D19*%
X165133000Y-79154000D02*
X157973000Y-79154000D01*
X167132000Y-77343000D02*
X165227000Y-79248000D01*
X165227000Y-79248000D02*
X165133000Y-79154000D01*
X167132000Y-67818000D02*
X167132000Y-77343000D01*
X169291000Y-65659000D02*
X167132000Y-67818000D01*
X170869260Y-65659000D02*
X169291000Y-65659000D01*
X170883460Y-65644800D02*
X170869260Y-65659000D01*
X172321460Y-65644800D02*
X170883460Y-65644800D01*
%TO.N,D21*%
X172321460Y-63104800D02*
X158941800Y-63104800D01*
X158941800Y-63104800D02*
X158227000Y-62390000D01*
%TO.N,Net-(R1-Pad2)*%
X194437000Y-102997000D02*
X194437000Y-108070750D01*
X194437000Y-108070750D02*
X195459250Y-109093000D01*
D23*
%TO.N,Net-(R2-Pad1)*%
X204978000Y-97917000D02*
X202057000Y-97917000D01*
D24*
X202184000Y-98044000D02*
X202057000Y-97917000D01*
D23*
X205492250Y-100076000D02*
X205492250Y-98431250D01*
X205492250Y-98431250D02*
X204978000Y-97917000D01*
%TO.N,AC1_IN*%
X202057000Y-102997000D02*
X204089000Y-105029000D01*
X221727000Y-101361000D02*
X221727000Y-100118250D01*
X204089000Y-105029000D02*
X218059000Y-105029000D01*
X218059000Y-105029000D02*
X221727000Y-101361000D01*
%TD*%
M02*
