M48
; DRILL file {KiCad 7.0.6} date jue 24 ago 2023 15:26:25
; FORMAT={-:-/ absolute / inch / decimal}
; #@! TF.CreationDate,2023-08-24T15:26:25-05:00
; #@! TF.GenerationSoftware,Kicad,Pcbnew,7.0.6
; #@! TF.FileFunction,Plated,1,2,PTH
FMAT,2
INCH
; #@! TA.AperFunction,Plated,PTH,ComponentDrill
T1C0.0276
; #@! TA.AperFunction,Plated,PTH,ComponentDrill
T2C0.0330
; #@! TA.AperFunction,Plated,PTH,ComponentDrill
T3C0.0429
; #@! TA.AperFunction,Plated,PTH,ComponentDrill
T4C0.0433
; #@! TA.AperFunction,Plated,PTH,ComponentDrill
T5C0.0520
; #@! TA.AperFunction,Plated,PTH,ComponentDrill
T6C0.1063
%
G90
G05
T1
X7.4952Y-4.295
X7.6952Y-4.295
X8.0902Y-3.94
X8.2902Y-3.94
X8.58Y-3.49
X8.58Y-3.69
T2
X7.655Y-3.855
X7.655Y-3.955
X7.655Y-4.055
X7.955Y-3.855
X7.955Y-3.955
X7.955Y-4.055
T3
X6.7843Y-2.0844
X6.7843Y-2.1844
X6.7843Y-2.2844
X6.7843Y-2.3844
X6.7843Y-2.4844
X6.7843Y-2.5844
X6.7843Y-2.6844
X6.7843Y-2.7844
X6.7843Y-2.8844
X6.7843Y-2.9844
X6.7843Y-3.0844
X6.7843Y-3.1844
X6.7843Y-3.2844
X6.7843Y-3.3844
X6.7843Y-3.4844
X7.7505Y-2.0813
X7.7505Y-2.1813
X7.7505Y-2.2813
X7.7505Y-2.3813
X7.7505Y-2.4813
X7.7505Y-2.5813
X7.7505Y-2.6813
X7.7505Y-2.7813
X7.7505Y-2.8813
X7.7505Y-2.9813
X7.7505Y-3.0813
X7.7505Y-3.1813
X7.7505Y-3.2813
X7.7505Y-3.3813
X7.7505Y-3.4813
T4
X8.4294Y-3.9417
X8.5794Y-3.9417
X8.7294Y-3.9417
T5
X6.2194Y-3.1163
X6.2194Y-3.3131
X6.2194Y-3.51
X6.2294Y-2.2594
X6.2294Y-2.4563
X6.2294Y-2.6531
X6.2294Y-2.85
X7.0894Y-4.11
X7.2863Y-4.11
X8.6344Y-2.5613
X8.6344Y-2.7581
X8.6344Y-2.995
X8.6344Y-3.1919
T6
X6.11Y-4.24
X7.24Y-2.095
X8.6136Y-2.09
X8.7566Y-4.235
T0
M30
