%TF.GenerationSoftware,KiCad,Pcbnew,7.0.3*%
%TF.CreationDate,2023-06-20T17:33:07-05:00*%
%TF.ProjectId,ambient_measurement,616d6269-656e-4745-9f6d-656173757265,rev?*%
%TF.SameCoordinates,Original*%
%TF.FileFunction,Soldermask,Top*%
%TF.FilePolarity,Negative*%
%FSLAX46Y46*%
G04 Gerber Fmt 4.6, Leading zero omitted, Abs format (unit mm)*
G04 Created by KiCad (PCBNEW 7.0.3) date 2023-06-20 17:33:07*
%MOMM*%
%LPD*%
G01*
G04 APERTURE LIST*
%ADD10C,5.400000*%
%ADD11R,2.125000X3.960000*%
%ADD12O,2.125000X3.960000*%
%ADD13C,2.125000*%
%ADD14O,2.125000X2.125000*%
%ADD15R,2.000000X2.000000*%
%ADD16C,2.000000*%
%ADD17R,3.960000X3.960000*%
%ADD18C,3.960000*%
%ADD19O,3.960000X3.960000*%
%ADD20R,2.125000X2.125000*%
%ADD21R,2.540000X2.000000*%
%ADD22R,2.540000X1.950000*%
%ADD23R,2.540000X2.100000*%
%ADD24R,2.540000X1.740000*%
G04 APERTURE END LIST*
D10*
%TO.C,H2*%
X249936000Y-123036000D03*
%TD*%
D11*
%TO.C,5V1*%
X212894888Y-118792000D03*
D12*
X217894888Y-118792000D03*
%TD*%
D13*
%TO.C,R1*%
X234696000Y-98552000D03*
D14*
X234696000Y-101092000D03*
%TD*%
D15*
%TO.C,C1*%
X204296000Y-118785112D03*
D16*
X204296000Y-116285112D03*
%TD*%
D17*
%TO.C,J1*%
X245872000Y-103124000D03*
D18*
X245872000Y-98124000D03*
X245872000Y-93124000D03*
%TD*%
D17*
%TO.C,J2*%
X245872000Y-85772000D03*
D19*
X245872000Y-80772000D03*
X245872000Y-75772000D03*
X245872000Y-70772000D03*
%TD*%
D10*
%TO.C,H4*%
X249936000Y-61976000D03*
%TD*%
D20*
%TO.C,U1*%
X191045000Y-75392000D03*
D13*
X191045000Y-77932000D03*
X188505000Y-75392000D03*
X188505000Y-77932000D03*
X185965000Y-75392000D03*
X185965000Y-77932000D03*
X183425000Y-75392000D03*
X183425000Y-77932000D03*
%TD*%
D16*
%TO.C,C2*%
X199136000Y-118872000D03*
X199136000Y-116372000D03*
%TD*%
D21*
%TO.C,J_esp1*%
X227490500Y-103699000D03*
D22*
X227490500Y-101159000D03*
X227490500Y-98619000D03*
X227490500Y-96079000D03*
X227490500Y-93539000D03*
X227490500Y-90999000D03*
X227490500Y-88459000D03*
X227490500Y-85919000D03*
X227490500Y-83379000D03*
X227490500Y-80839000D03*
X227490500Y-78299000D03*
X227490500Y-75759000D03*
X227490500Y-73219000D03*
X227490500Y-70679000D03*
X227490500Y-68139000D03*
%TD*%
D10*
%TO.C,H3*%
X180100000Y-122936000D03*
%TD*%
D23*
%TO.C,J_esp0*%
X202950000Y-68060000D03*
D24*
X202950000Y-70600000D03*
X202950000Y-73140000D03*
D22*
X202950000Y-75680000D03*
X202950000Y-78220000D03*
X202950000Y-80760000D03*
X202950000Y-83300000D03*
X202950000Y-85840000D03*
X202950000Y-88380000D03*
X202950000Y-90920000D03*
X202950000Y-93460000D03*
X202950000Y-96000000D03*
X202950000Y-98540000D03*
X202950000Y-101080000D03*
X202950000Y-103620000D03*
%TD*%
D10*
%TO.C,H1*%
X180100000Y-61976000D03*
%TD*%
M02*
