M48
; DRILL file {KiCad 7.0.3} date mar 20 jun 2023 17:33:13
; FORMAT={-:-/ absolute / inch / decimal}
; #@! TF.CreationDate,2023-06-20T17:33:13-05:00
; #@! TF.GenerationSoftware,Kicad,Pcbnew,7.0.3
; #@! TF.FileFunction,Plated,1,2,PTH
FMAT,2
INCH
; #@! TA.AperFunction,Plated,PTH,ComponentDrill
T1C0.0276
; #@! TA.AperFunction,Plated,PTH,ComponentDrill
T2C0.0291
; #@! TA.AperFunction,Plated,PTH,ViaDrill
T3C0.0295
; #@! TA.AperFunction,Plated,PTH,ComponentDrill
T4C0.0295
; #@! TA.AperFunction,Plated,PTH,ComponentDrill
T5C0.0315
; #@! TA.AperFunction,Plated,PTH,ComponentDrill
T6C0.0394
; #@! TA.AperFunction,Plated,PTH,ComponentDrill
T7C0.0429
; #@! TA.AperFunction,Plated,PTH,ComponentDrill
T8C0.0520
; #@! TA.AperFunction,Plated,PTH,ComponentDrill
T9C0.0591
; #@! TA.AperFunction,Plated,PTH,ComponentDrill
T10C0.1063
%
G90
G05
T1
X9.24Y-3.88
X9.24Y-3.98
T2
X7.84Y-4.5816
T3
X7.02Y-2.86
X7.26Y-3.78
X7.42Y-2.78
X7.64Y-3.56
X7.64Y-3.68
X7.64Y-3.78
X7.76Y-3.08
X8.62Y-4.08
X9.06Y-4.8416
X9.22Y-2.8
X9.22Y-3.68
T4
X7.84Y-4.68
T5
X8.0431Y-4.5782
X8.0431Y-4.6766
T6
X7.2215Y-2.9682
X7.2215Y-3.0682
X7.3215Y-2.9682
X7.3215Y-3.0682
X7.4215Y-2.9682
X7.4215Y-3.0682
X7.5215Y-2.9682
X7.5215Y-3.0682
T7
X7.9902Y-2.6795
X7.9902Y-2.7795
X7.9902Y-2.8795
X7.9902Y-2.9795
X7.9902Y-3.0795
X7.9902Y-3.1795
X7.9902Y-3.2795
X7.9902Y-3.3795
X7.9902Y-3.4795
X7.9902Y-3.5795
X7.9902Y-3.6795
X7.9902Y-3.7795
X7.9902Y-3.8795
X7.9902Y-3.9795
X7.9902Y-4.0795
X8.9563Y-2.6826
X8.9563Y-2.7826
X8.9563Y-2.8826
X8.9563Y-2.9826
X8.9563Y-3.0826
X8.9563Y-3.1826
X8.9563Y-3.2826
X8.9563Y-3.3826
X8.9563Y-3.4826
X8.9563Y-3.5826
X8.9563Y-3.6826
X8.9563Y-3.7826
X8.9563Y-3.8826
X8.9563Y-3.9826
X8.9563Y-4.0826
T8
X8.3817Y-4.6769
X8.5785Y-4.6769
X9.68Y-2.7863
X9.68Y-2.9831
X9.68Y-3.18
X9.68Y-3.3769
T9
X9.68Y-3.6663
X9.68Y-3.8631
X9.68Y-4.06
T10
X7.0906Y-2.44
X7.0906Y-4.84
X9.84Y-2.44
X9.84Y-4.8439
T0
M30
