%TF.GenerationSoftware,KiCad,Pcbnew,7.0.3*%
%TF.CreationDate,2023-06-20T17:33:07-05:00*%
%TF.ProjectId,ambient_measurement,616d6269-656e-4745-9f6d-656173757265,rev?*%
%TF.SameCoordinates,Original*%
%TF.FileFunction,Copper,L1,Top*%
%TF.FilePolarity,Positive*%
%FSLAX46Y46*%
G04 Gerber Fmt 4.6, Leading zero omitted, Abs format (unit mm)*
G04 Created by KiCad (PCBNEW 7.0.3) date 2023-06-20 17:33:07*
%MOMM*%
%LPD*%
G01*
G04 APERTURE LIST*
%TA.AperFunction,NonConductor*%
%ADD10C,0.200000*%
%TD*%
%ADD11C,0.300000*%
%TA.AperFunction,NonConductor*%
%ADD12C,0.300000*%
%TD*%
%TA.AperFunction,ComponentPad*%
%ADD13C,5.400000*%
%TD*%
%TA.AperFunction,ComponentPad*%
%ADD14R,2.125000X3.960000*%
%TD*%
%TA.AperFunction,ComponentPad*%
%ADD15O,2.125000X3.960000*%
%TD*%
%TA.AperFunction,ComponentPad*%
%ADD16C,2.125000*%
%TD*%
%TA.AperFunction,ComponentPad*%
%ADD17O,2.125000X2.125000*%
%TD*%
%TA.AperFunction,ComponentPad*%
%ADD18R,2.000000X2.000000*%
%TD*%
%TA.AperFunction,ComponentPad*%
%ADD19C,2.000000*%
%TD*%
%TA.AperFunction,ComponentPad*%
%ADD20R,3.960000X3.960000*%
%TD*%
%TA.AperFunction,ComponentPad*%
%ADD21C,3.960000*%
%TD*%
%TA.AperFunction,ComponentPad*%
%ADD22O,3.960000X3.960000*%
%TD*%
%TA.AperFunction,ComponentPad*%
%ADD23R,2.125000X2.125000*%
%TD*%
%TA.AperFunction,ComponentPad*%
%ADD24R,2.540000X2.000000*%
%TD*%
%TA.AperFunction,ComponentPad*%
%ADD25R,2.540000X1.950000*%
%TD*%
%TA.AperFunction,ComponentPad*%
%ADD26R,2.540000X2.100000*%
%TD*%
%TA.AperFunction,ComponentPad*%
%ADD27R,2.540000X1.740000*%
%TD*%
%TA.AperFunction,ViaPad*%
%ADD28C,2.125000*%
%TD*%
%TA.AperFunction,Conductor*%
%ADD29C,1.330000*%
%TD*%
G04 APERTURE END LIST*
D10*
X174900000Y-57456000D02*
X255232000Y-57456000D01*
X255232000Y-127660000D01*
X174900000Y-127660000D01*
X174900000Y-57456000D01*
D11*
D12*
X187941185Y-68093488D02*
X187869757Y-68022060D01*
X187869757Y-68022060D02*
X187798328Y-67879203D01*
X187798328Y-67879203D02*
X187798328Y-67522060D01*
X187798328Y-67522060D02*
X187869757Y-67379203D01*
X187869757Y-67379203D02*
X187941185Y-67307774D01*
X187941185Y-67307774D02*
X188084042Y-67236345D01*
X188084042Y-67236345D02*
X188226900Y-67236345D01*
X188226900Y-67236345D02*
X188441185Y-67307774D01*
X188441185Y-67307774D02*
X189298328Y-68164917D01*
X189298328Y-68164917D02*
X189298328Y-67236345D01*
X187798328Y-66736346D02*
X187798328Y-65736346D01*
X187798328Y-65736346D02*
X189298328Y-66379203D01*
D11*
D12*
X238369171Y-97498154D02*
X238369171Y-96783868D01*
X238369171Y-96783868D02*
X237654885Y-96712440D01*
X237654885Y-96712440D02*
X237726314Y-96783868D01*
X237726314Y-96783868D02*
X237797742Y-96926726D01*
X237797742Y-96926726D02*
X237797742Y-97283868D01*
X237797742Y-97283868D02*
X237726314Y-97426726D01*
X237726314Y-97426726D02*
X237654885Y-97498154D01*
X237654885Y-97498154D02*
X237512028Y-97569583D01*
X237512028Y-97569583D02*
X237154885Y-97569583D01*
X237154885Y-97569583D02*
X237012028Y-97498154D01*
X237012028Y-97498154D02*
X236940600Y-97426726D01*
X236940600Y-97426726D02*
X236869171Y-97283868D01*
X236869171Y-97283868D02*
X236869171Y-96926726D01*
X236869171Y-96926726D02*
X236940600Y-96783868D01*
X236940600Y-96783868D02*
X237012028Y-96712440D01*
X238369171Y-97998154D02*
X236869171Y-98498154D01*
X236869171Y-98498154D02*
X238369171Y-98998154D01*
D11*
D12*
X186598328Y-67436345D02*
X186598328Y-68293488D01*
X186598328Y-67864917D02*
X185098328Y-67864917D01*
X185098328Y-67864917D02*
X185312614Y-68007774D01*
X185312614Y-68007774D02*
X185455471Y-68150631D01*
X185455471Y-68150631D02*
X185526900Y-68293488D01*
X185598328Y-66150632D02*
X186598328Y-66150632D01*
X185026900Y-66507774D02*
X186098328Y-66864917D01*
X186098328Y-66864917D02*
X186098328Y-65936346D01*
D11*
D12*
X223054511Y-125273757D02*
X222911654Y-125202328D01*
X222911654Y-125202328D02*
X222697368Y-125202328D01*
X222697368Y-125202328D02*
X222483082Y-125273757D01*
X222483082Y-125273757D02*
X222340225Y-125416614D01*
X222340225Y-125416614D02*
X222268796Y-125559471D01*
X222268796Y-125559471D02*
X222197368Y-125845185D01*
X222197368Y-125845185D02*
X222197368Y-126059471D01*
X222197368Y-126059471D02*
X222268796Y-126345185D01*
X222268796Y-126345185D02*
X222340225Y-126488042D01*
X222340225Y-126488042D02*
X222483082Y-126630900D01*
X222483082Y-126630900D02*
X222697368Y-126702328D01*
X222697368Y-126702328D02*
X222840225Y-126702328D01*
X222840225Y-126702328D02*
X223054511Y-126630900D01*
X223054511Y-126630900D02*
X223125939Y-126559471D01*
X223125939Y-126559471D02*
X223125939Y-126059471D01*
X223125939Y-126059471D02*
X222840225Y-126059471D01*
X223768796Y-126702328D02*
X223768796Y-125202328D01*
X223768796Y-125202328D02*
X224625939Y-126702328D01*
X224625939Y-126702328D02*
X224625939Y-125202328D01*
X225340225Y-126702328D02*
X225340225Y-125202328D01*
X225340225Y-125202328D02*
X225697368Y-125202328D01*
X225697368Y-125202328D02*
X225911654Y-125273757D01*
X225911654Y-125273757D02*
X226054511Y-125416614D01*
X226054511Y-125416614D02*
X226125940Y-125559471D01*
X226125940Y-125559471D02*
X226197368Y-125845185D01*
X226197368Y-125845185D02*
X226197368Y-126059471D01*
X226197368Y-126059471D02*
X226125940Y-126345185D01*
X226125940Y-126345185D02*
X226054511Y-126488042D01*
X226054511Y-126488042D02*
X225911654Y-126630900D01*
X225911654Y-126630900D02*
X225697368Y-126702328D01*
X225697368Y-126702328D02*
X225340225Y-126702328D01*
D11*
D12*
X183898328Y-67536345D02*
X183898328Y-68393488D01*
X183898328Y-67964917D02*
X182398328Y-67964917D01*
X182398328Y-67964917D02*
X182612614Y-68107774D01*
X182612614Y-68107774D02*
X182755471Y-68250631D01*
X182755471Y-68250631D02*
X182826900Y-68393488D01*
X182541185Y-66964917D02*
X182469757Y-66893489D01*
X182469757Y-66893489D02*
X182398328Y-66750632D01*
X182398328Y-66750632D02*
X182398328Y-66393489D01*
X182398328Y-66393489D02*
X182469757Y-66250632D01*
X182469757Y-66250632D02*
X182541185Y-66179203D01*
X182541185Y-66179203D02*
X182684042Y-66107774D01*
X182684042Y-66107774D02*
X182826900Y-66107774D01*
X182826900Y-66107774D02*
X183041185Y-66179203D01*
X183041185Y-66179203D02*
X183898328Y-67036346D01*
X183898328Y-67036346D02*
X183898328Y-66107774D01*
D11*
D12*
X238494242Y-74238511D02*
X238565671Y-74095654D01*
X238565671Y-74095654D02*
X238565671Y-73881368D01*
X238565671Y-73881368D02*
X238494242Y-73667082D01*
X238494242Y-73667082D02*
X238351385Y-73524225D01*
X238351385Y-73524225D02*
X238208528Y-73452796D01*
X238208528Y-73452796D02*
X237922814Y-73381368D01*
X237922814Y-73381368D02*
X237708528Y-73381368D01*
X237708528Y-73381368D02*
X237422814Y-73452796D01*
X237422814Y-73452796D02*
X237279957Y-73524225D01*
X237279957Y-73524225D02*
X237137100Y-73667082D01*
X237137100Y-73667082D02*
X237065671Y-73881368D01*
X237065671Y-73881368D02*
X237065671Y-74024225D01*
X237065671Y-74024225D02*
X237137100Y-74238511D01*
X237137100Y-74238511D02*
X237208528Y-74309939D01*
X237208528Y-74309939D02*
X237708528Y-74309939D01*
X237708528Y-74309939D02*
X237708528Y-74024225D01*
X237065671Y-74952796D02*
X238565671Y-74952796D01*
X238565671Y-74952796D02*
X237065671Y-75809939D01*
X237065671Y-75809939D02*
X238565671Y-75809939D01*
X237065671Y-76524225D02*
X238565671Y-76524225D01*
X238565671Y-76524225D02*
X238565671Y-76881368D01*
X238565671Y-76881368D02*
X238494242Y-77095654D01*
X238494242Y-77095654D02*
X238351385Y-77238511D01*
X238351385Y-77238511D02*
X238208528Y-77309940D01*
X238208528Y-77309940D02*
X237922814Y-77381368D01*
X237922814Y-77381368D02*
X237708528Y-77381368D01*
X237708528Y-77381368D02*
X237422814Y-77309940D01*
X237422814Y-77309940D02*
X237279957Y-77238511D01*
X237279957Y-77238511D02*
X237137100Y-77095654D01*
X237137100Y-77095654D02*
X237065671Y-76881368D01*
X237065671Y-76881368D02*
X237065671Y-76524225D01*
D11*
D12*
X238026314Y-101441011D02*
X238097742Y-101512439D01*
X238097742Y-101512439D02*
X238169171Y-101655297D01*
X238169171Y-101655297D02*
X238169171Y-102012439D01*
X238169171Y-102012439D02*
X238097742Y-102155297D01*
X238097742Y-102155297D02*
X238026314Y-102226725D01*
X238026314Y-102226725D02*
X237883457Y-102298154D01*
X237883457Y-102298154D02*
X237740600Y-102298154D01*
X237740600Y-102298154D02*
X237526314Y-102226725D01*
X237526314Y-102226725D02*
X236669171Y-101369582D01*
X236669171Y-101369582D02*
X236669171Y-102298154D01*
X238169171Y-103655296D02*
X238169171Y-102941010D01*
X238169171Y-102941010D02*
X237454885Y-102869582D01*
X237454885Y-102869582D02*
X237526314Y-102941010D01*
X237526314Y-102941010D02*
X237597742Y-103083868D01*
X237597742Y-103083868D02*
X237597742Y-103441010D01*
X237597742Y-103441010D02*
X237526314Y-103583868D01*
X237526314Y-103583868D02*
X237454885Y-103655296D01*
X237454885Y-103655296D02*
X237312028Y-103726725D01*
X237312028Y-103726725D02*
X236954885Y-103726725D01*
X236954885Y-103726725D02*
X236812028Y-103655296D01*
X236812028Y-103655296D02*
X236740600Y-103583868D01*
X236740600Y-103583868D02*
X236669171Y-103441010D01*
X236669171Y-103441010D02*
X236669171Y-103083868D01*
X236669171Y-103083868D02*
X236740600Y-102941010D01*
X236740600Y-102941010D02*
X236812028Y-102869582D01*
D11*
D12*
X238297742Y-91741011D02*
X238369171Y-91598154D01*
X238369171Y-91598154D02*
X238369171Y-91383868D01*
X238369171Y-91383868D02*
X238297742Y-91169582D01*
X238297742Y-91169582D02*
X238154885Y-91026725D01*
X238154885Y-91026725D02*
X238012028Y-90955296D01*
X238012028Y-90955296D02*
X237726314Y-90883868D01*
X237726314Y-90883868D02*
X237512028Y-90883868D01*
X237512028Y-90883868D02*
X237226314Y-90955296D01*
X237226314Y-90955296D02*
X237083457Y-91026725D01*
X237083457Y-91026725D02*
X236940600Y-91169582D01*
X236940600Y-91169582D02*
X236869171Y-91383868D01*
X236869171Y-91383868D02*
X236869171Y-91526725D01*
X236869171Y-91526725D02*
X236940600Y-91741011D01*
X236940600Y-91741011D02*
X237012028Y-91812439D01*
X237012028Y-91812439D02*
X237512028Y-91812439D01*
X237512028Y-91812439D02*
X237512028Y-91526725D01*
X236869171Y-92455296D02*
X238369171Y-92455296D01*
X238369171Y-92455296D02*
X236869171Y-93312439D01*
X236869171Y-93312439D02*
X238369171Y-93312439D01*
X236869171Y-94026725D02*
X238369171Y-94026725D01*
X238369171Y-94026725D02*
X238369171Y-94383868D01*
X238369171Y-94383868D02*
X238297742Y-94598154D01*
X238297742Y-94598154D02*
X238154885Y-94741011D01*
X238154885Y-94741011D02*
X238012028Y-94812440D01*
X238012028Y-94812440D02*
X237726314Y-94883868D01*
X237726314Y-94883868D02*
X237512028Y-94883868D01*
X237512028Y-94883868D02*
X237226314Y-94812440D01*
X237226314Y-94812440D02*
X237083457Y-94741011D01*
X237083457Y-94741011D02*
X236940600Y-94598154D01*
X236940600Y-94598154D02*
X236869171Y-94383868D01*
X236869171Y-94383868D02*
X236869171Y-94026725D01*
D11*
D12*
X208858511Y-100549757D02*
X208715654Y-100478328D01*
X208715654Y-100478328D02*
X208501368Y-100478328D01*
X208501368Y-100478328D02*
X208287082Y-100549757D01*
X208287082Y-100549757D02*
X208144225Y-100692614D01*
X208144225Y-100692614D02*
X208072796Y-100835471D01*
X208072796Y-100835471D02*
X208001368Y-101121185D01*
X208001368Y-101121185D02*
X208001368Y-101335471D01*
X208001368Y-101335471D02*
X208072796Y-101621185D01*
X208072796Y-101621185D02*
X208144225Y-101764042D01*
X208144225Y-101764042D02*
X208287082Y-101906900D01*
X208287082Y-101906900D02*
X208501368Y-101978328D01*
X208501368Y-101978328D02*
X208644225Y-101978328D01*
X208644225Y-101978328D02*
X208858511Y-101906900D01*
X208858511Y-101906900D02*
X208929939Y-101835471D01*
X208929939Y-101835471D02*
X208929939Y-101335471D01*
X208929939Y-101335471D02*
X208644225Y-101335471D01*
X209572796Y-101978328D02*
X209572796Y-100478328D01*
X209572796Y-100478328D02*
X210429939Y-101978328D01*
X210429939Y-101978328D02*
X210429939Y-100478328D01*
X211144225Y-101978328D02*
X211144225Y-100478328D01*
X211144225Y-100478328D02*
X211501368Y-100478328D01*
X211501368Y-100478328D02*
X211715654Y-100549757D01*
X211715654Y-100549757D02*
X211858511Y-100692614D01*
X211858511Y-100692614D02*
X211929940Y-100835471D01*
X211929940Y-100835471D02*
X212001368Y-101121185D01*
X212001368Y-101121185D02*
X212001368Y-101335471D01*
X212001368Y-101335471D02*
X211929940Y-101621185D01*
X211929940Y-101621185D02*
X211858511Y-101764042D01*
X211858511Y-101764042D02*
X211715654Y-101906900D01*
X211715654Y-101906900D02*
X211501368Y-101978328D01*
X211501368Y-101978328D02*
X211144225Y-101978328D01*
D11*
D12*
X186698328Y-84416345D02*
X186698328Y-85273488D01*
X186698328Y-84844917D02*
X185198328Y-84844917D01*
X185198328Y-84844917D02*
X185412614Y-84987774D01*
X185412614Y-84987774D02*
X185555471Y-85130631D01*
X185555471Y-85130631D02*
X185626900Y-85273488D01*
X185198328Y-83916346D02*
X185198328Y-82987774D01*
X185198328Y-82987774D02*
X185769757Y-83487774D01*
X185769757Y-83487774D02*
X185769757Y-83273489D01*
X185769757Y-83273489D02*
X185841185Y-83130632D01*
X185841185Y-83130632D02*
X185912614Y-83059203D01*
X185912614Y-83059203D02*
X186055471Y-82987774D01*
X186055471Y-82987774D02*
X186412614Y-82987774D01*
X186412614Y-82987774D02*
X186555471Y-83059203D01*
X186555471Y-83059203D02*
X186626900Y-83130632D01*
X186626900Y-83130632D02*
X186698328Y-83273489D01*
X186698328Y-83273489D02*
X186698328Y-83702060D01*
X186698328Y-83702060D02*
X186626900Y-83844917D01*
X186626900Y-83844917D02*
X186555471Y-83916346D01*
D11*
D12*
X187941185Y-85373488D02*
X187869757Y-85302060D01*
X187869757Y-85302060D02*
X187798328Y-85159203D01*
X187798328Y-85159203D02*
X187798328Y-84802060D01*
X187798328Y-84802060D02*
X187869757Y-84659203D01*
X187869757Y-84659203D02*
X187941185Y-84587774D01*
X187941185Y-84587774D02*
X188084042Y-84516345D01*
X188084042Y-84516345D02*
X188226900Y-84516345D01*
X188226900Y-84516345D02*
X188441185Y-84587774D01*
X188441185Y-84587774D02*
X189298328Y-85444917D01*
X189298328Y-85444917D02*
X189298328Y-84516345D01*
X187798328Y-83230632D02*
X187798328Y-83516346D01*
X187798328Y-83516346D02*
X187869757Y-83659203D01*
X187869757Y-83659203D02*
X187941185Y-83730632D01*
X187941185Y-83730632D02*
X188155471Y-83873489D01*
X188155471Y-83873489D02*
X188441185Y-83944917D01*
X188441185Y-83944917D02*
X189012614Y-83944917D01*
X189012614Y-83944917D02*
X189155471Y-83873489D01*
X189155471Y-83873489D02*
X189226900Y-83802060D01*
X189226900Y-83802060D02*
X189298328Y-83659203D01*
X189298328Y-83659203D02*
X189298328Y-83373489D01*
X189298328Y-83373489D02*
X189226900Y-83230632D01*
X189226900Y-83230632D02*
X189155471Y-83159203D01*
X189155471Y-83159203D02*
X189012614Y-83087774D01*
X189012614Y-83087774D02*
X188655471Y-83087774D01*
X188655471Y-83087774D02*
X188512614Y-83159203D01*
X188512614Y-83159203D02*
X188441185Y-83230632D01*
X188441185Y-83230632D02*
X188369757Y-83373489D01*
X188369757Y-83373489D02*
X188369757Y-83659203D01*
X188369757Y-83659203D02*
X188441185Y-83802060D01*
X188441185Y-83802060D02*
X188512614Y-83873489D01*
X188512614Y-83873489D02*
X188655471Y-83944917D01*
D11*
D12*
X190669757Y-67493488D02*
X190598328Y-67636346D01*
X190598328Y-67636346D02*
X190598328Y-67850631D01*
X190598328Y-67850631D02*
X190669757Y-68064917D01*
X190669757Y-68064917D02*
X190812614Y-68207774D01*
X190812614Y-68207774D02*
X190955471Y-68279203D01*
X190955471Y-68279203D02*
X191241185Y-68350631D01*
X191241185Y-68350631D02*
X191455471Y-68350631D01*
X191455471Y-68350631D02*
X191741185Y-68279203D01*
X191741185Y-68279203D02*
X191884042Y-68207774D01*
X191884042Y-68207774D02*
X192026900Y-68064917D01*
X192026900Y-68064917D02*
X192098328Y-67850631D01*
X192098328Y-67850631D02*
X192098328Y-67707774D01*
X192098328Y-67707774D02*
X192026900Y-67493488D01*
X192026900Y-67493488D02*
X191955471Y-67422060D01*
X191955471Y-67422060D02*
X191455471Y-67422060D01*
X191455471Y-67422060D02*
X191455471Y-67707774D01*
X192098328Y-66779203D02*
X190598328Y-66779203D01*
X190598328Y-66779203D02*
X192098328Y-65922060D01*
X192098328Y-65922060D02*
X190598328Y-65922060D01*
X192098328Y-65207774D02*
X190598328Y-65207774D01*
X190598328Y-65207774D02*
X190598328Y-64850631D01*
X190598328Y-64850631D02*
X190669757Y-64636345D01*
X190669757Y-64636345D02*
X190812614Y-64493488D01*
X190812614Y-64493488D02*
X190955471Y-64422059D01*
X190955471Y-64422059D02*
X191241185Y-64350631D01*
X191241185Y-64350631D02*
X191455471Y-64350631D01*
X191455471Y-64350631D02*
X191741185Y-64422059D01*
X191741185Y-64422059D02*
X191884042Y-64493488D01*
X191884042Y-64493488D02*
X192026900Y-64636345D01*
X192026900Y-64636345D02*
X192098328Y-64850631D01*
X192098328Y-64850631D02*
X192098328Y-65207774D01*
D11*
D12*
X238422814Y-79698511D02*
X238494242Y-79769939D01*
X238494242Y-79769939D02*
X238565671Y-79912797D01*
X238565671Y-79912797D02*
X238565671Y-80269939D01*
X238565671Y-80269939D02*
X238494242Y-80412797D01*
X238494242Y-80412797D02*
X238422814Y-80484225D01*
X238422814Y-80484225D02*
X238279957Y-80555654D01*
X238279957Y-80555654D02*
X238137100Y-80555654D01*
X238137100Y-80555654D02*
X237922814Y-80484225D01*
X237922814Y-80484225D02*
X237065671Y-79627082D01*
X237065671Y-79627082D02*
X237065671Y-80555654D01*
X238422814Y-81127082D02*
X238494242Y-81198510D01*
X238494242Y-81198510D02*
X238565671Y-81341368D01*
X238565671Y-81341368D02*
X238565671Y-81698510D01*
X238565671Y-81698510D02*
X238494242Y-81841368D01*
X238494242Y-81841368D02*
X238422814Y-81912796D01*
X238422814Y-81912796D02*
X238279957Y-81984225D01*
X238279957Y-81984225D02*
X238137100Y-81984225D01*
X238137100Y-81984225D02*
X237922814Y-81912796D01*
X237922814Y-81912796D02*
X237065671Y-81055653D01*
X237065671Y-81055653D02*
X237065671Y-81984225D01*
D11*
D12*
X190398328Y-85473488D02*
X190398328Y-84544916D01*
X190398328Y-84544916D02*
X190969757Y-85044916D01*
X190969757Y-85044916D02*
X190969757Y-84830631D01*
X190969757Y-84830631D02*
X191041185Y-84687774D01*
X191041185Y-84687774D02*
X191112614Y-84616345D01*
X191112614Y-84616345D02*
X191255471Y-84544916D01*
X191255471Y-84544916D02*
X191612614Y-84544916D01*
X191612614Y-84544916D02*
X191755471Y-84616345D01*
X191755471Y-84616345D02*
X191826900Y-84687774D01*
X191826900Y-84687774D02*
X191898328Y-84830631D01*
X191898328Y-84830631D02*
X191898328Y-85259202D01*
X191898328Y-85259202D02*
X191826900Y-85402059D01*
X191826900Y-85402059D02*
X191755471Y-85473488D01*
X190398328Y-84116345D02*
X191898328Y-83616345D01*
X191898328Y-83616345D02*
X190398328Y-83116345D01*
D11*
D12*
X208311654Y-125202328D02*
X207597368Y-125202328D01*
X207597368Y-125202328D02*
X207525940Y-125916614D01*
X207525940Y-125916614D02*
X207597368Y-125845185D01*
X207597368Y-125845185D02*
X207740226Y-125773757D01*
X207740226Y-125773757D02*
X208097368Y-125773757D01*
X208097368Y-125773757D02*
X208240226Y-125845185D01*
X208240226Y-125845185D02*
X208311654Y-125916614D01*
X208311654Y-125916614D02*
X208383083Y-126059471D01*
X208383083Y-126059471D02*
X208383083Y-126416614D01*
X208383083Y-126416614D02*
X208311654Y-126559471D01*
X208311654Y-126559471D02*
X208240226Y-126630900D01*
X208240226Y-126630900D02*
X208097368Y-126702328D01*
X208097368Y-126702328D02*
X207740226Y-126702328D01*
X207740226Y-126702328D02*
X207597368Y-126630900D01*
X207597368Y-126630900D02*
X207525940Y-126559471D01*
X208811654Y-125202328D02*
X209311654Y-126702328D01*
X209311654Y-126702328D02*
X209811654Y-125202328D01*
D11*
D12*
X238422814Y-84398511D02*
X238494242Y-84469939D01*
X238494242Y-84469939D02*
X238565671Y-84612797D01*
X238565671Y-84612797D02*
X238565671Y-84969939D01*
X238565671Y-84969939D02*
X238494242Y-85112797D01*
X238494242Y-85112797D02*
X238422814Y-85184225D01*
X238422814Y-85184225D02*
X238279957Y-85255654D01*
X238279957Y-85255654D02*
X238137100Y-85255654D01*
X238137100Y-85255654D02*
X237922814Y-85184225D01*
X237922814Y-85184225D02*
X237065671Y-84327082D01*
X237065671Y-84327082D02*
X237065671Y-85255654D01*
X237065671Y-86684225D02*
X237065671Y-85827082D01*
X237065671Y-86255653D02*
X238565671Y-86255653D01*
X238565671Y-86255653D02*
X238351385Y-86112796D01*
X238351385Y-86112796D02*
X238208528Y-85969939D01*
X238208528Y-85969939D02*
X238137100Y-85827082D01*
D11*
D12*
X209415654Y-102978328D02*
X208701368Y-102978328D01*
X208701368Y-102978328D02*
X208629940Y-103692614D01*
X208629940Y-103692614D02*
X208701368Y-103621185D01*
X208701368Y-103621185D02*
X208844226Y-103549757D01*
X208844226Y-103549757D02*
X209201368Y-103549757D01*
X209201368Y-103549757D02*
X209344226Y-103621185D01*
X209344226Y-103621185D02*
X209415654Y-103692614D01*
X209415654Y-103692614D02*
X209487083Y-103835471D01*
X209487083Y-103835471D02*
X209487083Y-104192614D01*
X209487083Y-104192614D02*
X209415654Y-104335471D01*
X209415654Y-104335471D02*
X209344226Y-104406900D01*
X209344226Y-104406900D02*
X209201368Y-104478328D01*
X209201368Y-104478328D02*
X208844226Y-104478328D01*
X208844226Y-104478328D02*
X208701368Y-104406900D01*
X208701368Y-104406900D02*
X208629940Y-104335471D01*
X209915654Y-102978328D02*
X210415654Y-104478328D01*
X210415654Y-104478328D02*
X210915654Y-102978328D01*
D11*
D12*
X238565671Y-70523654D02*
X238565671Y-69809368D01*
X238565671Y-69809368D02*
X237851385Y-69737940D01*
X237851385Y-69737940D02*
X237922814Y-69809368D01*
X237922814Y-69809368D02*
X237994242Y-69952226D01*
X237994242Y-69952226D02*
X237994242Y-70309368D01*
X237994242Y-70309368D02*
X237922814Y-70452226D01*
X237922814Y-70452226D02*
X237851385Y-70523654D01*
X237851385Y-70523654D02*
X237708528Y-70595083D01*
X237708528Y-70595083D02*
X237351385Y-70595083D01*
X237351385Y-70595083D02*
X237208528Y-70523654D01*
X237208528Y-70523654D02*
X237137100Y-70452226D01*
X237137100Y-70452226D02*
X237065671Y-70309368D01*
X237065671Y-70309368D02*
X237065671Y-69952226D01*
X237065671Y-69952226D02*
X237137100Y-69809368D01*
X237137100Y-69809368D02*
X237208528Y-69737940D01*
X238565671Y-71023654D02*
X237065671Y-71523654D01*
X237065671Y-71523654D02*
X238565671Y-72023654D01*
D13*
%TO.P,H2,1*%
%TO.N,N/C*%
X249936000Y-123036000D03*
%TD*%
D14*
%TO.P,5V1,1,Pin_1*%
%TO.N,5v*%
X212894888Y-118792000D03*
D15*
%TO.P,5V1,2,Pin_2*%
%TO.N,GND5V*%
X217894888Y-118792000D03*
%TD*%
D16*
%TO.P,R1,1*%
%TO.N,5v*%
X234696000Y-98552000D03*
D17*
%TO.P,R1,2*%
%TO.N,D25*%
X234696000Y-101092000D03*
%TD*%
D18*
%TO.P,C1,1*%
%TO.N,5v*%
X204296000Y-118785112D03*
D19*
%TO.P,C1,2*%
%TO.N,GND5V*%
X204296000Y-116285112D03*
%TD*%
D20*
%TO.P,J1,1,Pin_1*%
%TO.N,D25*%
X245872000Y-103124000D03*
D21*
%TO.P,J1,2,Pin_2*%
%TO.N,5v*%
X245872000Y-98124000D03*
%TO.P,J1,3,Pin_3*%
%TO.N,GND5V*%
X245872000Y-93124000D03*
%TD*%
D20*
%TO.P,J2,1,Pin_1*%
%TO.N,D21*%
X245872000Y-85772000D03*
D22*
%TO.P,J2,2,Pin_2*%
%TO.N,D22*%
X245872000Y-80772000D03*
%TO.P,J2,3,Pin_3*%
%TO.N,GND5V*%
X245872000Y-75772000D03*
%TO.P,J2,4,Pin_4*%
%TO.N,5v*%
X245872000Y-70772000D03*
%TD*%
D13*
%TO.P,H4,1*%
%TO.N,N/C*%
X249936000Y-61976000D03*
%TD*%
D23*
%TO.P,U1,1,GND*%
%TO.N,GND2*%
X191045000Y-75392000D03*
D16*
%TO.P,U1,2,VCC*%
%TO.N,3V3*%
X191045000Y-77932000D03*
%TO.P,U1,3,CE*%
%TO.N,D27*%
X188505000Y-75392000D03*
%TO.P,U1,4,~{CSN}*%
%TO.N,D26*%
X188505000Y-77932000D03*
%TO.P,U1,5,SCK*%
%TO.N,D14*%
X185965000Y-75392000D03*
%TO.P,U1,6,MOSI*%
%TO.N,D13*%
X185965000Y-77932000D03*
%TO.P,U1,7,MISO*%
%TO.N,D12*%
X183425000Y-75392000D03*
%TO.P,U1,8,IRQ*%
%TO.N,unconnected-(U1-IRQ-Pad8)*%
X183425000Y-77932000D03*
%TD*%
D19*
%TO.P,C2,1*%
%TO.N,5v*%
X199136000Y-118872000D03*
%TO.P,C2,2*%
%TO.N,GND5V*%
X199136000Y-116372000D03*
%TD*%
D24*
%TO.P,J_esp1,1,Pin_1*%
%TO.N,3V3*%
X227490500Y-103699000D03*
D25*
%TO.P,J_esp1,2,Pin_2*%
%TO.N,GND2*%
X227490500Y-101159000D03*
%TO.P,J_esp1,3,Pin_3*%
%TO.N,D15*%
X227490500Y-98619000D03*
%TO.P,J_esp1,4,Pin_4*%
%TO.N,D2*%
X227490500Y-96079000D03*
%TO.P,J_esp1,5,Pin_5*%
%TO.N,D4*%
X227490500Y-93539000D03*
%TO.P,J_esp1,6,Pin_6*%
%TO.N,RX2*%
X227490500Y-90999000D03*
%TO.P,J_esp1,7,Pin_7*%
%TO.N,TX2*%
X227490500Y-88459000D03*
%TO.P,J_esp1,8,Pin_8*%
%TO.N,D5*%
X227490500Y-85919000D03*
%TO.P,J_esp1,9,Pin_9*%
%TO.N,D18*%
X227490500Y-83379000D03*
%TO.P,J_esp1,10,Pin_10*%
%TO.N,D19*%
X227490500Y-80839000D03*
%TO.P,J_esp1,11,Pin_11*%
%TO.N,D21*%
X227490500Y-78299000D03*
%TO.P,J_esp1,12,Pin_12*%
%TO.N,RX0*%
X227490500Y-75759000D03*
%TO.P,J_esp1,13,Pin_13*%
%TO.N,TX0*%
X227490500Y-73219000D03*
%TO.P,J_esp1,14,Pin_14*%
%TO.N,D22*%
X227490500Y-70679000D03*
%TO.P,J_esp1,15,Pin_15*%
%TO.N,D23*%
X227490500Y-68139000D03*
%TD*%
D13*
%TO.P,H3,1*%
%TO.N,N/C*%
X180100000Y-122936000D03*
%TD*%
D26*
%TO.P,J_esp0,1,Pin_1*%
%TO.N,EN*%
X202950000Y-68060000D03*
D27*
%TO.P,J_esp0,2,Pin_2*%
%TO.N,VP*%
X202950000Y-70600000D03*
%TO.P,J_esp0,3,Pin_3*%
%TO.N,VN*%
X202950000Y-73140000D03*
D25*
%TO.P,J_esp0,4,Pin_4*%
%TO.N,D34*%
X202950000Y-75680000D03*
%TO.P,J_esp0,5,Pin_5*%
%TO.N,D35*%
X202950000Y-78220000D03*
%TO.P,J_esp0,6,Pin_6*%
%TO.N,D32*%
X202950000Y-80760000D03*
%TO.P,J_esp0,7,Pin_7*%
%TO.N,D33*%
X202950000Y-83300000D03*
%TO.P,J_esp0,8,Pin_8*%
%TO.N,D25*%
X202950000Y-85840000D03*
%TO.P,J_esp0,9,Pin_9*%
%TO.N,D26*%
X202950000Y-88380000D03*
%TO.P,J_esp0,10,Pin_10*%
%TO.N,D27*%
X202950000Y-90920000D03*
%TO.P,J_esp0,11,Pin_11*%
%TO.N,D14*%
X202950000Y-93460000D03*
%TO.P,J_esp0,12,Pin_12*%
%TO.N,D12*%
X202950000Y-96000000D03*
%TO.P,J_esp0,13,Pin_13*%
%TO.N,D13*%
X202950000Y-98540000D03*
%TO.P,J_esp0,14,Pin_14*%
%TO.N,GND5V*%
X202950000Y-101080000D03*
%TO.P,J_esp0,15,Pin_15*%
%TO.N,5v*%
X202950000Y-103620000D03*
%TD*%
D13*
%TO.P,H1,1*%
%TO.N,N/C*%
X180100000Y-61976000D03*
%TD*%
D28*
%TO.N,5v*%
X234188000Y-71120000D03*
X230124000Y-122976000D03*
X234188000Y-93472000D03*
%TO.N,D27*%
X188468000Y-70612000D03*
X194056000Y-90424000D03*
%TO.N,D14*%
X194056000Y-93472000D03*
X178308000Y-72644000D03*
%TO.N,D12*%
X184404000Y-96012000D03*
X194056000Y-96012000D03*
%TO.N,3V3*%
X197104000Y-78232000D03*
X218948000Y-103632000D03*
%TD*%
D29*
%TO.N,5v*%
X233680000Y-98552000D02*
X234696000Y-98552000D01*
X234188000Y-71120000D02*
X234188000Y-93472000D01*
X231648000Y-100584000D02*
X233680000Y-98552000D01*
X231648000Y-121452000D02*
X230124000Y-122976000D01*
X231648000Y-100584000D02*
X231648000Y-121452000D01*
%TO.N,D27*%
X194056000Y-90424000D02*
X194056000Y-73152000D01*
X191516000Y-70612000D02*
X188468000Y-70612000D01*
X194056000Y-73152000D02*
X191516000Y-70612000D01*
%TO.N,D14*%
X186436000Y-93472000D02*
X178308000Y-85344000D01*
X178308000Y-85344000D02*
X178308000Y-72644000D01*
X194056000Y-93472000D02*
X186436000Y-93472000D01*
%TO.N,D12*%
X184416000Y-96000000D02*
X184404000Y-96012000D01*
X194056000Y-96012000D02*
X184404000Y-96012000D01*
%TO.N,3V3*%
X197104000Y-105156000D02*
X197104000Y-78232000D01*
X200152000Y-108204000D02*
X197104000Y-105156000D01*
X217424000Y-103632000D02*
X212852000Y-108204000D01*
X218948000Y-103632000D02*
X217424000Y-103632000D01*
X212852000Y-108204000D02*
X200152000Y-108204000D01*
%TD*%
M02*
