%TF.GenerationSoftware,KiCad,Pcbnew,7.0.3*%
%TF.CreationDate,2023-06-20T17:33:07-05:00*%
%TF.ProjectId,ambient_measurement,616d6269-656e-4745-9f6d-656173757265,rev?*%
%TF.SameCoordinates,Original*%
%TF.FileFunction,Legend,Top*%
%TF.FilePolarity,Positive*%
%FSLAX46Y46*%
G04 Gerber Fmt 4.6, Leading zero omitted, Abs format (unit mm)*
G04 Created by KiCad (PCBNEW 7.0.3) date 2023-06-20 17:33:07*
%MOMM*%
%LPD*%
G01*
G04 APERTURE LIST*
%ADD10C,0.150000*%
%ADD11C,0.120000*%
G04 APERTURE END LIST*
D10*
%TO.C,H2*%
X249272779Y-119790819D02*
X249272779Y-118790819D01*
X249272779Y-119267009D02*
X249844207Y-119267009D01*
X249844207Y-119790819D02*
X249844207Y-118790819D01*
X250272779Y-118886057D02*
X250320398Y-118838438D01*
X250320398Y-118838438D02*
X250415636Y-118790819D01*
X250415636Y-118790819D02*
X250653731Y-118790819D01*
X250653731Y-118790819D02*
X250748969Y-118838438D01*
X250748969Y-118838438D02*
X250796588Y-118886057D01*
X250796588Y-118886057D02*
X250844207Y-118981295D01*
X250844207Y-118981295D02*
X250844207Y-119076533D01*
X250844207Y-119076533D02*
X250796588Y-119219390D01*
X250796588Y-119219390D02*
X250225160Y-119790819D01*
X250225160Y-119790819D02*
X250844207Y-119790819D01*
%TO.C,R1*%
X237070819Y-99889982D02*
X236594628Y-100223315D01*
X237070819Y-100461410D02*
X236070819Y-100461410D01*
X236070819Y-100461410D02*
X236070819Y-100080458D01*
X236070819Y-100080458D02*
X236118438Y-99985220D01*
X236118438Y-99985220D02*
X236166057Y-99937601D01*
X236166057Y-99937601D02*
X236261295Y-99889982D01*
X236261295Y-99889982D02*
X236404152Y-99889982D01*
X236404152Y-99889982D02*
X236499390Y-99937601D01*
X236499390Y-99937601D02*
X236547009Y-99985220D01*
X236547009Y-99985220D02*
X236594628Y-100080458D01*
X236594628Y-100080458D02*
X236594628Y-100461410D01*
X237070819Y-98937601D02*
X237070819Y-99509029D01*
X237070819Y-99223315D02*
X236070819Y-99223315D01*
X236070819Y-99223315D02*
X236213676Y-99318553D01*
X236213676Y-99318553D02*
X236308914Y-99413791D01*
X236308914Y-99413791D02*
X236356533Y-99509029D01*
%TO.C,C1*%
X200905580Y-117603094D02*
X200953200Y-117650713D01*
X200953200Y-117650713D02*
X201000819Y-117793570D01*
X201000819Y-117793570D02*
X201000819Y-117888808D01*
X201000819Y-117888808D02*
X200953200Y-118031665D01*
X200953200Y-118031665D02*
X200857961Y-118126903D01*
X200857961Y-118126903D02*
X200762723Y-118174522D01*
X200762723Y-118174522D02*
X200572247Y-118222141D01*
X200572247Y-118222141D02*
X200429390Y-118222141D01*
X200429390Y-118222141D02*
X200238914Y-118174522D01*
X200238914Y-118174522D02*
X200143676Y-118126903D01*
X200143676Y-118126903D02*
X200048438Y-118031665D01*
X200048438Y-118031665D02*
X200000819Y-117888808D01*
X200000819Y-117888808D02*
X200000819Y-117793570D01*
X200000819Y-117793570D02*
X200048438Y-117650713D01*
X200048438Y-117650713D02*
X200096057Y-117603094D01*
X201000819Y-116650713D02*
X201000819Y-117222141D01*
X201000819Y-116936427D02*
X200000819Y-116936427D01*
X200000819Y-116936427D02*
X200143676Y-117031665D01*
X200143676Y-117031665D02*
X200238914Y-117126903D01*
X200238914Y-117126903D02*
X200286533Y-117222141D01*
%TO.C,J1*%
X238126819Y-103358649D02*
X238841104Y-103358649D01*
X238841104Y-103358649D02*
X238983961Y-103406268D01*
X238983961Y-103406268D02*
X239079200Y-103501506D01*
X239079200Y-103501506D02*
X239126819Y-103644363D01*
X239126819Y-103644363D02*
X239126819Y-103739601D01*
X239126819Y-102358649D02*
X239126819Y-102930077D01*
X239126819Y-102644363D02*
X238126819Y-102644363D01*
X238126819Y-102644363D02*
X238269676Y-102739601D01*
X238269676Y-102739601D02*
X238364914Y-102834839D01*
X238364914Y-102834839D02*
X238412533Y-102930077D01*
%TO.C,J2*%
X238176819Y-78506649D02*
X238891104Y-78506649D01*
X238891104Y-78506649D02*
X239033961Y-78554268D01*
X239033961Y-78554268D02*
X239129200Y-78649506D01*
X239129200Y-78649506D02*
X239176819Y-78792363D01*
X239176819Y-78792363D02*
X239176819Y-78887601D01*
X238272057Y-78078077D02*
X238224438Y-78030458D01*
X238224438Y-78030458D02*
X238176819Y-77935220D01*
X238176819Y-77935220D02*
X238176819Y-77697125D01*
X238176819Y-77697125D02*
X238224438Y-77601887D01*
X238224438Y-77601887D02*
X238272057Y-77554268D01*
X238272057Y-77554268D02*
X238367295Y-77506649D01*
X238367295Y-77506649D02*
X238462533Y-77506649D01*
X238462533Y-77506649D02*
X238605390Y-77554268D01*
X238605390Y-77554268D02*
X239176819Y-78125696D01*
X239176819Y-78125696D02*
X239176819Y-77506649D01*
%TO.C,H4*%
X249272779Y-58730819D02*
X249272779Y-57730819D01*
X249272779Y-58207009D02*
X249844207Y-58207009D01*
X249844207Y-58730819D02*
X249844207Y-57730819D01*
X250748969Y-58064152D02*
X250748969Y-58730819D01*
X250510874Y-57683200D02*
X250272779Y-58397485D01*
X250272779Y-58397485D02*
X250891826Y-58397485D01*
%TO.C,U1*%
X193499819Y-76055220D02*
X194309342Y-76055220D01*
X194309342Y-76055220D02*
X194404580Y-76007601D01*
X194404580Y-76007601D02*
X194452200Y-75959982D01*
X194452200Y-75959982D02*
X194499819Y-75864744D01*
X194499819Y-75864744D02*
X194499819Y-75674268D01*
X194499819Y-75674268D02*
X194452200Y-75579030D01*
X194452200Y-75579030D02*
X194404580Y-75531411D01*
X194404580Y-75531411D02*
X194309342Y-75483792D01*
X194309342Y-75483792D02*
X193499819Y-75483792D01*
X194499819Y-74483792D02*
X194499819Y-75055220D01*
X194499819Y-74769506D02*
X193499819Y-74769506D01*
X193499819Y-74769506D02*
X193642676Y-74864744D01*
X193642676Y-74864744D02*
X193737914Y-74959982D01*
X193737914Y-74959982D02*
X193785533Y-75055220D01*
%TO.C,C2*%
X196995580Y-117689982D02*
X197043200Y-117737601D01*
X197043200Y-117737601D02*
X197090819Y-117880458D01*
X197090819Y-117880458D02*
X197090819Y-117975696D01*
X197090819Y-117975696D02*
X197043200Y-118118553D01*
X197043200Y-118118553D02*
X196947961Y-118213791D01*
X196947961Y-118213791D02*
X196852723Y-118261410D01*
X196852723Y-118261410D02*
X196662247Y-118309029D01*
X196662247Y-118309029D02*
X196519390Y-118309029D01*
X196519390Y-118309029D02*
X196328914Y-118261410D01*
X196328914Y-118261410D02*
X196233676Y-118213791D01*
X196233676Y-118213791D02*
X196138438Y-118118553D01*
X196138438Y-118118553D02*
X196090819Y-117975696D01*
X196090819Y-117975696D02*
X196090819Y-117880458D01*
X196090819Y-117880458D02*
X196138438Y-117737601D01*
X196138438Y-117737601D02*
X196186057Y-117689982D01*
X196186057Y-117309029D02*
X196138438Y-117261410D01*
X196138438Y-117261410D02*
X196090819Y-117166172D01*
X196090819Y-117166172D02*
X196090819Y-116928077D01*
X196090819Y-116928077D02*
X196138438Y-116832839D01*
X196138438Y-116832839D02*
X196186057Y-116785220D01*
X196186057Y-116785220D02*
X196281295Y-116737601D01*
X196281295Y-116737601D02*
X196376533Y-116737601D01*
X196376533Y-116737601D02*
X196519390Y-116785220D01*
X196519390Y-116785220D02*
X197090819Y-117356648D01*
X197090819Y-117356648D02*
X197090819Y-116737601D01*
%TO.C,J_esp1*%
X222632819Y-87420316D02*
X223347104Y-87420316D01*
X223347104Y-87420316D02*
X223489961Y-87467935D01*
X223489961Y-87467935D02*
X223585200Y-87563173D01*
X223585200Y-87563173D02*
X223632819Y-87706030D01*
X223632819Y-87706030D02*
X223632819Y-87801268D01*
X223728057Y-87182221D02*
X223728057Y-86420316D01*
X223585200Y-85801268D02*
X223632819Y-85896506D01*
X223632819Y-85896506D02*
X223632819Y-86086982D01*
X223632819Y-86086982D02*
X223585200Y-86182220D01*
X223585200Y-86182220D02*
X223489961Y-86229839D01*
X223489961Y-86229839D02*
X223109009Y-86229839D01*
X223109009Y-86229839D02*
X223013771Y-86182220D01*
X223013771Y-86182220D02*
X222966152Y-86086982D01*
X222966152Y-86086982D02*
X222966152Y-85896506D01*
X222966152Y-85896506D02*
X223013771Y-85801268D01*
X223013771Y-85801268D02*
X223109009Y-85753649D01*
X223109009Y-85753649D02*
X223204247Y-85753649D01*
X223204247Y-85753649D02*
X223299485Y-86229839D01*
X223585200Y-85372696D02*
X223632819Y-85277458D01*
X223632819Y-85277458D02*
X223632819Y-85086982D01*
X223632819Y-85086982D02*
X223585200Y-84991744D01*
X223585200Y-84991744D02*
X223489961Y-84944125D01*
X223489961Y-84944125D02*
X223442342Y-84944125D01*
X223442342Y-84944125D02*
X223347104Y-84991744D01*
X223347104Y-84991744D02*
X223299485Y-85086982D01*
X223299485Y-85086982D02*
X223299485Y-85229839D01*
X223299485Y-85229839D02*
X223251866Y-85325077D01*
X223251866Y-85325077D02*
X223156628Y-85372696D01*
X223156628Y-85372696D02*
X223109009Y-85372696D01*
X223109009Y-85372696D02*
X223013771Y-85325077D01*
X223013771Y-85325077D02*
X222966152Y-85229839D01*
X222966152Y-85229839D02*
X222966152Y-85086982D01*
X222966152Y-85086982D02*
X223013771Y-84991744D01*
X222966152Y-84515553D02*
X223966152Y-84515553D01*
X223013771Y-84515553D02*
X222966152Y-84420315D01*
X222966152Y-84420315D02*
X222966152Y-84229839D01*
X222966152Y-84229839D02*
X223013771Y-84134601D01*
X223013771Y-84134601D02*
X223061390Y-84086982D01*
X223061390Y-84086982D02*
X223156628Y-84039363D01*
X223156628Y-84039363D02*
X223442342Y-84039363D01*
X223442342Y-84039363D02*
X223537580Y-84086982D01*
X223537580Y-84086982D02*
X223585200Y-84134601D01*
X223585200Y-84134601D02*
X223632819Y-84229839D01*
X223632819Y-84229839D02*
X223632819Y-84420315D01*
X223632819Y-84420315D02*
X223585200Y-84515553D01*
X223632819Y-83086982D02*
X223632819Y-83658410D01*
X223632819Y-83372696D02*
X222632819Y-83372696D01*
X222632819Y-83372696D02*
X222775676Y-83467934D01*
X222775676Y-83467934D02*
X222870914Y-83563172D01*
X222870914Y-83563172D02*
X222918533Y-83658410D01*
%TO.C,H3*%
X179436779Y-119690819D02*
X179436779Y-118690819D01*
X179436779Y-119167009D02*
X180008207Y-119167009D01*
X180008207Y-119690819D02*
X180008207Y-118690819D01*
X180389160Y-118690819D02*
X181008207Y-118690819D01*
X181008207Y-118690819D02*
X180674874Y-119071771D01*
X180674874Y-119071771D02*
X180817731Y-119071771D01*
X180817731Y-119071771D02*
X180912969Y-119119390D01*
X180912969Y-119119390D02*
X180960588Y-119167009D01*
X180960588Y-119167009D02*
X181008207Y-119262247D01*
X181008207Y-119262247D02*
X181008207Y-119500342D01*
X181008207Y-119500342D02*
X180960588Y-119595580D01*
X180960588Y-119595580D02*
X180912969Y-119643200D01*
X180912969Y-119643200D02*
X180817731Y-119690819D01*
X180817731Y-119690819D02*
X180532017Y-119690819D01*
X180532017Y-119690819D02*
X180436779Y-119643200D01*
X180436779Y-119643200D02*
X180389160Y-119595580D01*
%TO.C,J_esp0*%
X207887319Y-88201316D02*
X208601604Y-88201316D01*
X208601604Y-88201316D02*
X208744461Y-88248935D01*
X208744461Y-88248935D02*
X208839700Y-88344173D01*
X208839700Y-88344173D02*
X208887319Y-88487030D01*
X208887319Y-88487030D02*
X208887319Y-88582268D01*
X208982557Y-87963221D02*
X208982557Y-87201316D01*
X208839700Y-86582268D02*
X208887319Y-86677506D01*
X208887319Y-86677506D02*
X208887319Y-86867982D01*
X208887319Y-86867982D02*
X208839700Y-86963220D01*
X208839700Y-86963220D02*
X208744461Y-87010839D01*
X208744461Y-87010839D02*
X208363509Y-87010839D01*
X208363509Y-87010839D02*
X208268271Y-86963220D01*
X208268271Y-86963220D02*
X208220652Y-86867982D01*
X208220652Y-86867982D02*
X208220652Y-86677506D01*
X208220652Y-86677506D02*
X208268271Y-86582268D01*
X208268271Y-86582268D02*
X208363509Y-86534649D01*
X208363509Y-86534649D02*
X208458747Y-86534649D01*
X208458747Y-86534649D02*
X208553985Y-87010839D01*
X208839700Y-86153696D02*
X208887319Y-86058458D01*
X208887319Y-86058458D02*
X208887319Y-85867982D01*
X208887319Y-85867982D02*
X208839700Y-85772744D01*
X208839700Y-85772744D02*
X208744461Y-85725125D01*
X208744461Y-85725125D02*
X208696842Y-85725125D01*
X208696842Y-85725125D02*
X208601604Y-85772744D01*
X208601604Y-85772744D02*
X208553985Y-85867982D01*
X208553985Y-85867982D02*
X208553985Y-86010839D01*
X208553985Y-86010839D02*
X208506366Y-86106077D01*
X208506366Y-86106077D02*
X208411128Y-86153696D01*
X208411128Y-86153696D02*
X208363509Y-86153696D01*
X208363509Y-86153696D02*
X208268271Y-86106077D01*
X208268271Y-86106077D02*
X208220652Y-86010839D01*
X208220652Y-86010839D02*
X208220652Y-85867982D01*
X208220652Y-85867982D02*
X208268271Y-85772744D01*
X208220652Y-85296553D02*
X209220652Y-85296553D01*
X208268271Y-85296553D02*
X208220652Y-85201315D01*
X208220652Y-85201315D02*
X208220652Y-85010839D01*
X208220652Y-85010839D02*
X208268271Y-84915601D01*
X208268271Y-84915601D02*
X208315890Y-84867982D01*
X208315890Y-84867982D02*
X208411128Y-84820363D01*
X208411128Y-84820363D02*
X208696842Y-84820363D01*
X208696842Y-84820363D02*
X208792080Y-84867982D01*
X208792080Y-84867982D02*
X208839700Y-84915601D01*
X208839700Y-84915601D02*
X208887319Y-85010839D01*
X208887319Y-85010839D02*
X208887319Y-85201315D01*
X208887319Y-85201315D02*
X208839700Y-85296553D01*
X207887319Y-84201315D02*
X207887319Y-84106077D01*
X207887319Y-84106077D02*
X207934938Y-84010839D01*
X207934938Y-84010839D02*
X207982557Y-83963220D01*
X207982557Y-83963220D02*
X208077795Y-83915601D01*
X208077795Y-83915601D02*
X208268271Y-83867982D01*
X208268271Y-83867982D02*
X208506366Y-83867982D01*
X208506366Y-83867982D02*
X208696842Y-83915601D01*
X208696842Y-83915601D02*
X208792080Y-83963220D01*
X208792080Y-83963220D02*
X208839700Y-84010839D01*
X208839700Y-84010839D02*
X208887319Y-84106077D01*
X208887319Y-84106077D02*
X208887319Y-84201315D01*
X208887319Y-84201315D02*
X208839700Y-84296553D01*
X208839700Y-84296553D02*
X208792080Y-84344172D01*
X208792080Y-84344172D02*
X208696842Y-84391791D01*
X208696842Y-84391791D02*
X208506366Y-84439410D01*
X208506366Y-84439410D02*
X208268271Y-84439410D01*
X208268271Y-84439410D02*
X208077795Y-84391791D01*
X208077795Y-84391791D02*
X207982557Y-84344172D01*
X207982557Y-84344172D02*
X207934938Y-84296553D01*
X207934938Y-84296553D02*
X207887319Y-84201315D01*
%TO.C,H1*%
X179436779Y-58730819D02*
X179436779Y-57730819D01*
X179436779Y-58207009D02*
X180008207Y-58207009D01*
X180008207Y-58730819D02*
X180008207Y-57730819D01*
X181008207Y-58730819D02*
X180436779Y-58730819D01*
X180722493Y-58730819D02*
X180722493Y-57730819D01*
X180722493Y-57730819D02*
X180627255Y-57873676D01*
X180627255Y-57873676D02*
X180532017Y-57968914D01*
X180532017Y-57968914D02*
X180436779Y-58016533D01*
D11*
%TO.C,5V1*%
X210244888Y-112492000D02*
X210244888Y-125092000D01*
X210244888Y-125092000D02*
X220594888Y-125092000D01*
X220594888Y-117292000D02*
X221094888Y-117592000D01*
X220594888Y-122692000D02*
X220594888Y-117292000D01*
X220594888Y-124142000D02*
X221094888Y-124392000D01*
X220594888Y-125092000D02*
X220594888Y-124142000D01*
X221094888Y-112492000D02*
X210244888Y-112492000D01*
X221094888Y-117592000D02*
X221094888Y-112492000D01*
X221094888Y-122442000D02*
X220594888Y-122692000D01*
X221094888Y-122492000D02*
X221094888Y-122442000D01*
X221094888Y-124392000D02*
X221094888Y-122492000D01*
%TO.C,R1*%
X234696000Y-99472000D02*
X234696000Y-100092000D01*
X235616000Y-98552000D02*
G75*
G03*
X235616000Y-98552000I-920000J0D01*
G01*
%TO.C,C1*%
X202821000Y-120339887D02*
X202821000Y-119839887D01*
X202571000Y-120089887D02*
X203071000Y-120089887D01*
X201716000Y-117535112D02*
X206876000Y-117535112D01*
X201716000Y-117495112D02*
X206876000Y-117495112D01*
X201717000Y-117455112D02*
X206875000Y-117455112D01*
X201718000Y-117415112D02*
X206874000Y-117415112D01*
X201720000Y-117375112D02*
X206872000Y-117375112D01*
X201723000Y-117335112D02*
X206869000Y-117335112D01*
X201727000Y-117295112D02*
X203256000Y-117295112D01*
X205336000Y-117295112D02*
X206865000Y-117295112D01*
X201731000Y-117255112D02*
X203256000Y-117255112D01*
X205336000Y-117255112D02*
X206861000Y-117255112D01*
X201735000Y-117215112D02*
X203256000Y-117215112D01*
X205336000Y-117215112D02*
X206857000Y-117215112D01*
X201740000Y-117175112D02*
X203256000Y-117175112D01*
X205336000Y-117175112D02*
X206852000Y-117175112D01*
X201746000Y-117135112D02*
X203256000Y-117135112D01*
X205336000Y-117135112D02*
X206846000Y-117135112D01*
X201753000Y-117095112D02*
X203256000Y-117095112D01*
X205336000Y-117095112D02*
X206839000Y-117095112D01*
X201760000Y-117055112D02*
X203256000Y-117055112D01*
X205336000Y-117055112D02*
X206832000Y-117055112D01*
X201768000Y-117015112D02*
X203256000Y-117015112D01*
X205336000Y-117015112D02*
X206824000Y-117015112D01*
X201776000Y-116975112D02*
X203256000Y-116975112D01*
X205336000Y-116975112D02*
X206816000Y-116975112D01*
X201785000Y-116935112D02*
X203256000Y-116935112D01*
X205336000Y-116935112D02*
X206807000Y-116935112D01*
X201795000Y-116895112D02*
X203256000Y-116895112D01*
X205336000Y-116895112D02*
X206797000Y-116895112D01*
X201805000Y-116855112D02*
X203256000Y-116855112D01*
X205336000Y-116855112D02*
X206787000Y-116855112D01*
X201816000Y-116814112D02*
X203256000Y-116814112D01*
X205336000Y-116814112D02*
X206776000Y-116814112D01*
X201828000Y-116774112D02*
X203256000Y-116774112D01*
X205336000Y-116774112D02*
X206764000Y-116774112D01*
X201841000Y-116734112D02*
X203256000Y-116734112D01*
X205336000Y-116734112D02*
X206751000Y-116734112D01*
X201854000Y-116694112D02*
X203256000Y-116694112D01*
X205336000Y-116694112D02*
X206738000Y-116694112D01*
X201868000Y-116654112D02*
X203256000Y-116654112D01*
X205336000Y-116654112D02*
X206724000Y-116654112D01*
X201882000Y-116614112D02*
X203256000Y-116614112D01*
X205336000Y-116614112D02*
X206710000Y-116614112D01*
X201898000Y-116574112D02*
X203256000Y-116574112D01*
X205336000Y-116574112D02*
X206694000Y-116574112D01*
X201914000Y-116534112D02*
X203256000Y-116534112D01*
X205336000Y-116534112D02*
X206678000Y-116534112D01*
X201931000Y-116494112D02*
X203256000Y-116494112D01*
X205336000Y-116494112D02*
X206661000Y-116494112D01*
X201948000Y-116454112D02*
X203256000Y-116454112D01*
X205336000Y-116454112D02*
X206644000Y-116454112D01*
X201967000Y-116414112D02*
X203256000Y-116414112D01*
X205336000Y-116414112D02*
X206625000Y-116414112D01*
X201986000Y-116374112D02*
X203256000Y-116374112D01*
X205336000Y-116374112D02*
X206606000Y-116374112D01*
X202006000Y-116334112D02*
X203256000Y-116334112D01*
X205336000Y-116334112D02*
X206586000Y-116334112D01*
X202028000Y-116294112D02*
X203256000Y-116294112D01*
X205336000Y-116294112D02*
X206564000Y-116294112D01*
X202049000Y-116254112D02*
X203256000Y-116254112D01*
X205336000Y-116254112D02*
X206543000Y-116254112D01*
X202072000Y-116214112D02*
X203256000Y-116214112D01*
X205336000Y-116214112D02*
X206520000Y-116214112D01*
X202096000Y-116174112D02*
X203256000Y-116174112D01*
X205336000Y-116174112D02*
X206496000Y-116174112D01*
X202121000Y-116134112D02*
X203256000Y-116134112D01*
X205336000Y-116134112D02*
X206471000Y-116134112D01*
X202147000Y-116094112D02*
X203256000Y-116094112D01*
X205336000Y-116094112D02*
X206445000Y-116094112D01*
X202174000Y-116054112D02*
X203256000Y-116054112D01*
X205336000Y-116054112D02*
X206418000Y-116054112D01*
X202201000Y-116014112D02*
X203256000Y-116014112D01*
X205336000Y-116014112D02*
X206391000Y-116014112D01*
X202231000Y-115974112D02*
X203256000Y-115974112D01*
X205336000Y-115974112D02*
X206361000Y-115974112D01*
X202261000Y-115934112D02*
X203256000Y-115934112D01*
X205336000Y-115934112D02*
X206331000Y-115934112D01*
X202292000Y-115894112D02*
X203256000Y-115894112D01*
X205336000Y-115894112D02*
X206300000Y-115894112D01*
X202325000Y-115854112D02*
X203256000Y-115854112D01*
X205336000Y-115854112D02*
X206267000Y-115854112D01*
X202359000Y-115814112D02*
X203256000Y-115814112D01*
X205336000Y-115814112D02*
X206233000Y-115814112D01*
X202395000Y-115774112D02*
X203256000Y-115774112D01*
X205336000Y-115774112D02*
X206197000Y-115774112D01*
X202432000Y-115734112D02*
X203256000Y-115734112D01*
X205336000Y-115734112D02*
X206160000Y-115734112D01*
X202470000Y-115694112D02*
X203256000Y-115694112D01*
X205336000Y-115694112D02*
X206122000Y-115694112D01*
X202511000Y-115654112D02*
X203256000Y-115654112D01*
X205336000Y-115654112D02*
X206081000Y-115654112D01*
X202553000Y-115614112D02*
X203256000Y-115614112D01*
X205336000Y-115614112D02*
X206039000Y-115614112D01*
X202597000Y-115574112D02*
X203256000Y-115574112D01*
X205336000Y-115574112D02*
X205995000Y-115574112D01*
X202643000Y-115534112D02*
X203256000Y-115534112D01*
X205336000Y-115534112D02*
X205949000Y-115534112D01*
X202691000Y-115494112D02*
X203256000Y-115494112D01*
X205336000Y-115494112D02*
X205901000Y-115494112D01*
X202742000Y-115454112D02*
X203256000Y-115454112D01*
X205336000Y-115454112D02*
X205850000Y-115454112D01*
X202796000Y-115414112D02*
X203256000Y-115414112D01*
X205336000Y-115414112D02*
X205796000Y-115414112D01*
X202853000Y-115374112D02*
X203256000Y-115374112D01*
X205336000Y-115374112D02*
X205739000Y-115374112D01*
X202913000Y-115334112D02*
X203256000Y-115334112D01*
X205336000Y-115334112D02*
X205679000Y-115334112D01*
X202977000Y-115294112D02*
X203256000Y-115294112D01*
X205336000Y-115294112D02*
X205615000Y-115294112D01*
X203045000Y-115254112D02*
X203256000Y-115254112D01*
X205336000Y-115254112D02*
X205547000Y-115254112D01*
X203118000Y-115214112D02*
X205474000Y-115214112D01*
X203198000Y-115174112D02*
X205394000Y-115174112D01*
X203285000Y-115134112D02*
X205307000Y-115134112D01*
X203381000Y-115094112D02*
X205211000Y-115094112D01*
X203491000Y-115054112D02*
X205101000Y-115054112D01*
X203619000Y-115014112D02*
X204973000Y-115014112D01*
X203778000Y-114974112D02*
X204814000Y-114974112D01*
X204012000Y-114934112D02*
X204580000Y-114934112D01*
X206916000Y-117535112D02*
G75*
G03*
X206916000Y-117535112I-2620000J0D01*
G01*
%TO.C,J1*%
X239372000Y-106124000D02*
X239372000Y-103124000D01*
X242372000Y-106124000D02*
X239372000Y-106124000D01*
X239752000Y-105744000D02*
X252492000Y-105744000D01*
X239752000Y-105744000D02*
X252492000Y-105744000D01*
X239752000Y-105744000D02*
X239752000Y-90504000D01*
X239752000Y-105744000D02*
X239752000Y-90504000D01*
X252492000Y-105744000D02*
X252492000Y-90504000D01*
X252492000Y-105744000D02*
X252492000Y-90504000D01*
X239752000Y-90504000D02*
X252492000Y-90504000D01*
X239752000Y-90504000D02*
X252492000Y-90504000D01*
%TO.C,J2*%
X239572000Y-88422000D02*
X239572000Y-67622000D01*
X252172000Y-88422000D02*
X239572000Y-88422000D01*
X244372000Y-68122000D02*
X249772000Y-68122000D01*
X249772000Y-68122000D02*
X249472000Y-67572000D01*
X251222000Y-68122000D02*
X252172000Y-68122000D01*
X252172000Y-68122000D02*
X252172000Y-88422000D01*
X239572000Y-67622000D02*
X244622000Y-67622000D01*
X244622000Y-67622000D02*
X244372000Y-68122000D01*
X249472000Y-67572000D02*
X251522000Y-67572000D01*
X251522000Y-67572000D02*
X251222000Y-68122000D01*
%TO.C,U1*%
X193145000Y-73792000D02*
X193145000Y-73792000D01*
X193145000Y-73792000D02*
X193145000Y-102992000D01*
X177695000Y-73792000D02*
X193145000Y-73792000D01*
X192569000Y-74122000D02*
X192569000Y-74122000D01*
X192569000Y-74122000D02*
X192569000Y-79456000D01*
X181901000Y-74122000D02*
X192569000Y-74122000D01*
X181901000Y-74122000D02*
X181901000Y-74122000D01*
X189775000Y-74376000D02*
X189775000Y-74376000D01*
X192061000Y-76662000D02*
X189775000Y-76662000D01*
X189775000Y-76662000D02*
X189775000Y-74376000D01*
X192569000Y-79456000D02*
X181901000Y-79456000D01*
X181901000Y-79456000D02*
X181901000Y-74122000D01*
X193145000Y-102992000D02*
X177695000Y-102992000D01*
X177695000Y-102992000D02*
X177695000Y-73792000D01*
%TO.C,C2*%
X197766000Y-120242000D02*
X200506000Y-120242000D01*
X197766000Y-120242000D02*
X197766000Y-115002000D01*
X200506000Y-120242000D02*
X200506000Y-115002000D01*
X197766000Y-115002000D02*
X200506000Y-115002000D01*
%TO.C,J_esp1*%
X224530500Y-106609000D02*
X224530500Y-104199000D01*
X226940500Y-106609000D02*
X224530500Y-106609000D01*
X224830500Y-106309000D02*
X227360500Y-106309000D01*
X227360500Y-106309000D02*
X227360500Y-106179000D01*
X229170500Y-106309000D02*
X230150500Y-106309000D01*
X230150500Y-106309000D02*
X230150500Y-89839000D01*
X227360500Y-106179000D02*
X229170500Y-106179000D01*
X229170500Y-106179000D02*
X229170500Y-106309000D01*
X230150500Y-89839000D02*
X231650500Y-89839000D01*
X231650500Y-89839000D02*
X231650500Y-81999000D01*
X230150500Y-81999000D02*
X230150500Y-65529000D01*
X231650500Y-81999000D02*
X230150500Y-81999000D01*
X227360500Y-65659000D02*
X227360500Y-65529000D01*
X229170500Y-65659000D02*
X227360500Y-65659000D01*
X224830500Y-65529000D02*
X224830500Y-106309000D01*
X227360500Y-65529000D02*
X224830500Y-65529000D01*
X229170500Y-65529000D02*
X229170500Y-65659000D01*
X230150500Y-65529000D02*
X229170500Y-65529000D01*
%TO.C,J_esp0*%
X205910000Y-65150000D02*
X205910000Y-67560000D01*
X203500000Y-65150000D02*
X205910000Y-65150000D01*
X205610000Y-65450000D02*
X203080000Y-65450000D01*
X203080000Y-65450000D02*
X203080000Y-65580000D01*
X201270000Y-65450000D02*
X200290000Y-65450000D01*
X200290000Y-65450000D02*
X200290000Y-81920000D01*
X203080000Y-65580000D02*
X201270000Y-65580000D01*
X201270000Y-65580000D02*
X201270000Y-65450000D01*
X200290000Y-81920000D02*
X198790000Y-81920000D01*
X198790000Y-81920000D02*
X198790000Y-89760000D01*
X200290000Y-89760000D02*
X200290000Y-106230000D01*
X198790000Y-89760000D02*
X200290000Y-89760000D01*
X203080000Y-106100000D02*
X203080000Y-106230000D01*
X201270000Y-106100000D02*
X203080000Y-106100000D01*
X205610000Y-106230000D02*
X205610000Y-65450000D01*
X203080000Y-106230000D02*
X205610000Y-106230000D01*
X201270000Y-106230000D02*
X201270000Y-106100000D01*
X200290000Y-106230000D02*
X201270000Y-106230000D01*
%TD*%
M02*
