M48
; DRILL file {KiCad 6.0.11+dfsg-1} date Thu 11 May 2023 07:41:12 AM -05
; FORMAT={-:-/ absolute / inch / decimal}
; #@! TF.CreationDate,2023-05-11T07:41:12-05:00
; #@! TF.GenerationSoftware,Kicad,Pcbnew,6.0.11+dfsg-1
; #@! TF.FileFunction,Plated,1,2,PTH
FMAT,2
INCH
; #@! TA.AperFunction,Plated,PTH,ComponentDrill
T1C0.0276
; #@! TA.AperFunction,Plated,PTH,ComponentDrill
T2C0.0394
; #@! TA.AperFunction,Plated,PTH,ComponentDrill
T3C0.0433
; #@! TA.AperFunction,Plated,PTH,ComponentDrill
T4C0.0512
; #@! TA.AperFunction,Plated,PTH,ComponentDrill
T5C0.0520
; #@! TA.AperFunction,Plated,PTH,ComponentDrill
T6C0.0866
; #@! TA.AperFunction,Plated,PTH,ComponentDrill
T7C0.1693
%
G90
G05
T1
X4.8094Y-2.6969
X4.8094Y-2.7969
X5.1705Y-2.7173
X5.1705Y-2.9173
X5.2705Y-2.8173
T2
X4.1949Y-3.2697
X4.6673Y-3.2697
T3
X4.2409Y-2.9315
X4.6409Y-2.9315
T4
X4.1929Y-3.752
X4.4291Y-3.1929
X4.6673Y-3.75
T5
X4.3203Y-4.3189
X4.4189Y-2.226
X4.5171Y-4.3189
X4.6157Y-2.226
X4.8126Y-2.226
X4.9409Y-4.3189
X5.1378Y-4.3189
T6
X5.6976Y-2.189
X5.7055Y-4.437
X6.7717Y-2.189
X6.7795Y-4.437
T7
X3.874Y-2.3189
X3.874Y-4.5079
X7.2402Y-2.3189
X7.2402Y-4.5079
T0
M30
