%TF.GenerationSoftware,KiCad,Pcbnew,6.0.11+dfsg-1*%
%TF.CreationDate,2023-05-11T07:41:09-05:00*%
%TF.ProjectId,lights_control_v2,6c696768-7473-45f6-936f-6e74726f6c5f,rev?*%
%TF.SameCoordinates,Original*%
%TF.FileFunction,Legend,Bot*%
%TF.FilePolarity,Positive*%
%FSLAX46Y46*%
G04 Gerber Fmt 4.6, Leading zero omitted, Abs format (unit mm)*
G04 Created by KiCad (PCBNEW 6.0.11+dfsg-1) date 2023-05-11 07:41:09*
%MOMM*%
%LPD*%
G01*
G04 APERTURE LIST*
%ADD10C,0.200000*%
%ADD11C,0.150000*%
%ADD12C,0.120000*%
G04 APERTURE END LIST*
D10*
X139970000Y-116500000D02*
X176820000Y-116500000D01*
X176820000Y-116500000D02*
X176820000Y-51350000D01*
X176820000Y-51350000D02*
X139970000Y-51350000D01*
X139970000Y-51350000D02*
X139970000Y-116500000D01*
D11*
%TO.C,H4*%
X99161904Y-54602380D02*
X99161904Y-53602380D01*
X99161904Y-54078571D02*
X98590476Y-54078571D01*
X98590476Y-54602380D02*
X98590476Y-53602380D01*
X97685714Y-53935714D02*
X97685714Y-54602380D01*
X97923809Y-53554761D02*
X98161904Y-54269047D01*
X97542857Y-54269047D01*
%TO.C,H6*%
X145481904Y-52852380D02*
X145481904Y-51852380D01*
X145481904Y-52328571D02*
X144910476Y-52328571D01*
X144910476Y-52852380D02*
X144910476Y-51852380D01*
X144005714Y-51852380D02*
X144196190Y-51852380D01*
X144291428Y-51900000D01*
X144339047Y-51947619D01*
X144434285Y-52090476D01*
X144481904Y-52280952D01*
X144481904Y-52661904D01*
X144434285Y-52757142D01*
X144386666Y-52804761D01*
X144291428Y-52852380D01*
X144100952Y-52852380D01*
X144005714Y-52804761D01*
X143958095Y-52757142D01*
X143910476Y-52661904D01*
X143910476Y-52423809D01*
X143958095Y-52328571D01*
X144005714Y-52280952D01*
X144100952Y-52233333D01*
X144291428Y-52233333D01*
X144386666Y-52280952D01*
X144434285Y-52328571D01*
X144481904Y-52423809D01*
%TO.C,Q1*%
X126057619Y-71464761D02*
X126010000Y-71369523D01*
X125914761Y-71274285D01*
X125771904Y-71131428D01*
X125724285Y-71036190D01*
X125724285Y-70940952D01*
X125962380Y-70988571D02*
X125914761Y-70893333D01*
X125819523Y-70798095D01*
X125629047Y-70750476D01*
X125295714Y-70750476D01*
X125105238Y-70798095D01*
X125010000Y-70893333D01*
X124962380Y-70988571D01*
X124962380Y-71179047D01*
X125010000Y-71274285D01*
X125105238Y-71369523D01*
X125295714Y-71417142D01*
X125629047Y-71417142D01*
X125819523Y-71369523D01*
X125914761Y-71274285D01*
X125962380Y-71179047D01*
X125962380Y-70988571D01*
X125962380Y-72369523D02*
X125962380Y-71798095D01*
X125962380Y-72083809D02*
X124962380Y-72083809D01*
X125105238Y-71988571D01*
X125200476Y-71893333D01*
X125248095Y-71798095D01*
%TO.C,H5*%
X172961904Y-109952380D02*
X172961904Y-108952380D01*
X172961904Y-109428571D02*
X172390476Y-109428571D01*
X172390476Y-109952380D02*
X172390476Y-108952380D01*
X171438095Y-108952380D02*
X171914285Y-108952380D01*
X171961904Y-109428571D01*
X171914285Y-109380952D01*
X171819047Y-109333333D01*
X171580952Y-109333333D01*
X171485714Y-109380952D01*
X171438095Y-109428571D01*
X171390476Y-109523809D01*
X171390476Y-109761904D01*
X171438095Y-109857142D01*
X171485714Y-109904761D01*
X171580952Y-109952380D01*
X171819047Y-109952380D01*
X171914285Y-109904761D01*
X171961904Y-109857142D01*
%TO.C,K_LIGHTS1*%
X122152380Y-85557142D02*
X121152380Y-85557142D01*
X122152380Y-86128571D02*
X121580952Y-85700000D01*
X121152380Y-86128571D02*
X121723809Y-85557142D01*
X122247619Y-86319047D02*
X122247619Y-87080952D01*
X122152380Y-87795238D02*
X122152380Y-87319047D01*
X121152380Y-87319047D01*
X122152380Y-88128571D02*
X121152380Y-88128571D01*
X121200000Y-89128571D02*
X121152380Y-89033333D01*
X121152380Y-88890476D01*
X121200000Y-88747619D01*
X121295238Y-88652380D01*
X121390476Y-88604761D01*
X121580952Y-88557142D01*
X121723809Y-88557142D01*
X121914285Y-88604761D01*
X122009523Y-88652380D01*
X122104761Y-88747619D01*
X122152380Y-88890476D01*
X122152380Y-88985714D01*
X122104761Y-89128571D01*
X122057142Y-89176190D01*
X121723809Y-89176190D01*
X121723809Y-88985714D01*
X122152380Y-89604761D02*
X121152380Y-89604761D01*
X121628571Y-89604761D02*
X121628571Y-90176190D01*
X122152380Y-90176190D02*
X121152380Y-90176190D01*
X121152380Y-90509523D02*
X121152380Y-91080952D01*
X122152380Y-90795238D02*
X121152380Y-90795238D01*
X122104761Y-91366666D02*
X122152380Y-91509523D01*
X122152380Y-91747619D01*
X122104761Y-91842857D01*
X122057142Y-91890476D01*
X121961904Y-91938095D01*
X121866666Y-91938095D01*
X121771428Y-91890476D01*
X121723809Y-91842857D01*
X121676190Y-91747619D01*
X121628571Y-91557142D01*
X121580952Y-91461904D01*
X121533333Y-91414285D01*
X121438095Y-91366666D01*
X121342857Y-91366666D01*
X121247619Y-91414285D01*
X121200000Y-91461904D01*
X121152380Y-91557142D01*
X121152380Y-91795238D01*
X121200000Y-91938095D01*
X122152380Y-92890476D02*
X122152380Y-92319047D01*
X122152380Y-92604761D02*
X121152380Y-92604761D01*
X121295238Y-92509523D01*
X121390476Y-92414285D01*
X121438095Y-92319047D01*
%TO.C,H7*%
X172761904Y-52852380D02*
X172761904Y-51852380D01*
X172761904Y-52328571D02*
X172190476Y-52328571D01*
X172190476Y-52852380D02*
X172190476Y-51852380D01*
X171809523Y-51852380D02*
X171142857Y-51852380D01*
X171571428Y-52852380D01*
%TO.C,H2*%
X184661904Y-54602380D02*
X184661904Y-53602380D01*
X184661904Y-54078571D02*
X184090476Y-54078571D01*
X184090476Y-54602380D02*
X184090476Y-53602380D01*
X183661904Y-53697619D02*
X183614285Y-53650000D01*
X183519047Y-53602380D01*
X183280952Y-53602380D01*
X183185714Y-53650000D01*
X183138095Y-53697619D01*
X183090476Y-53792857D01*
X183090476Y-53888095D01*
X183138095Y-54030952D01*
X183709523Y-54602380D01*
X183090476Y-54602380D01*
%TO.C,D1*%
X113538095Y-77382380D02*
X113538095Y-76382380D01*
X113300000Y-76382380D01*
X113157142Y-76430000D01*
X113061904Y-76525238D01*
X113014285Y-76620476D01*
X112966666Y-76810952D01*
X112966666Y-76953809D01*
X113014285Y-77144285D01*
X113061904Y-77239523D01*
X113157142Y-77334761D01*
X113300000Y-77382380D01*
X113538095Y-77382380D01*
X112014285Y-77382380D02*
X112585714Y-77382380D01*
X112300000Y-77382380D02*
X112300000Y-76382380D01*
X112395238Y-76525238D01*
X112490476Y-76620476D01*
X112585714Y-76668095D01*
X107981904Y-77012380D02*
X107981904Y-76012380D01*
X107410476Y-77012380D02*
X107839047Y-76440952D01*
X107410476Y-76012380D02*
X107981904Y-76583809D01*
%TO.C,H3*%
X184661904Y-110202380D02*
X184661904Y-109202380D01*
X184661904Y-109678571D02*
X184090476Y-109678571D01*
X184090476Y-110202380D02*
X184090476Y-109202380D01*
X183709523Y-109202380D02*
X183090476Y-109202380D01*
X183423809Y-109583333D01*
X183280952Y-109583333D01*
X183185714Y-109630952D01*
X183138095Y-109678571D01*
X183090476Y-109773809D01*
X183090476Y-110011904D01*
X183138095Y-110107142D01*
X183185714Y-110154761D01*
X183280952Y-110202380D01*
X183566666Y-110202380D01*
X183661904Y-110154761D01*
X183709523Y-110107142D01*
%TO.C,J_LOAD2*%
X110386428Y-116142380D02*
X110386428Y-116856666D01*
X110434047Y-116999523D01*
X110529285Y-117094761D01*
X110672142Y-117142380D01*
X110767380Y-117142380D01*
X110148333Y-117237619D02*
X109386428Y-117237619D01*
X108672142Y-117142380D02*
X109148333Y-117142380D01*
X109148333Y-116142380D01*
X108148333Y-116142380D02*
X107957857Y-116142380D01*
X107862619Y-116190000D01*
X107767380Y-116285238D01*
X107719761Y-116475714D01*
X107719761Y-116809047D01*
X107767380Y-116999523D01*
X107862619Y-117094761D01*
X107957857Y-117142380D01*
X108148333Y-117142380D01*
X108243571Y-117094761D01*
X108338809Y-116999523D01*
X108386428Y-116809047D01*
X108386428Y-116475714D01*
X108338809Y-116285238D01*
X108243571Y-116190000D01*
X108148333Y-116142380D01*
X107338809Y-116856666D02*
X106862619Y-116856666D01*
X107434047Y-117142380D02*
X107100714Y-116142380D01*
X106767380Y-117142380D01*
X106434047Y-117142380D02*
X106434047Y-116142380D01*
X106195952Y-116142380D01*
X106053095Y-116190000D01*
X105957857Y-116285238D01*
X105910238Y-116380476D01*
X105862619Y-116570952D01*
X105862619Y-116713809D01*
X105910238Y-116904285D01*
X105957857Y-116999523D01*
X106053095Y-117094761D01*
X106195952Y-117142380D01*
X106434047Y-117142380D01*
X105481666Y-116237619D02*
X105434047Y-116190000D01*
X105338809Y-116142380D01*
X105100714Y-116142380D01*
X105005476Y-116190000D01*
X104957857Y-116237619D01*
X104910238Y-116332857D01*
X104910238Y-116428095D01*
X104957857Y-116570952D01*
X105529285Y-117142380D01*
X104910238Y-117142380D01*
%TO.C,H1*%
X99161904Y-110202380D02*
X99161904Y-109202380D01*
X99161904Y-109678571D02*
X98590476Y-109678571D01*
X98590476Y-110202380D02*
X98590476Y-109202380D01*
X97590476Y-110202380D02*
X98161904Y-110202380D01*
X97876190Y-110202380D02*
X97876190Y-109202380D01*
X97971428Y-109345238D01*
X98066666Y-109440476D01*
X98161904Y-109488095D01*
%TO.C,J_LOAD1*%
X126151428Y-116142380D02*
X126151428Y-116856666D01*
X126199047Y-116999523D01*
X126294285Y-117094761D01*
X126437142Y-117142380D01*
X126532380Y-117142380D01*
X125913333Y-117237619D02*
X125151428Y-117237619D01*
X124437142Y-117142380D02*
X124913333Y-117142380D01*
X124913333Y-116142380D01*
X123913333Y-116142380D02*
X123722857Y-116142380D01*
X123627619Y-116190000D01*
X123532380Y-116285238D01*
X123484761Y-116475714D01*
X123484761Y-116809047D01*
X123532380Y-116999523D01*
X123627619Y-117094761D01*
X123722857Y-117142380D01*
X123913333Y-117142380D01*
X124008571Y-117094761D01*
X124103809Y-116999523D01*
X124151428Y-116809047D01*
X124151428Y-116475714D01*
X124103809Y-116285238D01*
X124008571Y-116190000D01*
X123913333Y-116142380D01*
X123103809Y-116856666D02*
X122627619Y-116856666D01*
X123199047Y-117142380D02*
X122865714Y-116142380D01*
X122532380Y-117142380D01*
X122199047Y-117142380D02*
X122199047Y-116142380D01*
X121960952Y-116142380D01*
X121818095Y-116190000D01*
X121722857Y-116285238D01*
X121675238Y-116380476D01*
X121627619Y-116570952D01*
X121627619Y-116713809D01*
X121675238Y-116904285D01*
X121722857Y-116999523D01*
X121818095Y-117094761D01*
X121960952Y-117142380D01*
X122199047Y-117142380D01*
X120675238Y-117142380D02*
X121246666Y-117142380D01*
X120960952Y-117142380D02*
X120960952Y-116142380D01*
X121056190Y-116285238D01*
X121151428Y-116380476D01*
X121246666Y-116428095D01*
%TO.C,R1*%
X120692380Y-69603333D02*
X120216190Y-69270000D01*
X120692380Y-69031904D02*
X119692380Y-69031904D01*
X119692380Y-69412857D01*
X119740000Y-69508095D01*
X119787619Y-69555714D01*
X119882857Y-69603333D01*
X120025714Y-69603333D01*
X120120952Y-69555714D01*
X120168571Y-69508095D01*
X120216190Y-69412857D01*
X120216190Y-69031904D01*
X120692380Y-70555714D02*
X120692380Y-69984285D01*
X120692380Y-70270000D02*
X119692380Y-70270000D01*
X119835238Y-70174761D01*
X119930476Y-70079523D01*
X119978095Y-69984285D01*
%TO.C,H4*%
X145681904Y-109952380D02*
X145681904Y-108952380D01*
X145681904Y-109428571D02*
X145110476Y-109428571D01*
X145110476Y-109952380D02*
X145110476Y-108952380D01*
X144205714Y-109285714D02*
X144205714Y-109952380D01*
X144443809Y-108904761D02*
X144681904Y-109619047D01*
X144062857Y-109619047D01*
D12*
%TO.C,Q1*%
X127555098Y-68562916D02*
X126664144Y-67671961D01*
X127441961Y-66894144D02*
X128332916Y-67785098D01*
X126664144Y-67671961D02*
X127441961Y-66894144D01*
X127555098Y-68562916D02*
G75*
G03*
X128332629Y-67785326I3774902J-2997084D01*
G01*
%TO.C,K_LIGHTS1*%
X106550000Y-87150000D02*
X110750000Y-87150000D01*
X114350000Y-87150000D02*
X118550000Y-87150000D01*
X104700000Y-79700000D02*
X104700000Y-99500000D01*
X114350000Y-85150000D02*
X110750000Y-85150000D01*
X108300000Y-95250000D02*
X110800000Y-95250000D01*
X112550000Y-92050000D02*
X110050000Y-96650000D01*
X114350000Y-89150000D02*
X114350000Y-85150000D01*
X112550000Y-83750000D02*
X116150000Y-83750000D01*
X104700000Y-99500000D02*
X120300000Y-99500000D01*
X116150000Y-90550000D02*
X116150000Y-83750000D01*
X113700000Y-79700000D02*
X120300000Y-79700000D01*
X110750000Y-89150000D02*
X114350000Y-89150000D01*
X104700000Y-79700000D02*
X111300000Y-79700000D01*
X112550000Y-90550000D02*
X112550000Y-92050000D01*
X112550000Y-83750000D02*
X112550000Y-82950000D01*
X120300000Y-99500000D02*
X120300000Y-79700000D01*
X112550000Y-90550000D02*
X116150000Y-90550000D01*
X110750000Y-85150000D02*
X110750000Y-89150000D01*
X114350000Y-89150000D02*
X110750000Y-85150000D01*
X106550000Y-87150000D02*
X106550000Y-84650000D01*
X118550000Y-84650000D02*
X118550000Y-87150000D01*
X116700000Y-95250000D02*
X114250000Y-95250000D01*
%TO.C,D1*%
X110860000Y-75930000D02*
X110860000Y-72990000D01*
X110080000Y-75930000D02*
X110080000Y-72990000D01*
X115520000Y-75930000D02*
X110080000Y-75930000D01*
X115520000Y-72990000D02*
X115520000Y-75930000D01*
X116540000Y-74460000D02*
X115520000Y-74460000D01*
X110080000Y-72990000D02*
X115520000Y-72990000D01*
X110980000Y-75930000D02*
X110980000Y-72990000D01*
X111100000Y-75930000D02*
X111100000Y-72990000D01*
X109060000Y-74460000D02*
X110080000Y-74460000D01*
%TO.C,J_LOAD2*%
X117435000Y-103400000D02*
X117435000Y-104350000D01*
X117935000Y-106050000D02*
X117435000Y-105800000D01*
X117435000Y-104350000D02*
X117935000Y-104100000D01*
X117435000Y-105800000D02*
X117435000Y-111200000D01*
X107085000Y-116000000D02*
X107085000Y-103400000D01*
X107085000Y-103400000D02*
X117435000Y-103400000D01*
X117935000Y-106000000D02*
X117935000Y-106050000D01*
X117935000Y-104100000D02*
X117935000Y-106000000D01*
X117935000Y-116000000D02*
X107085000Y-116000000D01*
X117435000Y-111200000D02*
X117935000Y-110900000D01*
X117935000Y-110900000D02*
X117935000Y-116000000D01*
%TO.C,J_LOAD1*%
X133700000Y-104100000D02*
X133700000Y-106000000D01*
X122850000Y-103400000D02*
X133200000Y-103400000D01*
X133200000Y-105800000D02*
X133200000Y-111200000D01*
X133200000Y-104350000D02*
X133700000Y-104100000D01*
X122850000Y-116000000D02*
X122850000Y-103400000D01*
X133700000Y-110900000D02*
X133700000Y-116000000D01*
X133200000Y-111200000D02*
X133700000Y-110900000D01*
X133700000Y-116000000D02*
X122850000Y-116000000D01*
X133700000Y-106000000D02*
X133700000Y-106050000D01*
X133200000Y-103400000D02*
X133200000Y-104350000D01*
X133700000Y-106050000D02*
X133200000Y-105800000D01*
%TO.C,R1*%
X122160000Y-69420000D02*
X122160000Y-70040000D01*
X123080000Y-68500000D02*
G75*
G03*
X123080000Y-68500000I-920000J0D01*
G01*
%TD*%
M02*
