%TF.GenerationSoftware,KiCad,Pcbnew,6.0.11+dfsg-1*%
%TF.CreationDate,2023-05-08T11:30:48-05:00*%
%TF.ProjectId,lights_control,6c696768-7473-45f6-936f-6e74726f6c2e,rev?*%
%TF.SameCoordinates,Original*%
%TF.FileFunction,Legend,Bot*%
%TF.FilePolarity,Positive*%
%FSLAX46Y46*%
G04 Gerber Fmt 4.6, Leading zero omitted, Abs format (unit mm)*
G04 Created by KiCad (PCBNEW 6.0.11+dfsg-1) date 2023-05-08 11:30:48*
%MOMM*%
%LPD*%
G01*
G04 APERTURE LIST*
%ADD10C,0.200000*%
%ADD11C,0.150000*%
%ADD12C,0.120000*%
G04 APERTURE END LIST*
D10*
X96235810Y-120000000D02*
X133085810Y-120000000D01*
X133085810Y-120000000D02*
X133085810Y-54850000D01*
X133085810Y-54850000D02*
X96235810Y-54850000D01*
X96235810Y-54850000D02*
X96235810Y-120000000D01*
D11*
%TO.C,H3*%
X62047714Y-53052380D02*
X62047714Y-52052380D01*
X62047714Y-52528571D02*
X61476286Y-52528571D01*
X61476286Y-53052380D02*
X61476286Y-52052380D01*
X61095333Y-52052380D02*
X60476286Y-52052380D01*
X60809619Y-52433333D01*
X60666762Y-52433333D01*
X60571524Y-52480952D01*
X60523905Y-52528571D01*
X60476286Y-52623809D01*
X60476286Y-52861904D01*
X60523905Y-52957142D01*
X60571524Y-53004761D01*
X60666762Y-53052380D01*
X60952476Y-53052380D01*
X61047714Y-53004761D01*
X61095333Y-52957142D01*
%TO.C,12V1*%
X81881048Y-107052380D02*
X82452476Y-107052380D01*
X82166762Y-107052380D02*
X82166762Y-106052380D01*
X82262000Y-106195238D01*
X82357238Y-106290476D01*
X82452476Y-106338095D01*
X81500095Y-106147619D02*
X81452476Y-106100000D01*
X81357238Y-106052380D01*
X81119143Y-106052380D01*
X81023905Y-106100000D01*
X80976286Y-106147619D01*
X80928667Y-106242857D01*
X80928667Y-106338095D01*
X80976286Y-106480952D01*
X81547714Y-107052380D01*
X80928667Y-107052380D01*
X80642952Y-106052380D02*
X80309619Y-107052380D01*
X79976286Y-106052380D01*
X79119143Y-107052380D02*
X79690571Y-107052380D01*
X79404857Y-107052380D02*
X79404857Y-106052380D01*
X79500095Y-106195238D01*
X79595333Y-106290476D01*
X79690571Y-106338095D01*
%TO.C,H7*%
X129027714Y-56352380D02*
X129027714Y-55352380D01*
X129027714Y-55828571D02*
X128456286Y-55828571D01*
X128456286Y-56352380D02*
X128456286Y-55352380D01*
X128075333Y-55352380D02*
X127408667Y-55352380D01*
X127837238Y-56352380D01*
%TO.C,Q1*%
X75909798Y-99378619D02*
X76005036Y-99331000D01*
X76100274Y-99235761D01*
X76243131Y-99092904D01*
X76338369Y-99045285D01*
X76433607Y-99045285D01*
X76385988Y-99283380D02*
X76481226Y-99235761D01*
X76576464Y-99140523D01*
X76624083Y-98950047D01*
X76624083Y-98616714D01*
X76576464Y-98426238D01*
X76481226Y-98331000D01*
X76385988Y-98283380D01*
X76195512Y-98283380D01*
X76100274Y-98331000D01*
X76005036Y-98426238D01*
X75957417Y-98616714D01*
X75957417Y-98950047D01*
X76005036Y-99140523D01*
X76100274Y-99235761D01*
X76195512Y-99283380D01*
X76385988Y-99283380D01*
X75005036Y-99283380D02*
X75576464Y-99283380D01*
X75290750Y-99283380D02*
X75290750Y-98283380D01*
X75385988Y-98426238D01*
X75481226Y-98521476D01*
X75576464Y-98569095D01*
%TO.C,H5*%
X129227714Y-113452380D02*
X129227714Y-112452380D01*
X129227714Y-112928571D02*
X128656286Y-112928571D01*
X128656286Y-113452380D02*
X128656286Y-112452380D01*
X127703905Y-112452380D02*
X128180095Y-112452380D01*
X128227714Y-112928571D01*
X128180095Y-112880952D01*
X128084857Y-112833333D01*
X127846762Y-112833333D01*
X127751524Y-112880952D01*
X127703905Y-112928571D01*
X127656286Y-113023809D01*
X127656286Y-113261904D01*
X127703905Y-113357142D01*
X127751524Y-113404761D01*
X127846762Y-113452380D01*
X128084857Y-113452380D01*
X128180095Y-113404761D01*
X128227714Y-113357142D01*
%TO.C,R1*%
X78218190Y-59039583D02*
X77742000Y-58706250D01*
X78218190Y-58468154D02*
X77218190Y-58468154D01*
X77218190Y-58849107D01*
X77265810Y-58944345D01*
X77313429Y-58991964D01*
X77408667Y-59039583D01*
X77551524Y-59039583D01*
X77646762Y-58991964D01*
X77694381Y-58944345D01*
X77742000Y-58849107D01*
X77742000Y-58468154D01*
X78218190Y-59991964D02*
X78218190Y-59420535D01*
X78218190Y-59706250D02*
X77218190Y-59706250D01*
X77361048Y-59611011D01*
X77456286Y-59515773D01*
X77503905Y-59420535D01*
%TO.C,U2*%
X87737714Y-81552380D02*
X87737714Y-82361904D01*
X87690095Y-82457142D01*
X87642476Y-82504761D01*
X87547238Y-82552380D01*
X87356762Y-82552380D01*
X87261524Y-82504761D01*
X87213905Y-82457142D01*
X87166286Y-82361904D01*
X87166286Y-81552380D01*
X86737714Y-81647619D02*
X86690095Y-81600000D01*
X86594857Y-81552380D01*
X86356762Y-81552380D01*
X86261524Y-81600000D01*
X86213905Y-81647619D01*
X86166286Y-81742857D01*
X86166286Y-81838095D01*
X86213905Y-81980952D01*
X86785333Y-82552380D01*
X86166286Y-82552380D01*
%TO.C,H1*%
X62048714Y-123074380D02*
X62048714Y-122074380D01*
X62048714Y-122550571D02*
X61477286Y-122550571D01*
X61477286Y-123074380D02*
X61477286Y-122074380D01*
X60477286Y-123074380D02*
X61048714Y-123074380D01*
X60763000Y-123074380D02*
X60763000Y-122074380D01*
X60858238Y-122217238D01*
X60953476Y-122312476D01*
X61048714Y-122360095D01*
%TO.C,H2*%
X92647714Y-115252380D02*
X92647714Y-114252380D01*
X92647714Y-114728571D02*
X92076286Y-114728571D01*
X92076286Y-115252380D02*
X92076286Y-114252380D01*
X91647714Y-114347619D02*
X91600095Y-114300000D01*
X91504857Y-114252380D01*
X91266762Y-114252380D01*
X91171524Y-114300000D01*
X91123905Y-114347619D01*
X91076286Y-114442857D01*
X91076286Y-114538095D01*
X91123905Y-114680952D01*
X91695333Y-115252380D01*
X91076286Y-115252380D01*
%TO.C,R3*%
X84546226Y-99832380D02*
X84879560Y-99356190D01*
X85117655Y-99832380D02*
X85117655Y-98832380D01*
X84736702Y-98832380D01*
X84641464Y-98880000D01*
X84593845Y-98927619D01*
X84546226Y-99022857D01*
X84546226Y-99165714D01*
X84593845Y-99260952D01*
X84641464Y-99308571D01*
X84736702Y-99356190D01*
X85117655Y-99356190D01*
X84212893Y-98832380D02*
X83593845Y-98832380D01*
X83927179Y-99213333D01*
X83784321Y-99213333D01*
X83689083Y-99260952D01*
X83641464Y-99308571D01*
X83593845Y-99403809D01*
X83593845Y-99641904D01*
X83641464Y-99737142D01*
X83689083Y-99784761D01*
X83784321Y-99832380D01*
X84070036Y-99832380D01*
X84165274Y-99784761D01*
X84212893Y-99737142D01*
%TO.C,H4*%
X101947714Y-113452380D02*
X101947714Y-112452380D01*
X101947714Y-112928571D02*
X101376286Y-112928571D01*
X101376286Y-113452380D02*
X101376286Y-112452380D01*
X100471524Y-112785714D02*
X100471524Y-113452380D01*
X100709619Y-112404761D02*
X100947714Y-113119047D01*
X100328667Y-113119047D01*
%TO.C,U1*%
X82783190Y-60948095D02*
X83592714Y-60948095D01*
X83687952Y-60995714D01*
X83735571Y-61043333D01*
X83783190Y-61138571D01*
X83783190Y-61329047D01*
X83735571Y-61424285D01*
X83687952Y-61471904D01*
X83592714Y-61519523D01*
X82783190Y-61519523D01*
X83783190Y-62519523D02*
X83783190Y-61948095D01*
X83783190Y-62233809D02*
X82783190Y-62233809D01*
X82926048Y-62138571D01*
X83021286Y-62043333D01*
X83068905Y-61948095D01*
%TO.C,R2*%
X82652476Y-69352380D02*
X82985810Y-68876190D01*
X83223905Y-69352380D02*
X83223905Y-68352380D01*
X82842952Y-68352380D01*
X82747714Y-68400000D01*
X82700095Y-68447619D01*
X82652476Y-68542857D01*
X82652476Y-68685714D01*
X82700095Y-68780952D01*
X82747714Y-68828571D01*
X82842952Y-68876190D01*
X83223905Y-68876190D01*
X82271524Y-68447619D02*
X82223905Y-68400000D01*
X82128667Y-68352380D01*
X81890571Y-68352380D01*
X81795333Y-68400000D01*
X81747714Y-68447619D01*
X81700095Y-68542857D01*
X81700095Y-68638095D01*
X81747714Y-68780952D01*
X82319143Y-69352380D01*
X81700095Y-69352380D01*
%TO.C,OUT1*%
X71462000Y-106452380D02*
X71271524Y-106452380D01*
X71176286Y-106500000D01*
X71081048Y-106595238D01*
X71033429Y-106785714D01*
X71033429Y-107119047D01*
X71081048Y-107309523D01*
X71176286Y-107404761D01*
X71271524Y-107452380D01*
X71462000Y-107452380D01*
X71557238Y-107404761D01*
X71652476Y-107309523D01*
X71700095Y-107119047D01*
X71700095Y-106785714D01*
X71652476Y-106595238D01*
X71557238Y-106500000D01*
X71462000Y-106452380D01*
X70604857Y-106452380D02*
X70604857Y-107261904D01*
X70557238Y-107357142D01*
X70509619Y-107404761D01*
X70414381Y-107452380D01*
X70223905Y-107452380D01*
X70128667Y-107404761D01*
X70081048Y-107357142D01*
X70033429Y-107261904D01*
X70033429Y-106452380D01*
X69700095Y-106452380D02*
X69128667Y-106452380D01*
X69414381Y-107452380D02*
X69414381Y-106452380D01*
X68271524Y-107452380D02*
X68842952Y-107452380D01*
X68557238Y-107452380D02*
X68557238Y-106452380D01*
X68652476Y-106595238D01*
X68747714Y-106690476D01*
X68842952Y-106738095D01*
%TO.C,12V2*%
X71881048Y-53552380D02*
X72452476Y-53552380D01*
X72166762Y-53552380D02*
X72166762Y-52552380D01*
X72262000Y-52695238D01*
X72357238Y-52790476D01*
X72452476Y-52838095D01*
X71500095Y-52647619D02*
X71452476Y-52600000D01*
X71357238Y-52552380D01*
X71119143Y-52552380D01*
X71023905Y-52600000D01*
X70976286Y-52647619D01*
X70928667Y-52742857D01*
X70928667Y-52838095D01*
X70976286Y-52980952D01*
X71547714Y-53552380D01*
X70928667Y-53552380D01*
X70642952Y-52552380D02*
X70309619Y-53552380D01*
X69976286Y-52552380D01*
X69690571Y-52647619D02*
X69642952Y-52600000D01*
X69547714Y-52552380D01*
X69309619Y-52552380D01*
X69214381Y-52600000D01*
X69166762Y-52647619D01*
X69119143Y-52742857D01*
X69119143Y-52838095D01*
X69166762Y-52980952D01*
X69738190Y-53552380D01*
X69119143Y-53552380D01*
%TO.C,H6*%
X101747714Y-56352380D02*
X101747714Y-55352380D01*
X101747714Y-55828571D02*
X101176286Y-55828571D01*
X101176286Y-56352380D02*
X101176286Y-55352380D01*
X100271524Y-55352380D02*
X100462000Y-55352380D01*
X100557238Y-55400000D01*
X100604857Y-55447619D01*
X100700095Y-55590476D01*
X100747714Y-55780952D01*
X100747714Y-56161904D01*
X100700095Y-56257142D01*
X100652476Y-56304761D01*
X100557238Y-56352380D01*
X100366762Y-56352380D01*
X100271524Y-56304761D01*
X100223905Y-56257142D01*
X100176286Y-56161904D01*
X100176286Y-55923809D01*
X100223905Y-55828571D01*
X100271524Y-55780952D01*
X100366762Y-55733333D01*
X100557238Y-55733333D01*
X100652476Y-55780952D01*
X100700095Y-55828571D01*
X100747714Y-55923809D01*
D12*
%TO.C,12V1*%
X86563310Y-120612500D02*
X76323310Y-120612500D01*
X86563310Y-107872500D02*
X86563310Y-120612500D01*
X86563310Y-120612500D02*
X76323310Y-120612500D01*
X86563310Y-107872500D02*
X86563310Y-120612500D01*
X86943310Y-107492500D02*
X83943310Y-107492500D01*
X86563310Y-107872500D02*
X76323310Y-107872500D01*
X76323310Y-107872500D02*
X76323310Y-120612500D01*
X86943310Y-110492500D02*
X86943310Y-107492500D01*
X76323310Y-107872500D02*
X76323310Y-120612500D01*
X86563310Y-107872500D02*
X76323310Y-107872500D01*
%TO.C,Q1*%
X70821560Y-98030000D02*
X70821560Y-102671000D01*
X81061560Y-99540000D02*
X70821560Y-99540000D01*
X81061560Y-98030000D02*
X81061560Y-102671000D01*
X81061560Y-102671000D02*
X70821560Y-102671000D01*
X81061560Y-98030000D02*
X70821560Y-98030000D01*
X74090560Y-98030000D02*
X74090560Y-99540000D01*
X77791560Y-98030000D02*
X77791560Y-99540000D01*
%TO.C,R1*%
X79685810Y-58856250D02*
X79685810Y-59476250D01*
X80605810Y-57936250D02*
G75*
G03*
X80605810Y-57936250I-920000J0D01*
G01*
%TO.C,U2*%
X89625810Y-91045000D02*
X84325810Y-91045000D01*
X87975810Y-73145000D02*
X89625810Y-73145000D01*
X89625810Y-73145000D02*
X89625810Y-91045000D01*
X84325810Y-91045000D02*
X84325810Y-73145000D01*
X84325810Y-73145000D02*
X85975810Y-73145000D01*
X85975810Y-73145000D02*
G75*
G03*
X87975810Y-73145000I1000000J0D01*
G01*
%TO.C,R3*%
X84729560Y-101300000D02*
X84109560Y-101300000D01*
X86569560Y-101300000D02*
G75*
G03*
X86569560Y-101300000I-920000J0D01*
G01*
%TO.C,U1*%
X92070810Y-59060000D02*
X92070810Y-64360000D01*
X84330810Y-60710000D02*
X84330810Y-59060000D01*
X84330810Y-59060000D02*
X92070810Y-59060000D01*
X92070810Y-64360000D02*
X84330810Y-64360000D01*
X84330810Y-64360000D02*
X84330810Y-62710000D01*
X84330810Y-62710000D02*
G75*
G03*
X84330810Y-60710000I0J1000000D01*
G01*
%TO.C,R2*%
X87285810Y-68800000D02*
X86665810Y-68800000D01*
X89125810Y-68800000D02*
G75*
G03*
X89125810Y-68800000I-920000J0D01*
G01*
%TO.C,OUT1*%
X65208310Y-120527500D02*
X75448310Y-120527500D01*
X65208310Y-120527500D02*
X65208310Y-107787500D01*
X75448310Y-120527500D02*
X75448310Y-107787500D01*
X64828310Y-120907500D02*
X67828310Y-120907500D01*
X65208310Y-120527500D02*
X75448310Y-120527500D01*
X65208310Y-107787500D02*
X75448310Y-107787500D01*
X65208310Y-107787500D02*
X75448310Y-107787500D01*
X75448310Y-120527500D02*
X75448310Y-107787500D01*
X64828310Y-117907500D02*
X64828310Y-120907500D01*
X65208310Y-120527500D02*
X65208310Y-107787500D01*
%TO.C,12V2*%
X65565810Y-66620000D02*
X65565810Y-53880000D01*
X75805810Y-66620000D02*
X75805810Y-53880000D01*
X65565810Y-53880000D02*
X75805810Y-53880000D01*
X65565810Y-66620000D02*
X75805810Y-66620000D01*
X65565810Y-53880000D02*
X75805810Y-53880000D01*
X75805810Y-66620000D02*
X75805810Y-53880000D01*
X65185810Y-64000000D02*
X65185810Y-67000000D01*
X65565810Y-66620000D02*
X65565810Y-53880000D01*
X65185810Y-67000000D02*
X68185810Y-67000000D01*
X65565810Y-66620000D02*
X75805810Y-66620000D01*
%TD*%
M02*
