%TF.GenerationSoftware,KiCad,Pcbnew,6.0.11+dfsg-1*%
%TF.CreationDate,2023-05-08T11:30:48-05:00*%
%TF.ProjectId,lights_control,6c696768-7473-45f6-936f-6e74726f6c2e,rev?*%
%TF.SameCoordinates,Original*%
%TF.FileFunction,Soldermask,Bot*%
%TF.FilePolarity,Negative*%
%FSLAX46Y46*%
G04 Gerber Fmt 4.6, Leading zero omitted, Abs format (unit mm)*
G04 Created by KiCad (PCBNEW 6.0.11+dfsg-1) date 2023-05-08 11:30:48*
%MOMM*%
%LPD*%
G01*
G04 APERTURE LIST*
%ADD10C,4.400000*%
%ADD11R,3.000000X3.500000*%
%ADD12O,3.500000X4.000000*%
%ADD13R,2.125000X3.000000*%
%ADD14O,2.125000X3.000000*%
%ADD15O,2.500000X2.125000*%
%ADD16R,3.000000X2.125000*%
%ADD17O,3.000000X2.125000*%
%ADD18O,2.125000X2.500000*%
%ADD19R,2.125000X2.800000*%
%ADD20O,2.125000X2.800000*%
%ADD21C,2.125000*%
%ADD22O,2.125000X2.125000*%
%ADD23R,3.000000X5.000000*%
%ADD24O,3.000000X5.000000*%
G04 APERTURE END LIST*
D10*
%TO.C,H3*%
X61285810Y-55800000D03*
%TD*%
D11*
%TO.C,12V1*%
X83943310Y-113992500D03*
D12*
X78943310Y-113992500D03*
%TD*%
D10*
%TO.C,H7*%
X128265810Y-59100000D03*
%TD*%
D13*
%TO.C,Q1*%
X78481560Y-101300000D03*
D14*
X75941560Y-101300000D03*
X73401560Y-101300000D03*
%TD*%
D10*
%TO.C,H5*%
X128465810Y-116200000D03*
%TD*%
D15*
%TO.C,R1*%
X79685810Y-57936250D03*
X79685810Y-60476250D03*
%TD*%
D16*
%TO.C,U2*%
X90785810Y-74475000D03*
D17*
X90785810Y-77015000D03*
X90785810Y-79555000D03*
X90785810Y-82095000D03*
X90785810Y-84635000D03*
X90785810Y-87175000D03*
X90785810Y-89715000D03*
X83165810Y-89715000D03*
X83165810Y-87175000D03*
X83165810Y-84635000D03*
X83165810Y-82095000D03*
X83165810Y-79555000D03*
X83165810Y-77015000D03*
X83165810Y-74475000D03*
%TD*%
D10*
%TO.C,H1*%
X61285810Y-118000000D03*
%TD*%
%TO.C,H2*%
X91885810Y-118000000D03*
%TD*%
D18*
%TO.C,R3*%
X85649560Y-101300000D03*
X83109560Y-101300000D03*
%TD*%
D10*
%TO.C,H4*%
X101185810Y-116200000D03*
%TD*%
D19*
%TO.C,U1*%
X85660810Y-57900000D03*
D20*
X88200810Y-57900000D03*
X90740810Y-57900000D03*
X90740810Y-65520000D03*
X88200810Y-65520000D03*
X85660810Y-65520000D03*
%TD*%
D21*
%TO.C,R2*%
X88205810Y-68800000D03*
D22*
X85665810Y-68800000D03*
%TD*%
D11*
%TO.C,OUT1*%
X67828310Y-114407500D03*
D12*
X72828310Y-114407500D03*
%TD*%
D23*
%TO.C,12V2*%
X68185810Y-60500000D03*
D24*
X73185810Y-60500000D03*
%TD*%
D10*
%TO.C,H6*%
X100985810Y-59100000D03*
%TD*%
M02*
