%TF.GenerationSoftware,KiCad,Pcbnew,6.0.11+dfsg-1*%
%TF.CreationDate,2023-03-21T19:32:47-05:00*%
%TF.ProjectId,water_tank_module,77617465-725f-4746-916e-6b5f6d6f6475,rev?*%
%TF.SameCoordinates,Original*%
%TF.FileFunction,Copper,L1,Top*%
%TF.FilePolarity,Positive*%
%FSLAX46Y46*%
G04 Gerber Fmt 4.6, Leading zero omitted, Abs format (unit mm)*
G04 Created by KiCad (PCBNEW 6.0.11+dfsg-1) date 2023-03-21 19:32:47*
%MOMM*%
%LPD*%
G01*
G04 APERTURE LIST*
G04 Aperture macros list*
%AMRoundRect*
0 Rectangle with rounded corners*
0 $1 Rounding radius*
0 $2 $3 $4 $5 $6 $7 $8 $9 X,Y pos of 4 corners*
0 Add a 4 corners polygon primitive as box body*
4,1,4,$2,$3,$4,$5,$6,$7,$8,$9,$2,$3,0*
0 Add four circle primitives for the rounded corners*
1,1,$1+$1,$2,$3*
1,1,$1+$1,$4,$5*
1,1,$1+$1,$6,$7*
1,1,$1+$1,$8,$9*
0 Add four rect primitives between the rounded corners*
20,1,$1+$1,$2,$3,$4,$5,0*
20,1,$1+$1,$4,$5,$6,$7,0*
20,1,$1+$1,$6,$7,$8,$9,0*
20,1,$1+$1,$8,$9,$2,$3,0*%
G04 Aperture macros list end*
%TA.AperFunction,NonConductor*%
%ADD10C,0.200000*%
%TD*%
%ADD11C,0.300000*%
%TA.AperFunction,NonConductor*%
%ADD12C,0.300000*%
%TD*%
%TA.AperFunction,ComponentPad*%
%ADD13C,5.400000*%
%TD*%
%TA.AperFunction,ComponentPad*%
%ADD14RoundRect,0.250000X-0.600000X-1.250000X0.600000X-1.250000X0.600000X1.250000X-0.600000X1.250000X0*%
%TD*%
%TA.AperFunction,ComponentPad*%
%ADD15O,1.700000X3.000000*%
%TD*%
%TA.AperFunction,ComponentPad*%
%ADD16RoundRect,0.286765X-1.213235X0.688235X-1.213235X-0.688235X1.213235X-0.688235X1.213235X0.688235X0*%
%TD*%
%TA.AperFunction,ComponentPad*%
%ADD17O,3.000000X1.950000*%
%TD*%
%TA.AperFunction,ComponentPad*%
%ADD18R,2.000000X2.000000*%
%TD*%
%TA.AperFunction,ComponentPad*%
%ADD19C,1.700000*%
%TD*%
%TA.AperFunction,ComponentPad*%
%ADD20R,1.800000X1.800000*%
%TD*%
%TA.AperFunction,ComponentPad*%
%ADD21C,1.900000*%
%TD*%
%TA.AperFunction,ComponentPad*%
%ADD22RoundRect,0.250000X-1.020000X0.620000X-1.020000X-0.620000X1.020000X-0.620000X1.020000X0.620000X0*%
%TD*%
%TA.AperFunction,ComponentPad*%
%ADD23R,2.540000X1.740000*%
%TD*%
%TA.AperFunction,ComponentPad*%
%ADD24R,3.000000X3.960000*%
%TD*%
%TA.AperFunction,ComponentPad*%
%ADD25O,3.000000X3.960000*%
%TD*%
%TA.AperFunction,ComponentPad*%
%ADD26C,2.000000*%
%TD*%
%TA.AperFunction,ComponentPad*%
%ADD27O,2.000000X2.000000*%
%TD*%
%TA.AperFunction,ComponentPad*%
%ADD28RoundRect,0.250000X1.020000X-0.620000X1.020000X0.620000X-1.020000X0.620000X-1.020000X-0.620000X0*%
%TD*%
%TA.AperFunction,ViaPad*%
%ADD29C,1.250000*%
%TD*%
%TA.AperFunction,ViaPad*%
%ADD30C,1.500000*%
%TD*%
%TA.AperFunction,Conductor*%
%ADD31C,1.250000*%
%TD*%
G04 APERTURE END LIST*
D10*
X134060000Y-21300000D02*
X57800000Y-21300000D01*
X57800000Y-21300000D02*
X57800000Y-86535000D01*
X57800000Y-86535000D02*
X134060000Y-86535000D01*
X134060000Y-86535000D02*
X134060000Y-21300000D01*
D11*
D12*
X65521200Y-22719600D02*
X65378342Y-22648171D01*
X65164057Y-22648171D01*
X64949771Y-22719600D01*
X64806914Y-22862457D01*
X64735485Y-23005314D01*
X64664057Y-23291028D01*
X64664057Y-23505314D01*
X64735485Y-23791028D01*
X64806914Y-23933885D01*
X64949771Y-24076742D01*
X65164057Y-24148171D01*
X65306914Y-24148171D01*
X65521200Y-24076742D01*
X65592628Y-24005314D01*
X65592628Y-23505314D01*
X65306914Y-23505314D01*
X66235485Y-24148171D02*
X66235485Y-22648171D01*
X67092628Y-24148171D01*
X67092628Y-22648171D01*
X67806914Y-24148171D02*
X67806914Y-22648171D01*
X68164057Y-22648171D01*
X68378342Y-22719600D01*
X68521200Y-22862457D01*
X68592628Y-23005314D01*
X68664057Y-23291028D01*
X68664057Y-23505314D01*
X68592628Y-23791028D01*
X68521200Y-23933885D01*
X68378342Y-24076742D01*
X68164057Y-24148171D01*
X67806914Y-24148171D01*
X70021200Y-22648171D02*
X69306914Y-22648171D01*
X69235485Y-23362457D01*
X69306914Y-23291028D01*
X69449771Y-23219600D01*
X69806914Y-23219600D01*
X69949771Y-23291028D01*
X70021200Y-23362457D01*
X70092628Y-23505314D01*
X70092628Y-23862457D01*
X70021200Y-24005314D01*
X69949771Y-24076742D01*
X69806914Y-24148171D01*
X69449771Y-24148171D01*
X69306914Y-24076742D01*
X69235485Y-24005314D01*
X70521200Y-22648171D02*
X71021200Y-24148171D01*
X71521200Y-22648171D01*
D11*
D12*
X74764914Y-22800571D02*
X74050628Y-22800571D01*
X73979200Y-23514857D01*
X74050628Y-23443428D01*
X74193485Y-23372000D01*
X74550628Y-23372000D01*
X74693485Y-23443428D01*
X74764914Y-23514857D01*
X74836342Y-23657714D01*
X74836342Y-24014857D01*
X74764914Y-24157714D01*
X74693485Y-24229142D01*
X74550628Y-24300571D01*
X74193485Y-24300571D01*
X74050628Y-24229142D01*
X73979200Y-24157714D01*
X75264914Y-22800571D02*
X75764914Y-24300571D01*
X76264914Y-22800571D01*
X76764914Y-23729142D02*
X77907771Y-23729142D01*
X77336342Y-24300571D02*
X77336342Y-23157714D01*
D11*
D12*
X123646428Y-73576571D02*
X123146428Y-72862285D01*
X122789285Y-73576571D02*
X122789285Y-72076571D01*
X123360714Y-72076571D01*
X123503571Y-72148000D01*
X123575000Y-72219428D01*
X123646428Y-72362285D01*
X123646428Y-72576571D01*
X123575000Y-72719428D01*
X123503571Y-72790857D01*
X123360714Y-72862285D01*
X122789285Y-72862285D01*
X124789285Y-72790857D02*
X124289285Y-72790857D01*
X124289285Y-73576571D02*
X124289285Y-72076571D01*
X125003571Y-72076571D01*
D11*
D12*
X121060133Y-34650071D02*
X121247633Y-33150071D01*
X121613705Y-34221500D01*
X122247633Y-33150071D01*
X122060133Y-34650071D01*
X123417276Y-34650071D02*
X123515491Y-33864357D01*
X123461919Y-33721500D01*
X123327991Y-33650071D01*
X123042276Y-33650071D01*
X122890491Y-33721500D01*
X123426205Y-34578642D02*
X123274419Y-34650071D01*
X122917276Y-34650071D01*
X122783348Y-34578642D01*
X122729776Y-34435785D01*
X122747633Y-34292928D01*
X122836919Y-34150071D01*
X122988705Y-34078642D01*
X123345848Y-34078642D01*
X123497633Y-34007214D01*
X124042276Y-33650071D02*
X124613705Y-33650071D01*
X124319062Y-33150071D02*
X124158348Y-34435785D01*
X124211919Y-34578642D01*
X124345848Y-34650071D01*
X124488705Y-34650071D01*
X124988705Y-34650071D02*
X125113705Y-33650071D01*
X125176205Y-33150071D02*
X125095848Y-33221500D01*
X125158348Y-33292928D01*
X125238705Y-33221500D01*
X125176205Y-33150071D01*
X125158348Y-33292928D01*
X126354776Y-34578642D02*
X126202991Y-34650071D01*
X125917276Y-34650071D01*
X125783348Y-34578642D01*
X125720848Y-34507214D01*
X125667276Y-34364357D01*
X125720848Y-33935785D01*
X125810133Y-33792928D01*
X125890491Y-33721500D01*
X126042276Y-33650071D01*
X126327991Y-33650071D01*
X126461919Y-33721500D01*
X127631562Y-34650071D02*
X127729776Y-33864357D01*
X127676205Y-33721500D01*
X127542276Y-33650071D01*
X127256562Y-33650071D01*
X127104776Y-33721500D01*
X127640491Y-34578642D02*
X127488705Y-34650071D01*
X127131562Y-34650071D01*
X126997633Y-34578642D01*
X126944062Y-34435785D01*
X126961919Y-34292928D01*
X127051205Y-34150071D01*
X127202991Y-34078642D01*
X127560133Y-34078642D01*
X127711919Y-34007214D01*
X128283348Y-34578642D02*
X128417276Y-34650071D01*
X128702991Y-34650071D01*
X128854776Y-34578642D01*
X128944062Y-34435785D01*
X128952991Y-34364357D01*
X128899419Y-34221500D01*
X128765491Y-34150071D01*
X128551205Y-34150071D01*
X128417276Y-34078642D01*
X128363705Y-33935785D01*
X128372633Y-33864357D01*
X128461919Y-33721500D01*
X128613705Y-33650071D01*
X128827991Y-33650071D01*
X128961919Y-33721500D01*
X119515491Y-36279357D02*
X120015491Y-36279357D01*
X120131562Y-37065071D02*
X119417276Y-37065071D01*
X119604776Y-35565071D01*
X120319062Y-35565071D01*
X120711919Y-36993642D02*
X120917276Y-37065071D01*
X121274419Y-37065071D01*
X121426205Y-36993642D01*
X121506562Y-36922214D01*
X121595848Y-36779357D01*
X121613705Y-36636500D01*
X121560133Y-36493642D01*
X121497633Y-36422214D01*
X121363705Y-36350785D01*
X121086919Y-36279357D01*
X120952991Y-36207928D01*
X120890491Y-36136500D01*
X120836919Y-35993642D01*
X120854776Y-35850785D01*
X120944062Y-35707928D01*
X121024419Y-35636500D01*
X121176205Y-35565071D01*
X121533348Y-35565071D01*
X121738705Y-35636500D01*
X122202991Y-37065071D02*
X122390491Y-35565071D01*
X122961919Y-35565071D01*
X123095848Y-35636500D01*
X123158348Y-35707928D01*
X123211919Y-35850785D01*
X123185133Y-36065071D01*
X123095848Y-36207928D01*
X123015491Y-36279357D01*
X122863705Y-36350785D01*
X122292276Y-36350785D01*
X123747633Y-35565071D02*
X124676205Y-35565071D01*
X124104776Y-36136500D01*
X124319062Y-36136500D01*
X124452991Y-36207928D01*
X124515491Y-36279357D01*
X124569062Y-36422214D01*
X124524419Y-36779357D01*
X124435133Y-36922214D01*
X124354776Y-36993642D01*
X124202991Y-37065071D01*
X123774419Y-37065071D01*
X123640491Y-36993642D01*
X123577991Y-36922214D01*
X125229776Y-35707928D02*
X125310133Y-35636500D01*
X125461919Y-35565071D01*
X125819062Y-35565071D01*
X125952991Y-35636500D01*
X126015491Y-35707928D01*
X126069062Y-35850785D01*
X126051205Y-35993642D01*
X125952991Y-36207928D01*
X124988705Y-37065071D01*
X125917276Y-37065071D01*
X126631562Y-36493642D02*
X127774419Y-36493642D01*
X129274419Y-37065071D02*
X128863705Y-36350785D01*
X128417276Y-37065071D02*
X128604776Y-35565071D01*
X129176205Y-35565071D01*
X129310133Y-35636500D01*
X129372633Y-35707928D01*
X129426205Y-35850785D01*
X129399419Y-36065071D01*
X129310133Y-36207928D01*
X129229776Y-36279357D01*
X129077991Y-36350785D01*
X128506562Y-36350785D01*
X130515491Y-36279357D02*
X130015491Y-36279357D01*
X129917276Y-37065071D02*
X130104776Y-35565071D01*
X130819062Y-35565071D01*
D13*
%TO.P,H4,1*%
%TO.N,N/C*%
X61569600Y-28905200D03*
%TD*%
D14*
%TO.P,J2,1,Pin_1*%
%TO.N,D26*%
X89555000Y-78948000D03*
D15*
%TO.P,J2,2,Pin_2*%
%TO.N,GND5V*%
X92055000Y-78948000D03*
%TD*%
D14*
%TO.P,J1,1,Pin_1*%
%TO.N,D25*%
X100791000Y-78913000D03*
D15*
%TO.P,J1,2,Pin_2*%
%TO.N,D32*%
X103291000Y-78913000D03*
%TO.P,J1,3,Pin_3*%
%TO.N,D33*%
X105791000Y-78913000D03*
%TO.P,J1,4,Pin_4*%
%TO.N,D34*%
X108291000Y-78913000D03*
%TO.P,J1,5,Pin_5*%
%TO.N,GND5V*%
X110791000Y-78913000D03*
%TD*%
D13*
%TO.P,H2,1*%
%TO.N,N/C*%
X61569600Y-81991200D03*
%TD*%
D16*
%TO.P,J_EC1,1,Pin_1*%
%TO.N,GND5V*%
X64888000Y-54949750D03*
D17*
%TO.P,J_EC1,2,Pin_2*%
%TO.N,5v*%
X64888000Y-57449750D03*
%TO.P,J_EC1,3,Pin_3*%
%TO.N,D34*%
X64888000Y-59949750D03*
%TD*%
D18*
%TO.P,U4,1,GND*%
%TO.N,GND5V*%
X129323000Y-46944000D03*
%TO.P,U4,2,VCC*%
%TO.N,5v*%
X129323000Y-49484000D03*
%TO.P,U4,3,CE*%
%TO.N,D4*%
X126783000Y-46944000D03*
%TO.P,U4,4,~{CSN}*%
%TO.N,D5*%
X126783000Y-49484000D03*
%TO.P,U4,5,SCK*%
%TO.N,D18*%
X124243000Y-46944000D03*
%TO.P,U4,6,MOSI*%
%TO.N,D23*%
X124243000Y-49484000D03*
%TO.P,U4,7,MISO*%
%TO.N,D19*%
X121703000Y-46944000D03*
D19*
%TO.P,U4,8,IRQ*%
%TO.N,unconnected-(U4-Pad8)*%
X121703000Y-49484000D03*
%TD*%
D20*
%TO.P,C1,1*%
%TO.N,5v*%
X73071113Y-39486250D03*
D21*
%TO.P,C1,2*%
%TO.N,GND5V*%
X70571113Y-39486250D03*
%TD*%
D16*
%TO.P,J_DS18,1,Pin_1*%
%TO.N,GND5V*%
X64888000Y-67149750D03*
D17*
%TO.P,J_DS18,2,Pin_2*%
%TO.N,5v*%
X64888000Y-69649750D03*
%TO.P,J_DS18,3,Pin_3*%
%TO.N,D35*%
X64888000Y-72149750D03*
%TD*%
D13*
%TO.P,H3,1*%
%TO.N,N/C*%
X129590800Y-28702000D03*
%TD*%
D22*
%TO.P,J_esp0,1,Pin_1*%
%TO.N,EN*%
X85195000Y-27305000D03*
D23*
%TO.P,J_esp0,2,Pin_2*%
%TO.N,VP*%
X85195000Y-29845000D03*
%TO.P,J_esp0,3,Pin_3*%
%TO.N,VN*%
X85195000Y-32385000D03*
%TO.P,J_esp0,4,Pin_4*%
%TO.N,D34*%
X85195000Y-34925000D03*
%TO.P,J_esp0,5,Pin_5*%
%TO.N,D35*%
X85195000Y-37465000D03*
%TO.P,J_esp0,6,Pin_6*%
%TO.N,D32*%
X85195000Y-40005000D03*
%TO.P,J_esp0,7,Pin_7*%
%TO.N,D33*%
X85195000Y-42545000D03*
%TO.P,J_esp0,8,Pin_8*%
%TO.N,D25*%
X85195000Y-45085000D03*
%TO.P,J_esp0,9,Pin_9*%
%TO.N,D26*%
X85195000Y-47625000D03*
%TO.P,J_esp0,10,Pin_10*%
%TO.N,D27*%
X85195000Y-50165000D03*
%TO.P,J_esp0,11,Pin_11*%
%TO.N,D14*%
X85195000Y-52705000D03*
%TO.P,J_esp0,12,Pin_12*%
%TO.N,D12*%
X85195000Y-55245000D03*
%TO.P,J_esp0,13,Pin_13*%
%TO.N,D13*%
X85195000Y-57785000D03*
%TO.P,J_esp0,14,Pin_14*%
%TO.N,GND5V*%
X85195000Y-60325000D03*
%TO.P,J_esp0,15,Pin_15*%
%TO.N,5v*%
X85195000Y-62865000D03*
%TD*%
D24*
%TO.P,5V1,1,Pin_1*%
%TO.N,5v*%
X74453000Y-30590250D03*
D25*
%TO.P,5V1,2,Pin_2*%
%TO.N,GND5V*%
X69453000Y-30590250D03*
%TD*%
D13*
%TO.P,H1,1*%
%TO.N,N/C*%
X129590800Y-81788000D03*
%TD*%
D26*
%TO.P,R11,1*%
%TO.N,5v*%
X69088000Y-69749750D03*
D27*
%TO.P,R11,2*%
%TO.N,D35*%
X69088000Y-72289750D03*
%TD*%
D28*
%TO.P,J_esp1,1,Pin_1*%
%TO.N,3V3*%
X109735500Y-62944000D03*
D23*
%TO.P,J_esp1,2,Pin_2*%
%TO.N,GND2*%
X109735500Y-60404000D03*
%TO.P,J_esp1,3,Pin_3*%
%TO.N,D15*%
X109735500Y-57864000D03*
%TO.P,J_esp1,4,Pin_4*%
%TO.N,D2*%
X109735500Y-55324000D03*
%TO.P,J_esp1,5,Pin_5*%
%TO.N,D4*%
X109735500Y-52784000D03*
%TO.P,J_esp1,6,Pin_6*%
%TO.N,RX2*%
X109735500Y-50244000D03*
%TO.P,J_esp1,7,Pin_7*%
%TO.N,TX2*%
X109735500Y-47704000D03*
%TO.P,J_esp1,8,Pin_8*%
%TO.N,D5*%
X109735500Y-45164000D03*
%TO.P,J_esp1,9,Pin_9*%
%TO.N,D18*%
X109735500Y-42624000D03*
%TO.P,J_esp1,10,Pin_10*%
%TO.N,D19*%
X109735500Y-40084000D03*
%TO.P,J_esp1,11,Pin_11*%
%TO.N,D21*%
X109735500Y-37544000D03*
%TO.P,J_esp1,12,Pin_12*%
%TO.N,RX0*%
X109735500Y-35004000D03*
%TO.P,J_esp1,13,Pin_13*%
%TO.N,TX0*%
X109735500Y-32464000D03*
%TO.P,J_esp1,14,Pin_14*%
%TO.N,D22*%
X109735500Y-29924000D03*
%TO.P,J_esp1,15,Pin_15*%
%TO.N,D23*%
X109735500Y-27384000D03*
%TD*%
D29*
%TO.N,D33*%
X89204800Y-42621200D03*
X105791000Y-74930000D03*
%TO.N,D18*%
X122428000Y-42672000D03*
%TO.N,D23*%
X124243000Y-51779000D03*
X106680000Y-27432000D03*
D30*
%TO.N,GND5V*%
X67945000Y-55118000D03*
X70612000Y-42799000D03*
X110515400Y-82702400D03*
X130937000Y-40640000D03*
X79756000Y-60325000D03*
X68199000Y-67183000D03*
X92075000Y-82677000D03*
%TD*%
D31*
%TO.N,D33*%
X89204800Y-42621200D02*
X92151200Y-42621200D01*
X99695000Y-68834000D02*
X105791000Y-74930000D01*
X92151200Y-42621200D02*
X99695000Y-50165000D01*
X99695000Y-50165000D02*
X99695000Y-68834000D01*
%TO.N,GND5V*%
X115951000Y-80264000D02*
X115951000Y-70612000D01*
X110515400Y-82702400D02*
X113512600Y-82702400D01*
X113512600Y-82702400D02*
X115951000Y-80264000D01*
X115951000Y-70612000D02*
X132715000Y-53848000D01*
X132715000Y-53848000D02*
X132715000Y-42164000D01*
X131191000Y-40640000D02*
X130937000Y-40640000D01*
X132715000Y-42164000D02*
X131191000Y-40640000D01*
X110515400Y-82702400D02*
X110490000Y-82677000D01*
X110490000Y-82677000D02*
X92075000Y-82677000D01*
%TO.N,D35*%
X65028000Y-72289750D02*
X64888000Y-72149750D01*
%TO.N,D26*%
X89408000Y-78801000D02*
X89555000Y-78948000D01*
%TO.N,D18*%
X122380000Y-42624000D02*
X109735500Y-42624000D01*
X122428000Y-42672000D02*
X122380000Y-42624000D01*
%TO.N,D19*%
X121703000Y-46944000D02*
X121703000Y-46900000D01*
%TO.N,D23*%
X103378000Y-66421000D02*
X108077000Y-71120000D01*
X103378000Y-30734000D02*
X103378000Y-66421000D01*
X110363000Y-71120000D02*
X124243000Y-57240000D01*
X106680000Y-27432000D02*
X103378000Y-30734000D01*
X124243000Y-57240000D02*
X124243000Y-51779000D01*
X108077000Y-71120000D02*
X110363000Y-71120000D01*
%TO.N,5v*%
X64988000Y-69749750D02*
X64888000Y-69649750D01*
X73071113Y-39486250D02*
X73136000Y-39486250D01*
%TO.N,GND5V*%
X68199000Y-67183000D02*
X70612000Y-64770000D01*
X79502000Y-79502000D02*
X79502000Y-73660000D01*
X70612000Y-64770000D02*
X70612000Y-52451000D01*
X70612000Y-52451000D02*
X70612000Y-42799000D01*
X79756000Y-60325000D02*
X78486000Y-60325000D01*
X92075000Y-82677000D02*
X82677000Y-82677000D01*
X82677000Y-82677000D02*
X79502000Y-79502000D01*
X78486000Y-60325000D02*
X70612000Y-52451000D01*
X69072000Y-30971250D02*
X69453000Y-30590250D01*
X67945000Y-55118000D02*
X70612000Y-52451000D01*
X79502000Y-73660000D02*
X70612000Y-64770000D01*
%TD*%
M02*
