%TF.GenerationSoftware,KiCad,Pcbnew,6.0.11+dfsg-1*%
%TF.CreationDate,2023-04-02T16:25:06-05:00*%
%TF.ProjectId,water_tank_module,77617465-725f-4746-916e-6b5f6d6f6475,rev?*%
%TF.SameCoordinates,Original*%
%TF.FileFunction,Legend,Top*%
%TF.FilePolarity,Positive*%
%FSLAX46Y46*%
G04 Gerber Fmt 4.6, Leading zero omitted, Abs format (unit mm)*
G04 Created by KiCad (PCBNEW 6.0.11+dfsg-1) date 2023-04-02 16:25:06*
%MOMM*%
%LPD*%
G01*
G04 APERTURE LIST*
%ADD10C,0.150000*%
%ADD11C,0.120000*%
G04 APERTURE END LIST*
D10*
%TO.C,J2*%
X155571666Y-120400380D02*
X155571666Y-121114666D01*
X155524047Y-121257523D01*
X155428809Y-121352761D01*
X155285952Y-121400380D01*
X155190714Y-121400380D01*
X156000238Y-120495619D02*
X156047857Y-120448000D01*
X156143095Y-120400380D01*
X156381190Y-120400380D01*
X156476428Y-120448000D01*
X156524047Y-120495619D01*
X156571666Y-120590857D01*
X156571666Y-120686095D01*
X156524047Y-120828952D01*
X155952619Y-121400380D01*
X156571666Y-121400380D01*
%TO.C,J1*%
X170557666Y-120365380D02*
X170557666Y-121079666D01*
X170510047Y-121222523D01*
X170414809Y-121317761D01*
X170271952Y-121365380D01*
X170176714Y-121365380D01*
X171557666Y-121365380D02*
X170986238Y-121365380D01*
X171271952Y-121365380D02*
X171271952Y-120365380D01*
X171176714Y-120508238D01*
X171081476Y-120603476D01*
X170986238Y-120651095D01*
%TO.C,H2*%
X125988095Y-123252380D02*
X125988095Y-122252380D01*
X125988095Y-122728571D02*
X126559523Y-122728571D01*
X126559523Y-123252380D02*
X126559523Y-122252380D01*
X126988095Y-122347619D02*
X127035714Y-122300000D01*
X127130952Y-122252380D01*
X127369047Y-122252380D01*
X127464285Y-122300000D01*
X127511904Y-122347619D01*
X127559523Y-122442857D01*
X127559523Y-122538095D01*
X127511904Y-122680952D01*
X126940476Y-123252380D01*
X127559523Y-123252380D01*
%TO.C,J_EC1*%
X124240380Y-102816416D02*
X124954666Y-102816416D01*
X125097523Y-102864035D01*
X125192761Y-102959273D01*
X125240380Y-103102130D01*
X125240380Y-103197369D01*
X125335619Y-102578321D02*
X125335619Y-101816416D01*
X124716571Y-101578321D02*
X124716571Y-101244988D01*
X125240380Y-101102130D02*
X125240380Y-101578321D01*
X124240380Y-101578321D01*
X124240380Y-101102130D01*
X125145142Y-100102130D02*
X125192761Y-100149750D01*
X125240380Y-100292607D01*
X125240380Y-100387845D01*
X125192761Y-100530702D01*
X125097523Y-100625940D01*
X125002285Y-100673559D01*
X124811809Y-100721178D01*
X124668952Y-100721178D01*
X124478476Y-100673559D01*
X124383238Y-100625940D01*
X124288000Y-100530702D01*
X124240380Y-100387845D01*
X124240380Y-100292607D01*
X124288000Y-100149750D01*
X124335619Y-100102130D01*
X125240380Y-99149750D02*
X125240380Y-99721178D01*
X125240380Y-99435464D02*
X124240380Y-99435464D01*
X124383238Y-99530702D01*
X124478476Y-99625940D01*
X124526095Y-99721178D01*
%TO.C,U4*%
X191425380Y-104997904D02*
X192234904Y-104997904D01*
X192330142Y-104950285D01*
X192377761Y-104902666D01*
X192425380Y-104807428D01*
X192425380Y-104616952D01*
X192377761Y-104521714D01*
X192330142Y-104474095D01*
X192234904Y-104426476D01*
X191425380Y-104426476D01*
X191758714Y-103521714D02*
X192425380Y-103521714D01*
X191377761Y-103759809D02*
X192092047Y-103997904D01*
X192092047Y-103378857D01*
%TO.C,C1*%
X136754446Y-88393392D02*
X136706827Y-88441011D01*
X136563970Y-88488630D01*
X136468732Y-88488630D01*
X136325874Y-88441011D01*
X136230636Y-88345773D01*
X136183017Y-88250535D01*
X136135398Y-88060059D01*
X136135398Y-87917202D01*
X136183017Y-87726726D01*
X136230636Y-87631488D01*
X136325874Y-87536250D01*
X136468732Y-87488630D01*
X136563970Y-87488630D01*
X136706827Y-87536250D01*
X136754446Y-87583869D01*
X137706827Y-88488630D02*
X137135398Y-88488630D01*
X137421113Y-88488630D02*
X137421113Y-87488630D01*
X137325874Y-87631488D01*
X137230636Y-87726726D01*
X137135398Y-87774345D01*
%TO.C,J_DS18*%
X124440380Y-115316416D02*
X125154666Y-115316416D01*
X125297523Y-115364035D01*
X125392761Y-115459273D01*
X125440380Y-115602130D01*
X125440380Y-115697369D01*
X125535619Y-115078321D02*
X125535619Y-114316416D01*
X125440380Y-114078321D02*
X124440380Y-114078321D01*
X124440380Y-113840226D01*
X124488000Y-113697369D01*
X124583238Y-113602130D01*
X124678476Y-113554511D01*
X124868952Y-113506892D01*
X125011809Y-113506892D01*
X125202285Y-113554511D01*
X125297523Y-113602130D01*
X125392761Y-113697369D01*
X125440380Y-113840226D01*
X125440380Y-114078321D01*
X125392761Y-113125940D02*
X125440380Y-112983083D01*
X125440380Y-112744988D01*
X125392761Y-112649750D01*
X125345142Y-112602130D01*
X125249904Y-112554511D01*
X125154666Y-112554511D01*
X125059428Y-112602130D01*
X125011809Y-112649750D01*
X124964190Y-112744988D01*
X124916571Y-112935464D01*
X124868952Y-113030702D01*
X124821333Y-113078321D01*
X124726095Y-113125940D01*
X124630857Y-113125940D01*
X124535619Y-113078321D01*
X124488000Y-113030702D01*
X124440380Y-112935464D01*
X124440380Y-112697369D01*
X124488000Y-112554511D01*
X125440380Y-111602130D02*
X125440380Y-112173559D01*
X125440380Y-111887845D02*
X124440380Y-111887845D01*
X124583238Y-111983083D01*
X124678476Y-112078321D01*
X124726095Y-112173559D01*
X124868952Y-111030702D02*
X124821333Y-111125940D01*
X124773714Y-111173559D01*
X124678476Y-111221178D01*
X124630857Y-111221178D01*
X124535619Y-111173559D01*
X124488000Y-111125940D01*
X124440380Y-111030702D01*
X124440380Y-110840226D01*
X124488000Y-110744988D01*
X124535619Y-110697369D01*
X124630857Y-110649750D01*
X124678476Y-110649750D01*
X124773714Y-110697369D01*
X124821333Y-110744988D01*
X124868952Y-110840226D01*
X124868952Y-111030702D01*
X124916571Y-111125940D01*
X124964190Y-111173559D01*
X125059428Y-111221178D01*
X125249904Y-111221178D01*
X125345142Y-111173559D01*
X125392761Y-111125940D01*
X125440380Y-111030702D01*
X125440380Y-110840226D01*
X125392761Y-110744988D01*
X125345142Y-110697369D01*
X125249904Y-110649750D01*
X125059428Y-110649750D01*
X124964190Y-110697369D01*
X124916571Y-110744988D01*
X124868952Y-110840226D01*
%TO.C,H3*%
X194488095Y-67752380D02*
X194488095Y-66752380D01*
X194488095Y-67228571D02*
X195059523Y-67228571D01*
X195059523Y-67752380D02*
X195059523Y-66752380D01*
X195440476Y-66752380D02*
X196059523Y-66752380D01*
X195726190Y-67133333D01*
X195869047Y-67133333D01*
X195964285Y-67180952D01*
X196011904Y-67228571D01*
X196059523Y-67323809D01*
X196059523Y-67561904D01*
X196011904Y-67657142D01*
X195964285Y-67704761D01*
X195869047Y-67752380D01*
X195583333Y-67752380D01*
X195488095Y-67704761D01*
X195440476Y-67657142D01*
%TO.C,J_esp0*%
X155229880Y-92345000D02*
X155944166Y-92345000D01*
X156087023Y-92392619D01*
X156182261Y-92487857D01*
X156229880Y-92630714D01*
X156229880Y-92725952D01*
X156325119Y-92106904D02*
X156325119Y-91345000D01*
X156182261Y-90725952D02*
X156229880Y-90821190D01*
X156229880Y-91011666D01*
X156182261Y-91106904D01*
X156087023Y-91154523D01*
X155706071Y-91154523D01*
X155610833Y-91106904D01*
X155563214Y-91011666D01*
X155563214Y-90821190D01*
X155610833Y-90725952D01*
X155706071Y-90678333D01*
X155801309Y-90678333D01*
X155896547Y-91154523D01*
X156182261Y-90297380D02*
X156229880Y-90202142D01*
X156229880Y-90011666D01*
X156182261Y-89916428D01*
X156087023Y-89868809D01*
X156039404Y-89868809D01*
X155944166Y-89916428D01*
X155896547Y-90011666D01*
X155896547Y-90154523D01*
X155848928Y-90249761D01*
X155753690Y-90297380D01*
X155706071Y-90297380D01*
X155610833Y-90249761D01*
X155563214Y-90154523D01*
X155563214Y-90011666D01*
X155610833Y-89916428D01*
X155563214Y-89440238D02*
X156563214Y-89440238D01*
X155610833Y-89440238D02*
X155563214Y-89345000D01*
X155563214Y-89154523D01*
X155610833Y-89059285D01*
X155658452Y-89011666D01*
X155753690Y-88964047D01*
X156039404Y-88964047D01*
X156134642Y-89011666D01*
X156182261Y-89059285D01*
X156229880Y-89154523D01*
X156229880Y-89345000D01*
X156182261Y-89440238D01*
X155229880Y-88345000D02*
X155229880Y-88249761D01*
X155277500Y-88154523D01*
X155325119Y-88106904D01*
X155420357Y-88059285D01*
X155610833Y-88011666D01*
X155848928Y-88011666D01*
X156039404Y-88059285D01*
X156134642Y-88106904D01*
X156182261Y-88154523D01*
X156229880Y-88249761D01*
X156229880Y-88345000D01*
X156182261Y-88440238D01*
X156134642Y-88487857D01*
X156039404Y-88535476D01*
X155848928Y-88583095D01*
X155610833Y-88583095D01*
X155420357Y-88535476D01*
X155325119Y-88487857D01*
X155277500Y-88440238D01*
X155229880Y-88345000D01*
%TO.C,5V1*%
X136312133Y-76427580D02*
X135835942Y-76427580D01*
X135788323Y-76903771D01*
X135835942Y-76856152D01*
X135931180Y-76808533D01*
X136169276Y-76808533D01*
X136264514Y-76856152D01*
X136312133Y-76903771D01*
X136359752Y-76999009D01*
X136359752Y-77237104D01*
X136312133Y-77332342D01*
X136264514Y-77379961D01*
X136169276Y-77427580D01*
X135931180Y-77427580D01*
X135835942Y-77379961D01*
X135788323Y-77332342D01*
X136645466Y-76427580D02*
X136978800Y-77427580D01*
X137312133Y-76427580D01*
X138169276Y-77427580D02*
X137597847Y-77427580D01*
X137883561Y-77427580D02*
X137883561Y-76427580D01*
X137788323Y-76570438D01*
X137693085Y-76665676D01*
X137597847Y-76713295D01*
%TO.C,H4*%
X125988095Y-67752380D02*
X125988095Y-66752380D01*
X125988095Y-67228571D02*
X126559523Y-67228571D01*
X126559523Y-67752380D02*
X126559523Y-66752380D01*
X127464285Y-67085714D02*
X127464285Y-67752380D01*
X127226190Y-66704761D02*
X126988095Y-67419047D01*
X127607142Y-67419047D01*
%TO.C,H1*%
X194488095Y-123252380D02*
X194488095Y-122252380D01*
X194488095Y-122728571D02*
X195059523Y-122728571D01*
X195059523Y-123252380D02*
X195059523Y-122252380D01*
X196059523Y-123252380D02*
X195488095Y-123252380D01*
X195773809Y-123252380D02*
X195773809Y-122252380D01*
X195678571Y-122395238D01*
X195583333Y-122490476D01*
X195488095Y-122538095D01*
%TO.C,R11*%
X136560380Y-116462607D02*
X136084190Y-116795940D01*
X136560380Y-117034035D02*
X135560380Y-117034035D01*
X135560380Y-116653083D01*
X135608000Y-116557845D01*
X135655619Y-116510226D01*
X135750857Y-116462607D01*
X135893714Y-116462607D01*
X135988952Y-116510226D01*
X136036571Y-116557845D01*
X136084190Y-116653083D01*
X136084190Y-117034035D01*
X136560380Y-115510226D02*
X136560380Y-116081654D01*
X136560380Y-115795940D02*
X135560380Y-115795940D01*
X135703238Y-115891178D01*
X135798476Y-115986416D01*
X135846095Y-116081654D01*
X136560380Y-114557845D02*
X136560380Y-115129273D01*
X136560380Y-114843559D02*
X135560380Y-114843559D01*
X135703238Y-114938797D01*
X135798476Y-115034035D01*
X135846095Y-115129273D01*
%TO.C,J_esp1*%
X169975380Y-91564000D02*
X170689666Y-91564000D01*
X170832523Y-91611619D01*
X170927761Y-91706857D01*
X170975380Y-91849714D01*
X170975380Y-91944952D01*
X171070619Y-91325904D02*
X171070619Y-90564000D01*
X170927761Y-89944952D02*
X170975380Y-90040190D01*
X170975380Y-90230666D01*
X170927761Y-90325904D01*
X170832523Y-90373523D01*
X170451571Y-90373523D01*
X170356333Y-90325904D01*
X170308714Y-90230666D01*
X170308714Y-90040190D01*
X170356333Y-89944952D01*
X170451571Y-89897333D01*
X170546809Y-89897333D01*
X170642047Y-90373523D01*
X170927761Y-89516380D02*
X170975380Y-89421142D01*
X170975380Y-89230666D01*
X170927761Y-89135428D01*
X170832523Y-89087809D01*
X170784904Y-89087809D01*
X170689666Y-89135428D01*
X170642047Y-89230666D01*
X170642047Y-89373523D01*
X170594428Y-89468761D01*
X170499190Y-89516380D01*
X170451571Y-89516380D01*
X170356333Y-89468761D01*
X170308714Y-89373523D01*
X170308714Y-89230666D01*
X170356333Y-89135428D01*
X170308714Y-88659238D02*
X171308714Y-88659238D01*
X170356333Y-88659238D02*
X170308714Y-88564000D01*
X170308714Y-88373523D01*
X170356333Y-88278285D01*
X170403952Y-88230666D01*
X170499190Y-88183047D01*
X170784904Y-88183047D01*
X170880142Y-88230666D01*
X170927761Y-88278285D01*
X170975380Y-88373523D01*
X170975380Y-88564000D01*
X170927761Y-88659238D01*
X170975380Y-87230666D02*
X170975380Y-87802095D01*
X170975380Y-87516380D02*
X169975380Y-87516380D01*
X170118238Y-87611619D01*
X170213476Y-87706857D01*
X170261095Y-87802095D01*
D11*
%TO.C,J2*%
X152045000Y-122038000D02*
X152045000Y-126058000D01*
X152045000Y-126058000D02*
X159765000Y-126058000D01*
X152545000Y-122538000D02*
X159265000Y-122538000D01*
X153045000Y-124558000D02*
X153045000Y-126058000D01*
X152045000Y-123748000D02*
X152545000Y-123748000D01*
X159265000Y-123748000D02*
X159765000Y-123748000D01*
X159265000Y-122538000D02*
X159265000Y-123748000D01*
X159765000Y-122038000D02*
X152045000Y-122038000D01*
X151745000Y-123858000D02*
X151745000Y-126358000D01*
X159765000Y-124558000D02*
X158765000Y-124558000D01*
X152545000Y-123748000D02*
X152545000Y-122538000D01*
X151745000Y-126358000D02*
X154245000Y-126358000D01*
X152045000Y-124558000D02*
X153045000Y-124558000D01*
X159765000Y-126058000D02*
X159765000Y-122038000D01*
X158765000Y-124558000D02*
X158765000Y-126058000D01*
%TO.C,J1*%
X164281000Y-124523000D02*
X164281000Y-126023000D01*
X163781000Y-123713000D02*
X163781000Y-122503000D01*
X162981000Y-123823000D02*
X162981000Y-126323000D01*
X178501000Y-126023000D02*
X178501000Y-122003000D01*
X178001000Y-122503000D02*
X178001000Y-123713000D01*
X178501000Y-122003000D02*
X163281000Y-122003000D01*
X163781000Y-122503000D02*
X178001000Y-122503000D01*
X177501000Y-124523000D02*
X177501000Y-126023000D01*
X178501000Y-124523000D02*
X177501000Y-124523000D01*
X163281000Y-123713000D02*
X163781000Y-123713000D01*
X163281000Y-122003000D02*
X163281000Y-126023000D01*
X163281000Y-124523000D02*
X164281000Y-124523000D01*
X162981000Y-126323000D02*
X165481000Y-126323000D01*
X178001000Y-123713000D02*
X178501000Y-123713000D01*
X163281000Y-126023000D02*
X178501000Y-126023000D01*
%TO.C,J_EC1*%
X129988000Y-97639750D02*
X131198000Y-97639750D01*
X131698000Y-107359750D02*
X131698000Y-97139750D01*
X127678000Y-97139750D02*
X127678000Y-107359750D01*
X129878000Y-96839750D02*
X127378000Y-96839750D01*
X129178000Y-98139750D02*
X127678000Y-98139750D01*
X129178000Y-97139750D02*
X129178000Y-98139750D01*
X129178000Y-106359750D02*
X127678000Y-106359750D01*
X131198000Y-106859750D02*
X129988000Y-106859750D01*
X127678000Y-107359750D02*
X131698000Y-107359750D01*
X131698000Y-97139750D02*
X127678000Y-97139750D01*
X131198000Y-97639750D02*
X131198000Y-106859750D01*
X129178000Y-107359750D02*
X129178000Y-106359750D01*
X129988000Y-97139750D02*
X129988000Y-97639750D01*
X129988000Y-106859750D02*
X129988000Y-107359750D01*
X127378000Y-96839750D02*
X127378000Y-99339750D01*
%TO.C,U4*%
X181073000Y-119344000D02*
X181073000Y-90144000D01*
X196523000Y-119344000D02*
X181073000Y-119344000D01*
X185279000Y-90474000D02*
X195947000Y-90474000D01*
X196523000Y-90144000D02*
X196523000Y-90144000D01*
X195947000Y-95808000D02*
X185279000Y-95808000D01*
X193153000Y-93014000D02*
X193153000Y-90728000D01*
X195439000Y-93014000D02*
X193153000Y-93014000D01*
X185279000Y-90474000D02*
X185279000Y-90474000D01*
X181073000Y-90144000D02*
X196523000Y-90144000D01*
X193153000Y-90728000D02*
X193153000Y-90728000D01*
X185279000Y-95808000D02*
X185279000Y-90474000D01*
X196523000Y-90144000D02*
X196523000Y-119344000D01*
X195947000Y-90474000D02*
X195947000Y-95808000D01*
X195947000Y-90474000D02*
X195947000Y-90474000D01*
%TO.C,C1*%
X134440113Y-85091250D02*
X134440113Y-83481250D01*
X135680113Y-83246250D02*
X135680113Y-82018250D01*
X135280113Y-83246250D02*
X135280113Y-82282250D01*
X136401113Y-86814250D02*
X136401113Y-85326250D01*
X136361113Y-86806250D02*
X136361113Y-85326250D01*
X135200113Y-86223250D02*
X135200113Y-85326250D01*
X135640113Y-83246250D02*
X135640113Y-82039250D01*
X135040113Y-86071250D02*
X135040113Y-85326250D01*
X134640113Y-85537250D02*
X134640113Y-85326250D01*
X134760113Y-83246250D02*
X134760113Y-82843250D01*
X136641113Y-83246250D02*
X136641113Y-81721250D01*
X136200113Y-83246250D02*
X136200113Y-81806250D01*
X136521113Y-86836250D02*
X136521113Y-85326250D01*
X136401113Y-83246250D02*
X136401113Y-81758250D01*
X136040113Y-86714250D02*
X136040113Y-85326250D01*
X135600113Y-83246250D02*
X135600113Y-82062250D01*
X136000113Y-83246250D02*
X136000113Y-81872250D01*
X136601113Y-86847250D02*
X136601113Y-85326250D01*
X134800113Y-85786250D02*
X134800113Y-85326250D01*
X136521113Y-83246250D02*
X136521113Y-81736250D01*
X136441113Y-86822250D02*
X136441113Y-85326250D01*
X136241113Y-86777250D02*
X136241113Y-85326250D01*
X135960113Y-83246250D02*
X135960113Y-81888250D01*
X135280113Y-86290250D02*
X135280113Y-85326250D01*
X135160113Y-83246250D02*
X135160113Y-82385250D01*
X135480113Y-86435250D02*
X135480113Y-85326250D01*
X135440113Y-86408250D02*
X135440113Y-85326250D01*
X136120113Y-86741250D02*
X136120113Y-85326250D01*
X136921113Y-86866250D02*
X136921113Y-81706250D01*
X136801113Y-86864250D02*
X136801113Y-81708250D01*
X136761113Y-86862250D02*
X136761113Y-81710250D01*
X136000113Y-86700250D02*
X136000113Y-85326250D01*
X136841113Y-86865250D02*
X136841113Y-81707250D01*
X134520113Y-85297250D02*
X134520113Y-83275250D01*
X135000113Y-83246250D02*
X135000113Y-82543250D01*
X135360113Y-86351250D02*
X135360113Y-85326250D01*
X136160113Y-86754250D02*
X136160113Y-85326250D01*
X135680113Y-86554250D02*
X135680113Y-85326250D01*
X135040113Y-83246250D02*
X135040113Y-82501250D01*
X134840113Y-83246250D02*
X134840113Y-82732250D01*
X135120113Y-83246250D02*
X135120113Y-82422250D01*
X135560113Y-83246250D02*
X135560113Y-82086250D01*
X136200113Y-86766250D02*
X136200113Y-85326250D01*
X136601113Y-83246250D02*
X136601113Y-81725250D01*
X134880113Y-83246250D02*
X134880113Y-82681250D01*
X134960113Y-83246250D02*
X134960113Y-82587250D01*
X139475888Y-86011250D02*
X139475888Y-85511250D01*
X136321113Y-86797250D02*
X136321113Y-85326250D01*
X136040113Y-83246250D02*
X136040113Y-81858250D01*
X135400113Y-83246250D02*
X135400113Y-82191250D01*
X136441113Y-83246250D02*
X136441113Y-81750250D01*
X136561113Y-86842250D02*
X136561113Y-85326250D01*
X135800113Y-83246250D02*
X135800113Y-81957250D01*
X134800113Y-83246250D02*
X134800113Y-82786250D01*
X135120113Y-86150250D02*
X135120113Y-85326250D01*
X135920113Y-86668250D02*
X135920113Y-85326250D01*
X135240113Y-86257250D02*
X135240113Y-85326250D01*
X134840113Y-85840250D02*
X134840113Y-85326250D01*
X135600113Y-86510250D02*
X135600113Y-85326250D01*
X134480113Y-85201250D02*
X134480113Y-83371250D01*
X134600113Y-85464250D02*
X134600113Y-83108250D01*
X135080113Y-86112250D02*
X135080113Y-85326250D01*
X136641113Y-86851250D02*
X136641113Y-85326250D01*
X135000113Y-86029250D02*
X135000113Y-85326250D01*
X136080113Y-86728250D02*
X136080113Y-85326250D01*
X135760113Y-86596250D02*
X135760113Y-85326250D01*
X135200113Y-83246250D02*
X135200113Y-82349250D01*
X135240113Y-83246250D02*
X135240113Y-82315250D01*
X134880113Y-85891250D02*
X134880113Y-85326250D01*
X136681113Y-86855250D02*
X136681113Y-85326250D01*
X135560113Y-86486250D02*
X135560113Y-85326250D01*
X134560113Y-85384250D02*
X134560113Y-83188250D01*
X134400113Y-84963250D02*
X134400113Y-83609250D01*
X136881113Y-86866250D02*
X136881113Y-81706250D01*
X135520113Y-83246250D02*
X135520113Y-82111250D01*
X135360113Y-83246250D02*
X135360113Y-82221250D01*
X135880113Y-83246250D02*
X135880113Y-81921250D01*
X134960113Y-85985250D02*
X134960113Y-85326250D01*
X136481113Y-86829250D02*
X136481113Y-85326250D01*
X135800113Y-86615250D02*
X135800113Y-85326250D01*
X134680113Y-83246250D02*
X134680113Y-82967250D01*
X136361113Y-83246250D02*
X136361113Y-81766250D01*
X136561113Y-83246250D02*
X136561113Y-81730250D01*
X134920113Y-83246250D02*
X134920113Y-82633250D01*
X135720113Y-83246250D02*
X135720113Y-81996250D01*
X135840113Y-83246250D02*
X135840113Y-81938250D01*
X135480113Y-83246250D02*
X135480113Y-82137250D01*
X136681113Y-83246250D02*
X136681113Y-81717250D01*
X135840113Y-86634250D02*
X135840113Y-85326250D01*
X136120113Y-83246250D02*
X136120113Y-81831250D01*
X134720113Y-85669250D02*
X134720113Y-85326250D01*
X136080113Y-83246250D02*
X136080113Y-81844250D01*
X136281113Y-83246250D02*
X136281113Y-81785250D01*
X135400113Y-86381250D02*
X135400113Y-85326250D01*
X135520113Y-86461250D02*
X135520113Y-85326250D01*
X135160113Y-86187250D02*
X135160113Y-85326250D01*
X135880113Y-86651250D02*
X135880113Y-85326250D01*
X135760113Y-83246250D02*
X135760113Y-81976250D01*
X135320113Y-86321250D02*
X135320113Y-85326250D01*
X136321113Y-83246250D02*
X136321113Y-81775250D01*
X134720113Y-83246250D02*
X134720113Y-82903250D01*
X136721113Y-86859250D02*
X136721113Y-81713250D01*
X135920113Y-83246250D02*
X135920113Y-81904250D01*
X136281113Y-86787250D02*
X136281113Y-85326250D01*
X134360113Y-84804250D02*
X134360113Y-83768250D01*
X135960113Y-86684250D02*
X135960113Y-85326250D01*
X136481113Y-83246250D02*
X136481113Y-81743250D01*
X134680113Y-85605250D02*
X134680113Y-85326250D01*
X134760113Y-85729250D02*
X134760113Y-85326250D01*
X135640113Y-86533250D02*
X135640113Y-85326250D01*
X135440113Y-83246250D02*
X135440113Y-82164250D01*
X134920113Y-85939250D02*
X134920113Y-85326250D01*
X136241113Y-83246250D02*
X136241113Y-81795250D01*
X135320113Y-83246250D02*
X135320113Y-82251250D01*
X135080113Y-83246250D02*
X135080113Y-82460250D01*
X135720113Y-86576250D02*
X135720113Y-85326250D01*
X139725888Y-85761250D02*
X139225888Y-85761250D01*
X136160113Y-83246250D02*
X136160113Y-81818250D01*
X134320113Y-84570250D02*
X134320113Y-84002250D01*
X134640113Y-83246250D02*
X134640113Y-83035250D01*
X139541113Y-84286250D02*
G75*
G03*
X139541113Y-84286250I-2620000J0D01*
G01*
%TO.C,J_DS18*%
X129988000Y-119059750D02*
X129988000Y-119559750D01*
X131198000Y-109839750D02*
X131198000Y-119059750D01*
X129178000Y-118559750D02*
X127678000Y-118559750D01*
X131698000Y-119559750D02*
X131698000Y-109339750D01*
X129178000Y-109339750D02*
X129178000Y-110339750D01*
X129988000Y-109339750D02*
X129988000Y-109839750D01*
X129178000Y-110339750D02*
X127678000Y-110339750D01*
X131198000Y-119059750D02*
X129988000Y-119059750D01*
X127678000Y-109339750D02*
X127678000Y-119559750D01*
X127678000Y-119559750D02*
X131698000Y-119559750D01*
X129178000Y-119559750D02*
X129178000Y-118559750D01*
X131698000Y-109339750D02*
X127678000Y-109339750D01*
X129988000Y-109839750D02*
X131198000Y-109839750D01*
X127378000Y-109039750D02*
X127378000Y-111539750D01*
X129878000Y-109039750D02*
X127378000Y-109039750D01*
%TO.C,J_esp0*%
X147635000Y-110275000D02*
X148615000Y-110275000D01*
X148615000Y-110275000D02*
X148615000Y-110145000D01*
X153255000Y-69195000D02*
X153255000Y-71605000D01*
X150845000Y-69195000D02*
X153255000Y-69195000D01*
X147635000Y-93805000D02*
X147635000Y-110275000D01*
X147635000Y-69495000D02*
X147635000Y-85965000D01*
X146135000Y-93805000D02*
X147635000Y-93805000D01*
X152955000Y-110275000D02*
X152955000Y-69495000D01*
X148615000Y-110145000D02*
X150425000Y-110145000D01*
X148615000Y-69495000D02*
X147635000Y-69495000D01*
X150425000Y-69495000D02*
X150425000Y-69625000D01*
X146135000Y-85965000D02*
X146135000Y-93805000D01*
X150425000Y-69625000D02*
X148615000Y-69625000D01*
X152955000Y-69495000D02*
X150425000Y-69495000D01*
X150425000Y-110275000D02*
X152955000Y-110275000D01*
X148615000Y-69625000D02*
X148615000Y-69495000D01*
X147635000Y-85965000D02*
X146135000Y-85965000D01*
X150425000Y-110145000D02*
X150425000Y-110275000D01*
%TO.C,5V1*%
X131843800Y-69625200D02*
X131343800Y-69375200D01*
X142193800Y-81275200D02*
X142193800Y-68675200D01*
X131343800Y-71275200D02*
X131343800Y-71325200D01*
X131343800Y-71325200D02*
X131843800Y-71075200D01*
X131343800Y-69375200D02*
X131343800Y-71275200D01*
X131843800Y-71075200D02*
X131843800Y-76475200D01*
X131843800Y-76475200D02*
X131343800Y-76175200D01*
X131343800Y-81275200D02*
X142193800Y-81275200D01*
X131343800Y-76175200D02*
X131343800Y-81275200D01*
X142193800Y-68675200D02*
X131843800Y-68675200D01*
X131843800Y-68675200D02*
X131843800Y-69625200D01*
%TO.C,R11*%
X134188000Y-115469750D02*
X134188000Y-116089750D01*
X135108000Y-114549750D02*
G75*
G03*
X135108000Y-114549750I-920000J0D01*
G01*
%TO.C,J_esp1*%
X174285500Y-110654000D02*
X171875500Y-110654000D01*
X174705500Y-110224000D02*
X176515500Y-110224000D01*
X172175500Y-69574000D02*
X172175500Y-110354000D01*
X176515500Y-110354000D02*
X177495500Y-110354000D01*
X177495500Y-93884000D02*
X178995500Y-93884000D01*
X174705500Y-110354000D02*
X174705500Y-110224000D01*
X178995500Y-86044000D02*
X177495500Y-86044000D01*
X176515500Y-110224000D02*
X176515500Y-110354000D01*
X174705500Y-69574000D02*
X172175500Y-69574000D01*
X177495500Y-110354000D02*
X177495500Y-93884000D01*
X176515500Y-69574000D02*
X176515500Y-69704000D01*
X177495500Y-86044000D02*
X177495500Y-69574000D01*
X171875500Y-110654000D02*
X171875500Y-108244000D01*
X177495500Y-69574000D02*
X176515500Y-69574000D01*
X176515500Y-69704000D02*
X174705500Y-69704000D01*
X178995500Y-93884000D02*
X178995500Y-86044000D01*
X174705500Y-69704000D02*
X174705500Y-69574000D01*
X172175500Y-110354000D02*
X174705500Y-110354000D01*
%TD*%
M02*
