%TF.GenerationSoftware,KiCad,Pcbnew,6.0.11+dfsg-1*%
%TF.CreationDate,2023-04-02T16:25:05-05:00*%
%TF.ProjectId,water_tank_module,77617465-725f-4746-916e-6b5f6d6f6475,rev?*%
%TF.SameCoordinates,Original*%
%TF.FileFunction,Copper,L2,Bot*%
%TF.FilePolarity,Positive*%
%FSLAX46Y46*%
G04 Gerber Fmt 4.6, Leading zero omitted, Abs format (unit mm)*
G04 Created by KiCad (PCBNEW 6.0.11+dfsg-1) date 2023-04-02 16:25:05*
%MOMM*%
%LPD*%
G01*
G04 APERTURE LIST*
%ADD10C,0.300000*%
%TA.AperFunction,NonConductor*%
%ADD11C,0.300000*%
%TD*%
%TA.AperFunction,ComponentPad*%
%ADD12R,1.900000X3.000000*%
%TD*%
%TA.AperFunction,ComponentPad*%
%ADD13O,1.900000X3.000000*%
%TD*%
%TA.AperFunction,ComponentPad*%
%ADD14O,1.950000X3.000000*%
%TD*%
%TA.AperFunction,ComponentPad*%
%ADD15C,5.400000*%
%TD*%
%TA.AperFunction,ComponentPad*%
%ADD16R,3.000000X1.950000*%
%TD*%
%TA.AperFunction,ComponentPad*%
%ADD17O,3.000000X1.950000*%
%TD*%
%TA.AperFunction,ComponentPad*%
%ADD18O,2.000000X3.000000*%
%TD*%
%TA.AperFunction,ComponentPad*%
%ADD19R,2.000000X3.000000*%
%TD*%
%TA.AperFunction,ComponentPad*%
%ADD20R,1.800000X1.800000*%
%TD*%
%TA.AperFunction,ComponentPad*%
%ADD21C,1.900000*%
%TD*%
%TA.AperFunction,ComponentPad*%
%ADD22R,2.540000X2.100000*%
%TD*%
%TA.AperFunction,ComponentPad*%
%ADD23R,2.540000X1.740000*%
%TD*%
%TA.AperFunction,ComponentPad*%
%ADD24R,2.540000X1.950000*%
%TD*%
%TA.AperFunction,ComponentPad*%
%ADD25R,3.000000X3.960000*%
%TD*%
%TA.AperFunction,ComponentPad*%
%ADD26O,3.000000X3.960000*%
%TD*%
%TA.AperFunction,ComponentPad*%
%ADD27O,2.850000X2.025000*%
%TD*%
%TA.AperFunction,ComponentPad*%
%ADD28R,2.540000X2.000000*%
%TD*%
%TA.AperFunction,ViaPad*%
%ADD29C,2.300000*%
%TD*%
%TA.AperFunction,Conductor*%
%ADD30C,1.250000*%
%TD*%
G04 APERTURE END LIST*
D10*
D11*
X165410400Y-75025000D02*
X164593733Y-75025000D01*
X164243733Y-76308333D02*
X165410400Y-76308333D01*
X165410400Y-73858333D01*
X164243733Y-73858333D01*
X163310400Y-76191666D02*
X162960400Y-76308333D01*
X162377066Y-76308333D01*
X162143733Y-76191666D01*
X162027066Y-76075000D01*
X161910400Y-75841666D01*
X161910400Y-75608333D01*
X162027066Y-75375000D01*
X162143733Y-75258333D01*
X162377066Y-75141666D01*
X162843733Y-75025000D01*
X163077066Y-74908333D01*
X163193733Y-74791666D01*
X163310400Y-74558333D01*
X163310400Y-74325000D01*
X163193733Y-74091666D01*
X163077066Y-73975000D01*
X162843733Y-73858333D01*
X162260400Y-73858333D01*
X161910400Y-73975000D01*
X160860400Y-76308333D02*
X160860400Y-73858333D01*
X159927066Y-73858333D01*
X159693733Y-73975000D01*
X159577066Y-74091666D01*
X159460400Y-74325000D01*
X159460400Y-74675000D01*
X159577066Y-74908333D01*
X159693733Y-75025000D01*
X159927066Y-75141666D01*
X160860400Y-75141666D01*
X158643733Y-73858333D02*
X157127066Y-73858333D01*
X157943733Y-74791666D01*
X157593733Y-74791666D01*
X157360400Y-74908333D01*
X157243733Y-75025000D01*
X157127066Y-75258333D01*
X157127066Y-75841666D01*
X157243733Y-76075000D01*
X157360400Y-76191666D01*
X157593733Y-76308333D01*
X158293733Y-76308333D01*
X158527066Y-76191666D01*
X158643733Y-76075000D01*
X156193733Y-74091666D02*
X156077066Y-73975000D01*
X155843733Y-73858333D01*
X155260400Y-73858333D01*
X155027066Y-73975000D01*
X154910400Y-74091666D01*
X154793733Y-74325000D01*
X154793733Y-74558333D01*
X154910400Y-74908333D01*
X156310400Y-76308333D01*
X154793733Y-76308333D01*
D12*
%TO.P,J2,1,Pin_1*%
%TO.N,D13*%
X154655000Y-123748000D03*
D13*
%TO.P,J2,2,Pin_2*%
%TO.N,GND5V*%
X157155000Y-123748000D03*
%TD*%
D12*
%TO.P,J1,1,Pin_1*%
%TO.N,D14*%
X165891000Y-123713000D03*
D14*
%TO.P,J1,2,Pin_2*%
%TO.N,D26*%
X168391000Y-123713000D03*
%TO.P,J1,3,Pin_3*%
%TO.N,D27*%
X170891000Y-123713000D03*
%TO.P,J1,4,Pin_4*%
%TO.N,D33*%
X173391000Y-123713000D03*
%TO.P,J1,5,Pin_5*%
%TO.N,GND5V*%
X175891000Y-123713000D03*
%TD*%
D15*
%TO.P,H2,1*%
%TO.N,N/C*%
X126750000Y-126500000D03*
%TD*%
D16*
%TO.P,J_EC1,1,Pin_1*%
%TO.N,GND5V*%
X129988000Y-99749750D03*
D17*
%TO.P,J_EC1,2,Pin_2*%
%TO.N,5v*%
X129988000Y-102249750D03*
%TO.P,J_EC1,3,Pin_3*%
%TO.N,D34*%
X129988000Y-104749750D03*
%TD*%
D18*
%TO.P,U4,8,IRQ*%
%TO.N,unconnected-(U4-Pad8)*%
X186803000Y-94784000D03*
D19*
%TO.P,U4,7,MISO*%
%TO.N,D19*%
X186803000Y-91244000D03*
%TO.P,U4,6,MOSI*%
%TO.N,D23*%
X189343000Y-94784000D03*
%TO.P,U4,5,SCK*%
%TO.N,D18*%
X189343000Y-91244000D03*
%TO.P,U4,4,~{CSN}*%
%TO.N,D5*%
X191883000Y-94784000D03*
%TO.P,U4,3,CE*%
%TO.N,D4*%
X191883000Y-91244000D03*
%TO.P,U4,2,VCC*%
%TO.N,5v*%
X194423000Y-94784000D03*
%TO.P,U4,1,GND*%
%TO.N,GND5V*%
X194423000Y-91244000D03*
%TD*%
D20*
%TO.P,C1,1*%
%TO.N,5v*%
X138171113Y-84286250D03*
D21*
%TO.P,C1,2*%
%TO.N,GND5V*%
X135671113Y-84286250D03*
%TD*%
D16*
%TO.P,J_DS18,1,Pin_1*%
%TO.N,GND5V*%
X129988000Y-111949750D03*
D17*
%TO.P,J_DS18,2,Pin_2*%
%TO.N,5v*%
X129988000Y-114449750D03*
%TO.P,J_DS18,3,Pin_3*%
%TO.N,D25*%
X129988000Y-116949750D03*
%TD*%
D15*
%TO.P,H3,1*%
%TO.N,N/C*%
X195250000Y-71000000D03*
%TD*%
D22*
%TO.P,J_esp0,1,Pin_1*%
%TO.N,EN*%
X150295000Y-72105000D03*
D23*
%TO.P,J_esp0,2,Pin_2*%
%TO.N,VP*%
X150295000Y-74645000D03*
%TO.P,J_esp0,3,Pin_3*%
%TO.N,VN*%
X150295000Y-77185000D03*
D24*
%TO.P,J_esp0,4,Pin_4*%
%TO.N,D34*%
X150295000Y-79725000D03*
%TO.P,J_esp0,5,Pin_5*%
%TO.N,D35*%
X150295000Y-82265000D03*
%TO.P,J_esp0,6,Pin_6*%
%TO.N,D32*%
X150295000Y-84805000D03*
%TO.P,J_esp0,7,Pin_7*%
%TO.N,D33*%
X150295000Y-87345000D03*
%TO.P,J_esp0,8,Pin_8*%
%TO.N,D25*%
X150295000Y-89885000D03*
%TO.P,J_esp0,9,Pin_9*%
%TO.N,D26*%
X150295000Y-92425000D03*
%TO.P,J_esp0,10,Pin_10*%
%TO.N,D27*%
X150295000Y-94965000D03*
%TO.P,J_esp0,11,Pin_11*%
%TO.N,D14*%
X150295000Y-97505000D03*
%TO.P,J_esp0,12,Pin_12*%
%TO.N,D12*%
X150295000Y-100045000D03*
%TO.P,J_esp0,13,Pin_13*%
%TO.N,D13*%
X150295000Y-102585000D03*
%TO.P,J_esp0,14,Pin_14*%
%TO.N,GND5V*%
X150295000Y-105125000D03*
%TO.P,J_esp0,15,Pin_15*%
%TO.N,5v*%
X150295000Y-107665000D03*
%TD*%
D25*
%TO.P,5V1,1,Pin_1*%
%TO.N,5v*%
X139543800Y-74975200D03*
D26*
%TO.P,5V1,2,Pin_2*%
%TO.N,GND5V*%
X134543800Y-74975200D03*
%TD*%
D15*
%TO.P,H4,1*%
%TO.N,N/C*%
X126750000Y-71000000D03*
%TD*%
%TO.P,H1,1*%
%TO.N,N/C*%
X195250000Y-126500000D03*
%TD*%
D27*
%TO.P,R11,1*%
%TO.N,5v*%
X134188000Y-114549750D03*
%TO.P,R11,2*%
%TO.N,D25*%
X134188000Y-117089750D03*
%TD*%
D28*
%TO.P,J_esp1,1,Pin_1*%
%TO.N,3V3*%
X174835500Y-107744000D03*
D24*
%TO.P,J_esp1,2,Pin_2*%
%TO.N,GND2*%
X174835500Y-105204000D03*
%TO.P,J_esp1,3,Pin_3*%
%TO.N,D15*%
X174835500Y-102664000D03*
%TO.P,J_esp1,4,Pin_4*%
%TO.N,D2*%
X174835500Y-100124000D03*
%TO.P,J_esp1,5,Pin_5*%
%TO.N,D4*%
X174835500Y-97584000D03*
%TO.P,J_esp1,6,Pin_6*%
%TO.N,RX2*%
X174835500Y-95044000D03*
%TO.P,J_esp1,7,Pin_7*%
%TO.N,TX2*%
X174835500Y-92504000D03*
%TO.P,J_esp1,8,Pin_8*%
%TO.N,D5*%
X174835500Y-89964000D03*
%TO.P,J_esp1,9,Pin_9*%
%TO.N,D18*%
X174835500Y-87424000D03*
%TO.P,J_esp1,10,Pin_10*%
%TO.N,D19*%
X174835500Y-84884000D03*
%TO.P,J_esp1,11,Pin_11*%
%TO.N,D21*%
X174835500Y-82344000D03*
%TO.P,J_esp1,12,Pin_12*%
%TO.N,RX0*%
X174835500Y-79804000D03*
%TO.P,J_esp1,13,Pin_13*%
%TO.N,TX0*%
X174835500Y-77264000D03*
%TO.P,J_esp1,14,Pin_14*%
%TO.N,D22*%
X174835500Y-74724000D03*
%TO.P,J_esp1,15,Pin_15*%
%TO.N,D23*%
X174835500Y-72184000D03*
%TD*%
D29*
%TO.N,D26*%
X156875000Y-92425000D03*
X168400000Y-120100000D03*
%TO.N,D18*%
X187528000Y-87472000D03*
%TO.N,D23*%
X189343000Y-98943000D03*
X171780000Y-72232000D03*
%TO.N,GND5V*%
X133045000Y-99918000D03*
X135712000Y-88812000D03*
X175615400Y-127502400D03*
X196037000Y-85440000D03*
X144856000Y-105125000D03*
X133299000Y-111983000D03*
X157175000Y-127477000D03*
%TD*%
D30*
%TO.N,D4*%
X174835500Y-97584000D02*
X171224000Y-97584000D01*
X171224000Y-97584000D02*
X168600000Y-94960000D01*
X168600000Y-94960000D02*
X168600000Y-71300000D01*
X168600000Y-71300000D02*
X172367000Y-67533000D01*
X172367000Y-67533000D02*
X178206200Y-67533000D01*
X178206200Y-67533000D02*
X191883000Y-81209800D01*
X191883000Y-81209800D02*
X191883000Y-91744000D01*
%TO.N,D33*%
X173391000Y-123713000D02*
X173391000Y-114791000D01*
X173391000Y-114791000D02*
X165400000Y-106800000D01*
X159000000Y-87400000D02*
X154300000Y-87400000D01*
X165400000Y-106800000D02*
X165400000Y-93800000D01*
X165400000Y-93800000D02*
X159000000Y-87400000D01*
%TO.N,D27*%
X170891000Y-123713000D02*
X170891000Y-118091000D01*
X155465000Y-94965000D02*
X150295000Y-94965000D01*
X170891000Y-118091000D02*
X162800000Y-110000000D01*
X162800000Y-110000000D02*
X162800000Y-102300000D01*
X162800000Y-102300000D02*
X155465000Y-94965000D01*
%TO.N,D14*%
X165891000Y-123713000D02*
X165891000Y-119391000D01*
X165891000Y-119391000D02*
X159600000Y-113100000D01*
X153605000Y-97505000D02*
X150295000Y-97505000D01*
X159600000Y-113100000D02*
X159600000Y-103500000D01*
X159600000Y-103500000D02*
X153605000Y-97505000D01*
%TO.N,D34*%
X150295000Y-79725000D02*
X146375000Y-79725000D01*
X146375000Y-79725000D02*
X144100000Y-82000000D01*
X144100000Y-82000000D02*
X144100000Y-88800000D01*
X144100000Y-88800000D02*
X137200000Y-95700000D01*
X137200000Y-95700000D02*
X137200000Y-99600000D01*
X137200000Y-99600000D02*
X132050250Y-104749750D01*
X132050250Y-104749750D02*
X129988000Y-104749750D01*
%TO.N,D23*%
X189343000Y-94284000D02*
X189343000Y-98943000D01*
%TO.N,D5*%
X191883000Y-94284000D02*
X191883000Y-100017000D01*
X191883000Y-100017000D02*
X190400000Y-101500000D01*
X184400000Y-101500000D02*
X179781000Y-96881000D01*
X177955000Y-89964000D02*
X174835500Y-89964000D01*
X190400000Y-101500000D02*
X184400000Y-101500000D01*
X179781000Y-96881000D02*
X179781000Y-91790000D01*
X179781000Y-91790000D02*
X177955000Y-89964000D01*
%TO.N,D13*%
X150295000Y-102585000D02*
X153185000Y-102585000D01*
X153185000Y-102585000D02*
X154655000Y-104055000D01*
X154655000Y-104055000D02*
X154655000Y-123748000D01*
%TO.N,D26*%
X156875000Y-92425000D02*
X150295000Y-92425000D01*
%TO.N,GND5V*%
X135712000Y-88812000D02*
X135712000Y-84327137D01*
X135712000Y-84327137D02*
X135671113Y-84286250D01*
%TO.N,D26*%
X168391000Y-123713000D02*
X168391000Y-120109000D01*
X168391000Y-120109000D02*
X168400000Y-120100000D01*
%TO.N,D25*%
X134188000Y-117089750D02*
X135812250Y-117089750D01*
X140411000Y-112491000D02*
X140411000Y-96689000D01*
X135812250Y-117089750D02*
X140411000Y-112491000D01*
X140411000Y-96689000D02*
X147215000Y-89885000D01*
X147215000Y-89885000D02*
X150295000Y-89885000D01*
%TO.N,D33*%
X154304800Y-87421200D02*
X150371200Y-87421200D01*
X150371200Y-87421200D02*
X150295000Y-87345000D01*
%TO.N,D25*%
X130128000Y-117089750D02*
X129988000Y-116949750D01*
X134188000Y-117089750D02*
X130128000Y-117089750D01*
%TO.N,D13*%
X154508000Y-123601000D02*
X154655000Y-123748000D01*
%TO.N,D18*%
X189343000Y-91744000D02*
X189343000Y-89287000D01*
X189343000Y-89287000D02*
X187528000Y-87472000D01*
%TO.N,D19*%
X179987000Y-84884000D02*
X174835500Y-84884000D01*
X186803000Y-91700000D02*
X179987000Y-84884000D01*
X174837500Y-84886000D02*
X174835500Y-84884000D01*
X186803000Y-91744000D02*
X186803000Y-91700000D01*
%TO.N,D23*%
X171828000Y-72184000D02*
X171780000Y-72232000D01*
X174835500Y-72184000D02*
X171828000Y-72184000D01*
%TO.N,5v*%
X134188000Y-94203000D02*
X129489000Y-94203000D01*
X126060000Y-118968000D02*
X128092000Y-121000000D01*
X127502750Y-102249750D02*
X125933000Y-100680000D01*
X181432000Y-129890000D02*
X194423000Y-116899000D01*
X150295000Y-115180000D02*
X150295000Y-107665000D01*
X138171113Y-90219887D02*
X134188000Y-94203000D01*
X129988000Y-114449750D02*
X127276250Y-114449750D01*
X139553000Y-74984400D02*
X139543800Y-74975200D01*
X128092000Y-121000000D02*
X144475000Y-121000000D01*
X144475000Y-121000000D02*
X153365000Y-129890000D01*
X125933000Y-112094750D02*
X128288000Y-114449750D01*
X138236000Y-84286250D02*
X139553000Y-82969250D01*
X125933000Y-97759000D02*
X125933000Y-100680000D01*
X194423000Y-116899000D02*
X194423000Y-94284000D01*
X134188000Y-114549750D02*
X130088000Y-114549750D01*
X139553000Y-82969250D02*
X139553000Y-74984400D01*
X126060000Y-115666000D02*
X126060000Y-118968000D01*
X129489000Y-94203000D02*
X125933000Y-97759000D01*
X144475000Y-121000000D02*
X150317000Y-115158000D01*
X138171113Y-84286250D02*
X138171113Y-90219887D01*
X127276250Y-114449750D02*
X126060000Y-115666000D01*
X153365000Y-129890000D02*
X181432000Y-129890000D01*
X129988000Y-102249750D02*
X127502750Y-102249750D01*
X125933000Y-100680000D02*
X125933000Y-112094750D01*
%TO.N,GND5V*%
X175615400Y-127502400D02*
X175891000Y-127226800D01*
X133299000Y-111983000D02*
X130021250Y-111983000D01*
X175891000Y-127226800D02*
X175891000Y-123713000D01*
X157155000Y-127457000D02*
X157175000Y-127477000D01*
X175971000Y-123633000D02*
X175891000Y-123713000D01*
X134172000Y-82787137D02*
X134172000Y-75347000D01*
X130021250Y-111983000D02*
X129988000Y-111949750D01*
X196037000Y-85440000D02*
X194386000Y-87091000D01*
X130156250Y-99918000D02*
X129988000Y-99749750D01*
X144856000Y-105125000D02*
X150295000Y-105125000D01*
X135671113Y-84286250D02*
X134172000Y-82787137D01*
X194386000Y-91707000D02*
X194423000Y-91744000D01*
X133045000Y-99918000D02*
X130156250Y-99918000D01*
X134172000Y-75347000D02*
X134543800Y-74975200D01*
X194386000Y-87091000D02*
X194386000Y-91707000D01*
X157155000Y-123748000D02*
X157155000Y-127457000D01*
%TD*%
M02*
