%TF.GenerationSoftware,KiCad,Pcbnew,6.0.11+dfsg-1*%
%TF.CreationDate,2023-03-17T08:16:58-05:00*%
%TF.ProjectId,water_tank_module,77617465-725f-4746-916e-6b5f6d6f6475,rev?*%
%TF.SameCoordinates,Original*%
%TF.FileFunction,Copper,L2,Bot*%
%TF.FilePolarity,Positive*%
%FSLAX46Y46*%
G04 Gerber Fmt 4.6, Leading zero omitted, Abs format (unit mm)*
G04 Created by KiCad (PCBNEW 6.0.11+dfsg-1) date 2023-03-17 08:16:58*
%MOMM*%
%LPD*%
G01*
G04 APERTURE LIST*
G04 Aperture macros list*
%AMRoundRect*
0 Rectangle with rounded corners*
0 $1 Rounding radius*
0 $2 $3 $4 $5 $6 $7 $8 $9 X,Y pos of 4 corners*
0 Add a 4 corners polygon primitive as box body*
4,1,4,$2,$3,$4,$5,$6,$7,$8,$9,$2,$3,0*
0 Add four circle primitives for the rounded corners*
1,1,$1+$1,$2,$3*
1,1,$1+$1,$4,$5*
1,1,$1+$1,$6,$7*
1,1,$1+$1,$8,$9*
0 Add four rect primitives between the rounded corners*
20,1,$1+$1,$2,$3,$4,$5,0*
20,1,$1+$1,$4,$5,$6,$7,0*
20,1,$1+$1,$6,$7,$8,$9,0*
20,1,$1+$1,$8,$9,$2,$3,0*%
G04 Aperture macros list end*
%ADD10C,0.300000*%
%TA.AperFunction,NonConductor*%
%ADD11C,0.300000*%
%TD*%
%TA.AperFunction,ComponentPad*%
%ADD12RoundRect,0.250000X-0.600000X-1.250000X0.600000X-1.250000X0.600000X1.250000X-0.600000X1.250000X0*%
%TD*%
%TA.AperFunction,ComponentPad*%
%ADD13O,1.700000X3.000000*%
%TD*%
%TA.AperFunction,ComponentPad*%
%ADD14C,5.400000*%
%TD*%
%TA.AperFunction,ComponentPad*%
%ADD15RoundRect,0.286765X-1.213235X0.688235X-1.213235X-0.688235X1.213235X-0.688235X1.213235X0.688235X0*%
%TD*%
%TA.AperFunction,ComponentPad*%
%ADD16O,3.000000X1.950000*%
%TD*%
%TA.AperFunction,ComponentPad*%
%ADD17R,2.000000X2.000000*%
%TD*%
%TA.AperFunction,ComponentPad*%
%ADD18C,1.700000*%
%TD*%
%TA.AperFunction,ComponentPad*%
%ADD19R,1.800000X1.800000*%
%TD*%
%TA.AperFunction,ComponentPad*%
%ADD20C,1.900000*%
%TD*%
%TA.AperFunction,ComponentPad*%
%ADD21RoundRect,0.250000X-1.020000X0.620000X-1.020000X-0.620000X1.020000X-0.620000X1.020000X0.620000X0*%
%TD*%
%TA.AperFunction,ComponentPad*%
%ADD22R,2.540000X1.740000*%
%TD*%
%TA.AperFunction,ComponentPad*%
%ADD23R,3.000000X3.960000*%
%TD*%
%TA.AperFunction,ComponentPad*%
%ADD24O,3.000000X3.960000*%
%TD*%
%TA.AperFunction,ComponentPad*%
%ADD25C,2.000000*%
%TD*%
%TA.AperFunction,ComponentPad*%
%ADD26O,2.000000X2.000000*%
%TD*%
%TA.AperFunction,ComponentPad*%
%ADD27RoundRect,0.250000X1.020000X-0.620000X1.020000X0.620000X-1.020000X0.620000X-1.020000X-0.620000X0*%
%TD*%
%TA.AperFunction,Conductor*%
%ADD28C,1.250000*%
%TD*%
G04 APERTURE END LIST*
D10*
D11*
X93915714Y-38627857D02*
X94415714Y-38627857D01*
X94630000Y-39413571D02*
X93915714Y-39413571D01*
X93915714Y-37913571D01*
X94630000Y-37913571D01*
X95201428Y-39342142D02*
X95415714Y-39413571D01*
X95772857Y-39413571D01*
X95915714Y-39342142D01*
X95987142Y-39270714D01*
X96058571Y-39127857D01*
X96058571Y-38985000D01*
X95987142Y-38842142D01*
X95915714Y-38770714D01*
X95772857Y-38699285D01*
X95487142Y-38627857D01*
X95344285Y-38556428D01*
X95272857Y-38485000D01*
X95201428Y-38342142D01*
X95201428Y-38199285D01*
X95272857Y-38056428D01*
X95344285Y-37985000D01*
X95487142Y-37913571D01*
X95844285Y-37913571D01*
X96058571Y-37985000D01*
X96701428Y-39413571D02*
X96701428Y-37913571D01*
X97272857Y-37913571D01*
X97415714Y-37985000D01*
X97487142Y-38056428D01*
X97558571Y-38199285D01*
X97558571Y-38413571D01*
X97487142Y-38556428D01*
X97415714Y-38627857D01*
X97272857Y-38699285D01*
X96701428Y-38699285D01*
X98058571Y-37913571D02*
X98987142Y-37913571D01*
X98487142Y-38485000D01*
X98701428Y-38485000D01*
X98844285Y-38556428D01*
X98915714Y-38627857D01*
X98987142Y-38770714D01*
X98987142Y-39127857D01*
X98915714Y-39270714D01*
X98844285Y-39342142D01*
X98701428Y-39413571D01*
X98272857Y-39413571D01*
X98130000Y-39342142D01*
X98058571Y-39270714D01*
X99558571Y-38056428D02*
X99630000Y-37985000D01*
X99772857Y-37913571D01*
X100130000Y-37913571D01*
X100272857Y-37985000D01*
X100344285Y-38056428D01*
X100415714Y-38199285D01*
X100415714Y-38342142D01*
X100344285Y-38556428D01*
X99487142Y-39413571D01*
X100415714Y-39413571D01*
D12*
%TO.P,J2,1,Pin_1*%
%TO.N,D26*%
X89555000Y-78948000D03*
D13*
%TO.P,J2,2,Pin_2*%
%TO.N,GND5V*%
X92055000Y-78948000D03*
%TD*%
D12*
%TO.P,J1,1,Pin_1*%
%TO.N,D25*%
X100791000Y-78913000D03*
D13*
%TO.P,J1,2,Pin_2*%
%TO.N,D32*%
X103291000Y-78913000D03*
%TO.P,J1,3,Pin_3*%
%TO.N,D33*%
X105791000Y-78913000D03*
%TO.P,J1,4,Pin_4*%
%TO.N,D34*%
X108291000Y-78913000D03*
%TO.P,J1,5,Pin_5*%
%TO.N,GND5V*%
X110791000Y-78913000D03*
%TD*%
D14*
%TO.P,H2,1*%
%TO.N,N/C*%
X64897000Y-80391000D03*
%TD*%
D15*
%TO.P,J_EC1,1,Pin_1*%
%TO.N,GND5V*%
X64888000Y-54949750D03*
D16*
%TO.P,J_EC1,2,Pin_2*%
%TO.N,5v*%
X64888000Y-57449750D03*
%TO.P,J_EC1,3,Pin_3*%
%TO.N,D34*%
X64888000Y-59949750D03*
%TD*%
D17*
%TO.P,U4,1,GND*%
%TO.N,GND5V*%
X129323000Y-46944000D03*
%TO.P,U4,2,VCC*%
%TO.N,5v*%
X129323000Y-49484000D03*
%TO.P,U4,3,CE*%
%TO.N,D4*%
X126783000Y-46944000D03*
%TO.P,U4,4,~{CSN}*%
%TO.N,D5*%
X126783000Y-49484000D03*
%TO.P,U4,5,SCK*%
%TO.N,D18*%
X124243000Y-46944000D03*
%TO.P,U4,6,MOSI*%
%TO.N,D23*%
X124243000Y-49484000D03*
%TO.P,U4,7,MISO*%
%TO.N,D19*%
X121703000Y-46944000D03*
D18*
%TO.P,U4,8,IRQ*%
%TO.N,unconnected-(U4-Pad8)*%
X121703000Y-49484000D03*
%TD*%
D19*
%TO.P,C1,1*%
%TO.N,5v*%
X73071113Y-39486250D03*
D20*
%TO.P,C1,2*%
%TO.N,GND5V*%
X70571113Y-39486250D03*
%TD*%
D15*
%TO.P,J_DS18,1,Pin_1*%
%TO.N,GND5V*%
X64888000Y-67149750D03*
D16*
%TO.P,J_DS18,2,Pin_2*%
%TO.N,5v*%
X64888000Y-69649750D03*
%TO.P,J_DS18,3,Pin_3*%
%TO.N,D35*%
X64888000Y-72149750D03*
%TD*%
D14*
%TO.P,H3,1*%
%TO.N,N/C*%
X96774000Y-27559000D03*
%TD*%
D21*
%TO.P,J_esp0,1,Pin_1*%
%TO.N,EN*%
X85195000Y-27305000D03*
D22*
%TO.P,J_esp0,2,Pin_2*%
%TO.N,VP*%
X85195000Y-29845000D03*
%TO.P,J_esp0,3,Pin_3*%
%TO.N,VN*%
X85195000Y-32385000D03*
%TO.P,J_esp0,4,Pin_4*%
%TO.N,D34*%
X85195000Y-34925000D03*
%TO.P,J_esp0,5,Pin_5*%
%TO.N,D35*%
X85195000Y-37465000D03*
%TO.P,J_esp0,6,Pin_6*%
%TO.N,D32*%
X85195000Y-40005000D03*
%TO.P,J_esp0,7,Pin_7*%
%TO.N,D33*%
X85195000Y-42545000D03*
%TO.P,J_esp0,8,Pin_8*%
%TO.N,D25*%
X85195000Y-45085000D03*
%TO.P,J_esp0,9,Pin_9*%
%TO.N,D26*%
X85195000Y-47625000D03*
%TO.P,J_esp0,10,Pin_10*%
%TO.N,D27*%
X85195000Y-50165000D03*
%TO.P,J_esp0,11,Pin_11*%
%TO.N,D14*%
X85195000Y-52705000D03*
%TO.P,J_esp0,12,Pin_12*%
%TO.N,D12*%
X85195000Y-55245000D03*
%TO.P,J_esp0,13,Pin_13*%
%TO.N,D13*%
X85195000Y-57785000D03*
%TO.P,J_esp0,14,Pin_14*%
%TO.N,GND5V*%
X85195000Y-60325000D03*
%TO.P,J_esp0,15,Pin_15*%
%TO.N,5v*%
X85195000Y-62865000D03*
%TD*%
D23*
%TO.P,5V1,1,Pin_1*%
%TO.N,5v*%
X74453000Y-30590250D03*
D24*
%TO.P,5V1,2,Pin_2*%
%TO.N,GND5V*%
X69453000Y-30590250D03*
%TD*%
D14*
%TO.P,H1,1*%
%TO.N,N/C*%
X127000000Y-80391000D03*
%TD*%
D25*
%TO.P,R11,1*%
%TO.N,5v*%
X69088000Y-69749750D03*
D26*
%TO.P,R11,2*%
%TO.N,D35*%
X69088000Y-72289750D03*
%TD*%
D27*
%TO.P,J_esp1,1,Pin_1*%
%TO.N,3V3*%
X109735500Y-62944000D03*
D22*
%TO.P,J_esp1,2,Pin_2*%
%TO.N,GND2*%
X109735500Y-60404000D03*
%TO.P,J_esp1,3,Pin_3*%
%TO.N,D15*%
X109735500Y-57864000D03*
%TO.P,J_esp1,4,Pin_4*%
%TO.N,D2*%
X109735500Y-55324000D03*
%TO.P,J_esp1,5,Pin_5*%
%TO.N,D4*%
X109735500Y-52784000D03*
%TO.P,J_esp1,6,Pin_6*%
%TO.N,RX2*%
X109735500Y-50244000D03*
%TO.P,J_esp1,7,Pin_7*%
%TO.N,TX2*%
X109735500Y-47704000D03*
%TO.P,J_esp1,8,Pin_8*%
%TO.N,D5*%
X109735500Y-45164000D03*
%TO.P,J_esp1,9,Pin_9*%
%TO.N,D18*%
X109735500Y-42624000D03*
%TO.P,J_esp1,10,Pin_10*%
%TO.N,D19*%
X109735500Y-40084000D03*
%TO.P,J_esp1,11,Pin_11*%
%TO.N,D21*%
X109735500Y-37544000D03*
%TO.P,J_esp1,12,Pin_12*%
%TO.N,RX0*%
X109735500Y-35004000D03*
%TO.P,J_esp1,13,Pin_13*%
%TO.N,TX0*%
X109735500Y-32464000D03*
%TO.P,J_esp1,14,Pin_14*%
%TO.N,D22*%
X109735500Y-29924000D03*
%TO.P,J_esp1,15,Pin_15*%
%TO.N,D23*%
X109735500Y-27384000D03*
%TD*%
D28*
%TO.N,D35*%
X69088000Y-72289750D02*
X65028000Y-72289750D01*
X65028000Y-72289750D02*
X64888000Y-72149750D01*
%TO.N,D33*%
X86995000Y-42545000D02*
X85195000Y-42545000D01*
X105791000Y-78913000D02*
X105791000Y-75946000D01*
X94869000Y-50419000D02*
X86995000Y-42545000D01*
X105791000Y-75946000D02*
X94869000Y-65024000D01*
X94869000Y-65024000D02*
X94869000Y-50419000D01*
%TO.N,D26*%
X87376000Y-47625000D02*
X85195000Y-47625000D01*
X89555000Y-78948000D02*
X89555000Y-49804000D01*
X89555000Y-49804000D02*
X87376000Y-47625000D01*
%TO.N,D18*%
X124243000Y-44868000D02*
X124243000Y-46944000D01*
X109735500Y-42624000D02*
X121999000Y-42624000D01*
X121999000Y-42624000D02*
X124243000Y-44868000D01*
%TO.N,D19*%
X109737500Y-40086000D02*
X109735500Y-40084000D01*
%TO.N,D23*%
X113157000Y-70739000D02*
X117856000Y-66040000D01*
X109735500Y-27384000D02*
X105077000Y-27384000D01*
X103124000Y-66167000D02*
X107696000Y-70739000D01*
X105077000Y-27384000D02*
X103124000Y-29337000D01*
X123571000Y-53975000D02*
X123698000Y-53975000D01*
X103124000Y-29337000D02*
X103124000Y-66167000D01*
X123698000Y-53975000D02*
X124243000Y-53430000D01*
X124243000Y-53430000D02*
X124243000Y-49484000D01*
X117856000Y-59690000D02*
X123571000Y-53975000D01*
X117856000Y-66040000D02*
X117856000Y-59690000D01*
X107696000Y-70739000D02*
X113157000Y-70739000D01*
%TO.N,GND5V*%
X79319976Y-60325000D02*
X70571113Y-51576137D01*
X64888000Y-67149750D02*
X62236500Y-67149750D01*
X67197500Y-54949750D02*
X64888000Y-54949750D01*
X78867000Y-79248000D02*
X78867000Y-60777976D01*
X60690000Y-65770000D02*
X62103000Y-67183000D01*
X62117500Y-54949750D02*
X60690000Y-56377250D01*
X110791000Y-81487000D02*
X109728000Y-82550000D01*
X70571113Y-51576137D02*
X67197500Y-54949750D01*
X80264000Y-43180000D02*
X80264000Y-25527000D01*
X62699500Y-67149750D02*
X64888000Y-67149750D01*
X90678000Y-82550000D02*
X82169000Y-82550000D01*
X82169000Y-82550000D02*
X78867000Y-79248000D01*
X122936000Y-22860000D02*
X129450000Y-29374000D01*
X85195000Y-60325000D02*
X79319976Y-60325000D01*
X110791000Y-78913000D02*
X110791000Y-81487000D01*
X92055000Y-78948000D02*
X92055000Y-81173000D01*
X109728000Y-82550000D02*
X90678000Y-82550000D01*
X60690000Y-56377250D02*
X60690000Y-65770000D01*
X70571113Y-39486250D02*
X70571113Y-51576137D01*
X129323000Y-29501000D02*
X129450000Y-29374000D01*
X64888000Y-54949750D02*
X62117500Y-54949750D01*
X70571113Y-51576137D02*
X71867863Y-51576137D01*
X82931000Y-22860000D02*
X122936000Y-22860000D01*
X78867000Y-60777976D02*
X79319976Y-60325000D01*
X129323000Y-46944000D02*
X129323000Y-29501000D01*
X92055000Y-81173000D02*
X90678000Y-82550000D01*
X80264000Y-25527000D02*
X82931000Y-22860000D01*
X71867863Y-51576137D02*
X80264000Y-43180000D01*
%TD*%
M02*
