M48
; DRILL file {KiCad 6.0.11+dfsg-1} date Tue 21 Mar 2023 07:32:50 PM -05
; FORMAT={-:-/ absolute / inch / decimal}
; #@! TF.CreationDate,2023-03-21T19:32:50-05:00
; #@! TF.GenerationSoftware,Kicad,Pcbnew,6.0.11+dfsg-1
; #@! TF.FileFunction,Plated,1,2,PTH
FMAT,2
INCH
; #@! TA.AperFunction,Plated,PTH,ComponentDrill
T1C0.0276
; #@! TA.AperFunction,Plated,PTH,ViaDrill
T2C0.0295
; #@! TA.AperFunction,Plated,PTH,ComponentDrill
T3C0.0315
; #@! TA.AperFunction,Plated,PTH,ComponentDrill
T4C0.0374
; #@! TA.AperFunction,Plated,PTH,ComponentDrill
T5C0.0394
; #@! TA.AperFunction,Plated,PTH,ComponentDrill
T6C0.0429
; #@! TA.AperFunction,Plated,PTH,ComponentDrill
T7C0.0520
; #@! TA.AperFunction,Plated,PTH,ComponentDrill
T8C0.1063
%
G90
G05
T1
X2.72Y-2.7461
X2.72Y-2.8461
T2
X2.675Y-2.17
X2.685Y-2.645
X2.78Y-1.685
X3.14Y-2.375
X3.512Y-1.678
X3.625Y-3.255
X4.165Y-2.95
X4.2Y-1.08
X4.351Y-3.256
X4.82Y-1.68
X4.8915Y-2.0385
X5.155Y-1.6
T3
X2.7784Y-1.5546
X2.8768Y-1.5546
T4
X2.5546Y-2.1634
X2.5546Y-2.2618
X2.5546Y-2.3602
X2.5546Y-2.6437
X2.5546Y-2.7421
X2.5546Y-2.8405
X3.9681Y-3.1068
X4.0666Y-3.1068
X4.165Y-3.1068
X4.2634Y-3.1068
X4.3619Y-3.1068
T5
X3.5258Y-3.1082
X3.6242Y-3.1082
X4.7915Y-1.8482
X4.7915Y-1.9482
X4.8915Y-1.8482
X4.8915Y-1.9482
X4.9915Y-1.8482
X4.9915Y-1.9482
X5.0915Y-1.8482
X5.0915Y-1.9482
T6
X3.3541Y-1.075
X3.3541Y-1.175
X3.3541Y-1.275
X3.3541Y-1.375
X3.3541Y-1.475
X3.3541Y-1.575
X3.3541Y-1.675
X3.3541Y-1.775
X3.3541Y-1.875
X3.3541Y-1.975
X3.3541Y-2.075
X3.3541Y-2.175
X3.3541Y-2.275
X3.3541Y-2.375
X3.3541Y-2.475
X4.3203Y-1.0781
X4.3203Y-1.1781
X4.3203Y-1.2781
X4.3203Y-1.3781
X4.3203Y-1.4781
X4.3203Y-1.5781
X4.3203Y-1.6781
X4.3203Y-1.7781
X4.3203Y-1.8781
X4.3203Y-1.9781
X4.3203Y-2.0781
X4.3203Y-2.1781
X4.3203Y-2.2781
X4.3203Y-2.3781
X4.3203Y-2.4781
T7
X2.7344Y-1.2043
X2.9312Y-1.2043
T8
X2.424Y-1.138
X2.424Y-3.228
X5.102Y-1.13
X5.102Y-3.22
T0
M30
