%TF.GenerationSoftware,KiCad,Pcbnew,6.0.11+dfsg-1*%
%TF.CreationDate,2023-04-26T14:23:15-05:00*%
%TF.ProjectId,water_tank_module,77617465-725f-4746-916e-6b5f6d6f6475,rev?*%
%TF.SameCoordinates,Original*%
%TF.FileFunction,Soldermask,Top*%
%TF.FilePolarity,Negative*%
%FSLAX46Y46*%
G04 Gerber Fmt 4.6, Leading zero omitted, Abs format (unit mm)*
G04 Created by KiCad (PCBNEW 6.0.11+dfsg-1) date 2023-04-26 14:23:15*
%MOMM*%
%LPD*%
G01*
G04 APERTURE LIST*
%ADD10R,5.000000X3.300000*%
%ADD11O,5.000000X3.300000*%
%ADD12R,3.500000X4.000000*%
%ADD13O,3.500000X4.000000*%
%ADD14C,5.400000*%
%ADD15R,2.000000X3.000000*%
%ADD16O,2.000000X3.000000*%
%ADD17R,3.000000X2.500000*%
%ADD18O,3.000000X2.500000*%
%ADD19R,2.540000X2.100000*%
%ADD20R,2.540000X1.740000*%
%ADD21R,2.540000X1.950000*%
%ADD22R,3.000000X3.960000*%
%ADD23O,3.000000X3.960000*%
%ADD24O,2.850000X2.025000*%
%ADD25R,2.540000X2.000000*%
G04 APERTURE END LIST*
D10*
%TO.C,J4*%
X123500000Y-103000000D03*
D11*
X123500000Y-98000000D03*
X123500000Y-93000000D03*
%TD*%
D10*
%TO.C,J2*%
X123642500Y-119857500D03*
D11*
X123642500Y-114857500D03*
X123642500Y-109857500D03*
%TD*%
D12*
%TO.C,J3*%
X175607500Y-124357500D03*
D13*
X170607500Y-124357500D03*
X165607500Y-124357500D03*
X160607500Y-124357500D03*
X155607500Y-124357500D03*
%TD*%
D14*
%TO.C,H2*%
X119750000Y-135000000D03*
%TD*%
D15*
%TO.C,U4*%
X194423000Y-91244000D03*
X194423000Y-94784000D03*
X191883000Y-91244000D03*
X191883000Y-94784000D03*
X189343000Y-91244000D03*
X189343000Y-94784000D03*
X186803000Y-91244000D03*
D16*
X186803000Y-94784000D03*
%TD*%
D17*
%TO.C,C1*%
X134099113Y-82999113D03*
D18*
X130549113Y-82999113D03*
%TD*%
D14*
%TO.C,H3*%
X195250000Y-71000000D03*
%TD*%
D19*
%TO.C,J_esp0*%
X150295000Y-72105000D03*
D20*
X150295000Y-74645000D03*
X150295000Y-77185000D03*
D21*
X150295000Y-79725000D03*
X150295000Y-82265000D03*
X150295000Y-84805000D03*
X150295000Y-87345000D03*
X150295000Y-89885000D03*
X150295000Y-92425000D03*
X150295000Y-94965000D03*
X150295000Y-97505000D03*
X150295000Y-100045000D03*
X150295000Y-102585000D03*
X150295000Y-105125000D03*
X150295000Y-107665000D03*
%TD*%
D22*
%TO.C,5V1*%
X134871800Y-73688063D03*
D23*
X129871800Y-73688063D03*
%TD*%
D14*
%TO.C,H4*%
X119750000Y-71000000D03*
%TD*%
%TO.C,H1*%
X195250000Y-135000000D03*
%TD*%
D12*
%TO.C,J1*%
X144892500Y-123892500D03*
D13*
X149892500Y-123892500D03*
%TD*%
D24*
%TO.C,R11*%
X134500000Y-114549750D03*
X134500000Y-117089750D03*
%TD*%
D25*
%TO.C,J_esp1*%
X174835500Y-107744000D03*
D21*
X174835500Y-105204000D03*
X174835500Y-102664000D03*
X174835500Y-100124000D03*
X174835500Y-97584000D03*
X174835500Y-95044000D03*
X174835500Y-92504000D03*
X174835500Y-89964000D03*
X174835500Y-87424000D03*
X174835500Y-84884000D03*
X174835500Y-82344000D03*
X174835500Y-79804000D03*
X174835500Y-77264000D03*
X174835500Y-74724000D03*
X174835500Y-72184000D03*
%TD*%
M02*
