M48
; DRILL file {KiCad 6.0.11+dfsg-1} date Wed 26 Apr 2023 02:23:19 PM -05
; FORMAT={-:-/ absolute / inch / decimal}
; #@! TF.CreationDate,2023-04-26T14:23:19-05:00
; #@! TF.GenerationSoftware,Kicad,Pcbnew,6.0.11+dfsg-1
; #@! TF.FileFunction,Plated,1,2,PTH
FMAT,2
INCH
; #@! TA.AperFunction,Plated,PTH,ComponentDrill
T1C0.0276
; #@! TA.AperFunction,Plated,PTH,ViaDrill
T2C0.0295
; #@! TA.AperFunction,Plated,PTH,ComponentDrill
T3C0.0315
; #@! TA.AperFunction,Plated,PTH,ComponentDrill
T4C0.0394
; #@! TA.AperFunction,Plated,PTH,ComponentDrill
T5C0.0429
; #@! TA.AperFunction,Plated,PTH,ComponentDrill
T6C0.0520
; #@! TA.AperFunction,Plated,PTH,ComponentDrill
T7C0.0591
; #@! TA.AperFunction,Plated,PTH,ComponentDrill
T8C0.1063
%
G90
G05
T1
X5.2953Y-4.5098
X5.2953Y-4.6098
T2
X5.1574Y-3.4449
X5.2896Y-3.8821
X5.291Y-4.3658
X5.4528Y-4.9803
X5.703Y-4.1388
X6.1762Y-3.6388
X6.3189Y-4.5472
X6.763Y-2.8438
X7.3031Y-4.9409
X7.383Y-3.4438
X7.4544Y-3.8954
X7.718Y-3.3638
T3
X5.1574Y-3.2677
X5.2559Y-3.2677
T4
X7.3544Y-3.612
X7.3544Y-3.712
X7.4544Y-3.612
X7.4544Y-3.712
X7.5544Y-3.612
X7.5544Y-3.712
X7.6544Y-3.612
X7.6544Y-3.712
T5
X5.9171Y-2.8388
X5.9171Y-2.9388
X5.9171Y-3.0388
X5.9171Y-3.1388
X5.9171Y-3.2388
X5.9171Y-3.3388
X5.9171Y-3.4388
X5.9171Y-3.5388
X5.9171Y-3.6388
X5.9171Y-3.7388
X5.9171Y-3.8388
X5.9171Y-3.9388
X5.9171Y-4.0388
X5.9171Y-4.1388
X5.9171Y-4.2388
X6.8833Y-2.8419
X6.8833Y-2.9419
X6.8833Y-3.0419
X6.8833Y-3.1419
X6.8833Y-3.2419
X6.8833Y-3.3419
X6.8833Y-3.4419
X6.8833Y-3.5419
X6.8833Y-3.6419
X6.8833Y-3.7419
X6.8833Y-3.8419
X6.8833Y-3.9419
X6.8833Y-4.0419
X6.8833Y-4.1419
X6.8833Y-4.2419
T6
X5.1131Y-2.9011
X5.3099Y-2.9011
T7
X4.8622Y-3.6614
X4.8622Y-3.8583
X4.8622Y-4.0551
X4.8678Y-4.3251
X4.8678Y-4.5219
X4.8678Y-4.7188
X5.7044Y-4.8777
X5.9013Y-4.8777
X6.1263Y-4.896
X6.3231Y-4.896
X6.52Y-4.896
X6.7168Y-4.896
X6.9137Y-4.896
T8
X4.7146Y-2.7953
X4.7146Y-5.315
X7.687Y-2.7953
X7.687Y-5.315
T0
M30
