M48
; DRILL file {KiCad 6.0.11+dfsg-1} date Mon 10 Apr 2023 11:40:42 AM -05
; FORMAT={-:-/ absolute / inch / decimal}
; #@! TF.CreationDate,2023-04-10T11:40:42-05:00
; #@! TF.GenerationSoftware,Kicad,Pcbnew,6.0.11+dfsg-1
; #@! TF.FileFunction,Plated,1,2,PTH
FMAT,2
INCH
; #@! TA.AperFunction,Plated,PTH,ComponentDrill
T1C0.0276
; #@! TA.AperFunction,Plated,PTH,ViaDrill
T2C0.0295
; #@! TA.AperFunction,Plated,PTH,ComponentDrill
T3C0.0315
; #@! TA.AperFunction,Plated,PTH,ComponentDrill
T4C0.0374
; #@! TA.AperFunction,Plated,PTH,ComponentDrill
T5C0.0394
; #@! TA.AperFunction,Plated,PTH,ComponentDrill
T6C0.0429
; #@! TA.AperFunction,Plated,PTH,ComponentDrill
T7C0.0520
; #@! TA.AperFunction,Plated,PTH,ComponentDrill
T8C0.1063
%
G90
G05
T1
X5.283Y-4.5098
X5.283Y-4.6098
T2
X5.238Y-3.9338
X5.248Y-4.4088
X5.343Y-3.4965
X5.703Y-4.1388
X6.1762Y-3.6388
X6.188Y-5.0188
X6.6299Y-4.7283
X6.763Y-2.8438
X6.914Y-5.0198
X7.383Y-3.4438
X7.4544Y-3.8954
X7.718Y-3.3638
T3
X5.3414Y-3.3184
X5.4398Y-3.3184
T4
X5.1176Y-3.9272
X5.1176Y-4.0256
X5.1176Y-4.124
X5.1176Y-4.4075
X5.1176Y-4.5059
X5.1176Y-4.6043
X6.5311Y-4.8706
X6.6296Y-4.8706
X6.728Y-4.8706
X6.8264Y-4.8706
X6.9248Y-4.8706
T5
X6.0888Y-4.872
X6.1872Y-4.872
X7.3544Y-3.612
X7.3544Y-3.712
X7.4544Y-3.612
X7.4544Y-3.712
X7.5544Y-3.612
X7.5544Y-3.712
X7.6544Y-3.612
X7.6544Y-3.712
T6
X5.9171Y-2.8388
X5.9171Y-2.9388
X5.9171Y-3.0388
X5.9171Y-3.1388
X5.9171Y-3.2388
X5.9171Y-3.3388
X5.9171Y-3.4388
X5.9171Y-3.5388
X5.9171Y-3.6388
X5.9171Y-3.7388
X5.9171Y-3.8388
X5.9171Y-3.9388
X5.9171Y-4.0388
X5.9171Y-4.1388
X5.9171Y-4.2388
X6.8833Y-2.8419
X6.8833Y-2.9419
X6.8833Y-3.0419
X6.8833Y-3.1419
X6.8833Y-3.2419
X6.8833Y-3.3419
X6.8833Y-3.4419
X6.8833Y-3.5419
X6.8833Y-3.6419
X6.8833Y-3.7419
X6.8833Y-3.8419
X6.8833Y-3.9419
X6.8833Y-4.0419
X6.8833Y-4.1419
X6.8833Y-4.2419
T7
X5.297Y-2.9518
X5.4939Y-2.9518
T8
X4.9902Y-2.7953
X4.9902Y-4.9803
X7.687Y-2.7953
X7.687Y-4.9803
T0
M30
