%TF.GenerationSoftware,KiCad,Pcbnew,6.0.11+dfsg-1*%
%TF.CreationDate,2023-03-21T19:32:47-05:00*%
%TF.ProjectId,water_tank_module,77617465-725f-4746-916e-6b5f6d6f6475,rev?*%
%TF.SameCoordinates,Original*%
%TF.FileFunction,Copper,L2,Bot*%
%TF.FilePolarity,Positive*%
%FSLAX46Y46*%
G04 Gerber Fmt 4.6, Leading zero omitted, Abs format (unit mm)*
G04 Created by KiCad (PCBNEW 6.0.11+dfsg-1) date 2023-03-21 19:32:47*
%MOMM*%
%LPD*%
G01*
G04 APERTURE LIST*
G04 Aperture macros list*
%AMRoundRect*
0 Rectangle with rounded corners*
0 $1 Rounding radius*
0 $2 $3 $4 $5 $6 $7 $8 $9 X,Y pos of 4 corners*
0 Add a 4 corners polygon primitive as box body*
4,1,4,$2,$3,$4,$5,$6,$7,$8,$9,$2,$3,0*
0 Add four circle primitives for the rounded corners*
1,1,$1+$1,$2,$3*
1,1,$1+$1,$4,$5*
1,1,$1+$1,$6,$7*
1,1,$1+$1,$8,$9*
0 Add four rect primitives between the rounded corners*
20,1,$1+$1,$2,$3,$4,$5,0*
20,1,$1+$1,$4,$5,$6,$7,0*
20,1,$1+$1,$6,$7,$8,$9,0*
20,1,$1+$1,$8,$9,$2,$3,0*%
G04 Aperture macros list end*
%ADD10C,0.300000*%
%TA.AperFunction,NonConductor*%
%ADD11C,0.300000*%
%TD*%
%TA.AperFunction,ComponentPad*%
%ADD12C,5.400000*%
%TD*%
%TA.AperFunction,ComponentPad*%
%ADD13RoundRect,0.250000X-0.600000X-1.250000X0.600000X-1.250000X0.600000X1.250000X-0.600000X1.250000X0*%
%TD*%
%TA.AperFunction,ComponentPad*%
%ADD14O,1.700000X3.000000*%
%TD*%
%TA.AperFunction,ComponentPad*%
%ADD15RoundRect,0.286765X-1.213235X0.688235X-1.213235X-0.688235X1.213235X-0.688235X1.213235X0.688235X0*%
%TD*%
%TA.AperFunction,ComponentPad*%
%ADD16O,3.000000X1.950000*%
%TD*%
%TA.AperFunction,ComponentPad*%
%ADD17R,2.000000X2.000000*%
%TD*%
%TA.AperFunction,ComponentPad*%
%ADD18C,1.700000*%
%TD*%
%TA.AperFunction,ComponentPad*%
%ADD19R,1.800000X1.800000*%
%TD*%
%TA.AperFunction,ComponentPad*%
%ADD20C,1.900000*%
%TD*%
%TA.AperFunction,ComponentPad*%
%ADD21RoundRect,0.250000X-1.020000X0.620000X-1.020000X-0.620000X1.020000X-0.620000X1.020000X0.620000X0*%
%TD*%
%TA.AperFunction,ComponentPad*%
%ADD22R,2.540000X1.740000*%
%TD*%
%TA.AperFunction,ComponentPad*%
%ADD23R,3.000000X3.960000*%
%TD*%
%TA.AperFunction,ComponentPad*%
%ADD24O,3.000000X3.960000*%
%TD*%
%TA.AperFunction,ComponentPad*%
%ADD25C,2.000000*%
%TD*%
%TA.AperFunction,ComponentPad*%
%ADD26O,2.000000X2.000000*%
%TD*%
%TA.AperFunction,ComponentPad*%
%ADD27RoundRect,0.250000X1.020000X-0.620000X1.020000X0.620000X-1.020000X0.620000X-1.020000X-0.620000X0*%
%TD*%
%TA.AperFunction,ViaPad*%
%ADD28C,1.250000*%
%TD*%
%TA.AperFunction,ViaPad*%
%ADD29C,1.500000*%
%TD*%
%TA.AperFunction,Conductor*%
%ADD30C,1.250000*%
%TD*%
G04 APERTURE END LIST*
D10*
D11*
X99988285Y-34436857D02*
X99488285Y-34436857D01*
X99274000Y-35222571D02*
X99988285Y-35222571D01*
X99988285Y-33722571D01*
X99274000Y-33722571D01*
X98702571Y-35151142D02*
X98488285Y-35222571D01*
X98131142Y-35222571D01*
X97988285Y-35151142D01*
X97916857Y-35079714D01*
X97845428Y-34936857D01*
X97845428Y-34794000D01*
X97916857Y-34651142D01*
X97988285Y-34579714D01*
X98131142Y-34508285D01*
X98416857Y-34436857D01*
X98559714Y-34365428D01*
X98631142Y-34294000D01*
X98702571Y-34151142D01*
X98702571Y-34008285D01*
X98631142Y-33865428D01*
X98559714Y-33794000D01*
X98416857Y-33722571D01*
X98059714Y-33722571D01*
X97845428Y-33794000D01*
X97202571Y-35222571D02*
X97202571Y-33722571D01*
X96631142Y-33722571D01*
X96488285Y-33794000D01*
X96416857Y-33865428D01*
X96345428Y-34008285D01*
X96345428Y-34222571D01*
X96416857Y-34365428D01*
X96488285Y-34436857D01*
X96631142Y-34508285D01*
X97202571Y-34508285D01*
X95845428Y-33722571D02*
X94916857Y-33722571D01*
X95416857Y-34294000D01*
X95202571Y-34294000D01*
X95059714Y-34365428D01*
X94988285Y-34436857D01*
X94916857Y-34579714D01*
X94916857Y-34936857D01*
X94988285Y-35079714D01*
X95059714Y-35151142D01*
X95202571Y-35222571D01*
X95631142Y-35222571D01*
X95774000Y-35151142D01*
X95845428Y-35079714D01*
X94345428Y-33865428D02*
X94274000Y-33794000D01*
X94131142Y-33722571D01*
X93774000Y-33722571D01*
X93631142Y-33794000D01*
X93559714Y-33865428D01*
X93488285Y-34008285D01*
X93488285Y-34151142D01*
X93559714Y-34365428D01*
X94416857Y-35222571D01*
X93488285Y-35222571D01*
D12*
%TO.P,H4,1*%
%TO.N,N/C*%
X61569600Y-28905200D03*
%TD*%
D13*
%TO.P,J2,1,Pin_1*%
%TO.N,D26*%
X89555000Y-78948000D03*
D14*
%TO.P,J2,2,Pin_2*%
%TO.N,GND5V*%
X92055000Y-78948000D03*
%TD*%
D13*
%TO.P,J1,1,Pin_1*%
%TO.N,D25*%
X100791000Y-78913000D03*
D14*
%TO.P,J1,2,Pin_2*%
%TO.N,D32*%
X103291000Y-78913000D03*
%TO.P,J1,3,Pin_3*%
%TO.N,D33*%
X105791000Y-78913000D03*
%TO.P,J1,4,Pin_4*%
%TO.N,D34*%
X108291000Y-78913000D03*
%TO.P,J1,5,Pin_5*%
%TO.N,GND5V*%
X110791000Y-78913000D03*
%TD*%
D12*
%TO.P,H2,1*%
%TO.N,N/C*%
X61569600Y-81991200D03*
%TD*%
D15*
%TO.P,J_EC1,1,Pin_1*%
%TO.N,GND5V*%
X64888000Y-54949750D03*
D16*
%TO.P,J_EC1,2,Pin_2*%
%TO.N,5v*%
X64888000Y-57449750D03*
%TO.P,J_EC1,3,Pin_3*%
%TO.N,D34*%
X64888000Y-59949750D03*
%TD*%
D17*
%TO.P,U4,1,GND*%
%TO.N,GND5V*%
X129323000Y-46944000D03*
%TO.P,U4,2,VCC*%
%TO.N,5v*%
X129323000Y-49484000D03*
%TO.P,U4,3,CE*%
%TO.N,D4*%
X126783000Y-46944000D03*
%TO.P,U4,4,~{CSN}*%
%TO.N,D5*%
X126783000Y-49484000D03*
%TO.P,U4,5,SCK*%
%TO.N,D18*%
X124243000Y-46944000D03*
%TO.P,U4,6,MOSI*%
%TO.N,D23*%
X124243000Y-49484000D03*
%TO.P,U4,7,MISO*%
%TO.N,D19*%
X121703000Y-46944000D03*
D18*
%TO.P,U4,8,IRQ*%
%TO.N,unconnected-(U4-Pad8)*%
X121703000Y-49484000D03*
%TD*%
D19*
%TO.P,C1,1*%
%TO.N,5v*%
X73071113Y-39486250D03*
D20*
%TO.P,C1,2*%
%TO.N,GND5V*%
X70571113Y-39486250D03*
%TD*%
D15*
%TO.P,J_DS18,1,Pin_1*%
%TO.N,GND5V*%
X64888000Y-67149750D03*
D16*
%TO.P,J_DS18,2,Pin_2*%
%TO.N,5v*%
X64888000Y-69649750D03*
%TO.P,J_DS18,3,Pin_3*%
%TO.N,D35*%
X64888000Y-72149750D03*
%TD*%
D12*
%TO.P,H3,1*%
%TO.N,N/C*%
X129590800Y-28702000D03*
%TD*%
D21*
%TO.P,J_esp0,1,Pin_1*%
%TO.N,EN*%
X85195000Y-27305000D03*
D22*
%TO.P,J_esp0,2,Pin_2*%
%TO.N,VP*%
X85195000Y-29845000D03*
%TO.P,J_esp0,3,Pin_3*%
%TO.N,VN*%
X85195000Y-32385000D03*
%TO.P,J_esp0,4,Pin_4*%
%TO.N,D34*%
X85195000Y-34925000D03*
%TO.P,J_esp0,5,Pin_5*%
%TO.N,D35*%
X85195000Y-37465000D03*
%TO.P,J_esp0,6,Pin_6*%
%TO.N,D32*%
X85195000Y-40005000D03*
%TO.P,J_esp0,7,Pin_7*%
%TO.N,D33*%
X85195000Y-42545000D03*
%TO.P,J_esp0,8,Pin_8*%
%TO.N,D25*%
X85195000Y-45085000D03*
%TO.P,J_esp0,9,Pin_9*%
%TO.N,D26*%
X85195000Y-47625000D03*
%TO.P,J_esp0,10,Pin_10*%
%TO.N,D27*%
X85195000Y-50165000D03*
%TO.P,J_esp0,11,Pin_11*%
%TO.N,D14*%
X85195000Y-52705000D03*
%TO.P,J_esp0,12,Pin_12*%
%TO.N,D12*%
X85195000Y-55245000D03*
%TO.P,J_esp0,13,Pin_13*%
%TO.N,D13*%
X85195000Y-57785000D03*
%TO.P,J_esp0,14,Pin_14*%
%TO.N,GND5V*%
X85195000Y-60325000D03*
%TO.P,J_esp0,15,Pin_15*%
%TO.N,5v*%
X85195000Y-62865000D03*
%TD*%
D23*
%TO.P,5V1,1,Pin_1*%
%TO.N,5v*%
X74453000Y-30590250D03*
D24*
%TO.P,5V1,2,Pin_2*%
%TO.N,GND5V*%
X69453000Y-30590250D03*
%TD*%
D12*
%TO.P,H1,1*%
%TO.N,N/C*%
X129590800Y-81788000D03*
%TD*%
D25*
%TO.P,R11,1*%
%TO.N,5v*%
X69088000Y-69749750D03*
D26*
%TO.P,R11,2*%
%TO.N,D35*%
X69088000Y-72289750D03*
%TD*%
D27*
%TO.P,J_esp1,1,Pin_1*%
%TO.N,3V3*%
X109735500Y-62944000D03*
D22*
%TO.P,J_esp1,2,Pin_2*%
%TO.N,GND2*%
X109735500Y-60404000D03*
%TO.P,J_esp1,3,Pin_3*%
%TO.N,D15*%
X109735500Y-57864000D03*
%TO.P,J_esp1,4,Pin_4*%
%TO.N,D2*%
X109735500Y-55324000D03*
%TO.P,J_esp1,5,Pin_5*%
%TO.N,D4*%
X109735500Y-52784000D03*
%TO.P,J_esp1,6,Pin_6*%
%TO.N,RX2*%
X109735500Y-50244000D03*
%TO.P,J_esp1,7,Pin_7*%
%TO.N,TX2*%
X109735500Y-47704000D03*
%TO.P,J_esp1,8,Pin_8*%
%TO.N,D5*%
X109735500Y-45164000D03*
%TO.P,J_esp1,9,Pin_9*%
%TO.N,D18*%
X109735500Y-42624000D03*
%TO.P,J_esp1,10,Pin_10*%
%TO.N,D19*%
X109735500Y-40084000D03*
%TO.P,J_esp1,11,Pin_11*%
%TO.N,D21*%
X109735500Y-37544000D03*
%TO.P,J_esp1,12,Pin_12*%
%TO.N,RX0*%
X109735500Y-35004000D03*
%TO.P,J_esp1,13,Pin_13*%
%TO.N,TX0*%
X109735500Y-32464000D03*
%TO.P,J_esp1,14,Pin_14*%
%TO.N,D22*%
X109735500Y-29924000D03*
%TO.P,J_esp1,15,Pin_15*%
%TO.N,D23*%
X109735500Y-27384000D03*
%TD*%
D28*
%TO.N,D33*%
X89204800Y-42621200D03*
X105791000Y-74930000D03*
%TO.N,D18*%
X122428000Y-42672000D03*
%TO.N,D23*%
X124243000Y-51779000D03*
X106680000Y-27432000D03*
D29*
%TO.N,GND5V*%
X67945000Y-55118000D03*
X70612000Y-42799000D03*
X110515400Y-82702400D03*
X130937000Y-40640000D03*
X79756000Y-60325000D03*
X68199000Y-67183000D03*
X92075000Y-82677000D03*
%TD*%
D30*
%TO.N,D32*%
X85195000Y-40005000D02*
X90398600Y-40005000D01*
X90398600Y-40005000D02*
X95758000Y-45364400D01*
X95758000Y-45364400D02*
X95758000Y-68199000D01*
X95758000Y-68199000D02*
X103291000Y-75732000D01*
X103291000Y-75732000D02*
X103291000Y-78913000D01*
%TO.N,D33*%
X89204800Y-42621200D02*
X85271200Y-42621200D01*
X85271200Y-42621200D02*
X85195000Y-42545000D01*
%TO.N,D35*%
X69088000Y-72289750D02*
X65028000Y-72289750D01*
X65028000Y-72289750D02*
X64888000Y-72149750D01*
%TO.N,GND5V*%
X110791000Y-82426800D02*
X110791000Y-78913000D01*
X110515400Y-82702400D02*
X110791000Y-82426800D01*
%TO.N,D34*%
X80518000Y-34925000D02*
X85195000Y-34925000D01*
X98425000Y-64262000D02*
X98425000Y-43942000D01*
X76708000Y-38735000D02*
X80518000Y-34925000D01*
X67304250Y-59949750D02*
X76708000Y-50546000D01*
X98425000Y-43942000D02*
X89408000Y-34925000D01*
X64888000Y-59949750D02*
X67304250Y-59949750D01*
X108291000Y-78913000D02*
X108291000Y-74128000D01*
X76708000Y-50546000D02*
X76708000Y-38735000D01*
X108291000Y-74128000D02*
X98425000Y-64262000D01*
X89408000Y-34925000D02*
X85195000Y-34925000D01*
%TO.N,D35*%
X78994000Y-41275000D02*
X82804000Y-37465000D01*
X75311000Y-55626000D02*
X78994000Y-51943000D01*
X70712250Y-72289750D02*
X75311000Y-67691000D01*
X78994000Y-51943000D02*
X78994000Y-41275000D01*
X82804000Y-37465000D02*
X85195000Y-37465000D01*
X70712250Y-72289750D02*
X69088000Y-72289750D01*
X75311000Y-67691000D02*
X75311000Y-55626000D01*
%TO.N,D33*%
X105791000Y-78913000D02*
X105791000Y-74930000D01*
%TO.N,D25*%
X92710000Y-70358000D02*
X92710000Y-49276000D01*
X92710000Y-49276000D02*
X88519000Y-45085000D01*
X88519000Y-45085000D02*
X85195000Y-45085000D01*
X100791000Y-78439000D02*
X92710000Y-70358000D01*
X100791000Y-78913000D02*
X100791000Y-78439000D01*
%TO.N,D26*%
X87376000Y-47625000D02*
X89408000Y-49657000D01*
X85195000Y-47625000D02*
X87376000Y-47625000D01*
X89408000Y-78801000D02*
X89555000Y-78948000D01*
X89408000Y-49657000D02*
X89408000Y-78801000D01*
%TO.N,D4*%
X104902000Y-22733000D02*
X113106200Y-22733000D01*
X102108000Y-25527000D02*
X104902000Y-22733000D01*
X126783000Y-36409800D02*
X126783000Y-46944000D01*
X102108000Y-48768000D02*
X102108000Y-25527000D01*
X113106200Y-22733000D02*
X126783000Y-36409800D01*
X109735500Y-52784000D02*
X106124000Y-52784000D01*
X106124000Y-52784000D02*
X102108000Y-48768000D01*
%TO.N,D5*%
X126783000Y-53938000D02*
X125476000Y-55245000D01*
X125476000Y-55245000D02*
X120396000Y-55245000D01*
X114681000Y-49530000D02*
X114681000Y-46990000D01*
X126783000Y-49484000D02*
X126783000Y-53938000D01*
X120396000Y-55245000D02*
X114681000Y-49530000D01*
X114681000Y-46990000D02*
X112855000Y-45164000D01*
X112855000Y-45164000D02*
X109735500Y-45164000D01*
%TO.N,D18*%
X124243000Y-46944000D02*
X124243000Y-44487000D01*
X124243000Y-44487000D02*
X122428000Y-42672000D01*
%TO.N,D19*%
X121703000Y-46900000D02*
X114887000Y-40084000D01*
X114887000Y-40084000D02*
X109735500Y-40084000D01*
X109737500Y-40086000D02*
X109735500Y-40084000D01*
%TO.N,D23*%
X106728000Y-27384000D02*
X106680000Y-27432000D01*
X124243000Y-49484000D02*
X124243000Y-51779000D01*
X109735500Y-27384000D02*
X106728000Y-27384000D01*
%TO.N,5v*%
X69088000Y-49403000D02*
X64389000Y-49403000D01*
X60960000Y-74168000D02*
X62992000Y-76200000D01*
X62402750Y-57449750D02*
X60833000Y-55880000D01*
X116332000Y-85090000D02*
X129323000Y-72099000D01*
X74453000Y-38169250D02*
X74453000Y-30590250D01*
X85195000Y-70380000D02*
X85195000Y-62865000D01*
X73071113Y-45419887D02*
X69088000Y-49403000D01*
X64888000Y-69649750D02*
X62176250Y-69649750D01*
X62992000Y-76200000D02*
X79375000Y-76200000D01*
X79375000Y-76200000D02*
X88265000Y-85090000D01*
X60833000Y-67294750D02*
X63188000Y-69649750D01*
X60833000Y-52959000D02*
X60833000Y-55880000D01*
X129323000Y-72099000D02*
X129323000Y-49484000D01*
X69088000Y-69749750D02*
X64988000Y-69749750D01*
X60960000Y-70866000D02*
X60960000Y-74168000D01*
X64389000Y-49403000D02*
X60833000Y-52959000D01*
X79375000Y-76200000D02*
X85217000Y-70358000D01*
X73071113Y-39486250D02*
X73071113Y-45419887D01*
X62176250Y-69649750D02*
X60960000Y-70866000D01*
X73136000Y-39486250D02*
X74453000Y-38169250D01*
X88265000Y-85090000D02*
X116332000Y-85090000D01*
X64888000Y-57449750D02*
X62402750Y-57449750D01*
X60833000Y-55880000D02*
X60833000Y-67294750D01*
%TO.N,GND5V*%
X68199000Y-67183000D02*
X64921250Y-67183000D01*
X92055000Y-82657000D02*
X92075000Y-82677000D01*
X110871000Y-78833000D02*
X110791000Y-78913000D01*
X70612000Y-42799000D02*
X70612000Y-39527137D01*
X69072000Y-37987137D02*
X69072000Y-30971250D01*
X65056250Y-55118000D02*
X64888000Y-54949750D01*
X64921250Y-67183000D02*
X64888000Y-67149750D01*
X70571113Y-39486250D02*
X69072000Y-37987137D01*
X130937000Y-40640000D02*
X129286000Y-42291000D01*
X79756000Y-60325000D02*
X85195000Y-60325000D01*
X129286000Y-46907000D02*
X129323000Y-46944000D01*
X67945000Y-55118000D02*
X65056250Y-55118000D01*
X70612000Y-39527137D02*
X70571113Y-39486250D01*
X129286000Y-42291000D02*
X129286000Y-46907000D01*
X92055000Y-78948000D02*
X92055000Y-82657000D01*
%TD*%
M02*
