%TF.GenerationSoftware,KiCad,Pcbnew,6.0.11+dfsg-1*%
%TF.CreationDate,2023-04-18T18:14:18-05:00*%
%TF.ProjectId,water_tank_module,77617465-725f-4746-916e-6b5f6d6f6475,rev?*%
%TF.SameCoordinates,Original*%
%TF.FileFunction,Soldermask,Bot*%
%TF.FilePolarity,Negative*%
%FSLAX46Y46*%
G04 Gerber Fmt 4.6, Leading zero omitted, Abs format (unit mm)*
G04 Created by KiCad (PCBNEW 6.0.11+dfsg-1) date 2023-04-18 18:14:18*
%MOMM*%
%LPD*%
G01*
G04 APERTURE LIST*
%ADD10R,1.900000X3.000000*%
%ADD11O,1.900000X3.000000*%
%ADD12O,1.950000X3.000000*%
%ADD13C,5.400000*%
%ADD14R,3.000000X1.950000*%
%ADD15O,3.000000X1.950000*%
%ADD16R,2.000000X3.000000*%
%ADD17O,2.000000X3.000000*%
%ADD18R,1.800000X1.800000*%
%ADD19C,1.900000*%
%ADD20R,2.540000X2.100000*%
%ADD21R,2.540000X1.740000*%
%ADD22R,2.540000X1.950000*%
%ADD23R,3.000000X3.960000*%
%ADD24O,3.000000X3.960000*%
%ADD25O,2.850000X2.025000*%
%ADD26R,2.540000X2.000000*%
G04 APERTURE END LIST*
D10*
%TO.C,J2*%
X154655000Y-123748000D03*
D11*
X157155000Y-123748000D03*
%TD*%
D10*
%TO.C,J1*%
X165891000Y-123713000D03*
D12*
X168391000Y-123713000D03*
X170891000Y-123713000D03*
X173391000Y-123713000D03*
X175891000Y-123713000D03*
%TD*%
D13*
%TO.C,H2*%
X126750000Y-126500000D03*
%TD*%
D14*
%TO.C,J_EC1*%
X129988000Y-99749750D03*
D15*
X129988000Y-102249750D03*
X129988000Y-104749750D03*
%TD*%
D16*
%TO.C,U4*%
X194423000Y-91244000D03*
X194423000Y-94784000D03*
X191883000Y-91244000D03*
X191883000Y-94784000D03*
X189343000Y-91244000D03*
X189343000Y-94784000D03*
X186803000Y-91244000D03*
D17*
X186803000Y-94784000D03*
%TD*%
D18*
%TO.C,C1*%
X138171113Y-84286250D03*
D19*
X135671113Y-84286250D03*
%TD*%
D14*
%TO.C,J_DS18*%
X129988000Y-111949750D03*
D15*
X129988000Y-114449750D03*
X129988000Y-116949750D03*
%TD*%
D13*
%TO.C,H3*%
X195250000Y-71000000D03*
%TD*%
D20*
%TO.C,J_esp0*%
X150295000Y-72105000D03*
D21*
X150295000Y-74645000D03*
X150295000Y-77185000D03*
D22*
X150295000Y-79725000D03*
X150295000Y-82265000D03*
X150295000Y-84805000D03*
X150295000Y-87345000D03*
X150295000Y-89885000D03*
X150295000Y-92425000D03*
X150295000Y-94965000D03*
X150295000Y-97505000D03*
X150295000Y-100045000D03*
X150295000Y-102585000D03*
X150295000Y-105125000D03*
X150295000Y-107665000D03*
%TD*%
D23*
%TO.C,5V1*%
X139543800Y-74975200D03*
D24*
X134543800Y-74975200D03*
%TD*%
D13*
%TO.C,H4*%
X126750000Y-71000000D03*
%TD*%
%TO.C,H1*%
X195250000Y-126500000D03*
%TD*%
D25*
%TO.C,R11*%
X134188000Y-114549750D03*
X134188000Y-117089750D03*
%TD*%
D26*
%TO.C,J_esp1*%
X174835500Y-107744000D03*
D22*
X174835500Y-105204000D03*
X174835500Y-102664000D03*
X174835500Y-100124000D03*
X174835500Y-97584000D03*
X174835500Y-95044000D03*
X174835500Y-92504000D03*
X174835500Y-89964000D03*
X174835500Y-87424000D03*
X174835500Y-84884000D03*
X174835500Y-82344000D03*
X174835500Y-79804000D03*
X174835500Y-77264000D03*
X174835500Y-74724000D03*
X174835500Y-72184000D03*
%TD*%
M02*
