%TF.GenerationSoftware,KiCad,Pcbnew,6.0.11+dfsg-1*%
%TF.CreationDate,2023-03-21T19:32:48-05:00*%
%TF.ProjectId,water_tank_module,77617465-725f-4746-916e-6b5f6d6f6475,rev?*%
%TF.SameCoordinates,Original*%
%TF.FileFunction,Legend,Top*%
%TF.FilePolarity,Positive*%
%FSLAX46Y46*%
G04 Gerber Fmt 4.6, Leading zero omitted, Abs format (unit mm)*
G04 Created by KiCad (PCBNEW 6.0.11+dfsg-1) date 2023-03-21 19:32:48*
%MOMM*%
%LPD*%
G01*
G04 APERTURE LIST*
%ADD10C,0.150000*%
%ADD11C,0.120000*%
G04 APERTURE END LIST*
D10*
%TO.C,H4*%
X60807695Y-25657580D02*
X60807695Y-24657580D01*
X60807695Y-25133771D02*
X61379123Y-25133771D01*
X61379123Y-25657580D02*
X61379123Y-24657580D01*
X62283885Y-24990914D02*
X62283885Y-25657580D01*
X62045790Y-24609961D02*
X61807695Y-25324247D01*
X62426742Y-25324247D01*
%TO.C,J2*%
X90471666Y-75600380D02*
X90471666Y-76314666D01*
X90424047Y-76457523D01*
X90328809Y-76552761D01*
X90185952Y-76600380D01*
X90090714Y-76600380D01*
X90900238Y-75695619D02*
X90947857Y-75648000D01*
X91043095Y-75600380D01*
X91281190Y-75600380D01*
X91376428Y-75648000D01*
X91424047Y-75695619D01*
X91471666Y-75790857D01*
X91471666Y-75886095D01*
X91424047Y-76028952D01*
X90852619Y-76600380D01*
X91471666Y-76600380D01*
%TO.C,J1*%
X105457666Y-75565380D02*
X105457666Y-76279666D01*
X105410047Y-76422523D01*
X105314809Y-76517761D01*
X105171952Y-76565380D01*
X105076714Y-76565380D01*
X106457666Y-76565380D02*
X105886238Y-76565380D01*
X106171952Y-76565380D02*
X106171952Y-75565380D01*
X106076714Y-75708238D01*
X105981476Y-75803476D01*
X105886238Y-75851095D01*
%TO.C,H2*%
X60807695Y-78743580D02*
X60807695Y-77743580D01*
X60807695Y-78219771D02*
X61379123Y-78219771D01*
X61379123Y-78743580D02*
X61379123Y-77743580D01*
X61807695Y-77838819D02*
X61855314Y-77791200D01*
X61950552Y-77743580D01*
X62188647Y-77743580D01*
X62283885Y-77791200D01*
X62331504Y-77838819D01*
X62379123Y-77934057D01*
X62379123Y-78029295D01*
X62331504Y-78172152D01*
X61760076Y-78743580D01*
X62379123Y-78743580D01*
%TO.C,J_EC1*%
X59140380Y-58016416D02*
X59854666Y-58016416D01*
X59997523Y-58064035D01*
X60092761Y-58159273D01*
X60140380Y-58302130D01*
X60140380Y-58397369D01*
X60235619Y-57778321D02*
X60235619Y-57016416D01*
X59616571Y-56778321D02*
X59616571Y-56444988D01*
X60140380Y-56302130D02*
X60140380Y-56778321D01*
X59140380Y-56778321D01*
X59140380Y-56302130D01*
X60045142Y-55302130D02*
X60092761Y-55349750D01*
X60140380Y-55492607D01*
X60140380Y-55587845D01*
X60092761Y-55730702D01*
X59997523Y-55825940D01*
X59902285Y-55873559D01*
X59711809Y-55921178D01*
X59568952Y-55921178D01*
X59378476Y-55873559D01*
X59283238Y-55825940D01*
X59188000Y-55730702D01*
X59140380Y-55587845D01*
X59140380Y-55492607D01*
X59188000Y-55349750D01*
X59235619Y-55302130D01*
X60140380Y-54349750D02*
X60140380Y-54921178D01*
X60140380Y-54635464D02*
X59140380Y-54635464D01*
X59283238Y-54730702D01*
X59378476Y-54825940D01*
X59426095Y-54921178D01*
%TO.C,U4*%
X126325380Y-60197904D02*
X127134904Y-60197904D01*
X127230142Y-60150285D01*
X127277761Y-60102666D01*
X127325380Y-60007428D01*
X127325380Y-59816952D01*
X127277761Y-59721714D01*
X127230142Y-59674095D01*
X127134904Y-59626476D01*
X126325380Y-59626476D01*
X126658714Y-58721714D02*
X127325380Y-58721714D01*
X126277761Y-58959809D02*
X126992047Y-59197904D01*
X126992047Y-58578857D01*
%TO.C,C1*%
X71654446Y-43593392D02*
X71606827Y-43641011D01*
X71463970Y-43688630D01*
X71368732Y-43688630D01*
X71225874Y-43641011D01*
X71130636Y-43545773D01*
X71083017Y-43450535D01*
X71035398Y-43260059D01*
X71035398Y-43117202D01*
X71083017Y-42926726D01*
X71130636Y-42831488D01*
X71225874Y-42736250D01*
X71368732Y-42688630D01*
X71463970Y-42688630D01*
X71606827Y-42736250D01*
X71654446Y-42783869D01*
X72606827Y-43688630D02*
X72035398Y-43688630D01*
X72321113Y-43688630D02*
X72321113Y-42688630D01*
X72225874Y-42831488D01*
X72130636Y-42926726D01*
X72035398Y-42974345D01*
%TO.C,J_DS18*%
X59340380Y-70516416D02*
X60054666Y-70516416D01*
X60197523Y-70564035D01*
X60292761Y-70659273D01*
X60340380Y-70802130D01*
X60340380Y-70897369D01*
X60435619Y-70278321D02*
X60435619Y-69516416D01*
X60340380Y-69278321D02*
X59340380Y-69278321D01*
X59340380Y-69040226D01*
X59388000Y-68897369D01*
X59483238Y-68802130D01*
X59578476Y-68754511D01*
X59768952Y-68706892D01*
X59911809Y-68706892D01*
X60102285Y-68754511D01*
X60197523Y-68802130D01*
X60292761Y-68897369D01*
X60340380Y-69040226D01*
X60340380Y-69278321D01*
X60292761Y-68325940D02*
X60340380Y-68183083D01*
X60340380Y-67944988D01*
X60292761Y-67849750D01*
X60245142Y-67802130D01*
X60149904Y-67754511D01*
X60054666Y-67754511D01*
X59959428Y-67802130D01*
X59911809Y-67849750D01*
X59864190Y-67944988D01*
X59816571Y-68135464D01*
X59768952Y-68230702D01*
X59721333Y-68278321D01*
X59626095Y-68325940D01*
X59530857Y-68325940D01*
X59435619Y-68278321D01*
X59388000Y-68230702D01*
X59340380Y-68135464D01*
X59340380Y-67897369D01*
X59388000Y-67754511D01*
X60340380Y-66802130D02*
X60340380Y-67373559D01*
X60340380Y-67087845D02*
X59340380Y-67087845D01*
X59483238Y-67183083D01*
X59578476Y-67278321D01*
X59626095Y-67373559D01*
X59768952Y-66230702D02*
X59721333Y-66325940D01*
X59673714Y-66373559D01*
X59578476Y-66421178D01*
X59530857Y-66421178D01*
X59435619Y-66373559D01*
X59388000Y-66325940D01*
X59340380Y-66230702D01*
X59340380Y-66040226D01*
X59388000Y-65944988D01*
X59435619Y-65897369D01*
X59530857Y-65849750D01*
X59578476Y-65849750D01*
X59673714Y-65897369D01*
X59721333Y-65944988D01*
X59768952Y-66040226D01*
X59768952Y-66230702D01*
X59816571Y-66325940D01*
X59864190Y-66373559D01*
X59959428Y-66421178D01*
X60149904Y-66421178D01*
X60245142Y-66373559D01*
X60292761Y-66325940D01*
X60340380Y-66230702D01*
X60340380Y-66040226D01*
X60292761Y-65944988D01*
X60245142Y-65897369D01*
X60149904Y-65849750D01*
X59959428Y-65849750D01*
X59864190Y-65897369D01*
X59816571Y-65944988D01*
X59768952Y-66040226D01*
%TO.C,H3*%
X128828895Y-25454380D02*
X128828895Y-24454380D01*
X128828895Y-24930571D02*
X129400323Y-24930571D01*
X129400323Y-25454380D02*
X129400323Y-24454380D01*
X129781276Y-24454380D02*
X130400323Y-24454380D01*
X130066990Y-24835333D01*
X130209847Y-24835333D01*
X130305085Y-24882952D01*
X130352704Y-24930571D01*
X130400323Y-25025809D01*
X130400323Y-25263904D01*
X130352704Y-25359142D01*
X130305085Y-25406761D01*
X130209847Y-25454380D01*
X129924133Y-25454380D01*
X129828895Y-25406761D01*
X129781276Y-25359142D01*
%TO.C,J_esp0*%
X90129880Y-47545000D02*
X90844166Y-47545000D01*
X90987023Y-47592619D01*
X91082261Y-47687857D01*
X91129880Y-47830714D01*
X91129880Y-47925952D01*
X91225119Y-47306904D02*
X91225119Y-46545000D01*
X91082261Y-45925952D02*
X91129880Y-46021190D01*
X91129880Y-46211666D01*
X91082261Y-46306904D01*
X90987023Y-46354523D01*
X90606071Y-46354523D01*
X90510833Y-46306904D01*
X90463214Y-46211666D01*
X90463214Y-46021190D01*
X90510833Y-45925952D01*
X90606071Y-45878333D01*
X90701309Y-45878333D01*
X90796547Y-46354523D01*
X91082261Y-45497380D02*
X91129880Y-45402142D01*
X91129880Y-45211666D01*
X91082261Y-45116428D01*
X90987023Y-45068809D01*
X90939404Y-45068809D01*
X90844166Y-45116428D01*
X90796547Y-45211666D01*
X90796547Y-45354523D01*
X90748928Y-45449761D01*
X90653690Y-45497380D01*
X90606071Y-45497380D01*
X90510833Y-45449761D01*
X90463214Y-45354523D01*
X90463214Y-45211666D01*
X90510833Y-45116428D01*
X90463214Y-44640238D02*
X91463214Y-44640238D01*
X90510833Y-44640238D02*
X90463214Y-44545000D01*
X90463214Y-44354523D01*
X90510833Y-44259285D01*
X90558452Y-44211666D01*
X90653690Y-44164047D01*
X90939404Y-44164047D01*
X91034642Y-44211666D01*
X91082261Y-44259285D01*
X91129880Y-44354523D01*
X91129880Y-44545000D01*
X91082261Y-44640238D01*
X90129880Y-43545000D02*
X90129880Y-43449761D01*
X90177500Y-43354523D01*
X90225119Y-43306904D01*
X90320357Y-43259285D01*
X90510833Y-43211666D01*
X90748928Y-43211666D01*
X90939404Y-43259285D01*
X91034642Y-43306904D01*
X91082261Y-43354523D01*
X91129880Y-43449761D01*
X91129880Y-43545000D01*
X91082261Y-43640238D01*
X91034642Y-43687857D01*
X90939404Y-43735476D01*
X90748928Y-43783095D01*
X90510833Y-43783095D01*
X90320357Y-43735476D01*
X90225119Y-43687857D01*
X90177500Y-43640238D01*
X90129880Y-43545000D01*
%TO.C,5V1*%
X71221333Y-32042630D02*
X70745142Y-32042630D01*
X70697523Y-32518821D01*
X70745142Y-32471202D01*
X70840380Y-32423583D01*
X71078476Y-32423583D01*
X71173714Y-32471202D01*
X71221333Y-32518821D01*
X71268952Y-32614059D01*
X71268952Y-32852154D01*
X71221333Y-32947392D01*
X71173714Y-32995011D01*
X71078476Y-33042630D01*
X70840380Y-33042630D01*
X70745142Y-32995011D01*
X70697523Y-32947392D01*
X71554666Y-32042630D02*
X71888000Y-33042630D01*
X72221333Y-32042630D01*
X73078476Y-33042630D02*
X72507047Y-33042630D01*
X72792761Y-33042630D02*
X72792761Y-32042630D01*
X72697523Y-32185488D01*
X72602285Y-32280726D01*
X72507047Y-32328345D01*
%TO.C,H1*%
X128828895Y-78540380D02*
X128828895Y-77540380D01*
X128828895Y-78016571D02*
X129400323Y-78016571D01*
X129400323Y-78540380D02*
X129400323Y-77540380D01*
X130400323Y-78540380D02*
X129828895Y-78540380D01*
X130114609Y-78540380D02*
X130114609Y-77540380D01*
X130019371Y-77683238D01*
X129924133Y-77778476D01*
X129828895Y-77826095D01*
%TO.C,R11*%
X71460380Y-71662607D02*
X70984190Y-71995940D01*
X71460380Y-72234035D02*
X70460380Y-72234035D01*
X70460380Y-71853083D01*
X70508000Y-71757845D01*
X70555619Y-71710226D01*
X70650857Y-71662607D01*
X70793714Y-71662607D01*
X70888952Y-71710226D01*
X70936571Y-71757845D01*
X70984190Y-71853083D01*
X70984190Y-72234035D01*
X71460380Y-70710226D02*
X71460380Y-71281654D01*
X71460380Y-70995940D02*
X70460380Y-70995940D01*
X70603238Y-71091178D01*
X70698476Y-71186416D01*
X70746095Y-71281654D01*
X71460380Y-69757845D02*
X71460380Y-70329273D01*
X71460380Y-70043559D02*
X70460380Y-70043559D01*
X70603238Y-70138797D01*
X70698476Y-70234035D01*
X70746095Y-70329273D01*
%TO.C,J_esp1*%
X104875380Y-46764000D02*
X105589666Y-46764000D01*
X105732523Y-46811619D01*
X105827761Y-46906857D01*
X105875380Y-47049714D01*
X105875380Y-47144952D01*
X105970619Y-46525904D02*
X105970619Y-45764000D01*
X105827761Y-45144952D02*
X105875380Y-45240190D01*
X105875380Y-45430666D01*
X105827761Y-45525904D01*
X105732523Y-45573523D01*
X105351571Y-45573523D01*
X105256333Y-45525904D01*
X105208714Y-45430666D01*
X105208714Y-45240190D01*
X105256333Y-45144952D01*
X105351571Y-45097333D01*
X105446809Y-45097333D01*
X105542047Y-45573523D01*
X105827761Y-44716380D02*
X105875380Y-44621142D01*
X105875380Y-44430666D01*
X105827761Y-44335428D01*
X105732523Y-44287809D01*
X105684904Y-44287809D01*
X105589666Y-44335428D01*
X105542047Y-44430666D01*
X105542047Y-44573523D01*
X105494428Y-44668761D01*
X105399190Y-44716380D01*
X105351571Y-44716380D01*
X105256333Y-44668761D01*
X105208714Y-44573523D01*
X105208714Y-44430666D01*
X105256333Y-44335428D01*
X105208714Y-43859238D02*
X106208714Y-43859238D01*
X105256333Y-43859238D02*
X105208714Y-43764000D01*
X105208714Y-43573523D01*
X105256333Y-43478285D01*
X105303952Y-43430666D01*
X105399190Y-43383047D01*
X105684904Y-43383047D01*
X105780142Y-43430666D01*
X105827761Y-43478285D01*
X105875380Y-43573523D01*
X105875380Y-43764000D01*
X105827761Y-43859238D01*
X105875380Y-42430666D02*
X105875380Y-43002095D01*
X105875380Y-42716380D02*
X104875380Y-42716380D01*
X105018238Y-42811619D01*
X105113476Y-42906857D01*
X105161095Y-43002095D01*
D11*
%TO.C,J2*%
X86945000Y-77238000D02*
X86945000Y-81258000D01*
X86945000Y-81258000D02*
X94665000Y-81258000D01*
X87445000Y-77738000D02*
X94165000Y-77738000D01*
X87945000Y-79758000D02*
X87945000Y-81258000D01*
X86945000Y-78948000D02*
X87445000Y-78948000D01*
X94165000Y-78948000D02*
X94665000Y-78948000D01*
X94165000Y-77738000D02*
X94165000Y-78948000D01*
X94665000Y-77238000D02*
X86945000Y-77238000D01*
X86645000Y-79058000D02*
X86645000Y-81558000D01*
X94665000Y-79758000D02*
X93665000Y-79758000D01*
X87445000Y-78948000D02*
X87445000Y-77738000D01*
X86645000Y-81558000D02*
X89145000Y-81558000D01*
X86945000Y-79758000D02*
X87945000Y-79758000D01*
X94665000Y-81258000D02*
X94665000Y-77238000D01*
X93665000Y-79758000D02*
X93665000Y-81258000D01*
%TO.C,J1*%
X99181000Y-79723000D02*
X99181000Y-81223000D01*
X98681000Y-78913000D02*
X98681000Y-77703000D01*
X97881000Y-79023000D02*
X97881000Y-81523000D01*
X113401000Y-81223000D02*
X113401000Y-77203000D01*
X112901000Y-77703000D02*
X112901000Y-78913000D01*
X113401000Y-77203000D02*
X98181000Y-77203000D01*
X98681000Y-77703000D02*
X112901000Y-77703000D01*
X112401000Y-79723000D02*
X112401000Y-81223000D01*
X113401000Y-79723000D02*
X112401000Y-79723000D01*
X98181000Y-78913000D02*
X98681000Y-78913000D01*
X98181000Y-77203000D02*
X98181000Y-81223000D01*
X98181000Y-79723000D02*
X99181000Y-79723000D01*
X97881000Y-81523000D02*
X100381000Y-81523000D01*
X112901000Y-78913000D02*
X113401000Y-78913000D01*
X98181000Y-81223000D02*
X113401000Y-81223000D01*
%TO.C,J_EC1*%
X64888000Y-52839750D02*
X66098000Y-52839750D01*
X66598000Y-62559750D02*
X66598000Y-52339750D01*
X62578000Y-52339750D02*
X62578000Y-62559750D01*
X64778000Y-52039750D02*
X62278000Y-52039750D01*
X64078000Y-53339750D02*
X62578000Y-53339750D01*
X64078000Y-52339750D02*
X64078000Y-53339750D01*
X64078000Y-61559750D02*
X62578000Y-61559750D01*
X66098000Y-62059750D02*
X64888000Y-62059750D01*
X62578000Y-62559750D02*
X66598000Y-62559750D01*
X66598000Y-52339750D02*
X62578000Y-52339750D01*
X66098000Y-52839750D02*
X66098000Y-62059750D01*
X64078000Y-62559750D02*
X64078000Y-61559750D01*
X64888000Y-52339750D02*
X64888000Y-52839750D01*
X64888000Y-62059750D02*
X64888000Y-62559750D01*
X62278000Y-52039750D02*
X62278000Y-54539750D01*
%TO.C,U4*%
X130847000Y-45674000D02*
X130847000Y-45674000D01*
X130847000Y-45674000D02*
X130847000Y-51008000D01*
X131423000Y-45344000D02*
X131423000Y-74544000D01*
X120179000Y-51008000D02*
X120179000Y-45674000D01*
X128053000Y-45928000D02*
X128053000Y-45928000D01*
X115973000Y-45344000D02*
X131423000Y-45344000D01*
X120179000Y-45674000D02*
X120179000Y-45674000D01*
X130339000Y-48214000D02*
X128053000Y-48214000D01*
X128053000Y-48214000D02*
X128053000Y-45928000D01*
X130847000Y-51008000D02*
X120179000Y-51008000D01*
X131423000Y-45344000D02*
X131423000Y-45344000D01*
X120179000Y-45674000D02*
X130847000Y-45674000D01*
X131423000Y-74544000D02*
X115973000Y-74544000D01*
X115973000Y-74544000D02*
X115973000Y-45344000D01*
%TO.C,C1*%
X69340113Y-40291250D02*
X69340113Y-38681250D01*
X70580113Y-38446250D02*
X70580113Y-37218250D01*
X70180113Y-38446250D02*
X70180113Y-37482250D01*
X71301113Y-42014250D02*
X71301113Y-40526250D01*
X71261113Y-42006250D02*
X71261113Y-40526250D01*
X70100113Y-41423250D02*
X70100113Y-40526250D01*
X70540113Y-38446250D02*
X70540113Y-37239250D01*
X69940113Y-41271250D02*
X69940113Y-40526250D01*
X69540113Y-40737250D02*
X69540113Y-40526250D01*
X69660113Y-38446250D02*
X69660113Y-38043250D01*
X71541113Y-38446250D02*
X71541113Y-36921250D01*
X71100113Y-38446250D02*
X71100113Y-37006250D01*
X71421113Y-42036250D02*
X71421113Y-40526250D01*
X71301113Y-38446250D02*
X71301113Y-36958250D01*
X70940113Y-41914250D02*
X70940113Y-40526250D01*
X70500113Y-38446250D02*
X70500113Y-37262250D01*
X70900113Y-38446250D02*
X70900113Y-37072250D01*
X71501113Y-42047250D02*
X71501113Y-40526250D01*
X69700113Y-40986250D02*
X69700113Y-40526250D01*
X71421113Y-38446250D02*
X71421113Y-36936250D01*
X71341113Y-42022250D02*
X71341113Y-40526250D01*
X71141113Y-41977250D02*
X71141113Y-40526250D01*
X70860113Y-38446250D02*
X70860113Y-37088250D01*
X70180113Y-41490250D02*
X70180113Y-40526250D01*
X70060113Y-38446250D02*
X70060113Y-37585250D01*
X70380113Y-41635250D02*
X70380113Y-40526250D01*
X70340113Y-41608250D02*
X70340113Y-40526250D01*
X71020113Y-41941250D02*
X71020113Y-40526250D01*
X71821113Y-42066250D02*
X71821113Y-36906250D01*
X71701113Y-42064250D02*
X71701113Y-36908250D01*
X71661113Y-42062250D02*
X71661113Y-36910250D01*
X70900113Y-41900250D02*
X70900113Y-40526250D01*
X71741113Y-42065250D02*
X71741113Y-36907250D01*
X69420113Y-40497250D02*
X69420113Y-38475250D01*
X69900113Y-38446250D02*
X69900113Y-37743250D01*
X70260113Y-41551250D02*
X70260113Y-40526250D01*
X71060113Y-41954250D02*
X71060113Y-40526250D01*
X70580113Y-41754250D02*
X70580113Y-40526250D01*
X69940113Y-38446250D02*
X69940113Y-37701250D01*
X69740113Y-38446250D02*
X69740113Y-37932250D01*
X70020113Y-38446250D02*
X70020113Y-37622250D01*
X70460113Y-38446250D02*
X70460113Y-37286250D01*
X71100113Y-41966250D02*
X71100113Y-40526250D01*
X71501113Y-38446250D02*
X71501113Y-36925250D01*
X69780113Y-38446250D02*
X69780113Y-37881250D01*
X69860113Y-38446250D02*
X69860113Y-37787250D01*
X74375888Y-41211250D02*
X74375888Y-40711250D01*
X71221113Y-41997250D02*
X71221113Y-40526250D01*
X70940113Y-38446250D02*
X70940113Y-37058250D01*
X70300113Y-38446250D02*
X70300113Y-37391250D01*
X71341113Y-38446250D02*
X71341113Y-36950250D01*
X71461113Y-42042250D02*
X71461113Y-40526250D01*
X70700113Y-38446250D02*
X70700113Y-37157250D01*
X69700113Y-38446250D02*
X69700113Y-37986250D01*
X70020113Y-41350250D02*
X70020113Y-40526250D01*
X70820113Y-41868250D02*
X70820113Y-40526250D01*
X70140113Y-41457250D02*
X70140113Y-40526250D01*
X69740113Y-41040250D02*
X69740113Y-40526250D01*
X70500113Y-41710250D02*
X70500113Y-40526250D01*
X69380113Y-40401250D02*
X69380113Y-38571250D01*
X69500113Y-40664250D02*
X69500113Y-38308250D01*
X69980113Y-41312250D02*
X69980113Y-40526250D01*
X71541113Y-42051250D02*
X71541113Y-40526250D01*
X69900113Y-41229250D02*
X69900113Y-40526250D01*
X70980113Y-41928250D02*
X70980113Y-40526250D01*
X70660113Y-41796250D02*
X70660113Y-40526250D01*
X70100113Y-38446250D02*
X70100113Y-37549250D01*
X70140113Y-38446250D02*
X70140113Y-37515250D01*
X69780113Y-41091250D02*
X69780113Y-40526250D01*
X71581113Y-42055250D02*
X71581113Y-40526250D01*
X70460113Y-41686250D02*
X70460113Y-40526250D01*
X69460113Y-40584250D02*
X69460113Y-38388250D01*
X69300113Y-40163250D02*
X69300113Y-38809250D01*
X71781113Y-42066250D02*
X71781113Y-36906250D01*
X70420113Y-38446250D02*
X70420113Y-37311250D01*
X70260113Y-38446250D02*
X70260113Y-37421250D01*
X70780113Y-38446250D02*
X70780113Y-37121250D01*
X69860113Y-41185250D02*
X69860113Y-40526250D01*
X71381113Y-42029250D02*
X71381113Y-40526250D01*
X70700113Y-41815250D02*
X70700113Y-40526250D01*
X69580113Y-38446250D02*
X69580113Y-38167250D01*
X71261113Y-38446250D02*
X71261113Y-36966250D01*
X71461113Y-38446250D02*
X71461113Y-36930250D01*
X69820113Y-38446250D02*
X69820113Y-37833250D01*
X70620113Y-38446250D02*
X70620113Y-37196250D01*
X70740113Y-38446250D02*
X70740113Y-37138250D01*
X70380113Y-38446250D02*
X70380113Y-37337250D01*
X71581113Y-38446250D02*
X71581113Y-36917250D01*
X70740113Y-41834250D02*
X70740113Y-40526250D01*
X71020113Y-38446250D02*
X71020113Y-37031250D01*
X69620113Y-40869250D02*
X69620113Y-40526250D01*
X70980113Y-38446250D02*
X70980113Y-37044250D01*
X71181113Y-38446250D02*
X71181113Y-36985250D01*
X70300113Y-41581250D02*
X70300113Y-40526250D01*
X70420113Y-41661250D02*
X70420113Y-40526250D01*
X70060113Y-41387250D02*
X70060113Y-40526250D01*
X70780113Y-41851250D02*
X70780113Y-40526250D01*
X70660113Y-38446250D02*
X70660113Y-37176250D01*
X70220113Y-41521250D02*
X70220113Y-40526250D01*
X71221113Y-38446250D02*
X71221113Y-36975250D01*
X69620113Y-38446250D02*
X69620113Y-38103250D01*
X71621113Y-42059250D02*
X71621113Y-36913250D01*
X70820113Y-38446250D02*
X70820113Y-37104250D01*
X71181113Y-41987250D02*
X71181113Y-40526250D01*
X69260113Y-40004250D02*
X69260113Y-38968250D01*
X70860113Y-41884250D02*
X70860113Y-40526250D01*
X71381113Y-38446250D02*
X71381113Y-36943250D01*
X69580113Y-40805250D02*
X69580113Y-40526250D01*
X69660113Y-40929250D02*
X69660113Y-40526250D01*
X70540113Y-41733250D02*
X70540113Y-40526250D01*
X70340113Y-38446250D02*
X70340113Y-37364250D01*
X69820113Y-41139250D02*
X69820113Y-40526250D01*
X71141113Y-38446250D02*
X71141113Y-36995250D01*
X70220113Y-38446250D02*
X70220113Y-37451250D01*
X69980113Y-38446250D02*
X69980113Y-37660250D01*
X70620113Y-41776250D02*
X70620113Y-40526250D01*
X74625888Y-40961250D02*
X74125888Y-40961250D01*
X71060113Y-38446250D02*
X71060113Y-37018250D01*
X69220113Y-39770250D02*
X69220113Y-39202250D01*
X69540113Y-38446250D02*
X69540113Y-38235250D01*
X74441113Y-39486250D02*
G75*
G03*
X74441113Y-39486250I-2620000J0D01*
G01*
%TO.C,J_DS18*%
X64888000Y-74259750D02*
X64888000Y-74759750D01*
X66098000Y-65039750D02*
X66098000Y-74259750D01*
X64078000Y-73759750D02*
X62578000Y-73759750D01*
X66598000Y-74759750D02*
X66598000Y-64539750D01*
X64078000Y-64539750D02*
X64078000Y-65539750D01*
X64888000Y-64539750D02*
X64888000Y-65039750D01*
X64078000Y-65539750D02*
X62578000Y-65539750D01*
X66098000Y-74259750D02*
X64888000Y-74259750D01*
X62578000Y-64539750D02*
X62578000Y-74759750D01*
X62578000Y-74759750D02*
X66598000Y-74759750D01*
X64078000Y-74759750D02*
X64078000Y-73759750D01*
X66598000Y-64539750D02*
X62578000Y-64539750D01*
X64888000Y-65039750D02*
X66098000Y-65039750D01*
X62278000Y-64239750D02*
X62278000Y-66739750D01*
X64778000Y-64239750D02*
X62278000Y-64239750D01*
%TO.C,J_esp0*%
X82535000Y-65475000D02*
X83515000Y-65475000D01*
X83515000Y-65475000D02*
X83515000Y-65345000D01*
X88155000Y-24395000D02*
X88155000Y-26805000D01*
X85745000Y-24395000D02*
X88155000Y-24395000D01*
X82535000Y-49005000D02*
X82535000Y-65475000D01*
X82535000Y-24695000D02*
X82535000Y-41165000D01*
X81035000Y-49005000D02*
X82535000Y-49005000D01*
X87855000Y-65475000D02*
X87855000Y-24695000D01*
X83515000Y-65345000D02*
X85325000Y-65345000D01*
X83515000Y-24695000D02*
X82535000Y-24695000D01*
X85325000Y-24695000D02*
X85325000Y-24825000D01*
X81035000Y-41165000D02*
X81035000Y-49005000D01*
X85325000Y-24825000D02*
X83515000Y-24825000D01*
X87855000Y-24695000D02*
X85325000Y-24695000D01*
X85325000Y-65475000D02*
X87855000Y-65475000D01*
X83515000Y-24825000D02*
X83515000Y-24695000D01*
X82535000Y-41165000D02*
X81035000Y-41165000D01*
X85325000Y-65345000D02*
X85325000Y-65475000D01*
%TO.C,5V1*%
X66753000Y-25240250D02*
X66253000Y-24990250D01*
X77103000Y-36890250D02*
X77103000Y-24290250D01*
X66253000Y-26890250D02*
X66253000Y-26940250D01*
X66253000Y-26940250D02*
X66753000Y-26690250D01*
X66253000Y-24990250D02*
X66253000Y-26890250D01*
X66753000Y-26690250D02*
X66753000Y-32090250D01*
X66753000Y-32090250D02*
X66253000Y-31790250D01*
X66253000Y-36890250D02*
X77103000Y-36890250D01*
X66253000Y-31790250D02*
X66253000Y-36890250D01*
X77103000Y-24290250D02*
X66753000Y-24290250D01*
X66753000Y-24290250D02*
X66753000Y-25240250D01*
%TO.C,R11*%
X69088000Y-70669750D02*
X69088000Y-71289750D01*
X70008000Y-69749750D02*
G75*
G03*
X70008000Y-69749750I-920000J0D01*
G01*
%TO.C,J_esp1*%
X109185500Y-65854000D02*
X106775500Y-65854000D01*
X109605500Y-65424000D02*
X111415500Y-65424000D01*
X107075500Y-24774000D02*
X107075500Y-65554000D01*
X111415500Y-65554000D02*
X112395500Y-65554000D01*
X112395500Y-49084000D02*
X113895500Y-49084000D01*
X109605500Y-65554000D02*
X109605500Y-65424000D01*
X113895500Y-41244000D02*
X112395500Y-41244000D01*
X111415500Y-65424000D02*
X111415500Y-65554000D01*
X109605500Y-24774000D02*
X107075500Y-24774000D01*
X112395500Y-65554000D02*
X112395500Y-49084000D01*
X111415500Y-24774000D02*
X111415500Y-24904000D01*
X112395500Y-41244000D02*
X112395500Y-24774000D01*
X106775500Y-65854000D02*
X106775500Y-63444000D01*
X112395500Y-24774000D02*
X111415500Y-24774000D01*
X111415500Y-24904000D02*
X109605500Y-24904000D01*
X113895500Y-49084000D02*
X113895500Y-41244000D01*
X109605500Y-24904000D02*
X109605500Y-24774000D01*
X107075500Y-65554000D02*
X109605500Y-65554000D01*
%TD*%
M02*
