%TF.GenerationSoftware,KiCad,Pcbnew,6.0.11+dfsg-1*%
%TF.CreationDate,2023-04-26T14:23:14-05:00*%
%TF.ProjectId,water_tank_module,77617465-725f-4746-916e-6b5f6d6f6475,rev?*%
%TF.SameCoordinates,Original*%
%TF.FileFunction,Copper,L1,Top*%
%TF.FilePolarity,Positive*%
%FSLAX46Y46*%
G04 Gerber Fmt 4.6, Leading zero omitted, Abs format (unit mm)*
G04 Created by KiCad (PCBNEW 6.0.11+dfsg-1) date 2023-04-26 14:23:14*
%MOMM*%
%LPD*%
G01*
G04 APERTURE LIST*
%TA.AperFunction,NonConductor*%
%ADD10C,0.200000*%
%TD*%
%ADD11C,0.300000*%
%TA.AperFunction,NonConductor*%
%ADD12C,0.300000*%
%TD*%
%TA.AperFunction,ComponentPad*%
%ADD13R,5.000000X3.300000*%
%TD*%
%TA.AperFunction,ComponentPad*%
%ADD14O,5.000000X3.300000*%
%TD*%
%TA.AperFunction,ComponentPad*%
%ADD15R,3.500000X4.000000*%
%TD*%
%TA.AperFunction,ComponentPad*%
%ADD16O,3.500000X4.000000*%
%TD*%
%TA.AperFunction,ComponentPad*%
%ADD17C,5.400000*%
%TD*%
%TA.AperFunction,ComponentPad*%
%ADD18R,2.000000X3.000000*%
%TD*%
%TA.AperFunction,ComponentPad*%
%ADD19O,2.000000X3.000000*%
%TD*%
%TA.AperFunction,ComponentPad*%
%ADD20R,3.000000X2.500000*%
%TD*%
%TA.AperFunction,ComponentPad*%
%ADD21O,3.000000X2.500000*%
%TD*%
%TA.AperFunction,ComponentPad*%
%ADD22R,2.540000X2.100000*%
%TD*%
%TA.AperFunction,ComponentPad*%
%ADD23R,2.540000X1.740000*%
%TD*%
%TA.AperFunction,ComponentPad*%
%ADD24R,2.540000X1.950000*%
%TD*%
%TA.AperFunction,ComponentPad*%
%ADD25R,3.000000X3.960000*%
%TD*%
%TA.AperFunction,ComponentPad*%
%ADD26O,3.000000X3.960000*%
%TD*%
%TA.AperFunction,ComponentPad*%
%ADD27O,2.850000X2.025000*%
%TD*%
%TA.AperFunction,ComponentPad*%
%ADD28R,2.540000X2.000000*%
%TD*%
%TA.AperFunction,ViaPad*%
%ADD29C,2.300000*%
%TD*%
%TA.AperFunction,Conductor*%
%ADD30C,1.250000*%
%TD*%
G04 APERTURE END LIST*
D10*
X199160000Y-66100000D02*
X115900000Y-66100000D01*
X115900000Y-66100000D02*
X115900000Y-140085000D01*
X115900000Y-140085000D02*
X199160000Y-140085000D01*
X199160000Y-140085000D02*
X199160000Y-66100000D01*
D11*
D12*
X151358333Y-134216666D02*
X151358333Y-135616666D01*
X151358333Y-134916666D02*
X148908333Y-134916666D01*
X149258333Y-135150000D01*
X149491666Y-135383333D01*
X149608333Y-135616666D01*
X148908333Y-133400000D02*
X148908333Y-131883333D01*
X149841666Y-132700000D01*
X149841666Y-132350000D01*
X149958333Y-132116666D01*
X150075000Y-132000000D01*
X150308333Y-131883333D01*
X150891666Y-131883333D01*
X151125000Y-132000000D01*
X151241666Y-132116666D01*
X151358333Y-132350000D01*
X151358333Y-133050000D01*
X151241666Y-133283333D01*
X151125000Y-133400000D01*
D11*
D12*
X156858333Y-134216666D02*
X156858333Y-135616666D01*
X156858333Y-134916666D02*
X154408333Y-134916666D01*
X154758333Y-135150000D01*
X154991666Y-135383333D01*
X155108333Y-135616666D01*
X155225000Y-132116666D02*
X156858333Y-132116666D01*
X154291666Y-132700000D02*
X156041666Y-133283333D01*
X156041666Y-131766666D01*
D11*
D12*
X123703000Y-81712863D02*
X123595857Y-81927148D01*
X123595857Y-82248577D01*
X123703000Y-82570005D01*
X123917285Y-82784291D01*
X124131571Y-82891434D01*
X124560142Y-82998577D01*
X124881571Y-82998577D01*
X125310142Y-82891434D01*
X125524428Y-82784291D01*
X125738714Y-82570005D01*
X125845857Y-82248577D01*
X125845857Y-82034291D01*
X125738714Y-81712863D01*
X125631571Y-81605720D01*
X124881571Y-81605720D01*
X124881571Y-82034291D01*
X125845857Y-80641434D02*
X123595857Y-80641434D01*
X125845857Y-79355720D01*
X123595857Y-79355720D01*
X125845857Y-78284291D02*
X123595857Y-78284291D01*
X123595857Y-77748577D01*
X123703000Y-77427148D01*
X123917285Y-77212863D01*
X124131571Y-77105720D01*
X124560142Y-76998577D01*
X124881571Y-76998577D01*
X125310142Y-77105720D01*
X125524428Y-77212863D01*
X125738714Y-77427148D01*
X125845857Y-77748577D01*
X125845857Y-78284291D01*
X123595857Y-74962863D02*
X123595857Y-76034291D01*
X124667285Y-76141434D01*
X124560142Y-76034291D01*
X124453000Y-75820005D01*
X124453000Y-75284291D01*
X124560142Y-75070005D01*
X124667285Y-74962863D01*
X124881571Y-74855720D01*
X125417285Y-74855720D01*
X125631571Y-74962863D01*
X125738714Y-75070005D01*
X125845857Y-75284291D01*
X125845857Y-75820005D01*
X125738714Y-76034291D01*
X125631571Y-76141434D01*
X123595857Y-74212863D02*
X125845857Y-73462863D01*
X123595857Y-72712863D01*
D11*
D12*
X159724999Y-135616666D02*
X159608333Y-135500000D01*
X159491666Y-135266666D01*
X159491666Y-134683333D01*
X159608333Y-134450000D01*
X159724999Y-134333333D01*
X159958333Y-134216666D01*
X160191666Y-134216666D01*
X160541666Y-134333333D01*
X161941666Y-135733333D01*
X161941666Y-134216666D01*
X159491666Y-132116666D02*
X159491666Y-132583333D01*
X159608333Y-132816666D01*
X159724999Y-132933333D01*
X160074999Y-133166666D01*
X160541666Y-133283333D01*
X161474999Y-133283333D01*
X161708333Y-133166666D01*
X161824999Y-133050000D01*
X161941666Y-132816666D01*
X161941666Y-132350000D01*
X161824999Y-132116666D01*
X161708333Y-132000000D01*
X161474999Y-131883333D01*
X160891666Y-131883333D01*
X160658333Y-132000000D01*
X160541666Y-132116666D01*
X160424999Y-132350000D01*
X160424999Y-132816666D01*
X160541666Y-133050000D01*
X160658333Y-133166666D01*
X160891666Y-133283333D01*
D11*
D12*
X169658333Y-135733333D02*
X169658333Y-134216666D01*
X170591666Y-135033333D01*
X170591666Y-134683333D01*
X170708333Y-134450000D01*
X170825000Y-134333333D01*
X171058333Y-134216666D01*
X171641666Y-134216666D01*
X171875000Y-134333333D01*
X171991666Y-134450000D01*
X172108333Y-134683333D01*
X172108333Y-135383333D01*
X171991666Y-135616666D01*
X171875000Y-135733333D01*
X169658333Y-133400000D02*
X169658333Y-131883333D01*
X170591666Y-132700000D01*
X170591666Y-132350000D01*
X170708333Y-132116666D01*
X170825000Y-132000000D01*
X171058333Y-131883333D01*
X171641666Y-131883333D01*
X171875000Y-132000000D01*
X171991666Y-132116666D01*
X172108333Y-132350000D01*
X172108333Y-133050000D01*
X171991666Y-133283333D01*
X171875000Y-133400000D01*
D11*
D12*
X175066666Y-134175000D02*
X176933333Y-134175000D01*
D11*
D12*
X164808332Y-135616666D02*
X164691666Y-135500000D01*
X164574999Y-135266666D01*
X164574999Y-134683333D01*
X164691666Y-134450000D01*
X164808332Y-134333333D01*
X165041666Y-134216666D01*
X165274999Y-134216666D01*
X165624999Y-134333333D01*
X167024999Y-135733333D01*
X167024999Y-134216666D01*
X164574999Y-133400000D02*
X164574999Y-131766666D01*
X167024999Y-132816666D01*
D11*
D12*
X138095857Y-78784291D02*
X138095857Y-79855720D01*
X139167285Y-79962863D01*
X139060142Y-79855720D01*
X138953000Y-79641434D01*
X138953000Y-79105720D01*
X139060142Y-78891434D01*
X139167285Y-78784291D01*
X139381571Y-78677148D01*
X139917285Y-78677148D01*
X140131571Y-78784291D01*
X140238714Y-78891434D01*
X140345857Y-79105720D01*
X140345857Y-79641434D01*
X140238714Y-79855720D01*
X140131571Y-79962863D01*
X138095857Y-78034291D02*
X140345857Y-77284291D01*
X138095857Y-76534291D01*
X139488714Y-75784291D02*
X139488714Y-74070005D01*
X140345857Y-74927148D02*
X138631571Y-74927148D01*
D11*
D12*
X143816666Y-133675000D02*
X145683333Y-133675000D01*
D11*
D12*
X155266666Y-106408333D02*
X154100000Y-106408333D01*
X153983333Y-107575000D01*
X154100000Y-107458333D01*
X154333333Y-107341666D01*
X154916666Y-107341666D01*
X155150000Y-107458333D01*
X155266666Y-107575000D01*
X155383333Y-107808333D01*
X155383333Y-108391666D01*
X155266666Y-108625000D01*
X155150000Y-108741666D01*
X154916666Y-108858333D01*
X154333333Y-108858333D01*
X154100000Y-108741666D01*
X153983333Y-108625000D01*
X156083333Y-106408333D02*
X156900000Y-108858333D01*
X157716666Y-106408333D01*
X158533333Y-107925000D02*
X160400000Y-107925000D01*
X159466666Y-108858333D02*
X159466666Y-106991666D01*
D11*
D12*
X188633333Y-118208333D02*
X187816666Y-117041666D01*
X187233333Y-118208333D02*
X187233333Y-115758333D01*
X188166666Y-115758333D01*
X188400000Y-115875000D01*
X188516666Y-115991666D01*
X188633333Y-116225000D01*
X188633333Y-116575000D01*
X188516666Y-116808333D01*
X188400000Y-116925000D01*
X188166666Y-117041666D01*
X187233333Y-117041666D01*
X190500000Y-116925000D02*
X189683333Y-116925000D01*
X189683333Y-118208333D02*
X189683333Y-115758333D01*
X190850000Y-115758333D01*
D11*
D12*
X182409718Y-79115083D02*
X182715968Y-76665083D01*
X183313885Y-78415083D01*
X184349302Y-76665083D01*
X184043052Y-79115083D01*
X186259718Y-79115083D02*
X186420135Y-77831750D01*
X186332635Y-77598416D01*
X186113885Y-77481750D01*
X185647218Y-77481750D01*
X185399302Y-77598416D01*
X186274302Y-78998416D02*
X186026385Y-79115083D01*
X185443052Y-79115083D01*
X185224302Y-78998416D01*
X185136802Y-78765083D01*
X185165968Y-78531750D01*
X185311802Y-78298416D01*
X185559718Y-78181750D01*
X186143052Y-78181750D01*
X186390968Y-78065083D01*
X187280552Y-77481750D02*
X188213885Y-77481750D01*
X187732635Y-76665083D02*
X187470135Y-78765083D01*
X187557635Y-78998416D01*
X187776385Y-79115083D01*
X188009718Y-79115083D01*
X188826385Y-79115083D02*
X189030552Y-77481750D01*
X189132635Y-76665083D02*
X189001385Y-76781750D01*
X189103468Y-76898416D01*
X189234718Y-76781750D01*
X189132635Y-76665083D01*
X189103468Y-76898416D01*
X191057635Y-78998416D02*
X190809718Y-79115083D01*
X190343052Y-79115083D01*
X190124302Y-78998416D01*
X190022218Y-78881750D01*
X189934718Y-78648416D01*
X190022218Y-77948416D01*
X190168052Y-77715083D01*
X190299302Y-77598416D01*
X190547218Y-77481750D01*
X191013885Y-77481750D01*
X191232635Y-77598416D01*
X193143052Y-79115083D02*
X193303468Y-77831750D01*
X193215968Y-77598416D01*
X192997218Y-77481750D01*
X192530552Y-77481750D01*
X192282635Y-77598416D01*
X193157635Y-78998416D02*
X192909718Y-79115083D01*
X192326385Y-79115083D01*
X192107635Y-78998416D01*
X192020135Y-78765083D01*
X192049302Y-78531750D01*
X192195135Y-78298416D01*
X192443052Y-78181750D01*
X193026385Y-78181750D01*
X193274302Y-78065083D01*
X194207635Y-78998416D02*
X194426385Y-79115083D01*
X194893052Y-79115083D01*
X195140968Y-78998416D01*
X195286802Y-78765083D01*
X195301385Y-78648416D01*
X195213885Y-78415083D01*
X194995135Y-78298416D01*
X194645135Y-78298416D01*
X194426385Y-78181750D01*
X194338885Y-77948416D01*
X194353468Y-77831750D01*
X194499302Y-77598416D01*
X194747218Y-77481750D01*
X195097218Y-77481750D01*
X195315968Y-77598416D01*
X179886802Y-81776250D02*
X180703468Y-81776250D01*
X180893052Y-83059583D02*
X179726385Y-83059583D01*
X180032635Y-80609583D01*
X181199302Y-80609583D01*
X181840968Y-82942916D02*
X182176385Y-83059583D01*
X182759718Y-83059583D01*
X183007635Y-82942916D01*
X183138885Y-82826250D01*
X183284718Y-82592916D01*
X183313885Y-82359583D01*
X183226385Y-82126250D01*
X183124302Y-82009583D01*
X182905552Y-81892916D01*
X182453468Y-81776250D01*
X182234718Y-81659583D01*
X182132635Y-81542916D01*
X182045135Y-81309583D01*
X182074302Y-81076250D01*
X182220135Y-80842916D01*
X182351385Y-80726250D01*
X182599302Y-80609583D01*
X183182635Y-80609583D01*
X183518052Y-80726250D01*
X184276385Y-83059583D02*
X184582635Y-80609583D01*
X185515968Y-80609583D01*
X185734718Y-80726250D01*
X185836802Y-80842916D01*
X185924302Y-81076250D01*
X185880552Y-81426250D01*
X185734718Y-81659583D01*
X185603468Y-81776250D01*
X185355552Y-81892916D01*
X184422218Y-81892916D01*
X186799302Y-80609583D02*
X188315968Y-80609583D01*
X187382635Y-81542916D01*
X187732635Y-81542916D01*
X187951385Y-81659583D01*
X188053468Y-81776250D01*
X188140968Y-82009583D01*
X188068052Y-82592916D01*
X187922218Y-82826250D01*
X187790968Y-82942916D01*
X187543052Y-83059583D01*
X186843052Y-83059583D01*
X186624302Y-82942916D01*
X186522218Y-82826250D01*
X189220135Y-80842916D02*
X189351385Y-80726250D01*
X189599302Y-80609583D01*
X190182635Y-80609583D01*
X190401385Y-80726250D01*
X190503468Y-80842916D01*
X190590968Y-81076250D01*
X190561802Y-81309583D01*
X190401385Y-81659583D01*
X188826385Y-83059583D01*
X190343052Y-83059583D01*
X191509718Y-82126250D02*
X193376385Y-82126250D01*
X195826385Y-83059583D02*
X195155552Y-81892916D01*
X194426385Y-83059583D02*
X194732635Y-80609583D01*
X195665968Y-80609583D01*
X195884718Y-80726250D01*
X195986802Y-80842916D01*
X196074302Y-81076250D01*
X196030552Y-81426250D01*
X195884718Y-81659583D01*
X195753468Y-81776250D01*
X195505552Y-81892916D01*
X194572218Y-81892916D01*
X197853468Y-81776250D02*
X197036802Y-81776250D01*
X196876385Y-83059583D02*
X197182635Y-80609583D01*
X198349302Y-80609583D01*
D13*
%TO.P,J4,1,Pin_1*%
%TO.N,D34*%
X123500000Y-103000000D03*
D14*
%TO.P,J4,2,Pin_2*%
%TO.N,5v*%
X123500000Y-98000000D03*
%TO.P,J4,3,Pin_3*%
%TO.N,GND5V*%
X123500000Y-93000000D03*
%TD*%
D13*
%TO.P,J2,1,Pin_1*%
%TO.N,D25*%
X123642500Y-119857500D03*
D14*
%TO.P,J2,2,Pin_2*%
%TO.N,5v*%
X123642500Y-114857500D03*
%TO.P,J2,3,Pin_3*%
%TO.N,GND5V*%
X123642500Y-109857500D03*
%TD*%
D15*
%TO.P,J3,1,Pin_1*%
%TO.N,GND5V*%
X175607500Y-124357500D03*
D16*
%TO.P,J3,2,Pin_2*%
%TO.N,D33*%
X170607500Y-124357500D03*
%TO.P,J3,3,Pin_3*%
%TO.N,D27*%
X165607500Y-124357500D03*
%TO.P,J3,4,Pin_4*%
%TO.N,D26*%
X160607500Y-124357500D03*
%TO.P,J3,5,Pin_5*%
%TO.N,D14*%
X155607500Y-124357500D03*
%TD*%
D17*
%TO.P,H2,1*%
%TO.N,N/C*%
X119750000Y-135000000D03*
%TD*%
D18*
%TO.P,U4,1,GND*%
%TO.N,GND5V*%
X194423000Y-91244000D03*
%TO.P,U4,2,VCC*%
%TO.N,5v*%
X194423000Y-94784000D03*
%TO.P,U4,3,CE*%
%TO.N,D4*%
X191883000Y-91244000D03*
%TO.P,U4,4,~{CSN}*%
%TO.N,D5*%
X191883000Y-94784000D03*
%TO.P,U4,5,SCK*%
%TO.N,D18*%
X189343000Y-91244000D03*
%TO.P,U4,6,MOSI*%
%TO.N,D23*%
X189343000Y-94784000D03*
%TO.P,U4,7,MISO*%
%TO.N,D19*%
X186803000Y-91244000D03*
D19*
%TO.P,U4,8,IRQ*%
%TO.N,unconnected-(U4-Pad8)*%
X186803000Y-94784000D03*
%TD*%
D20*
%TO.P,C1,1*%
%TO.N,5v*%
X134099113Y-82999113D03*
D21*
%TO.P,C1,2*%
%TO.N,GND5V*%
X130549113Y-82999113D03*
%TD*%
D17*
%TO.P,H3,1*%
%TO.N,N/C*%
X195250000Y-71000000D03*
%TD*%
D22*
%TO.P,J_esp0,1,Pin_1*%
%TO.N,EN*%
X150295000Y-72105000D03*
D23*
%TO.P,J_esp0,2,Pin_2*%
%TO.N,VP*%
X150295000Y-74645000D03*
%TO.P,J_esp0,3,Pin_3*%
%TO.N,VN*%
X150295000Y-77185000D03*
D24*
%TO.P,J_esp0,4,Pin_4*%
%TO.N,D34*%
X150295000Y-79725000D03*
%TO.P,J_esp0,5,Pin_5*%
%TO.N,D35*%
X150295000Y-82265000D03*
%TO.P,J_esp0,6,Pin_6*%
%TO.N,D32*%
X150295000Y-84805000D03*
%TO.P,J_esp0,7,Pin_7*%
%TO.N,D33*%
X150295000Y-87345000D03*
%TO.P,J_esp0,8,Pin_8*%
%TO.N,D25*%
X150295000Y-89885000D03*
%TO.P,J_esp0,9,Pin_9*%
%TO.N,D26*%
X150295000Y-92425000D03*
%TO.P,J_esp0,10,Pin_10*%
%TO.N,D27*%
X150295000Y-94965000D03*
%TO.P,J_esp0,11,Pin_11*%
%TO.N,D14*%
X150295000Y-97505000D03*
%TO.P,J_esp0,12,Pin_12*%
%TO.N,D12*%
X150295000Y-100045000D03*
%TO.P,J_esp0,13,Pin_13*%
%TO.N,D13*%
X150295000Y-102585000D03*
%TO.P,J_esp0,14,Pin_14*%
%TO.N,GND5V*%
X150295000Y-105125000D03*
%TO.P,J_esp0,15,Pin_15*%
%TO.N,5v*%
X150295000Y-107665000D03*
%TD*%
D25*
%TO.P,5V1,1,Pin_1*%
%TO.N,5v*%
X134871800Y-73688063D03*
D26*
%TO.P,5V1,2,Pin_2*%
%TO.N,GND5V*%
X129871800Y-73688063D03*
%TD*%
D17*
%TO.P,H4,1*%
%TO.N,N/C*%
X119750000Y-71000000D03*
%TD*%
%TO.P,H1,1*%
%TO.N,N/C*%
X195250000Y-135000000D03*
%TD*%
D15*
%TO.P,J1,1,Pin_1*%
%TO.N,GND5V*%
X144892500Y-123892500D03*
D16*
%TO.P,J1,2,Pin_2*%
%TO.N,D13*%
X149892500Y-123892500D03*
%TD*%
D27*
%TO.P,R11,1*%
%TO.N,5v*%
X134500000Y-114549750D03*
%TO.P,R11,2*%
%TO.N,D25*%
X134500000Y-117089750D03*
%TD*%
D28*
%TO.P,J_esp1,1,Pin_1*%
%TO.N,3V3*%
X174835500Y-107744000D03*
D24*
%TO.P,J_esp1,2,Pin_2*%
%TO.N,GND2*%
X174835500Y-105204000D03*
%TO.P,J_esp1,3,Pin_3*%
%TO.N,D15*%
X174835500Y-102664000D03*
%TO.P,J_esp1,4,Pin_4*%
%TO.N,D2*%
X174835500Y-100124000D03*
%TO.P,J_esp1,5,Pin_5*%
%TO.N,D4*%
X174835500Y-97584000D03*
%TO.P,J_esp1,6,Pin_6*%
%TO.N,RX2*%
X174835500Y-95044000D03*
%TO.P,J_esp1,7,Pin_7*%
%TO.N,TX2*%
X174835500Y-92504000D03*
%TO.P,J_esp1,8,Pin_8*%
%TO.N,D5*%
X174835500Y-89964000D03*
%TO.P,J_esp1,9,Pin_9*%
%TO.N,D18*%
X174835500Y-87424000D03*
%TO.P,J_esp1,10,Pin_10*%
%TO.N,D19*%
X174835500Y-84884000D03*
%TO.P,J_esp1,11,Pin_11*%
%TO.N,D21*%
X174835500Y-82344000D03*
%TO.P,J_esp1,12,Pin_12*%
%TO.N,RX0*%
X174835500Y-79804000D03*
%TO.P,J_esp1,13,Pin_13*%
%TO.N,TX0*%
X174835500Y-77264000D03*
%TO.P,J_esp1,14,Pin_14*%
%TO.N,D22*%
X174835500Y-74724000D03*
%TO.P,J_esp1,15,Pin_15*%
%TO.N,D23*%
X174835500Y-72184000D03*
%TD*%
D29*
%TO.N,D26*%
X156875000Y-92425000D03*
X160500000Y-115500000D03*
%TO.N,D18*%
X187528000Y-87472000D03*
%TO.N,D23*%
X189343000Y-98943000D03*
X171780000Y-72232000D03*
%TO.N,GND5V*%
X134356500Y-98606500D03*
X130999113Y-87500887D03*
X196037000Y-85440000D03*
X144856000Y-105125000D03*
X134391000Y-110891000D03*
X185500000Y-125500000D03*
X138500000Y-126500000D03*
%TD*%
D30*
%TO.N,D26*%
X161425000Y-96975000D02*
X156875000Y-92425000D01*
X160500000Y-115500000D02*
X160500000Y-115250000D01*
X161425000Y-114575000D02*
X161425000Y-96975000D01*
X160500000Y-115500000D02*
X161425000Y-114575000D01*
%TO.N,D18*%
X187480000Y-87424000D02*
X174835500Y-87424000D01*
X187528000Y-87472000D02*
X187480000Y-87424000D01*
%TO.N,D19*%
X186803000Y-91744000D02*
X186803000Y-91700000D01*
%TO.N,D23*%
X171757000Y-114500000D02*
X168478000Y-111221000D01*
X168478000Y-111221000D02*
X168478000Y-75534000D01*
X189343000Y-98943000D02*
X189343000Y-102040000D01*
X168478000Y-75534000D02*
X171780000Y-72232000D01*
X189343000Y-102040000D02*
X176883000Y-114500000D01*
X176883000Y-114500000D02*
X171757000Y-114500000D01*
%TO.N,GND5V*%
X185750000Y-132498600D02*
X185750000Y-125750000D01*
X138500000Y-135500000D02*
X138500000Y-112250000D01*
X180248600Y-138000000D02*
X185750000Y-132498600D01*
X135712000Y-109570000D02*
X135712000Y-97251000D01*
X197815000Y-86964000D02*
X197815000Y-98648000D01*
X134356500Y-98606500D02*
X135712000Y-97251000D01*
X138500000Y-112250000D02*
X135820000Y-109570000D01*
X185750000Y-125750000D02*
X185500000Y-125500000D01*
X186000000Y-125000000D02*
X185500000Y-125500000D01*
X134391000Y-110891000D02*
X135712000Y-109570000D01*
X144856000Y-105125000D02*
X143586000Y-105125000D01*
X197815000Y-98648000D02*
X186000000Y-110463000D01*
X130999113Y-87500887D02*
X130999113Y-87999113D01*
X172251400Y-138000000D02*
X141000000Y-138000000D01*
X171500000Y-138000000D02*
X180248600Y-138000000D01*
X143586000Y-105125000D02*
X135712000Y-97251000D01*
X186000000Y-110463000D02*
X186000000Y-125000000D01*
X141000000Y-138000000D02*
X138500000Y-135500000D01*
X135712000Y-92712000D02*
X135712000Y-97251000D01*
X196291000Y-85440000D02*
X197815000Y-86964000D01*
X135820000Y-109570000D02*
X135712000Y-109570000D01*
X196037000Y-85440000D02*
X196291000Y-85440000D01*
X130999113Y-87999113D02*
X135712000Y-92712000D01*
%TD*%
M02*
