%TF.GenerationSoftware,KiCad,Pcbnew,7.0.3*%
%TF.CreationDate,2023-06-20T17:45:45-05:00*%
%TF.ProjectId,intregration1,696e7472-6567-4726-9174-696f6e312e6b,rev?*%
%TF.SameCoordinates,Original*%
%TF.FileFunction,Copper,L2,Bot*%
%TF.FilePolarity,Positive*%
%FSLAX46Y46*%
G04 Gerber Fmt 4.6, Leading zero omitted, Abs format (unit mm)*
G04 Created by KiCad (PCBNEW 7.0.3) date 2023-06-20 17:45:45*
%MOMM*%
%LPD*%
G01*
G04 APERTURE LIST*
%ADD10C,0.300000*%
%TA.AperFunction,NonConductor*%
%ADD11C,0.300000*%
%TD*%
%TA.AperFunction,ComponentPad*%
%ADD12C,2.125000*%
%TD*%
%TA.AperFunction,ComponentPad*%
%ADD13O,2.125000X2.125000*%
%TD*%
%TA.AperFunction,ComponentPad*%
%ADD14C,2.100000*%
%TD*%
%TA.AperFunction,ComponentPad*%
%ADD15O,2.125000X2.000000*%
%TD*%
%TA.AperFunction,ComponentPad*%
%ADD16R,2.200000X2.200000*%
%TD*%
%TA.AperFunction,ComponentPad*%
%ADD17O,2.200000X2.200000*%
%TD*%
%TA.AperFunction,ComponentPad*%
%ADD18R,3.500000X3.960000*%
%TD*%
%TA.AperFunction,ComponentPad*%
%ADD19O,3.500000X3.960000*%
%TD*%
%TA.AperFunction,ComponentPad*%
%ADD20C,5.600000*%
%TD*%
%TA.AperFunction,ComponentPad*%
%ADD21R,3.500000X3.500000*%
%TD*%
%TA.AperFunction,ComponentPad*%
%ADD22C,3.500000*%
%TD*%
%TA.AperFunction,ComponentPad*%
%ADD23C,5.400000*%
%TD*%
%TA.AperFunction,ComponentPad*%
%ADD24C,2.000000*%
%TD*%
%TA.AperFunction,ComponentPad*%
%ADD25R,2.540000X2.000000*%
%TD*%
%TA.AperFunction,ComponentPad*%
%ADD26R,2.540000X1.950000*%
%TD*%
%TA.AperFunction,ComponentPad*%
%ADD27O,2.125000X3.000000*%
%TD*%
%TA.AperFunction,ComponentPad*%
%ADD28R,2.540000X2.100000*%
%TD*%
%TA.AperFunction,ComponentPad*%
%ADD29R,2.540000X1.740000*%
%TD*%
%TA.AperFunction,ComponentPad*%
%ADD30C,3.000000*%
%TD*%
%TA.AperFunction,ComponentPad*%
%ADD31C,2.500000*%
%TD*%
%TA.AperFunction,ComponentPad*%
%ADD32R,2.000000X2.000000*%
%TD*%
%TA.AperFunction,ViaPad*%
%ADD33C,2.125000*%
%TD*%
%TA.AperFunction,Conductor*%
%ADD34C,1.330000*%
%TD*%
G04 APERTURE END LIST*
D10*
D11*
X143680155Y-33750447D02*
X143680155Y-31250447D01*
X143680155Y-31250447D02*
X142846822Y-33036161D01*
X142846822Y-33036161D02*
X142013489Y-31250447D01*
X142013489Y-31250447D02*
X142013489Y-33750447D01*
X139751584Y-33750447D02*
X139751584Y-32440923D01*
X139751584Y-32440923D02*
X139870631Y-32202828D01*
X139870631Y-32202828D02*
X140108727Y-32083780D01*
X140108727Y-32083780D02*
X140584917Y-32083780D01*
X140584917Y-32083780D02*
X140823012Y-32202828D01*
X139751584Y-33631400D02*
X139989679Y-33750447D01*
X139989679Y-33750447D02*
X140584917Y-33750447D01*
X140584917Y-33750447D02*
X140823012Y-33631400D01*
X140823012Y-33631400D02*
X140942060Y-33393304D01*
X140942060Y-33393304D02*
X140942060Y-33155209D01*
X140942060Y-33155209D02*
X140823012Y-32917114D01*
X140823012Y-32917114D02*
X140584917Y-32798066D01*
X140584917Y-32798066D02*
X139989679Y-32798066D01*
X139989679Y-32798066D02*
X139751584Y-32679019D01*
X138918250Y-32083780D02*
X137965869Y-32083780D01*
X138561107Y-31250447D02*
X138561107Y-33393304D01*
X138561107Y-33393304D02*
X138442060Y-33631400D01*
X138442060Y-33631400D02*
X138203965Y-33750447D01*
X138203965Y-33750447D02*
X137965869Y-33750447D01*
X137132536Y-33750447D02*
X137132536Y-32083780D01*
X137132536Y-31250447D02*
X137251584Y-31369495D01*
X137251584Y-31369495D02*
X137132536Y-31488542D01*
X137132536Y-31488542D02*
X137013489Y-31369495D01*
X137013489Y-31369495D02*
X137132536Y-31250447D01*
X137132536Y-31250447D02*
X137132536Y-31488542D01*
X134870632Y-33631400D02*
X135108727Y-33750447D01*
X135108727Y-33750447D02*
X135584918Y-33750447D01*
X135584918Y-33750447D02*
X135823013Y-33631400D01*
X135823013Y-33631400D02*
X135942060Y-33512352D01*
X135942060Y-33512352D02*
X136061108Y-33274257D01*
X136061108Y-33274257D02*
X136061108Y-32559971D01*
X136061108Y-32559971D02*
X135942060Y-32321876D01*
X135942060Y-32321876D02*
X135823013Y-32202828D01*
X135823013Y-32202828D02*
X135584918Y-32083780D01*
X135584918Y-32083780D02*
X135108727Y-32083780D01*
X135108727Y-32083780D02*
X134870632Y-32202828D01*
X132727775Y-33750447D02*
X132727775Y-32440923D01*
X132727775Y-32440923D02*
X132846822Y-32202828D01*
X132846822Y-32202828D02*
X133084918Y-32083780D01*
X133084918Y-32083780D02*
X133561108Y-32083780D01*
X133561108Y-32083780D02*
X133799203Y-32202828D01*
X132727775Y-33631400D02*
X132965870Y-33750447D01*
X132965870Y-33750447D02*
X133561108Y-33750447D01*
X133561108Y-33750447D02*
X133799203Y-33631400D01*
X133799203Y-33631400D02*
X133918251Y-33393304D01*
X133918251Y-33393304D02*
X133918251Y-33155209D01*
X133918251Y-33155209D02*
X133799203Y-32917114D01*
X133799203Y-32917114D02*
X133561108Y-32798066D01*
X133561108Y-32798066D02*
X132965870Y-32798066D01*
X132965870Y-32798066D02*
X132727775Y-32679019D01*
X131656346Y-33631400D02*
X131418251Y-33750447D01*
X131418251Y-33750447D02*
X130942060Y-33750447D01*
X130942060Y-33750447D02*
X130703965Y-33631400D01*
X130703965Y-33631400D02*
X130584917Y-33393304D01*
X130584917Y-33393304D02*
X130584917Y-33274257D01*
X130584917Y-33274257D02*
X130703965Y-33036161D01*
X130703965Y-33036161D02*
X130942060Y-32917114D01*
X130942060Y-32917114D02*
X131299203Y-32917114D01*
X131299203Y-32917114D02*
X131537298Y-32798066D01*
X131537298Y-32798066D02*
X131656346Y-32559971D01*
X131656346Y-32559971D02*
X131656346Y-32440923D01*
X131656346Y-32440923D02*
X131537298Y-32202828D01*
X131537298Y-32202828D02*
X131299203Y-32083780D01*
X131299203Y-32083780D02*
X130942060Y-32083780D01*
X130942060Y-32083780D02*
X130703965Y-32202828D01*
X127846822Y-31250447D02*
X127251584Y-33750447D01*
X127251584Y-33750447D02*
X126775393Y-31964733D01*
X126775393Y-31964733D02*
X126299203Y-33750447D01*
X126299203Y-33750447D02*
X125703965Y-31250447D01*
X123680155Y-33750447D02*
X123680155Y-32440923D01*
X123680155Y-32440923D02*
X123799202Y-32202828D01*
X123799202Y-32202828D02*
X124037298Y-32083780D01*
X124037298Y-32083780D02*
X124513488Y-32083780D01*
X124513488Y-32083780D02*
X124751583Y-32202828D01*
X123680155Y-33631400D02*
X123918250Y-33750447D01*
X123918250Y-33750447D02*
X124513488Y-33750447D01*
X124513488Y-33750447D02*
X124751583Y-33631400D01*
X124751583Y-33631400D02*
X124870631Y-33393304D01*
X124870631Y-33393304D02*
X124870631Y-33155209D01*
X124870631Y-33155209D02*
X124751583Y-32917114D01*
X124751583Y-32917114D02*
X124513488Y-32798066D01*
X124513488Y-32798066D02*
X123918250Y-32798066D01*
X123918250Y-32798066D02*
X123680155Y-32679019D01*
X122846821Y-32083780D02*
X121894440Y-32083780D01*
X122489678Y-31250447D02*
X122489678Y-33393304D01*
X122489678Y-33393304D02*
X122370631Y-33631400D01*
X122370631Y-33631400D02*
X122132536Y-33750447D01*
X122132536Y-33750447D02*
X121894440Y-33750447D01*
X120108726Y-33631400D02*
X120346822Y-33750447D01*
X120346822Y-33750447D02*
X120823012Y-33750447D01*
X120823012Y-33750447D02*
X121061107Y-33631400D01*
X121061107Y-33631400D02*
X121180155Y-33393304D01*
X121180155Y-33393304D02*
X121180155Y-32440923D01*
X121180155Y-32440923D02*
X121061107Y-32202828D01*
X121061107Y-32202828D02*
X120823012Y-32083780D01*
X120823012Y-32083780D02*
X120346822Y-32083780D01*
X120346822Y-32083780D02*
X120108726Y-32202828D01*
X120108726Y-32202828D02*
X119989679Y-32440923D01*
X119989679Y-32440923D02*
X119989679Y-32679019D01*
X119989679Y-32679019D02*
X121180155Y-32917114D01*
X118918250Y-33750447D02*
X118918250Y-32083780D01*
X118918250Y-32559971D02*
X118799203Y-32321876D01*
X118799203Y-32321876D02*
X118680155Y-32202828D01*
X118680155Y-32202828D02*
X118442060Y-32083780D01*
X118442060Y-32083780D02*
X118203965Y-32083780D01*
X143203965Y-35275447D02*
X141775394Y-35275447D01*
X142489680Y-37775447D02*
X142489680Y-35275447D01*
X139870632Y-37775447D02*
X139870632Y-36465923D01*
X139870632Y-36465923D02*
X139989679Y-36227828D01*
X139989679Y-36227828D02*
X140227775Y-36108780D01*
X140227775Y-36108780D02*
X140703965Y-36108780D01*
X140703965Y-36108780D02*
X140942060Y-36227828D01*
X139870632Y-37656400D02*
X140108727Y-37775447D01*
X140108727Y-37775447D02*
X140703965Y-37775447D01*
X140703965Y-37775447D02*
X140942060Y-37656400D01*
X140942060Y-37656400D02*
X141061108Y-37418304D01*
X141061108Y-37418304D02*
X141061108Y-37180209D01*
X141061108Y-37180209D02*
X140942060Y-36942114D01*
X140942060Y-36942114D02*
X140703965Y-36823066D01*
X140703965Y-36823066D02*
X140108727Y-36823066D01*
X140108727Y-36823066D02*
X139870632Y-36704019D01*
X138680155Y-36108780D02*
X138680155Y-37775447D01*
X138680155Y-36346876D02*
X138561108Y-36227828D01*
X138561108Y-36227828D02*
X138323013Y-36108780D01*
X138323013Y-36108780D02*
X137965870Y-36108780D01*
X137965870Y-36108780D02*
X137727774Y-36227828D01*
X137727774Y-36227828D02*
X137608727Y-36465923D01*
X137608727Y-36465923D02*
X137608727Y-37775447D01*
X136418250Y-37775447D02*
X136418250Y-35275447D01*
X136180155Y-36823066D02*
X135465869Y-37775447D01*
X135465869Y-36108780D02*
X136418250Y-37061161D01*
X132489678Y-37775447D02*
X132489678Y-35275447D01*
X132489678Y-35275447D02*
X131656345Y-37061161D01*
X131656345Y-37061161D02*
X130823012Y-35275447D01*
X130823012Y-35275447D02*
X130823012Y-37775447D01*
X129275393Y-37775447D02*
X129513488Y-37656400D01*
X129513488Y-37656400D02*
X129632535Y-37537352D01*
X129632535Y-37537352D02*
X129751583Y-37299257D01*
X129751583Y-37299257D02*
X129751583Y-36584971D01*
X129751583Y-36584971D02*
X129632535Y-36346876D01*
X129632535Y-36346876D02*
X129513488Y-36227828D01*
X129513488Y-36227828D02*
X129275393Y-36108780D01*
X129275393Y-36108780D02*
X128918250Y-36108780D01*
X128918250Y-36108780D02*
X128680154Y-36227828D01*
X128680154Y-36227828D02*
X128561107Y-36346876D01*
X128561107Y-36346876D02*
X128442059Y-36584971D01*
X128442059Y-36584971D02*
X128442059Y-37299257D01*
X128442059Y-37299257D02*
X128561107Y-37537352D01*
X128561107Y-37537352D02*
X128680154Y-37656400D01*
X128680154Y-37656400D02*
X128918250Y-37775447D01*
X128918250Y-37775447D02*
X129275393Y-37775447D01*
X126299202Y-37775447D02*
X126299202Y-35275447D01*
X126299202Y-37656400D02*
X126537297Y-37775447D01*
X126537297Y-37775447D02*
X127013488Y-37775447D01*
X127013488Y-37775447D02*
X127251583Y-37656400D01*
X127251583Y-37656400D02*
X127370630Y-37537352D01*
X127370630Y-37537352D02*
X127489678Y-37299257D01*
X127489678Y-37299257D02*
X127489678Y-36584971D01*
X127489678Y-36584971D02*
X127370630Y-36346876D01*
X127370630Y-36346876D02*
X127251583Y-36227828D01*
X127251583Y-36227828D02*
X127013488Y-36108780D01*
X127013488Y-36108780D02*
X126537297Y-36108780D01*
X126537297Y-36108780D02*
X126299202Y-36227828D01*
X124037297Y-36108780D02*
X124037297Y-37775447D01*
X125108725Y-36108780D02*
X125108725Y-37418304D01*
X125108725Y-37418304D02*
X124989678Y-37656400D01*
X124989678Y-37656400D02*
X124751583Y-37775447D01*
X124751583Y-37775447D02*
X124394440Y-37775447D01*
X124394440Y-37775447D02*
X124156344Y-37656400D01*
X124156344Y-37656400D02*
X124037297Y-37537352D01*
X122489678Y-37775447D02*
X122727773Y-37656400D01*
X122727773Y-37656400D02*
X122846820Y-37418304D01*
X122846820Y-37418304D02*
X122846820Y-35275447D01*
X120584915Y-37656400D02*
X120823011Y-37775447D01*
X120823011Y-37775447D02*
X121299201Y-37775447D01*
X121299201Y-37775447D02*
X121537296Y-37656400D01*
X121537296Y-37656400D02*
X121656344Y-37418304D01*
X121656344Y-37418304D02*
X121656344Y-36465923D01*
X121656344Y-36465923D02*
X121537296Y-36227828D01*
X121537296Y-36227828D02*
X121299201Y-36108780D01*
X121299201Y-36108780D02*
X120823011Y-36108780D01*
X120823011Y-36108780D02*
X120584915Y-36227828D01*
X120584915Y-36227828D02*
X120465868Y-36465923D01*
X120465868Y-36465923D02*
X120465868Y-36704019D01*
X120465868Y-36704019D02*
X121656344Y-36942114D01*
X119394439Y-37537352D02*
X119275392Y-37656400D01*
X119275392Y-37656400D02*
X119394439Y-37775447D01*
X119394439Y-37775447D02*
X119513487Y-37656400D01*
X119513487Y-37656400D02*
X119394439Y-37537352D01*
X119394439Y-37537352D02*
X119394439Y-37775447D01*
X145942061Y-44515923D02*
X145584918Y-44634971D01*
X145584918Y-44634971D02*
X145465871Y-44754019D01*
X145465871Y-44754019D02*
X145346823Y-44992114D01*
X145346823Y-44992114D02*
X145346823Y-45349257D01*
X145346823Y-45349257D02*
X145465871Y-45587352D01*
X145465871Y-45587352D02*
X145584918Y-45706400D01*
X145584918Y-45706400D02*
X145823013Y-45825447D01*
X145823013Y-45825447D02*
X146775394Y-45825447D01*
X146775394Y-45825447D02*
X146775394Y-43325447D01*
X146775394Y-43325447D02*
X145942061Y-43325447D01*
X145942061Y-43325447D02*
X145703966Y-43444495D01*
X145703966Y-43444495D02*
X145584918Y-43563542D01*
X145584918Y-43563542D02*
X145465871Y-43801638D01*
X145465871Y-43801638D02*
X145465871Y-44039733D01*
X145465871Y-44039733D02*
X145584918Y-44277828D01*
X145584918Y-44277828D02*
X145703966Y-44396876D01*
X145703966Y-44396876D02*
X145942061Y-44515923D01*
X145942061Y-44515923D02*
X146775394Y-44515923D01*
X143203966Y-44158780D02*
X143203966Y-45825447D01*
X144275394Y-44158780D02*
X144275394Y-45468304D01*
X144275394Y-45468304D02*
X144156347Y-45706400D01*
X144156347Y-45706400D02*
X143918252Y-45825447D01*
X143918252Y-45825447D02*
X143561109Y-45825447D01*
X143561109Y-45825447D02*
X143323013Y-45706400D01*
X143323013Y-45706400D02*
X143203966Y-45587352D01*
X142013489Y-45825447D02*
X142013489Y-44158780D01*
X142013489Y-43325447D02*
X142132537Y-43444495D01*
X142132537Y-43444495D02*
X142013489Y-43563542D01*
X142013489Y-43563542D02*
X141894442Y-43444495D01*
X141894442Y-43444495D02*
X142013489Y-43325447D01*
X142013489Y-43325447D02*
X142013489Y-43563542D01*
X140465871Y-45825447D02*
X140703966Y-45706400D01*
X140703966Y-45706400D02*
X140823013Y-45468304D01*
X140823013Y-45468304D02*
X140823013Y-43325447D01*
X138442061Y-45825447D02*
X138442061Y-43325447D01*
X138442061Y-45706400D02*
X138680156Y-45825447D01*
X138680156Y-45825447D02*
X139156347Y-45825447D01*
X139156347Y-45825447D02*
X139394442Y-45706400D01*
X139394442Y-45706400D02*
X139513489Y-45587352D01*
X139513489Y-45587352D02*
X139632537Y-45349257D01*
X139632537Y-45349257D02*
X139632537Y-44634971D01*
X139632537Y-44634971D02*
X139513489Y-44396876D01*
X139513489Y-44396876D02*
X139394442Y-44277828D01*
X139394442Y-44277828D02*
X139156347Y-44158780D01*
X139156347Y-44158780D02*
X138680156Y-44158780D01*
X138680156Y-44158780D02*
X138442061Y-44277828D01*
X137251584Y-45825447D02*
X137251584Y-44158780D01*
X137251584Y-43325447D02*
X137370632Y-43444495D01*
X137370632Y-43444495D02*
X137251584Y-43563542D01*
X137251584Y-43563542D02*
X137132537Y-43444495D01*
X137132537Y-43444495D02*
X137251584Y-43325447D01*
X137251584Y-43325447D02*
X137251584Y-43563542D01*
X136061108Y-44158780D02*
X136061108Y-45825447D01*
X136061108Y-44396876D02*
X135942061Y-44277828D01*
X135942061Y-44277828D02*
X135703966Y-44158780D01*
X135703966Y-44158780D02*
X135346823Y-44158780D01*
X135346823Y-44158780D02*
X135108727Y-44277828D01*
X135108727Y-44277828D02*
X134989680Y-44515923D01*
X134989680Y-44515923D02*
X134989680Y-45825447D01*
X132727775Y-44158780D02*
X132727775Y-46182590D01*
X132727775Y-46182590D02*
X132846822Y-46420685D01*
X132846822Y-46420685D02*
X132965870Y-46539733D01*
X132965870Y-46539733D02*
X133203965Y-46658780D01*
X133203965Y-46658780D02*
X133561108Y-46658780D01*
X133561108Y-46658780D02*
X133799203Y-46539733D01*
X132727775Y-45706400D02*
X132965870Y-45825447D01*
X132965870Y-45825447D02*
X133442061Y-45825447D01*
X133442061Y-45825447D02*
X133680156Y-45706400D01*
X133680156Y-45706400D02*
X133799203Y-45587352D01*
X133799203Y-45587352D02*
X133918251Y-45349257D01*
X133918251Y-45349257D02*
X133918251Y-44634971D01*
X133918251Y-44634971D02*
X133799203Y-44396876D01*
X133799203Y-44396876D02*
X133680156Y-44277828D01*
X133680156Y-44277828D02*
X133442061Y-44158780D01*
X133442061Y-44158780D02*
X132965870Y-44158780D01*
X132965870Y-44158780D02*
X132727775Y-44277828D01*
X128561108Y-45825447D02*
X128561108Y-44515923D01*
X128561108Y-44515923D02*
X128680155Y-44277828D01*
X128680155Y-44277828D02*
X128918251Y-44158780D01*
X128918251Y-44158780D02*
X129394441Y-44158780D01*
X129394441Y-44158780D02*
X129632536Y-44277828D01*
X128561108Y-45706400D02*
X128799203Y-45825447D01*
X128799203Y-45825447D02*
X129394441Y-45825447D01*
X129394441Y-45825447D02*
X129632536Y-45706400D01*
X129632536Y-45706400D02*
X129751584Y-45468304D01*
X129751584Y-45468304D02*
X129751584Y-45230209D01*
X129751584Y-45230209D02*
X129632536Y-44992114D01*
X129632536Y-44992114D02*
X129394441Y-44873066D01*
X129394441Y-44873066D02*
X128799203Y-44873066D01*
X128799203Y-44873066D02*
X128561108Y-44754019D01*
X127370631Y-44158780D02*
X127370631Y-45825447D01*
X127370631Y-44396876D02*
X127251584Y-44277828D01*
X127251584Y-44277828D02*
X127013489Y-44158780D01*
X127013489Y-44158780D02*
X126656346Y-44158780D01*
X126656346Y-44158780D02*
X126418250Y-44277828D01*
X126418250Y-44277828D02*
X126299203Y-44515923D01*
X126299203Y-44515923D02*
X126299203Y-45825447D01*
X122846822Y-45825447D02*
X123084917Y-45706400D01*
X123084917Y-45706400D02*
X123203964Y-45587352D01*
X123203964Y-45587352D02*
X123323012Y-45349257D01*
X123323012Y-45349257D02*
X123323012Y-44634971D01*
X123323012Y-44634971D02*
X123203964Y-44396876D01*
X123203964Y-44396876D02*
X123084917Y-44277828D01*
X123084917Y-44277828D02*
X122846822Y-44158780D01*
X122846822Y-44158780D02*
X122489679Y-44158780D01*
X122489679Y-44158780D02*
X122251583Y-44277828D01*
X122251583Y-44277828D02*
X122132536Y-44396876D01*
X122132536Y-44396876D02*
X122013488Y-44634971D01*
X122013488Y-44634971D02*
X122013488Y-45349257D01*
X122013488Y-45349257D02*
X122132536Y-45587352D01*
X122132536Y-45587352D02*
X122251583Y-45706400D01*
X122251583Y-45706400D02*
X122489679Y-45825447D01*
X122489679Y-45825447D02*
X122846822Y-45825447D01*
X120942059Y-44158780D02*
X120942059Y-46658780D01*
X120942059Y-44277828D02*
X120703964Y-44158780D01*
X120703964Y-44158780D02*
X120227774Y-44158780D01*
X120227774Y-44158780D02*
X119989678Y-44277828D01*
X119989678Y-44277828D02*
X119870631Y-44396876D01*
X119870631Y-44396876D02*
X119751583Y-44634971D01*
X119751583Y-44634971D02*
X119751583Y-45349257D01*
X119751583Y-45349257D02*
X119870631Y-45587352D01*
X119870631Y-45587352D02*
X119989678Y-45706400D01*
X119989678Y-45706400D02*
X120227774Y-45825447D01*
X120227774Y-45825447D02*
X120703964Y-45825447D01*
X120703964Y-45825447D02*
X120942059Y-45706400D01*
X117727773Y-45706400D02*
X117965869Y-45825447D01*
X117965869Y-45825447D02*
X118442059Y-45825447D01*
X118442059Y-45825447D02*
X118680154Y-45706400D01*
X118680154Y-45706400D02*
X118799202Y-45468304D01*
X118799202Y-45468304D02*
X118799202Y-44515923D01*
X118799202Y-44515923D02*
X118680154Y-44277828D01*
X118680154Y-44277828D02*
X118442059Y-44158780D01*
X118442059Y-44158780D02*
X117965869Y-44158780D01*
X117965869Y-44158780D02*
X117727773Y-44277828D01*
X117727773Y-44277828D02*
X117608726Y-44515923D01*
X117608726Y-44515923D02*
X117608726Y-44754019D01*
X117608726Y-44754019D02*
X118799202Y-44992114D01*
X116537297Y-44158780D02*
X116537297Y-45825447D01*
X116537297Y-44396876D02*
X116418250Y-44277828D01*
X116418250Y-44277828D02*
X116180155Y-44158780D01*
X116180155Y-44158780D02*
X115823012Y-44158780D01*
X115823012Y-44158780D02*
X115584916Y-44277828D01*
X115584916Y-44277828D02*
X115465869Y-44515923D01*
X115465869Y-44515923D02*
X115465869Y-45825447D01*
X140227774Y-49850447D02*
X140227774Y-48540923D01*
X140227774Y-48540923D02*
X140346821Y-48302828D01*
X140346821Y-48302828D02*
X140584917Y-48183780D01*
X140584917Y-48183780D02*
X141061107Y-48183780D01*
X141061107Y-48183780D02*
X141299202Y-48302828D01*
X140227774Y-49731400D02*
X140465869Y-49850447D01*
X140465869Y-49850447D02*
X141061107Y-49850447D01*
X141061107Y-49850447D02*
X141299202Y-49731400D01*
X141299202Y-49731400D02*
X141418250Y-49493304D01*
X141418250Y-49493304D02*
X141418250Y-49255209D01*
X141418250Y-49255209D02*
X141299202Y-49017114D01*
X141299202Y-49017114D02*
X141061107Y-48898066D01*
X141061107Y-48898066D02*
X140465869Y-48898066D01*
X140465869Y-48898066D02*
X140227774Y-48779019D01*
X137965869Y-48183780D02*
X137965869Y-50207590D01*
X137965869Y-50207590D02*
X138084916Y-50445685D01*
X138084916Y-50445685D02*
X138203964Y-50564733D01*
X138203964Y-50564733D02*
X138442059Y-50683780D01*
X138442059Y-50683780D02*
X138799202Y-50683780D01*
X138799202Y-50683780D02*
X139037297Y-50564733D01*
X137965869Y-49731400D02*
X138203964Y-49850447D01*
X138203964Y-49850447D02*
X138680155Y-49850447D01*
X138680155Y-49850447D02*
X138918250Y-49731400D01*
X138918250Y-49731400D02*
X139037297Y-49612352D01*
X139037297Y-49612352D02*
X139156345Y-49374257D01*
X139156345Y-49374257D02*
X139156345Y-48659971D01*
X139156345Y-48659971D02*
X139037297Y-48421876D01*
X139037297Y-48421876D02*
X138918250Y-48302828D01*
X138918250Y-48302828D02*
X138680155Y-48183780D01*
X138680155Y-48183780D02*
X138203964Y-48183780D01*
X138203964Y-48183780D02*
X137965869Y-48302828D01*
X136775392Y-49850447D02*
X136775392Y-48183780D01*
X136775392Y-48659971D02*
X136656345Y-48421876D01*
X136656345Y-48421876D02*
X136537297Y-48302828D01*
X136537297Y-48302828D02*
X136299202Y-48183780D01*
X136299202Y-48183780D02*
X136061107Y-48183780D01*
X135227773Y-49850447D02*
X135227773Y-48183780D01*
X135227773Y-47350447D02*
X135346821Y-47469495D01*
X135346821Y-47469495D02*
X135227773Y-47588542D01*
X135227773Y-47588542D02*
X135108726Y-47469495D01*
X135108726Y-47469495D02*
X135227773Y-47350447D01*
X135227773Y-47350447D02*
X135227773Y-47588542D01*
X132965869Y-49731400D02*
X133203964Y-49850447D01*
X133203964Y-49850447D02*
X133680155Y-49850447D01*
X133680155Y-49850447D02*
X133918250Y-49731400D01*
X133918250Y-49731400D02*
X134037297Y-49612352D01*
X134037297Y-49612352D02*
X134156345Y-49374257D01*
X134156345Y-49374257D02*
X134156345Y-48659971D01*
X134156345Y-48659971D02*
X134037297Y-48421876D01*
X134037297Y-48421876D02*
X133918250Y-48302828D01*
X133918250Y-48302828D02*
X133680155Y-48183780D01*
X133680155Y-48183780D02*
X133203964Y-48183780D01*
X133203964Y-48183780D02*
X132965869Y-48302828D01*
X130823012Y-48183780D02*
X130823012Y-49850447D01*
X131894440Y-48183780D02*
X131894440Y-49493304D01*
X131894440Y-49493304D02*
X131775393Y-49731400D01*
X131775393Y-49731400D02*
X131537298Y-49850447D01*
X131537298Y-49850447D02*
X131180155Y-49850447D01*
X131180155Y-49850447D02*
X130942059Y-49731400D01*
X130942059Y-49731400D02*
X130823012Y-49612352D01*
X129275393Y-49850447D02*
X129513488Y-49731400D01*
X129513488Y-49731400D02*
X129632535Y-49493304D01*
X129632535Y-49493304D02*
X129632535Y-47350447D01*
X128680154Y-48183780D02*
X127727773Y-48183780D01*
X128323011Y-47350447D02*
X128323011Y-49493304D01*
X128323011Y-49493304D02*
X128203964Y-49731400D01*
X128203964Y-49731400D02*
X127965869Y-49850447D01*
X127965869Y-49850447D02*
X127727773Y-49850447D01*
X125823012Y-48183780D02*
X125823012Y-49850447D01*
X126894440Y-48183780D02*
X126894440Y-49493304D01*
X126894440Y-49493304D02*
X126775393Y-49731400D01*
X126775393Y-49731400D02*
X126537298Y-49850447D01*
X126537298Y-49850447D02*
X126180155Y-49850447D01*
X126180155Y-49850447D02*
X125942059Y-49731400D01*
X125942059Y-49731400D02*
X125823012Y-49612352D01*
X124632535Y-49850447D02*
X124632535Y-48183780D01*
X124632535Y-48659971D02*
X124513488Y-48421876D01*
X124513488Y-48421876D02*
X124394440Y-48302828D01*
X124394440Y-48302828D02*
X124156345Y-48183780D01*
X124156345Y-48183780D02*
X123918250Y-48183780D01*
X122132535Y-49731400D02*
X122370631Y-49850447D01*
X122370631Y-49850447D02*
X122846821Y-49850447D01*
X122846821Y-49850447D02*
X123084916Y-49731400D01*
X123084916Y-49731400D02*
X123203964Y-49493304D01*
X123203964Y-49493304D02*
X123203964Y-48540923D01*
X123203964Y-48540923D02*
X123084916Y-48302828D01*
X123084916Y-48302828D02*
X122846821Y-48183780D01*
X122846821Y-48183780D02*
X122370631Y-48183780D01*
X122370631Y-48183780D02*
X122132535Y-48302828D01*
X122132535Y-48302828D02*
X122013488Y-48540923D01*
X122013488Y-48540923D02*
X122013488Y-48779019D01*
X122013488Y-48779019D02*
X123203964Y-49017114D01*
X120942059Y-49612352D02*
X120823012Y-49731400D01*
X120823012Y-49731400D02*
X120942059Y-49850447D01*
X120942059Y-49850447D02*
X121061107Y-49731400D01*
X121061107Y-49731400D02*
X120942059Y-49612352D01*
X120942059Y-49612352D02*
X120942059Y-49850447D01*
X136775393Y-51375447D02*
X135346822Y-51375447D01*
X136061108Y-53875447D02*
X136061108Y-51375447D01*
X134156346Y-53875447D02*
X134394441Y-53756400D01*
X134394441Y-53756400D02*
X134513488Y-53637352D01*
X134513488Y-53637352D02*
X134632536Y-53399257D01*
X134632536Y-53399257D02*
X134632536Y-52684971D01*
X134632536Y-52684971D02*
X134513488Y-52446876D01*
X134513488Y-52446876D02*
X134394441Y-52327828D01*
X134394441Y-52327828D02*
X134156346Y-52208780D01*
X134156346Y-52208780D02*
X133799203Y-52208780D01*
X133799203Y-52208780D02*
X133561107Y-52327828D01*
X133561107Y-52327828D02*
X133442060Y-52446876D01*
X133442060Y-52446876D02*
X133323012Y-52684971D01*
X133323012Y-52684971D02*
X133323012Y-53399257D01*
X133323012Y-53399257D02*
X133442060Y-53637352D01*
X133442060Y-53637352D02*
X133561107Y-53756400D01*
X133561107Y-53756400D02*
X133799203Y-53875447D01*
X133799203Y-53875447D02*
X134156346Y-53875447D01*
X131180155Y-53875447D02*
X131180155Y-51375447D01*
X131180155Y-53756400D02*
X131418250Y-53875447D01*
X131418250Y-53875447D02*
X131894441Y-53875447D01*
X131894441Y-53875447D02*
X132132536Y-53756400D01*
X132132536Y-53756400D02*
X132251583Y-53637352D01*
X132251583Y-53637352D02*
X132370631Y-53399257D01*
X132370631Y-53399257D02*
X132370631Y-52684971D01*
X132370631Y-52684971D02*
X132251583Y-52446876D01*
X132251583Y-52446876D02*
X132132536Y-52327828D01*
X132132536Y-52327828D02*
X131894441Y-52208780D01*
X131894441Y-52208780D02*
X131418250Y-52208780D01*
X131418250Y-52208780D02*
X131180155Y-52327828D01*
X128918250Y-53875447D02*
X128918250Y-52565923D01*
X128918250Y-52565923D02*
X129037297Y-52327828D01*
X129037297Y-52327828D02*
X129275393Y-52208780D01*
X129275393Y-52208780D02*
X129751583Y-52208780D01*
X129751583Y-52208780D02*
X129989678Y-52327828D01*
X128918250Y-53756400D02*
X129156345Y-53875447D01*
X129156345Y-53875447D02*
X129751583Y-53875447D01*
X129751583Y-53875447D02*
X129989678Y-53756400D01*
X129989678Y-53756400D02*
X130108726Y-53518304D01*
X130108726Y-53518304D02*
X130108726Y-53280209D01*
X130108726Y-53280209D02*
X129989678Y-53042114D01*
X129989678Y-53042114D02*
X129751583Y-52923066D01*
X129751583Y-52923066D02*
X129156345Y-52923066D01*
X129156345Y-52923066D02*
X128918250Y-52804019D01*
X127965869Y-52208780D02*
X127370631Y-53875447D01*
X126775392Y-52208780D02*
X127370631Y-53875447D01*
X127370631Y-53875447D02*
X127608726Y-54470685D01*
X127608726Y-54470685D02*
X127727773Y-54589733D01*
X127727773Y-54589733D02*
X127965869Y-54708780D01*
X125823011Y-53637352D02*
X125703964Y-53756400D01*
X125703964Y-53756400D02*
X125823011Y-53875447D01*
X125823011Y-53875447D02*
X125942059Y-53756400D01*
X125942059Y-53756400D02*
X125823011Y-53637352D01*
X125823011Y-53637352D02*
X125823011Y-53875447D01*
D12*
%TO.P,R6,1*%
%TO.N,Net-(D1-K)*%
X50800000Y-130252000D03*
D13*
%TO.P,R6,2*%
%TO.N,5v*%
X50800000Y-125172000D03*
%TD*%
D14*
%TO.P,R1,1*%
%TO.N,5v*%
X69957500Y-81147500D03*
D15*
%TO.P,R1,2*%
%TO.N,D25*%
X69957500Y-83687500D03*
%TD*%
D16*
%TO.P,D2,1,K*%
%TO.N,Net-(D2-K)*%
X104140000Y-130556000D03*
D17*
%TO.P,D2,2,A*%
%TO.N,Net-(D2-A)*%
X104140000Y-120396000D03*
%TD*%
D12*
%TO.P,R2,1*%
%TO.N,D22*%
X67230000Y-104317000D03*
D13*
%TO.P,R2,2*%
%TO.N,Net-(Q1-B)*%
X67230000Y-109397000D03*
%TD*%
D18*
%TO.P,J_fan1,1,Pin_1*%
%TO.N,AC2*%
X62404000Y-159258000D03*
D19*
%TO.P,J_fan1,2,Pin_2*%
%TO.N,Net-(J_fan1-Pin_2)*%
X57404000Y-159258000D03*
%TD*%
D18*
%TO.P,5V1,1,Pin_1*%
%TO.N,5v*%
X106717000Y-35352000D03*
D19*
%TO.P,5V1,2,Pin_2*%
%TO.N,GND5V*%
X101717000Y-35352000D03*
%TD*%
D12*
%TO.P,R5,1*%
%TO.N,D21*%
X131826000Y-104190000D03*
D13*
%TO.P,R5,2*%
%TO.N,Net-(Q4-B)*%
X131826000Y-109270000D03*
%TD*%
D18*
%TO.P,J_LOAD2,1,Pin_1*%
%TO.N,GND LOAD*%
X135665000Y-160020000D03*
D19*
%TO.P,J_LOAD2,2,Pin_2*%
%TO.N,Normally O*%
X130665000Y-160020000D03*
%TD*%
D20*
%TO.P,H6,1*%
%TO.N,N/C*%
X54356000Y-96012000D03*
%TD*%
D21*
%TO.P,J2,1,Pin_1*%
%TO.N,D34*%
X58889000Y-68651500D03*
D22*
%TO.P,J2,2,Pin_2*%
%TO.N,5v*%
X58889000Y-63651500D03*
%TO.P,J2,3,Pin_3*%
%TO.N,GND5V*%
X58889000Y-58651500D03*
%TD*%
D23*
%TO.P,H2,1*%
%TO.N,N/C*%
X153416000Y-34290000D03*
%TD*%
D24*
%TO.P,C2,1*%
%TO.N,5v*%
X84953000Y-36602000D03*
%TO.P,C2,2*%
%TO.N,GND5V*%
X84953000Y-34102000D03*
%TD*%
D21*
%TO.P,J1,1,Pin_1*%
%TO.N,D25*%
X58889000Y-84907500D03*
D22*
%TO.P,J1,2,Pin_2*%
%TO.N,5v*%
X58889000Y-79907500D03*
%TO.P,J1,3,Pin_3*%
%TO.N,GND5V*%
X58889000Y-74907500D03*
%TD*%
D18*
%TO.P,J_AC_INPUT1,1,Pin_1*%
%TO.N,AC1*%
X118618000Y-159512000D03*
D19*
%TO.P,J_AC_INPUT1,2,Pin_2*%
%TO.N,AC2*%
X113618000Y-159512000D03*
%TD*%
D18*
%TO.P,J_LOAD1,1,Pin_1*%
%TO.N,LOAD IN*%
X150825000Y-160020000D03*
D19*
%TO.P,J_LOAD1,2,Pin_2*%
%TO.N,GND LOAD*%
X145825000Y-160020000D03*
%TD*%
D25*
%TO.P,J_esp1,1,Pin_1*%
%TO.N,3V3*%
X80674500Y-89962000D03*
D26*
%TO.P,J_esp1,2,Pin_2*%
%TO.N,GND2*%
X80674500Y-87422000D03*
%TO.P,J_esp1,3,Pin_3*%
%TO.N,D15*%
X80674500Y-84882000D03*
%TO.P,J_esp1,4,Pin_4*%
%TO.N,D2*%
X80674500Y-82342000D03*
%TO.P,J_esp1,5,Pin_5*%
%TO.N,D4*%
X80674500Y-79802000D03*
%TO.P,J_esp1,6,Pin_6*%
%TO.N,RX2*%
X80674500Y-77262000D03*
%TO.P,J_esp1,7,Pin_7*%
%TO.N,TX2*%
X80674500Y-74722000D03*
%TO.P,J_esp1,8,Pin_8*%
%TO.N,D5*%
X80674500Y-72182000D03*
%TO.P,J_esp1,9,Pin_9*%
%TO.N,D18*%
X80674500Y-69642000D03*
%TO.P,J_esp1,10,Pin_10*%
%TO.N,D19*%
X80674500Y-67102000D03*
%TO.P,J_esp1,11,Pin_11*%
%TO.N,D21*%
X80674500Y-64562000D03*
%TO.P,J_esp1,12,Pin_12*%
%TO.N,RX0*%
X80674500Y-62022000D03*
%TO.P,J_esp1,13,Pin_13*%
%TO.N,TX0*%
X80674500Y-59482000D03*
%TO.P,J_esp1,14,Pin_14*%
%TO.N,D22*%
X80674500Y-56942000D03*
%TO.P,J_esp1,15,Pin_15*%
%TO.N,D23*%
X80674500Y-54402000D03*
%TD*%
D27*
%TO.P,Q2,1,E*%
%TO.N,GND5V*%
X102362000Y-106680000D03*
D13*
%TO.P,Q2,2,B*%
%TO.N,Net-(Q2-B)*%
X104902000Y-109220000D03*
%TO.P,Q2,3,C*%
%TO.N,Net-(D2-A)*%
X102362000Y-111760000D03*
%TD*%
D21*
%TO.P,J4,1,Pin_1*%
%TO.N,GND5V*%
X58674000Y-43434000D03*
D22*
%TO.P,J4,2,Pin_2*%
%TO.N,D23*%
X58674000Y-48434000D03*
%TD*%
D16*
%TO.P,D3,1,K*%
%TO.N,Net-(D3-K)*%
X84074000Y-130302000D03*
D17*
%TO.P,D3,2,A*%
%TO.N,Net-(D3-A)*%
X84074000Y-120142000D03*
%TD*%
D28*
%TO.P,J_esp0,1,Pin_1*%
%TO.N,EN*%
X105215000Y-54323000D03*
D29*
%TO.P,J_esp0,2,Pin_2*%
%TO.N,VP*%
X105215000Y-56863000D03*
%TO.P,J_esp0,3,Pin_3*%
%TO.N,VN*%
X105215000Y-59403000D03*
D26*
%TO.P,J_esp0,4,Pin_4*%
%TO.N,D34*%
X105215000Y-61943000D03*
%TO.P,J_esp0,5,Pin_5*%
%TO.N,D35*%
X105215000Y-64483000D03*
%TO.P,J_esp0,6,Pin_6*%
%TO.N,D32*%
X105215000Y-67023000D03*
%TO.P,J_esp0,7,Pin_7*%
%TO.N,D33*%
X105215000Y-69563000D03*
%TO.P,J_esp0,8,Pin_8*%
%TO.N,D25*%
X105215000Y-72103000D03*
%TO.P,J_esp0,9,Pin_9*%
%TO.N,D26*%
X105215000Y-74643000D03*
%TO.P,J_esp0,10,Pin_10*%
%TO.N,D27*%
X105215000Y-77183000D03*
%TO.P,J_esp0,11,Pin_11*%
%TO.N,D14*%
X105215000Y-79723000D03*
%TO.P,J_esp0,12,Pin_12*%
%TO.N,D12*%
X105215000Y-82263000D03*
%TO.P,J_esp0,13,Pin_13*%
%TO.N,D13*%
X105215000Y-84803000D03*
%TO.P,J_esp0,14,Pin_14*%
%TO.N,GND5V*%
X105215000Y-87343000D03*
%TO.P,J_esp0,15,Pin_15*%
%TO.N,5v*%
X105215000Y-89883000D03*
%TD*%
D22*
%TO.P,U_wpump1,11*%
%TO.N,AC1*%
X97870000Y-140716000D03*
%TO.P,U_wpump1,14*%
%TO.N,Net-(J_wpump1-Pin_2)*%
X97870000Y-147955000D03*
D24*
%TO.P,U_wpump1,A1*%
%TO.N,Net-(D2-K)*%
X97870000Y-130470000D03*
%TO.P,U_wpump1,A2*%
%TO.N,Net-(D2-A)*%
X97870000Y-127889000D03*
%TD*%
D12*
%TO.P,R3,1*%
%TO.N,D18*%
X110918000Y-104317000D03*
D13*
%TO.P,R3,2*%
%TO.N,Net-(Q2-B)*%
X110918000Y-109397000D03*
%TD*%
D18*
%TO.P,J_oxygen1,1,Pin_1*%
%TO.N,AC2*%
X83058000Y-159512000D03*
D19*
%TO.P,J_oxygen1,2,Pin_2*%
%TO.N,Net-(J_oxygen1-Pin_2)*%
X78058000Y-159512000D03*
%TD*%
D23*
%TO.P,H1,1*%
%TO.N,N/C*%
X54256000Y-33528000D03*
%TD*%
D27*
%TO.P,Q1,1,E*%
%TO.N,GND5V*%
X58420000Y-106680000D03*
D13*
%TO.P,Q1,2,B*%
%TO.N,Net-(Q1-B)*%
X60960000Y-109220000D03*
%TO.P,Q1,3,C*%
%TO.N,Net-(D1-A)*%
X58420000Y-111760000D03*
%TD*%
D16*
%TO.P,D4,1,K*%
%TO.N,Net-(D4-K)*%
X127254000Y-132080000D03*
D17*
%TO.P,D4,2,A*%
%TO.N,Net-(D4-A)*%
X127254000Y-121920000D03*
%TD*%
D16*
%TO.P,D1,1,K*%
%TO.N,Net-(D1-K)*%
X62861000Y-130048000D03*
D17*
%TO.P,D1,2,A*%
%TO.N,Net-(D1-A)*%
X62861000Y-119888000D03*
%TD*%
D23*
%TO.P,H3,1*%
%TO.N,N/C*%
X68326000Y-147320000D03*
%TD*%
D30*
%TO.P,K_LIGHTS1,1*%
%TO.N,LOAD IN*%
X145141000Y-130326000D03*
D31*
%TO.P,K_LIGHTS1,2*%
%TO.N,Net-(D4-A)*%
X151191000Y-132276000D03*
D22*
%TO.P,K_LIGHTS1,3*%
%TO.N,Normally O*%
X151191000Y-144476000D03*
%TO.P,K_LIGHTS1,4*%
%TO.N,Normally C*%
X139141000Y-144526000D03*
D31*
%TO.P,K_LIGHTS1,5*%
%TO.N,Net-(D4-K)*%
X139191000Y-132276000D03*
%TD*%
D18*
%TO.P,J_wpump1,1,Pin_1*%
%TO.N,AC2*%
X102870000Y-159512000D03*
D19*
%TO.P,J_wpump1,2,Pin_2*%
%TO.N,Net-(J_wpump1-Pin_2)*%
X97870000Y-159512000D03*
%TD*%
D32*
%TO.P,C1,1*%
%TO.N,5v*%
X92573000Y-36557113D03*
D24*
%TO.P,C1,2*%
%TO.N,GND5V*%
X92573000Y-34057113D03*
%TD*%
D27*
%TO.P,Q3,1,E*%
%TO.N,GND5V*%
X80264000Y-106680000D03*
D13*
%TO.P,Q3,2,B*%
%TO.N,Net-(Q3-B)*%
X82804000Y-109220000D03*
%TO.P,Q3,3,C*%
%TO.N,Net-(D3-A)*%
X80264000Y-111760000D03*
%TD*%
D23*
%TO.P,H4,1*%
%TO.N,N/C*%
X124968000Y-147320000D03*
%TD*%
D12*
%TO.P,R7,1*%
%TO.N,Net-(D2-K)*%
X90678000Y-130295750D03*
D13*
%TO.P,R7,2*%
%TO.N,5v*%
X90678000Y-125215750D03*
%TD*%
D22*
%TO.P,U_oxygen1,11*%
%TO.N,AC1*%
X78058000Y-140589000D03*
%TO.P,U_oxygen1,14*%
%TO.N,Net-(J_oxygen1-Pin_2)*%
X78058000Y-147828000D03*
D24*
%TO.P,U_oxygen1,A1*%
%TO.N,Net-(D3-K)*%
X78058000Y-130343000D03*
%TO.P,U_oxygen1,A2*%
%TO.N,Net-(D3-A)*%
X78058000Y-127762000D03*
%TD*%
D12*
%TO.P,R4,1*%
%TO.N,D19*%
X89582000Y-104063000D03*
D13*
%TO.P,R4,2*%
%TO.N,Net-(Q3-B)*%
X89582000Y-109143000D03*
%TD*%
D12*
%TO.P,R9,1*%
%TO.N,Net-(D4-K)*%
X133858000Y-130252000D03*
D13*
%TO.P,R9,2*%
%TO.N,5v*%
X133858000Y-125172000D03*
%TD*%
D27*
%TO.P,Q4,1,E*%
%TO.N,GND5V*%
X122174000Y-106680000D03*
D13*
%TO.P,Q4,2,B*%
%TO.N,Net-(Q4-B)*%
X124714000Y-109220000D03*
%TO.P,Q4,3,C*%
%TO.N,Net-(D4-A)*%
X122174000Y-111760000D03*
%TD*%
D20*
%TO.P,H5,1*%
%TO.N,N/C*%
X153041000Y-96266000D03*
%TD*%
D32*
%TO.P,U2,1,GND*%
%TO.N,GND2*%
X124668000Y-78523000D03*
D24*
%TO.P,U2,2,VCC*%
%TO.N,3V3*%
X127208000Y-78523000D03*
%TO.P,U2,3,CE*%
%TO.N,D27*%
X124668000Y-75983000D03*
%TO.P,U2,4,~{CSN}*%
%TO.N,D26*%
X127208000Y-75983000D03*
%TO.P,U2,5,SCK*%
%TO.N,D14*%
X124668000Y-73443000D03*
%TO.P,U2,6,MOSI*%
%TO.N,D13*%
X127208000Y-73443000D03*
%TO.P,U2,7,MISO*%
%TO.N,D12*%
X124668000Y-70903000D03*
%TO.P,U2,8,IRQ*%
%TO.N,unconnected-(U2-IRQ-Pad8)*%
X127208000Y-70903000D03*
%TD*%
D22*
%TO.P,U_fan1,11*%
%TO.N,AC1*%
X57607000Y-140462000D03*
%TO.P,U_fan1,14*%
%TO.N,Net-(J_fan1-Pin_2)*%
X57607000Y-147701000D03*
D24*
%TO.P,U_fan1,A1*%
%TO.N,Net-(D1-K)*%
X57607000Y-130216000D03*
%TO.P,U_fan1,A2*%
%TO.N,Net-(D1-A)*%
X57607000Y-127635000D03*
%TD*%
D12*
%TO.P,R8,1*%
%TO.N,Net-(D3-K)*%
X71374000Y-130295750D03*
D13*
%TO.P,R8,2*%
%TO.N,5v*%
X71374000Y-125215750D03*
%TD*%
D33*
%TO.N,5v*%
X79756000Y-36830000D03*
X87630000Y-125222000D03*
X67564000Y-57658000D03*
X115570000Y-53848000D03*
X68326000Y-125222000D03*
X141732000Y-109728000D03*
X74168000Y-125222000D03*
X115570000Y-86360000D03*
X130556000Y-125222000D03*
X93980000Y-125222000D03*
X53848000Y-125222000D03*
%TO.N,D25*%
X94488000Y-86614000D03*
X96012000Y-74676000D03*
%TO.N,D34*%
X98044000Y-61976000D03*
X67056000Y-68580000D03*
%TO.N,D26*%
X136144000Y-75946000D03*
%TO.N,D14*%
X118618000Y-79502000D03*
%TO.N,D12*%
X112014000Y-82296000D03*
%TO.N,D13*%
X136144000Y-73406000D03*
X111252000Y-86360000D03*
%TO.N,3V3*%
X86868000Y-89916000D03*
X136652000Y-90932000D03*
%TO.N,GND2*%
X86868000Y-81026000D03*
X130302000Y-58674000D03*
X124460000Y-83312000D03*
X88900000Y-58420000D03*
%TO.N,D18*%
X106680000Y-99314000D03*
X93980000Y-91948000D03*
%TO.N,D19*%
X91440000Y-70358000D03*
X91694000Y-97685000D03*
%TO.N,D21*%
X107188000Y-96266000D03*
X91440000Y-64516000D03*
%TO.N,D22*%
X73660000Y-88646000D03*
X70866000Y-103632000D03*
%TD*%
D34*
%TO.N,5v*%
X67564000Y-57658000D02*
X67564000Y-49022000D01*
X74168000Y-125222000D02*
X87630000Y-125222000D01*
X115570000Y-53848000D02*
X115570000Y-86360000D01*
X141732000Y-109728000D02*
X130556000Y-120904000D01*
X53848000Y-125222000D02*
X68326000Y-125222000D01*
X67564000Y-49022000D02*
X79756000Y-36830000D01*
X130556000Y-120904000D02*
X130556000Y-125222000D01*
X93980000Y-125222000D02*
X130556000Y-125222000D01*
%TO.N,D25*%
X94488000Y-86614000D02*
X94488000Y-76200000D01*
X94488000Y-76200000D02*
X96012000Y-74676000D01*
%TO.N,D34*%
X74422000Y-61214000D02*
X67056000Y-68580000D01*
X98044000Y-61976000D02*
X84582000Y-48514000D01*
X84582000Y-48514000D02*
X75946000Y-48514000D01*
X98044000Y-61976000D02*
X97155000Y-61087000D01*
X74422000Y-50038000D02*
X74422000Y-61214000D01*
X75946000Y-48514000D02*
X74422000Y-50038000D01*
%TO.N,D14*%
X119343000Y-73443000D02*
X124668000Y-73443000D01*
X118618000Y-74168000D02*
X119343000Y-73443000D01*
X118618000Y-79502000D02*
X118618000Y-74168000D01*
%TO.N,D12*%
X112014000Y-82296000D02*
X112014000Y-53086000D01*
X115062000Y-50038000D02*
X117602000Y-50038000D01*
X124668000Y-57104000D02*
X124668000Y-70903000D01*
X112014000Y-53086000D02*
X115062000Y-50038000D01*
X117602000Y-50038000D02*
X124668000Y-57104000D01*
%TO.N,D13*%
X139446000Y-73406000D02*
X136144000Y-73406000D01*
X140970000Y-74930000D02*
X139446000Y-73406000D01*
X133604000Y-89408000D02*
X140970000Y-82042000D01*
X114300000Y-89408000D02*
X133604000Y-89408000D01*
X140970000Y-82042000D02*
X140970000Y-74930000D01*
X111252000Y-86360000D02*
X114300000Y-89408000D01*
%TO.N,3V3*%
X125730000Y-101854000D02*
X88392000Y-101854000D01*
X136652000Y-90932000D02*
X125730000Y-101854000D01*
X88392000Y-101854000D02*
X86868000Y-100330000D01*
X86868000Y-100330000D02*
X86868000Y-89916000D01*
%TO.N,GND2*%
X124460000Y-83566000D02*
X124460000Y-83312000D01*
X132588000Y-82804000D02*
X129540000Y-85852000D01*
X86868000Y-60452000D02*
X88900000Y-58420000D01*
X86868000Y-81026000D02*
X86868000Y-60452000D01*
X129540000Y-85852000D02*
X126746000Y-85852000D01*
X126746000Y-85852000D02*
X124460000Y-83566000D01*
X132588000Y-60960000D02*
X132588000Y-82804000D01*
X130302000Y-58674000D02*
X132588000Y-60960000D01*
%TO.N,D18*%
X106680000Y-99314000D02*
X101092000Y-99314000D01*
X101092000Y-99314000D02*
X93980000Y-92202000D01*
X93980000Y-92202000D02*
X93980000Y-91948000D01*
%TO.N,D19*%
X91694000Y-97685000D02*
X91694000Y-70612000D01*
X91694000Y-70612000D02*
X91440000Y-70358000D01*
%TO.N,D21*%
X102362000Y-96266000D02*
X99060000Y-92964000D01*
X99060000Y-72136000D02*
X91440000Y-64516000D01*
X107188000Y-96266000D02*
X102362000Y-96266000D01*
X99060000Y-92964000D02*
X99060000Y-72136000D01*
%TO.N,D22*%
X70866000Y-103632000D02*
X70612000Y-103632000D01*
X73660000Y-88646000D02*
X73660000Y-100584000D01*
X70612000Y-103632000D02*
X70612000Y-103632000D01*
X70866000Y-103378000D02*
X70866000Y-103632000D01*
X73660000Y-100584000D02*
X70866000Y-103378000D01*
%TD*%
M02*
