%TF.GenerationSoftware,KiCad,Pcbnew,7.0.3*%
%TF.CreationDate,2023-06-20T17:45:45-05:00*%
%TF.ProjectId,intregration1,696e7472-6567-4726-9174-696f6e312e6b,rev?*%
%TF.SameCoordinates,Original*%
%TF.FileFunction,Copper,L1,Top*%
%TF.FilePolarity,Positive*%
%FSLAX46Y46*%
G04 Gerber Fmt 4.6, Leading zero omitted, Abs format (unit mm)*
G04 Created by KiCad (PCBNEW 7.0.3) date 2023-06-20 17:45:45*
%MOMM*%
%LPD*%
G01*
G04 APERTURE LIST*
%TA.AperFunction,NonConductor*%
%ADD10C,0.200000*%
%TD*%
%ADD11C,0.300000*%
%TA.AperFunction,NonConductor*%
%ADD12C,0.300000*%
%TD*%
%TA.AperFunction,ComponentPad*%
%ADD13C,2.125000*%
%TD*%
%TA.AperFunction,ComponentPad*%
%ADD14O,2.125000X2.125000*%
%TD*%
%TA.AperFunction,ComponentPad*%
%ADD15C,2.100000*%
%TD*%
%TA.AperFunction,ComponentPad*%
%ADD16O,2.125000X2.000000*%
%TD*%
%TA.AperFunction,ComponentPad*%
%ADD17R,2.200000X2.200000*%
%TD*%
%TA.AperFunction,ComponentPad*%
%ADD18O,2.200000X2.200000*%
%TD*%
%TA.AperFunction,ComponentPad*%
%ADD19R,3.500000X3.960000*%
%TD*%
%TA.AperFunction,ComponentPad*%
%ADD20O,3.500000X3.960000*%
%TD*%
%TA.AperFunction,ComponentPad*%
%ADD21C,5.600000*%
%TD*%
%TA.AperFunction,ComponentPad*%
%ADD22R,3.500000X3.500000*%
%TD*%
%TA.AperFunction,ComponentPad*%
%ADD23C,3.500000*%
%TD*%
%TA.AperFunction,ComponentPad*%
%ADD24C,5.400000*%
%TD*%
%TA.AperFunction,ComponentPad*%
%ADD25C,2.000000*%
%TD*%
%TA.AperFunction,ComponentPad*%
%ADD26R,2.540000X2.000000*%
%TD*%
%TA.AperFunction,ComponentPad*%
%ADD27R,2.540000X1.950000*%
%TD*%
%TA.AperFunction,ComponentPad*%
%ADD28O,2.125000X3.000000*%
%TD*%
%TA.AperFunction,ComponentPad*%
%ADD29R,2.540000X2.100000*%
%TD*%
%TA.AperFunction,ComponentPad*%
%ADD30R,2.540000X1.740000*%
%TD*%
%TA.AperFunction,ComponentPad*%
%ADD31C,3.000000*%
%TD*%
%TA.AperFunction,ComponentPad*%
%ADD32C,2.500000*%
%TD*%
%TA.AperFunction,ComponentPad*%
%ADD33R,2.000000X2.000000*%
%TD*%
%TA.AperFunction,ViaPad*%
%ADD34C,2.125000*%
%TD*%
%TA.AperFunction,Conductor*%
%ADD35C,1.330000*%
%TD*%
%TA.AperFunction,Conductor*%
%ADD36C,3.500000*%
%TD*%
G04 APERTURE END LIST*
D10*
X48006000Y-27940000D02*
X159004000Y-27940000D01*
X159004000Y-167386000D01*
X48006000Y-167386000D01*
X48006000Y-27940000D01*
D11*
D12*
X118955844Y-33750447D02*
X118955844Y-31250447D01*
X118955844Y-31250447D02*
X119789177Y-33036161D01*
X119789177Y-33036161D02*
X120622510Y-31250447D01*
X120622510Y-31250447D02*
X120622510Y-33750447D01*
X122884415Y-33750447D02*
X122884415Y-32440923D01*
X122884415Y-32440923D02*
X122765368Y-32202828D01*
X122765368Y-32202828D02*
X122527272Y-32083780D01*
X122527272Y-32083780D02*
X122051082Y-32083780D01*
X122051082Y-32083780D02*
X121812987Y-32202828D01*
X122884415Y-33631400D02*
X122646320Y-33750447D01*
X122646320Y-33750447D02*
X122051082Y-33750447D01*
X122051082Y-33750447D02*
X121812987Y-33631400D01*
X121812987Y-33631400D02*
X121693939Y-33393304D01*
X121693939Y-33393304D02*
X121693939Y-33155209D01*
X121693939Y-33155209D02*
X121812987Y-32917114D01*
X121812987Y-32917114D02*
X122051082Y-32798066D01*
X122051082Y-32798066D02*
X122646320Y-32798066D01*
X122646320Y-32798066D02*
X122884415Y-32679019D01*
X123717749Y-32083780D02*
X124670130Y-32083780D01*
X124074892Y-31250447D02*
X124074892Y-33393304D01*
X124074892Y-33393304D02*
X124193939Y-33631400D01*
X124193939Y-33631400D02*
X124432034Y-33750447D01*
X124432034Y-33750447D02*
X124670130Y-33750447D01*
X125503463Y-33750447D02*
X125503463Y-32083780D01*
X125503463Y-31250447D02*
X125384415Y-31369495D01*
X125384415Y-31369495D02*
X125503463Y-31488542D01*
X125503463Y-31488542D02*
X125622510Y-31369495D01*
X125622510Y-31369495D02*
X125503463Y-31250447D01*
X125503463Y-31250447D02*
X125503463Y-31488542D01*
X127765367Y-33631400D02*
X127527272Y-33750447D01*
X127527272Y-33750447D02*
X127051081Y-33750447D01*
X127051081Y-33750447D02*
X126812986Y-33631400D01*
X126812986Y-33631400D02*
X126693939Y-33512352D01*
X126693939Y-33512352D02*
X126574891Y-33274257D01*
X126574891Y-33274257D02*
X126574891Y-32559971D01*
X126574891Y-32559971D02*
X126693939Y-32321876D01*
X126693939Y-32321876D02*
X126812986Y-32202828D01*
X126812986Y-32202828D02*
X127051081Y-32083780D01*
X127051081Y-32083780D02*
X127527272Y-32083780D01*
X127527272Y-32083780D02*
X127765367Y-32202828D01*
X129908224Y-33750447D02*
X129908224Y-32440923D01*
X129908224Y-32440923D02*
X129789177Y-32202828D01*
X129789177Y-32202828D02*
X129551081Y-32083780D01*
X129551081Y-32083780D02*
X129074891Y-32083780D01*
X129074891Y-32083780D02*
X128836796Y-32202828D01*
X129908224Y-33631400D02*
X129670129Y-33750447D01*
X129670129Y-33750447D02*
X129074891Y-33750447D01*
X129074891Y-33750447D02*
X128836796Y-33631400D01*
X128836796Y-33631400D02*
X128717748Y-33393304D01*
X128717748Y-33393304D02*
X128717748Y-33155209D01*
X128717748Y-33155209D02*
X128836796Y-32917114D01*
X128836796Y-32917114D02*
X129074891Y-32798066D01*
X129074891Y-32798066D02*
X129670129Y-32798066D01*
X129670129Y-32798066D02*
X129908224Y-32679019D01*
X130979653Y-33631400D02*
X131217748Y-33750447D01*
X131217748Y-33750447D02*
X131693939Y-33750447D01*
X131693939Y-33750447D02*
X131932034Y-33631400D01*
X131932034Y-33631400D02*
X132051082Y-33393304D01*
X132051082Y-33393304D02*
X132051082Y-33274257D01*
X132051082Y-33274257D02*
X131932034Y-33036161D01*
X131932034Y-33036161D02*
X131693939Y-32917114D01*
X131693939Y-32917114D02*
X131336796Y-32917114D01*
X131336796Y-32917114D02*
X131098701Y-32798066D01*
X131098701Y-32798066D02*
X130979653Y-32559971D01*
X130979653Y-32559971D02*
X130979653Y-32440923D01*
X130979653Y-32440923D02*
X131098701Y-32202828D01*
X131098701Y-32202828D02*
X131336796Y-32083780D01*
X131336796Y-32083780D02*
X131693939Y-32083780D01*
X131693939Y-32083780D02*
X131932034Y-32202828D01*
X134789177Y-31250447D02*
X135384415Y-33750447D01*
X135384415Y-33750447D02*
X135860606Y-31964733D01*
X135860606Y-31964733D02*
X136336796Y-33750447D01*
X136336796Y-33750447D02*
X136932035Y-31250447D01*
X138955844Y-33750447D02*
X138955844Y-32440923D01*
X138955844Y-32440923D02*
X138836797Y-32202828D01*
X138836797Y-32202828D02*
X138598701Y-32083780D01*
X138598701Y-32083780D02*
X138122511Y-32083780D01*
X138122511Y-32083780D02*
X137884416Y-32202828D01*
X138955844Y-33631400D02*
X138717749Y-33750447D01*
X138717749Y-33750447D02*
X138122511Y-33750447D01*
X138122511Y-33750447D02*
X137884416Y-33631400D01*
X137884416Y-33631400D02*
X137765368Y-33393304D01*
X137765368Y-33393304D02*
X137765368Y-33155209D01*
X137765368Y-33155209D02*
X137884416Y-32917114D01*
X137884416Y-32917114D02*
X138122511Y-32798066D01*
X138122511Y-32798066D02*
X138717749Y-32798066D01*
X138717749Y-32798066D02*
X138955844Y-32679019D01*
X139789178Y-32083780D02*
X140741559Y-32083780D01*
X140146321Y-31250447D02*
X140146321Y-33393304D01*
X140146321Y-33393304D02*
X140265368Y-33631400D01*
X140265368Y-33631400D02*
X140503463Y-33750447D01*
X140503463Y-33750447D02*
X140741559Y-33750447D01*
X142527273Y-33631400D02*
X142289177Y-33750447D01*
X142289177Y-33750447D02*
X141812987Y-33750447D01*
X141812987Y-33750447D02*
X141574892Y-33631400D01*
X141574892Y-33631400D02*
X141455844Y-33393304D01*
X141455844Y-33393304D02*
X141455844Y-32440923D01*
X141455844Y-32440923D02*
X141574892Y-32202828D01*
X141574892Y-32202828D02*
X141812987Y-32083780D01*
X141812987Y-32083780D02*
X142289177Y-32083780D01*
X142289177Y-32083780D02*
X142527273Y-32202828D01*
X142527273Y-32202828D02*
X142646320Y-32440923D01*
X142646320Y-32440923D02*
X142646320Y-32679019D01*
X142646320Y-32679019D02*
X141455844Y-32917114D01*
X143717749Y-33750447D02*
X143717749Y-32083780D01*
X143717749Y-32559971D02*
X143836796Y-32321876D01*
X143836796Y-32321876D02*
X143955844Y-32202828D01*
X143955844Y-32202828D02*
X144193939Y-32083780D01*
X144193939Y-32083780D02*
X144432034Y-32083780D01*
X119432034Y-35275447D02*
X120860605Y-35275447D01*
X120146319Y-37775447D02*
X120146319Y-35275447D01*
X122765367Y-37775447D02*
X122765367Y-36465923D01*
X122765367Y-36465923D02*
X122646320Y-36227828D01*
X122646320Y-36227828D02*
X122408224Y-36108780D01*
X122408224Y-36108780D02*
X121932034Y-36108780D01*
X121932034Y-36108780D02*
X121693939Y-36227828D01*
X122765367Y-37656400D02*
X122527272Y-37775447D01*
X122527272Y-37775447D02*
X121932034Y-37775447D01*
X121932034Y-37775447D02*
X121693939Y-37656400D01*
X121693939Y-37656400D02*
X121574891Y-37418304D01*
X121574891Y-37418304D02*
X121574891Y-37180209D01*
X121574891Y-37180209D02*
X121693939Y-36942114D01*
X121693939Y-36942114D02*
X121932034Y-36823066D01*
X121932034Y-36823066D02*
X122527272Y-36823066D01*
X122527272Y-36823066D02*
X122765367Y-36704019D01*
X123955844Y-36108780D02*
X123955844Y-37775447D01*
X123955844Y-36346876D02*
X124074891Y-36227828D01*
X124074891Y-36227828D02*
X124312986Y-36108780D01*
X124312986Y-36108780D02*
X124670129Y-36108780D01*
X124670129Y-36108780D02*
X124908225Y-36227828D01*
X124908225Y-36227828D02*
X125027272Y-36465923D01*
X125027272Y-36465923D02*
X125027272Y-37775447D01*
X126217749Y-37775447D02*
X126217749Y-35275447D01*
X126455844Y-36823066D02*
X127170130Y-37775447D01*
X127170130Y-36108780D02*
X126217749Y-37061161D01*
X130146321Y-37775447D02*
X130146321Y-35275447D01*
X130146321Y-35275447D02*
X130979654Y-37061161D01*
X130979654Y-37061161D02*
X131812987Y-35275447D01*
X131812987Y-35275447D02*
X131812987Y-37775447D01*
X133360606Y-37775447D02*
X133122511Y-37656400D01*
X133122511Y-37656400D02*
X133003464Y-37537352D01*
X133003464Y-37537352D02*
X132884416Y-37299257D01*
X132884416Y-37299257D02*
X132884416Y-36584971D01*
X132884416Y-36584971D02*
X133003464Y-36346876D01*
X133003464Y-36346876D02*
X133122511Y-36227828D01*
X133122511Y-36227828D02*
X133360606Y-36108780D01*
X133360606Y-36108780D02*
X133717749Y-36108780D01*
X133717749Y-36108780D02*
X133955845Y-36227828D01*
X133955845Y-36227828D02*
X134074892Y-36346876D01*
X134074892Y-36346876D02*
X134193940Y-36584971D01*
X134193940Y-36584971D02*
X134193940Y-37299257D01*
X134193940Y-37299257D02*
X134074892Y-37537352D01*
X134074892Y-37537352D02*
X133955845Y-37656400D01*
X133955845Y-37656400D02*
X133717749Y-37775447D01*
X133717749Y-37775447D02*
X133360606Y-37775447D01*
X136336797Y-37775447D02*
X136336797Y-35275447D01*
X136336797Y-37656400D02*
X136098702Y-37775447D01*
X136098702Y-37775447D02*
X135622511Y-37775447D01*
X135622511Y-37775447D02*
X135384416Y-37656400D01*
X135384416Y-37656400D02*
X135265369Y-37537352D01*
X135265369Y-37537352D02*
X135146321Y-37299257D01*
X135146321Y-37299257D02*
X135146321Y-36584971D01*
X135146321Y-36584971D02*
X135265369Y-36346876D01*
X135265369Y-36346876D02*
X135384416Y-36227828D01*
X135384416Y-36227828D02*
X135622511Y-36108780D01*
X135622511Y-36108780D02*
X136098702Y-36108780D01*
X136098702Y-36108780D02*
X136336797Y-36227828D01*
X138598702Y-36108780D02*
X138598702Y-37775447D01*
X137527274Y-36108780D02*
X137527274Y-37418304D01*
X137527274Y-37418304D02*
X137646321Y-37656400D01*
X137646321Y-37656400D02*
X137884416Y-37775447D01*
X137884416Y-37775447D02*
X138241559Y-37775447D01*
X138241559Y-37775447D02*
X138479655Y-37656400D01*
X138479655Y-37656400D02*
X138598702Y-37537352D01*
X140146321Y-37775447D02*
X139908226Y-37656400D01*
X139908226Y-37656400D02*
X139789179Y-37418304D01*
X139789179Y-37418304D02*
X139789179Y-35275447D01*
X142051084Y-37656400D02*
X141812988Y-37775447D01*
X141812988Y-37775447D02*
X141336798Y-37775447D01*
X141336798Y-37775447D02*
X141098703Y-37656400D01*
X141098703Y-37656400D02*
X140979655Y-37418304D01*
X140979655Y-37418304D02*
X140979655Y-36465923D01*
X140979655Y-36465923D02*
X141098703Y-36227828D01*
X141098703Y-36227828D02*
X141336798Y-36108780D01*
X141336798Y-36108780D02*
X141812988Y-36108780D01*
X141812988Y-36108780D02*
X142051084Y-36227828D01*
X142051084Y-36227828D02*
X142170131Y-36465923D01*
X142170131Y-36465923D02*
X142170131Y-36704019D01*
X142170131Y-36704019D02*
X140979655Y-36942114D01*
X143241560Y-37537352D02*
X143360607Y-37656400D01*
X143360607Y-37656400D02*
X143241560Y-37775447D01*
X143241560Y-37775447D02*
X143122512Y-37656400D01*
X143122512Y-37656400D02*
X143241560Y-37537352D01*
X143241560Y-37537352D02*
X143241560Y-37775447D01*
X116693938Y-44515923D02*
X117051081Y-44634971D01*
X117051081Y-44634971D02*
X117170128Y-44754019D01*
X117170128Y-44754019D02*
X117289176Y-44992114D01*
X117289176Y-44992114D02*
X117289176Y-45349257D01*
X117289176Y-45349257D02*
X117170128Y-45587352D01*
X117170128Y-45587352D02*
X117051081Y-45706400D01*
X117051081Y-45706400D02*
X116812986Y-45825447D01*
X116812986Y-45825447D02*
X115860605Y-45825447D01*
X115860605Y-45825447D02*
X115860605Y-43325447D01*
X115860605Y-43325447D02*
X116693938Y-43325447D01*
X116693938Y-43325447D02*
X116932033Y-43444495D01*
X116932033Y-43444495D02*
X117051081Y-43563542D01*
X117051081Y-43563542D02*
X117170128Y-43801638D01*
X117170128Y-43801638D02*
X117170128Y-44039733D01*
X117170128Y-44039733D02*
X117051081Y-44277828D01*
X117051081Y-44277828D02*
X116932033Y-44396876D01*
X116932033Y-44396876D02*
X116693938Y-44515923D01*
X116693938Y-44515923D02*
X115860605Y-44515923D01*
X119432033Y-44158780D02*
X119432033Y-45825447D01*
X118360605Y-44158780D02*
X118360605Y-45468304D01*
X118360605Y-45468304D02*
X118479652Y-45706400D01*
X118479652Y-45706400D02*
X118717747Y-45825447D01*
X118717747Y-45825447D02*
X119074890Y-45825447D01*
X119074890Y-45825447D02*
X119312986Y-45706400D01*
X119312986Y-45706400D02*
X119432033Y-45587352D01*
X120622510Y-45825447D02*
X120622510Y-44158780D01*
X120622510Y-43325447D02*
X120503462Y-43444495D01*
X120503462Y-43444495D02*
X120622510Y-43563542D01*
X120622510Y-43563542D02*
X120741557Y-43444495D01*
X120741557Y-43444495D02*
X120622510Y-43325447D01*
X120622510Y-43325447D02*
X120622510Y-43563542D01*
X122170128Y-45825447D02*
X121932033Y-45706400D01*
X121932033Y-45706400D02*
X121812986Y-45468304D01*
X121812986Y-45468304D02*
X121812986Y-43325447D01*
X124193938Y-45825447D02*
X124193938Y-43325447D01*
X124193938Y-45706400D02*
X123955843Y-45825447D01*
X123955843Y-45825447D02*
X123479652Y-45825447D01*
X123479652Y-45825447D02*
X123241557Y-45706400D01*
X123241557Y-45706400D02*
X123122510Y-45587352D01*
X123122510Y-45587352D02*
X123003462Y-45349257D01*
X123003462Y-45349257D02*
X123003462Y-44634971D01*
X123003462Y-44634971D02*
X123122510Y-44396876D01*
X123122510Y-44396876D02*
X123241557Y-44277828D01*
X123241557Y-44277828D02*
X123479652Y-44158780D01*
X123479652Y-44158780D02*
X123955843Y-44158780D01*
X123955843Y-44158780D02*
X124193938Y-44277828D01*
X125384415Y-45825447D02*
X125384415Y-44158780D01*
X125384415Y-43325447D02*
X125265367Y-43444495D01*
X125265367Y-43444495D02*
X125384415Y-43563542D01*
X125384415Y-43563542D02*
X125503462Y-43444495D01*
X125503462Y-43444495D02*
X125384415Y-43325447D01*
X125384415Y-43325447D02*
X125384415Y-43563542D01*
X126574891Y-44158780D02*
X126574891Y-45825447D01*
X126574891Y-44396876D02*
X126693938Y-44277828D01*
X126693938Y-44277828D02*
X126932033Y-44158780D01*
X126932033Y-44158780D02*
X127289176Y-44158780D01*
X127289176Y-44158780D02*
X127527272Y-44277828D01*
X127527272Y-44277828D02*
X127646319Y-44515923D01*
X127646319Y-44515923D02*
X127646319Y-45825447D01*
X129908224Y-44158780D02*
X129908224Y-46182590D01*
X129908224Y-46182590D02*
X129789177Y-46420685D01*
X129789177Y-46420685D02*
X129670129Y-46539733D01*
X129670129Y-46539733D02*
X129432034Y-46658780D01*
X129432034Y-46658780D02*
X129074891Y-46658780D01*
X129074891Y-46658780D02*
X128836796Y-46539733D01*
X129908224Y-45706400D02*
X129670129Y-45825447D01*
X129670129Y-45825447D02*
X129193938Y-45825447D01*
X129193938Y-45825447D02*
X128955843Y-45706400D01*
X128955843Y-45706400D02*
X128836796Y-45587352D01*
X128836796Y-45587352D02*
X128717748Y-45349257D01*
X128717748Y-45349257D02*
X128717748Y-44634971D01*
X128717748Y-44634971D02*
X128836796Y-44396876D01*
X128836796Y-44396876D02*
X128955843Y-44277828D01*
X128955843Y-44277828D02*
X129193938Y-44158780D01*
X129193938Y-44158780D02*
X129670129Y-44158780D01*
X129670129Y-44158780D02*
X129908224Y-44277828D01*
X134074891Y-45825447D02*
X134074891Y-44515923D01*
X134074891Y-44515923D02*
X133955844Y-44277828D01*
X133955844Y-44277828D02*
X133717748Y-44158780D01*
X133717748Y-44158780D02*
X133241558Y-44158780D01*
X133241558Y-44158780D02*
X133003463Y-44277828D01*
X134074891Y-45706400D02*
X133836796Y-45825447D01*
X133836796Y-45825447D02*
X133241558Y-45825447D01*
X133241558Y-45825447D02*
X133003463Y-45706400D01*
X133003463Y-45706400D02*
X132884415Y-45468304D01*
X132884415Y-45468304D02*
X132884415Y-45230209D01*
X132884415Y-45230209D02*
X133003463Y-44992114D01*
X133003463Y-44992114D02*
X133241558Y-44873066D01*
X133241558Y-44873066D02*
X133836796Y-44873066D01*
X133836796Y-44873066D02*
X134074891Y-44754019D01*
X135265368Y-44158780D02*
X135265368Y-45825447D01*
X135265368Y-44396876D02*
X135384415Y-44277828D01*
X135384415Y-44277828D02*
X135622510Y-44158780D01*
X135622510Y-44158780D02*
X135979653Y-44158780D01*
X135979653Y-44158780D02*
X136217749Y-44277828D01*
X136217749Y-44277828D02*
X136336796Y-44515923D01*
X136336796Y-44515923D02*
X136336796Y-45825447D01*
X139789177Y-45825447D02*
X139551082Y-45706400D01*
X139551082Y-45706400D02*
X139432035Y-45587352D01*
X139432035Y-45587352D02*
X139312987Y-45349257D01*
X139312987Y-45349257D02*
X139312987Y-44634971D01*
X139312987Y-44634971D02*
X139432035Y-44396876D01*
X139432035Y-44396876D02*
X139551082Y-44277828D01*
X139551082Y-44277828D02*
X139789177Y-44158780D01*
X139789177Y-44158780D02*
X140146320Y-44158780D01*
X140146320Y-44158780D02*
X140384416Y-44277828D01*
X140384416Y-44277828D02*
X140503463Y-44396876D01*
X140503463Y-44396876D02*
X140622511Y-44634971D01*
X140622511Y-44634971D02*
X140622511Y-45349257D01*
X140622511Y-45349257D02*
X140503463Y-45587352D01*
X140503463Y-45587352D02*
X140384416Y-45706400D01*
X140384416Y-45706400D02*
X140146320Y-45825447D01*
X140146320Y-45825447D02*
X139789177Y-45825447D01*
X141693940Y-44158780D02*
X141693940Y-46658780D01*
X141693940Y-44277828D02*
X141932035Y-44158780D01*
X141932035Y-44158780D02*
X142408225Y-44158780D01*
X142408225Y-44158780D02*
X142646321Y-44277828D01*
X142646321Y-44277828D02*
X142765368Y-44396876D01*
X142765368Y-44396876D02*
X142884416Y-44634971D01*
X142884416Y-44634971D02*
X142884416Y-45349257D01*
X142884416Y-45349257D02*
X142765368Y-45587352D01*
X142765368Y-45587352D02*
X142646321Y-45706400D01*
X142646321Y-45706400D02*
X142408225Y-45825447D01*
X142408225Y-45825447D02*
X141932035Y-45825447D01*
X141932035Y-45825447D02*
X141693940Y-45706400D01*
X144908226Y-45706400D02*
X144670130Y-45825447D01*
X144670130Y-45825447D02*
X144193940Y-45825447D01*
X144193940Y-45825447D02*
X143955845Y-45706400D01*
X143955845Y-45706400D02*
X143836797Y-45468304D01*
X143836797Y-45468304D02*
X143836797Y-44515923D01*
X143836797Y-44515923D02*
X143955845Y-44277828D01*
X143955845Y-44277828D02*
X144193940Y-44158780D01*
X144193940Y-44158780D02*
X144670130Y-44158780D01*
X144670130Y-44158780D02*
X144908226Y-44277828D01*
X144908226Y-44277828D02*
X145027273Y-44515923D01*
X145027273Y-44515923D02*
X145027273Y-44754019D01*
X145027273Y-44754019D02*
X143836797Y-44992114D01*
X146098702Y-44158780D02*
X146098702Y-45825447D01*
X146098702Y-44396876D02*
X146217749Y-44277828D01*
X146217749Y-44277828D02*
X146455844Y-44158780D01*
X146455844Y-44158780D02*
X146812987Y-44158780D01*
X146812987Y-44158780D02*
X147051083Y-44277828D01*
X147051083Y-44277828D02*
X147170130Y-44515923D01*
X147170130Y-44515923D02*
X147170130Y-45825447D01*
X122408225Y-49850447D02*
X122408225Y-48540923D01*
X122408225Y-48540923D02*
X122289178Y-48302828D01*
X122289178Y-48302828D02*
X122051082Y-48183780D01*
X122051082Y-48183780D02*
X121574892Y-48183780D01*
X121574892Y-48183780D02*
X121336797Y-48302828D01*
X122408225Y-49731400D02*
X122170130Y-49850447D01*
X122170130Y-49850447D02*
X121574892Y-49850447D01*
X121574892Y-49850447D02*
X121336797Y-49731400D01*
X121336797Y-49731400D02*
X121217749Y-49493304D01*
X121217749Y-49493304D02*
X121217749Y-49255209D01*
X121217749Y-49255209D02*
X121336797Y-49017114D01*
X121336797Y-49017114D02*
X121574892Y-48898066D01*
X121574892Y-48898066D02*
X122170130Y-48898066D01*
X122170130Y-48898066D02*
X122408225Y-48779019D01*
X124670130Y-48183780D02*
X124670130Y-50207590D01*
X124670130Y-50207590D02*
X124551083Y-50445685D01*
X124551083Y-50445685D02*
X124432035Y-50564733D01*
X124432035Y-50564733D02*
X124193940Y-50683780D01*
X124193940Y-50683780D02*
X123836797Y-50683780D01*
X123836797Y-50683780D02*
X123598702Y-50564733D01*
X124670130Y-49731400D02*
X124432035Y-49850447D01*
X124432035Y-49850447D02*
X123955844Y-49850447D01*
X123955844Y-49850447D02*
X123717749Y-49731400D01*
X123717749Y-49731400D02*
X123598702Y-49612352D01*
X123598702Y-49612352D02*
X123479654Y-49374257D01*
X123479654Y-49374257D02*
X123479654Y-48659971D01*
X123479654Y-48659971D02*
X123598702Y-48421876D01*
X123598702Y-48421876D02*
X123717749Y-48302828D01*
X123717749Y-48302828D02*
X123955844Y-48183780D01*
X123955844Y-48183780D02*
X124432035Y-48183780D01*
X124432035Y-48183780D02*
X124670130Y-48302828D01*
X125860607Y-49850447D02*
X125860607Y-48183780D01*
X125860607Y-48659971D02*
X125979654Y-48421876D01*
X125979654Y-48421876D02*
X126098702Y-48302828D01*
X126098702Y-48302828D02*
X126336797Y-48183780D01*
X126336797Y-48183780D02*
X126574892Y-48183780D01*
X127408226Y-49850447D02*
X127408226Y-48183780D01*
X127408226Y-47350447D02*
X127289178Y-47469495D01*
X127289178Y-47469495D02*
X127408226Y-47588542D01*
X127408226Y-47588542D02*
X127527273Y-47469495D01*
X127527273Y-47469495D02*
X127408226Y-47350447D01*
X127408226Y-47350447D02*
X127408226Y-47588542D01*
X129670130Y-49731400D02*
X129432035Y-49850447D01*
X129432035Y-49850447D02*
X128955844Y-49850447D01*
X128955844Y-49850447D02*
X128717749Y-49731400D01*
X128717749Y-49731400D02*
X128598702Y-49612352D01*
X128598702Y-49612352D02*
X128479654Y-49374257D01*
X128479654Y-49374257D02*
X128479654Y-48659971D01*
X128479654Y-48659971D02*
X128598702Y-48421876D01*
X128598702Y-48421876D02*
X128717749Y-48302828D01*
X128717749Y-48302828D02*
X128955844Y-48183780D01*
X128955844Y-48183780D02*
X129432035Y-48183780D01*
X129432035Y-48183780D02*
X129670130Y-48302828D01*
X131812987Y-48183780D02*
X131812987Y-49850447D01*
X130741559Y-48183780D02*
X130741559Y-49493304D01*
X130741559Y-49493304D02*
X130860606Y-49731400D01*
X130860606Y-49731400D02*
X131098701Y-49850447D01*
X131098701Y-49850447D02*
X131455844Y-49850447D01*
X131455844Y-49850447D02*
X131693940Y-49731400D01*
X131693940Y-49731400D02*
X131812987Y-49612352D01*
X133360606Y-49850447D02*
X133122511Y-49731400D01*
X133122511Y-49731400D02*
X133003464Y-49493304D01*
X133003464Y-49493304D02*
X133003464Y-47350447D01*
X133955845Y-48183780D02*
X134908226Y-48183780D01*
X134312988Y-47350447D02*
X134312988Y-49493304D01*
X134312988Y-49493304D02*
X134432035Y-49731400D01*
X134432035Y-49731400D02*
X134670130Y-49850447D01*
X134670130Y-49850447D02*
X134908226Y-49850447D01*
X136812987Y-48183780D02*
X136812987Y-49850447D01*
X135741559Y-48183780D02*
X135741559Y-49493304D01*
X135741559Y-49493304D02*
X135860606Y-49731400D01*
X135860606Y-49731400D02*
X136098701Y-49850447D01*
X136098701Y-49850447D02*
X136455844Y-49850447D01*
X136455844Y-49850447D02*
X136693940Y-49731400D01*
X136693940Y-49731400D02*
X136812987Y-49612352D01*
X138003464Y-49850447D02*
X138003464Y-48183780D01*
X138003464Y-48659971D02*
X138122511Y-48421876D01*
X138122511Y-48421876D02*
X138241559Y-48302828D01*
X138241559Y-48302828D02*
X138479654Y-48183780D01*
X138479654Y-48183780D02*
X138717749Y-48183780D01*
X140503464Y-49731400D02*
X140265368Y-49850447D01*
X140265368Y-49850447D02*
X139789178Y-49850447D01*
X139789178Y-49850447D02*
X139551083Y-49731400D01*
X139551083Y-49731400D02*
X139432035Y-49493304D01*
X139432035Y-49493304D02*
X139432035Y-48540923D01*
X139432035Y-48540923D02*
X139551083Y-48302828D01*
X139551083Y-48302828D02*
X139789178Y-48183780D01*
X139789178Y-48183780D02*
X140265368Y-48183780D01*
X140265368Y-48183780D02*
X140503464Y-48302828D01*
X140503464Y-48302828D02*
X140622511Y-48540923D01*
X140622511Y-48540923D02*
X140622511Y-48779019D01*
X140622511Y-48779019D02*
X139432035Y-49017114D01*
X141693940Y-49612352D02*
X141812987Y-49731400D01*
X141812987Y-49731400D02*
X141693940Y-49850447D01*
X141693940Y-49850447D02*
X141574892Y-49731400D01*
X141574892Y-49731400D02*
X141693940Y-49612352D01*
X141693940Y-49612352D02*
X141693940Y-49850447D01*
X125860606Y-51375447D02*
X127289177Y-51375447D01*
X126574891Y-53875447D02*
X126574891Y-51375447D01*
X128479653Y-53875447D02*
X128241558Y-53756400D01*
X128241558Y-53756400D02*
X128122511Y-53637352D01*
X128122511Y-53637352D02*
X128003463Y-53399257D01*
X128003463Y-53399257D02*
X128003463Y-52684971D01*
X128003463Y-52684971D02*
X128122511Y-52446876D01*
X128122511Y-52446876D02*
X128241558Y-52327828D01*
X128241558Y-52327828D02*
X128479653Y-52208780D01*
X128479653Y-52208780D02*
X128836796Y-52208780D01*
X128836796Y-52208780D02*
X129074892Y-52327828D01*
X129074892Y-52327828D02*
X129193939Y-52446876D01*
X129193939Y-52446876D02*
X129312987Y-52684971D01*
X129312987Y-52684971D02*
X129312987Y-53399257D01*
X129312987Y-53399257D02*
X129193939Y-53637352D01*
X129193939Y-53637352D02*
X129074892Y-53756400D01*
X129074892Y-53756400D02*
X128836796Y-53875447D01*
X128836796Y-53875447D02*
X128479653Y-53875447D01*
X131455844Y-53875447D02*
X131455844Y-51375447D01*
X131455844Y-53756400D02*
X131217749Y-53875447D01*
X131217749Y-53875447D02*
X130741558Y-53875447D01*
X130741558Y-53875447D02*
X130503463Y-53756400D01*
X130503463Y-53756400D02*
X130384416Y-53637352D01*
X130384416Y-53637352D02*
X130265368Y-53399257D01*
X130265368Y-53399257D02*
X130265368Y-52684971D01*
X130265368Y-52684971D02*
X130384416Y-52446876D01*
X130384416Y-52446876D02*
X130503463Y-52327828D01*
X130503463Y-52327828D02*
X130741558Y-52208780D01*
X130741558Y-52208780D02*
X131217749Y-52208780D01*
X131217749Y-52208780D02*
X131455844Y-52327828D01*
X133717749Y-53875447D02*
X133717749Y-52565923D01*
X133717749Y-52565923D02*
X133598702Y-52327828D01*
X133598702Y-52327828D02*
X133360606Y-52208780D01*
X133360606Y-52208780D02*
X132884416Y-52208780D01*
X132884416Y-52208780D02*
X132646321Y-52327828D01*
X133717749Y-53756400D02*
X133479654Y-53875447D01*
X133479654Y-53875447D02*
X132884416Y-53875447D01*
X132884416Y-53875447D02*
X132646321Y-53756400D01*
X132646321Y-53756400D02*
X132527273Y-53518304D01*
X132527273Y-53518304D02*
X132527273Y-53280209D01*
X132527273Y-53280209D02*
X132646321Y-53042114D01*
X132646321Y-53042114D02*
X132884416Y-52923066D01*
X132884416Y-52923066D02*
X133479654Y-52923066D01*
X133479654Y-52923066D02*
X133717749Y-52804019D01*
X134670130Y-52208780D02*
X135265368Y-53875447D01*
X135860607Y-52208780D02*
X135265368Y-53875447D01*
X135265368Y-53875447D02*
X135027273Y-54470685D01*
X135027273Y-54470685D02*
X134908226Y-54589733D01*
X134908226Y-54589733D02*
X134670130Y-54708780D01*
X136812988Y-53637352D02*
X136932035Y-53756400D01*
X136932035Y-53756400D02*
X136812988Y-53875447D01*
X136812988Y-53875447D02*
X136693940Y-53756400D01*
X136693940Y-53756400D02*
X136812988Y-53637352D01*
X136812988Y-53637352D02*
X136812988Y-53875447D01*
D13*
%TO.P,R6,1*%
%TO.N,Net-(D1-K)*%
X50800000Y-130252000D03*
D14*
%TO.P,R6,2*%
%TO.N,5v*%
X50800000Y-125172000D03*
%TD*%
D15*
%TO.P,R1,1*%
%TO.N,5v*%
X69957500Y-81147500D03*
D16*
%TO.P,R1,2*%
%TO.N,D25*%
X69957500Y-83687500D03*
%TD*%
D17*
%TO.P,D2,1,K*%
%TO.N,Net-(D2-K)*%
X104140000Y-130556000D03*
D18*
%TO.P,D2,2,A*%
%TO.N,Net-(D2-A)*%
X104140000Y-120396000D03*
%TD*%
D13*
%TO.P,R2,1*%
%TO.N,D22*%
X67230000Y-104317000D03*
D14*
%TO.P,R2,2*%
%TO.N,Net-(Q1-B)*%
X67230000Y-109397000D03*
%TD*%
D19*
%TO.P,J_fan1,1,Pin_1*%
%TO.N,AC2*%
X62404000Y-159258000D03*
D20*
%TO.P,J_fan1,2,Pin_2*%
%TO.N,Net-(J_fan1-Pin_2)*%
X57404000Y-159258000D03*
%TD*%
D19*
%TO.P,5V1,1,Pin_1*%
%TO.N,5v*%
X106717000Y-35352000D03*
D20*
%TO.P,5V1,2,Pin_2*%
%TO.N,GND5V*%
X101717000Y-35352000D03*
%TD*%
D13*
%TO.P,R5,1*%
%TO.N,D21*%
X131826000Y-104190000D03*
D14*
%TO.P,R5,2*%
%TO.N,Net-(Q4-B)*%
X131826000Y-109270000D03*
%TD*%
D19*
%TO.P,J_LOAD2,1,Pin_1*%
%TO.N,GND LOAD*%
X135665000Y-160020000D03*
D20*
%TO.P,J_LOAD2,2,Pin_2*%
%TO.N,Normally O*%
X130665000Y-160020000D03*
%TD*%
D21*
%TO.P,H6,1*%
%TO.N,N/C*%
X54356000Y-96012000D03*
%TD*%
D22*
%TO.P,J2,1,Pin_1*%
%TO.N,D34*%
X58889000Y-68651500D03*
D23*
%TO.P,J2,2,Pin_2*%
%TO.N,5v*%
X58889000Y-63651500D03*
%TO.P,J2,3,Pin_3*%
%TO.N,GND5V*%
X58889000Y-58651500D03*
%TD*%
D24*
%TO.P,H2,1*%
%TO.N,N/C*%
X153416000Y-34290000D03*
%TD*%
D25*
%TO.P,C2,1*%
%TO.N,5v*%
X84953000Y-36602000D03*
%TO.P,C2,2*%
%TO.N,GND5V*%
X84953000Y-34102000D03*
%TD*%
D22*
%TO.P,J1,1,Pin_1*%
%TO.N,D25*%
X58889000Y-84907500D03*
D23*
%TO.P,J1,2,Pin_2*%
%TO.N,5v*%
X58889000Y-79907500D03*
%TO.P,J1,3,Pin_3*%
%TO.N,GND5V*%
X58889000Y-74907500D03*
%TD*%
D19*
%TO.P,J_AC_INPUT1,1,Pin_1*%
%TO.N,AC1*%
X118618000Y-159512000D03*
D20*
%TO.P,J_AC_INPUT1,2,Pin_2*%
%TO.N,AC2*%
X113618000Y-159512000D03*
%TD*%
D19*
%TO.P,J_LOAD1,1,Pin_1*%
%TO.N,LOAD IN*%
X150825000Y-160020000D03*
D20*
%TO.P,J_LOAD1,2,Pin_2*%
%TO.N,GND LOAD*%
X145825000Y-160020000D03*
%TD*%
D26*
%TO.P,J_esp1,1,Pin_1*%
%TO.N,3V3*%
X80674500Y-89962000D03*
D27*
%TO.P,J_esp1,2,Pin_2*%
%TO.N,GND2*%
X80674500Y-87422000D03*
%TO.P,J_esp1,3,Pin_3*%
%TO.N,D15*%
X80674500Y-84882000D03*
%TO.P,J_esp1,4,Pin_4*%
%TO.N,D2*%
X80674500Y-82342000D03*
%TO.P,J_esp1,5,Pin_5*%
%TO.N,D4*%
X80674500Y-79802000D03*
%TO.P,J_esp1,6,Pin_6*%
%TO.N,RX2*%
X80674500Y-77262000D03*
%TO.P,J_esp1,7,Pin_7*%
%TO.N,TX2*%
X80674500Y-74722000D03*
%TO.P,J_esp1,8,Pin_8*%
%TO.N,D5*%
X80674500Y-72182000D03*
%TO.P,J_esp1,9,Pin_9*%
%TO.N,D18*%
X80674500Y-69642000D03*
%TO.P,J_esp1,10,Pin_10*%
%TO.N,D19*%
X80674500Y-67102000D03*
%TO.P,J_esp1,11,Pin_11*%
%TO.N,D21*%
X80674500Y-64562000D03*
%TO.P,J_esp1,12,Pin_12*%
%TO.N,RX0*%
X80674500Y-62022000D03*
%TO.P,J_esp1,13,Pin_13*%
%TO.N,TX0*%
X80674500Y-59482000D03*
%TO.P,J_esp1,14,Pin_14*%
%TO.N,D22*%
X80674500Y-56942000D03*
%TO.P,J_esp1,15,Pin_15*%
%TO.N,D23*%
X80674500Y-54402000D03*
%TD*%
D28*
%TO.P,Q2,1,E*%
%TO.N,GND5V*%
X102362000Y-106680000D03*
D14*
%TO.P,Q2,2,B*%
%TO.N,Net-(Q2-B)*%
X104902000Y-109220000D03*
%TO.P,Q2,3,C*%
%TO.N,Net-(D2-A)*%
X102362000Y-111760000D03*
%TD*%
D22*
%TO.P,J4,1,Pin_1*%
%TO.N,GND5V*%
X58674000Y-43434000D03*
D23*
%TO.P,J4,2,Pin_2*%
%TO.N,D23*%
X58674000Y-48434000D03*
%TD*%
D17*
%TO.P,D3,1,K*%
%TO.N,Net-(D3-K)*%
X84074000Y-130302000D03*
D18*
%TO.P,D3,2,A*%
%TO.N,Net-(D3-A)*%
X84074000Y-120142000D03*
%TD*%
D29*
%TO.P,J_esp0,1,Pin_1*%
%TO.N,EN*%
X105215000Y-54323000D03*
D30*
%TO.P,J_esp0,2,Pin_2*%
%TO.N,VP*%
X105215000Y-56863000D03*
%TO.P,J_esp0,3,Pin_3*%
%TO.N,VN*%
X105215000Y-59403000D03*
D27*
%TO.P,J_esp0,4,Pin_4*%
%TO.N,D34*%
X105215000Y-61943000D03*
%TO.P,J_esp0,5,Pin_5*%
%TO.N,D35*%
X105215000Y-64483000D03*
%TO.P,J_esp0,6,Pin_6*%
%TO.N,D32*%
X105215000Y-67023000D03*
%TO.P,J_esp0,7,Pin_7*%
%TO.N,D33*%
X105215000Y-69563000D03*
%TO.P,J_esp0,8,Pin_8*%
%TO.N,D25*%
X105215000Y-72103000D03*
%TO.P,J_esp0,9,Pin_9*%
%TO.N,D26*%
X105215000Y-74643000D03*
%TO.P,J_esp0,10,Pin_10*%
%TO.N,D27*%
X105215000Y-77183000D03*
%TO.P,J_esp0,11,Pin_11*%
%TO.N,D14*%
X105215000Y-79723000D03*
%TO.P,J_esp0,12,Pin_12*%
%TO.N,D12*%
X105215000Y-82263000D03*
%TO.P,J_esp0,13,Pin_13*%
%TO.N,D13*%
X105215000Y-84803000D03*
%TO.P,J_esp0,14,Pin_14*%
%TO.N,GND5V*%
X105215000Y-87343000D03*
%TO.P,J_esp0,15,Pin_15*%
%TO.N,5v*%
X105215000Y-89883000D03*
%TD*%
D23*
%TO.P,U_wpump1,11*%
%TO.N,AC1*%
X97870000Y-140716000D03*
%TO.P,U_wpump1,14*%
%TO.N,Net-(J_wpump1-Pin_2)*%
X97870000Y-147955000D03*
D25*
%TO.P,U_wpump1,A1*%
%TO.N,Net-(D2-K)*%
X97870000Y-130470000D03*
%TO.P,U_wpump1,A2*%
%TO.N,Net-(D2-A)*%
X97870000Y-127889000D03*
%TD*%
D13*
%TO.P,R3,1*%
%TO.N,D18*%
X110918000Y-104317000D03*
D14*
%TO.P,R3,2*%
%TO.N,Net-(Q2-B)*%
X110918000Y-109397000D03*
%TD*%
D19*
%TO.P,J_oxygen1,1,Pin_1*%
%TO.N,AC2*%
X83058000Y-159512000D03*
D20*
%TO.P,J_oxygen1,2,Pin_2*%
%TO.N,Net-(J_oxygen1-Pin_2)*%
X78058000Y-159512000D03*
%TD*%
D24*
%TO.P,H1,1*%
%TO.N,N/C*%
X54256000Y-33528000D03*
%TD*%
D28*
%TO.P,Q1,1,E*%
%TO.N,GND5V*%
X58420000Y-106680000D03*
D14*
%TO.P,Q1,2,B*%
%TO.N,Net-(Q1-B)*%
X60960000Y-109220000D03*
%TO.P,Q1,3,C*%
%TO.N,Net-(D1-A)*%
X58420000Y-111760000D03*
%TD*%
D17*
%TO.P,D4,1,K*%
%TO.N,Net-(D4-K)*%
X127254000Y-132080000D03*
D18*
%TO.P,D4,2,A*%
%TO.N,Net-(D4-A)*%
X127254000Y-121920000D03*
%TD*%
D17*
%TO.P,D1,1,K*%
%TO.N,Net-(D1-K)*%
X62861000Y-130048000D03*
D18*
%TO.P,D1,2,A*%
%TO.N,Net-(D1-A)*%
X62861000Y-119888000D03*
%TD*%
D24*
%TO.P,H3,1*%
%TO.N,N/C*%
X68326000Y-147320000D03*
%TD*%
D31*
%TO.P,K_LIGHTS1,1*%
%TO.N,LOAD IN*%
X145141000Y-130326000D03*
D32*
%TO.P,K_LIGHTS1,2*%
%TO.N,Net-(D4-A)*%
X151191000Y-132276000D03*
D23*
%TO.P,K_LIGHTS1,3*%
%TO.N,Normally O*%
X151191000Y-144476000D03*
%TO.P,K_LIGHTS1,4*%
%TO.N,Normally C*%
X139141000Y-144526000D03*
D32*
%TO.P,K_LIGHTS1,5*%
%TO.N,Net-(D4-K)*%
X139191000Y-132276000D03*
%TD*%
D19*
%TO.P,J_wpump1,1,Pin_1*%
%TO.N,AC2*%
X102870000Y-159512000D03*
D20*
%TO.P,J_wpump1,2,Pin_2*%
%TO.N,Net-(J_wpump1-Pin_2)*%
X97870000Y-159512000D03*
%TD*%
D33*
%TO.P,C1,1*%
%TO.N,5v*%
X92573000Y-36557113D03*
D25*
%TO.P,C1,2*%
%TO.N,GND5V*%
X92573000Y-34057113D03*
%TD*%
D28*
%TO.P,Q3,1,E*%
%TO.N,GND5V*%
X80264000Y-106680000D03*
D14*
%TO.P,Q3,2,B*%
%TO.N,Net-(Q3-B)*%
X82804000Y-109220000D03*
%TO.P,Q3,3,C*%
%TO.N,Net-(D3-A)*%
X80264000Y-111760000D03*
%TD*%
D24*
%TO.P,H4,1*%
%TO.N,N/C*%
X124968000Y-147320000D03*
%TD*%
D13*
%TO.P,R7,1*%
%TO.N,Net-(D2-K)*%
X90678000Y-130295750D03*
D14*
%TO.P,R7,2*%
%TO.N,5v*%
X90678000Y-125215750D03*
%TD*%
D23*
%TO.P,U_oxygen1,11*%
%TO.N,AC1*%
X78058000Y-140589000D03*
%TO.P,U_oxygen1,14*%
%TO.N,Net-(J_oxygen1-Pin_2)*%
X78058000Y-147828000D03*
D25*
%TO.P,U_oxygen1,A1*%
%TO.N,Net-(D3-K)*%
X78058000Y-130343000D03*
%TO.P,U_oxygen1,A2*%
%TO.N,Net-(D3-A)*%
X78058000Y-127762000D03*
%TD*%
D13*
%TO.P,R4,1*%
%TO.N,D19*%
X89582000Y-104063000D03*
D14*
%TO.P,R4,2*%
%TO.N,Net-(Q3-B)*%
X89582000Y-109143000D03*
%TD*%
D13*
%TO.P,R9,1*%
%TO.N,Net-(D4-K)*%
X133858000Y-130252000D03*
D14*
%TO.P,R9,2*%
%TO.N,5v*%
X133858000Y-125172000D03*
%TD*%
D28*
%TO.P,Q4,1,E*%
%TO.N,GND5V*%
X122174000Y-106680000D03*
D14*
%TO.P,Q4,2,B*%
%TO.N,Net-(Q4-B)*%
X124714000Y-109220000D03*
%TO.P,Q4,3,C*%
%TO.N,Net-(D4-A)*%
X122174000Y-111760000D03*
%TD*%
D21*
%TO.P,H5,1*%
%TO.N,N/C*%
X153041000Y-96266000D03*
%TD*%
D33*
%TO.P,U2,1,GND*%
%TO.N,GND2*%
X124668000Y-78523000D03*
D25*
%TO.P,U2,2,VCC*%
%TO.N,3V3*%
X127208000Y-78523000D03*
%TO.P,U2,3,CE*%
%TO.N,D27*%
X124668000Y-75983000D03*
%TO.P,U2,4,~{CSN}*%
%TO.N,D26*%
X127208000Y-75983000D03*
%TO.P,U2,5,SCK*%
%TO.N,D14*%
X124668000Y-73443000D03*
%TO.P,U2,6,MOSI*%
%TO.N,D13*%
X127208000Y-73443000D03*
%TO.P,U2,7,MISO*%
%TO.N,D12*%
X124668000Y-70903000D03*
%TO.P,U2,8,IRQ*%
%TO.N,unconnected-(U2-IRQ-Pad8)*%
X127208000Y-70903000D03*
%TD*%
D23*
%TO.P,U_fan1,11*%
%TO.N,AC1*%
X57607000Y-140462000D03*
%TO.P,U_fan1,14*%
%TO.N,Net-(J_fan1-Pin_2)*%
X57607000Y-147701000D03*
D25*
%TO.P,U_fan1,A1*%
%TO.N,Net-(D1-K)*%
X57607000Y-130216000D03*
%TO.P,U_fan1,A2*%
%TO.N,Net-(D1-A)*%
X57607000Y-127635000D03*
%TD*%
D13*
%TO.P,R8,1*%
%TO.N,Net-(D3-K)*%
X71374000Y-130295750D03*
D14*
%TO.P,R8,2*%
%TO.N,5v*%
X71374000Y-125215750D03*
%TD*%
D34*
%TO.N,5v*%
X79756000Y-36830000D03*
X87630000Y-125222000D03*
X67564000Y-57658000D03*
X115570000Y-53848000D03*
X68326000Y-125222000D03*
X141732000Y-109728000D03*
X74168000Y-125222000D03*
X115570000Y-86360000D03*
X130556000Y-125222000D03*
X93980000Y-125222000D03*
X53848000Y-125222000D03*
%TO.N,D25*%
X94488000Y-86614000D03*
X96012000Y-74676000D03*
%TO.N,D34*%
X98044000Y-61976000D03*
X67056000Y-68580000D03*
%TO.N,D26*%
X136144000Y-75946000D03*
%TO.N,D14*%
X118618000Y-79502000D03*
%TO.N,D12*%
X112014000Y-82296000D03*
%TO.N,D13*%
X136144000Y-73406000D03*
X111252000Y-86360000D03*
%TO.N,3V3*%
X86868000Y-89916000D03*
X136652000Y-90932000D03*
%TO.N,GND2*%
X86868000Y-81026000D03*
X130302000Y-58674000D03*
X124460000Y-83312000D03*
X88900000Y-58420000D03*
%TO.N,D18*%
X106680000Y-99314000D03*
X93980000Y-91948000D03*
%TO.N,D19*%
X91440000Y-70358000D03*
X91694000Y-97685000D03*
%TO.N,D21*%
X107188000Y-96266000D03*
X91440000Y-64516000D03*
%TO.N,D22*%
X73660000Y-88646000D03*
X70866000Y-103632000D03*
%TD*%
D35*
%TO.N,5v*%
X92945113Y-36557113D02*
X96774000Y-40386000D01*
X106717000Y-40931000D02*
X106717000Y-35352000D01*
X66445500Y-58776500D02*
X67564000Y-57658000D01*
X73914000Y-125222000D02*
X68326000Y-125222000D01*
X96774000Y-40386000D02*
X104394000Y-40386000D01*
X70104000Y-67310000D02*
X66445500Y-63651500D01*
X115570000Y-86614000D02*
X112301000Y-89883000D01*
X115570000Y-49784000D02*
X106717000Y-40931000D01*
X53798000Y-125172000D02*
X53848000Y-125222000D01*
X104394000Y-40386000D02*
X106717000Y-38063000D01*
X92528113Y-36602000D02*
X92573000Y-36557113D01*
X87630000Y-125222000D02*
X87680000Y-125172000D01*
X115570000Y-53848000D02*
X115570000Y-49784000D01*
X130556000Y-125222000D02*
X133808000Y-125222000D01*
X141732000Y-104648000D02*
X123444000Y-86360000D01*
X133808000Y-125222000D02*
X133858000Y-125172000D01*
X68717500Y-79907500D02*
X70104000Y-78521000D01*
X87630000Y-125222000D02*
X93980000Y-125222000D01*
X123444000Y-86360000D02*
X115570000Y-86360000D01*
X84725000Y-36830000D02*
X84953000Y-36602000D01*
X66445500Y-63651500D02*
X58889000Y-63651500D01*
X50800000Y-125172000D02*
X53798000Y-125172000D01*
X141732000Y-109728000D02*
X141732000Y-104648000D01*
X58889000Y-79907500D02*
X68717500Y-79907500D01*
X112301000Y-89883000D02*
X105215000Y-89883000D01*
X92573000Y-36557113D02*
X92945113Y-36557113D01*
X79756000Y-36830000D02*
X84725000Y-36830000D01*
X115570000Y-86360000D02*
X115570000Y-86614000D01*
X73864000Y-125172000D02*
X73914000Y-125222000D01*
X84953000Y-36602000D02*
X92528113Y-36602000D01*
X68717500Y-79907500D02*
X69957500Y-81147500D01*
X106717000Y-38063000D02*
X106717000Y-35352000D01*
X70104000Y-78521000D02*
X70104000Y-67310000D01*
X66445500Y-63651500D02*
X66445500Y-58776500D01*
%TO.N,GND5V*%
X92528113Y-34102000D02*
X92573000Y-34057113D01*
X84953000Y-34102000D02*
X92528113Y-34102000D01*
X95250000Y-94996000D02*
X102903000Y-87343000D01*
X58889000Y-74907500D02*
X54610000Y-79186500D01*
X58420000Y-105410000D02*
X65659000Y-98171000D01*
X58420000Y-106680000D02*
X122174000Y-106680000D01*
X54356000Y-57150000D02*
X54356000Y-73406000D01*
X58420000Y-106680000D02*
X58420000Y-105410000D01*
X58674000Y-43434000D02*
X54356000Y-47752000D01*
X102903000Y-87343000D02*
X105215000Y-87343000D01*
X54356000Y-73406000D02*
X55857500Y-74907500D01*
X55857500Y-74907500D02*
X58889000Y-74907500D01*
X65659000Y-98171000D02*
X68834000Y-94996000D01*
X101717000Y-35352000D02*
X100422113Y-34057113D01*
X54356000Y-57150000D02*
X55857500Y-58651500D01*
X68834000Y-94996000D02*
X95250000Y-94996000D01*
X55857500Y-58651500D02*
X58889000Y-58651500D01*
X54610000Y-87122000D02*
X64516000Y-97028000D01*
X68006000Y-34102000D02*
X58674000Y-43434000D01*
X65659000Y-98171000D02*
X64516000Y-97028000D01*
X54356000Y-47752000D02*
X54356000Y-57150000D01*
X84953000Y-34102000D02*
X68006000Y-34102000D01*
X100422113Y-34057113D02*
X92573000Y-34057113D01*
X54610000Y-79186500D02*
X54610000Y-87122000D01*
%TO.N,D25*%
X96012000Y-74676000D02*
X98585000Y-72103000D01*
X88646000Y-92456000D02*
X73152000Y-92456000D01*
X68737500Y-84907500D02*
X69957500Y-83687500D01*
X69957500Y-89261500D02*
X69957500Y-83687500D01*
X58889000Y-84907500D02*
X68737500Y-84907500D01*
X94488000Y-86614000D02*
X88646000Y-92456000D01*
X98585000Y-72103000D02*
X105215000Y-72103000D01*
X73152000Y-92456000D02*
X69957500Y-89261500D01*
%TO.N,D34*%
X105182000Y-61976000D02*
X105215000Y-61943000D01*
X58889000Y-68651500D02*
X66984500Y-68651500D01*
X98044000Y-61976000D02*
X105182000Y-61976000D01*
X66984500Y-68651500D02*
X67056000Y-68580000D01*
D36*
%TO.N,AC1*%
X104140000Y-140462000D02*
X118618000Y-154940000D01*
X57607000Y-140462000D02*
X104140000Y-140462000D01*
X118618000Y-154940000D02*
X118618000Y-159512000D01*
%TO.N,AC2*%
X83058000Y-160502000D02*
X83058000Y-159512000D01*
X100584000Y-164846000D02*
X102870000Y-162560000D01*
X62404000Y-162226000D02*
X64770000Y-164592000D01*
X102870000Y-162560000D02*
X102870000Y-159512000D01*
X113618000Y-159512000D02*
X102870000Y-159512000D01*
X83058000Y-162052000D02*
X85852000Y-164846000D01*
X64770000Y-164592000D02*
X78968000Y-164592000D01*
X83058000Y-159512000D02*
X83058000Y-162052000D01*
X78968000Y-164592000D02*
X83058000Y-160502000D01*
X85852000Y-164846000D02*
X100584000Y-164846000D01*
X62404000Y-159258000D02*
X62404000Y-162226000D01*
D35*
%TO.N,D26*%
X120650000Y-62230000D02*
X108204000Y-74676000D01*
X108171000Y-74643000D02*
X105215000Y-74643000D01*
X136144000Y-75946000D02*
X136107000Y-75983000D01*
X139700000Y-70866000D02*
X131064000Y-62230000D01*
X136144000Y-75946000D02*
X137414000Y-75946000D01*
X139700000Y-73660000D02*
X139700000Y-70866000D01*
X136107000Y-75983000D02*
X127208000Y-75983000D01*
X131064000Y-62230000D02*
X120650000Y-62230000D01*
X137414000Y-75946000D02*
X139700000Y-73660000D01*
X108204000Y-74676000D02*
X108171000Y-74643000D01*
%TO.N,D27*%
X121375000Y-75983000D02*
X124668000Y-75983000D01*
X120175000Y-77183000D02*
X121375000Y-75983000D01*
X105215000Y-77183000D02*
X120175000Y-77183000D01*
%TO.N,D14*%
X115791000Y-79723000D02*
X116012000Y-79502000D01*
X115791000Y-79723000D02*
X105215000Y-79723000D01*
X116012000Y-79502000D02*
X118618000Y-79502000D01*
%TO.N,D12*%
X105215000Y-82263000D02*
X112014000Y-82296000D01*
X112014000Y-82296000D02*
X111981000Y-82263000D01*
%TO.N,D13*%
X136144000Y-73406000D02*
X136107000Y-73443000D01*
X136107000Y-73443000D02*
X127208000Y-73443000D01*
X109695000Y-84803000D02*
X105215000Y-84803000D01*
X111252000Y-86360000D02*
X109695000Y-84803000D01*
%TO.N,3V3*%
X127208000Y-81488000D02*
X127208000Y-78523000D01*
X86822000Y-89962000D02*
X86868000Y-89916000D01*
X80674500Y-89962000D02*
X86822000Y-89962000D01*
X136652000Y-90932000D02*
X127208000Y-81488000D01*
%TO.N,GND2*%
X88900000Y-58420000D02*
X98806000Y-48514000D01*
X124460000Y-78731000D02*
X124668000Y-78523000D01*
X82109500Y-87422000D02*
X86868000Y-82663500D01*
X86868000Y-82663500D02*
X86868000Y-81026000D01*
X115062000Y-58674000D02*
X130302000Y-58674000D01*
X104902000Y-48514000D02*
X115062000Y-58674000D01*
X98806000Y-48514000D02*
X104902000Y-48514000D01*
X124460000Y-83312000D02*
X124460000Y-78731000D01*
X80674500Y-87422000D02*
X82109500Y-87422000D01*
%TO.N,D18*%
X82109500Y-69642000D02*
X80674500Y-69642000D01*
X93980000Y-91948000D02*
X97028000Y-88900000D01*
X106680000Y-100079000D02*
X110918000Y-104317000D01*
X106680000Y-99314000D02*
X106680000Y-100079000D01*
X97028000Y-88900000D02*
X97028000Y-84560500D01*
X97028000Y-84560500D02*
X82109500Y-69642000D01*
%TO.N,D19*%
X91440000Y-70358000D02*
X88184000Y-67102000D01*
X89759000Y-99620000D02*
X89759000Y-103886000D01*
X91694000Y-97685000D02*
X89759000Y-99620000D01*
X88184000Y-67102000D02*
X80674500Y-67102000D01*
X89759000Y-103886000D02*
X89582000Y-104063000D01*
%TO.N,D21*%
X91440000Y-64516000D02*
X91394000Y-64562000D01*
X131826000Y-102870000D02*
X131826000Y-104190000D01*
X91394000Y-64562000D02*
X80674500Y-64562000D01*
X107188000Y-96266000D02*
X125222000Y-96266000D01*
X125222000Y-96266000D02*
X131826000Y-102870000D01*
%TO.N,D22*%
X78074500Y-56942000D02*
X80674500Y-56942000D01*
X73660000Y-61356500D02*
X78074500Y-56942000D01*
X70181000Y-104317000D02*
X70866000Y-103632000D01*
X67230000Y-104317000D02*
X70181000Y-104317000D01*
X73660000Y-88646000D02*
X73660000Y-61356500D01*
%TO.N,D23*%
X80674500Y-54402000D02*
X64642000Y-54402000D01*
X64642000Y-54402000D02*
X58674000Y-48434000D01*
D36*
%TO.N,Net-(J_fan1-Pin_2)*%
X57404000Y-159258000D02*
X57404000Y-147904000D01*
X57404000Y-147904000D02*
X57607000Y-147701000D01*
%TO.N,LOAD IN*%
X156210000Y-155702000D02*
X151892000Y-160020000D01*
X156210000Y-140970000D02*
X156210000Y-155702000D01*
X145141000Y-132187000D02*
X150368000Y-137414000D01*
X151892000Y-160020000D02*
X150825000Y-160020000D01*
X145141000Y-130326000D02*
X145141000Y-132187000D01*
X150368000Y-137414000D02*
X152654000Y-137414000D01*
X152654000Y-137414000D02*
X156210000Y-140970000D01*
%TO.N,GND LOAD*%
X135665000Y-160020000D02*
X145825000Y-160020000D01*
%TO.N,Normally O*%
X130665000Y-154577000D02*
X130665000Y-160020000D01*
X144791000Y-150876000D02*
X134366000Y-150876000D01*
X151191000Y-144476000D02*
X144791000Y-150876000D01*
X134366000Y-150876000D02*
X130665000Y-154577000D01*
%TO.N,Net-(J_oxygen1-Pin_2)*%
X78058000Y-147828000D02*
X78058000Y-159512000D01*
%TO.N,Net-(J_wpump1-Pin_2)*%
X97870000Y-159512000D02*
X97870000Y-147955000D01*
D35*
%TO.N,Net-(Q1-B)*%
X60960000Y-109220000D02*
X67053000Y-109220000D01*
X67053000Y-109220000D02*
X67230000Y-109397000D01*
%TO.N,Net-(Q2-B)*%
X110741000Y-109220000D02*
X110918000Y-109397000D01*
X104902000Y-109220000D02*
X110741000Y-109220000D01*
%TO.N,Net-(Q3-B)*%
X82804000Y-109220000D02*
X89505000Y-109220000D01*
X89505000Y-109220000D02*
X89582000Y-109143000D01*
%TO.N,Net-(Q4-B)*%
X131776000Y-109220000D02*
X131826000Y-109270000D01*
X124714000Y-109220000D02*
X131776000Y-109220000D01*
%TO.N,Net-(D1-K)*%
X62657000Y-130252000D02*
X62861000Y-130048000D01*
X50800000Y-130252000D02*
X62657000Y-130252000D01*
%TO.N,Net-(D2-K)*%
X104054000Y-130470000D02*
X104140000Y-130556000D01*
X97870000Y-130470000D02*
X104054000Y-130470000D01*
X97870000Y-130470000D02*
X90852250Y-130470000D01*
X90852250Y-130470000D02*
X90678000Y-130295750D01*
%TO.N,Net-(D3-K)*%
X71932000Y-130302000D02*
X84074000Y-130302000D01*
X71374000Y-130295750D02*
X71925750Y-130295750D01*
X71925750Y-130295750D02*
X71932000Y-130302000D01*
%TO.N,Net-(D4-K)*%
X133858000Y-130252000D02*
X135882000Y-132276000D01*
X135882000Y-132276000D02*
X139191000Y-132276000D01*
X132030000Y-132080000D02*
X133858000Y-130252000D01*
X127254000Y-132080000D02*
X132030000Y-132080000D01*
%TO.N,Net-(D1-A)*%
X57607000Y-127635000D02*
X57607000Y-125142000D01*
X62861000Y-116201000D02*
X58420000Y-111760000D01*
X57607000Y-125142000D02*
X62861000Y-119888000D01*
X62861000Y-119888000D02*
X62861000Y-116201000D01*
%TO.N,Net-(D3-A)*%
X78058000Y-127762000D02*
X78058000Y-126158000D01*
X78058000Y-126158000D02*
X84074000Y-120142000D01*
X84074000Y-115570000D02*
X80264000Y-111760000D01*
X84074000Y-120142000D02*
X84074000Y-115570000D01*
%TO.N,Net-(D2-A)*%
X102362000Y-118618000D02*
X104140000Y-120396000D01*
X97870000Y-126666000D02*
X104140000Y-120396000D01*
X102362000Y-111760000D02*
X102362000Y-118618000D01*
X97870000Y-127889000D02*
X97870000Y-126666000D01*
%TO.N,Net-(D4-A)*%
X127254000Y-121920000D02*
X148844000Y-121920000D01*
X151191000Y-124267000D02*
X151191000Y-132276000D01*
X127254000Y-116840000D02*
X122174000Y-111760000D01*
X148844000Y-121920000D02*
X151191000Y-124267000D01*
X127254000Y-121920000D02*
X127254000Y-116840000D01*
%TD*%
M02*
