M48
; DRILL file {KiCad 6.0.11+dfsg-1} date Thu 16 Mar 2023 02:48:23 PM -05
; FORMAT={-:-/ absolute / inch / decimal}
; #@! TF.CreationDate,2023-03-16T14:48:23-05:00
; #@! TF.GenerationSoftware,Kicad,Pcbnew,6.0.11+dfsg-1
; #@! TF.FileFunction,Plated,1,2,PTH
FMAT,2
INCH
; #@! TA.AperFunction,Plated,PTH,ComponentDrill
T1C0.0276
; #@! TA.AperFunction,Plated,PTH,ComponentDrill
T2C0.0315
; #@! TA.AperFunction,Plated,PTH,ComponentDrill
T3C0.0374
; #@! TA.AperFunction,Plated,PTH,ComponentDrill
T4C0.0433
; #@! TA.AperFunction,Plated,PTH,ComponentDrill
T5C0.0512
; #@! TA.AperFunction,Plated,PTH,ComponentDrill
T6C0.0520
; #@! TA.AperFunction,Plated,PTH,ComponentDrill
T7C0.1260
%
G90
G05
T1
X5.1339Y-3.5053
X5.1339Y-3.6053
X5.365Y-1.8252
X5.365Y-1.9252
X5.96Y-1.928
X5.96Y-2.128
X6.1217Y-2.8189
X6.17Y-1.93
X6.17Y-2.13
X6.2217Y-2.8189
X6.42Y-1.933
X6.42Y-2.133
T2
X5.162Y-2.0456
X5.162Y-2.3456
X5.262Y-2.0456
X5.262Y-2.3456
X5.362Y-2.0456
X5.362Y-2.3456
X5.7244Y-2.7156
X5.7244Y-2.8156
X5.7244Y-2.9156
X5.7244Y-3.0156
X5.7244Y-3.1156
X5.7244Y-3.2156
X5.7244Y-3.3156
X6.0244Y-2.7156
X6.0244Y-2.8156
X6.0244Y-2.9156
X6.0244Y-3.0156
X6.0244Y-3.1156
X6.0244Y-3.2156
X6.0244Y-3.3156
T3
X5.5531Y-1.7032
X5.6516Y-1.7032
X5.75Y-1.7032
X5.8484Y-1.7032
X5.9469Y-1.7032
T4
X5.1362Y-3.7795
X5.2362Y-3.7795
X5.3362Y-3.7795
T5
X6.6011Y-2.9039
X6.6011Y-3.0515
X6.6011Y-3.6913
X6.6011Y-3.8881
X7.21Y-2.8874
X7.21Y-3.035
X7.21Y-3.6748
X7.7789Y-2.8924
X7.7789Y-3.04
X7.7789Y-3.6798
X7.7789Y-3.8766
T6
X5.1825Y-4.2598
X5.3793Y-4.2598
X6.4781Y-4.27
X6.675Y-4.27
X6.962Y-1.9685
X7.0634Y-4.2693
X7.1589Y-1.9685
X7.2603Y-4.2693
X7.645Y-4.27
X7.8419Y-4.27
T7
X5.24Y-2.615
X6.005Y-4.305
X7.76Y-2.615
T5
G00X7.21Y-3.8716
M15
G01X7.21Y-3.8716
M16
G05
T0
M30
