%TF.GenerationSoftware,KiCad,Pcbnew,6.0.11+dfsg-1*%
%TF.CreationDate,2023-03-13T21:47:28-05:00*%
%TF.ProjectId,power_control,706f7765-725f-4636-9f6e-74726f6c2e6b,rev?*%
%TF.SameCoordinates,Original*%
%TF.FileFunction,Soldermask,Bot*%
%TF.FilePolarity,Negative*%
%FSLAX46Y46*%
G04 Gerber Fmt 4.6, Leading zero omitted, Abs format (unit mm)*
G04 Created by KiCad (PCBNEW 6.0.11+dfsg-1) date 2023-03-13 21:47:28*
%MOMM*%
%LPD*%
G01*
G04 APERTURE LIST*
G04 Aperture macros list*
%AMRoundRect*
0 Rectangle with rounded corners*
0 $1 Rounding radius*
0 $2 $3 $4 $5 $6 $7 $8 $9 X,Y pos of 4 corners*
0 Add a 4 corners polygon primitive as box body*
4,1,4,$2,$3,$4,$5,$6,$7,$8,$9,$2,$3,0*
0 Add four circle primitives for the rounded corners*
1,1,$1+$1,$2,$3*
1,1,$1+$1,$4,$5*
1,1,$1+$1,$6,$7*
1,1,$1+$1,$8,$9*
0 Add four rect primitives between the rounded corners*
20,1,$1+$1,$2,$3,$4,$5,0*
20,1,$1+$1,$4,$5,$6,$7,0*
20,1,$1+$1,$6,$7,$8,$9,0*
20,1,$1+$1,$8,$9,$2,$3,0*%
G04 Aperture macros list end*
%ADD10C,2.400000*%
%ADD11RoundRect,0.249600X-0.950400X0.950400X-0.950400X-0.950400X0.950400X-0.950400X0.950400X0.950400X0*%
%ADD12C,1.750000*%
%ADD13O,1.750000X1.750000*%
%ADD14R,1.980000X3.960000*%
%ADD15O,1.980000X3.960000*%
%ADD16RoundRect,0.250000X-0.600000X-1.000000X0.600000X-1.000000X0.600000X1.000000X-0.600000X1.000000X0*%
%ADD17O,1.700000X2.500000*%
%ADD18R,1.905000X3.000000*%
%ADD19O,1.905000X3.000000*%
%ADD20O,1.600000X1.600000*%
%ADD21O,1.600000X3.000000*%
%ADD22O,1.800000X3.000000*%
%ADD23R,1.800000X3.000000*%
%ADD24R,2.500000X3.960000*%
%ADD25O,2.500000X3.960000*%
%ADD26C,5.600000*%
%ADD27O,1.400000X1.400000*%
%ADD28C,3.500000*%
%ADD29RoundRect,0.312000X-1.188000X1.188000X-1.188000X-1.188000X1.188000X-1.188000X1.188000X1.188000X0*%
%ADD30C,3.000000*%
%ADD31R,1.600000X1.600000*%
%ADD32O,2.500000X1.600000*%
%ADD33C,1.400000*%
%ADD34C,1.800000*%
%ADD35O,1.800000X1.800000*%
%ADD36R,3.000000X3.960000*%
%ADD37O,3.000000X4.000000*%
G04 APERTURE END LIST*
D10*
%TO.C,U_fan1*%
X197583000Y-93466000D03*
X197583000Y-98466000D03*
D11*
X197583000Y-77216000D03*
D10*
X197583000Y-73466000D03*
%TD*%
D12*
%TO.C,R9*%
X163068000Y-54179000D03*
D13*
X163068000Y-49099000D03*
%TD*%
D14*
%TO.C,J_fan1*%
X194183000Y-108458000D03*
D15*
X199183000Y-108458000D03*
%TD*%
D16*
%TO.C,J1*%
X139673000Y-42753000D03*
D17*
X142173000Y-42753000D03*
X144673000Y-42753000D03*
X147173000Y-42753000D03*
X149673000Y-42753000D03*
X152173000Y-42753000D03*
%TD*%
D18*
%TO.C,Q1*%
X109660000Y-96145000D03*
D19*
X112200000Y-96145000D03*
X114740000Y-96145000D03*
%TD*%
D20*
%TO.C,U2*%
X145925000Y-61220000D03*
D21*
X143385000Y-61220000D03*
D22*
X140845000Y-61220000D03*
D20*
X140845000Y-53600000D03*
D22*
X143385000Y-53600000D03*
D23*
X145925000Y-53600000D03*
%TD*%
D24*
%TO.C,J_wpump1*%
X179411500Y-108439000D03*
D25*
X184411500Y-108439000D03*
%TD*%
D12*
%TO.C,R2*%
X156718000Y-54102000D03*
D13*
X156718000Y-49022000D03*
%TD*%
D26*
%TO.C,H2*%
X173609000Y-64516000D03*
%TD*%
D20*
%TO.C,U3*%
X136925000Y-61220000D03*
D22*
X134385000Y-61220000D03*
X131845000Y-61220000D03*
D20*
X131845000Y-53600000D03*
D22*
X134385000Y-53600000D03*
D23*
X136925000Y-53600000D03*
%TD*%
D12*
%TO.C,R3*%
X146000000Y-47780000D03*
D27*
X146000000Y-50320000D03*
%TD*%
D28*
%TO.C,U_wpump1*%
X183134000Y-93339000D03*
X183134000Y-98339000D03*
D29*
X183134000Y-77089000D03*
D30*
X183134000Y-73339000D03*
%TD*%
D31*
%TO.C,U1*%
X145400000Y-68975000D03*
D20*
X145400000Y-71515000D03*
X145400000Y-74055000D03*
X145400000Y-76595000D03*
X145400000Y-79135000D03*
X145400000Y-81675000D03*
D32*
X145400000Y-84215000D03*
D20*
X153020000Y-84215000D03*
X153020000Y-81675000D03*
X153020000Y-79135000D03*
X153020000Y-76595000D03*
X153020000Y-74055000D03*
X153020000Y-71515000D03*
X153020000Y-68975000D03*
%TD*%
D24*
%TO.C,OUT2*%
X131635000Y-108200000D03*
D25*
X136635000Y-108200000D03*
%TD*%
D33*
%TO.C,R6*%
X155490000Y-71600000D03*
D27*
X158030000Y-71600000D03*
%TD*%
D18*
%TO.C,Q2*%
X130460000Y-96000000D03*
D19*
X133000000Y-96000000D03*
X135540000Y-96000000D03*
%TD*%
D12*
%TO.C,R1*%
X151384000Y-54052000D03*
D13*
X151384000Y-48972000D03*
%TD*%
D26*
%TO.C,H1*%
X125857000Y-46228000D03*
%TD*%
D34*
%TO.C,R7*%
X109600000Y-89180000D03*
D35*
X109600000Y-91720000D03*
%TD*%
D26*
%TO.C,H3*%
X121031000Y-64516000D03*
%TD*%
D14*
%TO.C,5V1*%
X176835000Y-50000000D03*
D15*
X181835000Y-50000000D03*
%TD*%
D33*
%TO.C,R5*%
X142820000Y-69000000D03*
D27*
X140280000Y-69000000D03*
%TD*%
D36*
%TO.C,12V1*%
X111835000Y-49400000D03*
D37*
X116835000Y-49400000D03*
%TD*%
D24*
%TO.C,J_oxygen1*%
X164545000Y-108458000D03*
D25*
X169545000Y-108458000D03*
%TD*%
D34*
%TO.C,R8*%
X130400000Y-89035000D03*
D35*
X130400000Y-91575000D03*
%TD*%
D24*
%TO.C,OUT1*%
X110235000Y-108400000D03*
D25*
X115235000Y-108400000D03*
%TD*%
D10*
%TO.C,U_oxygen1*%
X167667500Y-93758000D03*
X167667500Y-98758000D03*
D29*
X167667500Y-77508000D03*
D30*
X167667500Y-73758000D03*
%TD*%
D12*
%TO.C,R4*%
X137000000Y-48000000D03*
D13*
X137000000Y-50540000D03*
%TD*%
M02*
