%TF.GenerationSoftware,KiCad,Pcbnew,6.0.11+dfsg-1*%
%TF.CreationDate,2023-03-16T14:48:17-05:00*%
%TF.ProjectId,power_control,706f7765-725f-4636-9f6e-74726f6c2e6b,rev?*%
%TF.SameCoordinates,Original*%
%TF.FileFunction,Legend,Top*%
%TF.FilePolarity,Positive*%
%FSLAX46Y46*%
G04 Gerber Fmt 4.6, Leading zero omitted, Abs format (unit mm)*
G04 Created by KiCad (PCBNEW 6.0.11+dfsg-1) date 2023-03-16 14:48:17*
%MOMM*%
%LPD*%
G01*
G04 APERTURE LIST*
%ADD10C,0.150000*%
%ADD11C,0.120000*%
G04 APERTURE END LIST*
D10*
%TO.C,J1*%
X145716666Y-39913380D02*
X145716666Y-40627666D01*
X145669047Y-40770523D01*
X145573809Y-40865761D01*
X145430952Y-40913380D01*
X145335714Y-40913380D01*
X146716666Y-40913380D02*
X146145238Y-40913380D01*
X146430952Y-40913380D02*
X146430952Y-39913380D01*
X146335714Y-40056238D01*
X146240476Y-40151476D01*
X146145238Y-40199095D01*
%TO.C,J_wpump1*%
X179110095Y-103211380D02*
X179110095Y-103925666D01*
X179062476Y-104068523D01*
X178967238Y-104163761D01*
X178824380Y-104211380D01*
X178729142Y-104211380D01*
X179348190Y-104306619D02*
X180110095Y-104306619D01*
X180252952Y-103544714D02*
X180443428Y-104211380D01*
X180633904Y-103735190D01*
X180824380Y-104211380D01*
X181014857Y-103544714D01*
X181395809Y-103544714D02*
X181395809Y-104544714D01*
X181395809Y-103592333D02*
X181491047Y-103544714D01*
X181681523Y-103544714D01*
X181776761Y-103592333D01*
X181824380Y-103639952D01*
X181872000Y-103735190D01*
X181872000Y-104020904D01*
X181824380Y-104116142D01*
X181776761Y-104163761D01*
X181681523Y-104211380D01*
X181491047Y-104211380D01*
X181395809Y-104163761D01*
X182729142Y-103544714D02*
X182729142Y-104211380D01*
X182300571Y-103544714D02*
X182300571Y-104068523D01*
X182348190Y-104163761D01*
X182443428Y-104211380D01*
X182586285Y-104211380D01*
X182681523Y-104163761D01*
X182729142Y-104116142D01*
X183205333Y-104211380D02*
X183205333Y-103544714D01*
X183205333Y-103639952D02*
X183252952Y-103592333D01*
X183348190Y-103544714D01*
X183491047Y-103544714D01*
X183586285Y-103592333D01*
X183633904Y-103687571D01*
X183633904Y-104211380D01*
X183633904Y-103687571D02*
X183681523Y-103592333D01*
X183776761Y-103544714D01*
X183919619Y-103544714D01*
X184014857Y-103592333D01*
X184062476Y-103687571D01*
X184062476Y-104211380D01*
X184538666Y-103544714D02*
X184538666Y-104544714D01*
X184538666Y-103592333D02*
X184633904Y-103544714D01*
X184824380Y-103544714D01*
X184919619Y-103592333D01*
X184967238Y-103639952D01*
X185014857Y-103735190D01*
X185014857Y-104020904D01*
X184967238Y-104116142D01*
X184919619Y-104163761D01*
X184824380Y-104211380D01*
X184633904Y-104211380D01*
X184538666Y-104163761D01*
X185967238Y-104211380D02*
X185395809Y-104211380D01*
X185681523Y-104211380D02*
X185681523Y-103211380D01*
X185586285Y-103354238D01*
X185491047Y-103449476D01*
X185395809Y-103497095D01*
%TO.C,J_fan1*%
X195072238Y-103338380D02*
X195072238Y-104052666D01*
X195024619Y-104195523D01*
X194929380Y-104290761D01*
X194786523Y-104338380D01*
X194691285Y-104338380D01*
X195310333Y-104433619D02*
X196072238Y-104433619D01*
X196167476Y-103671714D02*
X196548428Y-103671714D01*
X196310333Y-104338380D02*
X196310333Y-103481238D01*
X196357952Y-103386000D01*
X196453190Y-103338380D01*
X196548428Y-103338380D01*
X197310333Y-104338380D02*
X197310333Y-103814571D01*
X197262714Y-103719333D01*
X197167476Y-103671714D01*
X196977000Y-103671714D01*
X196881761Y-103719333D01*
X197310333Y-104290761D02*
X197215095Y-104338380D01*
X196977000Y-104338380D01*
X196881761Y-104290761D01*
X196834142Y-104195523D01*
X196834142Y-104100285D01*
X196881761Y-104005047D01*
X196977000Y-103957428D01*
X197215095Y-103957428D01*
X197310333Y-103909809D01*
X197786523Y-103671714D02*
X197786523Y-104338380D01*
X197786523Y-103766952D02*
X197834142Y-103719333D01*
X197929380Y-103671714D01*
X198072238Y-103671714D01*
X198167476Y-103719333D01*
X198215095Y-103814571D01*
X198215095Y-104338380D01*
X199215095Y-104338380D02*
X198643666Y-104338380D01*
X198929380Y-104338380D02*
X198929380Y-103338380D01*
X198834142Y-103481238D01*
X198738904Y-103576476D01*
X198643666Y-103624095D01*
%TO.C,R2*%
X157170380Y-51768666D02*
X156694190Y-52102000D01*
X157170380Y-52340095D02*
X156170380Y-52340095D01*
X156170380Y-51959142D01*
X156218000Y-51863904D01*
X156265619Y-51816285D01*
X156360857Y-51768666D01*
X156503714Y-51768666D01*
X156598952Y-51816285D01*
X156646571Y-51863904D01*
X156694190Y-51959142D01*
X156694190Y-52340095D01*
X156265619Y-51387714D02*
X156218000Y-51340095D01*
X156170380Y-51244857D01*
X156170380Y-51006761D01*
X156218000Y-50911523D01*
X156265619Y-50863904D01*
X156360857Y-50816285D01*
X156456095Y-50816285D01*
X156598952Y-50863904D01*
X157170380Y-51435333D01*
X157170380Y-50816285D01*
%TO.C,H2*%
X196342095Y-63073380D02*
X196342095Y-62073380D01*
X196342095Y-62549571D02*
X196913523Y-62549571D01*
X196913523Y-63073380D02*
X196913523Y-62073380D01*
X197342095Y-62168619D02*
X197389714Y-62121000D01*
X197484952Y-62073380D01*
X197723047Y-62073380D01*
X197818285Y-62121000D01*
X197865904Y-62168619D01*
X197913523Y-62263857D01*
X197913523Y-62359095D01*
X197865904Y-62501952D01*
X197294476Y-63073380D01*
X197913523Y-63073380D01*
%TO.C,U3*%
X133123380Y-56520904D02*
X133932904Y-56520904D01*
X134028142Y-56473285D01*
X134075761Y-56425666D01*
X134123380Y-56330428D01*
X134123380Y-56139952D01*
X134075761Y-56044714D01*
X134028142Y-55997095D01*
X133932904Y-55949476D01*
X133123380Y-55949476D01*
X133123380Y-55568523D02*
X133123380Y-54949476D01*
X133504333Y-55282809D01*
X133504333Y-55139952D01*
X133551952Y-55044714D01*
X133599571Y-54997095D01*
X133694809Y-54949476D01*
X133932904Y-54949476D01*
X134028142Y-54997095D01*
X134075761Y-55044714D01*
X134123380Y-55139952D01*
X134123380Y-55425666D01*
X134075761Y-55520904D01*
X134028142Y-55568523D01*
%TO.C,U_wpump1*%
X184786380Y-91029476D02*
X185595904Y-91029476D01*
X185691142Y-90981857D01*
X185738761Y-90934238D01*
X185786380Y-90839000D01*
X185786380Y-90648523D01*
X185738761Y-90553285D01*
X185691142Y-90505666D01*
X185595904Y-90458047D01*
X184786380Y-90458047D01*
X185881619Y-90219952D02*
X185881619Y-89458047D01*
X185119714Y-89315190D02*
X185786380Y-89124714D01*
X185310190Y-88934238D01*
X185786380Y-88743761D01*
X185119714Y-88553285D01*
X185119714Y-88172333D02*
X186119714Y-88172333D01*
X185167333Y-88172333D02*
X185119714Y-88077095D01*
X185119714Y-87886619D01*
X185167333Y-87791380D01*
X185214952Y-87743761D01*
X185310190Y-87696142D01*
X185595904Y-87696142D01*
X185691142Y-87743761D01*
X185738761Y-87791380D01*
X185786380Y-87886619D01*
X185786380Y-88077095D01*
X185738761Y-88172333D01*
X185119714Y-86839000D02*
X185786380Y-86839000D01*
X185119714Y-87267571D02*
X185643523Y-87267571D01*
X185738761Y-87219952D01*
X185786380Y-87124714D01*
X185786380Y-86981857D01*
X185738761Y-86886619D01*
X185691142Y-86839000D01*
X185786380Y-86362809D02*
X185119714Y-86362809D01*
X185214952Y-86362809D02*
X185167333Y-86315190D01*
X185119714Y-86219952D01*
X185119714Y-86077095D01*
X185167333Y-85981857D01*
X185262571Y-85934238D01*
X185786380Y-85934238D01*
X185262571Y-85934238D02*
X185167333Y-85886619D01*
X185119714Y-85791380D01*
X185119714Y-85648523D01*
X185167333Y-85553285D01*
X185262571Y-85505666D01*
X185786380Y-85505666D01*
X185119714Y-85029476D02*
X186119714Y-85029476D01*
X185167333Y-85029476D02*
X185119714Y-84934238D01*
X185119714Y-84743761D01*
X185167333Y-84648523D01*
X185214952Y-84600904D01*
X185310190Y-84553285D01*
X185595904Y-84553285D01*
X185691142Y-84600904D01*
X185738761Y-84648523D01*
X185786380Y-84743761D01*
X185786380Y-84934238D01*
X185738761Y-85029476D01*
X185786380Y-83600904D02*
X185786380Y-84172333D01*
X185786380Y-83886619D02*
X184786380Y-83886619D01*
X184929238Y-83981857D01*
X185024476Y-84077095D01*
X185072095Y-84172333D01*
%TO.C,U1*%
X148448095Y-66097380D02*
X148448095Y-66906904D01*
X148495714Y-67002142D01*
X148543333Y-67049761D01*
X148638571Y-67097380D01*
X148829047Y-67097380D01*
X148924285Y-67049761D01*
X148971904Y-67002142D01*
X149019523Y-66906904D01*
X149019523Y-66097380D01*
X150019523Y-67097380D02*
X149448095Y-67097380D01*
X149733809Y-67097380D02*
X149733809Y-66097380D01*
X149638571Y-66240238D01*
X149543333Y-66335476D01*
X149448095Y-66383095D01*
%TO.C,OUT2*%
X132723809Y-103211380D02*
X132914285Y-103211380D01*
X133009523Y-103259000D01*
X133104761Y-103354238D01*
X133152380Y-103544714D01*
X133152380Y-103878047D01*
X133104761Y-104068523D01*
X133009523Y-104163761D01*
X132914285Y-104211380D01*
X132723809Y-104211380D01*
X132628571Y-104163761D01*
X132533333Y-104068523D01*
X132485714Y-103878047D01*
X132485714Y-103544714D01*
X132533333Y-103354238D01*
X132628571Y-103259000D01*
X132723809Y-103211380D01*
X133580952Y-103211380D02*
X133580952Y-104020904D01*
X133628571Y-104116142D01*
X133676190Y-104163761D01*
X133771428Y-104211380D01*
X133961904Y-104211380D01*
X134057142Y-104163761D01*
X134104761Y-104116142D01*
X134152380Y-104020904D01*
X134152380Y-103211380D01*
X134485714Y-103211380D02*
X135057142Y-103211380D01*
X134771428Y-104211380D02*
X134771428Y-103211380D01*
X135342857Y-103306619D02*
X135390476Y-103259000D01*
X135485714Y-103211380D01*
X135723809Y-103211380D01*
X135819047Y-103259000D01*
X135866666Y-103306619D01*
X135914285Y-103401857D01*
X135914285Y-103497095D01*
X135866666Y-103639952D01*
X135295238Y-104211380D01*
X135914285Y-104211380D01*
%TO.C,R6*%
X156593333Y-70132380D02*
X156260000Y-69656190D01*
X156021904Y-70132380D02*
X156021904Y-69132380D01*
X156402857Y-69132380D01*
X156498095Y-69180000D01*
X156545714Y-69227619D01*
X156593333Y-69322857D01*
X156593333Y-69465714D01*
X156545714Y-69560952D01*
X156498095Y-69608571D01*
X156402857Y-69656190D01*
X156021904Y-69656190D01*
X157450476Y-69132380D02*
X157260000Y-69132380D01*
X157164761Y-69180000D01*
X157117142Y-69227619D01*
X157021904Y-69370476D01*
X156974285Y-69560952D01*
X156974285Y-69941904D01*
X157021904Y-70037142D01*
X157069523Y-70084761D01*
X157164761Y-70132380D01*
X157355238Y-70132380D01*
X157450476Y-70084761D01*
X157498095Y-70037142D01*
X157545714Y-69941904D01*
X157545714Y-69703809D01*
X157498095Y-69608571D01*
X157450476Y-69560952D01*
X157355238Y-69513333D01*
X157164761Y-69513333D01*
X157069523Y-69560952D01*
X157021904Y-69608571D01*
X156974285Y-69703809D01*
%TO.C,Q2*%
X132904761Y-94002619D02*
X132809523Y-93955000D01*
X132714285Y-93859761D01*
X132571428Y-93716904D01*
X132476190Y-93669285D01*
X132380952Y-93669285D01*
X132428571Y-93907380D02*
X132333333Y-93859761D01*
X132238095Y-93764523D01*
X132190476Y-93574047D01*
X132190476Y-93240714D01*
X132238095Y-93050238D01*
X132333333Y-92955000D01*
X132428571Y-92907380D01*
X132619047Y-92907380D01*
X132714285Y-92955000D01*
X132809523Y-93050238D01*
X132857142Y-93240714D01*
X132857142Y-93574047D01*
X132809523Y-93764523D01*
X132714285Y-93859761D01*
X132619047Y-93907380D01*
X132428571Y-93907380D01*
X133238095Y-93002619D02*
X133285714Y-92955000D01*
X133380952Y-92907380D01*
X133619047Y-92907380D01*
X133714285Y-92955000D01*
X133761904Y-93002619D01*
X133809523Y-93097857D01*
X133809523Y-93193095D01*
X133761904Y-93335952D01*
X133190476Y-93907380D01*
X133809523Y-93907380D01*
%TO.C,R1*%
X151836380Y-51528666D02*
X151360190Y-51862000D01*
X151836380Y-52100095D02*
X150836380Y-52100095D01*
X150836380Y-51719142D01*
X150884000Y-51623904D01*
X150931619Y-51576285D01*
X151026857Y-51528666D01*
X151169714Y-51528666D01*
X151264952Y-51576285D01*
X151312571Y-51623904D01*
X151360190Y-51719142D01*
X151360190Y-52100095D01*
X151836380Y-50576285D02*
X151836380Y-51147714D01*
X151836380Y-50862000D02*
X150836380Y-50862000D01*
X150979238Y-50957238D01*
X151074476Y-51052476D01*
X151122095Y-51147714D01*
%TO.C,H1*%
X151765095Y-105999380D02*
X151765095Y-104999380D01*
X151765095Y-105475571D02*
X152336523Y-105475571D01*
X152336523Y-105999380D02*
X152336523Y-104999380D01*
X153336523Y-105999380D02*
X152765095Y-105999380D01*
X153050809Y-105999380D02*
X153050809Y-104999380D01*
X152955571Y-105142238D01*
X152860333Y-105237476D01*
X152765095Y-105285095D01*
%TO.C,U_fan1*%
X199235380Y-89799333D02*
X200044904Y-89799333D01*
X200140142Y-89751714D01*
X200187761Y-89704095D01*
X200235380Y-89608857D01*
X200235380Y-89418380D01*
X200187761Y-89323142D01*
X200140142Y-89275523D01*
X200044904Y-89227904D01*
X199235380Y-89227904D01*
X200330619Y-88989809D02*
X200330619Y-88227904D01*
X199568714Y-88132666D02*
X199568714Y-87751714D01*
X200235380Y-87989809D02*
X199378238Y-87989809D01*
X199283000Y-87942190D01*
X199235380Y-87846952D01*
X199235380Y-87751714D01*
X200235380Y-86989809D02*
X199711571Y-86989809D01*
X199616333Y-87037428D01*
X199568714Y-87132666D01*
X199568714Y-87323142D01*
X199616333Y-87418380D01*
X200187761Y-86989809D02*
X200235380Y-87085047D01*
X200235380Y-87323142D01*
X200187761Y-87418380D01*
X200092523Y-87466000D01*
X199997285Y-87466000D01*
X199902047Y-87418380D01*
X199854428Y-87323142D01*
X199854428Y-87085047D01*
X199806809Y-86989809D01*
X199568714Y-86513619D02*
X200235380Y-86513619D01*
X199663952Y-86513619D02*
X199616333Y-86466000D01*
X199568714Y-86370761D01*
X199568714Y-86227904D01*
X199616333Y-86132666D01*
X199711571Y-86085047D01*
X200235380Y-86085047D01*
X200235380Y-85085047D02*
X200235380Y-85656476D01*
X200235380Y-85370761D02*
X199235380Y-85370761D01*
X199378238Y-85466000D01*
X199473476Y-85561238D01*
X199521095Y-85656476D01*
%TO.C,H3*%
X132334095Y-63073380D02*
X132334095Y-62073380D01*
X132334095Y-62549571D02*
X132905523Y-62549571D01*
X132905523Y-63073380D02*
X132905523Y-62073380D01*
X133286476Y-62073380D02*
X133905523Y-62073380D01*
X133572190Y-62454333D01*
X133715047Y-62454333D01*
X133810285Y-62501952D01*
X133857904Y-62549571D01*
X133905523Y-62644809D01*
X133905523Y-62882904D01*
X133857904Y-62978142D01*
X133810285Y-63025761D01*
X133715047Y-63073380D01*
X133429333Y-63073380D01*
X133334095Y-63025761D01*
X133286476Y-62978142D01*
%TO.C,R9*%
X161600380Y-51805666D02*
X161124190Y-52139000D01*
X161600380Y-52377095D02*
X160600380Y-52377095D01*
X160600380Y-51996142D01*
X160648000Y-51900904D01*
X160695619Y-51853285D01*
X160790857Y-51805666D01*
X160933714Y-51805666D01*
X161028952Y-51853285D01*
X161076571Y-51900904D01*
X161124190Y-51996142D01*
X161124190Y-52377095D01*
X161600380Y-51329476D02*
X161600380Y-51139000D01*
X161552761Y-51043761D01*
X161505142Y-50996142D01*
X161362285Y-50900904D01*
X161171809Y-50853285D01*
X160790857Y-50853285D01*
X160695619Y-50900904D01*
X160648000Y-50948523D01*
X160600380Y-51043761D01*
X160600380Y-51234238D01*
X160648000Y-51329476D01*
X160695619Y-51377095D01*
X160790857Y-51424714D01*
X161028952Y-51424714D01*
X161124190Y-51377095D01*
X161171809Y-51329476D01*
X161219428Y-51234238D01*
X161219428Y-51043761D01*
X161171809Y-50948523D01*
X161124190Y-50900904D01*
X161028952Y-50853285D01*
%TO.C,5V1*%
X178683333Y-46282380D02*
X178207142Y-46282380D01*
X178159523Y-46758571D01*
X178207142Y-46710952D01*
X178302380Y-46663333D01*
X178540476Y-46663333D01*
X178635714Y-46710952D01*
X178683333Y-46758571D01*
X178730952Y-46853809D01*
X178730952Y-47091904D01*
X178683333Y-47187142D01*
X178635714Y-47234761D01*
X178540476Y-47282380D01*
X178302380Y-47282380D01*
X178207142Y-47234761D01*
X178159523Y-47187142D01*
X179016666Y-46282380D02*
X179350000Y-47282380D01*
X179683333Y-46282380D01*
X180540476Y-47282380D02*
X179969047Y-47282380D01*
X180254761Y-47282380D02*
X180254761Y-46282380D01*
X180159523Y-46425238D01*
X180064285Y-46520476D01*
X179969047Y-46568095D01*
%TO.C,J_oxygen1*%
X163824285Y-103211380D02*
X163824285Y-103925666D01*
X163776666Y-104068523D01*
X163681428Y-104163761D01*
X163538571Y-104211380D01*
X163443333Y-104211380D01*
X164062380Y-104306619D02*
X164824285Y-104306619D01*
X165205238Y-104211380D02*
X165110000Y-104163761D01*
X165062380Y-104116142D01*
X165014761Y-104020904D01*
X165014761Y-103735190D01*
X165062380Y-103639952D01*
X165110000Y-103592333D01*
X165205238Y-103544714D01*
X165348095Y-103544714D01*
X165443333Y-103592333D01*
X165490952Y-103639952D01*
X165538571Y-103735190D01*
X165538571Y-104020904D01*
X165490952Y-104116142D01*
X165443333Y-104163761D01*
X165348095Y-104211380D01*
X165205238Y-104211380D01*
X165871904Y-104211380D02*
X166395714Y-103544714D01*
X165871904Y-103544714D02*
X166395714Y-104211380D01*
X166681428Y-103544714D02*
X166919523Y-104211380D01*
X167157619Y-103544714D02*
X166919523Y-104211380D01*
X166824285Y-104449476D01*
X166776666Y-104497095D01*
X166681428Y-104544714D01*
X167967142Y-103544714D02*
X167967142Y-104354238D01*
X167919523Y-104449476D01*
X167871904Y-104497095D01*
X167776666Y-104544714D01*
X167633809Y-104544714D01*
X167538571Y-104497095D01*
X167967142Y-104163761D02*
X167871904Y-104211380D01*
X167681428Y-104211380D01*
X167586190Y-104163761D01*
X167538571Y-104116142D01*
X167490952Y-104020904D01*
X167490952Y-103735190D01*
X167538571Y-103639952D01*
X167586190Y-103592333D01*
X167681428Y-103544714D01*
X167871904Y-103544714D01*
X167967142Y-103592333D01*
X168824285Y-104163761D02*
X168729047Y-104211380D01*
X168538571Y-104211380D01*
X168443333Y-104163761D01*
X168395714Y-104068523D01*
X168395714Y-103687571D01*
X168443333Y-103592333D01*
X168538571Y-103544714D01*
X168729047Y-103544714D01*
X168824285Y-103592333D01*
X168871904Y-103687571D01*
X168871904Y-103782809D01*
X168395714Y-103878047D01*
X169300476Y-103544714D02*
X169300476Y-104211380D01*
X169300476Y-103639952D02*
X169348095Y-103592333D01*
X169443333Y-103544714D01*
X169586190Y-103544714D01*
X169681428Y-103592333D01*
X169729047Y-103687571D01*
X169729047Y-104211380D01*
X170729047Y-104211380D02*
X170157619Y-104211380D01*
X170443333Y-104211380D02*
X170443333Y-103211380D01*
X170348095Y-103354238D01*
X170252857Y-103449476D01*
X170157619Y-103497095D01*
%TO.C,R8*%
X132772380Y-90471666D02*
X132296190Y-90805000D01*
X132772380Y-91043095D02*
X131772380Y-91043095D01*
X131772380Y-90662142D01*
X131820000Y-90566904D01*
X131867619Y-90519285D01*
X131962857Y-90471666D01*
X132105714Y-90471666D01*
X132200952Y-90519285D01*
X132248571Y-90566904D01*
X132296190Y-90662142D01*
X132296190Y-91043095D01*
X132200952Y-89900238D02*
X132153333Y-89995476D01*
X132105714Y-90043095D01*
X132010476Y-90090714D01*
X131962857Y-90090714D01*
X131867619Y-90043095D01*
X131820000Y-89995476D01*
X131772380Y-89900238D01*
X131772380Y-89709761D01*
X131820000Y-89614523D01*
X131867619Y-89566904D01*
X131962857Y-89519285D01*
X132010476Y-89519285D01*
X132105714Y-89566904D01*
X132153333Y-89614523D01*
X132200952Y-89709761D01*
X132200952Y-89900238D01*
X132248571Y-89995476D01*
X132296190Y-90043095D01*
X132391428Y-90090714D01*
X132581904Y-90090714D01*
X132677142Y-90043095D01*
X132724761Y-89995476D01*
X132772380Y-89900238D01*
X132772380Y-89709761D01*
X132724761Y-89614523D01*
X132677142Y-89566904D01*
X132581904Y-89519285D01*
X132391428Y-89519285D01*
X132296190Y-89566904D01*
X132248571Y-89614523D01*
X132200952Y-89709761D01*
%TO.C,U_oxygen1*%
X169319880Y-91472285D02*
X170129404Y-91472285D01*
X170224642Y-91424666D01*
X170272261Y-91377047D01*
X170319880Y-91281809D01*
X170319880Y-91091333D01*
X170272261Y-90996095D01*
X170224642Y-90948476D01*
X170129404Y-90900857D01*
X169319880Y-90900857D01*
X170415119Y-90662761D02*
X170415119Y-89900857D01*
X170319880Y-89519904D02*
X170272261Y-89615142D01*
X170224642Y-89662761D01*
X170129404Y-89710380D01*
X169843690Y-89710380D01*
X169748452Y-89662761D01*
X169700833Y-89615142D01*
X169653214Y-89519904D01*
X169653214Y-89377047D01*
X169700833Y-89281809D01*
X169748452Y-89234190D01*
X169843690Y-89186571D01*
X170129404Y-89186571D01*
X170224642Y-89234190D01*
X170272261Y-89281809D01*
X170319880Y-89377047D01*
X170319880Y-89519904D01*
X170319880Y-88853238D02*
X169653214Y-88329428D01*
X169653214Y-88853238D02*
X170319880Y-88329428D01*
X169653214Y-88043714D02*
X170319880Y-87805619D01*
X169653214Y-87567523D02*
X170319880Y-87805619D01*
X170557976Y-87900857D01*
X170605595Y-87948476D01*
X170653214Y-88043714D01*
X169653214Y-86758000D02*
X170462738Y-86758000D01*
X170557976Y-86805619D01*
X170605595Y-86853238D01*
X170653214Y-86948476D01*
X170653214Y-87091333D01*
X170605595Y-87186571D01*
X170272261Y-86758000D02*
X170319880Y-86853238D01*
X170319880Y-87043714D01*
X170272261Y-87138952D01*
X170224642Y-87186571D01*
X170129404Y-87234190D01*
X169843690Y-87234190D01*
X169748452Y-87186571D01*
X169700833Y-87138952D01*
X169653214Y-87043714D01*
X169653214Y-86853238D01*
X169700833Y-86758000D01*
X170272261Y-85900857D02*
X170319880Y-85996095D01*
X170319880Y-86186571D01*
X170272261Y-86281809D01*
X170177023Y-86329428D01*
X169796071Y-86329428D01*
X169700833Y-86281809D01*
X169653214Y-86186571D01*
X169653214Y-85996095D01*
X169700833Y-85900857D01*
X169796071Y-85853238D01*
X169891309Y-85853238D01*
X169986547Y-86329428D01*
X169653214Y-85424666D02*
X170319880Y-85424666D01*
X169748452Y-85424666D02*
X169700833Y-85377047D01*
X169653214Y-85281809D01*
X169653214Y-85138952D01*
X169700833Y-85043714D01*
X169796071Y-84996095D01*
X170319880Y-84996095D01*
X170319880Y-83996095D02*
X170319880Y-84567523D01*
X170319880Y-84281809D02*
X169319880Y-84281809D01*
X169462738Y-84377047D01*
X169557976Y-84472285D01*
X169605595Y-84567523D01*
%TO.C,R4*%
X134323380Y-46545666D02*
X133847190Y-46879000D01*
X134323380Y-47117095D02*
X133323380Y-47117095D01*
X133323380Y-46736142D01*
X133371000Y-46640904D01*
X133418619Y-46593285D01*
X133513857Y-46545666D01*
X133656714Y-46545666D01*
X133751952Y-46593285D01*
X133799571Y-46640904D01*
X133847190Y-46736142D01*
X133847190Y-47117095D01*
X133656714Y-45688523D02*
X134323380Y-45688523D01*
X133275761Y-45926619D02*
X133990047Y-46164714D01*
X133990047Y-45545666D01*
D11*
%TO.C,J1*%
X138440000Y-41551000D02*
X138440000Y-45571000D01*
X153660000Y-41551000D02*
X138440000Y-41551000D01*
X138440000Y-44071000D02*
X139440000Y-44071000D01*
X138140000Y-45871000D02*
X140640000Y-45871000D01*
X138940000Y-43261000D02*
X138940000Y-42051000D01*
X153160000Y-42051000D02*
X153160000Y-43261000D01*
X138440000Y-43261000D02*
X138940000Y-43261000D01*
X138940000Y-42051000D02*
X153160000Y-42051000D01*
X153660000Y-45571000D02*
X153660000Y-41551000D01*
X152660000Y-44071000D02*
X152660000Y-45571000D01*
X138440000Y-45571000D02*
X153660000Y-45571000D01*
X138140000Y-43371000D02*
X138140000Y-45871000D01*
X153160000Y-43261000D02*
X153660000Y-43261000D01*
X153660000Y-44071000D02*
X152660000Y-44071000D01*
X139440000Y-44071000D02*
X139440000Y-45571000D01*
%TO.C,J_wpump1*%
X187111500Y-113789000D02*
X187611500Y-114039000D01*
X187611500Y-107239000D02*
X187611500Y-102139000D01*
X187611500Y-112089000D02*
X187111500Y-112339000D01*
X187111500Y-106939000D02*
X187611500Y-107239000D01*
X187611500Y-112139000D02*
X187611500Y-112089000D01*
X176761500Y-114739000D02*
X187111500Y-114739000D01*
X187111500Y-114739000D02*
X187111500Y-113789000D01*
X187111500Y-112339000D02*
X187111500Y-106939000D01*
X187611500Y-114039000D02*
X187611500Y-112139000D01*
X187611500Y-102139000D02*
X176761500Y-102139000D01*
X176761500Y-102139000D02*
X176761500Y-114739000D01*
%TO.C,J_fan1*%
X202383000Y-112158000D02*
X202383000Y-112108000D01*
X202383000Y-114058000D02*
X202383000Y-112158000D01*
X191533000Y-102158000D02*
X191533000Y-114758000D01*
X201883000Y-112358000D02*
X201883000Y-106958000D01*
X201883000Y-106958000D02*
X202383000Y-107258000D01*
X202383000Y-102158000D02*
X191533000Y-102158000D01*
X191533000Y-114758000D02*
X201883000Y-114758000D01*
X202383000Y-112108000D02*
X201883000Y-112358000D01*
X201883000Y-114758000D02*
X201883000Y-113808000D01*
X202383000Y-107258000D02*
X202383000Y-102158000D01*
X201883000Y-113808000D02*
X202383000Y-114058000D01*
%TO.C,R2*%
X156718000Y-53182000D02*
X156718000Y-50022000D01*
X157638000Y-54102000D02*
G75*
G03*
X157638000Y-54102000I-920000J0D01*
G01*
%TO.C,U3*%
X137526000Y-53119000D02*
X129786000Y-53119000D01*
X129786000Y-53119000D02*
X129786000Y-58419000D01*
X137526000Y-58419000D02*
X137526000Y-56769000D01*
X129786000Y-58419000D02*
X137526000Y-58419000D01*
X137526000Y-54769000D02*
X137526000Y-53119000D01*
X137526000Y-54769000D02*
G75*
G03*
X137526000Y-56769000I0J-1000000D01*
G01*
%TO.C,U_wpump1*%
X179334000Y-100339000D02*
X179334000Y-72139000D01*
X184534000Y-72139000D02*
X184134000Y-72139000D01*
X184734000Y-78089000D02*
X184734000Y-76089000D01*
X184534000Y-100339000D02*
X179334000Y-100339000D01*
X184534000Y-72139000D02*
X184534000Y-100339000D01*
X179334000Y-72139000D02*
X182134000Y-72139000D01*
%TO.C,U1*%
X148210000Y-67645000D02*
G75*
G03*
X150210000Y-67645000I1000000J0D01*
G01*
X151860000Y-67645000D02*
X150210000Y-67645000D01*
X148210000Y-67645000D02*
X146560000Y-67645000D01*
X146560000Y-85545000D02*
X151860000Y-85545000D01*
X146560000Y-67645000D02*
X146560000Y-85545000D01*
X151860000Y-85545000D02*
X151860000Y-67645000D01*
%TO.C,OUT2*%
X139835000Y-107000000D02*
X139835000Y-101900000D01*
X139335000Y-113550000D02*
X139835000Y-113800000D01*
X139335000Y-112100000D02*
X139335000Y-106700000D01*
X139335000Y-114500000D02*
X139335000Y-113550000D01*
X139835000Y-113800000D02*
X139835000Y-111900000D01*
X128985000Y-114500000D02*
X139335000Y-114500000D01*
X128985000Y-101900000D02*
X128985000Y-114500000D01*
X139835000Y-111900000D02*
X139835000Y-111850000D01*
X139835000Y-111850000D02*
X139335000Y-112100000D01*
X139835000Y-101900000D02*
X128985000Y-101900000D01*
X139335000Y-106700000D02*
X139835000Y-107000000D01*
%TO.C,R6*%
X156410000Y-71600000D02*
G75*
G03*
X156410000Y-71600000I-920000J0D01*
G01*
X156410000Y-71600000D02*
X157030000Y-71600000D01*
%TO.C,Q2*%
X127880000Y-92730000D02*
X138120000Y-92730000D01*
X134851000Y-92730000D02*
X134851000Y-94240000D01*
X127880000Y-92730000D02*
X127880000Y-97371000D01*
X127880000Y-97371000D02*
X138120000Y-97371000D01*
X127880000Y-94240000D02*
X138120000Y-94240000D01*
X131150000Y-92730000D02*
X131150000Y-94240000D01*
X138120000Y-92730000D02*
X138120000Y-97371000D01*
%TO.C,R1*%
X152304000Y-54052000D02*
G75*
G03*
X152304000Y-54052000I-920000J0D01*
G01*
X151384000Y-53132000D02*
X151384000Y-49972000D01*
%TO.C,U_fan1*%
X198983000Y-72266000D02*
X198583000Y-72266000D01*
X199183000Y-78216000D02*
X199183000Y-76216000D01*
X198983000Y-100466000D02*
X193783000Y-100466000D01*
X198983000Y-72266000D02*
X198983000Y-100466000D01*
X193783000Y-100466000D02*
X193783000Y-72266000D01*
X193783000Y-72266000D02*
X196583000Y-72266000D01*
%TO.C,R9*%
X163068000Y-53259000D02*
X163068000Y-50099000D01*
X163988000Y-54179000D02*
G75*
G03*
X163988000Y-54179000I-920000J0D01*
G01*
%TO.C,5V1*%
X185035000Y-53700000D02*
X185035000Y-53650000D01*
X174185000Y-56300000D02*
X184535000Y-56300000D01*
X185035000Y-55600000D02*
X185035000Y-53700000D01*
X184535000Y-53900000D02*
X184535000Y-48500000D01*
X184535000Y-56300000D02*
X184535000Y-55350000D01*
X184535000Y-55350000D02*
X185035000Y-55600000D01*
X174185000Y-43700000D02*
X174185000Y-56300000D01*
X185035000Y-43700000D02*
X174185000Y-43700000D01*
X185035000Y-53650000D02*
X184535000Y-53900000D01*
X185035000Y-48800000D02*
X185035000Y-43700000D01*
X184535000Y-48500000D02*
X185035000Y-48800000D01*
%TO.C,J_oxygen1*%
X172745000Y-107258000D02*
X172745000Y-102158000D01*
X161895000Y-114758000D02*
X172245000Y-114758000D01*
X161895000Y-102158000D02*
X161895000Y-114758000D01*
X172745000Y-102158000D02*
X161895000Y-102158000D01*
X172245000Y-114758000D02*
X172245000Y-113808000D01*
X172745000Y-114058000D02*
X172745000Y-112158000D01*
X172245000Y-112358000D02*
X172245000Y-106958000D01*
X172745000Y-112158000D02*
X172745000Y-112108000D01*
X172745000Y-112108000D02*
X172245000Y-112358000D01*
X172245000Y-106958000D02*
X172745000Y-107258000D01*
X172245000Y-113808000D02*
X172745000Y-114058000D01*
%TO.C,R8*%
X130400000Y-89955000D02*
X130400000Y-90575000D01*
X131320000Y-89035000D02*
G75*
G03*
X131320000Y-89035000I-920000J0D01*
G01*
%TO.C,U_oxygen1*%
X169267500Y-78508000D02*
X169267500Y-76508000D01*
X169067500Y-72558000D02*
X169067500Y-100758000D01*
X163867500Y-72558000D02*
X166667500Y-72558000D01*
X169067500Y-72558000D02*
X168667500Y-72558000D01*
X163867500Y-100758000D02*
X163867500Y-72558000D01*
X169067500Y-100758000D02*
X163867500Y-100758000D01*
%TO.C,R4*%
X136271000Y-47279000D02*
X136271000Y-47899000D01*
X137191000Y-46359000D02*
G75*
G03*
X137191000Y-46359000I-920000J0D01*
G01*
%TD*%
M02*
