%TF.GenerationSoftware,KiCad,Pcbnew,6.0.11+dfsg-1*%
%TF.CreationDate,2023-03-13T21:47:27-05:00*%
%TF.ProjectId,power_control,706f7765-725f-4636-9f6e-74726f6c2e6b,rev?*%
%TF.SameCoordinates,Original*%
%TF.FileFunction,Copper,L2,Bot*%
%TF.FilePolarity,Positive*%
%FSLAX46Y46*%
G04 Gerber Fmt 4.6, Leading zero omitted, Abs format (unit mm)*
G04 Created by KiCad (PCBNEW 6.0.11+dfsg-1) date 2023-03-13 21:47:27*
%MOMM*%
%LPD*%
G01*
G04 APERTURE LIST*
G04 Aperture macros list*
%AMRoundRect*
0 Rectangle with rounded corners*
0 $1 Rounding radius*
0 $2 $3 $4 $5 $6 $7 $8 $9 X,Y pos of 4 corners*
0 Add a 4 corners polygon primitive as box body*
4,1,4,$2,$3,$4,$5,$6,$7,$8,$9,$2,$3,0*
0 Add four circle primitives for the rounded corners*
1,1,$1+$1,$2,$3*
1,1,$1+$1,$4,$5*
1,1,$1+$1,$6,$7*
1,1,$1+$1,$8,$9*
0 Add four rect primitives between the rounded corners*
20,1,$1+$1,$2,$3,$4,$5,0*
20,1,$1+$1,$4,$5,$6,$7,0*
20,1,$1+$1,$6,$7,$8,$9,0*
20,1,$1+$1,$8,$9,$2,$3,0*%
G04 Aperture macros list end*
%TA.AperFunction,ComponentPad*%
%ADD10C,2.400000*%
%TD*%
%TA.AperFunction,ComponentPad*%
%ADD11RoundRect,0.249600X-0.950400X0.950400X-0.950400X-0.950400X0.950400X-0.950400X0.950400X0.950400X0*%
%TD*%
%TA.AperFunction,ComponentPad*%
%ADD12C,1.750000*%
%TD*%
%TA.AperFunction,ComponentPad*%
%ADD13O,1.750000X1.750000*%
%TD*%
%TA.AperFunction,ComponentPad*%
%ADD14R,1.980000X3.960000*%
%TD*%
%TA.AperFunction,ComponentPad*%
%ADD15O,1.980000X3.960000*%
%TD*%
%TA.AperFunction,ComponentPad*%
%ADD16RoundRect,0.250000X-0.600000X-1.000000X0.600000X-1.000000X0.600000X1.000000X-0.600000X1.000000X0*%
%TD*%
%TA.AperFunction,ComponentPad*%
%ADD17O,1.700000X2.500000*%
%TD*%
%TA.AperFunction,ComponentPad*%
%ADD18R,1.905000X3.000000*%
%TD*%
%TA.AperFunction,ComponentPad*%
%ADD19O,1.905000X3.000000*%
%TD*%
%TA.AperFunction,ComponentPad*%
%ADD20O,1.600000X1.600000*%
%TD*%
%TA.AperFunction,ComponentPad*%
%ADD21O,1.600000X3.000000*%
%TD*%
%TA.AperFunction,ComponentPad*%
%ADD22O,1.800000X3.000000*%
%TD*%
%TA.AperFunction,ComponentPad*%
%ADD23R,1.800000X3.000000*%
%TD*%
%TA.AperFunction,ComponentPad*%
%ADD24R,2.500000X3.960000*%
%TD*%
%TA.AperFunction,ComponentPad*%
%ADD25O,2.500000X3.960000*%
%TD*%
%TA.AperFunction,ComponentPad*%
%ADD26C,5.600000*%
%TD*%
%TA.AperFunction,ComponentPad*%
%ADD27O,1.400000X1.400000*%
%TD*%
%TA.AperFunction,ComponentPad*%
%ADD28C,3.500000*%
%TD*%
%TA.AperFunction,ComponentPad*%
%ADD29RoundRect,0.312000X-1.188000X1.188000X-1.188000X-1.188000X1.188000X-1.188000X1.188000X1.188000X0*%
%TD*%
%TA.AperFunction,ComponentPad*%
%ADD30C,3.000000*%
%TD*%
%TA.AperFunction,ComponentPad*%
%ADD31R,1.600000X1.600000*%
%TD*%
%TA.AperFunction,ComponentPad*%
%ADD32O,2.500000X1.600000*%
%TD*%
%TA.AperFunction,ComponentPad*%
%ADD33C,1.400000*%
%TD*%
%TA.AperFunction,ComponentPad*%
%ADD34C,1.800000*%
%TD*%
%TA.AperFunction,ComponentPad*%
%ADD35O,1.800000X1.800000*%
%TD*%
%TA.AperFunction,ComponentPad*%
%ADD36R,3.000000X3.960000*%
%TD*%
%TA.AperFunction,ComponentPad*%
%ADD37O,3.000000X4.000000*%
%TD*%
%TA.AperFunction,Conductor*%
%ADD38C,2.000000*%
%TD*%
%TA.AperFunction,Conductor*%
%ADD39C,1.330000*%
%TD*%
%TA.AperFunction,Conductor*%
%ADD40C,1.850000*%
%TD*%
G04 APERTURE END LIST*
D10*
%TO.P,U_fan1,11*%
%TO.N,Net-(J_fan1-Pad1)*%
X197583000Y-93466000D03*
%TO.P,U_fan1,14*%
%TO.N,Net-(J_fan1-Pad2)*%
X197583000Y-98466000D03*
D11*
%TO.P,U_fan1,A1*%
%TO.N,Net-(R9-Pad1)*%
X197583000Y-77216000D03*
D10*
%TO.P,U_fan1,A2*%
%TO.N,GND5V*%
X197583000Y-73466000D03*
%TD*%
D12*
%TO.P,R9,1*%
%TO.N,Net-(R9-Pad1)*%
X163068000Y-54179000D03*
D13*
%TO.P,R9,2*%
%TO.N,D34*%
X163068000Y-49099000D03*
%TD*%
D14*
%TO.P,J_fan1,1,Pin_1*%
%TO.N,Net-(J_fan1-Pad1)*%
X194183000Y-108458000D03*
D15*
%TO.P,J_fan1,2,Pin_2*%
%TO.N,Net-(J_fan1-Pad2)*%
X199183000Y-108458000D03*
%TD*%
D16*
%TO.P,J1,1,Pin_1*%
%TO.N,D25*%
X139673000Y-42753000D03*
D17*
%TO.P,J1,2,Pin_2*%
%TO.N,D26*%
X142173000Y-42753000D03*
%TO.P,J1,3,Pin_3*%
%TO.N,D32*%
X144673000Y-42753000D03*
%TO.P,J1,4,Pin_4*%
%TO.N,D33*%
X147173000Y-42753000D03*
%TO.P,J1,5,Pin_5*%
%TO.N,D34*%
X149673000Y-42753000D03*
%TO.P,J1,6,Pin_6*%
%TO.N,GND5V*%
X152173000Y-42753000D03*
%TD*%
D18*
%TO.P,Q1,1,B*%
%TO.N,Net-(Q1-Pad1)*%
X109660000Y-96145000D03*
D19*
%TO.P,Q1,2,C*%
%TO.N,12v*%
X112200000Y-96145000D03*
%TO.P,Q1,3,E*%
%TO.N,Net-(OUT1-Pad1)*%
X114740000Y-96145000D03*
%TD*%
D20*
%TO.P,U2,6*%
%TO.N,unconnected-(U2-Pad6)*%
X145925000Y-61220000D03*
D21*
%TO.P,U2,5*%
%TO.N,Net-(R5-Pad1)*%
X143385000Y-61220000D03*
D22*
%TO.P,U2,4*%
%TO.N,GND5V*%
X140845000Y-61220000D03*
D20*
%TO.P,U2,3,NC*%
%TO.N,unconnected-(U2-Pad3)*%
X140845000Y-53600000D03*
D22*
%TO.P,U2,2*%
%TO.N,GND5V*%
X143385000Y-53600000D03*
D23*
%TO.P,U2,1*%
%TO.N,Net-(R3-Pad2)*%
X145925000Y-53600000D03*
%TD*%
D24*
%TO.P,J_wpump1,1,Pin_1*%
%TO.N,Net-(J_wpump1-Pad1)*%
X179411500Y-108439000D03*
D25*
%TO.P,J_wpump1,2,Pin_2*%
%TO.N,Net-(J_wpump1-Pad2)*%
X184411500Y-108439000D03*
%TD*%
D12*
%TO.P,R2,1*%
%TO.N,Net-(R2-Pad1)*%
X156718000Y-54102000D03*
D13*
%TO.P,R2,2*%
%TO.N,D33*%
X156718000Y-49022000D03*
%TD*%
D26*
%TO.P,H2,1*%
%TO.N,N/C*%
X173609000Y-64516000D03*
%TD*%
D20*
%TO.P,U3,6*%
%TO.N,unconnected-(U3-Pad6)*%
X136925000Y-61220000D03*
D22*
%TO.P,U3,5*%
%TO.N,Net-(R6-Pad1)*%
X134385000Y-61220000D03*
%TO.P,U3,4*%
%TO.N,GND5V*%
X131845000Y-61220000D03*
D20*
%TO.P,U3,3,NC*%
%TO.N,unconnected-(U3-Pad3)*%
X131845000Y-53600000D03*
D22*
%TO.P,U3,2*%
%TO.N,GND5V*%
X134385000Y-53600000D03*
D23*
%TO.P,U3,1*%
%TO.N,Net-(R4-Pad2)*%
X136925000Y-53600000D03*
%TD*%
D12*
%TO.P,R3,1*%
%TO.N,D26*%
X146000000Y-47780000D03*
D27*
%TO.P,R3,2*%
%TO.N,Net-(R3-Pad2)*%
X146000000Y-50320000D03*
%TD*%
D28*
%TO.P,U_wpump1,11*%
%TO.N,Net-(J_wpump1-Pad1)*%
X183134000Y-93339000D03*
%TO.P,U_wpump1,14*%
%TO.N,Net-(J_wpump1-Pad2)*%
X183134000Y-98339000D03*
D29*
%TO.P,U_wpump1,A1*%
%TO.N,Net-(R2-Pad1)*%
X183134000Y-77089000D03*
D30*
%TO.P,U_wpump1,A2*%
%TO.N,GND5V*%
X183134000Y-73339000D03*
%TD*%
D31*
%TO.P,U1,1*%
%TO.N,Net-(R5-Pad1)*%
X145400000Y-68975000D03*
D20*
%TO.P,U1,2*%
%TO.N,Net-(R7-Pad1)*%
X145400000Y-71515000D03*
%TO.P,U1,3*%
%TO.N,unconnected-(U1-Pad3)*%
X145400000Y-74055000D03*
%TO.P,U1,4*%
%TO.N,unconnected-(U1-Pad4)*%
X145400000Y-76595000D03*
%TO.P,U1,5*%
%TO.N,unconnected-(U1-Pad5)*%
X145400000Y-79135000D03*
%TO.P,U1,6*%
%TO.N,unconnected-(U1-Pad6)*%
X145400000Y-81675000D03*
D32*
%TO.P,U1,7,VSS*%
%TO.N,GND5V*%
X145400000Y-84215000D03*
D20*
%TO.P,U1,8*%
%TO.N,unconnected-(U1-Pad8)*%
X153020000Y-84215000D03*
%TO.P,U1,9*%
%TO.N,unconnected-(U1-Pad9)*%
X153020000Y-81675000D03*
%TO.P,U1,10*%
%TO.N,unconnected-(U1-Pad10)*%
X153020000Y-79135000D03*
%TO.P,U1,11*%
%TO.N,unconnected-(U1-Pad11)*%
X153020000Y-76595000D03*
%TO.P,U1,12*%
%TO.N,Net-(R8-Pad1)*%
X153020000Y-74055000D03*
%TO.P,U1,13*%
%TO.N,Net-(R6-Pad1)*%
X153020000Y-71515000D03*
%TO.P,U1,14,VDD*%
%TO.N,5v*%
X153020000Y-68975000D03*
%TD*%
D24*
%TO.P,OUT2,1,Pin_1*%
%TO.N,Net-(OUT2-Pad1)*%
X131635000Y-108200000D03*
D25*
%TO.P,OUT2,2,Pin_2*%
%TO.N,GND5V*%
X136635000Y-108200000D03*
%TD*%
D33*
%TO.P,R6,1*%
%TO.N,Net-(R6-Pad1)*%
X155490000Y-71600000D03*
D27*
%TO.P,R6,2*%
%TO.N,5v*%
X158030000Y-71600000D03*
%TD*%
D18*
%TO.P,Q2,1,B*%
%TO.N,Net-(Q2-Pad1)*%
X130460000Y-96000000D03*
D19*
%TO.P,Q2,2,C*%
%TO.N,5v*%
X133000000Y-96000000D03*
%TO.P,Q2,3,E*%
%TO.N,Net-(OUT2-Pad1)*%
X135540000Y-96000000D03*
%TD*%
D12*
%TO.P,R1,1*%
%TO.N,Net-(R1-Pad1)*%
X151384000Y-54052000D03*
D13*
%TO.P,R1,2*%
%TO.N,D32*%
X151384000Y-48972000D03*
%TD*%
D26*
%TO.P,H1,1*%
%TO.N,N/C*%
X125857000Y-46228000D03*
%TD*%
D34*
%TO.P,R7,1*%
%TO.N,Net-(R7-Pad1)*%
X109600000Y-89180000D03*
D35*
%TO.P,R7,2*%
%TO.N,Net-(Q1-Pad1)*%
X109600000Y-91720000D03*
%TD*%
D26*
%TO.P,H3,1*%
%TO.N,N/C*%
X121031000Y-64516000D03*
%TD*%
D14*
%TO.P,5V1,1,Pin_1*%
%TO.N,5v*%
X176835000Y-50000000D03*
D15*
%TO.P,5V1,2,Pin_2*%
%TO.N,GND5V*%
X181835000Y-50000000D03*
%TD*%
D33*
%TO.P,R5,1*%
%TO.N,Net-(R5-Pad1)*%
X142820000Y-69000000D03*
D27*
%TO.P,R5,2*%
%TO.N,5v*%
X140280000Y-69000000D03*
%TD*%
D36*
%TO.P,12V1,1,Pin_1*%
%TO.N,12v*%
X111835000Y-49400000D03*
D37*
%TO.P,12V1,2,Pin_2*%
%TO.N,GND12V*%
X116835000Y-49400000D03*
%TD*%
D24*
%TO.P,J_oxygen1,1,Pin_1*%
%TO.N,Net-(J_oxygen1-Pad1)*%
X164545000Y-108458000D03*
D25*
%TO.P,J_oxygen1,2,Pin_2*%
%TO.N,Net-(J_oxygen1-Pad2)*%
X169545000Y-108458000D03*
%TD*%
D34*
%TO.P,R8,1*%
%TO.N,Net-(R8-Pad1)*%
X130400000Y-89035000D03*
D35*
%TO.P,R8,2*%
%TO.N,Net-(Q2-Pad1)*%
X130400000Y-91575000D03*
%TD*%
D24*
%TO.P,OUT1,1,Pin_1*%
%TO.N,Net-(OUT1-Pad1)*%
X110235000Y-108400000D03*
D25*
%TO.P,OUT1,2,Pin_2*%
%TO.N,GND12V*%
X115235000Y-108400000D03*
%TD*%
D10*
%TO.P,U_oxygen1,11*%
%TO.N,Net-(J_oxygen1-Pad1)*%
X167667500Y-93758000D03*
%TO.P,U_oxygen1,14*%
%TO.N,Net-(J_oxygen1-Pad2)*%
X167667500Y-98758000D03*
D29*
%TO.P,U_oxygen1,A1*%
%TO.N,Net-(R1-Pad1)*%
X167667500Y-77508000D03*
D30*
%TO.P,U_oxygen1,A2*%
%TO.N,GND5V*%
X167667500Y-73758000D03*
%TD*%
D12*
%TO.P,R4,1*%
%TO.N,D25*%
X137000000Y-48000000D03*
D13*
%TO.P,R4,2*%
%TO.N,Net-(R4-Pad2)*%
X137000000Y-50540000D03*
%TD*%
D38*
%TO.N,12v*%
X111835000Y-49400000D02*
X112200000Y-49765000D01*
%TO.N,GND12V*%
X116078000Y-50157000D02*
X116835000Y-49400000D01*
D39*
%TO.N,D32*%
X151384000Y-48972000D02*
X148386000Y-45974000D01*
X148386000Y-45974000D02*
X147193000Y-45974000D01*
X147193000Y-45974000D02*
X144673000Y-43454000D01*
X144673000Y-43454000D02*
X144673000Y-42753000D01*
%TO.N,D34*%
X163068000Y-49099000D02*
X163068000Y-47625000D01*
X163068000Y-47625000D02*
X161290000Y-45847000D01*
X161290000Y-45847000D02*
X151892000Y-45847000D01*
X151892000Y-45847000D02*
X149673000Y-43628000D01*
X149673000Y-43628000D02*
X149673000Y-42753000D01*
D38*
%TO.N,GND5V*%
X145400000Y-84215000D02*
X147687000Y-84215000D01*
X147687000Y-84215000D02*
X149098000Y-82804000D01*
X140716000Y-63373000D02*
X140845000Y-63244000D01*
X149098000Y-82804000D02*
X149098000Y-67818000D01*
X149098000Y-67818000D02*
X146812000Y-65532000D01*
X146812000Y-65532000D02*
X142875000Y-65532000D01*
X142875000Y-65532000D02*
X140716000Y-63373000D01*
X140845000Y-63244000D02*
X140845000Y-61220000D01*
X197583000Y-73466000D02*
X183261000Y-73466000D01*
X183261000Y-73466000D02*
X183134000Y-73339000D01*
%TO.N,Net-(J_fan1-Pad1)*%
X195430000Y-93466000D02*
X194027000Y-94869000D01*
X197583000Y-93466000D02*
X195430000Y-93466000D01*
X194027000Y-94869000D02*
X194183000Y-95025000D01*
X194183000Y-95025000D02*
X194183000Y-108458000D01*
%TO.N,Net-(J_fan1-Pad2)*%
X199183000Y-108458000D02*
X199183000Y-100066000D01*
X199183000Y-100066000D02*
X197583000Y-98466000D01*
D39*
%TO.N,GND5V*%
X134385000Y-53600000D02*
X134385000Y-42018000D01*
X134385000Y-42018000D02*
X135890000Y-40513000D01*
X135890000Y-40513000D02*
X151130000Y-40513000D01*
X151130000Y-40513000D02*
X152173000Y-41556000D01*
X152173000Y-41556000D02*
X152173000Y-42753000D01*
D38*
%TO.N,GND12V*%
X120269000Y-90424000D02*
X120269000Y-103366000D01*
X120269000Y-103366000D02*
X115235000Y-108400000D01*
X116078000Y-50157000D02*
X116078000Y-86233000D01*
X116078000Y-86233000D02*
X120269000Y-90424000D01*
%TO.N,GND5V*%
X178876000Y-73339000D02*
X178876000Y-73981000D01*
X178876000Y-73339000D02*
X168086500Y-73339000D01*
X168086500Y-73339000D02*
X167667500Y-73758000D01*
X145400000Y-86218000D02*
X148463000Y-89281000D01*
D39*
X143385000Y-56894000D02*
X143385000Y-53600000D01*
D38*
X183134000Y-73339000D02*
X178876000Y-73339000D01*
X163576000Y-89281000D02*
X156972000Y-89281000D01*
X181835000Y-72040000D02*
X183134000Y-73339000D01*
D39*
X134385000Y-55988000D02*
X131845000Y-58528000D01*
D38*
X145400000Y-84215000D02*
X145400000Y-86218000D01*
D39*
X134385000Y-53600000D02*
X134385000Y-55988000D01*
X131845000Y-58528000D02*
X131845000Y-61220000D01*
X140845000Y-61220000D02*
X140845000Y-59434000D01*
D38*
X136635000Y-108200000D02*
X138053000Y-108200000D01*
D40*
X167467500Y-73558000D02*
X167667500Y-73758000D01*
D38*
X178876000Y-73981000D02*
X163576000Y-89281000D01*
X181835000Y-50000000D02*
X181835000Y-72040000D01*
X138053000Y-108200000D02*
X156972000Y-89281000D01*
X156972000Y-89281000D02*
X148463000Y-89281000D01*
D39*
X140845000Y-59434000D02*
X143385000Y-56894000D01*
D38*
%TO.N,Net-(J_oxygen1-Pad1)*%
X167667500Y-93758000D02*
X163425000Y-93758000D01*
D40*
X164103000Y-108458000D02*
X164545000Y-108458000D01*
D38*
X162256000Y-94927000D02*
X162256000Y-106611000D01*
X163425000Y-93758000D02*
X162256000Y-94927000D01*
X162256000Y-106611000D02*
X164103000Y-108458000D01*
%TO.N,Net-(J_oxygen1-Pad2)*%
X167667500Y-98758000D02*
X168373000Y-98758000D01*
X169545000Y-99930000D02*
X169545000Y-108458000D01*
X168373000Y-98758000D02*
X169545000Y-99930000D01*
%TO.N,Net-(J_wpump1-Pad1)*%
X177790500Y-106818000D02*
X179411500Y-108439000D01*
X180302500Y-93339000D02*
X177790500Y-95851000D01*
X183134000Y-93339000D02*
X180302500Y-93339000D01*
X177790500Y-95851000D02*
X177790500Y-106818000D01*
%TO.N,Net-(J_wpump1-Pad2)*%
X184411500Y-108439000D02*
X184411500Y-99616500D01*
X184411500Y-99616500D02*
X183134000Y-98339000D01*
%TO.N,Net-(OUT1-Pad1)*%
X114740000Y-100779000D02*
X110235000Y-105284000D01*
X110235000Y-105284000D02*
X110235000Y-108400000D01*
X114740000Y-96145000D02*
X114740000Y-100779000D01*
%TO.N,Net-(OUT2-Pad1)*%
X131635000Y-108200000D02*
X131635000Y-104204000D01*
X131635000Y-104204000D02*
X135540000Y-100299000D01*
X135540000Y-100299000D02*
X135540000Y-96000000D01*
%TO.N,12v*%
X112200000Y-96145000D02*
X112200000Y-49765000D01*
D39*
%TO.N,5v*%
X158030000Y-68805000D02*
X157860000Y-68975000D01*
X176835000Y-50000000D02*
X158030000Y-68805000D01*
X158030000Y-68805000D02*
X158030000Y-71600000D01*
X140280000Y-69000000D02*
X133000000Y-76280000D01*
X133000000Y-76280000D02*
X133000000Y-96000000D01*
X157860000Y-68975000D02*
X153020000Y-68975000D01*
%TD*%
M02*
