M48
; DRILL file {KiCad 6.0.7+dfsg-1+b1} date Fri 02 Dec 2022 09:53:14 PM -05
; FORMAT={-:-/ absolute / inch / decimal}
; #@! TF.CreationDate,2022-12-02T21:53:14-05:00
; #@! TF.GenerationSoftware,Kicad,Pcbnew,6.0.7+dfsg-1+b1
; #@! TF.FileFunction,Plated,1,2,PTH
FMAT,2
INCH
; #@! TA.AperFunction,Plated,PTH,ComponentDrill
T1C0.0276
; #@! TA.AperFunction,Plated,PTH,ComponentDrill
T2C0.0315
; #@! TA.AperFunction,Plated,PTH,ComponentDrill
T3C0.0354
; #@! TA.AperFunction,Plated,PTH,ComponentDrill
T4C0.0433
; #@! TA.AperFunction,Plated,PTH,ComponentDrill
T5C0.0520
%
G90
G05
T1
X4.9244Y-3.5354
X5.0244Y-3.5354
X5.3339Y-4.2008
X5.4016Y-3.2315
X5.4016Y-3.3315
X5.4339Y-4.2008
X6.1646Y-4.0984
X6.2646Y-4.0984
T2
X5.5974Y-3.3307
X5.5974Y-3.6307
X5.5976Y-4.1014
X5.5976Y-4.2014
X5.5976Y-4.3014
X5.6974Y-3.3307
X5.6974Y-3.6307
X5.7974Y-3.3307
X5.7974Y-3.6307
X5.8974Y-3.3307
X5.8974Y-3.6307
X5.8976Y-4.1014
X5.8976Y-4.2014
X5.8976Y-4.3014
X5.9974Y-3.3307
X5.9974Y-3.6307
X6.0974Y-3.3307
X6.0974Y-3.6307
X6.1974Y-3.3307
X6.1974Y-3.6307
T3
X4.9236Y-3.7598
X5.0236Y-3.7598
X6.1654Y-4.2612
X6.1654Y-4.3612
T4
X5.248Y-3.3346
X5.248Y-3.4346
X5.248Y-3.5346
T5
X4.975Y-4.2008
X5.1719Y-4.2008
X6.6614Y-3.4187
X6.6614Y-3.6156
X6.689Y-4.0984
X6.689Y-4.2953
T0
M30
