%TF.GenerationSoftware,KiCad,Pcbnew,6.0.7+dfsg-1+b1*%
%TF.CreationDate,2022-12-02T21:53:12-05:00*%
%TF.ProjectId,control_and_power,636f6e74-726f-46c5-9f61-6e645f706f77,rev?*%
%TF.SameCoordinates,Original*%
%TF.FileFunction,Soldermask,Bot*%
%TF.FilePolarity,Negative*%
%FSLAX46Y46*%
G04 Gerber Fmt 4.6, Leading zero omitted, Abs format (unit mm)*
G04 Created by KiCad (PCBNEW 6.0.7+dfsg-1+b1) date 2022-12-02 21:53:12*
%MOMM*%
%LPD*%
G01*
G04 APERTURE LIST*
%ADD10R,1.800000X2.500000*%
%ADD11O,1.800000X2.500000*%
%ADD12O,3.000000X1.905000*%
%ADD13R,3.000000X1.905000*%
%ADD14O,2.200000X1.600000*%
%ADD15R,2.200000X1.600000*%
%ADD16R,2.500000X1.800000*%
%ADD17O,2.200000X1.800000*%
%ADD18O,1.400000X2.200000*%
%ADD19O,1.400000X2.400000*%
%ADD20R,2.000000X1.400000*%
%ADD21O,3.960000X2.200000*%
%ADD22R,3.960000X2.200000*%
%ADD23O,3.000000X3.960000*%
%ADD24R,3.000000X3.960000*%
%ADD25R,1.400000X2.200000*%
%ADD26R,1.600000X3.500000*%
%ADD27R,1.600000X2.200000*%
%ADD28O,1.600000X3.500000*%
G04 APERTURE END LIST*
D10*
%TO.C,D2*%
X125060000Y-95500000D03*
D11*
X127600000Y-95500000D03*
%TD*%
D12*
%TO.C,Q1*%
X133300000Y-89780000D03*
X133300000Y-87240000D03*
D13*
X133300000Y-84700000D03*
%TD*%
D14*
%TO.C,U2*%
X142180000Y-104175000D03*
X142180000Y-106715000D03*
X142180000Y-109255000D03*
X149800000Y-109255000D03*
X149800000Y-106715000D03*
D15*
X149800000Y-104175000D03*
%TD*%
D16*
%TO.C,D1*%
X156600000Y-108235000D03*
D17*
X156600000Y-110775000D03*
%TD*%
D18*
%TO.C,R4*%
X127620000Y-89800000D03*
X125080000Y-89800000D03*
%TD*%
D19*
%TO.C,R2*%
X135480000Y-106700000D03*
X138020000Y-106700000D03*
%TD*%
D20*
%TO.C,R3*%
X137200000Y-84620000D03*
X137200000Y-82080000D03*
%TD*%
D21*
%TO.C,SIG1*%
X169900000Y-109100000D03*
D22*
X169900000Y-104100000D03*
%TD*%
D21*
%TO.C,OUT1*%
X169200000Y-91835000D03*
D22*
X169200000Y-86835000D03*
%TD*%
D23*
%TO.C,5V1*%
X126365000Y-106700000D03*
D24*
X131365000Y-106700000D03*
%TD*%
D25*
%TO.C,R1*%
X156580000Y-104100000D03*
X159120000Y-104100000D03*
%TD*%
D26*
%TO.C,U1*%
X142175000Y-92220000D03*
D27*
X144715000Y-92220000D03*
X147255000Y-92220000D03*
X149795000Y-92220000D03*
X152335000Y-92220000D03*
X154875000Y-92220000D03*
X157415000Y-92220000D03*
D28*
X157415000Y-84600000D03*
D27*
X154875000Y-84600000D03*
X152335000Y-84600000D03*
X149795000Y-84600000D03*
X147255000Y-84600000D03*
X144715000Y-84600000D03*
X142175000Y-84600000D03*
%TD*%
M02*
