%TF.GenerationSoftware,KiCad,Pcbnew,6.0.7+dfsg-1+b1*%
%TF.CreationDate,2022-12-02T21:53:12-05:00*%
%TF.ProjectId,control_and_power,636f6e74-726f-46c5-9f61-6e645f706f77,rev?*%
%TF.SameCoordinates,Original*%
%TF.FileFunction,Legend,Bot*%
%TF.FilePolarity,Positive*%
%FSLAX46Y46*%
G04 Gerber Fmt 4.6, Leading zero omitted, Abs format (unit mm)*
G04 Created by KiCad (PCBNEW 6.0.7+dfsg-1+b1) date 2022-12-02 21:53:12*
%MOMM*%
%LPD*%
G01*
G04 APERTURE LIST*
%ADD10C,0.150000*%
%ADD11C,0.120000*%
G04 APERTURE END LIST*
D10*
%TO.C,D2*%
X122963095Y-96852380D02*
X122963095Y-95852380D01*
X122725000Y-95852380D01*
X122582142Y-95900000D01*
X122486904Y-95995238D01*
X122439285Y-96090476D01*
X122391666Y-96280952D01*
X122391666Y-96423809D01*
X122439285Y-96614285D01*
X122486904Y-96709523D01*
X122582142Y-96804761D01*
X122725000Y-96852380D01*
X122963095Y-96852380D01*
X122010714Y-95947619D02*
X121963095Y-95900000D01*
X121867857Y-95852380D01*
X121629761Y-95852380D01*
X121534523Y-95900000D01*
X121486904Y-95947619D01*
X121439285Y-96042857D01*
X121439285Y-96138095D01*
X121486904Y-96280952D01*
X122058333Y-96852380D01*
X121439285Y-96852380D01*
%TO.C,Q1*%
X129577619Y-87144761D02*
X129530000Y-87049523D01*
X129434761Y-86954285D01*
X129291904Y-86811428D01*
X129244285Y-86716190D01*
X129244285Y-86620952D01*
X129482380Y-86668571D02*
X129434761Y-86573333D01*
X129339523Y-86478095D01*
X129149047Y-86430476D01*
X128815714Y-86430476D01*
X128625238Y-86478095D01*
X128530000Y-86573333D01*
X128482380Y-86668571D01*
X128482380Y-86859047D01*
X128530000Y-86954285D01*
X128625238Y-87049523D01*
X128815714Y-87097142D01*
X129149047Y-87097142D01*
X129339523Y-87049523D01*
X129434761Y-86954285D01*
X129482380Y-86859047D01*
X129482380Y-86668571D01*
X129482380Y-88049523D02*
X129482380Y-87478095D01*
X129482380Y-87763809D02*
X128482380Y-87763809D01*
X128625238Y-87668571D01*
X128720476Y-87573333D01*
X128768095Y-87478095D01*
%TO.C,U2*%
X146761904Y-106152380D02*
X146761904Y-106961904D01*
X146714285Y-107057142D01*
X146666666Y-107104761D01*
X146571428Y-107152380D01*
X146380952Y-107152380D01*
X146285714Y-107104761D01*
X146238095Y-107057142D01*
X146190476Y-106961904D01*
X146190476Y-106152380D01*
X145761904Y-106247619D02*
X145714285Y-106200000D01*
X145619047Y-106152380D01*
X145380952Y-106152380D01*
X145285714Y-106200000D01*
X145238095Y-106247619D01*
X145190476Y-106342857D01*
X145190476Y-106438095D01*
X145238095Y-106580952D01*
X145809523Y-107152380D01*
X145190476Y-107152380D01*
%TO.C,D1*%
X160012380Y-108766904D02*
X159012380Y-108766904D01*
X159012380Y-109005000D01*
X159060000Y-109147857D01*
X159155238Y-109243095D01*
X159250476Y-109290714D01*
X159440952Y-109338333D01*
X159583809Y-109338333D01*
X159774285Y-109290714D01*
X159869523Y-109243095D01*
X159964761Y-109147857D01*
X160012380Y-109005000D01*
X160012380Y-108766904D01*
X160012380Y-110290714D02*
X160012380Y-109719285D01*
X160012380Y-110005000D02*
X159012380Y-110005000D01*
X159155238Y-109909761D01*
X159250476Y-109814523D01*
X159298095Y-109719285D01*
%TO.C,R4*%
X126516666Y-92172380D02*
X126850000Y-91696190D01*
X127088095Y-92172380D02*
X127088095Y-91172380D01*
X126707142Y-91172380D01*
X126611904Y-91220000D01*
X126564285Y-91267619D01*
X126516666Y-91362857D01*
X126516666Y-91505714D01*
X126564285Y-91600952D01*
X126611904Y-91648571D01*
X126707142Y-91696190D01*
X127088095Y-91696190D01*
X125659523Y-91505714D02*
X125659523Y-92172380D01*
X125897619Y-91124761D02*
X126135714Y-91839047D01*
X125516666Y-91839047D01*
%TO.C,R2*%
X136916666Y-105232380D02*
X137250000Y-104756190D01*
X137488095Y-105232380D02*
X137488095Y-104232380D01*
X137107142Y-104232380D01*
X137011904Y-104280000D01*
X136964285Y-104327619D01*
X136916666Y-104422857D01*
X136916666Y-104565714D01*
X136964285Y-104660952D01*
X137011904Y-104708571D01*
X137107142Y-104756190D01*
X137488095Y-104756190D01*
X136535714Y-104327619D02*
X136488095Y-104280000D01*
X136392857Y-104232380D01*
X136154761Y-104232380D01*
X136059523Y-104280000D01*
X136011904Y-104327619D01*
X135964285Y-104422857D01*
X135964285Y-104518095D01*
X136011904Y-104660952D01*
X136583333Y-105232380D01*
X135964285Y-105232380D01*
%TO.C,R3*%
X135732380Y-83183333D02*
X135256190Y-82850000D01*
X135732380Y-82611904D02*
X134732380Y-82611904D01*
X134732380Y-82992857D01*
X134780000Y-83088095D01*
X134827619Y-83135714D01*
X134922857Y-83183333D01*
X135065714Y-83183333D01*
X135160952Y-83135714D01*
X135208571Y-83088095D01*
X135256190Y-82992857D01*
X135256190Y-82611904D01*
X134732380Y-83516666D02*
X134732380Y-84135714D01*
X135113333Y-83802380D01*
X135113333Y-83945238D01*
X135160952Y-84040476D01*
X135208571Y-84088095D01*
X135303809Y-84135714D01*
X135541904Y-84135714D01*
X135637142Y-84088095D01*
X135684761Y-84040476D01*
X135732380Y-83945238D01*
X135732380Y-83659523D01*
X135684761Y-83564285D01*
X135637142Y-83516666D01*
%TO.C,SIG1*%
X167004761Y-105200000D02*
X167052380Y-105342857D01*
X167052380Y-105580952D01*
X167004761Y-105676190D01*
X166957142Y-105723809D01*
X166861904Y-105771428D01*
X166766666Y-105771428D01*
X166671428Y-105723809D01*
X166623809Y-105676190D01*
X166576190Y-105580952D01*
X166528571Y-105390476D01*
X166480952Y-105295238D01*
X166433333Y-105247619D01*
X166338095Y-105200000D01*
X166242857Y-105200000D01*
X166147619Y-105247619D01*
X166100000Y-105295238D01*
X166052380Y-105390476D01*
X166052380Y-105628571D01*
X166100000Y-105771428D01*
X167052380Y-106200000D02*
X166052380Y-106200000D01*
X166100000Y-107200000D02*
X166052380Y-107104761D01*
X166052380Y-106961904D01*
X166100000Y-106819047D01*
X166195238Y-106723809D01*
X166290476Y-106676190D01*
X166480952Y-106628571D01*
X166623809Y-106628571D01*
X166814285Y-106676190D01*
X166909523Y-106723809D01*
X167004761Y-106819047D01*
X167052380Y-106961904D01*
X167052380Y-107057142D01*
X167004761Y-107200000D01*
X166957142Y-107247619D01*
X166623809Y-107247619D01*
X166623809Y-107057142D01*
X167052380Y-108200000D02*
X167052380Y-107628571D01*
X167052380Y-107914285D02*
X166052380Y-107914285D01*
X166195238Y-107819047D01*
X166290476Y-107723809D01*
X166338095Y-107628571D01*
%TO.C,OUT1*%
X165352380Y-87823809D02*
X165352380Y-88014285D01*
X165400000Y-88109523D01*
X165495238Y-88204761D01*
X165685714Y-88252380D01*
X166019047Y-88252380D01*
X166209523Y-88204761D01*
X166304761Y-88109523D01*
X166352380Y-88014285D01*
X166352380Y-87823809D01*
X166304761Y-87728571D01*
X166209523Y-87633333D01*
X166019047Y-87585714D01*
X165685714Y-87585714D01*
X165495238Y-87633333D01*
X165400000Y-87728571D01*
X165352380Y-87823809D01*
X165352380Y-88680952D02*
X166161904Y-88680952D01*
X166257142Y-88728571D01*
X166304761Y-88776190D01*
X166352380Y-88871428D01*
X166352380Y-89061904D01*
X166304761Y-89157142D01*
X166257142Y-89204761D01*
X166161904Y-89252380D01*
X165352380Y-89252380D01*
X165352380Y-89585714D02*
X165352380Y-90157142D01*
X166352380Y-89871428D02*
X165352380Y-89871428D01*
X166352380Y-91014285D02*
X166352380Y-90442857D01*
X166352380Y-90728571D02*
X165352380Y-90728571D01*
X165495238Y-90633333D01*
X165590476Y-90538095D01*
X165638095Y-90442857D01*
%TO.C,5V1*%
X129166666Y-102752380D02*
X129642857Y-102752380D01*
X129690476Y-103228571D01*
X129642857Y-103180952D01*
X129547619Y-103133333D01*
X129309523Y-103133333D01*
X129214285Y-103180952D01*
X129166666Y-103228571D01*
X129119047Y-103323809D01*
X129119047Y-103561904D01*
X129166666Y-103657142D01*
X129214285Y-103704761D01*
X129309523Y-103752380D01*
X129547619Y-103752380D01*
X129642857Y-103704761D01*
X129690476Y-103657142D01*
X128833333Y-102752380D02*
X128500000Y-103752380D01*
X128166666Y-102752380D01*
X127309523Y-103752380D02*
X127880952Y-103752380D01*
X127595238Y-103752380D02*
X127595238Y-102752380D01*
X127690476Y-102895238D01*
X127785714Y-102990476D01*
X127880952Y-103038095D01*
%TO.C,R1*%
X158016666Y-102632380D02*
X158350000Y-102156190D01*
X158588095Y-102632380D02*
X158588095Y-101632380D01*
X158207142Y-101632380D01*
X158111904Y-101680000D01*
X158064285Y-101727619D01*
X158016666Y-101822857D01*
X158016666Y-101965714D01*
X158064285Y-102060952D01*
X158111904Y-102108571D01*
X158207142Y-102156190D01*
X158588095Y-102156190D01*
X157064285Y-102632380D02*
X157635714Y-102632380D01*
X157350000Y-102632380D02*
X157350000Y-101632380D01*
X157445238Y-101775238D01*
X157540476Y-101870476D01*
X157635714Y-101918095D01*
%TO.C,U1*%
X149252380Y-87638095D02*
X150061904Y-87638095D01*
X150157142Y-87685714D01*
X150204761Y-87733333D01*
X150252380Y-87828571D01*
X150252380Y-88019047D01*
X150204761Y-88114285D01*
X150157142Y-88161904D01*
X150061904Y-88209523D01*
X149252380Y-88209523D01*
X150252380Y-89209523D02*
X150252380Y-88638095D01*
X150252380Y-88923809D02*
X149252380Y-88923809D01*
X149395238Y-88828571D01*
X149490476Y-88733333D01*
X149538095Y-88638095D01*
D11*
%TO.C,D2*%
X127890000Y-94264484D02*
G75*
G03*
X124657665Y-94421392I-1560000J-1235516D01*
G01*
X127370961Y-94420000D02*
G75*
G03*
X125288870Y-94420163I-1040961J-1080000D01*
G01*
X124657665Y-96578608D02*
G75*
G03*
X127890000Y-96735516I1672335J1078608D01*
G01*
X125288870Y-96579837D02*
G75*
G03*
X127370961Y-96580000I1041130J1079837D01*
G01*
X127890000Y-96580000D02*
X127890000Y-96736000D01*
X127890000Y-94264000D02*
X127890000Y-94420000D01*
%TO.C,Q1*%
X130030000Y-82120000D02*
X130030000Y-92360000D01*
X130030000Y-92360000D02*
X134671000Y-92360000D01*
X130030000Y-85390000D02*
X131540000Y-85390000D01*
X134671000Y-82120000D02*
X134671000Y-92360000D01*
X130030000Y-82120000D02*
X134671000Y-82120000D01*
X130030000Y-89091000D02*
X131540000Y-89091000D01*
X131540000Y-82120000D02*
X131540000Y-92360000D01*
%TO.C,U2*%
X144990000Y-102845000D02*
G75*
G03*
X146990000Y-102845000I1000000J0D01*
G01*
X143340000Y-102845000D02*
X144990000Y-102845000D01*
X146990000Y-102845000D02*
X148640000Y-102845000D01*
X143340000Y-110585000D02*
X143340000Y-102845000D01*
X148640000Y-110585000D02*
X143340000Y-110585000D01*
X148640000Y-102845000D02*
X148640000Y-110585000D01*
%TO.C,D1*%
X155520163Y-108463870D02*
G75*
G03*
X155520000Y-110545961I1079837J-1041130D01*
G01*
X157835516Y-111065000D02*
G75*
G03*
X157678608Y-107832665I-1235516J1560000D01*
G01*
X155521392Y-107832665D02*
G75*
G03*
X155364484Y-111065000I1078608J-1672335D01*
G01*
X157680000Y-110545961D02*
G75*
G03*
X157679837Y-108463870I-1080000J1040961D01*
G01*
X155520000Y-111065000D02*
X155364000Y-111065000D01*
X157836000Y-111065000D02*
X157680000Y-111065000D01*
%TO.C,R4*%
X126000000Y-89800000D02*
G75*
G03*
X126000000Y-89800000I-920000J0D01*
G01*
X126000000Y-89800000D02*
X126620000Y-89800000D01*
%TO.C,R2*%
X138940000Y-106700000D02*
G75*
G03*
X138940000Y-106700000I-920000J0D01*
G01*
X137100000Y-106700000D02*
X136480000Y-106700000D01*
%TO.C,R3*%
X138120000Y-82080000D02*
G75*
G03*
X138120000Y-82080000I-920000J0D01*
G01*
X137200000Y-83000000D02*
X137200000Y-83620000D01*
%TO.C,SIG1*%
X173550000Y-112300000D02*
X173800000Y-111800000D01*
X168700000Y-112300000D02*
X163600000Y-112300000D01*
X176200000Y-101450000D02*
X176200000Y-111800000D01*
X163600000Y-112300000D02*
X163600000Y-101450000D01*
X173600000Y-112300000D02*
X173550000Y-112300000D01*
X175250000Y-111800000D02*
X175500000Y-112300000D01*
X176200000Y-111800000D02*
X175250000Y-111800000D01*
X168400000Y-111800000D02*
X168700000Y-112300000D01*
X163600000Y-101450000D02*
X176200000Y-101450000D01*
X173800000Y-111800000D02*
X168400000Y-111800000D01*
X175500000Y-112300000D02*
X173600000Y-112300000D01*
%TO.C,OUT1*%
X172900000Y-95035000D02*
X172850000Y-95035000D01*
X175500000Y-94535000D02*
X174550000Y-94535000D01*
X174550000Y-94535000D02*
X174800000Y-95035000D01*
X168000000Y-95035000D02*
X162900000Y-95035000D01*
X162900000Y-84185000D02*
X175500000Y-84185000D01*
X173100000Y-94535000D02*
X167700000Y-94535000D01*
X167700000Y-94535000D02*
X168000000Y-95035000D01*
X174800000Y-95035000D02*
X172900000Y-95035000D01*
X162900000Y-95035000D02*
X162900000Y-84185000D01*
X172850000Y-95035000D02*
X173100000Y-94535000D01*
X175500000Y-84185000D02*
X175500000Y-94535000D01*
%TO.C,5V1*%
X123165000Y-112300000D02*
X123165000Y-110400000D01*
X123665000Y-110600000D02*
X123665000Y-105200000D01*
X123165000Y-100400000D02*
X134015000Y-100400000D01*
X134015000Y-113000000D02*
X123665000Y-113000000D01*
X123665000Y-105200000D02*
X123165000Y-105500000D01*
X123665000Y-112050000D02*
X123165000Y-112300000D01*
X123665000Y-113000000D02*
X123665000Y-112050000D01*
X123165000Y-110400000D02*
X123165000Y-110350000D01*
X134015000Y-100400000D02*
X134015000Y-113000000D01*
X123165000Y-105500000D02*
X123165000Y-100400000D01*
X123165000Y-110350000D02*
X123665000Y-110600000D01*
%TO.C,R1*%
X160040000Y-104100000D02*
G75*
G03*
X160040000Y-104100000I-920000J0D01*
G01*
X158200000Y-104100000D02*
X157580000Y-104100000D01*
%TO.C,U1*%
X140845000Y-89410000D02*
G75*
G03*
X140845000Y-87410000I0J1000000D01*
G01*
X140845000Y-91060000D02*
X140845000Y-89410000D01*
X158745000Y-85760000D02*
X158745000Y-91060000D01*
X140845000Y-85760000D02*
X158745000Y-85760000D01*
X140845000Y-87410000D02*
X140845000Y-85760000D01*
X158745000Y-91060000D02*
X140845000Y-91060000D01*
%TD*%
M02*
