%TF.GenerationSoftware,KiCad,Pcbnew,6.0.7+dfsg-1+b1*%
%TF.CreationDate,2022-12-02T21:53:11-05:00*%
%TF.ProjectId,control_and_power,636f6e74-726f-46c5-9f61-6e645f706f77,rev?*%
%TF.SameCoordinates,Original*%
%TF.FileFunction,Copper,L1,Top*%
%TF.FilePolarity,Positive*%
%FSLAX46Y46*%
G04 Gerber Fmt 4.6, Leading zero omitted, Abs format (unit mm)*
G04 Created by KiCad (PCBNEW 6.0.7+dfsg-1+b1) date 2022-12-02 21:53:11*
%MOMM*%
%LPD*%
G01*
G04 APERTURE LIST*
%TA.AperFunction,NonConductor*%
%ADD10C,0.200000*%
%TD*%
%ADD11C,0.300000*%
%TA.AperFunction,NonConductor*%
%ADD12C,0.300000*%
%TD*%
%TA.AperFunction,ComponentPad*%
%ADD13R,1.800000X2.500000*%
%TD*%
%TA.AperFunction,ComponentPad*%
%ADD14O,1.800000X2.500000*%
%TD*%
%TA.AperFunction,ComponentPad*%
%ADD15O,3.000000X1.905000*%
%TD*%
%TA.AperFunction,ComponentPad*%
%ADD16R,3.000000X1.905000*%
%TD*%
%TA.AperFunction,ComponentPad*%
%ADD17O,2.200000X1.600000*%
%TD*%
%TA.AperFunction,ComponentPad*%
%ADD18R,2.200000X1.600000*%
%TD*%
%TA.AperFunction,ComponentPad*%
%ADD19R,2.500000X1.800000*%
%TD*%
%TA.AperFunction,ComponentPad*%
%ADD20O,2.200000X1.800000*%
%TD*%
%TA.AperFunction,ComponentPad*%
%ADD21O,1.400000X2.200000*%
%TD*%
%TA.AperFunction,ComponentPad*%
%ADD22O,1.400000X2.400000*%
%TD*%
%TA.AperFunction,ComponentPad*%
%ADD23R,2.000000X1.400000*%
%TD*%
%TA.AperFunction,ComponentPad*%
%ADD24O,3.960000X2.200000*%
%TD*%
%TA.AperFunction,ComponentPad*%
%ADD25R,3.960000X2.200000*%
%TD*%
%TA.AperFunction,ComponentPad*%
%ADD26O,3.000000X3.960000*%
%TD*%
%TA.AperFunction,ComponentPad*%
%ADD27R,3.000000X3.960000*%
%TD*%
%TA.AperFunction,ComponentPad*%
%ADD28R,1.400000X2.200000*%
%TD*%
%TA.AperFunction,ComponentPad*%
%ADD29R,1.600000X3.500000*%
%TD*%
%TA.AperFunction,ComponentPad*%
%ADD30R,1.600000X2.200000*%
%TD*%
%TA.AperFunction,ComponentPad*%
%ADD31O,1.600000X3.500000*%
%TD*%
%TA.AperFunction,Conductor*%
%ADD32C,1.750000*%
%TD*%
%TA.AperFunction,Conductor*%
%ADD33C,1.250000*%
%TD*%
G04 APERTURE END LIST*
D10*
X119800000Y-117400000D02*
X179600000Y-117400000D01*
X179600000Y-117400000D02*
X179600000Y-76500000D01*
X179600000Y-76500000D02*
X119800000Y-76500000D01*
X119800000Y-76500000D02*
X119800000Y-117400000D01*
D11*
D12*
X173228571Y-104207142D02*
X174371428Y-104207142D01*
X173800000Y-104778571D02*
X173800000Y-103635714D01*
D11*
D12*
X173228571Y-91807142D02*
X174371428Y-91807142D01*
D11*
D12*
X176892857Y-104664285D02*
X176821428Y-104878571D01*
X176821428Y-105235714D01*
X176892857Y-105378571D01*
X176964285Y-105450000D01*
X177107142Y-105521428D01*
X177250000Y-105521428D01*
X177392857Y-105450000D01*
X177464285Y-105378571D01*
X177535714Y-105235714D01*
X177607142Y-104950000D01*
X177678571Y-104807142D01*
X177750000Y-104735714D01*
X177892857Y-104664285D01*
X178035714Y-104664285D01*
X178178571Y-104735714D01*
X178250000Y-104807142D01*
X178321428Y-104950000D01*
X178321428Y-105307142D01*
X178250000Y-105521428D01*
X176821428Y-106164285D02*
X178321428Y-106164285D01*
X178250000Y-107664285D02*
X178321428Y-107521428D01*
X178321428Y-107307142D01*
X178250000Y-107092857D01*
X178107142Y-106950000D01*
X177964285Y-106878571D01*
X177678571Y-106807142D01*
X177464285Y-106807142D01*
X177178571Y-106878571D01*
X177035714Y-106950000D01*
X176892857Y-107092857D01*
X176821428Y-107307142D01*
X176821428Y-107450000D01*
X176892857Y-107664285D01*
X176964285Y-107735714D01*
X177464285Y-107735714D01*
X177464285Y-107450000D01*
D11*
D12*
X137364285Y-109778571D02*
X136864285Y-109064285D01*
X136507142Y-109778571D02*
X136507142Y-108278571D01*
X137078571Y-108278571D01*
X137221428Y-108350000D01*
X137292857Y-108421428D01*
X137364285Y-108564285D01*
X137364285Y-108778571D01*
X137292857Y-108921428D01*
X137221428Y-108992857D01*
X137078571Y-109064285D01*
X136507142Y-109064285D01*
D11*
D12*
X138821428Y-85064285D02*
X139535714Y-84564285D01*
X138821428Y-84207142D02*
X140321428Y-84207142D01*
X140321428Y-84778571D01*
X140250000Y-84921428D01*
X140178571Y-84992857D01*
X140035714Y-85064285D01*
X139821428Y-85064285D01*
X139678571Y-84992857D01*
X139607142Y-84921428D01*
X139535714Y-84778571D01*
X139535714Y-84207142D01*
D11*
D12*
X158364285Y-102378571D02*
X157864285Y-101664285D01*
X157507142Y-102378571D02*
X157507142Y-100878571D01*
X158078571Y-100878571D01*
X158221428Y-100950000D01*
X158292857Y-101021428D01*
X158364285Y-101164285D01*
X158364285Y-101378571D01*
X158292857Y-101521428D01*
X158221428Y-101592857D01*
X158078571Y-101664285D01*
X157507142Y-101664285D01*
D11*
D12*
X125464285Y-88178571D02*
X124964285Y-87464285D01*
X124607142Y-88178571D02*
X124607142Y-86678571D01*
X125178571Y-86678571D01*
X125321428Y-86750000D01*
X125392857Y-86821428D01*
X125464285Y-86964285D01*
X125464285Y-87178571D01*
X125392857Y-87321428D01*
X125321428Y-87392857D01*
X125178571Y-87464285D01*
X124607142Y-87464285D01*
D11*
D12*
X173228571Y-109007142D02*
X174371428Y-109007142D01*
D11*
D12*
X155635714Y-114078571D02*
X154921428Y-114078571D01*
X154921428Y-112578571D01*
X156135714Y-113292857D02*
X156635714Y-113292857D01*
X156850000Y-114078571D02*
X156135714Y-114078571D01*
X156135714Y-112578571D01*
X156850000Y-112578571D01*
X157492857Y-114078571D02*
X157492857Y-112578571D01*
X157850000Y-112578571D01*
X158064285Y-112650000D01*
X158207142Y-112792857D01*
X158278571Y-112935714D01*
X158350000Y-113221428D01*
X158350000Y-113435714D01*
X158278571Y-113721428D01*
X158207142Y-113864285D01*
X158064285Y-114007142D01*
X157850000Y-114078571D01*
X157492857Y-114078571D01*
D11*
D12*
X124792857Y-109628571D02*
X124792857Y-110771428D01*
D11*
D12*
X173228571Y-87007142D02*
X174371428Y-87007142D01*
X173800000Y-87578571D02*
X173800000Y-86435714D01*
D11*
D12*
X129585714Y-113921428D02*
X129585714Y-115421428D01*
X128871428Y-113921428D02*
X128871428Y-115421428D01*
X128014285Y-113921428D01*
X128014285Y-115421428D01*
D11*
D12*
X178021428Y-87300000D02*
X178021428Y-87585714D01*
X177950000Y-87728571D01*
X177807142Y-87871428D01*
X177521428Y-87942857D01*
X177021428Y-87942857D01*
X176735714Y-87871428D01*
X176592857Y-87728571D01*
X176521428Y-87585714D01*
X176521428Y-87300000D01*
X176592857Y-87157142D01*
X176735714Y-87014285D01*
X177021428Y-86942857D01*
X177521428Y-86942857D01*
X177807142Y-87014285D01*
X177950000Y-87157142D01*
X178021428Y-87300000D01*
X178021428Y-88585714D02*
X176807142Y-88585714D01*
X176664285Y-88657142D01*
X176592857Y-88728571D01*
X176521428Y-88871428D01*
X176521428Y-89157142D01*
X176592857Y-89300000D01*
X176664285Y-89371428D01*
X176807142Y-89442857D01*
X178021428Y-89442857D01*
X178021428Y-89942857D02*
X178021428Y-90800000D01*
X176521428Y-90371428D02*
X178021428Y-90371428D01*
D11*
D12*
X131378571Y-96764285D02*
X131378571Y-97478571D01*
X129878571Y-97478571D01*
X130592857Y-96264285D02*
X130592857Y-95764285D01*
X131378571Y-95550000D02*
X131378571Y-96264285D01*
X129878571Y-96264285D01*
X129878571Y-95550000D01*
X131378571Y-94907142D02*
X129878571Y-94907142D01*
X129878571Y-94550000D01*
X129950000Y-94335714D01*
X130092857Y-94192857D01*
X130235714Y-94121428D01*
X130521428Y-94050000D01*
X130735714Y-94050000D01*
X131021428Y-94121428D01*
X131164285Y-94192857D01*
X131307142Y-94335714D01*
X131378571Y-94550000D01*
X131378571Y-94907142D01*
D11*
D12*
X131392857Y-109628571D02*
X131392857Y-110771428D01*
X130821428Y-110200000D02*
X131964285Y-110200000D01*
D13*
%TO.P,D2,2,A*%
%TO.N,Net-(D2-Pad2)*%
X125060000Y-95500000D03*
D14*
%TO.P,D2,1,K*%
%TO.N,GND*%
X127600000Y-95500000D03*
%TD*%
D15*
%TO.P,Q1,3,E*%
%TO.N,Net-(OUT1-Pad1)*%
X133300000Y-89780000D03*
%TO.P,Q1,2,C*%
%TO.N,5v*%
X133300000Y-87240000D03*
D16*
%TO.P,Q1,1,B*%
%TO.N,Net-(Q1-Pad1)*%
X133300000Y-84700000D03*
%TD*%
D17*
%TO.P,U2,6*%
%TO.N,unconnected-(U2-Pad6)*%
X142180000Y-104175000D03*
%TO.P,U2,5*%
%TO.N,Net-(R2-Pad1)*%
X142180000Y-106715000D03*
%TO.P,U2,4*%
%TO.N,GND*%
X142180000Y-109255000D03*
%TO.P,U2,3,NC*%
%TO.N,unconnected-(U2-Pad3)*%
X149800000Y-109255000D03*
%TO.P,U2,2*%
%TO.N,Net-(D1-Pad1)*%
X149800000Y-106715000D03*
D18*
%TO.P,U2,1*%
%TO.N,Net-(D1-Pad2)*%
X149800000Y-104175000D03*
%TD*%
D19*
%TO.P,D1,2,A*%
%TO.N,Net-(D1-Pad2)*%
X156600000Y-108235000D03*
D20*
%TO.P,D1,1,K*%
%TO.N,Net-(D1-Pad1)*%
X156600000Y-110775000D03*
%TD*%
D21*
%TO.P,R4,2*%
%TO.N,Net-(OUT1-Pad1)*%
X127620000Y-89800000D03*
%TO.P,R4,1*%
%TO.N,Net-(D2-Pad2)*%
X125080000Y-89800000D03*
%TD*%
D22*
%TO.P,R2,2*%
%TO.N,5v*%
X135480000Y-106700000D03*
%TO.P,R2,1*%
%TO.N,Net-(R2-Pad1)*%
X138020000Y-106700000D03*
%TD*%
D23*
%TO.P,R3,2*%
%TO.N,Net-(Q1-Pad1)*%
X137200000Y-84620000D03*
%TO.P,R3,1*%
%TO.N,Net-(R3-Pad1)*%
X137200000Y-82080000D03*
%TD*%
D24*
%TO.P,SIG1,2,Pin_2*%
%TO.N,Net-(D1-Pad1)*%
X169900000Y-109100000D03*
D25*
%TO.P,SIG1,1,Pin_1*%
%TO.N,Net-(SIG1-Pad1)*%
X169900000Y-104100000D03*
%TD*%
D24*
%TO.P,OUT1,2,Pin_2*%
%TO.N,GND*%
X169200000Y-91835000D03*
D25*
%TO.P,OUT1,1,Pin_1*%
%TO.N,Net-(OUT1-Pad1)*%
X169200000Y-86835000D03*
%TD*%
D26*
%TO.P,5V1,2,Pin_2*%
%TO.N,GND*%
X126365000Y-106700000D03*
D27*
%TO.P,5V1,1,Pin_1*%
%TO.N,5v*%
X131365000Y-106700000D03*
%TD*%
D28*
%TO.P,R1,2*%
%TO.N,Net-(D1-Pad2)*%
X156580000Y-104100000D03*
%TO.P,R1,1*%
%TO.N,Net-(SIG1-Pad1)*%
X159120000Y-104100000D03*
%TD*%
D29*
%TO.P,U1,14,VDD*%
%TO.N,5v*%
X142175000Y-92220000D03*
D30*
%TO.P,U1,13*%
%TO.N,unconnected-(U1-Pad13)*%
X144715000Y-92220000D03*
%TO.P,U1,12*%
%TO.N,unconnected-(U1-Pad12)*%
X147255000Y-92220000D03*
%TO.P,U1,11*%
%TO.N,unconnected-(U1-Pad11)*%
X149795000Y-92220000D03*
%TO.P,U1,10*%
%TO.N,unconnected-(U1-Pad10)*%
X152335000Y-92220000D03*
%TO.P,U1,9*%
%TO.N,unconnected-(U1-Pad9)*%
X154875000Y-92220000D03*
%TO.P,U1,8*%
%TO.N,unconnected-(U1-Pad8)*%
X157415000Y-92220000D03*
D31*
%TO.P,U1,7,VSS*%
%TO.N,GND*%
X157415000Y-84600000D03*
D30*
%TO.P,U1,6*%
%TO.N,unconnected-(U1-Pad6)*%
X154875000Y-84600000D03*
%TO.P,U1,5*%
%TO.N,unconnected-(U1-Pad5)*%
X152335000Y-84600000D03*
%TO.P,U1,4*%
%TO.N,unconnected-(U1-Pad4)*%
X149795000Y-84600000D03*
%TO.P,U1,3*%
%TO.N,unconnected-(U1-Pad3)*%
X147255000Y-84600000D03*
%TO.P,U1,2*%
%TO.N,Net-(R3-Pad1)*%
X144715000Y-84600000D03*
%TO.P,U1,1*%
%TO.N,Net-(R2-Pad1)*%
X142175000Y-84600000D03*
%TD*%
D32*
%TO.N,5v*%
X139920000Y-92220000D02*
X142175000Y-92220000D01*
X131365000Y-106700000D02*
X135480000Y-106700000D01*
X135480000Y-103420000D02*
X142175000Y-96725000D01*
X133300000Y-87240000D02*
X134940000Y-87240000D01*
X142175000Y-96725000D02*
X142175000Y-92220000D01*
X135480000Y-106700000D02*
X135480000Y-103420000D01*
X134940000Y-87240000D02*
X139920000Y-92220000D01*
%TO.N,GND*%
X167300000Y-99000000D02*
X169200000Y-97100000D01*
X147200000Y-107300000D02*
X147200000Y-102100000D01*
X145245000Y-109255000D02*
X147200000Y-107300000D01*
X129700000Y-112000000D02*
X141000000Y-112000000D01*
X161000000Y-84600000D02*
X168235000Y-91835000D01*
X143945000Y-109255000D02*
X145245000Y-109255000D01*
X147200000Y-102100000D02*
X150300000Y-99000000D01*
X157415000Y-84600000D02*
X161000000Y-84600000D01*
X127600000Y-95500000D02*
X127600000Y-99800000D01*
X126365000Y-108665000D02*
X129700000Y-112000000D01*
X142180000Y-110820000D02*
X142180000Y-109255000D01*
D33*
X168235000Y-91835000D02*
X169200000Y-91835000D01*
D32*
X141000000Y-112000000D02*
X142180000Y-110820000D01*
X169200000Y-97100000D02*
X169200000Y-91835000D01*
X126365000Y-106700000D02*
X126365000Y-108665000D01*
X127600000Y-99800000D02*
X126365000Y-101035000D01*
X142180000Y-109255000D02*
X143945000Y-109255000D01*
X126365000Y-101035000D02*
X126365000Y-106700000D01*
X150300000Y-99000000D02*
X167300000Y-99000000D01*
%TO.N,Net-(Q1-Pad1)*%
X133300000Y-84700000D02*
X137120000Y-84700000D01*
D33*
X137120000Y-84700000D02*
X137200000Y-84620000D01*
D32*
%TO.N,Net-(D1-Pad1)*%
X168225000Y-110775000D02*
X169900000Y-109100000D01*
X156600000Y-110775000D02*
X168225000Y-110775000D01*
X155175000Y-110775000D02*
X151115000Y-106715000D01*
X151115000Y-106715000D02*
X149800000Y-106715000D01*
X156600000Y-110775000D02*
X155175000Y-110775000D01*
%TO.N,Net-(R2-Pad1)*%
X162300000Y-94900000D02*
X162300000Y-90700000D01*
X144600000Y-98900000D02*
X147200000Y-96300000D01*
X160900000Y-96300000D02*
X162300000Y-94900000D01*
X143800000Y-88500000D02*
X142175000Y-86875000D01*
X142180000Y-106715000D02*
X143785000Y-106715000D01*
X143785000Y-106715000D02*
X144600000Y-105900000D01*
X160100000Y-88500000D02*
X143800000Y-88500000D01*
X162300000Y-90700000D02*
X160100000Y-88500000D01*
X147200000Y-96300000D02*
X160900000Y-96300000D01*
X138020000Y-106700000D02*
X142165000Y-106700000D01*
X142175000Y-86875000D02*
X142175000Y-84600000D01*
D33*
X142165000Y-106700000D02*
X142180000Y-106715000D01*
D32*
X144600000Y-105900000D02*
X144600000Y-98900000D01*
%TO.N,Net-(R3-Pad1)*%
X144715000Y-83468630D02*
X144715000Y-84600000D01*
X137200000Y-82080000D02*
X143326370Y-82080000D01*
X143326370Y-82080000D02*
X144715000Y-83468630D01*
%TO.N,Net-(SIG1-Pad1)*%
X159120000Y-104100000D02*
X169900000Y-104100000D01*
%TO.N,Net-(D1-Pad2)*%
X156600000Y-108235000D02*
X156600000Y-104120000D01*
X156580000Y-104100000D02*
X149875000Y-104100000D01*
D33*
X156600000Y-104120000D02*
X156580000Y-104100000D01*
X149875000Y-104100000D02*
X149800000Y-104175000D01*
D32*
%TO.N,Net-(D2-Pad2)*%
X125060000Y-95500000D02*
X125060000Y-89820000D01*
D33*
X125060000Y-89820000D02*
X125080000Y-89800000D01*
D32*
%TO.N,Net-(OUT1-Pad1)*%
X169200000Y-86835000D02*
X161565000Y-79200000D01*
X127620000Y-89800000D02*
X133280000Y-89800000D01*
X161565000Y-79200000D02*
X130400000Y-79200000D01*
X127620000Y-81980000D02*
X127620000Y-89800000D01*
D33*
X133280000Y-89800000D02*
X133300000Y-89780000D01*
D32*
X130400000Y-79200000D02*
X127620000Y-81980000D01*
%TD*%
M02*
