%TF.GenerationSoftware,KiCad,Pcbnew,6.0.11+dfsg-1*%
%TF.CreationDate,2023-05-31T09:31:01-05:00*%
%TF.ProjectId,ambient_measurement,616d6269-656e-4745-9f6d-656173757265,rev?*%
%TF.SameCoordinates,Original*%
%TF.FileFunction,Copper,L2,Bot*%
%TF.FilePolarity,Positive*%
%FSLAX46Y46*%
G04 Gerber Fmt 4.6, Leading zero omitted, Abs format (unit mm)*
G04 Created by KiCad (PCBNEW 6.0.11+dfsg-1) date 2023-05-31 09:31:01*
%MOMM*%
%LPD*%
G01*
G04 APERTURE LIST*
%ADD10C,0.300000*%
%TA.AperFunction,NonConductor*%
%ADD11C,0.300000*%
%TD*%
%TA.AperFunction,NonConductor*%
%ADD12C,0.200000*%
%TD*%
%TA.AperFunction,ComponentPad*%
%ADD13C,5.400000*%
%TD*%
%TA.AperFunction,ComponentPad*%
%ADD14R,2.125000X3.960000*%
%TD*%
%TA.AperFunction,ComponentPad*%
%ADD15O,2.125000X3.960000*%
%TD*%
%TA.AperFunction,ComponentPad*%
%ADD16O,2.125000X2.125000*%
%TD*%
%TA.AperFunction,ComponentPad*%
%ADD17C,2.125000*%
%TD*%
%TA.AperFunction,ComponentPad*%
%ADD18R,1.600000X1.600000*%
%TD*%
%TA.AperFunction,ComponentPad*%
%ADD19C,1.600000*%
%TD*%
%TA.AperFunction,ComponentPad*%
%ADD20R,3.960000X3.960000*%
%TD*%
%TA.AperFunction,ComponentPad*%
%ADD21C,3.960000*%
%TD*%
%TA.AperFunction,ComponentPad*%
%ADD22O,3.960000X3.960000*%
%TD*%
%TA.AperFunction,ComponentPad*%
%ADD23R,2.125000X2.125000*%
%TD*%
%TA.AperFunction,ComponentPad*%
%ADD24R,2.540000X2.000000*%
%TD*%
%TA.AperFunction,ComponentPad*%
%ADD25R,2.540000X1.950000*%
%TD*%
%TA.AperFunction,ComponentPad*%
%ADD26R,2.540000X2.100000*%
%TD*%
%TA.AperFunction,ComponentPad*%
%ADD27R,2.540000X1.740000*%
%TD*%
%TA.AperFunction,ViaPad*%
%ADD28C,2.125000*%
%TD*%
%TA.AperFunction,Conductor*%
%ADD29C,1.330000*%
%TD*%
G04 APERTURE END LIST*
D10*
D11*
X181416310Y-74942857D02*
X181487738Y-75085714D01*
X181487738Y-75300000D01*
X181416310Y-75514285D01*
X181273452Y-75657142D01*
X181130595Y-75728571D01*
X180844881Y-75800000D01*
X180630595Y-75800000D01*
X180344881Y-75728571D01*
X180202024Y-75657142D01*
X180059167Y-75514285D01*
X179987738Y-75300000D01*
X179987738Y-75157142D01*
X180059167Y-74942857D01*
X180130595Y-74871428D01*
X180630595Y-74871428D01*
X180630595Y-75157142D01*
X179987738Y-74228571D02*
X181487738Y-74228571D01*
X179987738Y-73371428D01*
X181487738Y-73371428D01*
X179987738Y-72657142D02*
X181487738Y-72657142D01*
X181487738Y-72300000D01*
X181416310Y-72085714D01*
X181273452Y-71942857D01*
X181130595Y-71871428D01*
X180844881Y-71800000D01*
X180630595Y-71800000D01*
X180344881Y-71871428D01*
X180202024Y-71942857D01*
X180059167Y-72085714D01*
X179987738Y-72300000D01*
X179987738Y-72657142D01*
D10*
D11*
X181687738Y-86542857D02*
X181687738Y-85614285D01*
X181116310Y-86114285D01*
X181116310Y-85900000D01*
X181044881Y-85757142D01*
X180973452Y-85685714D01*
X180830595Y-85614285D01*
X180473452Y-85614285D01*
X180330595Y-85685714D01*
X180259167Y-85757142D01*
X180187738Y-85900000D01*
X180187738Y-86328571D01*
X180259167Y-86471428D01*
X180330595Y-86542857D01*
X181687738Y-85185714D02*
X180187738Y-84685714D01*
X181687738Y-84185714D01*
D10*
D11*
X184144881Y-86442857D02*
X184216310Y-86371428D01*
X184287738Y-86228571D01*
X184287738Y-85871428D01*
X184216310Y-85728571D01*
X184144881Y-85657142D01*
X184002024Y-85585714D01*
X183859167Y-85585714D01*
X183644881Y-85657142D01*
X182787738Y-86514285D01*
X182787738Y-85585714D01*
X184287738Y-84300000D02*
X184287738Y-84585714D01*
X184216310Y-84728571D01*
X184144881Y-84800000D01*
X183930595Y-84942857D01*
X183644881Y-85014285D01*
X183073452Y-85014285D01*
X182930595Y-84942857D01*
X182859167Y-84871428D01*
X182787738Y-84728571D01*
X182787738Y-84442857D01*
X182859167Y-84300000D01*
X182930595Y-84228571D01*
X183073452Y-84157142D01*
X183430595Y-84157142D01*
X183573452Y-84228571D01*
X183644881Y-84300000D01*
X183716310Y-84442857D01*
X183716310Y-84728571D01*
X183644881Y-84871428D01*
X183573452Y-84942857D01*
X183430595Y-85014285D01*
D10*
D11*
X185387738Y-85485714D02*
X185387738Y-86342857D01*
X185387738Y-85914285D02*
X186887738Y-85914285D01*
X186673452Y-86057142D01*
X186530595Y-86200000D01*
X186459167Y-86342857D01*
X186887738Y-84985714D02*
X186887738Y-84057142D01*
X186316310Y-84557142D01*
X186316310Y-84342857D01*
X186244881Y-84200000D01*
X186173452Y-84128571D01*
X186030595Y-84057142D01*
X185673452Y-84057142D01*
X185530595Y-84128571D01*
X185459167Y-84200000D01*
X185387738Y-84342857D01*
X185387738Y-84771428D01*
X185459167Y-84914285D01*
X185530595Y-84985714D01*
D10*
D11*
X184144881Y-75542857D02*
X184216310Y-75471428D01*
X184287738Y-75328571D01*
X184287738Y-74971428D01*
X184216310Y-74828571D01*
X184144881Y-74757142D01*
X184002024Y-74685714D01*
X183859167Y-74685714D01*
X183644881Y-74757142D01*
X182787738Y-75614285D01*
X182787738Y-74685714D01*
X184287738Y-74185714D02*
X184287738Y-73185714D01*
X182787738Y-73828571D01*
D10*
D11*
X185487738Y-74885714D02*
X185487738Y-75742857D01*
X185487738Y-75314285D02*
X186987738Y-75314285D01*
X186773452Y-75457142D01*
X186630595Y-75600000D01*
X186559167Y-75742857D01*
X186487738Y-73600000D02*
X185487738Y-73600000D01*
X187059167Y-73957142D02*
X185987738Y-74314285D01*
X185987738Y-73385714D01*
D10*
D11*
X188187738Y-74985714D02*
X188187738Y-75842857D01*
X188187738Y-75414285D02*
X189687738Y-75414285D01*
X189473452Y-75557142D01*
X189330595Y-75700000D01*
X189259167Y-75842857D01*
X189544881Y-74414285D02*
X189616310Y-74342857D01*
X189687738Y-74200000D01*
X189687738Y-73842857D01*
X189616310Y-73700000D01*
X189544881Y-73628571D01*
X189402024Y-73557142D01*
X189259167Y-73557142D01*
X189044881Y-73628571D01*
X188187738Y-74485714D01*
X188187738Y-73557142D01*
D10*
D11*
X221309167Y-100550000D02*
X221452024Y-100478571D01*
X221666310Y-100478571D01*
X221880595Y-100550000D01*
X222023452Y-100692857D01*
X222094881Y-100835714D01*
X222166310Y-101121428D01*
X222166310Y-101335714D01*
X222094881Y-101621428D01*
X222023452Y-101764285D01*
X221880595Y-101907142D01*
X221666310Y-101978571D01*
X221523452Y-101978571D01*
X221309167Y-101907142D01*
X221237738Y-101835714D01*
X221237738Y-101335714D01*
X221523452Y-101335714D01*
X220594881Y-101978571D02*
X220594881Y-100478571D01*
X219737738Y-101978571D01*
X219737738Y-100478571D01*
X219023452Y-101978571D02*
X219023452Y-100478571D01*
X218666310Y-100478571D01*
X218452024Y-100550000D01*
X218309167Y-100692857D01*
X218237738Y-100835714D01*
X218166310Y-101121428D01*
X218166310Y-101335714D01*
X218237738Y-101621428D01*
X218309167Y-101764285D01*
X218452024Y-101907142D01*
X218666310Y-101978571D01*
X219023452Y-101978571D01*
D10*
D11*
X220752024Y-102978571D02*
X221466310Y-102978571D01*
X221537738Y-103692857D01*
X221466310Y-103621428D01*
X221323452Y-103550000D01*
X220966310Y-103550000D01*
X220823452Y-103621428D01*
X220752024Y-103692857D01*
X220680595Y-103835714D01*
X220680595Y-104192857D01*
X220752024Y-104335714D01*
X220823452Y-104407142D01*
X220966310Y-104478571D01*
X221323452Y-104478571D01*
X221466310Y-104407142D01*
X221537738Y-104335714D01*
X220252024Y-102978571D02*
X219752024Y-104478571D01*
X219252024Y-102978571D01*
D10*
D11*
X253044881Y-96828571D02*
X253116310Y-96757142D01*
X253187738Y-96614285D01*
X253187738Y-96257142D01*
X253116310Y-96114285D01*
X253044881Y-96042857D01*
X252902024Y-95971428D01*
X252759167Y-95971428D01*
X252544881Y-96042857D01*
X251687738Y-96900000D01*
X251687738Y-95971428D01*
D10*
D11*
X253144881Y-73442857D02*
X253216310Y-73371428D01*
X253287738Y-73228571D01*
X253287738Y-72871428D01*
X253216310Y-72728571D01*
X253144881Y-72657142D01*
X253002024Y-72585714D01*
X252859167Y-72585714D01*
X252644881Y-72657142D01*
X251787738Y-73514285D01*
X251787738Y-72585714D01*
X251787738Y-71157142D02*
X251787738Y-72014285D01*
X251787738Y-71585714D02*
X253287738Y-71585714D01*
X253073452Y-71728571D01*
X252930595Y-71871428D01*
X252859167Y-72014285D01*
D10*
D11*
X253144881Y-78142857D02*
X253216310Y-78071428D01*
X253287738Y-77928571D01*
X253287738Y-77571428D01*
X253216310Y-77428571D01*
X253144881Y-77357142D01*
X253002024Y-77285714D01*
X252859167Y-77285714D01*
X252644881Y-77357142D01*
X251787738Y-78214285D01*
X251787738Y-77285714D01*
X253144881Y-76714285D02*
X253216310Y-76642857D01*
X253287738Y-76500000D01*
X253287738Y-76142857D01*
X253216310Y-76000000D01*
X253144881Y-75928571D01*
X253002024Y-75857142D01*
X252859167Y-75857142D01*
X252644881Y-75928571D01*
X251787738Y-76785714D01*
X251787738Y-75857142D01*
D10*
D11*
X253316310Y-107242857D02*
X253387738Y-107385714D01*
X253387738Y-107600000D01*
X253316310Y-107814285D01*
X253173452Y-107957142D01*
X253030595Y-108028571D01*
X252744881Y-108100000D01*
X252530595Y-108100000D01*
X252244881Y-108028571D01*
X252102024Y-107957142D01*
X251959167Y-107814285D01*
X251887738Y-107600000D01*
X251887738Y-107457142D01*
X251959167Y-107242857D01*
X252030595Y-107171428D01*
X252530595Y-107171428D01*
X252530595Y-107457142D01*
X251887738Y-106528571D02*
X253387738Y-106528571D01*
X251887738Y-105671428D01*
X253387738Y-105671428D01*
X251887738Y-104957142D02*
X253387738Y-104957142D01*
X253387738Y-104600000D01*
X253316310Y-104385714D01*
X253173452Y-104242857D01*
X253030595Y-104171428D01*
X252744881Y-104100000D01*
X252530595Y-104100000D01*
X252244881Y-104171428D01*
X252102024Y-104242857D01*
X251959167Y-104385714D01*
X251887738Y-104600000D01*
X251887738Y-104957142D01*
D10*
D11*
X253016310Y-83242857D02*
X253087738Y-83385714D01*
X253087738Y-83600000D01*
X253016310Y-83814285D01*
X252873452Y-83957142D01*
X252730595Y-84028571D01*
X252444881Y-84100000D01*
X252230595Y-84100000D01*
X251944881Y-84028571D01*
X251802024Y-83957142D01*
X251659167Y-83814285D01*
X251587738Y-83600000D01*
X251587738Y-83457142D01*
X251659167Y-83242857D01*
X251730595Y-83171428D01*
X252230595Y-83171428D01*
X252230595Y-83457142D01*
X251587738Y-82528571D02*
X253087738Y-82528571D01*
X251587738Y-81671428D01*
X253087738Y-81671428D01*
X251587738Y-80957142D02*
X253087738Y-80957142D01*
X253087738Y-80600000D01*
X253016310Y-80385714D01*
X252873452Y-80242857D01*
X252730595Y-80171428D01*
X252444881Y-80100000D01*
X252230595Y-80100000D01*
X251944881Y-80171428D01*
X251802024Y-80242857D01*
X251659167Y-80385714D01*
X251587738Y-80600000D01*
X251587738Y-80957142D01*
D10*
D11*
X253387738Y-101485714D02*
X253387738Y-102200000D01*
X252673452Y-102271428D01*
X252744881Y-102200000D01*
X252816310Y-102057142D01*
X252816310Y-101700000D01*
X252744881Y-101557142D01*
X252673452Y-101485714D01*
X252530595Y-101414285D01*
X252173452Y-101414285D01*
X252030595Y-101485714D01*
X251959167Y-101557142D01*
X251887738Y-101700000D01*
X251887738Y-102057142D01*
X251959167Y-102200000D01*
X252030595Y-102271428D01*
X253387738Y-100985714D02*
X251887738Y-100485714D01*
X253387738Y-99985714D01*
D10*
D11*
X253087738Y-87585714D02*
X253087738Y-88300000D01*
X252373452Y-88371428D01*
X252444881Y-88300000D01*
X252516310Y-88157142D01*
X252516310Y-87800000D01*
X252444881Y-87657142D01*
X252373452Y-87585714D01*
X252230595Y-87514285D01*
X251873452Y-87514285D01*
X251730595Y-87585714D01*
X251659167Y-87657142D01*
X251587738Y-87800000D01*
X251587738Y-88157142D01*
X251659167Y-88300000D01*
X251730595Y-88371428D01*
X253087738Y-87085714D02*
X251587738Y-86585714D01*
X253087738Y-86085714D01*
D10*
D11*
X205909167Y-126550000D02*
X206052024Y-126478571D01*
X206266310Y-126478571D01*
X206480595Y-126550000D01*
X206623452Y-126692857D01*
X206694881Y-126835714D01*
X206766310Y-127121428D01*
X206766310Y-127335714D01*
X206694881Y-127621428D01*
X206623452Y-127764285D01*
X206480595Y-127907142D01*
X206266310Y-127978571D01*
X206123452Y-127978571D01*
X205909167Y-127907142D01*
X205837738Y-127835714D01*
X205837738Y-127335714D01*
X206123452Y-127335714D01*
X205194881Y-127978571D02*
X205194881Y-126478571D01*
X204337738Y-127978571D01*
X204337738Y-126478571D01*
X203623452Y-127978571D02*
X203623452Y-126478571D01*
X203266310Y-126478571D01*
X203052024Y-126550000D01*
X202909167Y-126692857D01*
X202837738Y-126835714D01*
X202766310Y-127121428D01*
X202766310Y-127335714D01*
X202837738Y-127621428D01*
X202909167Y-127764285D01*
X203052024Y-127907142D01*
X203266310Y-127978571D01*
X203623452Y-127978571D01*
D10*
D11*
X220652024Y-126778571D02*
X221366310Y-126778571D01*
X221437738Y-127492857D01*
X221366310Y-127421428D01*
X221223452Y-127350000D01*
X220866310Y-127350000D01*
X220723452Y-127421428D01*
X220652024Y-127492857D01*
X220580595Y-127635714D01*
X220580595Y-127992857D01*
X220652024Y-128135714D01*
X220723452Y-128207142D01*
X220866310Y-128278571D01*
X221223452Y-128278571D01*
X221366310Y-128207142D01*
X221437738Y-128135714D01*
X220152024Y-126778571D02*
X219652024Y-128278571D01*
X219152024Y-126778571D01*
D12*
X253866310Y-130200000D02*
X175566310Y-130200000D01*
X175566310Y-130200000D02*
X175566310Y-53900000D01*
X175566310Y-53900000D02*
X253866310Y-53900000D01*
X253866310Y-53900000D02*
X253866310Y-130200000D01*
D13*
%TO.P,H2,1*%
%TO.N,N/C*%
X179866310Y-123700000D03*
%TD*%
D14*
%TO.P,5V1,1,Pin_1*%
%TO.N,5v*%
X215871422Y-121800000D03*
D15*
%TO.P,5V1,2,Pin_2*%
%TO.N,GND5V*%
X210871422Y-121800000D03*
%TD*%
D16*
%TO.P,R1,2*%
%TO.N,D2*%
X235666310Y-97780000D03*
D17*
%TO.P,R1,1*%
%TO.N,5v*%
X235666310Y-100320000D03*
%TD*%
D18*
%TO.P,C1,1*%
%TO.N,5v*%
X224971422Y-122000000D03*
D19*
%TO.P,C1,2*%
%TO.N,GND5V*%
X222471422Y-122000000D03*
%TD*%
D20*
%TO.P,J1,1,Pin_1*%
%TO.N,D2*%
X244558810Y-96242500D03*
D21*
%TO.P,J1,2,Pin_2*%
%TO.N,5v*%
X244558810Y-101242500D03*
%TO.P,J1,3,Pin_3*%
%TO.N,GND5V*%
X244558810Y-106242500D03*
%TD*%
D20*
%TO.P,J2,1,Pin_1*%
%TO.N,D21*%
X244566310Y-72040000D03*
D22*
%TO.P,J2,2,Pin_2*%
%TO.N,D22*%
X244566310Y-77040000D03*
%TO.P,J2,3,Pin_3*%
%TO.N,GND5V*%
X244566310Y-82040000D03*
%TO.P,J2,4,Pin_4*%
%TO.N,5v*%
X244566310Y-87040000D03*
%TD*%
D13*
%TO.P,H4,1*%
%TO.N,N/C*%
X179866310Y-58400000D03*
%TD*%
D23*
%TO.P,U1,1,GND*%
%TO.N,GND5V*%
X181041310Y-78900000D03*
D17*
%TO.P,U1,2,VCC*%
%TO.N,3V3*%
X181041310Y-81440000D03*
%TO.P,U1,3,CE*%
%TO.N,D27*%
X183581310Y-78900000D03*
%TO.P,U1,4,~{CSN}*%
%TO.N,D26*%
X183581310Y-81440000D03*
%TO.P,U1,5,SCK*%
%TO.N,D14*%
X186121310Y-78900000D03*
%TO.P,U1,6,MOSI*%
%TO.N,D13*%
X186121310Y-81440000D03*
%TO.P,U1,7,MISO*%
%TO.N,D12*%
X188661310Y-78900000D03*
%TO.P,U1,8,IRQ*%
%TO.N,unconnected-(U1-Pad8)*%
X188661310Y-81440000D03*
%TD*%
D24*
%TO.P,J_esp1,1,Pin_1*%
%TO.N,3V3*%
X201275810Y-103699000D03*
D25*
%TO.P,J_esp1,2,Pin_2*%
%TO.N,GND2*%
X201275810Y-101159000D03*
%TO.P,J_esp1,3,Pin_3*%
%TO.N,D15*%
X201275810Y-98619000D03*
%TO.P,J_esp1,4,Pin_4*%
%TO.N,D2*%
X201275810Y-96079000D03*
%TO.P,J_esp1,5,Pin_5*%
%TO.N,D4*%
X201275810Y-93539000D03*
%TO.P,J_esp1,6,Pin_6*%
%TO.N,RX2*%
X201275810Y-90999000D03*
%TO.P,J_esp1,7,Pin_7*%
%TO.N,TX2*%
X201275810Y-88459000D03*
%TO.P,J_esp1,8,Pin_8*%
%TO.N,D5*%
X201275810Y-85919000D03*
%TO.P,J_esp1,9,Pin_9*%
%TO.N,D18*%
X201275810Y-83379000D03*
%TO.P,J_esp1,10,Pin_10*%
%TO.N,D19*%
X201275810Y-80839000D03*
%TO.P,J_esp1,11,Pin_11*%
%TO.N,D21*%
X201275810Y-78299000D03*
%TO.P,J_esp1,12,Pin_12*%
%TO.N,RX0*%
X201275810Y-75759000D03*
%TO.P,J_esp1,13,Pin_13*%
%TO.N,TX0*%
X201275810Y-73219000D03*
%TO.P,J_esp1,14,Pin_14*%
%TO.N,D22*%
X201275810Y-70679000D03*
%TO.P,J_esp1,15,Pin_15*%
%TO.N,D23*%
X201275810Y-68139000D03*
%TD*%
D13*
%TO.P,H3,1*%
%TO.N,N/C*%
X248666310Y-123600000D03*
%TD*%
D26*
%TO.P,J_esp0,1,Pin_1*%
%TO.N,EN*%
X225816310Y-68060000D03*
D27*
%TO.P,J_esp0,2,Pin_2*%
%TO.N,VP*%
X225816310Y-70600000D03*
%TO.P,J_esp0,3,Pin_3*%
%TO.N,VN*%
X225816310Y-73140000D03*
D25*
%TO.P,J_esp0,4,Pin_4*%
%TO.N,D34*%
X225816310Y-75680000D03*
%TO.P,J_esp0,5,Pin_5*%
%TO.N,D35*%
X225816310Y-78220000D03*
%TO.P,J_esp0,6,Pin_6*%
%TO.N,D32*%
X225816310Y-80760000D03*
%TO.P,J_esp0,7,Pin_7*%
%TO.N,D33*%
X225816310Y-83300000D03*
%TO.P,J_esp0,8,Pin_8*%
%TO.N,D25*%
X225816310Y-85840000D03*
%TO.P,J_esp0,9,Pin_9*%
%TO.N,D26*%
X225816310Y-88380000D03*
%TO.P,J_esp0,10,Pin_10*%
%TO.N,D27*%
X225816310Y-90920000D03*
%TO.P,J_esp0,11,Pin_11*%
%TO.N,D14*%
X225816310Y-93460000D03*
%TO.P,J_esp0,12,Pin_12*%
%TO.N,D12*%
X225816310Y-96000000D03*
%TO.P,J_esp0,13,Pin_13*%
%TO.N,D13*%
X225816310Y-98540000D03*
%TO.P,J_esp0,14,Pin_14*%
%TO.N,GND5V*%
X225816310Y-101080000D03*
%TO.P,J_esp0,15,Pin_15*%
%TO.N,5v*%
X225816310Y-103620000D03*
%TD*%
D13*
%TO.P,H1,1*%
%TO.N,N/C*%
X248666310Y-58400000D03*
%TD*%
D28*
%TO.N,5v*%
X228066310Y-119200000D03*
X235666310Y-108700000D03*
%TO.N,D27*%
X231366310Y-90700000D03*
X183581310Y-71585000D03*
%TO.N,D26*%
X188966310Y-95300000D03*
X213866310Y-91400000D03*
%TO.N,D14*%
X186121310Y-71545000D03*
X220566310Y-93400000D03*
%TO.N,D13*%
X231666310Y-100200000D03*
X186166310Y-88400000D03*
%TO.N,D12*%
X218066310Y-96100000D03*
X188666310Y-71500000D03*
%TD*%
D29*
%TO.N,D13*%
X231666310Y-100200000D02*
X231566310Y-100300000D01*
X223466310Y-113100000D02*
X191766310Y-113100000D01*
X186166310Y-107500000D02*
X186166310Y-88400000D01*
X231566310Y-100300000D02*
X231566310Y-105000000D01*
X231566310Y-105000000D02*
X223466310Y-113100000D01*
X191766310Y-113100000D02*
X186166310Y-107500000D01*
%TO.N,D12*%
X196166310Y-64000000D02*
X205066310Y-64000000D01*
X216466310Y-75400000D02*
X216466310Y-94500000D01*
X188666310Y-71500000D02*
X196166310Y-64000000D01*
X205066310Y-64000000D02*
X216466310Y-75400000D01*
X216466310Y-94500000D02*
X218066310Y-96100000D01*
%TO.N,D27*%
X183581310Y-71585000D02*
X183581310Y-64785000D01*
X183581310Y-64785000D02*
X190566310Y-57800000D01*
X190566310Y-57800000D02*
X231766310Y-57800000D01*
X235366310Y-86400000D02*
X231366310Y-90400000D01*
X231766310Y-57800000D02*
X235366310Y-61400000D01*
X235366310Y-61400000D02*
X235366310Y-86400000D01*
X231366310Y-90400000D02*
X231366310Y-90700000D01*
%TO.N,D14*%
X211566310Y-60600000D02*
X219466310Y-68500000D01*
X186121310Y-71545000D02*
X186121310Y-66345000D01*
X186121310Y-66345000D02*
X191866310Y-60600000D01*
X191866310Y-60600000D02*
X211566310Y-60600000D01*
X219466310Y-68500000D02*
X219466310Y-92300000D01*
X219466310Y-92300000D02*
X220566310Y-93400000D01*
%TO.N,5v*%
X228066310Y-119200000D02*
X228066310Y-116300000D01*
X228066310Y-116300000D02*
X235666310Y-108700000D01*
%TO.N,D26*%
X213866310Y-91400000D02*
X209666310Y-95600000D01*
X209666310Y-108400000D02*
X208866310Y-109200000D01*
X193366310Y-109200000D02*
X188966310Y-104800000D01*
X209666310Y-95600000D02*
X209666310Y-108400000D01*
X188966310Y-104800000D02*
X188966310Y-95300000D01*
X208866310Y-109200000D02*
X193366310Y-109200000D01*
%TD*%
M02*
