%TF.GenerationSoftware,KiCad,Pcbnew,7.0.3*%
%TF.CreationDate,2023-06-10T16:02:29-05:00*%
%TF.ProjectId,ambient_measurement,616d6269-656e-4745-9f6d-656173757265,rev?*%
%TF.SameCoordinates,Original*%
%TF.FileFunction,Soldermask,Bot*%
%TF.FilePolarity,Negative*%
%FSLAX46Y46*%
G04 Gerber Fmt 4.6, Leading zero omitted, Abs format (unit mm)*
G04 Created by KiCad (PCBNEW 7.0.3) date 2023-06-10 16:02:29*
%MOMM*%
%LPD*%
G01*
G04 APERTURE LIST*
%ADD10C,2.000000*%
%ADD11C,5.400000*%
%ADD12R,2.125000X3.960000*%
%ADD13O,2.125000X3.960000*%
%ADD14C,2.125000*%
%ADD15O,2.125000X2.125000*%
%ADD16R,2.000000X2.000000*%
%ADD17R,3.960000X3.960000*%
%ADD18C,3.960000*%
%ADD19O,3.960000X3.960000*%
%ADD20R,2.125000X2.125000*%
%ADD21R,2.540000X2.000000*%
%ADD22R,2.540000X1.950000*%
%ADD23R,2.540000X2.100000*%
%ADD24R,2.540000X1.740000*%
G04 APERTURE END LIST*
D10*
%TO.C,C2*%
X199136000Y-121880000D03*
X199136000Y-119380000D03*
%TD*%
D11*
%TO.C,H2*%
X248900000Y-123700000D03*
%TD*%
D12*
%TO.C,5V1*%
X212894888Y-121800000D03*
D13*
X217894888Y-121800000D03*
%TD*%
D14*
%TO.C,R1*%
X195580000Y-100320000D03*
D15*
X195580000Y-97780000D03*
%TD*%
D16*
%TO.C,C1*%
X204296000Y-121793112D03*
D10*
X204296000Y-119293112D03*
%TD*%
D17*
%TO.C,J1*%
X184207500Y-96242500D03*
D18*
X184207500Y-101242500D03*
X184207500Y-106242500D03*
%TD*%
D17*
%TO.C,J2*%
X184200000Y-72040000D03*
D19*
X184200000Y-77040000D03*
X184200000Y-82040000D03*
X184200000Y-87040000D03*
%TD*%
D11*
%TO.C,H4*%
X248900000Y-58400000D03*
%TD*%
D20*
%TO.C,U1*%
X247725000Y-78900000D03*
D14*
X247725000Y-81440000D03*
X245185000Y-78900000D03*
X245185000Y-81440000D03*
X242645000Y-78900000D03*
X242645000Y-81440000D03*
X240105000Y-78900000D03*
X240105000Y-81440000D03*
%TD*%
D21*
%TO.C,J_esp1*%
X227490500Y-103699000D03*
D22*
X227490500Y-101159000D03*
X227490500Y-98619000D03*
X227490500Y-96079000D03*
X227490500Y-93539000D03*
X227490500Y-90999000D03*
X227490500Y-88459000D03*
X227490500Y-85919000D03*
X227490500Y-83379000D03*
X227490500Y-80839000D03*
X227490500Y-78299000D03*
X227490500Y-75759000D03*
X227490500Y-73219000D03*
X227490500Y-70679000D03*
X227490500Y-68139000D03*
%TD*%
D11*
%TO.C,H3*%
X180100000Y-123600000D03*
%TD*%
D23*
%TO.C,J_esp0*%
X202950000Y-68060000D03*
D24*
X202950000Y-70600000D03*
X202950000Y-73140000D03*
D22*
X202950000Y-75680000D03*
X202950000Y-78220000D03*
X202950000Y-80760000D03*
X202950000Y-83300000D03*
X202950000Y-85840000D03*
X202950000Y-88380000D03*
X202950000Y-90920000D03*
X202950000Y-93460000D03*
X202950000Y-96000000D03*
X202950000Y-98540000D03*
X202950000Y-101080000D03*
X202950000Y-103620000D03*
%TD*%
D11*
%TO.C,H1*%
X180100000Y-58400000D03*
%TD*%
M02*
