%TF.GenerationSoftware,KiCad,Pcbnew,7.0.3*%
%TF.CreationDate,2023-06-10T16:02:28-05:00*%
%TF.ProjectId,ambient_measurement,616d6269-656e-4745-9f6d-656173757265,rev?*%
%TF.SameCoordinates,Original*%
%TF.FileFunction,Copper,L2,Bot*%
%TF.FilePolarity,Positive*%
%FSLAX46Y46*%
G04 Gerber Fmt 4.6, Leading zero omitted, Abs format (unit mm)*
G04 Created by KiCad (PCBNEW 7.0.3) date 2023-06-10 16:02:28*
%MOMM*%
%LPD*%
G01*
G04 APERTURE LIST*
%ADD10C,0.300000*%
%TA.AperFunction,NonConductor*%
%ADD11C,0.300000*%
%TD*%
%TA.AperFunction,ComponentPad*%
%ADD12C,2.000000*%
%TD*%
%TA.AperFunction,ComponentPad*%
%ADD13C,5.400000*%
%TD*%
%TA.AperFunction,ComponentPad*%
%ADD14R,2.125000X3.960000*%
%TD*%
%TA.AperFunction,ComponentPad*%
%ADD15O,2.125000X3.960000*%
%TD*%
%TA.AperFunction,ComponentPad*%
%ADD16C,2.125000*%
%TD*%
%TA.AperFunction,ComponentPad*%
%ADD17O,2.125000X2.125000*%
%TD*%
%TA.AperFunction,ComponentPad*%
%ADD18R,2.000000X2.000000*%
%TD*%
%TA.AperFunction,ComponentPad*%
%ADD19R,3.960000X3.960000*%
%TD*%
%TA.AperFunction,ComponentPad*%
%ADD20C,3.960000*%
%TD*%
%TA.AperFunction,ComponentPad*%
%ADD21O,3.960000X3.960000*%
%TD*%
%TA.AperFunction,ComponentPad*%
%ADD22R,2.125000X2.125000*%
%TD*%
%TA.AperFunction,ComponentPad*%
%ADD23R,2.540000X2.000000*%
%TD*%
%TA.AperFunction,ComponentPad*%
%ADD24R,2.540000X1.950000*%
%TD*%
%TA.AperFunction,ComponentPad*%
%ADD25R,2.540000X2.100000*%
%TD*%
%TA.AperFunction,ComponentPad*%
%ADD26R,2.540000X1.740000*%
%TD*%
%TA.AperFunction,ViaPad*%
%ADD27C,2.125000*%
%TD*%
%TA.AperFunction,Conductor*%
%ADD28C,1.330000*%
%TD*%
G04 APERTURE END LIST*
D10*
D11*
X189413488Y-94825185D02*
X189342060Y-94753757D01*
X189342060Y-94753757D02*
X189199203Y-94682328D01*
X189199203Y-94682328D02*
X188842060Y-94682328D01*
X188842060Y-94682328D02*
X188699203Y-94753757D01*
X188699203Y-94753757D02*
X188627774Y-94825185D01*
X188627774Y-94825185D02*
X188556345Y-94968042D01*
X188556345Y-94968042D02*
X188556345Y-95110900D01*
X188556345Y-95110900D02*
X188627774Y-95325185D01*
X188627774Y-95325185D02*
X189484917Y-96182328D01*
X189484917Y-96182328D02*
X188556345Y-96182328D01*
X187199203Y-94682328D02*
X187913489Y-94682328D01*
X187913489Y-94682328D02*
X187984917Y-95396614D01*
X187984917Y-95396614D02*
X187913489Y-95325185D01*
X187913489Y-95325185D02*
X187770632Y-95253757D01*
X187770632Y-95253757D02*
X187413489Y-95253757D01*
X187413489Y-95253757D02*
X187270632Y-95325185D01*
X187270632Y-95325185D02*
X187199203Y-95396614D01*
X187199203Y-95396614D02*
X187127774Y-95539471D01*
X187127774Y-95539471D02*
X187127774Y-95896614D01*
X187127774Y-95896614D02*
X187199203Y-96039471D01*
X187199203Y-96039471D02*
X187270632Y-96110900D01*
X187270632Y-96110900D02*
X187413489Y-96182328D01*
X187413489Y-96182328D02*
X187770632Y-96182328D01*
X187770632Y-96182328D02*
X187913489Y-96110900D01*
X187913489Y-96110900D02*
X187984917Y-96039471D01*
D10*
D11*
X212888345Y-125278328D02*
X213602631Y-125278328D01*
X213602631Y-125278328D02*
X213674059Y-125992614D01*
X213674059Y-125992614D02*
X213602631Y-125921185D01*
X213602631Y-125921185D02*
X213459774Y-125849757D01*
X213459774Y-125849757D02*
X213102631Y-125849757D01*
X213102631Y-125849757D02*
X212959774Y-125921185D01*
X212959774Y-125921185D02*
X212888345Y-125992614D01*
X212888345Y-125992614D02*
X212816916Y-126135471D01*
X212816916Y-126135471D02*
X212816916Y-126492614D01*
X212816916Y-126492614D02*
X212888345Y-126635471D01*
X212888345Y-126635471D02*
X212959774Y-126706900D01*
X212959774Y-126706900D02*
X213102631Y-126778328D01*
X213102631Y-126778328D02*
X213459774Y-126778328D01*
X213459774Y-126778328D02*
X213602631Y-126706900D01*
X213602631Y-126706900D02*
X213674059Y-126635471D01*
X212388345Y-125278328D02*
X211888345Y-126778328D01*
X211888345Y-126778328D02*
X211388345Y-125278328D01*
D10*
D11*
X190245488Y-81449757D02*
X190388346Y-81378328D01*
X190388346Y-81378328D02*
X190602631Y-81378328D01*
X190602631Y-81378328D02*
X190816917Y-81449757D01*
X190816917Y-81449757D02*
X190959774Y-81592614D01*
X190959774Y-81592614D02*
X191031203Y-81735471D01*
X191031203Y-81735471D02*
X191102631Y-82021185D01*
X191102631Y-82021185D02*
X191102631Y-82235471D01*
X191102631Y-82235471D02*
X191031203Y-82521185D01*
X191031203Y-82521185D02*
X190959774Y-82664042D01*
X190959774Y-82664042D02*
X190816917Y-82806900D01*
X190816917Y-82806900D02*
X190602631Y-82878328D01*
X190602631Y-82878328D02*
X190459774Y-82878328D01*
X190459774Y-82878328D02*
X190245488Y-82806900D01*
X190245488Y-82806900D02*
X190174060Y-82735471D01*
X190174060Y-82735471D02*
X190174060Y-82235471D01*
X190174060Y-82235471D02*
X190459774Y-82235471D01*
X189531203Y-82878328D02*
X189531203Y-81378328D01*
X189531203Y-81378328D02*
X188674060Y-82878328D01*
X188674060Y-82878328D02*
X188674060Y-81378328D01*
X187959774Y-82878328D02*
X187959774Y-81378328D01*
X187959774Y-81378328D02*
X187602631Y-81378328D01*
X187602631Y-81378328D02*
X187388345Y-81449757D01*
X187388345Y-81449757D02*
X187245488Y-81592614D01*
X187245488Y-81592614D02*
X187174059Y-81735471D01*
X187174059Y-81735471D02*
X187102631Y-82021185D01*
X187102631Y-82021185D02*
X187102631Y-82235471D01*
X187102631Y-82235471D02*
X187174059Y-82521185D01*
X187174059Y-82521185D02*
X187245488Y-82664042D01*
X187245488Y-82664042D02*
X187388345Y-82806900D01*
X187388345Y-82806900D02*
X187602631Y-82878328D01*
X187602631Y-82878328D02*
X187959774Y-82878328D01*
D10*
D11*
X189845488Y-76621185D02*
X189774060Y-76549757D01*
X189774060Y-76549757D02*
X189631203Y-76478328D01*
X189631203Y-76478328D02*
X189274060Y-76478328D01*
X189274060Y-76478328D02*
X189131203Y-76549757D01*
X189131203Y-76549757D02*
X189059774Y-76621185D01*
X189059774Y-76621185D02*
X188988345Y-76764042D01*
X188988345Y-76764042D02*
X188988345Y-76906900D01*
X188988345Y-76906900D02*
X189059774Y-77121185D01*
X189059774Y-77121185D02*
X189916917Y-77978328D01*
X189916917Y-77978328D02*
X188988345Y-77978328D01*
X188416917Y-76621185D02*
X188345489Y-76549757D01*
X188345489Y-76549757D02*
X188202632Y-76478328D01*
X188202632Y-76478328D02*
X187845489Y-76478328D01*
X187845489Y-76478328D02*
X187702632Y-76549757D01*
X187702632Y-76549757D02*
X187631203Y-76621185D01*
X187631203Y-76621185D02*
X187559774Y-76764042D01*
X187559774Y-76764042D02*
X187559774Y-76906900D01*
X187559774Y-76906900D02*
X187631203Y-77121185D01*
X187631203Y-77121185D02*
X188488346Y-77978328D01*
X188488346Y-77978328D02*
X187559774Y-77978328D01*
D10*
D11*
X188988345Y-86578328D02*
X189702631Y-86578328D01*
X189702631Y-86578328D02*
X189774059Y-87292614D01*
X189774059Y-87292614D02*
X189702631Y-87221185D01*
X189702631Y-87221185D02*
X189559774Y-87149757D01*
X189559774Y-87149757D02*
X189202631Y-87149757D01*
X189202631Y-87149757D02*
X189059774Y-87221185D01*
X189059774Y-87221185D02*
X188988345Y-87292614D01*
X188988345Y-87292614D02*
X188916916Y-87435471D01*
X188916916Y-87435471D02*
X188916916Y-87792614D01*
X188916916Y-87792614D02*
X188988345Y-87935471D01*
X188988345Y-87935471D02*
X189059774Y-88006900D01*
X189059774Y-88006900D02*
X189202631Y-88078328D01*
X189202631Y-88078328D02*
X189559774Y-88078328D01*
X189559774Y-88078328D02*
X189702631Y-88006900D01*
X189702631Y-88006900D02*
X189774059Y-87935471D01*
X188488345Y-86578328D02*
X187988345Y-88078328D01*
X187988345Y-88078328D02*
X187488345Y-86578328D01*
D10*
D11*
X218845488Y-125249757D02*
X218988346Y-125178328D01*
X218988346Y-125178328D02*
X219202631Y-125178328D01*
X219202631Y-125178328D02*
X219416917Y-125249757D01*
X219416917Y-125249757D02*
X219559774Y-125392614D01*
X219559774Y-125392614D02*
X219631203Y-125535471D01*
X219631203Y-125535471D02*
X219702631Y-125821185D01*
X219702631Y-125821185D02*
X219702631Y-126035471D01*
X219702631Y-126035471D02*
X219631203Y-126321185D01*
X219631203Y-126321185D02*
X219559774Y-126464042D01*
X219559774Y-126464042D02*
X219416917Y-126606900D01*
X219416917Y-126606900D02*
X219202631Y-126678328D01*
X219202631Y-126678328D02*
X219059774Y-126678328D01*
X219059774Y-126678328D02*
X218845488Y-126606900D01*
X218845488Y-126606900D02*
X218774060Y-126535471D01*
X218774060Y-126535471D02*
X218774060Y-126035471D01*
X218774060Y-126035471D02*
X219059774Y-126035471D01*
X218131203Y-126678328D02*
X218131203Y-125178328D01*
X218131203Y-125178328D02*
X217274060Y-126678328D01*
X217274060Y-126678328D02*
X217274060Y-125178328D01*
X216559774Y-126678328D02*
X216559774Y-125178328D01*
X216559774Y-125178328D02*
X216202631Y-125178328D01*
X216202631Y-125178328D02*
X215988345Y-125249757D01*
X215988345Y-125249757D02*
X215845488Y-125392614D01*
X215845488Y-125392614D02*
X215774059Y-125535471D01*
X215774059Y-125535471D02*
X215702631Y-125821185D01*
X215702631Y-125821185D02*
X215702631Y-126035471D01*
X215702631Y-126035471D02*
X215774059Y-126321185D01*
X215774059Y-126321185D02*
X215845488Y-126464042D01*
X215845488Y-126464042D02*
X215988345Y-126606900D01*
X215988345Y-126606900D02*
X216202631Y-126678328D01*
X216202631Y-126678328D02*
X216559774Y-126678328D01*
D10*
D11*
X212645488Y-100549757D02*
X212788346Y-100478328D01*
X212788346Y-100478328D02*
X213002631Y-100478328D01*
X213002631Y-100478328D02*
X213216917Y-100549757D01*
X213216917Y-100549757D02*
X213359774Y-100692614D01*
X213359774Y-100692614D02*
X213431203Y-100835471D01*
X213431203Y-100835471D02*
X213502631Y-101121185D01*
X213502631Y-101121185D02*
X213502631Y-101335471D01*
X213502631Y-101335471D02*
X213431203Y-101621185D01*
X213431203Y-101621185D02*
X213359774Y-101764042D01*
X213359774Y-101764042D02*
X213216917Y-101906900D01*
X213216917Y-101906900D02*
X213002631Y-101978328D01*
X213002631Y-101978328D02*
X212859774Y-101978328D01*
X212859774Y-101978328D02*
X212645488Y-101906900D01*
X212645488Y-101906900D02*
X212574060Y-101835471D01*
X212574060Y-101835471D02*
X212574060Y-101335471D01*
X212574060Y-101335471D02*
X212859774Y-101335471D01*
X211931203Y-101978328D02*
X211931203Y-100478328D01*
X211931203Y-100478328D02*
X211074060Y-101978328D01*
X211074060Y-101978328D02*
X211074060Y-100478328D01*
X210359774Y-101978328D02*
X210359774Y-100478328D01*
X210359774Y-100478328D02*
X210002631Y-100478328D01*
X210002631Y-100478328D02*
X209788345Y-100549757D01*
X209788345Y-100549757D02*
X209645488Y-100692614D01*
X209645488Y-100692614D02*
X209574059Y-100835471D01*
X209574059Y-100835471D02*
X209502631Y-101121185D01*
X209502631Y-101121185D02*
X209502631Y-101335471D01*
X209502631Y-101335471D02*
X209574059Y-101621185D01*
X209574059Y-101621185D02*
X209645488Y-101764042D01*
X209645488Y-101764042D02*
X209788345Y-101906900D01*
X209788345Y-101906900D02*
X210002631Y-101978328D01*
X210002631Y-101978328D02*
X210359774Y-101978328D01*
D10*
D11*
X189945488Y-71621185D02*
X189874060Y-71549757D01*
X189874060Y-71549757D02*
X189731203Y-71478328D01*
X189731203Y-71478328D02*
X189374060Y-71478328D01*
X189374060Y-71478328D02*
X189231203Y-71549757D01*
X189231203Y-71549757D02*
X189159774Y-71621185D01*
X189159774Y-71621185D02*
X189088345Y-71764042D01*
X189088345Y-71764042D02*
X189088345Y-71906900D01*
X189088345Y-71906900D02*
X189159774Y-72121185D01*
X189159774Y-72121185D02*
X190016917Y-72978328D01*
X190016917Y-72978328D02*
X189088345Y-72978328D01*
X187659774Y-72978328D02*
X188516917Y-72978328D01*
X188088346Y-72978328D02*
X188088346Y-71478328D01*
X188088346Y-71478328D02*
X188231203Y-71692614D01*
X188231203Y-71692614D02*
X188374060Y-71835471D01*
X188374060Y-71835471D02*
X188516917Y-71906900D01*
D10*
D11*
X211888345Y-103078328D02*
X212602631Y-103078328D01*
X212602631Y-103078328D02*
X212674059Y-103792614D01*
X212674059Y-103792614D02*
X212602631Y-103721185D01*
X212602631Y-103721185D02*
X212459774Y-103649757D01*
X212459774Y-103649757D02*
X212102631Y-103649757D01*
X212102631Y-103649757D02*
X211959774Y-103721185D01*
X211959774Y-103721185D02*
X211888345Y-103792614D01*
X211888345Y-103792614D02*
X211816916Y-103935471D01*
X211816916Y-103935471D02*
X211816916Y-104292614D01*
X211816916Y-104292614D02*
X211888345Y-104435471D01*
X211888345Y-104435471D02*
X211959774Y-104506900D01*
X211959774Y-104506900D02*
X212102631Y-104578328D01*
X212102631Y-104578328D02*
X212459774Y-104578328D01*
X212459774Y-104578328D02*
X212602631Y-104506900D01*
X212602631Y-104506900D02*
X212674059Y-104435471D01*
X211388345Y-103078328D02*
X210888345Y-104578328D01*
X210888345Y-104578328D02*
X210388345Y-103078328D01*
D10*
D11*
X180338059Y-105000936D02*
X180388567Y-104849413D01*
X180388567Y-104849413D02*
X180540090Y-104697890D01*
X180540090Y-104697890D02*
X180742120Y-104596875D01*
X180742120Y-104596875D02*
X180944151Y-104596875D01*
X180944151Y-104596875D02*
X181095674Y-104647383D01*
X181095674Y-104647383D02*
X181348212Y-104798906D01*
X181348212Y-104798906D02*
X181499735Y-104950428D01*
X181499735Y-104950428D02*
X181651258Y-105202967D01*
X181651258Y-105202967D02*
X181701765Y-105354489D01*
X181701765Y-105354489D02*
X181701765Y-105556520D01*
X181701765Y-105556520D02*
X181600750Y-105758551D01*
X181600750Y-105758551D02*
X181499735Y-105859566D01*
X181499735Y-105859566D02*
X181297704Y-105960581D01*
X181297704Y-105960581D02*
X181196689Y-105960581D01*
X181196689Y-105960581D02*
X180843136Y-105607028D01*
X180843136Y-105607028D02*
X181045166Y-105404997D01*
X180843136Y-106516165D02*
X179782475Y-105455505D01*
X179782475Y-105455505D02*
X180237044Y-107122256D01*
X180237044Y-107122256D02*
X179176384Y-106061596D01*
X179731967Y-107627333D02*
X178671307Y-106566673D01*
X178671307Y-106566673D02*
X178418769Y-106819211D01*
X178418769Y-106819211D02*
X178317754Y-107021241D01*
X178317754Y-107021241D02*
X178317754Y-107223272D01*
X178317754Y-107223272D02*
X178368262Y-107374795D01*
X178368262Y-107374795D02*
X178519784Y-107627333D01*
X178519784Y-107627333D02*
X178671307Y-107778856D01*
X178671307Y-107778856D02*
X178923845Y-107930379D01*
X178923845Y-107930379D02*
X179075368Y-107980886D01*
X179075368Y-107980886D02*
X179277399Y-107980886D01*
X179277399Y-107980886D02*
X179479429Y-107879871D01*
X179479429Y-107879871D02*
X179731967Y-107627333D01*
D10*
D11*
X179588345Y-100978328D02*
X180302631Y-100978328D01*
X180302631Y-100978328D02*
X180374059Y-101692614D01*
X180374059Y-101692614D02*
X180302631Y-101621185D01*
X180302631Y-101621185D02*
X180159774Y-101549757D01*
X180159774Y-101549757D02*
X179802631Y-101549757D01*
X179802631Y-101549757D02*
X179659774Y-101621185D01*
X179659774Y-101621185D02*
X179588345Y-101692614D01*
X179588345Y-101692614D02*
X179516916Y-101835471D01*
X179516916Y-101835471D02*
X179516916Y-102192614D01*
X179516916Y-102192614D02*
X179588345Y-102335471D01*
X179588345Y-102335471D02*
X179659774Y-102406900D01*
X179659774Y-102406900D02*
X179802631Y-102478328D01*
X179802631Y-102478328D02*
X180159774Y-102478328D01*
X180159774Y-102478328D02*
X180302631Y-102406900D01*
X180302631Y-102406900D02*
X180374059Y-102335471D01*
X179088345Y-100978328D02*
X178588345Y-102478328D01*
X178588345Y-102478328D02*
X178088345Y-100978328D01*
D12*
%TO.P,C2,1*%
%TO.N,5v*%
X199136000Y-121880000D03*
%TO.P,C2,2*%
%TO.N,GND5V*%
X199136000Y-119380000D03*
%TD*%
D13*
%TO.P,H2,1*%
%TO.N,N/C*%
X248900000Y-123700000D03*
%TD*%
D14*
%TO.P,5V1,1,Pin_1*%
%TO.N,5v*%
X212894888Y-121800000D03*
D15*
%TO.P,5V1,2,Pin_2*%
%TO.N,GND5V*%
X217894888Y-121800000D03*
%TD*%
D16*
%TO.P,R1,1*%
%TO.N,5v*%
X195580000Y-100320000D03*
D17*
%TO.P,R1,2*%
%TO.N,D25*%
X195580000Y-97780000D03*
%TD*%
D18*
%TO.P,C1,1*%
%TO.N,5v*%
X204296000Y-121793112D03*
D12*
%TO.P,C1,2*%
%TO.N,GND5V*%
X204296000Y-119293112D03*
%TD*%
D19*
%TO.P,J1,1,Pin_1*%
%TO.N,D25*%
X184207500Y-96242500D03*
D20*
%TO.P,J1,2,Pin_2*%
%TO.N,5v*%
X184207500Y-101242500D03*
%TO.P,J1,3,Pin_3*%
%TO.N,GND5V*%
X184207500Y-106242500D03*
%TD*%
D19*
%TO.P,J2,1,Pin_1*%
%TO.N,D21*%
X184200000Y-72040000D03*
D21*
%TO.P,J2,2,Pin_2*%
%TO.N,D22*%
X184200000Y-77040000D03*
%TO.P,J2,3,Pin_3*%
%TO.N,GND5V*%
X184200000Y-82040000D03*
%TO.P,J2,4,Pin_4*%
%TO.N,5v*%
X184200000Y-87040000D03*
%TD*%
D13*
%TO.P,H4,1*%
%TO.N,N/C*%
X248900000Y-58400000D03*
%TD*%
D22*
%TO.P,U1,1,GND*%
%TO.N,GND2*%
X247725000Y-78900000D03*
D16*
%TO.P,U1,2,VCC*%
%TO.N,3V3*%
X247725000Y-81440000D03*
%TO.P,U1,3,CE*%
%TO.N,D27*%
X245185000Y-78900000D03*
%TO.P,U1,4,~{CSN}*%
%TO.N,D26*%
X245185000Y-81440000D03*
%TO.P,U1,5,SCK*%
%TO.N,D14*%
X242645000Y-78900000D03*
%TO.P,U1,6,MOSI*%
%TO.N,D13*%
X242645000Y-81440000D03*
%TO.P,U1,7,MISO*%
%TO.N,D12*%
X240105000Y-78900000D03*
%TO.P,U1,8,IRQ*%
%TO.N,unconnected-(U1-IRQ-Pad8)*%
X240105000Y-81440000D03*
%TD*%
D23*
%TO.P,J_esp1,1,Pin_1*%
%TO.N,3V3*%
X227490500Y-103699000D03*
D24*
%TO.P,J_esp1,2,Pin_2*%
%TO.N,GND2*%
X227490500Y-101159000D03*
%TO.P,J_esp1,3,Pin_3*%
%TO.N,D15*%
X227490500Y-98619000D03*
%TO.P,J_esp1,4,Pin_4*%
%TO.N,D2*%
X227490500Y-96079000D03*
%TO.P,J_esp1,5,Pin_5*%
%TO.N,D4*%
X227490500Y-93539000D03*
%TO.P,J_esp1,6,Pin_6*%
%TO.N,RX2*%
X227490500Y-90999000D03*
%TO.P,J_esp1,7,Pin_7*%
%TO.N,TX2*%
X227490500Y-88459000D03*
%TO.P,J_esp1,8,Pin_8*%
%TO.N,D5*%
X227490500Y-85919000D03*
%TO.P,J_esp1,9,Pin_9*%
%TO.N,D18*%
X227490500Y-83379000D03*
%TO.P,J_esp1,10,Pin_10*%
%TO.N,D19*%
X227490500Y-80839000D03*
%TO.P,J_esp1,11,Pin_11*%
%TO.N,D21*%
X227490500Y-78299000D03*
%TO.P,J_esp1,12,Pin_12*%
%TO.N,RX0*%
X227490500Y-75759000D03*
%TO.P,J_esp1,13,Pin_13*%
%TO.N,TX0*%
X227490500Y-73219000D03*
%TO.P,J_esp1,14,Pin_14*%
%TO.N,D22*%
X227490500Y-70679000D03*
%TO.P,J_esp1,15,Pin_15*%
%TO.N,D23*%
X227490500Y-68139000D03*
%TD*%
D13*
%TO.P,H3,1*%
%TO.N,N/C*%
X180100000Y-123600000D03*
%TD*%
D25*
%TO.P,J_esp0,1,Pin_1*%
%TO.N,EN*%
X202950000Y-68060000D03*
D26*
%TO.P,J_esp0,2,Pin_2*%
%TO.N,VP*%
X202950000Y-70600000D03*
%TO.P,J_esp0,3,Pin_3*%
%TO.N,VN*%
X202950000Y-73140000D03*
D24*
%TO.P,J_esp0,4,Pin_4*%
%TO.N,D34*%
X202950000Y-75680000D03*
%TO.P,J_esp0,5,Pin_5*%
%TO.N,D35*%
X202950000Y-78220000D03*
%TO.P,J_esp0,6,Pin_6*%
%TO.N,D32*%
X202950000Y-80760000D03*
%TO.P,J_esp0,7,Pin_7*%
%TO.N,D33*%
X202950000Y-83300000D03*
%TO.P,J_esp0,8,Pin_8*%
%TO.N,D25*%
X202950000Y-85840000D03*
%TO.P,J_esp0,9,Pin_9*%
%TO.N,D26*%
X202950000Y-88380000D03*
%TO.P,J_esp0,10,Pin_10*%
%TO.N,D27*%
X202950000Y-90920000D03*
%TO.P,J_esp0,11,Pin_11*%
%TO.N,D14*%
X202950000Y-93460000D03*
%TO.P,J_esp0,12,Pin_12*%
%TO.N,D12*%
X202950000Y-96000000D03*
%TO.P,J_esp0,13,Pin_13*%
%TO.N,D13*%
X202950000Y-98540000D03*
%TO.P,J_esp0,14,Pin_14*%
%TO.N,GND5V*%
X202950000Y-101080000D03*
%TO.P,J_esp0,15,Pin_15*%
%TO.N,5v*%
X202950000Y-103620000D03*
%TD*%
D13*
%TO.P,H1,1*%
%TO.N,N/C*%
X180100000Y-58400000D03*
%TD*%
D27*
%TO.N,GND5V*%
X182372000Y-112776000D03*
X196088000Y-114300000D03*
%TO.N,D13*%
X215900000Y-107188000D03*
%TO.N,GND2*%
X251460000Y-88900000D03*
X236728000Y-89916000D03*
%TO.N,D27*%
X197400000Y-90700000D03*
X243840000Y-60960000D03*
%TO.N,D26*%
X239800000Y-98552000D03*
X214900000Y-91400000D03*
%TO.N,D14*%
X240550000Y-64250000D03*
X208200000Y-93400000D03*
%TO.N,D13*%
X242600000Y-94488000D03*
%TO.N,D12*%
X210700000Y-96100000D03*
X237730000Y-67070000D03*
%TD*%
D28*
%TO.N,D22*%
X179500000Y-76500000D02*
X180040000Y-77040000D01*
%TO.N,D21*%
X215392000Y-72192000D02*
X215392000Y-72136000D01*
%TO.N,GND5V*%
X177292000Y-112776000D02*
X176276000Y-111760000D01*
X207264000Y-102616000D02*
X205728000Y-101080000D01*
%TO.N,5v*%
X199216000Y-121800000D02*
X199136000Y-121880000D01*
%TO.N,GND5V*%
X204209112Y-119380000D02*
X204296000Y-119293112D01*
X209100000Y-117600000D02*
X207406888Y-119293112D01*
%TO.N,5v*%
X184207500Y-101242500D02*
X185130000Y-100320000D01*
%TO.N,D13*%
X215900000Y-100076000D02*
X214364000Y-98540000D01*
%TO.N,D26*%
X243332000Y-98552000D02*
X245185000Y-96699000D01*
%TO.N,GND2*%
X251460000Y-79248000D02*
X250444000Y-78232000D01*
%TO.N,GND5V*%
X217894888Y-118994888D02*
X216500000Y-117600000D01*
%TO.N,D22*%
X227490500Y-70679000D02*
X221047000Y-70679000D01*
X221047000Y-70679000D02*
X210820000Y-60452000D01*
X188448000Y-60452000D02*
X179500000Y-69400000D01*
X210820000Y-60452000D02*
X188448000Y-60452000D01*
X179500000Y-69400000D02*
X179500000Y-76500000D01*
X180040000Y-77040000D02*
X184200000Y-77040000D01*
%TO.N,D21*%
X227490500Y-78299000D02*
X221499000Y-78299000D01*
X221499000Y-78299000D02*
X215392000Y-72192000D01*
X215392000Y-72136000D02*
X206756000Y-63500000D01*
X206756000Y-63500000D02*
X192740000Y-63500000D01*
X192740000Y-63500000D02*
X184200000Y-72040000D01*
%TO.N,GND5V*%
X182372000Y-112776000D02*
X177292000Y-112776000D01*
X176276000Y-86224000D02*
X180460000Y-82040000D01*
X176276000Y-111760000D02*
X176276000Y-86224000D01*
X180460000Y-82040000D02*
X184200000Y-82040000D01*
X182372000Y-112776000D02*
X184207500Y-110940500D01*
X184207500Y-110940500D02*
X184207500Y-106242500D01*
X199136000Y-117348000D02*
X196088000Y-114300000D01*
X199136000Y-119380000D02*
X199136000Y-117348000D01*
X199136000Y-119380000D02*
X207264000Y-111252000D01*
X207264000Y-111252000D02*
X207264000Y-102616000D01*
X205728000Y-101080000D02*
X202950000Y-101080000D01*
%TO.N,5v*%
X185542500Y-101242500D02*
X189724000Y-105424000D01*
X197633399Y-121880000D02*
X189724000Y-113970601D01*
X199136000Y-121880000D02*
X197633399Y-121880000D01*
X189724000Y-113970601D02*
X189724000Y-105424000D01*
X212894888Y-121800000D02*
X199216000Y-121800000D01*
%TO.N,GND5V*%
X199136000Y-119380000D02*
X204209112Y-119380000D01*
X207406888Y-119293112D02*
X204296000Y-119293112D01*
%TO.N,5v*%
X184207500Y-101242500D02*
X185542500Y-101242500D01*
X184207500Y-101242500D02*
X182542500Y-101242500D01*
X182542500Y-101242500D02*
X179832000Y-98532000D01*
X179832000Y-89916000D02*
X182708000Y-87040000D01*
X179832000Y-98532000D02*
X179832000Y-89916000D01*
X182708000Y-87040000D02*
X184200000Y-87040000D01*
%TO.N,D25*%
X195580000Y-97780000D02*
X193040000Y-95240000D01*
X193040000Y-95240000D02*
X193040000Y-89916000D01*
X197116000Y-85840000D02*
X202950000Y-85840000D01*
X193040000Y-89916000D02*
X197116000Y-85840000D01*
X195580000Y-97780000D02*
X185745000Y-97780000D01*
X185745000Y-97780000D02*
X184207500Y-96242500D01*
%TO.N,5v*%
X185130000Y-100320000D02*
X195580000Y-100320000D01*
X195580000Y-100320000D02*
X198880000Y-103620000D01*
X198880000Y-103620000D02*
X202950000Y-103620000D01*
%TO.N,D13*%
X215900000Y-107188000D02*
X215900000Y-100076000D01*
X214364000Y-98540000D02*
X202950000Y-98540000D01*
X242600000Y-94488000D02*
X242645000Y-94443000D01*
X242645000Y-94443000D02*
X242645000Y-81440000D01*
%TO.N,D26*%
X239800000Y-98552000D02*
X243332000Y-98552000D01*
X245185000Y-96699000D02*
X245185000Y-81440000D01*
%TO.N,3V3*%
X247725000Y-81440000D02*
X247725000Y-97715000D01*
X247725000Y-97715000D02*
X241741000Y-103699000D01*
X241741000Y-103699000D02*
X227490500Y-103699000D01*
%TO.N,GND2*%
X250444000Y-78232000D02*
X248393000Y-78232000D01*
X248393000Y-78232000D02*
X247725000Y-78900000D01*
X251460000Y-88900000D02*
X251460000Y-79248000D01*
X235712000Y-89916000D02*
X236728000Y-89916000D01*
X234696000Y-90932000D02*
X235712000Y-89916000D01*
X227490500Y-101159000D02*
X230090500Y-101159000D01*
X230090500Y-101159000D02*
X234696000Y-96553500D01*
X234696000Y-96553500D02*
X234696000Y-90932000D01*
%TO.N,5v*%
X212894888Y-121800000D02*
X212894888Y-122005112D01*
%TO.N,GND5V*%
X217894888Y-121800000D02*
X217894888Y-118994888D01*
X216500000Y-117600000D02*
X209100000Y-117600000D01*
%TO.N,D27*%
X202730000Y-90700000D02*
X202950000Y-90920000D01*
X243840000Y-60960000D02*
X245185000Y-62305000D01*
X197400000Y-90700000D02*
X202730000Y-90700000D01*
X245185000Y-62305000D02*
X245185000Y-78900000D01*
%TO.N,D26*%
X211880000Y-88380000D02*
X202950000Y-88380000D01*
X214900000Y-91400000D02*
X211880000Y-88380000D01*
%TO.N,D14*%
X242645000Y-73845000D02*
X242700000Y-73900000D01*
X208140000Y-93460000D02*
X208200000Y-93400000D01*
X202950000Y-93460000D02*
X208140000Y-93460000D01*
X240550000Y-64250000D02*
X242645000Y-66345000D01*
X242645000Y-66345000D02*
X242645000Y-73845000D01*
X242645000Y-78900000D02*
X242645000Y-66345000D01*
%TO.N,D12*%
X237730000Y-67070000D02*
X240100000Y-69440000D01*
X202950000Y-96000000D02*
X210600000Y-96000000D01*
X240105000Y-69445000D02*
X240105000Y-78900000D01*
X240100000Y-69440000D02*
X240100000Y-75600000D01*
X210600000Y-96000000D02*
X210700000Y-96100000D01*
X237730000Y-67070000D02*
X240105000Y-69445000D01*
%TD*%
M02*
