%TF.GenerationSoftware,KiCad,Pcbnew,6.0.11+dfsg-1*%
%TF.CreationDate,2023-05-31T09:31:01-05:00*%
%TF.ProjectId,ambient_measurement,616d6269-656e-4745-9f6d-656173757265,rev?*%
%TF.SameCoordinates,Original*%
%TF.FileFunction,Legend,Bot*%
%TF.FilePolarity,Positive*%
%FSLAX46Y46*%
G04 Gerber Fmt 4.6, Leading zero omitted, Abs format (unit mm)*
G04 Created by KiCad (PCBNEW 6.0.11+dfsg-1) date 2023-05-31 09:31:01*
%MOMM*%
%LPD*%
G01*
G04 APERTURE LIST*
%ADD10C,0.150000*%
%ADD11C,0.120000*%
G04 APERTURE END LIST*
D10*
%TO.C,H2*%
X180628214Y-120452380D02*
X180628214Y-119452380D01*
X180628214Y-119928571D02*
X180056786Y-119928571D01*
X180056786Y-120452380D02*
X180056786Y-119452380D01*
X179628214Y-119547619D02*
X179580595Y-119500000D01*
X179485357Y-119452380D01*
X179247262Y-119452380D01*
X179152024Y-119500000D01*
X179104405Y-119547619D01*
X179056786Y-119642857D01*
X179056786Y-119738095D01*
X179104405Y-119880952D01*
X179675833Y-120452380D01*
X179056786Y-120452380D01*
%TO.C,5V1*%
X218458088Y-114262380D02*
X218934279Y-114262380D01*
X218981898Y-114738571D01*
X218934279Y-114690952D01*
X218839041Y-114643333D01*
X218600945Y-114643333D01*
X218505707Y-114690952D01*
X218458088Y-114738571D01*
X218410469Y-114833809D01*
X218410469Y-115071904D01*
X218458088Y-115167142D01*
X218505707Y-115214761D01*
X218600945Y-115262380D01*
X218839041Y-115262380D01*
X218934279Y-115214761D01*
X218981898Y-115167142D01*
X218124755Y-114262380D02*
X217791422Y-115262380D01*
X217458088Y-114262380D01*
X216600945Y-115262380D02*
X217172374Y-115262380D01*
X216886660Y-115262380D02*
X216886660Y-114262380D01*
X216981898Y-114405238D01*
X217077136Y-114500476D01*
X217172374Y-114548095D01*
%TO.C,R1*%
X238038690Y-98883333D02*
X237562500Y-98550000D01*
X238038690Y-98311904D02*
X237038690Y-98311904D01*
X237038690Y-98692857D01*
X237086310Y-98788095D01*
X237133929Y-98835714D01*
X237229167Y-98883333D01*
X237372024Y-98883333D01*
X237467262Y-98835714D01*
X237514881Y-98788095D01*
X237562500Y-98692857D01*
X237562500Y-98311904D01*
X238038690Y-99835714D02*
X238038690Y-99264285D01*
X238038690Y-99550000D02*
X237038690Y-99550000D01*
X237181548Y-99454761D01*
X237276786Y-99359523D01*
X237324405Y-99264285D01*
%TO.C,C1*%
X223888088Y-118607142D02*
X223935707Y-118654761D01*
X224078564Y-118702380D01*
X224173802Y-118702380D01*
X224316660Y-118654761D01*
X224411898Y-118559523D01*
X224459517Y-118464285D01*
X224507136Y-118273809D01*
X224507136Y-118130952D01*
X224459517Y-117940476D01*
X224411898Y-117845238D01*
X224316660Y-117750000D01*
X224173802Y-117702380D01*
X224078564Y-117702380D01*
X223935707Y-117750000D01*
X223888088Y-117797619D01*
X222935707Y-118702380D02*
X223507136Y-118702380D01*
X223221422Y-118702380D02*
X223221422Y-117702380D01*
X223316660Y-117845238D01*
X223411898Y-117940476D01*
X223507136Y-117988095D01*
%TO.C,J1*%
X236811190Y-95909166D02*
X237525476Y-95909166D01*
X237668333Y-95861547D01*
X237763571Y-95766309D01*
X237811190Y-95623452D01*
X237811190Y-95528214D01*
X237811190Y-96909166D02*
X237811190Y-96337738D01*
X237811190Y-96623452D02*
X236811190Y-96623452D01*
X236954048Y-96528214D01*
X237049286Y-96432976D01*
X237096905Y-96337738D01*
%TO.C,J2*%
X236868690Y-79206666D02*
X237582976Y-79206666D01*
X237725833Y-79159047D01*
X237821071Y-79063809D01*
X237868690Y-78920952D01*
X237868690Y-78825714D01*
X236963929Y-79635238D02*
X236916310Y-79682857D01*
X236868690Y-79778095D01*
X236868690Y-80016190D01*
X236916310Y-80111428D01*
X236963929Y-80159047D01*
X237059167Y-80206666D01*
X237154405Y-80206666D01*
X237297262Y-80159047D01*
X237868690Y-79587619D01*
X237868690Y-80206666D01*
%TO.C,H4*%
X180628214Y-55152380D02*
X180628214Y-54152380D01*
X180628214Y-54628571D02*
X180056786Y-54628571D01*
X180056786Y-55152380D02*
X180056786Y-54152380D01*
X179152024Y-54485714D02*
X179152024Y-55152380D01*
X179390119Y-54104761D02*
X179628214Y-54819047D01*
X179009167Y-54819047D01*
%TO.C,U1*%
X177493690Y-78138095D02*
X178303214Y-78138095D01*
X178398452Y-78185714D01*
X178446071Y-78233333D01*
X178493690Y-78328571D01*
X178493690Y-78519047D01*
X178446071Y-78614285D01*
X178398452Y-78661904D01*
X178303214Y-78709523D01*
X177493690Y-78709523D01*
X178493690Y-79709523D02*
X178493690Y-79138095D01*
X178493690Y-79423809D02*
X177493690Y-79423809D01*
X177636548Y-79328571D01*
X177731786Y-79233333D01*
X177779405Y-79138095D01*
%TO.C,J_esp1*%
X206135929Y-87519000D02*
X205421643Y-87519000D01*
X205278786Y-87566619D01*
X205183548Y-87661857D01*
X205135929Y-87804714D01*
X205135929Y-87899952D01*
X205040690Y-87280904D02*
X205040690Y-86519000D01*
X205183548Y-85899952D02*
X205135929Y-85995190D01*
X205135929Y-86185666D01*
X205183548Y-86280904D01*
X205278786Y-86328523D01*
X205659738Y-86328523D01*
X205754976Y-86280904D01*
X205802595Y-86185666D01*
X205802595Y-85995190D01*
X205754976Y-85899952D01*
X205659738Y-85852333D01*
X205564500Y-85852333D01*
X205469262Y-86328523D01*
X205183548Y-85471380D02*
X205135929Y-85376142D01*
X205135929Y-85185666D01*
X205183548Y-85090428D01*
X205278786Y-85042809D01*
X205326405Y-85042809D01*
X205421643Y-85090428D01*
X205469262Y-85185666D01*
X205469262Y-85328523D01*
X205516881Y-85423761D01*
X205612119Y-85471380D01*
X205659738Y-85471380D01*
X205754976Y-85423761D01*
X205802595Y-85328523D01*
X205802595Y-85185666D01*
X205754976Y-85090428D01*
X205802595Y-84614238D02*
X204802595Y-84614238D01*
X205754976Y-84614238D02*
X205802595Y-84519000D01*
X205802595Y-84328523D01*
X205754976Y-84233285D01*
X205707357Y-84185666D01*
X205612119Y-84138047D01*
X205326405Y-84138047D01*
X205231167Y-84185666D01*
X205183548Y-84233285D01*
X205135929Y-84328523D01*
X205135929Y-84519000D01*
X205183548Y-84614238D01*
X205135929Y-83185666D02*
X205135929Y-83757095D01*
X205135929Y-83471380D02*
X206135929Y-83471380D01*
X205993071Y-83566619D01*
X205897833Y-83661857D01*
X205850214Y-83757095D01*
%TO.C,H3*%
X249428214Y-120352380D02*
X249428214Y-119352380D01*
X249428214Y-119828571D02*
X248856786Y-119828571D01*
X248856786Y-120352380D02*
X248856786Y-119352380D01*
X248475833Y-119352380D02*
X247856786Y-119352380D01*
X248190119Y-119733333D01*
X248047262Y-119733333D01*
X247952024Y-119780952D01*
X247904405Y-119828571D01*
X247856786Y-119923809D01*
X247856786Y-120161904D01*
X247904405Y-120257142D01*
X247952024Y-120304761D01*
X248047262Y-120352380D01*
X248332976Y-120352380D01*
X248428214Y-120304761D01*
X248475833Y-120257142D01*
%TO.C,J_esp0*%
X220881429Y-88300000D02*
X220167143Y-88300000D01*
X220024286Y-88347619D01*
X219929048Y-88442857D01*
X219881429Y-88585714D01*
X219881429Y-88680952D01*
X219786190Y-88061904D02*
X219786190Y-87300000D01*
X219929048Y-86680952D02*
X219881429Y-86776190D01*
X219881429Y-86966666D01*
X219929048Y-87061904D01*
X220024286Y-87109523D01*
X220405238Y-87109523D01*
X220500476Y-87061904D01*
X220548095Y-86966666D01*
X220548095Y-86776190D01*
X220500476Y-86680952D01*
X220405238Y-86633333D01*
X220310000Y-86633333D01*
X220214762Y-87109523D01*
X219929048Y-86252380D02*
X219881429Y-86157142D01*
X219881429Y-85966666D01*
X219929048Y-85871428D01*
X220024286Y-85823809D01*
X220071905Y-85823809D01*
X220167143Y-85871428D01*
X220214762Y-85966666D01*
X220214762Y-86109523D01*
X220262381Y-86204761D01*
X220357619Y-86252380D01*
X220405238Y-86252380D01*
X220500476Y-86204761D01*
X220548095Y-86109523D01*
X220548095Y-85966666D01*
X220500476Y-85871428D01*
X220548095Y-85395238D02*
X219548095Y-85395238D01*
X220500476Y-85395238D02*
X220548095Y-85300000D01*
X220548095Y-85109523D01*
X220500476Y-85014285D01*
X220452857Y-84966666D01*
X220357619Y-84919047D01*
X220071905Y-84919047D01*
X219976667Y-84966666D01*
X219929048Y-85014285D01*
X219881429Y-85109523D01*
X219881429Y-85300000D01*
X219929048Y-85395238D01*
X220881429Y-84300000D02*
X220881429Y-84204761D01*
X220833810Y-84109523D01*
X220786190Y-84061904D01*
X220690952Y-84014285D01*
X220500476Y-83966666D01*
X220262381Y-83966666D01*
X220071905Y-84014285D01*
X219976667Y-84061904D01*
X219929048Y-84109523D01*
X219881429Y-84204761D01*
X219881429Y-84300000D01*
X219929048Y-84395238D01*
X219976667Y-84442857D01*
X220071905Y-84490476D01*
X220262381Y-84538095D01*
X220500476Y-84538095D01*
X220690952Y-84490476D01*
X220786190Y-84442857D01*
X220833810Y-84395238D01*
X220881429Y-84300000D01*
%TO.C,H1*%
X249428214Y-55152380D02*
X249428214Y-54152380D01*
X249428214Y-54628571D02*
X248856786Y-54628571D01*
X248856786Y-55152380D02*
X248856786Y-54152380D01*
X247856786Y-55152380D02*
X248428214Y-55152380D01*
X248142500Y-55152380D02*
X248142500Y-54152380D01*
X248237738Y-54295238D01*
X248332976Y-54390476D01*
X248428214Y-54438095D01*
D11*
%TO.C,5V1*%
X207671422Y-120600000D02*
X207671422Y-115500000D01*
X207671422Y-125500000D02*
X207671422Y-125450000D01*
X218521422Y-115500000D02*
X218521422Y-128100000D01*
X208171422Y-128100000D02*
X208171422Y-127150000D01*
X207671422Y-127400000D02*
X207671422Y-125500000D01*
X207671422Y-125450000D02*
X208171422Y-125700000D01*
X207671422Y-115500000D02*
X218521422Y-115500000D01*
X218521422Y-128100000D02*
X208171422Y-128100000D01*
X208171422Y-120300000D02*
X207671422Y-120600000D01*
X208171422Y-125700000D02*
X208171422Y-120300000D01*
X208171422Y-127150000D02*
X207671422Y-127400000D01*
%TO.C,R1*%
X236586310Y-100320000D02*
G75*
G03*
X236586310Y-100320000I-920000J0D01*
G01*
X235666310Y-99400000D02*
X235666310Y-98780000D01*
%TO.C,C1*%
X222640422Y-123040000D02*
X222640422Y-124348000D01*
X222960422Y-123040000D02*
X222960422Y-124468000D01*
X222720422Y-123040000D02*
X222720422Y-124382000D01*
X221720422Y-120347000D02*
X221720422Y-120960000D01*
X222520422Y-123040000D02*
X222520422Y-124290000D01*
X222200422Y-119905000D02*
X222200422Y-120960000D01*
X222520422Y-119710000D02*
X222520422Y-120960000D01*
X223481422Y-119431000D02*
X223481422Y-120960000D01*
X223121422Y-123040000D02*
X223121422Y-124511000D01*
X223201422Y-123040000D02*
X223201422Y-124528000D01*
X222400422Y-123040000D02*
X222400422Y-124224000D01*
X221960422Y-123040000D02*
X221960422Y-123901000D01*
X222280422Y-123040000D02*
X222280422Y-124149000D01*
X222880422Y-123040000D02*
X222880422Y-124442000D01*
X222040422Y-120029000D02*
X222040422Y-120960000D01*
X222280422Y-119851000D02*
X222280422Y-120960000D01*
X223481422Y-123040000D02*
X223481422Y-124569000D01*
X222320422Y-119825000D02*
X222320422Y-120960000D01*
X221640422Y-120446000D02*
X221640422Y-120960000D01*
X223041422Y-119509000D02*
X223041422Y-120960000D01*
X222480422Y-123040000D02*
X222480422Y-124268000D01*
X221520422Y-120617000D02*
X221520422Y-120960000D01*
X222360422Y-123040000D02*
X222360422Y-124200000D01*
X226276197Y-120275000D02*
X226276197Y-120775000D01*
X223281422Y-119457000D02*
X223281422Y-120960000D01*
X222920422Y-119545000D02*
X222920422Y-120960000D01*
X221280422Y-121085000D02*
X221280422Y-122915000D01*
X223121422Y-119489000D02*
X223121422Y-120960000D01*
X223321422Y-119450000D02*
X223321422Y-120960000D01*
X223041422Y-123040000D02*
X223041422Y-124491000D01*
X221720422Y-123040000D02*
X221720422Y-123653000D01*
X222360422Y-119800000D02*
X222360422Y-120960000D01*
X221440422Y-123040000D02*
X221440422Y-123251000D01*
X222120422Y-119965000D02*
X222120422Y-120960000D01*
X223161422Y-119480000D02*
X223161422Y-120960000D01*
X223681422Y-119420000D02*
X223681422Y-124580000D01*
X223241422Y-123040000D02*
X223241422Y-124536000D01*
X221600422Y-120500000D02*
X221600422Y-120960000D01*
X222240422Y-123040000D02*
X222240422Y-124122000D01*
X223721422Y-119420000D02*
X223721422Y-124580000D01*
X221760422Y-123040000D02*
X221760422Y-123699000D01*
X221680422Y-123040000D02*
X221680422Y-123605000D01*
X222960422Y-119532000D02*
X222960422Y-120960000D01*
X222720422Y-119618000D02*
X222720422Y-120960000D01*
X222560422Y-123040000D02*
X222560422Y-124310000D01*
X222080422Y-119996000D02*
X222080422Y-120960000D01*
X222080422Y-123040000D02*
X222080422Y-124004000D01*
X222040422Y-123040000D02*
X222040422Y-123971000D01*
X221840422Y-120215000D02*
X221840422Y-120960000D01*
X221240422Y-121195000D02*
X221240422Y-122805000D01*
X223000422Y-123040000D02*
X223000422Y-124480000D01*
X226526197Y-120525000D02*
X226026197Y-120525000D01*
X222200422Y-123040000D02*
X222200422Y-124095000D01*
X222000422Y-120063000D02*
X222000422Y-120960000D01*
X222440422Y-123040000D02*
X222440422Y-124247000D01*
X222480422Y-119732000D02*
X222480422Y-120960000D01*
X223361422Y-119444000D02*
X223361422Y-120960000D01*
X222600422Y-123040000D02*
X222600422Y-124329000D01*
X222160422Y-123040000D02*
X222160422Y-124065000D01*
X222160422Y-119935000D02*
X222160422Y-120960000D01*
X223441422Y-119435000D02*
X223441422Y-120960000D01*
X221600422Y-123040000D02*
X221600422Y-123500000D01*
X222880422Y-119558000D02*
X222880422Y-120960000D01*
X222240422Y-119878000D02*
X222240422Y-120960000D01*
X221120422Y-121716000D02*
X221120422Y-122284000D01*
X222120422Y-123040000D02*
X222120422Y-124035000D01*
X221360422Y-120902000D02*
X221360422Y-123098000D01*
X222400422Y-119776000D02*
X222400422Y-120960000D01*
X223561422Y-119424000D02*
X223561422Y-124576000D01*
X221680422Y-120395000D02*
X221680422Y-120960000D01*
X223361422Y-123040000D02*
X223361422Y-124556000D01*
X223081422Y-123040000D02*
X223081422Y-124501000D01*
X222600422Y-119671000D02*
X222600422Y-120960000D01*
X221800422Y-120257000D02*
X221800422Y-120960000D01*
X221560422Y-120557000D02*
X221560422Y-120960000D01*
X221880422Y-120174000D02*
X221880422Y-120960000D01*
X221480422Y-120681000D02*
X221480422Y-120960000D01*
X223241422Y-119464000D02*
X223241422Y-120960000D01*
X222760422Y-119602000D02*
X222760422Y-120960000D01*
X221560422Y-123040000D02*
X221560422Y-123443000D01*
X221200422Y-121323000D02*
X221200422Y-122677000D01*
X223521422Y-119427000D02*
X223521422Y-124573000D01*
X221480422Y-123040000D02*
X221480422Y-123319000D01*
X221440422Y-120749000D02*
X221440422Y-120960000D01*
X221880422Y-123040000D02*
X221880422Y-123826000D01*
X222440422Y-119753000D02*
X222440422Y-120960000D01*
X221840422Y-123040000D02*
X221840422Y-123785000D01*
X221960422Y-120099000D02*
X221960422Y-120960000D01*
X223081422Y-119499000D02*
X223081422Y-120960000D01*
X223401422Y-119439000D02*
X223401422Y-120960000D01*
X221520422Y-123040000D02*
X221520422Y-123383000D01*
X222320422Y-123040000D02*
X222320422Y-124175000D01*
X223281422Y-123040000D02*
X223281422Y-124543000D01*
X221920422Y-123040000D02*
X221920422Y-123864000D01*
X223441422Y-123040000D02*
X223441422Y-124565000D01*
X223000422Y-119520000D02*
X223000422Y-120960000D01*
X221320422Y-120989000D02*
X221320422Y-123011000D01*
X222000422Y-123040000D02*
X222000422Y-123937000D01*
X222800422Y-123040000D02*
X222800422Y-124414000D01*
X221640422Y-123040000D02*
X221640422Y-123554000D01*
X222920422Y-123040000D02*
X222920422Y-124455000D01*
X223161422Y-123040000D02*
X223161422Y-124520000D01*
X223321422Y-123040000D02*
X223321422Y-124550000D01*
X222680422Y-123040000D02*
X222680422Y-124365000D01*
X221800422Y-123040000D02*
X221800422Y-123743000D01*
X222840422Y-123040000D02*
X222840422Y-124428000D01*
X221920422Y-120136000D02*
X221920422Y-120960000D01*
X222640422Y-119652000D02*
X222640422Y-120960000D01*
X221760422Y-120301000D02*
X221760422Y-120960000D01*
X222840422Y-119572000D02*
X222840422Y-120960000D01*
X223201422Y-119472000D02*
X223201422Y-120960000D01*
X222680422Y-119635000D02*
X222680422Y-120960000D01*
X222800422Y-119586000D02*
X222800422Y-120960000D01*
X221400422Y-120822000D02*
X221400422Y-123178000D01*
X223401422Y-123040000D02*
X223401422Y-124561000D01*
X222760422Y-123040000D02*
X222760422Y-124398000D01*
X223601422Y-119422000D02*
X223601422Y-124578000D01*
X223641422Y-119421000D02*
X223641422Y-124579000D01*
X222560422Y-119690000D02*
X222560422Y-120960000D01*
X221160422Y-121482000D02*
X221160422Y-122518000D01*
X226341422Y-122000000D02*
G75*
G03*
X226341422Y-122000000I-2620000J0D01*
G01*
%TO.C,J1*%
X238438810Y-108862500D02*
X251178810Y-108862500D01*
X238438810Y-93622500D02*
X251178810Y-93622500D01*
X238438810Y-93622500D02*
X251178810Y-93622500D01*
X238438810Y-108862500D02*
X251178810Y-108862500D01*
X241058810Y-93242500D02*
X238058810Y-93242500D01*
X251178810Y-93622500D02*
X251178810Y-108862500D01*
X238438810Y-93622500D02*
X238438810Y-108862500D01*
X251178810Y-93622500D02*
X251178810Y-108862500D01*
X238438810Y-93622500D02*
X238438810Y-108862500D01*
X238058810Y-93242500D02*
X238058810Y-96242500D01*
%TO.C,J2*%
X250216310Y-90240000D02*
X249916310Y-89690000D01*
X250866310Y-89690000D02*
X250866310Y-69390000D01*
X249916310Y-89690000D02*
X250866310Y-89690000D01*
X238266310Y-90190000D02*
X243316310Y-90190000D01*
X243316310Y-90190000D02*
X243066310Y-89690000D01*
X250866310Y-69390000D02*
X238266310Y-69390000D01*
X248466310Y-89690000D02*
X248166310Y-90240000D01*
X238266310Y-69390000D02*
X238266310Y-90190000D01*
X243066310Y-89690000D02*
X248466310Y-89690000D01*
X248166310Y-90240000D02*
X250216310Y-90240000D01*
%TO.C,U1*%
X190185310Y-82964000D02*
X190185310Y-77630000D01*
X182311310Y-77884000D02*
X182311310Y-77884000D01*
X194391310Y-77300000D02*
X178941310Y-77300000D01*
X178941310Y-77300000D02*
X178941310Y-106500000D01*
X178941310Y-106500000D02*
X194391310Y-106500000D01*
X179517310Y-77630000D02*
X179517310Y-82964000D01*
X190185310Y-77630000D02*
X190185310Y-77630000D01*
X190185310Y-77630000D02*
X179517310Y-77630000D01*
X179517310Y-77630000D02*
X179517310Y-77630000D01*
X179517310Y-82964000D02*
X190185310Y-82964000D01*
X194391310Y-106500000D02*
X194391310Y-77300000D01*
X178941310Y-77300000D02*
X178941310Y-77300000D01*
X182311310Y-80170000D02*
X182311310Y-77884000D01*
X180025310Y-80170000D02*
X182311310Y-80170000D01*
%TO.C,J_esp1*%
X201825810Y-106609000D02*
X204235810Y-106609000D01*
X201405810Y-106179000D02*
X199595810Y-106179000D01*
X203935810Y-65529000D02*
X203935810Y-106309000D01*
X199595810Y-106309000D02*
X198615810Y-106309000D01*
X198615810Y-89839000D02*
X197115810Y-89839000D01*
X201405810Y-106309000D02*
X201405810Y-106179000D01*
X197115810Y-81999000D02*
X198615810Y-81999000D01*
X199595810Y-106179000D02*
X199595810Y-106309000D01*
X201405810Y-65529000D02*
X203935810Y-65529000D01*
X198615810Y-106309000D02*
X198615810Y-89839000D01*
X199595810Y-65529000D02*
X199595810Y-65659000D01*
X198615810Y-81999000D02*
X198615810Y-65529000D01*
X204235810Y-106609000D02*
X204235810Y-104199000D01*
X198615810Y-65529000D02*
X199595810Y-65529000D01*
X199595810Y-65659000D02*
X201405810Y-65659000D01*
X197115810Y-89839000D02*
X197115810Y-81999000D01*
X201405810Y-65659000D02*
X201405810Y-65529000D01*
X203935810Y-106309000D02*
X201405810Y-106309000D01*
%TO.C,J_esp0*%
X228476310Y-106230000D02*
X227496310Y-106230000D01*
X227496310Y-106230000D02*
X227496310Y-106100000D01*
X222856310Y-65150000D02*
X222856310Y-67560000D01*
X225266310Y-65150000D02*
X222856310Y-65150000D01*
X228476310Y-89760000D02*
X228476310Y-106230000D01*
X228476310Y-65450000D02*
X228476310Y-81920000D01*
X229976310Y-89760000D02*
X228476310Y-89760000D01*
X223156310Y-106230000D02*
X223156310Y-65450000D01*
X227496310Y-106100000D02*
X225686310Y-106100000D01*
X227496310Y-65450000D02*
X228476310Y-65450000D01*
X225686310Y-65450000D02*
X225686310Y-65580000D01*
X229976310Y-81920000D02*
X229976310Y-89760000D01*
X225686310Y-65580000D02*
X227496310Y-65580000D01*
X223156310Y-65450000D02*
X225686310Y-65450000D01*
X225686310Y-106230000D02*
X223156310Y-106230000D01*
X227496310Y-65580000D02*
X227496310Y-65450000D01*
X228476310Y-81920000D02*
X229976310Y-81920000D01*
X225686310Y-106100000D02*
X225686310Y-106230000D01*
%TD*%
M02*
