%TF.GenerationSoftware,KiCad,Pcbnew,6.0.11+dfsg-1*%
%TF.CreationDate,2023-05-31T09:31:01-05:00*%
%TF.ProjectId,ambient_measurement,616d6269-656e-4745-9f6d-656173757265,rev?*%
%TF.SameCoordinates,Original*%
%TF.FileFunction,Copper,L1,Top*%
%TF.FilePolarity,Positive*%
%FSLAX46Y46*%
G04 Gerber Fmt 4.6, Leading zero omitted, Abs format (unit mm)*
G04 Created by KiCad (PCBNEW 6.0.11+dfsg-1) date 2023-05-31 09:31:01*
%MOMM*%
%LPD*%
G01*
G04 APERTURE LIST*
%ADD10C,0.300000*%
%TA.AperFunction,NonConductor*%
%ADD11C,0.300000*%
%TD*%
%TA.AperFunction,ComponentPad*%
%ADD12C,5.400000*%
%TD*%
%TA.AperFunction,ComponentPad*%
%ADD13R,2.125000X3.960000*%
%TD*%
%TA.AperFunction,ComponentPad*%
%ADD14O,2.125000X3.960000*%
%TD*%
%TA.AperFunction,ComponentPad*%
%ADD15O,2.125000X2.125000*%
%TD*%
%TA.AperFunction,ComponentPad*%
%ADD16C,2.125000*%
%TD*%
%TA.AperFunction,ComponentPad*%
%ADD17R,1.600000X1.600000*%
%TD*%
%TA.AperFunction,ComponentPad*%
%ADD18C,1.600000*%
%TD*%
%TA.AperFunction,ComponentPad*%
%ADD19R,3.960000X3.960000*%
%TD*%
%TA.AperFunction,ComponentPad*%
%ADD20C,3.960000*%
%TD*%
%TA.AperFunction,ComponentPad*%
%ADD21O,3.960000X3.960000*%
%TD*%
%TA.AperFunction,ComponentPad*%
%ADD22R,2.125000X2.125000*%
%TD*%
%TA.AperFunction,ComponentPad*%
%ADD23R,2.540000X2.000000*%
%TD*%
%TA.AperFunction,ComponentPad*%
%ADD24R,2.540000X1.950000*%
%TD*%
%TA.AperFunction,ComponentPad*%
%ADD25R,2.540000X2.100000*%
%TD*%
%TA.AperFunction,ComponentPad*%
%ADD26R,2.540000X1.740000*%
%TD*%
%TA.AperFunction,ViaPad*%
%ADD27C,2.125000*%
%TD*%
%TA.AperFunction,Conductor*%
%ADD28C,1.330000*%
%TD*%
G04 APERTURE END LIST*
D10*
D11*
X215923452Y-100550000D02*
X215780595Y-100478571D01*
X215566310Y-100478571D01*
X215352024Y-100550000D01*
X215209167Y-100692857D01*
X215137738Y-100835714D01*
X215066310Y-101121428D01*
X215066310Y-101335714D01*
X215137738Y-101621428D01*
X215209167Y-101764285D01*
X215352024Y-101907142D01*
X215566310Y-101978571D01*
X215709167Y-101978571D01*
X215923452Y-101907142D01*
X215994881Y-101835714D01*
X215994881Y-101335714D01*
X215709167Y-101335714D01*
X216637738Y-101978571D02*
X216637738Y-100478571D01*
X217494881Y-101978571D01*
X217494881Y-100478571D01*
X218209167Y-101978571D02*
X218209167Y-100478571D01*
X218566310Y-100478571D01*
X218780595Y-100550000D01*
X218923452Y-100692857D01*
X218994881Y-100835714D01*
X219066310Y-101121428D01*
X219066310Y-101335714D01*
X218994881Y-101621428D01*
X218923452Y-101764285D01*
X218780595Y-101907142D01*
X218566310Y-101978571D01*
X218209167Y-101978571D01*
D10*
D11*
X216680595Y-103078571D02*
X215966310Y-103078571D01*
X215894881Y-103792857D01*
X215966310Y-103721428D01*
X216109167Y-103650000D01*
X216466310Y-103650000D01*
X216609167Y-103721428D01*
X216680595Y-103792857D01*
X216752024Y-103935714D01*
X216752024Y-104292857D01*
X216680595Y-104435714D01*
X216609167Y-104507142D01*
X216466310Y-104578571D01*
X216109167Y-104578571D01*
X215966310Y-104507142D01*
X215894881Y-104435714D01*
X217180595Y-103078571D02*
X217680595Y-104578571D01*
X218180595Y-103078571D01*
D10*
D11*
X209723452Y-125250000D02*
X209580595Y-125178571D01*
X209366310Y-125178571D01*
X209152024Y-125250000D01*
X209009167Y-125392857D01*
X208937738Y-125535714D01*
X208866310Y-125821428D01*
X208866310Y-126035714D01*
X208937738Y-126321428D01*
X209009167Y-126464285D01*
X209152024Y-126607142D01*
X209366310Y-126678571D01*
X209509167Y-126678571D01*
X209723452Y-126607142D01*
X209794881Y-126535714D01*
X209794881Y-126035714D01*
X209509167Y-126035714D01*
X210437738Y-126678571D02*
X210437738Y-125178571D01*
X211294881Y-126678571D01*
X211294881Y-125178571D01*
X212009167Y-126678571D02*
X212009167Y-125178571D01*
X212366310Y-125178571D01*
X212580595Y-125250000D01*
X212723452Y-125392857D01*
X212794881Y-125535714D01*
X212866310Y-125821428D01*
X212866310Y-126035714D01*
X212794881Y-126321428D01*
X212723452Y-126464285D01*
X212580595Y-126607142D01*
X212366310Y-126678571D01*
X212009167Y-126678571D01*
D10*
D11*
X215680595Y-125278571D02*
X214966310Y-125278571D01*
X214894881Y-125992857D01*
X214966310Y-125921428D01*
X215109167Y-125850000D01*
X215466310Y-125850000D01*
X215609167Y-125921428D01*
X215680595Y-125992857D01*
X215752024Y-126135714D01*
X215752024Y-126492857D01*
X215680595Y-126635714D01*
X215609167Y-126707142D01*
X215466310Y-126778571D01*
X215109167Y-126778571D01*
X214966310Y-126707142D01*
X214894881Y-126635714D01*
X216180595Y-125278571D02*
X216680595Y-126778571D01*
X217180595Y-125278571D01*
D10*
D11*
X248980595Y-100978571D02*
X248266310Y-100978571D01*
X248194881Y-101692857D01*
X248266310Y-101621428D01*
X248409167Y-101550000D01*
X248766310Y-101550000D01*
X248909167Y-101621428D01*
X248980595Y-101692857D01*
X249052024Y-101835714D01*
X249052024Y-102192857D01*
X248980595Y-102335714D01*
X248909167Y-102407142D01*
X248766310Y-102478571D01*
X248409167Y-102478571D01*
X248266310Y-102407142D01*
X248194881Y-102335714D01*
X249480595Y-100978571D02*
X249980595Y-102478571D01*
X250480595Y-100978571D01*
D10*
D11*
X247337738Y-95721428D02*
X247409167Y-95650000D01*
X247552024Y-95578571D01*
X247909167Y-95578571D01*
X248052024Y-95650000D01*
X248123452Y-95721428D01*
X248194881Y-95864285D01*
X248194881Y-96007142D01*
X248123452Y-96221428D01*
X247266310Y-97078571D01*
X248194881Y-97078571D01*
D10*
D11*
X248288518Y-104861547D02*
X248238010Y-104710024D01*
X248086487Y-104558502D01*
X247884457Y-104457486D01*
X247682426Y-104457486D01*
X247530903Y-104507994D01*
X247278365Y-104659517D01*
X247126842Y-104811040D01*
X246975319Y-105063578D01*
X246924812Y-105215101D01*
X246924812Y-105417131D01*
X247025827Y-105619162D01*
X247126842Y-105720177D01*
X247328873Y-105821192D01*
X247429888Y-105821192D01*
X247783441Y-105467639D01*
X247581411Y-105265608D01*
X247783441Y-106376776D02*
X248844101Y-105316116D01*
X248389533Y-106982868D01*
X249450193Y-105922208D01*
X248894609Y-107487944D02*
X249955269Y-106427284D01*
X250207807Y-106679822D01*
X250308823Y-106881852D01*
X250308823Y-107083883D01*
X250258315Y-107235406D01*
X250106792Y-107487944D01*
X249955269Y-107639467D01*
X249702731Y-107790990D01*
X249551208Y-107841497D01*
X249349178Y-107841497D01*
X249147147Y-107740482D01*
X248894609Y-107487944D01*
D10*
D11*
X239580595Y-86578571D02*
X238866310Y-86578571D01*
X238794881Y-87292857D01*
X238866310Y-87221428D01*
X239009167Y-87150000D01*
X239366310Y-87150000D01*
X239509167Y-87221428D01*
X239580595Y-87292857D01*
X239652024Y-87435714D01*
X239652024Y-87792857D01*
X239580595Y-87935714D01*
X239509167Y-88007142D01*
X239366310Y-88078571D01*
X239009167Y-88078571D01*
X238866310Y-88007142D01*
X238794881Y-87935714D01*
X240080595Y-86578571D02*
X240580595Y-88078571D01*
X241080595Y-86578571D01*
D10*
D11*
X238323452Y-81450000D02*
X238180595Y-81378571D01*
X237966310Y-81378571D01*
X237752024Y-81450000D01*
X237609167Y-81592857D01*
X237537738Y-81735714D01*
X237466310Y-82021428D01*
X237466310Y-82235714D01*
X237537738Y-82521428D01*
X237609167Y-82664285D01*
X237752024Y-82807142D01*
X237966310Y-82878571D01*
X238109167Y-82878571D01*
X238323452Y-82807142D01*
X238394881Y-82735714D01*
X238394881Y-82235714D01*
X238109167Y-82235714D01*
X239037738Y-82878571D02*
X239037738Y-81378571D01*
X239894881Y-82878571D01*
X239894881Y-81378571D01*
X240609167Y-82878571D02*
X240609167Y-81378571D01*
X240966310Y-81378571D01*
X241180595Y-81450000D01*
X241323452Y-81592857D01*
X241394881Y-81735714D01*
X241466310Y-82021428D01*
X241466310Y-82235714D01*
X241394881Y-82521428D01*
X241323452Y-82664285D01*
X241180595Y-82807142D01*
X240966310Y-82878571D01*
X240609167Y-82878571D01*
D10*
D11*
X238723452Y-76621428D02*
X238794881Y-76550000D01*
X238937738Y-76478571D01*
X239294881Y-76478571D01*
X239437738Y-76550000D01*
X239509167Y-76621428D01*
X239580595Y-76764285D01*
X239580595Y-76907142D01*
X239509167Y-77121428D01*
X238652024Y-77978571D01*
X239580595Y-77978571D01*
X240152024Y-76621428D02*
X240223452Y-76550000D01*
X240366310Y-76478571D01*
X240723452Y-76478571D01*
X240866310Y-76550000D01*
X240937738Y-76621428D01*
X241009167Y-76764285D01*
X241009167Y-76907142D01*
X240937738Y-77121428D01*
X240080595Y-77978571D01*
X241009167Y-77978571D01*
D10*
D11*
X238623452Y-71621428D02*
X238694881Y-71550000D01*
X238837738Y-71478571D01*
X239194881Y-71478571D01*
X239337738Y-71550000D01*
X239409167Y-71621428D01*
X239480595Y-71764285D01*
X239480595Y-71907142D01*
X239409167Y-72121428D01*
X238552024Y-72978571D01*
X239480595Y-72978571D01*
X240909167Y-72978571D02*
X240052024Y-72978571D01*
X240480595Y-72978571D02*
X240480595Y-71478571D01*
X240337738Y-71692857D01*
X240194881Y-71835714D01*
X240052024Y-71907142D01*
D12*
%TO.P,H2,1*%
%TO.N,N/C*%
X179866310Y-123700000D03*
%TD*%
D13*
%TO.P,5V1,1,Pin_1*%
%TO.N,5v*%
X215871422Y-121800000D03*
D14*
%TO.P,5V1,2,Pin_2*%
%TO.N,GND5V*%
X210871422Y-121800000D03*
%TD*%
D15*
%TO.P,R1,2*%
%TO.N,D2*%
X235666310Y-97780000D03*
D16*
%TO.P,R1,1*%
%TO.N,5v*%
X235666310Y-100320000D03*
%TD*%
D17*
%TO.P,C1,1*%
%TO.N,5v*%
X224971422Y-122000000D03*
D18*
%TO.P,C1,2*%
%TO.N,GND5V*%
X222471422Y-122000000D03*
%TD*%
D19*
%TO.P,J1,1,Pin_1*%
%TO.N,D2*%
X244558810Y-96242500D03*
D20*
%TO.P,J1,2,Pin_2*%
%TO.N,5v*%
X244558810Y-101242500D03*
%TO.P,J1,3,Pin_3*%
%TO.N,GND5V*%
X244558810Y-106242500D03*
%TD*%
D19*
%TO.P,J2,1,Pin_1*%
%TO.N,D21*%
X244566310Y-72040000D03*
D21*
%TO.P,J2,2,Pin_2*%
%TO.N,D22*%
X244566310Y-77040000D03*
%TO.P,J2,3,Pin_3*%
%TO.N,GND5V*%
X244566310Y-82040000D03*
%TO.P,J2,4,Pin_4*%
%TO.N,5v*%
X244566310Y-87040000D03*
%TD*%
D12*
%TO.P,H4,1*%
%TO.N,N/C*%
X179866310Y-58400000D03*
%TD*%
D22*
%TO.P,U1,1,GND*%
%TO.N,GND5V*%
X181041310Y-78900000D03*
D16*
%TO.P,U1,2,VCC*%
%TO.N,3V3*%
X181041310Y-81440000D03*
%TO.P,U1,3,CE*%
%TO.N,D27*%
X183581310Y-78900000D03*
%TO.P,U1,4,~{CSN}*%
%TO.N,D26*%
X183581310Y-81440000D03*
%TO.P,U1,5,SCK*%
%TO.N,D14*%
X186121310Y-78900000D03*
%TO.P,U1,6,MOSI*%
%TO.N,D13*%
X186121310Y-81440000D03*
%TO.P,U1,7,MISO*%
%TO.N,D12*%
X188661310Y-78900000D03*
%TO.P,U1,8,IRQ*%
%TO.N,unconnected-(U1-Pad8)*%
X188661310Y-81440000D03*
%TD*%
D23*
%TO.P,J_esp1,1,Pin_1*%
%TO.N,3V3*%
X201275810Y-103699000D03*
D24*
%TO.P,J_esp1,2,Pin_2*%
%TO.N,GND2*%
X201275810Y-101159000D03*
%TO.P,J_esp1,3,Pin_3*%
%TO.N,D15*%
X201275810Y-98619000D03*
%TO.P,J_esp1,4,Pin_4*%
%TO.N,D2*%
X201275810Y-96079000D03*
%TO.P,J_esp1,5,Pin_5*%
%TO.N,D4*%
X201275810Y-93539000D03*
%TO.P,J_esp1,6,Pin_6*%
%TO.N,RX2*%
X201275810Y-90999000D03*
%TO.P,J_esp1,7,Pin_7*%
%TO.N,TX2*%
X201275810Y-88459000D03*
%TO.P,J_esp1,8,Pin_8*%
%TO.N,D5*%
X201275810Y-85919000D03*
%TO.P,J_esp1,9,Pin_9*%
%TO.N,D18*%
X201275810Y-83379000D03*
%TO.P,J_esp1,10,Pin_10*%
%TO.N,D19*%
X201275810Y-80839000D03*
%TO.P,J_esp1,11,Pin_11*%
%TO.N,D21*%
X201275810Y-78299000D03*
%TO.P,J_esp1,12,Pin_12*%
%TO.N,RX0*%
X201275810Y-75759000D03*
%TO.P,J_esp1,13,Pin_13*%
%TO.N,TX0*%
X201275810Y-73219000D03*
%TO.P,J_esp1,14,Pin_14*%
%TO.N,D22*%
X201275810Y-70679000D03*
%TO.P,J_esp1,15,Pin_15*%
%TO.N,D23*%
X201275810Y-68139000D03*
%TD*%
D12*
%TO.P,H3,1*%
%TO.N,N/C*%
X248666310Y-123600000D03*
%TD*%
D25*
%TO.P,J_esp0,1,Pin_1*%
%TO.N,EN*%
X225816310Y-68060000D03*
D26*
%TO.P,J_esp0,2,Pin_2*%
%TO.N,VP*%
X225816310Y-70600000D03*
%TO.P,J_esp0,3,Pin_3*%
%TO.N,VN*%
X225816310Y-73140000D03*
D24*
%TO.P,J_esp0,4,Pin_4*%
%TO.N,D34*%
X225816310Y-75680000D03*
%TO.P,J_esp0,5,Pin_5*%
%TO.N,D35*%
X225816310Y-78220000D03*
%TO.P,J_esp0,6,Pin_6*%
%TO.N,D32*%
X225816310Y-80760000D03*
%TO.P,J_esp0,7,Pin_7*%
%TO.N,D33*%
X225816310Y-83300000D03*
%TO.P,J_esp0,8,Pin_8*%
%TO.N,D25*%
X225816310Y-85840000D03*
%TO.P,J_esp0,9,Pin_9*%
%TO.N,D26*%
X225816310Y-88380000D03*
%TO.P,J_esp0,10,Pin_10*%
%TO.N,D27*%
X225816310Y-90920000D03*
%TO.P,J_esp0,11,Pin_11*%
%TO.N,D14*%
X225816310Y-93460000D03*
%TO.P,J_esp0,12,Pin_12*%
%TO.N,D12*%
X225816310Y-96000000D03*
%TO.P,J_esp0,13,Pin_13*%
%TO.N,D13*%
X225816310Y-98540000D03*
%TO.P,J_esp0,14,Pin_14*%
%TO.N,GND5V*%
X225816310Y-101080000D03*
%TO.P,J_esp0,15,Pin_15*%
%TO.N,5v*%
X225816310Y-103620000D03*
%TD*%
D12*
%TO.P,H1,1*%
%TO.N,N/C*%
X248666310Y-58400000D03*
%TD*%
D27*
%TO.N,5v*%
X228066310Y-119200000D03*
X235666310Y-108700000D03*
%TO.N,D27*%
X231366310Y-90700000D03*
X183581310Y-71585000D03*
%TO.N,D26*%
X188966310Y-95300000D03*
X213866310Y-91400000D03*
%TO.N,D14*%
X186121310Y-71545000D03*
X220566310Y-93400000D03*
%TO.N,D13*%
X231666310Y-100200000D03*
X186166310Y-88400000D03*
%TO.N,D12*%
X218066310Y-96100000D03*
X188666310Y-71500000D03*
%TD*%
D28*
%TO.N,D13*%
X231666310Y-100200000D02*
X230006310Y-98540000D01*
X230006310Y-98540000D02*
X225816310Y-98540000D01*
X186166310Y-88400000D02*
X186121310Y-88355000D01*
X186121310Y-88355000D02*
X186121310Y-81440000D01*
%TO.N,D12*%
X188666310Y-71500000D02*
X188661310Y-71505000D01*
X188661310Y-71505000D02*
X188661310Y-78900000D01*
X188666310Y-71500000D02*
X188666310Y-75600000D01*
%TO.N,D27*%
X183581310Y-78900000D02*
X183581310Y-71585000D01*
%TO.N,D14*%
X186121310Y-71545000D02*
X186121310Y-73845000D01*
X186121310Y-73845000D02*
X186066310Y-73900000D01*
X186121310Y-78900000D02*
X186121310Y-71545000D01*
%TO.N,GND5V*%
X210871422Y-121800000D02*
X205766310Y-121800000D01*
X205766310Y-121800000D02*
X204666310Y-122900000D01*
X239466310Y-117600000D02*
X239466310Y-113200000D01*
X204666310Y-122900000D02*
X204666310Y-126400000D01*
X204666310Y-126400000D02*
X207066310Y-128800000D01*
X207066310Y-128800000D02*
X228266310Y-128800000D01*
X228266310Y-128800000D02*
X239466310Y-117600000D01*
%TO.N,5v*%
X215871422Y-121800000D02*
X215871422Y-122005112D01*
X215871422Y-122005112D02*
X220366310Y-126500000D01*
X220366310Y-126500000D02*
X223666310Y-126500000D01*
X223666310Y-126500000D02*
X224971422Y-125194888D01*
X224971422Y-125194888D02*
X224971422Y-122000000D01*
X244558810Y-101242500D02*
X246223810Y-101242500D01*
X249566310Y-92040000D02*
X244566310Y-87040000D01*
X246223810Y-101242500D02*
X249566310Y-97900000D01*
X249566310Y-97900000D02*
X249566310Y-92040000D01*
%TO.N,GND5V*%
X250466310Y-110900000D02*
X251966310Y-109400000D01*
X251966310Y-109400000D02*
X251966310Y-85700000D01*
X251966310Y-85700000D02*
X248306310Y-82040000D01*
X248306310Y-82040000D02*
X244566310Y-82040000D01*
%TO.N,5v*%
X235666310Y-100320000D02*
X235666310Y-100900000D01*
X235666310Y-100320000D02*
X243636310Y-100320000D01*
X232946310Y-103620000D02*
X225816310Y-103620000D01*
X225266310Y-122000000D02*
X228066310Y-119200000D01*
X243223810Y-101242500D02*
X244558810Y-101242500D01*
X243636310Y-100320000D02*
X244558810Y-101242500D01*
X224971422Y-122000000D02*
X225266310Y-122000000D01*
X235766310Y-108700000D02*
X243223810Y-101242500D01*
X235666310Y-100900000D02*
X232946310Y-103620000D01*
X235666310Y-108700000D02*
X235766310Y-108700000D01*
%TO.N,GND5V*%
X219666310Y-117600000D02*
X222471422Y-120405112D01*
X221986310Y-101080000D02*
X225816310Y-101080000D01*
X210871422Y-121800000D02*
X210871422Y-118994888D01*
X177366310Y-79800000D02*
X177366310Y-111300000D01*
X178266310Y-78900000D02*
X177366310Y-79800000D01*
X181041310Y-78900000D02*
X178266310Y-78900000D01*
X244558810Y-106242500D02*
X249216310Y-110900000D01*
X240066310Y-112600000D02*
X248766310Y-112600000D01*
X212266310Y-117600000D02*
X219666310Y-117600000D01*
X249216310Y-110900000D02*
X250466310Y-110900000D01*
X248766310Y-112600000D02*
X250466310Y-110900000D01*
X222471422Y-120405112D02*
X222471422Y-122000000D01*
X177366310Y-111300000D02*
X179266310Y-113200000D01*
X179266310Y-113200000D02*
X239466310Y-113200000D01*
X219666310Y-117600000D02*
X219666310Y-103400000D01*
X239466310Y-113200000D02*
X240066310Y-112600000D01*
X219666310Y-103400000D02*
X221986310Y-101080000D01*
X210871422Y-118994888D02*
X212266310Y-117600000D01*
%TO.N,D27*%
X226036310Y-90700000D02*
X225816310Y-90920000D01*
X231366310Y-90700000D02*
X226036310Y-90700000D01*
%TO.N,D26*%
X183581310Y-81440000D02*
X183581310Y-90415000D01*
X216886310Y-88380000D02*
X225816310Y-88380000D01*
X213866310Y-91400000D02*
X216886310Y-88380000D01*
X183581310Y-90415000D02*
X188466310Y-95300000D01*
X188466310Y-95300000D02*
X188966310Y-95300000D01*
%TO.N,D14*%
X220626310Y-93460000D02*
X220566310Y-93400000D01*
X225816310Y-93460000D02*
X220626310Y-93460000D01*
%TO.N,D12*%
X225816310Y-96000000D02*
X218166310Y-96000000D01*
X218166310Y-96000000D02*
X218066310Y-96100000D01*
%TO.N,3V3*%
X181041310Y-95375000D02*
X189365310Y-103699000D01*
X189365310Y-103699000D02*
X201275810Y-103699000D01*
X181041310Y-81440000D02*
X181041310Y-95375000D01*
%TO.N,D2*%
X218566310Y-79500000D02*
X218566310Y-65000000D01*
X239086310Y-97780000D02*
X240623810Y-96242500D01*
X220366310Y-63200000D02*
X230866310Y-63200000D01*
X203410810Y-95379000D02*
X203410810Y-94655500D01*
X202710810Y-96079000D02*
X203410810Y-95379000D01*
X240623810Y-96242500D02*
X244558810Y-96242500D01*
X218566310Y-65000000D02*
X220366310Y-63200000D01*
X235666310Y-97780000D02*
X239086310Y-97780000D01*
X230866310Y-63200000D02*
X233866310Y-66200000D01*
X201275810Y-96079000D02*
X202710810Y-96079000D01*
X203410810Y-94655500D02*
X218566310Y-79500000D01*
X233866310Y-95980000D02*
X235666310Y-97780000D01*
X233866310Y-66200000D02*
X233866310Y-95980000D01*
%TO.N,D21*%
X212566310Y-62300000D02*
X214066310Y-60800000D01*
X212566310Y-73000000D02*
X212566310Y-62300000D01*
X207267310Y-78299000D02*
X212566310Y-73000000D01*
X214066310Y-60800000D02*
X233326310Y-60800000D01*
X233326310Y-60800000D02*
X244566310Y-72040000D01*
X201275810Y-78299000D02*
X207267310Y-78299000D01*
%TO.N,D22*%
X205966310Y-60200000D02*
X207666310Y-58500000D01*
X207666310Y-58500000D02*
X238366310Y-58500000D01*
X248726310Y-77040000D02*
X244566310Y-77040000D01*
X201275810Y-70679000D02*
X203875810Y-70679000D01*
X249266310Y-76500000D02*
X248726310Y-77040000D01*
X205966310Y-68588500D02*
X205966310Y-60200000D01*
X238366310Y-58500000D02*
X249266310Y-69400000D01*
X203875810Y-70679000D02*
X205966310Y-68588500D01*
X249266310Y-69400000D02*
X249266310Y-76500000D01*
%TD*%
M02*
