%TF.GenerationSoftware,KiCad,Pcbnew,7.0.3*%
%TF.CreationDate,2023-06-10T16:02:28-05:00*%
%TF.ProjectId,ambient_measurement,616d6269-656e-4745-9f6d-656173757265,rev?*%
%TF.SameCoordinates,Original*%
%TF.FileFunction,Copper,L1,Top*%
%TF.FilePolarity,Positive*%
%FSLAX46Y46*%
G04 Gerber Fmt 4.6, Leading zero omitted, Abs format (unit mm)*
G04 Created by KiCad (PCBNEW 7.0.3) date 2023-06-10 16:02:28*
%MOMM*%
%LPD*%
G01*
G04 APERTURE LIST*
%TA.AperFunction,NonConductor*%
%ADD10C,0.200000*%
%TD*%
%ADD11C,0.300000*%
%TA.AperFunction,NonConductor*%
%ADD12C,0.300000*%
%TD*%
%TA.AperFunction,ComponentPad*%
%ADD13C,2.000000*%
%TD*%
%TA.AperFunction,ComponentPad*%
%ADD14C,5.400000*%
%TD*%
%TA.AperFunction,ComponentPad*%
%ADD15R,2.125000X3.960000*%
%TD*%
%TA.AperFunction,ComponentPad*%
%ADD16O,2.125000X3.960000*%
%TD*%
%TA.AperFunction,ComponentPad*%
%ADD17C,2.125000*%
%TD*%
%TA.AperFunction,ComponentPad*%
%ADD18O,2.125000X2.125000*%
%TD*%
%TA.AperFunction,ComponentPad*%
%ADD19R,2.000000X2.000000*%
%TD*%
%TA.AperFunction,ComponentPad*%
%ADD20R,3.960000X3.960000*%
%TD*%
%TA.AperFunction,ComponentPad*%
%ADD21C,3.960000*%
%TD*%
%TA.AperFunction,ComponentPad*%
%ADD22O,3.960000X3.960000*%
%TD*%
%TA.AperFunction,ComponentPad*%
%ADD23R,2.125000X2.125000*%
%TD*%
%TA.AperFunction,ComponentPad*%
%ADD24R,2.540000X2.000000*%
%TD*%
%TA.AperFunction,ComponentPad*%
%ADD25R,2.540000X1.950000*%
%TD*%
%TA.AperFunction,ComponentPad*%
%ADD26R,2.540000X2.100000*%
%TD*%
%TA.AperFunction,ComponentPad*%
%ADD27R,2.540000X1.740000*%
%TD*%
%TA.AperFunction,ViaPad*%
%ADD28C,2.125000*%
%TD*%
%TA.AperFunction,Conductor*%
%ADD29C,1.330000*%
%TD*%
G04 APERTURE END LIST*
D10*
X174900000Y-53900000D02*
X253200000Y-53900000D01*
X253200000Y-130708000D01*
X174900000Y-130708000D01*
X174900000Y-53900000D01*
D11*
D12*
X244621185Y-73289488D02*
X244549757Y-73218060D01*
X244549757Y-73218060D02*
X244478328Y-73075203D01*
X244478328Y-73075203D02*
X244478328Y-72718060D01*
X244478328Y-72718060D02*
X244549757Y-72575203D01*
X244549757Y-72575203D02*
X244621185Y-72503774D01*
X244621185Y-72503774D02*
X244764042Y-72432345D01*
X244764042Y-72432345D02*
X244906900Y-72432345D01*
X244906900Y-72432345D02*
X245121185Y-72503774D01*
X245121185Y-72503774D02*
X245978328Y-73360917D01*
X245978328Y-73360917D02*
X245978328Y-72432345D01*
X244478328Y-71932346D02*
X244478328Y-70932346D01*
X244478328Y-70932346D02*
X245978328Y-71575203D01*
D11*
D12*
X191710328Y-101868345D02*
X191710328Y-102582631D01*
X191710328Y-102582631D02*
X192424614Y-102654059D01*
X192424614Y-102654059D02*
X192353185Y-102582631D01*
X192353185Y-102582631D02*
X192281757Y-102439774D01*
X192281757Y-102439774D02*
X192281757Y-102082631D01*
X192281757Y-102082631D02*
X192353185Y-101939774D01*
X192353185Y-101939774D02*
X192424614Y-101868345D01*
X192424614Y-101868345D02*
X192567471Y-101796916D01*
X192567471Y-101796916D02*
X192924614Y-101796916D01*
X192924614Y-101796916D02*
X193067471Y-101868345D01*
X193067471Y-101868345D02*
X193138900Y-101939774D01*
X193138900Y-101939774D02*
X193210328Y-102082631D01*
X193210328Y-102082631D02*
X193210328Y-102439774D01*
X193210328Y-102439774D02*
X193138900Y-102582631D01*
X193138900Y-102582631D02*
X193067471Y-102654059D01*
X191710328Y-101368345D02*
X193210328Y-100868345D01*
X193210328Y-100868345D02*
X191710328Y-100368345D01*
D11*
D12*
X243278328Y-72632345D02*
X243278328Y-73489488D01*
X243278328Y-73060917D02*
X241778328Y-73060917D01*
X241778328Y-73060917D02*
X241992614Y-73203774D01*
X241992614Y-73203774D02*
X242135471Y-73346631D01*
X242135471Y-73346631D02*
X242206900Y-73489488D01*
X242278328Y-71346632D02*
X243278328Y-71346632D01*
X241706900Y-71703774D02*
X242778328Y-72060917D01*
X242778328Y-72060917D02*
X242778328Y-71132346D01*
D11*
D12*
X223054511Y-126549757D02*
X222911654Y-126478328D01*
X222911654Y-126478328D02*
X222697368Y-126478328D01*
X222697368Y-126478328D02*
X222483082Y-126549757D01*
X222483082Y-126549757D02*
X222340225Y-126692614D01*
X222340225Y-126692614D02*
X222268796Y-126835471D01*
X222268796Y-126835471D02*
X222197368Y-127121185D01*
X222197368Y-127121185D02*
X222197368Y-127335471D01*
X222197368Y-127335471D02*
X222268796Y-127621185D01*
X222268796Y-127621185D02*
X222340225Y-127764042D01*
X222340225Y-127764042D02*
X222483082Y-127906900D01*
X222483082Y-127906900D02*
X222697368Y-127978328D01*
X222697368Y-127978328D02*
X222840225Y-127978328D01*
X222840225Y-127978328D02*
X223054511Y-127906900D01*
X223054511Y-127906900D02*
X223125939Y-127835471D01*
X223125939Y-127835471D02*
X223125939Y-127335471D01*
X223125939Y-127335471D02*
X222840225Y-127335471D01*
X223768796Y-127978328D02*
X223768796Y-126478328D01*
X223768796Y-126478328D02*
X224625939Y-127978328D01*
X224625939Y-127978328D02*
X224625939Y-126478328D01*
X225340225Y-127978328D02*
X225340225Y-126478328D01*
X225340225Y-126478328D02*
X225697368Y-126478328D01*
X225697368Y-126478328D02*
X225911654Y-126549757D01*
X225911654Y-126549757D02*
X226054511Y-126692614D01*
X226054511Y-126692614D02*
X226125940Y-126835471D01*
X226125940Y-126835471D02*
X226197368Y-127121185D01*
X226197368Y-127121185D02*
X226197368Y-127335471D01*
X226197368Y-127335471D02*
X226125940Y-127621185D01*
X226125940Y-127621185D02*
X226054511Y-127764042D01*
X226054511Y-127764042D02*
X225911654Y-127906900D01*
X225911654Y-127906900D02*
X225697368Y-127978328D01*
X225697368Y-127978328D02*
X225340225Y-127978328D01*
D11*
D12*
X240578328Y-72732345D02*
X240578328Y-73589488D01*
X240578328Y-73160917D02*
X239078328Y-73160917D01*
X239078328Y-73160917D02*
X239292614Y-73303774D01*
X239292614Y-73303774D02*
X239435471Y-73446631D01*
X239435471Y-73446631D02*
X239506900Y-73589488D01*
X239221185Y-72160917D02*
X239149757Y-72089489D01*
X239149757Y-72089489D02*
X239078328Y-71946632D01*
X239078328Y-71946632D02*
X239078328Y-71589489D01*
X239078328Y-71589489D02*
X239149757Y-71446632D01*
X239149757Y-71446632D02*
X239221185Y-71375203D01*
X239221185Y-71375203D02*
X239364042Y-71303774D01*
X239364042Y-71303774D02*
X239506900Y-71303774D01*
X239506900Y-71303774D02*
X239721185Y-71375203D01*
X239721185Y-71375203D02*
X240578328Y-72232346D01*
X240578328Y-72232346D02*
X240578328Y-71303774D01*
D11*
D12*
X192289757Y-83045488D02*
X192218328Y-83188346D01*
X192218328Y-83188346D02*
X192218328Y-83402631D01*
X192218328Y-83402631D02*
X192289757Y-83616917D01*
X192289757Y-83616917D02*
X192432614Y-83759774D01*
X192432614Y-83759774D02*
X192575471Y-83831203D01*
X192575471Y-83831203D02*
X192861185Y-83902631D01*
X192861185Y-83902631D02*
X193075471Y-83902631D01*
X193075471Y-83902631D02*
X193361185Y-83831203D01*
X193361185Y-83831203D02*
X193504042Y-83759774D01*
X193504042Y-83759774D02*
X193646900Y-83616917D01*
X193646900Y-83616917D02*
X193718328Y-83402631D01*
X193718328Y-83402631D02*
X193718328Y-83259774D01*
X193718328Y-83259774D02*
X193646900Y-83045488D01*
X193646900Y-83045488D02*
X193575471Y-82974060D01*
X193575471Y-82974060D02*
X193075471Y-82974060D01*
X193075471Y-82974060D02*
X193075471Y-83259774D01*
X193718328Y-82331203D02*
X192218328Y-82331203D01*
X192218328Y-82331203D02*
X193718328Y-81474060D01*
X193718328Y-81474060D02*
X192218328Y-81474060D01*
X193718328Y-80759774D02*
X192218328Y-80759774D01*
X192218328Y-80759774D02*
X192218328Y-80402631D01*
X192218328Y-80402631D02*
X192289757Y-80188345D01*
X192289757Y-80188345D02*
X192432614Y-80045488D01*
X192432614Y-80045488D02*
X192575471Y-79974059D01*
X192575471Y-79974059D02*
X192861185Y-79902631D01*
X192861185Y-79902631D02*
X193075471Y-79902631D01*
X193075471Y-79902631D02*
X193361185Y-79974059D01*
X193361185Y-79974059D02*
X193504042Y-80045488D01*
X193504042Y-80045488D02*
X193646900Y-80188345D01*
X193646900Y-80188345D02*
X193718328Y-80402631D01*
X193718328Y-80402631D02*
X193718328Y-80759774D01*
D11*
D12*
X192053185Y-97925488D02*
X191981757Y-97854060D01*
X191981757Y-97854060D02*
X191910328Y-97711203D01*
X191910328Y-97711203D02*
X191910328Y-97354060D01*
X191910328Y-97354060D02*
X191981757Y-97211203D01*
X191981757Y-97211203D02*
X192053185Y-97139774D01*
X192053185Y-97139774D02*
X192196042Y-97068345D01*
X192196042Y-97068345D02*
X192338900Y-97068345D01*
X192338900Y-97068345D02*
X192553185Y-97139774D01*
X192553185Y-97139774D02*
X193410328Y-97996917D01*
X193410328Y-97996917D02*
X193410328Y-97068345D01*
X191910328Y-95711203D02*
X191910328Y-96425489D01*
X191910328Y-96425489D02*
X192624614Y-96496917D01*
X192624614Y-96496917D02*
X192553185Y-96425489D01*
X192553185Y-96425489D02*
X192481757Y-96282632D01*
X192481757Y-96282632D02*
X192481757Y-95925489D01*
X192481757Y-95925489D02*
X192553185Y-95782632D01*
X192553185Y-95782632D02*
X192624614Y-95711203D01*
X192624614Y-95711203D02*
X192767471Y-95639774D01*
X192767471Y-95639774D02*
X193124614Y-95639774D01*
X193124614Y-95639774D02*
X193267471Y-95711203D01*
X193267471Y-95711203D02*
X193338900Y-95782632D01*
X193338900Y-95782632D02*
X193410328Y-95925489D01*
X193410328Y-95925489D02*
X193410328Y-96282632D01*
X193410328Y-96282632D02*
X193338900Y-96425489D01*
X193338900Y-96425489D02*
X193267471Y-96496917D01*
D11*
D12*
X191781757Y-107625488D02*
X191710328Y-107768346D01*
X191710328Y-107768346D02*
X191710328Y-107982631D01*
X191710328Y-107982631D02*
X191781757Y-108196917D01*
X191781757Y-108196917D02*
X191924614Y-108339774D01*
X191924614Y-108339774D02*
X192067471Y-108411203D01*
X192067471Y-108411203D02*
X192353185Y-108482631D01*
X192353185Y-108482631D02*
X192567471Y-108482631D01*
X192567471Y-108482631D02*
X192853185Y-108411203D01*
X192853185Y-108411203D02*
X192996042Y-108339774D01*
X192996042Y-108339774D02*
X193138900Y-108196917D01*
X193138900Y-108196917D02*
X193210328Y-107982631D01*
X193210328Y-107982631D02*
X193210328Y-107839774D01*
X193210328Y-107839774D02*
X193138900Y-107625488D01*
X193138900Y-107625488D02*
X193067471Y-107554060D01*
X193067471Y-107554060D02*
X192567471Y-107554060D01*
X192567471Y-107554060D02*
X192567471Y-107839774D01*
X193210328Y-106911203D02*
X191710328Y-106911203D01*
X191710328Y-106911203D02*
X193210328Y-106054060D01*
X193210328Y-106054060D02*
X191710328Y-106054060D01*
X193210328Y-105339774D02*
X191710328Y-105339774D01*
X191710328Y-105339774D02*
X191710328Y-104982631D01*
X191710328Y-104982631D02*
X191781757Y-104768345D01*
X191781757Y-104768345D02*
X191924614Y-104625488D01*
X191924614Y-104625488D02*
X192067471Y-104554059D01*
X192067471Y-104554059D02*
X192353185Y-104482631D01*
X192353185Y-104482631D02*
X192567471Y-104482631D01*
X192567471Y-104482631D02*
X192853185Y-104554059D01*
X192853185Y-104554059D02*
X192996042Y-104625488D01*
X192996042Y-104625488D02*
X193138900Y-104768345D01*
X193138900Y-104768345D02*
X193210328Y-104982631D01*
X193210328Y-104982631D02*
X193210328Y-105339774D01*
D11*
D12*
X208858511Y-100549757D02*
X208715654Y-100478328D01*
X208715654Y-100478328D02*
X208501368Y-100478328D01*
X208501368Y-100478328D02*
X208287082Y-100549757D01*
X208287082Y-100549757D02*
X208144225Y-100692614D01*
X208144225Y-100692614D02*
X208072796Y-100835471D01*
X208072796Y-100835471D02*
X208001368Y-101121185D01*
X208001368Y-101121185D02*
X208001368Y-101335471D01*
X208001368Y-101335471D02*
X208072796Y-101621185D01*
X208072796Y-101621185D02*
X208144225Y-101764042D01*
X208144225Y-101764042D02*
X208287082Y-101906900D01*
X208287082Y-101906900D02*
X208501368Y-101978328D01*
X208501368Y-101978328D02*
X208644225Y-101978328D01*
X208644225Y-101978328D02*
X208858511Y-101906900D01*
X208858511Y-101906900D02*
X208929939Y-101835471D01*
X208929939Y-101835471D02*
X208929939Y-101335471D01*
X208929939Y-101335471D02*
X208644225Y-101335471D01*
X209572796Y-101978328D02*
X209572796Y-100478328D01*
X209572796Y-100478328D02*
X210429939Y-101978328D01*
X210429939Y-101978328D02*
X210429939Y-100478328D01*
X211144225Y-101978328D02*
X211144225Y-100478328D01*
X211144225Y-100478328D02*
X211501368Y-100478328D01*
X211501368Y-100478328D02*
X211715654Y-100549757D01*
X211715654Y-100549757D02*
X211858511Y-100692614D01*
X211858511Y-100692614D02*
X211929940Y-100835471D01*
X211929940Y-100835471D02*
X212001368Y-101121185D01*
X212001368Y-101121185D02*
X212001368Y-101335471D01*
X212001368Y-101335471D02*
X211929940Y-101621185D01*
X211929940Y-101621185D02*
X211858511Y-101764042D01*
X211858511Y-101764042D02*
X211715654Y-101906900D01*
X211715654Y-101906900D02*
X211501368Y-101978328D01*
X211501368Y-101978328D02*
X211144225Y-101978328D01*
D11*
D12*
X243378328Y-86956345D02*
X243378328Y-87813488D01*
X243378328Y-87384917D02*
X241878328Y-87384917D01*
X241878328Y-87384917D02*
X242092614Y-87527774D01*
X242092614Y-87527774D02*
X242235471Y-87670631D01*
X242235471Y-87670631D02*
X242306900Y-87813488D01*
X241878328Y-86456346D02*
X241878328Y-85527774D01*
X241878328Y-85527774D02*
X242449757Y-86027774D01*
X242449757Y-86027774D02*
X242449757Y-85813489D01*
X242449757Y-85813489D02*
X242521185Y-85670632D01*
X242521185Y-85670632D02*
X242592614Y-85599203D01*
X242592614Y-85599203D02*
X242735471Y-85527774D01*
X242735471Y-85527774D02*
X243092614Y-85527774D01*
X243092614Y-85527774D02*
X243235471Y-85599203D01*
X243235471Y-85599203D02*
X243306900Y-85670632D01*
X243306900Y-85670632D02*
X243378328Y-85813489D01*
X243378328Y-85813489D02*
X243378328Y-86242060D01*
X243378328Y-86242060D02*
X243306900Y-86384917D01*
X243306900Y-86384917D02*
X243235471Y-86456346D01*
D11*
D12*
X244621185Y-87913488D02*
X244549757Y-87842060D01*
X244549757Y-87842060D02*
X244478328Y-87699203D01*
X244478328Y-87699203D02*
X244478328Y-87342060D01*
X244478328Y-87342060D02*
X244549757Y-87199203D01*
X244549757Y-87199203D02*
X244621185Y-87127774D01*
X244621185Y-87127774D02*
X244764042Y-87056345D01*
X244764042Y-87056345D02*
X244906900Y-87056345D01*
X244906900Y-87056345D02*
X245121185Y-87127774D01*
X245121185Y-87127774D02*
X245978328Y-87984917D01*
X245978328Y-87984917D02*
X245978328Y-87056345D01*
X244478328Y-85770632D02*
X244478328Y-86056346D01*
X244478328Y-86056346D02*
X244549757Y-86199203D01*
X244549757Y-86199203D02*
X244621185Y-86270632D01*
X244621185Y-86270632D02*
X244835471Y-86413489D01*
X244835471Y-86413489D02*
X245121185Y-86484917D01*
X245121185Y-86484917D02*
X245692614Y-86484917D01*
X245692614Y-86484917D02*
X245835471Y-86413489D01*
X245835471Y-86413489D02*
X245906900Y-86342060D01*
X245906900Y-86342060D02*
X245978328Y-86199203D01*
X245978328Y-86199203D02*
X245978328Y-85913489D01*
X245978328Y-85913489D02*
X245906900Y-85770632D01*
X245906900Y-85770632D02*
X245835471Y-85699203D01*
X245835471Y-85699203D02*
X245692614Y-85627774D01*
X245692614Y-85627774D02*
X245335471Y-85627774D01*
X245335471Y-85627774D02*
X245192614Y-85699203D01*
X245192614Y-85699203D02*
X245121185Y-85770632D01*
X245121185Y-85770632D02*
X245049757Y-85913489D01*
X245049757Y-85913489D02*
X245049757Y-86199203D01*
X245049757Y-86199203D02*
X245121185Y-86342060D01*
X245121185Y-86342060D02*
X245192614Y-86413489D01*
X245192614Y-86413489D02*
X245335471Y-86484917D01*
D11*
D12*
X247349757Y-72689488D02*
X247278328Y-72832346D01*
X247278328Y-72832346D02*
X247278328Y-73046631D01*
X247278328Y-73046631D02*
X247349757Y-73260917D01*
X247349757Y-73260917D02*
X247492614Y-73403774D01*
X247492614Y-73403774D02*
X247635471Y-73475203D01*
X247635471Y-73475203D02*
X247921185Y-73546631D01*
X247921185Y-73546631D02*
X248135471Y-73546631D01*
X248135471Y-73546631D02*
X248421185Y-73475203D01*
X248421185Y-73475203D02*
X248564042Y-73403774D01*
X248564042Y-73403774D02*
X248706900Y-73260917D01*
X248706900Y-73260917D02*
X248778328Y-73046631D01*
X248778328Y-73046631D02*
X248778328Y-72903774D01*
X248778328Y-72903774D02*
X248706900Y-72689488D01*
X248706900Y-72689488D02*
X248635471Y-72618060D01*
X248635471Y-72618060D02*
X248135471Y-72618060D01*
X248135471Y-72618060D02*
X248135471Y-72903774D01*
X248778328Y-71975203D02*
X247278328Y-71975203D01*
X247278328Y-71975203D02*
X248778328Y-71118060D01*
X248778328Y-71118060D02*
X247278328Y-71118060D01*
X248778328Y-70403774D02*
X247278328Y-70403774D01*
X247278328Y-70403774D02*
X247278328Y-70046631D01*
X247278328Y-70046631D02*
X247349757Y-69832345D01*
X247349757Y-69832345D02*
X247492614Y-69689488D01*
X247492614Y-69689488D02*
X247635471Y-69618059D01*
X247635471Y-69618059D02*
X247921185Y-69546631D01*
X247921185Y-69546631D02*
X248135471Y-69546631D01*
X248135471Y-69546631D02*
X248421185Y-69618059D01*
X248421185Y-69618059D02*
X248564042Y-69689488D01*
X248564042Y-69689488D02*
X248706900Y-69832345D01*
X248706900Y-69832345D02*
X248778328Y-70046631D01*
X248778328Y-70046631D02*
X248778328Y-70403774D01*
D11*
D12*
X192161185Y-77945488D02*
X192089757Y-77874060D01*
X192089757Y-77874060D02*
X192018328Y-77731203D01*
X192018328Y-77731203D02*
X192018328Y-77374060D01*
X192018328Y-77374060D02*
X192089757Y-77231203D01*
X192089757Y-77231203D02*
X192161185Y-77159774D01*
X192161185Y-77159774D02*
X192304042Y-77088345D01*
X192304042Y-77088345D02*
X192446900Y-77088345D01*
X192446900Y-77088345D02*
X192661185Y-77159774D01*
X192661185Y-77159774D02*
X193518328Y-78016917D01*
X193518328Y-78016917D02*
X193518328Y-77088345D01*
X192161185Y-76516917D02*
X192089757Y-76445489D01*
X192089757Y-76445489D02*
X192018328Y-76302632D01*
X192018328Y-76302632D02*
X192018328Y-75945489D01*
X192018328Y-75945489D02*
X192089757Y-75802632D01*
X192089757Y-75802632D02*
X192161185Y-75731203D01*
X192161185Y-75731203D02*
X192304042Y-75659774D01*
X192304042Y-75659774D02*
X192446900Y-75659774D01*
X192446900Y-75659774D02*
X192661185Y-75731203D01*
X192661185Y-75731203D02*
X193518328Y-76588346D01*
X193518328Y-76588346D02*
X193518328Y-75659774D01*
D11*
D12*
X247078328Y-88013488D02*
X247078328Y-87084916D01*
X247078328Y-87084916D02*
X247649757Y-87584916D01*
X247649757Y-87584916D02*
X247649757Y-87370631D01*
X247649757Y-87370631D02*
X247721185Y-87227774D01*
X247721185Y-87227774D02*
X247792614Y-87156345D01*
X247792614Y-87156345D02*
X247935471Y-87084916D01*
X247935471Y-87084916D02*
X248292614Y-87084916D01*
X248292614Y-87084916D02*
X248435471Y-87156345D01*
X248435471Y-87156345D02*
X248506900Y-87227774D01*
X248506900Y-87227774D02*
X248578328Y-87370631D01*
X248578328Y-87370631D02*
X248578328Y-87799202D01*
X248578328Y-87799202D02*
X248506900Y-87942059D01*
X248506900Y-87942059D02*
X248435471Y-88013488D01*
X247078328Y-86656345D02*
X248578328Y-86156345D01*
X248578328Y-86156345D02*
X247078328Y-85656345D01*
D11*
D12*
X208311654Y-126778328D02*
X207597368Y-126778328D01*
X207597368Y-126778328D02*
X207525940Y-127492614D01*
X207525940Y-127492614D02*
X207597368Y-127421185D01*
X207597368Y-127421185D02*
X207740226Y-127349757D01*
X207740226Y-127349757D02*
X208097368Y-127349757D01*
X208097368Y-127349757D02*
X208240226Y-127421185D01*
X208240226Y-127421185D02*
X208311654Y-127492614D01*
X208311654Y-127492614D02*
X208383083Y-127635471D01*
X208383083Y-127635471D02*
X208383083Y-127992614D01*
X208383083Y-127992614D02*
X208311654Y-128135471D01*
X208311654Y-128135471D02*
X208240226Y-128206900D01*
X208240226Y-128206900D02*
X208097368Y-128278328D01*
X208097368Y-128278328D02*
X207740226Y-128278328D01*
X207740226Y-128278328D02*
X207597368Y-128206900D01*
X207597368Y-128206900D02*
X207525940Y-128135471D01*
X208811654Y-126778328D02*
X209311654Y-128278328D01*
X209311654Y-128278328D02*
X209811654Y-126778328D01*
D11*
D12*
X192161185Y-73245488D02*
X192089757Y-73174060D01*
X192089757Y-73174060D02*
X192018328Y-73031203D01*
X192018328Y-73031203D02*
X192018328Y-72674060D01*
X192018328Y-72674060D02*
X192089757Y-72531203D01*
X192089757Y-72531203D02*
X192161185Y-72459774D01*
X192161185Y-72459774D02*
X192304042Y-72388345D01*
X192304042Y-72388345D02*
X192446900Y-72388345D01*
X192446900Y-72388345D02*
X192661185Y-72459774D01*
X192661185Y-72459774D02*
X193518328Y-73316917D01*
X193518328Y-73316917D02*
X193518328Y-72388345D01*
X193518328Y-70959774D02*
X193518328Y-71816917D01*
X193518328Y-71388346D02*
X192018328Y-71388346D01*
X192018328Y-71388346D02*
X192232614Y-71531203D01*
X192232614Y-71531203D02*
X192375471Y-71674060D01*
X192375471Y-71674060D02*
X192446900Y-71816917D01*
D11*
D12*
X209415654Y-102978328D02*
X208701368Y-102978328D01*
X208701368Y-102978328D02*
X208629940Y-103692614D01*
X208629940Y-103692614D02*
X208701368Y-103621185D01*
X208701368Y-103621185D02*
X208844226Y-103549757D01*
X208844226Y-103549757D02*
X209201368Y-103549757D01*
X209201368Y-103549757D02*
X209344226Y-103621185D01*
X209344226Y-103621185D02*
X209415654Y-103692614D01*
X209415654Y-103692614D02*
X209487083Y-103835471D01*
X209487083Y-103835471D02*
X209487083Y-104192614D01*
X209487083Y-104192614D02*
X209415654Y-104335471D01*
X209415654Y-104335471D02*
X209344226Y-104406900D01*
X209344226Y-104406900D02*
X209201368Y-104478328D01*
X209201368Y-104478328D02*
X208844226Y-104478328D01*
X208844226Y-104478328D02*
X208701368Y-104406900D01*
X208701368Y-104406900D02*
X208629940Y-104335471D01*
X209915654Y-102978328D02*
X210415654Y-104478328D01*
X210415654Y-104478328D02*
X210915654Y-102978328D01*
D11*
D12*
X192218328Y-87388345D02*
X192218328Y-88102631D01*
X192218328Y-88102631D02*
X192932614Y-88174059D01*
X192932614Y-88174059D02*
X192861185Y-88102631D01*
X192861185Y-88102631D02*
X192789757Y-87959774D01*
X192789757Y-87959774D02*
X192789757Y-87602631D01*
X192789757Y-87602631D02*
X192861185Y-87459774D01*
X192861185Y-87459774D02*
X192932614Y-87388345D01*
X192932614Y-87388345D02*
X193075471Y-87316916D01*
X193075471Y-87316916D02*
X193432614Y-87316916D01*
X193432614Y-87316916D02*
X193575471Y-87388345D01*
X193575471Y-87388345D02*
X193646900Y-87459774D01*
X193646900Y-87459774D02*
X193718328Y-87602631D01*
X193718328Y-87602631D02*
X193718328Y-87959774D01*
X193718328Y-87959774D02*
X193646900Y-88102631D01*
X193646900Y-88102631D02*
X193575471Y-88174059D01*
X192218328Y-86888345D02*
X193718328Y-86388345D01*
X193718328Y-86388345D02*
X192218328Y-85888345D01*
D13*
%TO.P,C2,1*%
%TO.N,5v*%
X199136000Y-121880000D03*
%TO.P,C2,2*%
%TO.N,GND5V*%
X199136000Y-119380000D03*
%TD*%
D14*
%TO.P,H2,1*%
%TO.N,N/C*%
X248900000Y-123700000D03*
%TD*%
D15*
%TO.P,5V1,1,Pin_1*%
%TO.N,5v*%
X212894888Y-121800000D03*
D16*
%TO.P,5V1,2,Pin_2*%
%TO.N,GND5V*%
X217894888Y-121800000D03*
%TD*%
D17*
%TO.P,R1,1*%
%TO.N,5v*%
X195580000Y-100320000D03*
D18*
%TO.P,R1,2*%
%TO.N,D25*%
X195580000Y-97780000D03*
%TD*%
D19*
%TO.P,C1,1*%
%TO.N,5v*%
X204296000Y-121793112D03*
D13*
%TO.P,C1,2*%
%TO.N,GND5V*%
X204296000Y-119293112D03*
%TD*%
D20*
%TO.P,J1,1,Pin_1*%
%TO.N,D25*%
X184207500Y-96242500D03*
D21*
%TO.P,J1,2,Pin_2*%
%TO.N,5v*%
X184207500Y-101242500D03*
%TO.P,J1,3,Pin_3*%
%TO.N,GND5V*%
X184207500Y-106242500D03*
%TD*%
D20*
%TO.P,J2,1,Pin_1*%
%TO.N,D21*%
X184200000Y-72040000D03*
D22*
%TO.P,J2,2,Pin_2*%
%TO.N,D22*%
X184200000Y-77040000D03*
%TO.P,J2,3,Pin_3*%
%TO.N,GND5V*%
X184200000Y-82040000D03*
%TO.P,J2,4,Pin_4*%
%TO.N,5v*%
X184200000Y-87040000D03*
%TD*%
D14*
%TO.P,H4,1*%
%TO.N,N/C*%
X248900000Y-58400000D03*
%TD*%
D23*
%TO.P,U1,1,GND*%
%TO.N,GND2*%
X247725000Y-78900000D03*
D17*
%TO.P,U1,2,VCC*%
%TO.N,3V3*%
X247725000Y-81440000D03*
%TO.P,U1,3,CE*%
%TO.N,D27*%
X245185000Y-78900000D03*
%TO.P,U1,4,~{CSN}*%
%TO.N,D26*%
X245185000Y-81440000D03*
%TO.P,U1,5,SCK*%
%TO.N,D14*%
X242645000Y-78900000D03*
%TO.P,U1,6,MOSI*%
%TO.N,D13*%
X242645000Y-81440000D03*
%TO.P,U1,7,MISO*%
%TO.N,D12*%
X240105000Y-78900000D03*
%TO.P,U1,8,IRQ*%
%TO.N,unconnected-(U1-IRQ-Pad8)*%
X240105000Y-81440000D03*
%TD*%
D24*
%TO.P,J_esp1,1,Pin_1*%
%TO.N,3V3*%
X227490500Y-103699000D03*
D25*
%TO.P,J_esp1,2,Pin_2*%
%TO.N,GND2*%
X227490500Y-101159000D03*
%TO.P,J_esp1,3,Pin_3*%
%TO.N,D15*%
X227490500Y-98619000D03*
%TO.P,J_esp1,4,Pin_4*%
%TO.N,D2*%
X227490500Y-96079000D03*
%TO.P,J_esp1,5,Pin_5*%
%TO.N,D4*%
X227490500Y-93539000D03*
%TO.P,J_esp1,6,Pin_6*%
%TO.N,RX2*%
X227490500Y-90999000D03*
%TO.P,J_esp1,7,Pin_7*%
%TO.N,TX2*%
X227490500Y-88459000D03*
%TO.P,J_esp1,8,Pin_8*%
%TO.N,D5*%
X227490500Y-85919000D03*
%TO.P,J_esp1,9,Pin_9*%
%TO.N,D18*%
X227490500Y-83379000D03*
%TO.P,J_esp1,10,Pin_10*%
%TO.N,D19*%
X227490500Y-80839000D03*
%TO.P,J_esp1,11,Pin_11*%
%TO.N,D21*%
X227490500Y-78299000D03*
%TO.P,J_esp1,12,Pin_12*%
%TO.N,RX0*%
X227490500Y-75759000D03*
%TO.P,J_esp1,13,Pin_13*%
%TO.N,TX0*%
X227490500Y-73219000D03*
%TO.P,J_esp1,14,Pin_14*%
%TO.N,D22*%
X227490500Y-70679000D03*
%TO.P,J_esp1,15,Pin_15*%
%TO.N,D23*%
X227490500Y-68139000D03*
%TD*%
D14*
%TO.P,H3,1*%
%TO.N,N/C*%
X180100000Y-123600000D03*
%TD*%
D26*
%TO.P,J_esp0,1,Pin_1*%
%TO.N,EN*%
X202950000Y-68060000D03*
D27*
%TO.P,J_esp0,2,Pin_2*%
%TO.N,VP*%
X202950000Y-70600000D03*
%TO.P,J_esp0,3,Pin_3*%
%TO.N,VN*%
X202950000Y-73140000D03*
D25*
%TO.P,J_esp0,4,Pin_4*%
%TO.N,D34*%
X202950000Y-75680000D03*
%TO.P,J_esp0,5,Pin_5*%
%TO.N,D35*%
X202950000Y-78220000D03*
%TO.P,J_esp0,6,Pin_6*%
%TO.N,D32*%
X202950000Y-80760000D03*
%TO.P,J_esp0,7,Pin_7*%
%TO.N,D33*%
X202950000Y-83300000D03*
%TO.P,J_esp0,8,Pin_8*%
%TO.N,D25*%
X202950000Y-85840000D03*
%TO.P,J_esp0,9,Pin_9*%
%TO.N,D26*%
X202950000Y-88380000D03*
%TO.P,J_esp0,10,Pin_10*%
%TO.N,D27*%
X202950000Y-90920000D03*
%TO.P,J_esp0,11,Pin_11*%
%TO.N,D14*%
X202950000Y-93460000D03*
%TO.P,J_esp0,12,Pin_12*%
%TO.N,D12*%
X202950000Y-96000000D03*
%TO.P,J_esp0,13,Pin_13*%
%TO.N,D13*%
X202950000Y-98540000D03*
%TO.P,J_esp0,14,Pin_14*%
%TO.N,GND5V*%
X202950000Y-101080000D03*
%TO.P,J_esp0,15,Pin_15*%
%TO.N,5v*%
X202950000Y-103620000D03*
%TD*%
D14*
%TO.P,H1,1*%
%TO.N,N/C*%
X180100000Y-58400000D03*
%TD*%
D28*
%TO.N,GND5V*%
X182372000Y-112776000D03*
X196088000Y-114300000D03*
%TO.N,D13*%
X215900000Y-107188000D03*
%TO.N,GND2*%
X251460000Y-88900000D03*
X236728000Y-89916000D03*
%TO.N,D27*%
X197400000Y-90700000D03*
X243840000Y-60960000D03*
%TO.N,D26*%
X239800000Y-98552000D03*
X214900000Y-91400000D03*
%TO.N,D14*%
X240550000Y-64250000D03*
X208200000Y-93400000D03*
%TO.N,D13*%
X242600000Y-94488000D03*
%TO.N,D12*%
X210700000Y-96100000D03*
X237730000Y-67070000D03*
%TD*%
D29*
%TO.N,D13*%
X217424000Y-112268000D02*
X215900000Y-110744000D01*
%TO.N,D26*%
X219900000Y-109200000D02*
X219100000Y-108400000D01*
%TO.N,GND2*%
X243038765Y-89925352D02*
X243157901Y-90044488D01*
%TO.N,D14*%
X240550000Y-64250000D02*
X237260000Y-60960000D01*
X237260000Y-60960000D02*
X216840000Y-60960000D01*
X216840000Y-60960000D02*
X209300000Y-68500000D01*
X209300000Y-68500000D02*
X209300000Y-92300000D01*
X209300000Y-92300000D02*
X208200000Y-93400000D01*
%TO.N,D27*%
X243840000Y-60960000D02*
X240792000Y-57912000D01*
X206248000Y-57912000D02*
X197612000Y-66548000D01*
X240792000Y-57912000D02*
X206248000Y-57912000D01*
X197612000Y-66548000D02*
X197612000Y-90488000D01*
X197612000Y-90488000D02*
X197400000Y-90700000D01*
%TO.N,GND5V*%
X196088000Y-114300000D02*
X183896000Y-114300000D01*
X183896000Y-114300000D02*
X182372000Y-112776000D01*
%TO.N,D13*%
X215900000Y-110744000D02*
X215900000Y-107188000D01*
X242600000Y-94488000D02*
X242600000Y-107500000D01*
X242600000Y-107500000D02*
X237832000Y-112268000D01*
X237832000Y-112268000D02*
X217424000Y-112268000D01*
%TO.N,D26*%
X239800000Y-98552000D02*
X239800000Y-104800000D01*
X239800000Y-104800000D02*
X235400000Y-109200000D01*
X235400000Y-109200000D02*
X219900000Y-109200000D01*
X219100000Y-108400000D02*
X219100000Y-95600000D01*
X219100000Y-95600000D02*
X214900000Y-91400000D01*
%TO.N,GND2*%
X243157901Y-90044488D02*
X250315512Y-90044488D01*
X236737352Y-89925352D02*
X243038765Y-89925352D01*
X250315512Y-90044488D02*
X251460000Y-88900000D01*
X236728000Y-89916000D02*
X236737352Y-89925352D01*
%TO.N,D12*%
X223700000Y-64000000D02*
X212300000Y-75400000D01*
X212300000Y-94500000D02*
X210700000Y-96100000D01*
X212300000Y-75400000D02*
X212300000Y-94500000D01*
X234660000Y-64000000D02*
X223700000Y-64000000D01*
X237730000Y-67070000D02*
X234660000Y-64000000D01*
%TD*%
M02*
