M48
; DRILL file {KiCad 6.0.11+dfsg-1} date Wed 31 May 2023 09:31:06 AM -05
; FORMAT={-:-/ absolute / inch / decimal}
; #@! TF.CreationDate,2023-05-31T09:31:06-05:00
; #@! TF.GenerationSoftware,Kicad,Pcbnew,6.0.11+dfsg-1
; #@! TF.FileFunction,Plated,1,2,PTH
FMAT,2
INCH
; #@! TA.AperFunction,Plated,PTH,ViaDrill
T1C0.0276
; #@! TA.AperFunction,Plated,PTH,ComponentDrill
T2C0.0276
; #@! TA.AperFunction,Plated,PTH,ViaDrill
T3C0.0295
; #@! TA.AperFunction,Plated,PTH,ComponentDrill
T4C0.0315
; #@! TA.AperFunction,Plated,PTH,ComponentDrill
T5C0.0394
; #@! TA.AperFunction,Plated,PTH,ComponentDrill
T6C0.0429
; #@! TA.AperFunction,Plated,PTH,ComponentDrill
T7C0.0520
; #@! TA.AperFunction,Plated,PTH,ComponentDrill
T8C0.0591
; #@! TA.AperFunction,Plated,PTH,ComponentDrill
T9C0.1063
%
G90
G05
T1
X7.4396Y-3.752
T2
X9.2782Y-3.8496
X9.2782Y-3.9496
T3
X7.2276Y-2.8183
X7.3276Y-2.8167
X7.3294Y-3.4803
X7.4278Y-2.815
X8.4199Y-3.5984
X8.5853Y-3.7835
X8.6837Y-3.6772
X8.979Y-4.6929
X9.1089Y-3.5709
X9.1207Y-3.9449
X9.2782Y-4.2795
T4
X8.7587Y-4.8031
X8.8571Y-4.8031
T5
X7.1276Y-3.1063
X7.1276Y-3.2063
X7.2276Y-3.1063
X7.2276Y-3.2063
X7.3276Y-3.1063
X7.3276Y-3.2063
X7.4276Y-3.1063
X7.4276Y-3.2063
T6
X7.9242Y-2.6826
X7.9242Y-2.7826
X7.9242Y-2.8826
X7.9242Y-2.9826
X7.9242Y-3.0826
X7.9242Y-3.1826
X7.9242Y-3.2826
X7.9242Y-3.3826
X7.9242Y-3.4826
X7.9242Y-3.5826
X7.9242Y-3.6826
X7.9242Y-3.7826
X7.9242Y-3.8826
X7.9242Y-3.9826
X7.9242Y-4.0826
X8.8904Y-2.6795
X8.8904Y-2.7795
X8.8904Y-2.8795
X8.8904Y-2.9795
X8.8904Y-3.0795
X8.8904Y-3.1795
X8.8904Y-3.2795
X8.8904Y-3.3795
X8.8904Y-3.4795
X8.8904Y-3.5795
X8.8904Y-3.6795
X8.8904Y-3.7795
X8.8904Y-3.8795
X8.8904Y-3.9795
X8.8904Y-4.0795
T7
X8.302Y-4.7953
X8.4989Y-4.7953
X9.6286Y-2.8362
X9.6286Y-3.0331
X9.6286Y-3.2299
X9.6286Y-3.4268
T8
X9.6283Y-3.7891
X9.6283Y-3.9859
X9.6283Y-4.1828
T9
X7.0814Y-2.2992
X7.0814Y-4.8701
X9.79Y-2.2992
X9.79Y-4.8661
T0
M30
