%TF.GenerationSoftware,KiCad,Pcbnew,6.0.7+dfsg-1+b1*%
%TF.CreationDate,2022-10-19T23:38:59-05:00*%
%TF.ProjectId,esp32,65737033-322e-46b6-9963-61645f706362,rev?*%
%TF.SameCoordinates,Original*%
%TF.FileFunction,Legend,Top*%
%TF.FilePolarity,Positive*%
%FSLAX46Y46*%
G04 Gerber Fmt 4.6, Leading zero omitted, Abs format (unit mm)*
G04 Created by KiCad (PCBNEW 6.0.7+dfsg-1+b1) date 2022-10-19 23:38:59*
%MOMM*%
%LPD*%
G01*
G04 APERTURE LIST*
%ADD10C,0.150000*%
%ADD11C,0.120000*%
G04 APERTURE END LIST*
D10*
%TO.C,J6der1*%
X110739880Y-103350000D02*
X111454166Y-103350000D01*
X111597023Y-103397619D01*
X111692261Y-103492857D01*
X111739880Y-103635714D01*
X111739880Y-103730952D01*
X110739880Y-102445238D02*
X110739880Y-102635714D01*
X110787500Y-102730952D01*
X110835119Y-102778571D01*
X110977976Y-102873809D01*
X111168452Y-102921428D01*
X111549404Y-102921428D01*
X111644642Y-102873809D01*
X111692261Y-102826190D01*
X111739880Y-102730952D01*
X111739880Y-102540476D01*
X111692261Y-102445238D01*
X111644642Y-102397619D01*
X111549404Y-102350000D01*
X111311309Y-102350000D01*
X111216071Y-102397619D01*
X111168452Y-102445238D01*
X111120833Y-102540476D01*
X111120833Y-102730952D01*
X111168452Y-102826190D01*
X111216071Y-102873809D01*
X111311309Y-102921428D01*
X111739880Y-101492857D02*
X110739880Y-101492857D01*
X111692261Y-101492857D02*
X111739880Y-101588095D01*
X111739880Y-101778571D01*
X111692261Y-101873809D01*
X111644642Y-101921428D01*
X111549404Y-101969047D01*
X111263690Y-101969047D01*
X111168452Y-101921428D01*
X111120833Y-101873809D01*
X111073214Y-101778571D01*
X111073214Y-101588095D01*
X111120833Y-101492857D01*
X111692261Y-100635714D02*
X111739880Y-100730952D01*
X111739880Y-100921428D01*
X111692261Y-101016666D01*
X111597023Y-101064285D01*
X111216071Y-101064285D01*
X111120833Y-101016666D01*
X111073214Y-100921428D01*
X111073214Y-100730952D01*
X111120833Y-100635714D01*
X111216071Y-100588095D01*
X111311309Y-100588095D01*
X111406547Y-101064285D01*
X111739880Y-100159523D02*
X111073214Y-100159523D01*
X111263690Y-100159523D02*
X111168452Y-100111904D01*
X111120833Y-100064285D01*
X111073214Y-99969047D01*
X111073214Y-99873809D01*
X111739880Y-99016666D02*
X111739880Y-99588095D01*
X111739880Y-99302380D02*
X110739880Y-99302380D01*
X110882738Y-99397619D01*
X110977976Y-99492857D01*
X111025595Y-99588095D01*
%TO.C,J1*%
X129396666Y-63852380D02*
X129396666Y-64566666D01*
X129349047Y-64709523D01*
X129253809Y-64804761D01*
X129110952Y-64852380D01*
X129015714Y-64852380D01*
X130396666Y-64852380D02*
X129825238Y-64852380D01*
X130110952Y-64852380D02*
X130110952Y-63852380D01*
X130015714Y-63995238D01*
X129920476Y-64090476D01*
X129825238Y-64138095D01*
%TO.C,H4*%
X109168095Y-65742380D02*
X109168095Y-64742380D01*
X109168095Y-65218571D02*
X109739523Y-65218571D01*
X109739523Y-65742380D02*
X109739523Y-64742380D01*
X110644285Y-65075714D02*
X110644285Y-65742380D01*
X110406190Y-64694761D02*
X110168095Y-65409047D01*
X110787142Y-65409047D01*
%TO.C,H2*%
X109238095Y-146652380D02*
X109238095Y-145652380D01*
X109238095Y-146128571D02*
X109809523Y-146128571D01*
X109809523Y-146652380D02*
X109809523Y-145652380D01*
X110238095Y-145747619D02*
X110285714Y-145700000D01*
X110380952Y-145652380D01*
X110619047Y-145652380D01*
X110714285Y-145700000D01*
X110761904Y-145747619D01*
X110809523Y-145842857D01*
X110809523Y-145938095D01*
X110761904Y-146080952D01*
X110190476Y-146652380D01*
X110809523Y-146652380D01*
%TO.C,J7*%
X119966666Y-63852380D02*
X119966666Y-64566666D01*
X119919047Y-64709523D01*
X119823809Y-64804761D01*
X119680952Y-64852380D01*
X119585714Y-64852380D01*
X120347619Y-63852380D02*
X121014285Y-63852380D01*
X120585714Y-64852380D01*
%TO.C,H1*%
X169238095Y-146652380D02*
X169238095Y-145652380D01*
X169238095Y-146128571D02*
X169809523Y-146128571D01*
X169809523Y-146652380D02*
X169809523Y-145652380D01*
X170809523Y-146652380D02*
X170238095Y-146652380D01*
X170523809Y-146652380D02*
X170523809Y-145652380D01*
X170428571Y-145795238D01*
X170333333Y-145890476D01*
X170238095Y-145938095D01*
%TO.C,J4*%
X169635119Y-101926666D02*
X168920833Y-101926666D01*
X168777976Y-101879047D01*
X168682738Y-101783809D01*
X168635119Y-101640952D01*
X168635119Y-101545714D01*
X169301785Y-102831428D02*
X168635119Y-102831428D01*
X169682738Y-102593333D02*
X168968452Y-102355238D01*
X168968452Y-102974285D01*
%TO.C,J7der1*%
X103217380Y-103330000D02*
X103931666Y-103330000D01*
X104074523Y-103377619D01*
X104169761Y-103472857D01*
X104217380Y-103615714D01*
X104217380Y-103710952D01*
X103217380Y-102949047D02*
X103217380Y-102282380D01*
X104217380Y-102710952D01*
X104217380Y-101472857D02*
X103217380Y-101472857D01*
X104169761Y-101472857D02*
X104217380Y-101568095D01*
X104217380Y-101758571D01*
X104169761Y-101853809D01*
X104122142Y-101901428D01*
X104026904Y-101949047D01*
X103741190Y-101949047D01*
X103645952Y-101901428D01*
X103598333Y-101853809D01*
X103550714Y-101758571D01*
X103550714Y-101568095D01*
X103598333Y-101472857D01*
X104169761Y-100615714D02*
X104217380Y-100710952D01*
X104217380Y-100901428D01*
X104169761Y-100996666D01*
X104074523Y-101044285D01*
X103693571Y-101044285D01*
X103598333Y-100996666D01*
X103550714Y-100901428D01*
X103550714Y-100710952D01*
X103598333Y-100615714D01*
X103693571Y-100568095D01*
X103788809Y-100568095D01*
X103884047Y-101044285D01*
X104217380Y-100139523D02*
X103550714Y-100139523D01*
X103741190Y-100139523D02*
X103645952Y-100091904D01*
X103598333Y-100044285D01*
X103550714Y-99949047D01*
X103550714Y-99853809D01*
X104217380Y-98996666D02*
X104217380Y-99568095D01*
X104217380Y-99282380D02*
X103217380Y-99282380D01*
X103360238Y-99377619D01*
X103455476Y-99472857D01*
X103503095Y-99568095D01*
%TO.C,H3*%
X169168095Y-65742380D02*
X169168095Y-64742380D01*
X169168095Y-65218571D02*
X169739523Y-65218571D01*
X169739523Y-65742380D02*
X169739523Y-64742380D01*
X170120476Y-64742380D02*
X170739523Y-64742380D01*
X170406190Y-65123333D01*
X170549047Y-65123333D01*
X170644285Y-65170952D01*
X170691904Y-65218571D01*
X170739523Y-65313809D01*
X170739523Y-65551904D01*
X170691904Y-65647142D01*
X170644285Y-65694761D01*
X170549047Y-65742380D01*
X170263333Y-65742380D01*
X170168095Y-65694761D01*
X170120476Y-65647142D01*
%TO.C,J3*%
X139666666Y-149312380D02*
X139666666Y-150026666D01*
X139619047Y-150169523D01*
X139523809Y-150264761D01*
X139380952Y-150312380D01*
X139285714Y-150312380D01*
X140047619Y-149312380D02*
X140666666Y-149312380D01*
X140333333Y-149693333D01*
X140476190Y-149693333D01*
X140571428Y-149740952D01*
X140619047Y-149788571D01*
X140666666Y-149883809D01*
X140666666Y-150121904D01*
X140619047Y-150217142D01*
X140571428Y-150264761D01*
X140476190Y-150312380D01*
X140190476Y-150312380D01*
X140095238Y-150264761D01*
X140047619Y-150217142D01*
%TO.C,J6*%
X127130119Y-147666666D02*
X126415833Y-147666666D01*
X126272976Y-147619047D01*
X126177738Y-147523809D01*
X126130119Y-147380952D01*
X126130119Y-147285714D01*
X127130119Y-148571428D02*
X127130119Y-148380952D01*
X127082500Y-148285714D01*
X127034880Y-148238095D01*
X126892023Y-148142857D01*
X126701547Y-148095238D01*
X126320595Y-148095238D01*
X126225357Y-148142857D01*
X126177738Y-148190476D01*
X126130119Y-148285714D01*
X126130119Y-148476190D01*
X126177738Y-148571428D01*
X126225357Y-148619047D01*
X126320595Y-148666666D01*
X126558690Y-148666666D01*
X126653928Y-148619047D01*
X126701547Y-148571428D01*
X126749166Y-148476190D01*
X126749166Y-148285714D01*
X126701547Y-148190476D01*
X126653928Y-148142857D01*
X126558690Y-148095238D01*
%TO.C,J8der1*%
X118402380Y-103330000D02*
X119116666Y-103330000D01*
X119259523Y-103377619D01*
X119354761Y-103472857D01*
X119402380Y-103615714D01*
X119402380Y-103710952D01*
X118830952Y-102710952D02*
X118783333Y-102806190D01*
X118735714Y-102853809D01*
X118640476Y-102901428D01*
X118592857Y-102901428D01*
X118497619Y-102853809D01*
X118450000Y-102806190D01*
X118402380Y-102710952D01*
X118402380Y-102520476D01*
X118450000Y-102425238D01*
X118497619Y-102377619D01*
X118592857Y-102330000D01*
X118640476Y-102330000D01*
X118735714Y-102377619D01*
X118783333Y-102425238D01*
X118830952Y-102520476D01*
X118830952Y-102710952D01*
X118878571Y-102806190D01*
X118926190Y-102853809D01*
X119021428Y-102901428D01*
X119211904Y-102901428D01*
X119307142Y-102853809D01*
X119354761Y-102806190D01*
X119402380Y-102710952D01*
X119402380Y-102520476D01*
X119354761Y-102425238D01*
X119307142Y-102377619D01*
X119211904Y-102330000D01*
X119021428Y-102330000D01*
X118926190Y-102377619D01*
X118878571Y-102425238D01*
X118830952Y-102520476D01*
X119402380Y-101472857D02*
X118402380Y-101472857D01*
X119354761Y-101472857D02*
X119402380Y-101568095D01*
X119402380Y-101758571D01*
X119354761Y-101853809D01*
X119307142Y-101901428D01*
X119211904Y-101949047D01*
X118926190Y-101949047D01*
X118830952Y-101901428D01*
X118783333Y-101853809D01*
X118735714Y-101758571D01*
X118735714Y-101568095D01*
X118783333Y-101472857D01*
X119354761Y-100615714D02*
X119402380Y-100710952D01*
X119402380Y-100901428D01*
X119354761Y-100996666D01*
X119259523Y-101044285D01*
X118878571Y-101044285D01*
X118783333Y-100996666D01*
X118735714Y-100901428D01*
X118735714Y-100710952D01*
X118783333Y-100615714D01*
X118878571Y-100568095D01*
X118973809Y-100568095D01*
X119069047Y-101044285D01*
X119402380Y-100139523D02*
X118735714Y-100139523D01*
X118926190Y-100139523D02*
X118830952Y-100091904D01*
X118783333Y-100044285D01*
X118735714Y-99949047D01*
X118735714Y-99853809D01*
X119402380Y-98996666D02*
X119402380Y-99568095D01*
X119402380Y-99282380D02*
X118402380Y-99282380D01*
X118545238Y-99377619D01*
X118640476Y-99472857D01*
X118688095Y-99568095D01*
%TO.C,J8*%
X127130119Y-139266666D02*
X126415833Y-139266666D01*
X126272976Y-139219047D01*
X126177738Y-139123809D01*
X126130119Y-138980952D01*
X126130119Y-138885714D01*
X126701547Y-139885714D02*
X126749166Y-139790476D01*
X126796785Y-139742857D01*
X126892023Y-139695238D01*
X126939642Y-139695238D01*
X127034880Y-139742857D01*
X127082500Y-139790476D01*
X127130119Y-139885714D01*
X127130119Y-140076190D01*
X127082500Y-140171428D01*
X127034880Y-140219047D01*
X126939642Y-140266666D01*
X126892023Y-140266666D01*
X126796785Y-140219047D01*
X126749166Y-140171428D01*
X126701547Y-140076190D01*
X126701547Y-139885714D01*
X126653928Y-139790476D01*
X126606309Y-139742857D01*
X126511071Y-139695238D01*
X126320595Y-139695238D01*
X126225357Y-139742857D01*
X126177738Y-139790476D01*
X126130119Y-139885714D01*
X126130119Y-140076190D01*
X126177738Y-140171428D01*
X126225357Y-140219047D01*
X126320595Y-140266666D01*
X126511071Y-140266666D01*
X126606309Y-140219047D01*
X126653928Y-140171428D01*
X126701547Y-140076190D01*
%TO.C,J5*%
X161885119Y-101926666D02*
X161170833Y-101926666D01*
X161027976Y-101879047D01*
X160932738Y-101783809D01*
X160885119Y-101640952D01*
X160885119Y-101545714D01*
X161885119Y-102879047D02*
X161885119Y-102402857D01*
X161408928Y-102355238D01*
X161456547Y-102402857D01*
X161504166Y-102498095D01*
X161504166Y-102736190D01*
X161456547Y-102831428D01*
X161408928Y-102879047D01*
X161313690Y-102926666D01*
X161075595Y-102926666D01*
X160980357Y-102879047D01*
X160932738Y-102831428D01*
X160885119Y-102736190D01*
X160885119Y-102498095D01*
X160932738Y-102402857D01*
X160980357Y-102355238D01*
%TO.C,D1*%
X135582380Y-132138095D02*
X134582380Y-132138095D01*
X134582380Y-131900000D01*
X134630000Y-131757142D01*
X134725238Y-131661904D01*
X134820476Y-131614285D01*
X135010952Y-131566666D01*
X135153809Y-131566666D01*
X135344285Y-131614285D01*
X135439523Y-131661904D01*
X135534761Y-131757142D01*
X135582380Y-131900000D01*
X135582380Y-132138095D01*
X135582380Y-130614285D02*
X135582380Y-131185714D01*
X135582380Y-130900000D02*
X134582380Y-130900000D01*
X134725238Y-130995238D01*
X134820476Y-131090476D01*
X134868095Y-131185714D01*
X135952380Y-136741904D02*
X134952380Y-136741904D01*
X135952380Y-136170476D02*
X135380952Y-136599047D01*
X134952380Y-136170476D02*
X135523809Y-136741904D01*
%TO.C,J2*%
X177112619Y-101926666D02*
X176398333Y-101926666D01*
X176255476Y-101879047D01*
X176160238Y-101783809D01*
X176112619Y-101640952D01*
X176112619Y-101545714D01*
X177017380Y-102355238D02*
X177065000Y-102402857D01*
X177112619Y-102498095D01*
X177112619Y-102736190D01*
X177065000Y-102831428D01*
X177017380Y-102879047D01*
X176922142Y-102926666D01*
X176826904Y-102926666D01*
X176684047Y-102879047D01*
X176112619Y-102307619D01*
X176112619Y-102926666D01*
D11*
%TO.C,J6der1*%
X119807500Y-81550000D02*
X119807500Y-81420000D01*
X122597500Y-105730000D02*
X124097500Y-105730000D01*
X121617500Y-81550000D02*
X119807500Y-81550000D01*
X122597500Y-81420000D02*
X121617500Y-81420000D01*
X124097500Y-97890000D02*
X122597500Y-97890000D01*
X121617500Y-122200000D02*
X122597500Y-122200000D01*
X117277500Y-81420000D02*
X117277500Y-122200000D01*
X119807500Y-122070000D02*
X121617500Y-122070000D01*
X119807500Y-122200000D02*
X119807500Y-122070000D01*
X124097500Y-105730000D02*
X124097500Y-97890000D01*
X119807500Y-81420000D02*
X117277500Y-81420000D01*
X119387500Y-122500000D02*
X116977500Y-122500000D01*
X121617500Y-122070000D02*
X121617500Y-122200000D01*
X116977500Y-122500000D02*
X116977500Y-120090000D01*
X122597500Y-122200000D02*
X122597500Y-105730000D01*
X117277500Y-122200000D02*
X119807500Y-122200000D01*
X121617500Y-81420000D02*
X121617500Y-81550000D01*
X122597500Y-97890000D02*
X122597500Y-81420000D01*
%TO.C,J1*%
X133530000Y-70820000D02*
X133400000Y-70820000D01*
X133530000Y-71800000D02*
X133530000Y-70820000D01*
X125930000Y-69010000D02*
X126060000Y-69010000D01*
X133270000Y-73300000D02*
X133270000Y-71800000D01*
X133530000Y-69010000D02*
X133530000Y-66480000D01*
X133270000Y-71800000D02*
X133530000Y-71800000D01*
X125630000Y-68590000D02*
X125630000Y-66180000D01*
X133400000Y-70820000D02*
X133400000Y-69010000D01*
X126190000Y-71800000D02*
X126190000Y-73300000D01*
X125930000Y-71800000D02*
X126190000Y-71800000D01*
X126060000Y-69010000D02*
X126060000Y-70820000D01*
X133530000Y-66480000D02*
X125930000Y-66480000D01*
X125930000Y-66480000D02*
X125930000Y-69010000D01*
X126060000Y-70820000D02*
X125930000Y-70820000D01*
X133400000Y-69010000D02*
X133530000Y-69010000D01*
X125630000Y-66180000D02*
X128040000Y-66180000D01*
X125930000Y-70820000D02*
X125930000Y-71800000D01*
X126190000Y-73300000D02*
X133270000Y-73300000D01*
%TO.C,J7*%
X116630000Y-70820000D02*
X116500000Y-70820000D01*
X116500000Y-70820000D02*
X116500000Y-71800000D01*
X116500000Y-71800000D02*
X116760000Y-71800000D01*
X116760000Y-73300000D02*
X123840000Y-73300000D01*
X123840000Y-71800000D02*
X124100000Y-71800000D01*
X116200000Y-66180000D02*
X118610000Y-66180000D01*
X116760000Y-71800000D02*
X116760000Y-73300000D01*
X124100000Y-71800000D02*
X124100000Y-70820000D01*
X124100000Y-69010000D02*
X124100000Y-66480000D01*
X116200000Y-68590000D02*
X116200000Y-66180000D01*
X123840000Y-73300000D02*
X123840000Y-71800000D01*
X124100000Y-70820000D02*
X123970000Y-70820000D01*
X123970000Y-70820000D02*
X123970000Y-69010000D01*
X124100000Y-66480000D02*
X116500000Y-66480000D01*
X116630000Y-69010000D02*
X116630000Y-70820000D01*
X116500000Y-69010000D02*
X116630000Y-69010000D01*
X123970000Y-69010000D02*
X124100000Y-69010000D01*
X116500000Y-66480000D02*
X116500000Y-69010000D01*
%TO.C,J4*%
X157777500Y-81410000D02*
X157777500Y-97880000D01*
X160987500Y-81110000D02*
X163397500Y-81110000D01*
X157777500Y-105720000D02*
X157777500Y-122190000D01*
X160567500Y-122190000D02*
X163097500Y-122190000D01*
X160567500Y-81540000D02*
X158757500Y-81540000D01*
X157777500Y-97880000D02*
X156277500Y-97880000D01*
X158757500Y-81540000D02*
X158757500Y-81410000D01*
X163097500Y-122190000D02*
X163097500Y-81410000D01*
X156277500Y-105720000D02*
X157777500Y-105720000D01*
X157777500Y-122190000D02*
X158757500Y-122190000D01*
X158757500Y-122060000D02*
X160567500Y-122060000D01*
X160567500Y-122060000D02*
X160567500Y-122190000D01*
X158757500Y-122190000D02*
X158757500Y-122060000D01*
X163397500Y-81110000D02*
X163397500Y-83520000D01*
X156277500Y-97880000D02*
X156277500Y-105720000D01*
X160567500Y-81410000D02*
X160567500Y-81540000D01*
X163097500Y-81410000D02*
X160567500Y-81410000D01*
X158757500Y-81410000D02*
X157777500Y-81410000D01*
%TO.C,J7der1*%
X115075000Y-105710000D02*
X116575000Y-105710000D01*
X114095000Y-122050000D02*
X114095000Y-122180000D01*
X114095000Y-81530000D02*
X112285000Y-81530000D01*
X114095000Y-81400000D02*
X114095000Y-81530000D01*
X115075000Y-97870000D02*
X115075000Y-81400000D01*
X112285000Y-122050000D02*
X114095000Y-122050000D01*
X114095000Y-122180000D02*
X115075000Y-122180000D01*
X109455000Y-122480000D02*
X109455000Y-120070000D01*
X115075000Y-122180000D02*
X115075000Y-105710000D01*
X112285000Y-81530000D02*
X112285000Y-81400000D01*
X112285000Y-81400000D02*
X109755000Y-81400000D01*
X111865000Y-122480000D02*
X109455000Y-122480000D01*
X112285000Y-122180000D02*
X112285000Y-122050000D01*
X109755000Y-122180000D02*
X112285000Y-122180000D01*
X109755000Y-81400000D02*
X109755000Y-122180000D01*
X115075000Y-81400000D02*
X114095000Y-81400000D01*
X116575000Y-97870000D02*
X115075000Y-97870000D01*
X116575000Y-105710000D02*
X116575000Y-97870000D01*
%TO.C,J3*%
X145060000Y-148860000D02*
X145060000Y-140740000D01*
X145060000Y-146800000D02*
X134940000Y-146800000D01*
X134940000Y-148860000D02*
X134940000Y-140740000D01*
X136430000Y-146075000D02*
X136489000Y-146016000D01*
X136225000Y-145869000D02*
X136319000Y-145776000D01*
X145060000Y-142800000D02*
X134940000Y-142800000D01*
X145300000Y-142740000D02*
X145300000Y-140500000D01*
X138680000Y-143824000D02*
X138774000Y-143731000D01*
X145060000Y-148860000D02*
X134940000Y-148860000D01*
X145300000Y-140500000D02*
X143300000Y-140500000D01*
X145060000Y-140740000D02*
X134940000Y-140740000D01*
X138510000Y-143584000D02*
X138569000Y-143526000D01*
X142500000Y-143120000D02*
G75*
G03*
X141711288Y-143316648I0J-1680000D01*
G01*
X143289000Y-143316000D02*
G75*
G03*
X142470617Y-143119550I-788998J-1483995D01*
G01*
X141015999Y-144011000D02*
G75*
G03*
X141016047Y-145589089I1484001J-789000D01*
G01*
X143984000Y-145589000D02*
G75*
G03*
X143983953Y-144010911I-1483995J789000D01*
G01*
X141711000Y-146284000D02*
G75*
G03*
X143289089Y-146283953I789000J1483995D01*
G01*
X139180000Y-144800000D02*
G75*
G03*
X139180000Y-144800000I-1680000J0D01*
G01*
%TO.C,J6*%
X124502500Y-144200000D02*
X121972500Y-144200000D01*
X119182500Y-151800000D02*
X120162500Y-151800000D01*
X120162500Y-151670000D02*
X121972500Y-151670000D01*
X122392500Y-143900000D02*
X124802500Y-143900000D01*
X124802500Y-143900000D02*
X124802500Y-146310000D01*
X121972500Y-144330000D02*
X120162500Y-144330000D01*
X119182500Y-151540000D02*
X119182500Y-151800000D01*
X120162500Y-144200000D02*
X119182500Y-144200000D01*
X121972500Y-151670000D02*
X121972500Y-151800000D01*
X121972500Y-144200000D02*
X121972500Y-144330000D01*
X120162500Y-144330000D02*
X120162500Y-144200000D01*
X117682500Y-151540000D02*
X119182500Y-151540000D01*
X119182500Y-144200000D02*
X119182500Y-144460000D01*
X124502500Y-151800000D02*
X124502500Y-144200000D01*
X117682500Y-144460000D02*
X117682500Y-151540000D01*
X121972500Y-151800000D02*
X124502500Y-151800000D01*
X119182500Y-144460000D02*
X117682500Y-144460000D01*
X120162500Y-151800000D02*
X120162500Y-151670000D01*
%TO.C,J8der1*%
X130260000Y-122180000D02*
X130260000Y-105710000D01*
X124940000Y-81400000D02*
X124940000Y-122180000D01*
X129280000Y-122050000D02*
X129280000Y-122180000D01*
X127470000Y-122180000D02*
X127470000Y-122050000D01*
X127470000Y-81530000D02*
X127470000Y-81400000D01*
X127470000Y-122050000D02*
X129280000Y-122050000D01*
X129280000Y-81400000D02*
X129280000Y-81530000D01*
X129280000Y-122180000D02*
X130260000Y-122180000D01*
X130260000Y-97870000D02*
X130260000Y-81400000D01*
X127470000Y-81400000D02*
X124940000Y-81400000D01*
X129280000Y-81530000D02*
X127470000Y-81530000D01*
X131760000Y-105710000D02*
X131760000Y-97870000D01*
X127050000Y-122480000D02*
X124640000Y-122480000D01*
X124940000Y-122180000D02*
X127470000Y-122180000D01*
X124640000Y-122480000D02*
X124640000Y-120070000D01*
X130260000Y-81400000D02*
X129280000Y-81400000D01*
X130260000Y-105710000D02*
X131760000Y-105710000D01*
X131760000Y-97870000D02*
X130260000Y-97870000D01*
%TO.C,J8*%
X124802500Y-135500000D02*
X124802500Y-137910000D01*
X119182500Y-136060000D02*
X117682500Y-136060000D01*
X120162500Y-143270000D02*
X121972500Y-143270000D01*
X121972500Y-143270000D02*
X121972500Y-143400000D01*
X119182500Y-143400000D02*
X120162500Y-143400000D01*
X117682500Y-136060000D02*
X117682500Y-143140000D01*
X124502500Y-135800000D02*
X121972500Y-135800000D01*
X120162500Y-135800000D02*
X119182500Y-135800000D01*
X119182500Y-135800000D02*
X119182500Y-136060000D01*
X121972500Y-135930000D02*
X120162500Y-135930000D01*
X124502500Y-143400000D02*
X124502500Y-135800000D01*
X120162500Y-143400000D02*
X120162500Y-143270000D01*
X122392500Y-135500000D02*
X124802500Y-135500000D01*
X121972500Y-143400000D02*
X124502500Y-143400000D01*
X121972500Y-135800000D02*
X121972500Y-135930000D01*
X119182500Y-143140000D02*
X119182500Y-143400000D01*
X120162500Y-135930000D02*
X120162500Y-135800000D01*
X117682500Y-143140000D02*
X119182500Y-143140000D01*
%TO.C,J5*%
X151007500Y-81540000D02*
X151007500Y-81410000D01*
X152817500Y-122060000D02*
X152817500Y-122190000D01*
X150027500Y-105720000D02*
X150027500Y-122190000D01*
X148527500Y-97880000D02*
X148527500Y-105720000D01*
X152817500Y-81540000D02*
X151007500Y-81540000D01*
X150027500Y-97880000D02*
X148527500Y-97880000D01*
X150027500Y-122190000D02*
X151007500Y-122190000D01*
X155647500Y-81110000D02*
X155647500Y-83520000D01*
X153237500Y-81110000D02*
X155647500Y-81110000D01*
X151007500Y-122190000D02*
X151007500Y-122060000D01*
X155347500Y-81410000D02*
X152817500Y-81410000D01*
X151007500Y-81410000D02*
X150027500Y-81410000D01*
X150027500Y-81410000D02*
X150027500Y-97880000D01*
X152817500Y-81410000D02*
X152817500Y-81540000D01*
X152817500Y-122190000D02*
X155347500Y-122190000D01*
X151007500Y-122060000D02*
X152817500Y-122060000D01*
X155347500Y-122190000D02*
X155347500Y-81410000D01*
X148527500Y-105720000D02*
X150027500Y-105720000D01*
%TO.C,D1*%
X139070000Y-134120000D02*
X139070000Y-128680000D01*
X136130000Y-133100000D02*
X139070000Y-133100000D01*
X137600000Y-127660000D02*
X137600000Y-128680000D01*
X139070000Y-128680000D02*
X136130000Y-128680000D01*
X136130000Y-133220000D02*
X139070000Y-133220000D01*
X136130000Y-128680000D02*
X136130000Y-134120000D01*
X136130000Y-134120000D02*
X139070000Y-134120000D01*
X136130000Y-133340000D02*
X139070000Y-133340000D01*
X137600000Y-135140000D02*
X137600000Y-134120000D01*
%TO.C,J2*%
X166235000Y-122060000D02*
X168045000Y-122060000D01*
X165255000Y-105720000D02*
X165255000Y-122190000D01*
X168045000Y-122190000D02*
X170575000Y-122190000D01*
X166235000Y-81540000D02*
X166235000Y-81410000D01*
X166235000Y-122190000D02*
X166235000Y-122060000D01*
X165255000Y-122190000D02*
X166235000Y-122190000D01*
X163755000Y-97880000D02*
X163755000Y-105720000D01*
X168465000Y-81110000D02*
X170875000Y-81110000D01*
X170575000Y-81410000D02*
X168045000Y-81410000D01*
X163755000Y-105720000D02*
X165255000Y-105720000D01*
X166235000Y-81410000D02*
X165255000Y-81410000D01*
X170575000Y-122190000D02*
X170575000Y-81410000D01*
X168045000Y-81540000D02*
X166235000Y-81540000D01*
X170875000Y-81110000D02*
X170875000Y-83520000D01*
X168045000Y-81410000D02*
X168045000Y-81540000D01*
X165255000Y-81410000D02*
X165255000Y-97880000D01*
X168045000Y-122060000D02*
X168045000Y-122190000D01*
X165255000Y-97880000D02*
X163755000Y-97880000D01*
%TD*%
M02*
