M48
; DRILL file {KiCad 6.0.7+dfsg-1+b1} date Wed 19 Oct 2022 11:39:03 PM -05
; FORMAT={-:-/ absolute / inch / decimal}
; #@! TF.CreationDate,2022-10-19T23:39:03-05:00
; #@! TF.GenerationSoftware,Kicad,Pcbnew,6.0.7+dfsg-1+b1
; #@! TF.FileFunction,Plated,1,2,PTH
FMAT,2
INCH
; #@! TA.AperFunction,Plated,PTH,ComponentDrill
T1C0.0429
; #@! TA.AperFunction,Plated,PTH,ComponentDrill
T2C0.0433
; #@! TA.AperFunction,Plated,PTH,ComponentDrill
T3C0.0512
%
G90
G05
T1
X4.4258Y-3.3075
X4.4258Y-3.4075
X4.4258Y-3.5075
X4.4258Y-3.6075
X4.4258Y-3.7075
X4.4258Y-3.8075
X4.4258Y-3.9075
X4.4258Y-4.0075
X4.4258Y-4.1075
X4.4258Y-4.2075
X4.4258Y-4.3075
X4.4258Y-4.4075
X4.4258Y-4.5075
X4.4258Y-4.6075
X4.4258Y-4.7075
X4.6862Y-2.722
X4.7219Y-3.3083
X4.7219Y-3.4083
X4.7219Y-3.5083
X4.7219Y-3.6083
X4.7219Y-3.7083
X4.7219Y-3.8083
X4.7219Y-3.9083
X4.7219Y-4.0083
X4.7219Y-4.1083
X4.7219Y-4.2083
X4.7219Y-4.3083
X4.7219Y-4.4083
X4.7219Y-4.5083
X4.7219Y-4.6083
X4.7219Y-4.7083
X4.7862Y-2.722
X4.7969Y-5.4461
X4.7969Y-5.5461
X4.7969Y-5.7768
X4.7969Y-5.8768
X5.0236Y-3.3075
X5.0236Y-3.4075
X5.0236Y-3.5075
X5.0236Y-3.6075
X5.0236Y-3.7075
X5.0236Y-3.8075
X5.0236Y-3.9075
X5.0236Y-4.0075
X5.0236Y-4.1075
X5.0236Y-4.2075
X5.0236Y-4.3075
X5.0236Y-4.4075
X5.0236Y-4.5075
X5.0236Y-4.6075
X5.0236Y-4.7075
X5.0575Y-2.722
X5.1575Y-2.722
X6.0113Y-3.3079
X6.0113Y-3.4079
X6.0113Y-3.5079
X6.0113Y-3.6079
X6.0113Y-3.7079
X6.0113Y-3.8079
X6.0113Y-3.9079
X6.0113Y-4.0079
X6.0113Y-4.1079
X6.0113Y-4.2079
X6.0113Y-4.3079
X6.0113Y-4.4079
X6.0113Y-4.5079
X6.0113Y-4.6079
X6.0113Y-4.7079
X6.3164Y-3.3079
X6.3164Y-3.4079
X6.3164Y-3.5079
X6.3164Y-3.6079
X6.3164Y-3.7079
X6.3164Y-3.8079
X6.3164Y-3.9079
X6.3164Y-4.0079
X6.3164Y-4.1079
X6.3164Y-4.2079
X6.3164Y-4.3079
X6.3164Y-4.4079
X6.3164Y-4.5079
X6.3164Y-4.6079
X6.3164Y-4.7079
X6.6108Y-3.3079
X6.6108Y-3.4079
X6.6108Y-3.5079
X6.6108Y-3.6079
X6.6108Y-3.7079
X6.6108Y-3.8079
X6.6108Y-3.9079
X6.6108Y-4.0079
X6.6108Y-4.1079
X6.6108Y-4.2079
X6.6108Y-4.3079
X6.6108Y-4.4079
X6.6108Y-4.5079
X6.6108Y-4.6079
X6.6108Y-4.7079
T2
X5.4173Y-4.9732
X5.4173Y-5.3732
T3
X5.4134Y-5.7008
X5.6102Y-5.7008
T0
M30
