%TF.GenerationSoftware,KiCad,Pcbnew,6.0.7+dfsg-1+b1*%
%TF.CreationDate,2022-11-15T08:53:55-05:00*%
%TF.ProjectId,esp32,65737033-322e-46b6-9963-61645f706362,rev?*%
%TF.SameCoordinates,Original*%
%TF.FileFunction,Copper,L1,Top*%
%TF.FilePolarity,Positive*%
%FSLAX46Y46*%
G04 Gerber Fmt 4.6, Leading zero omitted, Abs format (unit mm)*
G04 Created by KiCad (PCBNEW 6.0.7+dfsg-1+b1) date 2022-11-15 08:53:55*
%MOMM*%
%LPD*%
G01*
G04 APERTURE LIST*
G04 Aperture macros list*
%AMRoundRect*
0 Rectangle with rounded corners*
0 $1 Rounding radius*
0 $2 $3 $4 $5 $6 $7 $8 $9 X,Y pos of 4 corners*
0 Add a 4 corners polygon primitive as box body*
4,1,4,$2,$3,$4,$5,$6,$7,$8,$9,$2,$3,0*
0 Add four circle primitives for the rounded corners*
1,1,$1+$1,$2,$3*
1,1,$1+$1,$4,$5*
1,1,$1+$1,$6,$7*
1,1,$1+$1,$8,$9*
0 Add four rect primitives between the rounded corners*
20,1,$1+$1,$2,$3,$4,$5,0*
20,1,$1+$1,$4,$5,$6,$7,0*
20,1,$1+$1,$6,$7,$8,$9,0*
20,1,$1+$1,$8,$9,$2,$3,0*%
G04 Aperture macros list end*
%TA.AperFunction,NonConductor*%
%ADD10C,0.200000*%
%TD*%
%TA.AperFunction,ComponentPad*%
%ADD11C,1.600000*%
%TD*%
%TA.AperFunction,ComponentPad*%
%ADD12O,1.600000X1.600000*%
%TD*%
%TA.AperFunction,ComponentPad*%
%ADD13RoundRect,0.250000X1.250000X-0.620000X1.250000X0.620000X-1.250000X0.620000X-1.250000X-0.620000X0*%
%TD*%
%TA.AperFunction,ComponentPad*%
%ADD14R,2.540000X1.740000*%
%TD*%
%TA.AperFunction,ComponentPad*%
%ADD15C,1.400000*%
%TD*%
%TA.AperFunction,ComponentPad*%
%ADD16O,1.400000X1.400000*%
%TD*%
%TA.AperFunction,ComponentPad*%
%ADD17RoundRect,0.250000X1.020000X-0.620000X1.020000X0.620000X-1.020000X0.620000X-1.020000X-0.620000X0*%
%TD*%
%TA.AperFunction,ComponentPad*%
%ADD18RoundRect,0.250000X-1.020000X0.620000X-1.020000X-0.620000X1.020000X-0.620000X1.020000X0.620000X0*%
%TD*%
%TA.AperFunction,ComponentPad*%
%ADD19R,2.500000X2.500000*%
%TD*%
%TA.AperFunction,ComponentPad*%
%ADD20R,3.000000X3.000000*%
%TD*%
%TA.AperFunction,Conductor*%
%ADD21C,1.500000*%
%TD*%
G04 APERTURE END LIST*
D10*
X104920000Y-63960000D02*
X175040000Y-63960000D01*
X175040000Y-63960000D02*
X175040000Y-154000000D01*
X175040000Y-154000000D02*
X104920000Y-154000000D01*
X104920000Y-154000000D02*
X104920000Y-63960000D01*
D11*
%TO.P,R1,1*%
%TO.N,VIN*%
X136600000Y-121400000D03*
D12*
%TO.P,R1,2*%
%TO.N,D21*%
X136600000Y-106160000D03*
%TD*%
D13*
%TO.P,J10,1,Pin_1*%
%TO.N,3V3*%
X153557500Y-71070000D03*
D14*
%TO.P,J10,2,Pin_2*%
%TO.N,GND2*%
X153557500Y-68530000D03*
%TD*%
D13*
%TO.P,J12,1,Pin_1*%
%TO.N,D22*%
X130440000Y-71070000D03*
D14*
%TO.P,J12,2,Pin_2*%
%TO.N,D21*%
X130440000Y-68530000D03*
%TD*%
D15*
%TO.P,R2,1*%
%TO.N,VIN*%
X116410000Y-130200000D03*
D16*
%TO.P,R2,2*%
%TO.N,D22*%
X108790000Y-130200000D03*
%TD*%
D17*
%TO.P,J6der1,1,Pin_1*%
%TO.N,3V3*%
X119937500Y-119590000D03*
D14*
%TO.P,J6der1,2,Pin_2*%
%TO.N,GND2*%
X119937500Y-117050000D03*
%TO.P,J6der1,3,Pin_3*%
%TO.N,D15*%
X119937500Y-114510000D03*
%TO.P,J6der1,4,Pin_4*%
%TO.N,D2*%
X119937500Y-111970000D03*
%TO.P,J6der1,5,Pin_5*%
%TO.N,D4*%
X119937500Y-109430000D03*
%TO.P,J6der1,6,Pin_6*%
%TO.N,RX2*%
X119937500Y-106890000D03*
%TO.P,J6der1,7,Pin_7*%
%TO.N,TX2*%
X119937500Y-104350000D03*
%TO.P,J6der1,8,Pin_8*%
%TO.N,D5*%
X119937500Y-101810000D03*
%TO.P,J6der1,9,Pin_9*%
%TO.N,D18*%
X119937500Y-99270000D03*
%TO.P,J6der1,10,Pin_10*%
%TO.N,D19*%
X119937500Y-96730000D03*
%TO.P,J6der1,11,Pin_11*%
%TO.N,D21*%
X119937500Y-94190000D03*
%TO.P,J6der1,12,Pin_12*%
%TO.N,RX0*%
X119937500Y-91650000D03*
%TO.P,J6der1,13,Pin_13*%
%TO.N,TX0*%
X119937500Y-89110000D03*
%TO.P,J6der1,14,Pin_14*%
%TO.N,D22*%
X119937500Y-86570000D03*
%TO.P,J6der1,15,Pin_15*%
%TO.N,D23*%
X119937500Y-84030000D03*
%TD*%
D13*
%TO.P,J9,1,Pin_1*%
%TO.N,3V3*%
X145957500Y-71070000D03*
D14*
%TO.P,J9,2,Pin_2*%
%TO.N,GND2*%
X145957500Y-68530000D03*
%TD*%
D13*
%TO.P,J1,1,Pin_1*%
%TO.N,D22*%
X122957500Y-71070000D03*
D14*
%TO.P,J1,2,Pin_2*%
%TO.N,D21*%
X122957500Y-68530000D03*
%TD*%
D13*
%TO.P,J7,1,Pin_1*%
%TO.N,D22*%
X115357500Y-71070000D03*
D14*
%TO.P,J7,2,Pin_2*%
%TO.N,D21*%
X115357500Y-68530000D03*
%TD*%
D13*
%TO.P,J11,1,Pin_1*%
%TO.N,3V3*%
X161157500Y-71070000D03*
D14*
%TO.P,J11,2,Pin_2*%
%TO.N,GND2*%
X161157500Y-68530000D03*
%TD*%
D18*
%TO.P,J4,1,Pin_1*%
%TO.N,EN*%
X160437500Y-84020000D03*
D14*
%TO.P,J4,2,Pin_2*%
%TO.N,VP*%
X160437500Y-86560000D03*
%TO.P,J4,3,Pin_3*%
%TO.N,VN*%
X160437500Y-89100000D03*
%TO.P,J4,4,Pin_4*%
%TO.N,D34*%
X160437500Y-91640000D03*
%TO.P,J4,5,Pin_5*%
%TO.N,D35*%
X160437500Y-94180000D03*
%TO.P,J4,6,Pin_6*%
%TO.N,D32*%
X160437500Y-96720000D03*
%TO.P,J4,7,Pin_7*%
%TO.N,D33*%
X160437500Y-99260000D03*
%TO.P,J4,8,Pin_8*%
%TO.N,D25*%
X160437500Y-101800000D03*
%TO.P,J4,9,Pin_9*%
%TO.N,D26*%
X160437500Y-104340000D03*
%TO.P,J4,10,Pin_10*%
%TO.N,D27*%
X160437500Y-106880000D03*
%TO.P,J4,11,Pin_11*%
%TO.N,D14*%
X160437500Y-109420000D03*
%TO.P,J4,12,Pin_12*%
%TO.N,D12*%
X160437500Y-111960000D03*
%TO.P,J4,13,Pin_13*%
%TO.N,D13*%
X160437500Y-114500000D03*
%TO.P,J4,14,Pin_14*%
%TO.N,GND*%
X160437500Y-117040000D03*
%TO.P,J4,15,Pin_15*%
%TO.N,VIN*%
X160437500Y-119580000D03*
%TD*%
D17*
%TO.P,J7der1,1,Pin_1*%
%TO.N,3V3*%
X112415000Y-119570000D03*
D14*
%TO.P,J7der1,2,Pin_2*%
%TO.N,GND2*%
X112415000Y-117030000D03*
%TO.P,J7der1,3,Pin_3*%
%TO.N,D15*%
X112415000Y-114490000D03*
%TO.P,J7der1,4,Pin_4*%
%TO.N,D2*%
X112415000Y-111950000D03*
%TO.P,J7der1,5,Pin_5*%
%TO.N,D4*%
X112415000Y-109410000D03*
%TO.P,J7der1,6,Pin_6*%
%TO.N,RX2*%
X112415000Y-106870000D03*
%TO.P,J7der1,7,Pin_7*%
%TO.N,TX2*%
X112415000Y-104330000D03*
%TO.P,J7der1,8,Pin_8*%
%TO.N,D5*%
X112415000Y-101790000D03*
%TO.P,J7der1,9,Pin_9*%
%TO.N,D18*%
X112415000Y-99250000D03*
%TO.P,J7der1,10,Pin_10*%
%TO.N,D19*%
X112415000Y-96710000D03*
%TO.P,J7der1,11,Pin_11*%
%TO.N,D21*%
X112415000Y-94170000D03*
%TO.P,J7der1,12,Pin_12*%
%TO.N,RX0*%
X112415000Y-91630000D03*
%TO.P,J7der1,13,Pin_13*%
%TO.N,TX0*%
X112415000Y-89090000D03*
%TO.P,J7der1,14,Pin_14*%
%TO.N,D22*%
X112415000Y-86550000D03*
%TO.P,J7der1,15,Pin_15*%
%TO.N,D23*%
X112415000Y-84010000D03*
%TD*%
D19*
%TO.P,J3,1,Pin_1*%
%TO.N,GND*%
X142500000Y-144800000D03*
D20*
%TO.P,J3,2,Pin_2*%
%TO.N,Net-(J3-Pad2)*%
X137500000Y-144800000D03*
%TD*%
D13*
%TO.P,J6,1,Pin_1*%
%TO.N,GND*%
X118640000Y-141270000D03*
D14*
%TO.P,J6,2,Pin_2*%
%TO.N,VIN*%
X118640000Y-138730000D03*
%TD*%
D13*
%TO.P,J13,1,Pin_1*%
%TO.N,GND*%
X126157500Y-141270000D03*
D14*
%TO.P,J13,2,Pin_2*%
%TO.N,VIN*%
X126157500Y-138730000D03*
%TD*%
D17*
%TO.P,J8der1,1,Pin_1*%
%TO.N,3V3*%
X127600000Y-119570000D03*
D14*
%TO.P,J8der1,2,Pin_2*%
%TO.N,GND2*%
X127600000Y-117030000D03*
%TO.P,J8der1,3,Pin_3*%
%TO.N,D15*%
X127600000Y-114490000D03*
%TO.P,J8der1,4,Pin_4*%
%TO.N,D2*%
X127600000Y-111950000D03*
%TO.P,J8der1,5,Pin_5*%
%TO.N,D4*%
X127600000Y-109410000D03*
%TO.P,J8der1,6,Pin_6*%
%TO.N,RX2*%
X127600000Y-106870000D03*
%TO.P,J8der1,7,Pin_7*%
%TO.N,TX2*%
X127600000Y-104330000D03*
%TO.P,J8der1,8,Pin_8*%
%TO.N,D5*%
X127600000Y-101790000D03*
%TO.P,J8der1,9,Pin_9*%
%TO.N,D18*%
X127600000Y-99250000D03*
%TO.P,J8der1,10,Pin_10*%
%TO.N,D19*%
X127600000Y-96710000D03*
%TO.P,J8der1,11,Pin_11*%
%TO.N,D21*%
X127600000Y-94170000D03*
%TO.P,J8der1,12,Pin_12*%
%TO.N,RX0*%
X127600000Y-91630000D03*
%TO.P,J8der1,13,Pin_13*%
%TO.N,TX0*%
X127600000Y-89090000D03*
%TO.P,J8der1,14,Pin_14*%
%TO.N,D22*%
X127600000Y-86550000D03*
%TO.P,J8der1,15,Pin_15*%
%TO.N,D23*%
X127600000Y-84010000D03*
%TD*%
D13*
%TO.P,J8,1,Pin_1*%
%TO.N,GND*%
X110957500Y-141270000D03*
D14*
%TO.P,J8,2,Pin_2*%
%TO.N,VIN*%
X110957500Y-138730000D03*
%TD*%
D18*
%TO.P,J5,1,Pin_1*%
%TO.N,EN*%
X152687500Y-84020000D03*
D14*
%TO.P,J5,2,Pin_2*%
%TO.N,VP*%
X152687500Y-86560000D03*
%TO.P,J5,3,Pin_3*%
%TO.N,VN*%
X152687500Y-89100000D03*
%TO.P,J5,4,Pin_4*%
%TO.N,D34*%
X152687500Y-91640000D03*
%TO.P,J5,5,Pin_5*%
%TO.N,D35*%
X152687500Y-94180000D03*
%TO.P,J5,6,Pin_6*%
%TO.N,D32*%
X152687500Y-96720000D03*
%TO.P,J5,7,Pin_7*%
%TO.N,D33*%
X152687500Y-99260000D03*
%TO.P,J5,8,Pin_8*%
%TO.N,D25*%
X152687500Y-101800000D03*
%TO.P,J5,9,Pin_9*%
%TO.N,D26*%
X152687500Y-104340000D03*
%TO.P,J5,10,Pin_10*%
%TO.N,D27*%
X152687500Y-106880000D03*
%TO.P,J5,11,Pin_11*%
%TO.N,D14*%
X152687500Y-109420000D03*
%TO.P,J5,12,Pin_12*%
%TO.N,D12*%
X152687500Y-111960000D03*
%TO.P,J5,13,Pin_13*%
%TO.N,D13*%
X152687500Y-114500000D03*
%TO.P,J5,14,Pin_14*%
%TO.N,GND*%
X152687500Y-117040000D03*
%TO.P,J5,15,Pin_15*%
%TO.N,VIN*%
X152687500Y-119580000D03*
%TD*%
D20*
%TO.P,D1,1,K*%
%TO.N,VIN*%
X142200000Y-125120000D03*
%TO.P,D1,2,A*%
%TO.N,Net-(J3-Pad2)*%
X142200000Y-135280000D03*
%TD*%
D18*
%TO.P,J2,1,Pin_1*%
%TO.N,EN*%
X167915000Y-84020000D03*
D14*
%TO.P,J2,2,Pin_2*%
%TO.N,VP*%
X167915000Y-86560000D03*
%TO.P,J2,3,Pin_3*%
%TO.N,VN*%
X167915000Y-89100000D03*
%TO.P,J2,4,Pin_4*%
%TO.N,D34*%
X167915000Y-91640000D03*
%TO.P,J2,5,Pin_5*%
%TO.N,D35*%
X167915000Y-94180000D03*
%TO.P,J2,6,Pin_6*%
%TO.N,D32*%
X167915000Y-96720000D03*
%TO.P,J2,7,Pin_7*%
%TO.N,D33*%
X167915000Y-99260000D03*
%TO.P,J2,8,Pin_8*%
%TO.N,D25*%
X167915000Y-101800000D03*
%TO.P,J2,9,Pin_9*%
%TO.N,D26*%
X167915000Y-104340000D03*
%TO.P,J2,10,Pin_10*%
%TO.N,D27*%
X167915000Y-106880000D03*
%TO.P,J2,11,Pin_11*%
%TO.N,D14*%
X167915000Y-109420000D03*
%TO.P,J2,12,Pin_12*%
%TO.N,D12*%
X167915000Y-111960000D03*
%TO.P,J2,13,Pin_13*%
%TO.N,D13*%
X167915000Y-114500000D03*
%TO.P,J2,14,Pin_14*%
%TO.N,GND*%
X167915000Y-117040000D03*
%TO.P,J2,15,Pin_15*%
%TO.N,VIN*%
X167915000Y-119580000D03*
%TD*%
D21*
%TO.N,VIN*%
X136600000Y-121400000D02*
X136600000Y-123000000D01*
X136600000Y-123000000D02*
X126157500Y-133442500D01*
X142120000Y-125120000D02*
X138400000Y-121400000D01*
X142200000Y-125120000D02*
X142120000Y-125120000D01*
X138400000Y-121400000D02*
X136600000Y-121400000D01*
X126157500Y-133442500D02*
X126157500Y-138730000D01*
X142200000Y-125120000D02*
X142200000Y-125000000D01*
X142200000Y-125000000D02*
X147620000Y-119580000D01*
%TO.N,Net-(J3-Pad2)*%
X137500000Y-144800000D02*
X137500000Y-139980000D01*
X137500000Y-139980000D02*
X142200000Y-135280000D01*
%TO.N,D22*%
X108790000Y-130200000D02*
X107000000Y-128410000D01*
X107000000Y-128410000D02*
X107000000Y-88200000D01*
X107000000Y-88200000D02*
X108000000Y-87200000D01*
X108000000Y-87200000D02*
X108000000Y-85600000D01*
%TO.N,D21*%
X136600000Y-106160000D02*
X136600000Y-92410000D01*
X136600000Y-92410000D02*
X134030000Y-89840000D01*
%TO.N,3V3*%
X145957500Y-71070000D02*
X145957500Y-106842500D01*
X145957500Y-106842500D02*
X133230000Y-119570000D01*
X133230000Y-119570000D02*
X127600000Y-119570000D01*
%TO.N,GND2*%
X127600000Y-117030000D02*
X130570000Y-117030000D01*
X130570000Y-117030000D02*
X140600000Y-107000000D01*
X140600000Y-107000000D02*
X140600000Y-70400000D01*
X140600000Y-70400000D02*
X142470000Y-68530000D01*
X142470000Y-68530000D02*
X145957500Y-68530000D01*
%TO.N,VIN*%
X126157500Y-138730000D02*
X117730000Y-138730000D01*
X117730000Y-138730000D02*
X110957500Y-138730000D01*
X116410000Y-130200000D02*
X116410000Y-137410000D01*
X116410000Y-137410000D02*
X117730000Y-138730000D01*
%TO.N,D21*%
X134030000Y-69230000D02*
X134030000Y-89840000D01*
X134030000Y-69230000D02*
X133330000Y-68530000D01*
X133330000Y-68530000D02*
X130440000Y-68530000D01*
%TO.N,GND*%
X141200000Y-149800000D02*
X130600000Y-149800000D01*
X142500000Y-148500000D02*
X141200000Y-149800000D01*
X153400000Y-144800000D02*
X142500000Y-144800000D01*
X172600000Y-118000000D02*
X172600000Y-125600000D01*
X142500000Y-144800000D02*
X142500000Y-148500000D01*
X172600000Y-125600000D02*
X153400000Y-144800000D01*
X171640000Y-117040000D02*
X172600000Y-118000000D01*
X167915000Y-117040000D02*
X171640000Y-117040000D01*
X126157500Y-145357500D02*
X126157500Y-141270000D01*
X167915000Y-117040000D02*
X152687500Y-117040000D01*
X130600000Y-149800000D02*
X126157500Y-145357500D01*
X126157500Y-141270000D02*
X110957500Y-141270000D01*
%TO.N,VIN*%
X147620000Y-119580000D02*
X167915000Y-119580000D01*
%TO.N,D21*%
X127600000Y-94170000D02*
X112415000Y-94170000D01*
X134030000Y-89840000D02*
X129700000Y-94170000D01*
X130440000Y-68530000D02*
X115357500Y-68530000D01*
X129700000Y-94170000D02*
X127600000Y-94170000D01*
%TO.N,D22*%
X108000000Y-85600000D02*
X107200000Y-84800000D01*
X108950000Y-86550000D02*
X108000000Y-85600000D01*
X112415000Y-86550000D02*
X127600000Y-86550000D01*
X107200000Y-84800000D02*
X107200000Y-76200000D01*
X112415000Y-86550000D02*
X108950000Y-86550000D01*
X112330000Y-71070000D02*
X115357500Y-71070000D01*
X107200000Y-76200000D02*
X112330000Y-71070000D01*
X115357500Y-71070000D02*
X130440000Y-71070000D01*
%TO.N,EN*%
X167915000Y-84020000D02*
X152687500Y-84020000D01*
%TO.N,VP*%
X152687500Y-86560000D02*
X167915000Y-86560000D01*
%TO.N,VN*%
X152687500Y-89100000D02*
X167915000Y-89100000D01*
%TO.N,D34*%
X167915000Y-91640000D02*
X152687500Y-91640000D01*
%TO.N,D35*%
X152687500Y-94180000D02*
X167915000Y-94180000D01*
%TO.N,D32*%
X167915000Y-96720000D02*
X152687500Y-96720000D01*
%TO.N,D33*%
X152687500Y-99260000D02*
X167915000Y-99260000D01*
%TO.N,D25*%
X167915000Y-101800000D02*
X152687500Y-101800000D01*
%TO.N,D26*%
X152687500Y-104340000D02*
X167915000Y-104340000D01*
%TO.N,D27*%
X167915000Y-106880000D02*
X152687500Y-106880000D01*
%TO.N,D14*%
X152687500Y-109420000D02*
X167915000Y-109420000D01*
%TO.N,D12*%
X167915000Y-111960000D02*
X152687500Y-111960000D01*
%TO.N,D13*%
X152687500Y-114500000D02*
X167915000Y-114500000D01*
%TO.N,3V3*%
X127600000Y-119570000D02*
X112415000Y-119570000D01*
X161487500Y-71400000D02*
X161157500Y-71070000D01*
X145957500Y-71070000D02*
X161157500Y-71070000D01*
%TO.N,GND2*%
X161157500Y-68530000D02*
X145957500Y-68530000D01*
X112415000Y-117030000D02*
X127600000Y-117030000D01*
%TO.N,D15*%
X127600000Y-114490000D02*
X112415000Y-114490000D01*
%TO.N,D2*%
X112415000Y-111950000D02*
X127600000Y-111950000D01*
%TO.N,D4*%
X127600000Y-109410000D02*
X112415000Y-109410000D01*
%TO.N,RX2*%
X112415000Y-106870000D02*
X127600000Y-106870000D01*
%TO.N,TX2*%
X127600000Y-104330000D02*
X112415000Y-104330000D01*
%TO.N,D5*%
X112415000Y-101790000D02*
X127600000Y-101790000D01*
%TO.N,D18*%
X127600000Y-99250000D02*
X112415000Y-99250000D01*
%TO.N,D19*%
X112415000Y-96710000D02*
X127600000Y-96710000D01*
%TO.N,RX0*%
X112415000Y-91630000D02*
X127600000Y-91630000D01*
%TO.N,TX0*%
X127600000Y-89090000D02*
X112415000Y-89090000D01*
%TO.N,D23*%
X127600000Y-84010000D02*
X112415000Y-84010000D01*
%TD*%
M02*
