M48
; DRILL file {KiCad 6.0.7+dfsg-1+b1} date Tue 15 Nov 2022 08:53:49 AM -05
; FORMAT={-:-/ absolute / inch / decimal}
; #@! TF.CreationDate,2022-11-15T08:53:49-05:00
; #@! TF.GenerationSoftware,Kicad,Pcbnew,6.0.7+dfsg-1+b1
; #@! TF.FileFunction,Plated,1,2,PTH
FMAT,2
INCH
; #@! TA.AperFunction,Plated,PTH,ComponentDrill
T1C0.0276
; #@! TA.AperFunction,Plated,PTH,ComponentDrill
T2C0.0315
; #@! TA.AperFunction,Plated,PTH,ComponentDrill
T3C0.0429
; #@! TA.AperFunction,Plated,PTH,ComponentDrill
T4C0.0433
; #@! TA.AperFunction,Plated,PTH,ComponentDrill
T5C0.0512
%
G90
G05
T1
X4.2831Y-5.126
X4.5831Y-5.126
T2
X5.378Y-4.1795
X5.378Y-4.7795
T3
X4.3684Y-5.4618
X4.3684Y-5.5618
X4.4258Y-3.3075
X4.4258Y-3.4075
X4.4258Y-3.5075
X4.4258Y-3.6075
X4.4258Y-3.7075
X4.4258Y-3.8075
X4.4258Y-3.9075
X4.4258Y-4.0075
X4.4258Y-4.1075
X4.4258Y-4.2075
X4.4258Y-4.3075
X4.4258Y-4.4075
X4.4258Y-4.5075
X4.4258Y-4.6075
X4.4258Y-4.7075
X4.5416Y-2.698
X4.5416Y-2.798
X4.6709Y-5.4618
X4.6709Y-5.5618
X4.7219Y-3.3083
X4.7219Y-3.4083
X4.7219Y-3.5083
X4.7219Y-3.6083
X4.7219Y-3.7083
X4.7219Y-3.8083
X4.7219Y-3.9083
X4.7219Y-4.0083
X4.7219Y-4.1083
X4.7219Y-4.2083
X4.7219Y-4.3083
X4.7219Y-4.4083
X4.7219Y-4.5083
X4.7219Y-4.6083
X4.7219Y-4.7083
X4.8408Y-2.698
X4.8408Y-2.798
X4.9668Y-5.4618
X4.9668Y-5.5618
X5.0236Y-3.3075
X5.0236Y-3.4075
X5.0236Y-3.5075
X5.0236Y-3.6075
X5.0236Y-3.7075
X5.0236Y-3.8075
X5.0236Y-3.9075
X5.0236Y-4.0075
X5.0236Y-4.1075
X5.0236Y-4.2075
X5.0236Y-4.3075
X5.0236Y-4.4075
X5.0236Y-4.5075
X5.0236Y-4.6075
X5.0236Y-4.7075
X5.1354Y-2.698
X5.1354Y-2.798
X5.7464Y-2.698
X5.7464Y-2.798
X6.0113Y-3.3079
X6.0113Y-3.4079
X6.0113Y-3.5079
X6.0113Y-3.6079
X6.0113Y-3.7079
X6.0113Y-3.8079
X6.0113Y-3.9079
X6.0113Y-4.0079
X6.0113Y-4.1079
X6.0113Y-4.2079
X6.0113Y-4.3079
X6.0113Y-4.4079
X6.0113Y-4.5079
X6.0113Y-4.6079
X6.0113Y-4.7079
X6.0456Y-2.698
X6.0456Y-2.798
X6.3164Y-3.3079
X6.3164Y-3.4079
X6.3164Y-3.5079
X6.3164Y-3.6079
X6.3164Y-3.7079
X6.3164Y-3.8079
X6.3164Y-3.9079
X6.3164Y-4.0079
X6.3164Y-4.1079
X6.3164Y-4.2079
X6.3164Y-4.3079
X6.3164Y-4.4079
X6.3164Y-4.5079
X6.3164Y-4.6079
X6.3164Y-4.7079
X6.3448Y-2.698
X6.3448Y-2.798
X6.6108Y-3.3079
X6.6108Y-3.4079
X6.6108Y-3.5079
X6.6108Y-3.6079
X6.6108Y-3.7079
X6.6108Y-3.8079
X6.6108Y-3.9079
X6.6108Y-4.0079
X6.6108Y-4.1079
X6.6108Y-4.2079
X6.6108Y-4.3079
X6.6108Y-4.4079
X6.6108Y-4.5079
X6.6108Y-4.6079
X6.6108Y-4.7079
T4
X5.5984Y-4.926
X5.5984Y-5.326
T5
X5.4134Y-5.7008
X5.6102Y-5.7008
T0
M30
