%TF.GenerationSoftware,KiCad,Pcbnew,6.0.11+dfsg-1*%
%TF.CreationDate,2023-05-11T08:25:38-05:00*%
%TF.ProjectId,lights_control_v3,6c696768-7473-45f6-936f-6e74726f6c5f,rev?*%
%TF.SameCoordinates,Original*%
%TF.FileFunction,Legend,Bot*%
%TF.FilePolarity,Positive*%
%FSLAX46Y46*%
G04 Gerber Fmt 4.6, Leading zero omitted, Abs format (unit mm)*
G04 Created by KiCad (PCBNEW 6.0.11+dfsg-1) date 2023-05-11 08:25:38*
%MOMM*%
%LPD*%
G01*
G04 APERTURE LIST*
%ADD10C,0.200000*%
%ADD11C,0.150000*%
%ADD12C,0.120000*%
G04 APERTURE END LIST*
D10*
X128350000Y-110500000D02*
X165200000Y-110500000D01*
X165200000Y-110500000D02*
X165200000Y-45350000D01*
X165200000Y-45350000D02*
X128350000Y-45350000D01*
X128350000Y-45350000D02*
X128350000Y-110500000D01*
D11*
%TO.C,H4*%
X134061904Y-103952380D02*
X134061904Y-102952380D01*
X134061904Y-103428571D02*
X133490476Y-103428571D01*
X133490476Y-103952380D02*
X133490476Y-102952380D01*
X132585714Y-103285714D02*
X132585714Y-103952380D01*
X132823809Y-102904761D02*
X133061904Y-103619047D01*
X132442857Y-103619047D01*
%TO.C,H5*%
X161341904Y-103952380D02*
X161341904Y-102952380D01*
X161341904Y-103428571D02*
X160770476Y-103428571D01*
X160770476Y-103952380D02*
X160770476Y-102952380D01*
X159818095Y-102952380D02*
X160294285Y-102952380D01*
X160341904Y-103428571D01*
X160294285Y-103380952D01*
X160199047Y-103333333D01*
X159960952Y-103333333D01*
X159865714Y-103380952D01*
X159818095Y-103428571D01*
X159770476Y-103523809D01*
X159770476Y-103761904D01*
X159818095Y-103857142D01*
X159865714Y-103904761D01*
X159960952Y-103952380D01*
X160199047Y-103952380D01*
X160294285Y-103904761D01*
X160341904Y-103857142D01*
%TO.C,H7*%
X161141904Y-46852380D02*
X161141904Y-45852380D01*
X161141904Y-46328571D02*
X160570476Y-46328571D01*
X160570476Y-46852380D02*
X160570476Y-45852380D01*
X160189523Y-45852380D02*
X159522857Y-45852380D01*
X159951428Y-46852380D01*
%TO.C,H6*%
X133861904Y-46852380D02*
X133861904Y-45852380D01*
X133861904Y-46328571D02*
X133290476Y-46328571D01*
X133290476Y-46852380D02*
X133290476Y-45852380D01*
X132385714Y-45852380D02*
X132576190Y-45852380D01*
X132671428Y-45900000D01*
X132719047Y-45947619D01*
X132814285Y-46090476D01*
X132861904Y-46280952D01*
X132861904Y-46661904D01*
X132814285Y-46757142D01*
X132766666Y-46804761D01*
X132671428Y-46852380D01*
X132480952Y-46852380D01*
X132385714Y-46804761D01*
X132338095Y-46757142D01*
X132290476Y-46661904D01*
X132290476Y-46423809D01*
X132338095Y-46328571D01*
X132385714Y-46280952D01*
X132480952Y-46233333D01*
X132671428Y-46233333D01*
X132766666Y-46280952D01*
X132814285Y-46328571D01*
X132861904Y-46423809D01*
%TO.C,J2*%
X105502380Y-66056666D02*
X106216666Y-66056666D01*
X106359523Y-66009047D01*
X106454761Y-65913809D01*
X106502380Y-65770952D01*
X106502380Y-65675714D01*
X105597619Y-66485238D02*
X105550000Y-66532857D01*
X105502380Y-66628095D01*
X105502380Y-66866190D01*
X105550000Y-66961428D01*
X105597619Y-67009047D01*
X105692857Y-67056666D01*
X105788095Y-67056666D01*
X105930952Y-67009047D01*
X106502380Y-66437619D01*
X106502380Y-67056666D01*
%TO.C,J1*%
X111533333Y-44752380D02*
X111533333Y-45466666D01*
X111580952Y-45609523D01*
X111676190Y-45704761D01*
X111819047Y-45752380D01*
X111914285Y-45752380D01*
X110533333Y-45752380D02*
X111104761Y-45752380D01*
X110819047Y-45752380D02*
X110819047Y-44752380D01*
X110914285Y-44895238D01*
X111009523Y-44990476D01*
X111104761Y-45038095D01*
%TO.C,H4*%
X97661904Y-101802380D02*
X97661904Y-100802380D01*
X97661904Y-101278571D02*
X97090476Y-101278571D01*
X97090476Y-101802380D02*
X97090476Y-100802380D01*
X96185714Y-101135714D02*
X96185714Y-101802380D01*
X96423809Y-100754761D02*
X96661904Y-101469047D01*
X96042857Y-101469047D01*
%TO.C,H3*%
X98261904Y-46202380D02*
X98261904Y-45202380D01*
X98261904Y-45678571D02*
X97690476Y-45678571D01*
X97690476Y-46202380D02*
X97690476Y-45202380D01*
X97309523Y-45202380D02*
X96690476Y-45202380D01*
X97023809Y-45583333D01*
X96880952Y-45583333D01*
X96785714Y-45630952D01*
X96738095Y-45678571D01*
X96690476Y-45773809D01*
X96690476Y-46011904D01*
X96738095Y-46107142D01*
X96785714Y-46154761D01*
X96880952Y-46202380D01*
X97166666Y-46202380D01*
X97261904Y-46154761D01*
X97309523Y-46107142D01*
%TO.C,H2*%
X170361904Y-46102380D02*
X170361904Y-45102380D01*
X170361904Y-45578571D02*
X169790476Y-45578571D01*
X169790476Y-46102380D02*
X169790476Y-45102380D01*
X169361904Y-45197619D02*
X169314285Y-45150000D01*
X169219047Y-45102380D01*
X168980952Y-45102380D01*
X168885714Y-45150000D01*
X168838095Y-45197619D01*
X168790476Y-45292857D01*
X168790476Y-45388095D01*
X168838095Y-45530952D01*
X169409523Y-46102380D01*
X168790476Y-46102380D01*
%TO.C,H1*%
X170161904Y-101802380D02*
X170161904Y-100802380D01*
X170161904Y-101278571D02*
X169590476Y-101278571D01*
X169590476Y-101802380D02*
X169590476Y-100802380D01*
X168590476Y-101802380D02*
X169161904Y-101802380D01*
X168876190Y-101802380D02*
X168876190Y-100802380D01*
X168971428Y-100945238D01*
X169066666Y-101040476D01*
X169161904Y-101088095D01*
D12*
%TO.C,J2*%
X109650000Y-65060000D02*
X109650000Y-67720000D01*
X107050000Y-65060000D02*
X107050000Y-66390000D01*
X109650000Y-67720000D02*
X114790000Y-67720000D01*
X108380000Y-65060000D02*
X107050000Y-65060000D01*
X109650000Y-65060000D02*
X114790000Y-65060000D01*
X114790000Y-65060000D02*
X114790000Y-67720000D01*
%TO.C,J1*%
X102950000Y-56050000D02*
X103450000Y-56300000D01*
X102950000Y-51150000D02*
X102950000Y-46100000D01*
X103450000Y-56300000D02*
X103450000Y-50900000D01*
X103450000Y-57750000D02*
X102950000Y-58050000D01*
X118850000Y-46100000D02*
X118850000Y-58700000D01*
X103450000Y-50900000D02*
X102950000Y-51150000D01*
X102950000Y-46100000D02*
X118850000Y-46100000D01*
X118850000Y-58700000D02*
X103450000Y-58700000D01*
X102950000Y-58050000D02*
X102950000Y-56050000D01*
X103450000Y-58700000D02*
X103450000Y-57750000D01*
%TD*%
M02*
