%TF.GenerationSoftware,KiCad,Pcbnew,6.0.11+dfsg-1*%
%TF.CreationDate,2023-04-10T11:57:22-05:00*%
%TF.ProjectId,power_control,706f7765-725f-4636-9f6e-74726f6c2e6b,rev?*%
%TF.SameCoordinates,Original*%
%TF.FileFunction,Soldermask,Bot*%
%TF.FilePolarity,Negative*%
%FSLAX46Y46*%
G04 Gerber Fmt 4.6, Leading zero omitted, Abs format (unit mm)*
G04 Created by KiCad (PCBNEW 6.0.11+dfsg-1) date 2023-04-10 11:57:22*
%MOMM*%
%LPD*%
G01*
G04 APERTURE LIST*
%ADD10R,3.000000X3.960000*%
%ADD11O,3.000000X3.960000*%
%ADD12C,2.500000*%
%ADD13O,2.500000X1.750000*%
%ADD14C,5.600000*%
%ADD15R,1.800000X3.000000*%
%ADD16O,1.800000X3.000000*%
%ADD17O,2.000000X3.000000*%
%ADD18C,3.000000*%
%ADD19R,3.000000X2.000000*%
%ADD20O,3.000000X2.100000*%
%ADD21O,3.000000X2.000000*%
%ADD22O,3.000000X1.600000*%
%ADD23O,2.000000X2.250000*%
%ADD24O,2.500000X1.600000*%
%ADD25C,2.100000*%
%ADD26O,2.100000X2.500000*%
%ADD27R,2.000000X3.000000*%
%ADD28R,2.050000X3.000000*%
%ADD29O,2.050000X3.000000*%
%ADD30R,3.000000X2.100000*%
%ADD31C,2.000000*%
%ADD32O,2.000000X2.000000*%
%ADD33O,2.650000X2.100000*%
G04 APERTURE END LIST*
D10*
%TO.C,J_wpump1*%
X179411500Y-108439000D03*
D11*
X184411500Y-108439000D03*
%TD*%
D10*
%TO.C,J_fan1*%
X194183000Y-108458000D03*
D11*
X199183000Y-108458000D03*
%TD*%
D12*
%TO.C,R2*%
X187198000Y-56388000D03*
D13*
X187198000Y-51308000D03*
%TD*%
D14*
%TO.C,H4*%
X131114800Y-53390800D03*
%TD*%
%TO.C,H2*%
X199491600Y-53390800D03*
%TD*%
D15*
%TO.C,U3*%
X170892400Y-52198100D03*
D16*
X168352400Y-52198100D03*
D17*
X165812400Y-52198100D03*
D16*
X165812400Y-59818100D03*
X168352400Y-59818100D03*
D17*
X170892400Y-59818100D03*
%TD*%
D18*
%TO.C,U_wpump1*%
X182765700Y-86004400D03*
X182765700Y-93243400D03*
D19*
X182765700Y-75758400D03*
D20*
X182765700Y-73177400D03*
%TD*%
D19*
%TO.C,U1*%
X145400000Y-68975000D03*
D21*
X145400000Y-71515000D03*
X145400000Y-74055000D03*
X145400000Y-76595000D03*
X145400000Y-79135000D03*
X145400000Y-81675000D03*
D22*
X145400000Y-84215000D03*
D21*
X153020000Y-84215000D03*
X153020000Y-81675000D03*
X153020000Y-79135000D03*
X153020000Y-76595000D03*
X153020000Y-74055000D03*
D23*
X153020000Y-71515000D03*
D24*
X153020000Y-68975000D03*
%TD*%
D10*
%TO.C,OUT2*%
X131635000Y-108200000D03*
D11*
X136635000Y-108200000D03*
%TD*%
D25*
%TO.C,R6*%
X155490000Y-71600000D03*
D26*
X158030000Y-71600000D03*
%TD*%
D27*
%TO.C,Q2*%
X130460000Y-96000000D03*
D17*
X133000000Y-96000000D03*
X135540000Y-96000000D03*
%TD*%
D28*
%TO.C,J1*%
X175300000Y-43300000D03*
D29*
X177800000Y-43300000D03*
X180300000Y-43300000D03*
X182800000Y-43300000D03*
X185300000Y-43300000D03*
%TD*%
D12*
%TO.C,R1*%
X181051200Y-56388000D03*
D13*
X181051200Y-51308000D03*
%TD*%
D18*
%TO.C,U_fan1*%
X197446900Y-86309200D03*
X197446900Y-93548200D03*
D30*
X197446900Y-76063200D03*
D20*
X197446900Y-73482200D03*
%TD*%
D12*
%TO.C,R9*%
X193090800Y-56489600D03*
D13*
X193090800Y-51409600D03*
%TD*%
D10*
%TO.C,5V1*%
X147878800Y-47091600D03*
D11*
X142878800Y-47091600D03*
%TD*%
D10*
%TO.C,J_oxygen1*%
X164545000Y-108458000D03*
D11*
X169545000Y-108458000D03*
%TD*%
D31*
%TO.C,R8*%
X130400000Y-89035000D03*
D32*
X130400000Y-91575000D03*
%TD*%
D18*
%TO.C,U_oxygen1*%
X168427400Y-86144100D03*
X168427400Y-93383100D03*
D19*
X168427400Y-75898100D03*
D21*
X168427400Y-73317100D03*
%TD*%
D33*
%TO.C,R4*%
X170967400Y-46598100D03*
X170967400Y-49138100D03*
%TD*%
M02*
