%TF.GenerationSoftware,KiCad,Pcbnew,6.0.11+dfsg-1*%
%TF.CreationDate,2023-03-21T20:25:39-05:00*%
%TF.ProjectId,power_control,706f7765-725f-4636-9f6e-74726f6c2e6b,rev?*%
%TF.SameCoordinates,Original*%
%TF.FileFunction,Soldermask,Bot*%
%TF.FilePolarity,Negative*%
%FSLAX46Y46*%
G04 Gerber Fmt 4.6, Leading zero omitted, Abs format (unit mm)*
G04 Created by KiCad (PCBNEW 6.0.11+dfsg-1) date 2023-03-21 20:25:39*
%MOMM*%
%LPD*%
G01*
G04 APERTURE LIST*
G04 Aperture macros list*
%AMRoundRect*
0 Rectangle with rounded corners*
0 $1 Rounding radius*
0 $2 $3 $4 $5 $6 $7 $8 $9 X,Y pos of 4 corners*
0 Add a 4 corners polygon primitive as box body*
4,1,4,$2,$3,$4,$5,$6,$7,$8,$9,$2,$3,0*
0 Add four circle primitives for the rounded corners*
1,1,$1+$1,$2,$3*
1,1,$1+$1,$4,$5*
1,1,$1+$1,$6,$7*
1,1,$1+$1,$8,$9*
0 Add four rect primitives between the rounded corners*
20,1,$1+$1,$2,$3,$4,$5,0*
20,1,$1+$1,$4,$5,$6,$7,0*
20,1,$1+$1,$6,$7,$8,$9,0*
20,1,$1+$1,$8,$9,$2,$3,0*%
G04 Aperture macros list end*
%ADD10R,2.500000X3.960000*%
%ADD11O,2.500000X3.960000*%
%ADD12R,1.980000X3.960000*%
%ADD13O,1.980000X3.960000*%
%ADD14C,2.500000*%
%ADD15O,2.500000X1.750000*%
%ADD16C,5.600000*%
%ADD17R,1.800000X3.000000*%
%ADD18O,1.800000X3.000000*%
%ADD19O,1.600000X1.600000*%
%ADD20C,3.500000*%
%ADD21RoundRect,0.312000X-1.188000X1.188000X-1.188000X-1.188000X1.188000X-1.188000X1.188000X1.188000X0*%
%ADD22C,3.000000*%
%ADD23R,1.600000X1.600000*%
%ADD24O,2.500000X1.600000*%
%ADD25O,1.650000X1.650000*%
%ADD26C,1.650000*%
%ADD27O,1.400000X2.500000*%
%ADD28R,1.905000X3.000000*%
%ADD29O,1.905000X3.000000*%
%ADD30RoundRect,0.249600X-0.950400X0.950400X-0.950400X-0.950400X0.950400X-0.950400X0.950400X0.950400X0*%
%ADD31C,2.400000*%
%ADD32RoundRect,0.250000X-0.600000X-1.000000X0.600000X-1.000000X0.600000X1.000000X-0.600000X1.000000X0*%
%ADD33O,1.700000X2.500000*%
%ADD34C,1.800000*%
%ADD35O,1.800000X1.800000*%
%ADD36C,1.750000*%
%ADD37O,1.750000X1.750000*%
G04 APERTURE END LIST*
D10*
%TO.C,J_wpump1*%
X179411500Y-108439000D03*
D11*
X184411500Y-108439000D03*
%TD*%
D12*
%TO.C,J_fan1*%
X194183000Y-108458000D03*
D13*
X199183000Y-108458000D03*
%TD*%
D14*
%TO.C,R2*%
X187198000Y-56388000D03*
D15*
X187198000Y-51308000D03*
%TD*%
D16*
%TO.C,H4*%
X131114800Y-53390800D03*
%TD*%
%TO.C,H2*%
X199745600Y-53390800D03*
%TD*%
D17*
%TO.C,U3*%
X170892400Y-52198100D03*
D18*
X168352400Y-52198100D03*
D19*
X165812400Y-52198100D03*
D18*
X165812400Y-59818100D03*
X168352400Y-59818100D03*
D19*
X170892400Y-59818100D03*
%TD*%
D20*
%TO.C,U_wpump1*%
X183134000Y-93339000D03*
X183134000Y-98339000D03*
D21*
X183134000Y-77089000D03*
D22*
X183134000Y-73339000D03*
%TD*%
D23*
%TO.C,U1*%
X145400000Y-68975000D03*
D19*
X145400000Y-71515000D03*
X145400000Y-74055000D03*
X145400000Y-76595000D03*
X145400000Y-79135000D03*
X145400000Y-81675000D03*
D24*
X145400000Y-84215000D03*
D19*
X153020000Y-84215000D03*
X153020000Y-81675000D03*
X153020000Y-79135000D03*
X153020000Y-76595000D03*
D25*
X153020000Y-74055000D03*
X153020000Y-71515000D03*
D24*
X153020000Y-68975000D03*
%TD*%
D10*
%TO.C,OUT2*%
X131635000Y-108200000D03*
D11*
X136635000Y-108200000D03*
%TD*%
D26*
%TO.C,R6*%
X155490000Y-71600000D03*
D27*
X158030000Y-71600000D03*
%TD*%
D28*
%TO.C,Q2*%
X130460000Y-96000000D03*
D29*
X133000000Y-96000000D03*
X135540000Y-96000000D03*
%TD*%
D14*
%TO.C,R1*%
X181051200Y-56388000D03*
D15*
X181051200Y-51308000D03*
%TD*%
D16*
%TO.C,H1*%
X152527000Y-109347000D03*
%TD*%
D20*
%TO.C,U_fan1*%
X197583000Y-93466000D03*
X197583000Y-98466000D03*
D30*
X197583000Y-77216000D03*
D31*
X197583000Y-73466000D03*
%TD*%
D16*
%TO.C,H3*%
X131064000Y-77774800D03*
%TD*%
D14*
%TO.C,R9*%
X193090800Y-56489600D03*
D15*
X193090800Y-51409600D03*
%TD*%
D32*
%TO.C,J1*%
X175746400Y-43500100D03*
D33*
X178246400Y-43500100D03*
X180746400Y-43500100D03*
X183246400Y-43500100D03*
X185746400Y-43500100D03*
%TD*%
D12*
%TO.C,5V1*%
X147878800Y-47091600D03*
D13*
X142878800Y-47091600D03*
%TD*%
D10*
%TO.C,J_oxygen1*%
X164545000Y-108458000D03*
D11*
X169545000Y-108458000D03*
%TD*%
D34*
%TO.C,R8*%
X130400000Y-89035000D03*
D35*
X130400000Y-91575000D03*
%TD*%
D20*
%TO.C,U_oxygen1*%
X167667500Y-93758000D03*
X167667500Y-98758000D03*
D21*
X167667500Y-77508000D03*
D22*
X167667500Y-73758000D03*
%TD*%
D36*
%TO.C,R4*%
X170967400Y-46598100D03*
D37*
X170967400Y-49138100D03*
%TD*%
M02*
