%TF.GenerationSoftware,KiCad,Pcbnew,6.0.11+dfsg-1*%
%TF.CreationDate,2023-04-26T14:21:25-05:00*%
%TF.ProjectId,power_control,706f7765-725f-4636-9f6e-74726f6c2e6b,rev?*%
%TF.SameCoordinates,Original*%
%TF.FileFunction,Copper,L2,Bot*%
%TF.FilePolarity,Positive*%
%FSLAX46Y46*%
G04 Gerber Fmt 4.6, Leading zero omitted, Abs format (unit mm)*
G04 Created by KiCad (PCBNEW 6.0.11+dfsg-1) date 2023-04-26 14:21:25*
%MOMM*%
%LPD*%
G01*
G04 APERTURE LIST*
%TA.AperFunction,ComponentPad*%
%ADD10R,3.000000X3.960000*%
%TD*%
%TA.AperFunction,ComponentPad*%
%ADD11O,3.000000X3.960000*%
%TD*%
%TA.AperFunction,ComponentPad*%
%ADD12C,2.500000*%
%TD*%
%TA.AperFunction,ComponentPad*%
%ADD13O,2.500000X1.750000*%
%TD*%
%TA.AperFunction,ComponentPad*%
%ADD14C,5.600000*%
%TD*%
%TA.AperFunction,ComponentPad*%
%ADD15R,3.500000X4.500000*%
%TD*%
%TA.AperFunction,ComponentPad*%
%ADD16O,3.500000X4.500000*%
%TD*%
%TA.AperFunction,ComponentPad*%
%ADD17R,1.800000X3.000000*%
%TD*%
%TA.AperFunction,ComponentPad*%
%ADD18O,1.800000X3.000000*%
%TD*%
%TA.AperFunction,ComponentPad*%
%ADD19O,2.000000X3.000000*%
%TD*%
%TA.AperFunction,ComponentPad*%
%ADD20C,3.000000*%
%TD*%
%TA.AperFunction,ComponentPad*%
%ADD21R,3.000000X2.000000*%
%TD*%
%TA.AperFunction,ComponentPad*%
%ADD22O,3.000000X2.100000*%
%TD*%
%TA.AperFunction,ComponentPad*%
%ADD23O,3.000000X2.000000*%
%TD*%
%TA.AperFunction,ComponentPad*%
%ADD24O,3.000000X1.600000*%
%TD*%
%TA.AperFunction,ComponentPad*%
%ADD25O,2.000000X2.250000*%
%TD*%
%TA.AperFunction,ComponentPad*%
%ADD26O,2.500000X1.600000*%
%TD*%
%TA.AperFunction,ComponentPad*%
%ADD27O,2.100000X3.000000*%
%TD*%
%TA.AperFunction,ComponentPad*%
%ADD28R,2.100000X3.000000*%
%TD*%
%TA.AperFunction,ComponentPad*%
%ADD29R,3.000000X2.100000*%
%TD*%
%TA.AperFunction,ComponentPad*%
%ADD30O,3.000000X2.125000*%
%TD*%
%TA.AperFunction,ComponentPad*%
%ADD31O,2.650000X2.100000*%
%TD*%
%TA.AperFunction,ViaPad*%
%ADD32C,2.300000*%
%TD*%
%TA.AperFunction,Conductor*%
%ADD33C,1.330000*%
%TD*%
%TA.AperFunction,Conductor*%
%ADD34C,2.000000*%
%TD*%
%TA.AperFunction,Conductor*%
%ADD35C,2.500000*%
%TD*%
G04 APERTURE END LIST*
D10*
%TO.P,J_wpump1,1,Pin_1*%
%TO.N,Net-(J_wpump1-Pad1)*%
X179411500Y-108439000D03*
D11*
%TO.P,J_wpump1,2,Pin_2*%
%TO.N,Net-(J_wpump1-Pad2)*%
X184411500Y-108439000D03*
%TD*%
D10*
%TO.P,J_fan1,1,Pin_1*%
%TO.N,Net-(J_fan1-Pad1)*%
X194183000Y-108458000D03*
D11*
%TO.P,J_fan1,2,Pin_2*%
%TO.N,Net-(J_fan1-Pad2)*%
X199183000Y-108458000D03*
%TD*%
D12*
%TO.P,R2,1*%
%TO.N,Net-(R2-Pad1)*%
X182050800Y-59320000D03*
D13*
%TO.P,R2,2*%
%TO.N,D27*%
X182050800Y-54240000D03*
%TD*%
D14*
%TO.P,H4,1*%
%TO.N,N/C*%
X131114800Y-53390800D03*
%TD*%
%TO.P,H2,1*%
%TO.N,N/C*%
X199491600Y-53390800D03*
%TD*%
D15*
%TO.P,J1,1,Pin_1*%
%TO.N,GND5V*%
X191857500Y-38607500D03*
D16*
%TO.P,J1,2,Pin_2*%
%TO.N,D33*%
X186857500Y-38607500D03*
%TO.P,J1,3,Pin_3*%
%TO.N,D27*%
X181857500Y-38607500D03*
%TO.P,J1,4,Pin_4*%
%TO.N,D26*%
X176857500Y-38607500D03*
%TO.P,J1,5,Pin_5*%
%TO.N,D14*%
X171857500Y-38607500D03*
%TD*%
D17*
%TO.P,U3,1*%
%TO.N,Net-(R4-Pad2)*%
X165842400Y-52052400D03*
D18*
%TO.P,U3,2*%
%TO.N,GND5V*%
X163302400Y-52052400D03*
D19*
%TO.P,U3,3,NC*%
%TO.N,unconnected-(U3-Pad3)*%
X160762400Y-52052400D03*
D18*
%TO.P,U3,4*%
%TO.N,GND5V*%
X160762400Y-59672400D03*
%TO.P,U3,5*%
%TO.N,Net-(R6-Pad1)*%
X163302400Y-59672400D03*
D19*
%TO.P,U3,6*%
%TO.N,unconnected-(U3-Pad6)*%
X165842400Y-59672400D03*
%TD*%
D20*
%TO.P,U_wpump1,11*%
%TO.N,Net-(J_wpump1-Pad1)*%
X182765700Y-86004400D03*
%TO.P,U_wpump1,14*%
%TO.N,Net-(J_wpump1-Pad2)*%
X182765700Y-93243400D03*
D21*
%TO.P,U_wpump1,A1*%
%TO.N,Net-(R2-Pad1)*%
X182765700Y-75758400D03*
D22*
%TO.P,U_wpump1,A2*%
%TO.N,GND5V*%
X182765700Y-73177400D03*
%TD*%
D21*
%TO.P,U1,1*%
%TO.N,N/C*%
X145400000Y-68975000D03*
D23*
%TO.P,U1,2*%
X145400000Y-71515000D03*
%TO.P,U1,3*%
%TO.N,unconnected-(U1-Pad3)*%
X145400000Y-74055000D03*
%TO.P,U1,4*%
%TO.N,unconnected-(U1-Pad4)*%
X145400000Y-76595000D03*
%TO.P,U1,5*%
%TO.N,unconnected-(U1-Pad5)*%
X145400000Y-79135000D03*
%TO.P,U1,6*%
%TO.N,unconnected-(U1-Pad6)*%
X145400000Y-81675000D03*
D24*
%TO.P,U1,7,VSS*%
%TO.N,GND5V*%
X145400000Y-84215000D03*
D23*
%TO.P,U1,8*%
%TO.N,unconnected-(U1-Pad8)*%
X153020000Y-84215000D03*
%TO.P,U1,9*%
%TO.N,unconnected-(U1-Pad9)*%
X153020000Y-81675000D03*
%TO.P,U1,10*%
%TO.N,unconnected-(U1-Pad10)*%
X153020000Y-79135000D03*
%TO.P,U1,11*%
%TO.N,unconnected-(U1-Pad11)*%
X153020000Y-76595000D03*
%TO.P,U1,12*%
%TO.N,Net-(R8-Pad1)*%
X153020000Y-74055000D03*
D25*
%TO.P,U1,13*%
%TO.N,Net-(R6-Pad1)*%
X153020000Y-71515000D03*
D26*
%TO.P,U1,14,VDD*%
%TO.N,5v*%
X153020000Y-68975000D03*
%TD*%
D10*
%TO.P,OUT2,1,Pin_1*%
%TO.N,Net-(OUT2-Pad1)*%
X131635000Y-108200000D03*
D11*
%TO.P,OUT2,2,Pin_2*%
%TO.N,GND5V*%
X136635000Y-108200000D03*
%TD*%
D27*
%TO.P,R6,1*%
%TO.N,Net-(R6-Pad1)*%
X155490000Y-71600000D03*
%TO.P,R6,2*%
%TO.N,5v*%
X158030000Y-71600000D03*
%TD*%
D28*
%TO.P,Q2,1,B*%
%TO.N,Net-(Q2-Pad1)*%
X130460000Y-96000000D03*
D27*
%TO.P,Q2,2,C*%
%TO.N,5v*%
X133000000Y-96000000D03*
%TO.P,Q2,3,E*%
%TO.N,Net-(OUT2-Pad1)*%
X135540000Y-96000000D03*
%TD*%
D12*
%TO.P,R1,1*%
%TO.N,Net-(R1-Pad1)*%
X177000000Y-59152500D03*
D13*
%TO.P,R1,2*%
%TO.N,D26*%
X177000000Y-54072500D03*
%TD*%
D20*
%TO.P,U_fan1,11*%
%TO.N,Net-(J_fan1-Pad1)*%
X197446900Y-86309200D03*
%TO.P,U_fan1,14*%
%TO.N,Net-(J_fan1-Pad2)*%
X197446900Y-93548200D03*
D29*
%TO.P,U_fan1,A1*%
%TO.N,Net-(R9-Pad1)*%
X197446900Y-76063200D03*
D22*
%TO.P,U_fan1,A2*%
%TO.N,GND5V*%
X197446900Y-73482200D03*
%TD*%
D12*
%TO.P,R9,1*%
%TO.N,Net-(R9-Pad1)*%
X186750000Y-59402500D03*
D13*
%TO.P,R9,2*%
%TO.N,D33*%
X186750000Y-54322500D03*
%TD*%
D10*
%TO.P,5V1,1,Pin_1*%
%TO.N,5v*%
X147878800Y-39250000D03*
D11*
%TO.P,5V1,2,Pin_2*%
%TO.N,GND5V*%
X142878800Y-39250000D03*
%TD*%
D10*
%TO.P,J_oxygen1,1,Pin_1*%
%TO.N,Net-(J_oxygen1-Pad1)*%
X164545000Y-108458000D03*
D11*
%TO.P,J_oxygen1,2,Pin_2*%
%TO.N,Net-(J_oxygen1-Pad2)*%
X169545000Y-108458000D03*
%TD*%
D30*
%TO.P,R8,1*%
%TO.N,Net-(R8-Pad1)*%
X130400000Y-87295000D03*
%TO.P,R8,2*%
%TO.N,Net-(Q2-Pad1)*%
X130400000Y-89835000D03*
%TD*%
D20*
%TO.P,U_oxygen1,11*%
%TO.N,Net-(J_oxygen1-Pad1)*%
X168427400Y-86144100D03*
%TO.P,U_oxygen1,14*%
%TO.N,Net-(J_oxygen1-Pad2)*%
X168427400Y-93383100D03*
D21*
%TO.P,U_oxygen1,A1*%
%TO.N,Net-(R1-Pad1)*%
X168427400Y-75898100D03*
D23*
%TO.P,U_oxygen1,A2*%
%TO.N,GND5V*%
X168427400Y-73317100D03*
%TD*%
D31*
%TO.P,R4,1*%
%TO.N,D14*%
X165917400Y-46452400D03*
%TO.P,R4,2*%
%TO.N,Net-(R4-Pad2)*%
X165917400Y-48992400D03*
%TD*%
D32*
%TO.N,5v*%
X138419600Y-90830400D03*
X156500000Y-65495000D03*
X158000000Y-76000000D03*
X148285200Y-54914800D03*
%TO.N,Net-(R1-Pad1)*%
X177000000Y-63876900D03*
X162966400Y-72745600D03*
%TO.N,Net-(R2-Pad1)*%
X186283600Y-77063600D03*
X182000000Y-63993600D03*
%TO.N,Net-(R8-Pad1)*%
X149500000Y-75250000D03*
X135823200Y-87426800D03*
%TO.N,Net-(R9-Pad1)*%
X186597600Y-64279300D03*
X192481200Y-77165200D03*
%TD*%
D33*
%TO.N,GND5V*%
X149250000Y-34250000D02*
X149250000Y-34000000D01*
D34*
X183261000Y-73466000D02*
X183134000Y-73339000D01*
D33*
X189500000Y-34000000D02*
X191857500Y-36357500D01*
D34*
X145400000Y-84215000D02*
X143041400Y-84215000D01*
D33*
X163250000Y-48250000D02*
X149250000Y-34250000D01*
D34*
X177292000Y-74777600D02*
X175853400Y-73339000D01*
X145400000Y-86218000D02*
X148463000Y-89281000D01*
X143041400Y-84215000D02*
X138125200Y-79298800D01*
X197583000Y-73466000D02*
X183261000Y-73466000D01*
X177292000Y-77622400D02*
X177292000Y-74777600D01*
X174040800Y-80873600D02*
X177292000Y-77622400D01*
X183134000Y-73339000D02*
X178876000Y-73339000D01*
X165303200Y-80873600D02*
X174040800Y-80873600D01*
D33*
X149250000Y-34000000D02*
X189500000Y-34000000D01*
D34*
X173059400Y-73339000D02*
X168086500Y-73339000D01*
X178876000Y-73339000D02*
X173059400Y-73339000D01*
D33*
X160762400Y-57460300D02*
X163302400Y-54920300D01*
D34*
X145400000Y-84215000D02*
X145400000Y-86218000D01*
X138125200Y-42374800D02*
X141250000Y-39250000D01*
D33*
X191857500Y-36357500D02*
X191857500Y-38607500D01*
X142878800Y-39250000D02*
X148128800Y-34000000D01*
D34*
X175853400Y-73339000D02*
X173059400Y-73339000D01*
X136635000Y-108200000D02*
X138053000Y-108200000D01*
D33*
X163250000Y-52000000D02*
X163250000Y-48250000D01*
X163302400Y-52052400D02*
X163250000Y-52000000D01*
D34*
X156972000Y-89204800D02*
X165303200Y-80873600D01*
X138125200Y-79298800D02*
X138125200Y-42374800D01*
X156972000Y-89281000D02*
X156972000Y-89204800D01*
X138053000Y-108200000D02*
X156972000Y-89281000D01*
X156972000Y-89281000D02*
X148463000Y-89281000D01*
D33*
X148128800Y-34000000D02*
X149250000Y-34000000D01*
X160762400Y-59672400D02*
X160762400Y-57460300D01*
D34*
X141250000Y-39250000D02*
X142878800Y-39250000D01*
D33*
X163302400Y-54920300D02*
X163302400Y-52052400D01*
%TO.N,D33*%
X186750000Y-54322500D02*
X186857500Y-54215000D01*
X186857500Y-54215000D02*
X186857500Y-38607500D01*
D35*
%TO.N,Net-(J_oxygen1-Pad1)*%
X168427400Y-86144100D02*
X164545000Y-90026500D01*
X164545000Y-90026500D02*
X164545000Y-108458000D01*
%TO.N,Net-(J_oxygen1-Pad2)*%
X169545000Y-108458000D02*
X169545000Y-94500700D01*
X169545000Y-94500700D02*
X168427400Y-93383100D01*
%TO.N,Net-(J_wpump1-Pad1)*%
X177342800Y-106476800D02*
X177342800Y-89103200D01*
X180441600Y-86004400D02*
X182765700Y-86004400D01*
X179305000Y-108439000D02*
X177342800Y-106476800D01*
X179411500Y-108439000D02*
X179305000Y-108439000D01*
X177342800Y-89103200D02*
X180441600Y-86004400D01*
%TO.N,Net-(J_wpump1-Pad2)*%
X184411500Y-94889200D02*
X182765700Y-93243400D01*
X184411500Y-108439000D02*
X184411500Y-94889200D01*
D34*
%TO.N,Net-(OUT2-Pad1)*%
X131635000Y-108200000D02*
X131635000Y-104204000D01*
X131635000Y-104204000D02*
X135540000Y-100299000D01*
X135540000Y-100299000D02*
X135540000Y-96000000D01*
D33*
%TO.N,Net-(Q2-Pad1)*%
X130460000Y-89895000D02*
X130400000Y-89835000D01*
X130400000Y-95940000D02*
X130460000Y-96000000D01*
X130460000Y-96000000D02*
X130460000Y-89895000D01*
%TO.N,5v*%
X153060400Y-68934600D02*
X153020000Y-68975000D01*
X158000000Y-76000000D02*
X158000000Y-73750000D01*
X135636000Y-90830400D02*
X133000000Y-93466400D01*
X147878800Y-54508400D02*
X147878800Y-39250000D01*
X158030000Y-68805000D02*
X157525000Y-68300000D01*
X156500000Y-65495000D02*
X153020000Y-68975000D01*
X157525000Y-68300000D02*
X153695000Y-68300000D01*
X158030000Y-73720000D02*
X158030000Y-71600000D01*
X133000000Y-93466400D02*
X133000000Y-96000000D01*
X153695000Y-68300000D02*
X153020000Y-68975000D01*
X138419600Y-90830400D02*
X135636000Y-90830400D01*
X158000000Y-73750000D02*
X158030000Y-73720000D01*
X158030000Y-71600000D02*
X158030000Y-68805000D01*
X148285200Y-54914800D02*
X147878800Y-54508400D01*
%TO.N,Net-(R1-Pad1)*%
X162966400Y-74574400D02*
X162966400Y-72745600D01*
X164290100Y-75898100D02*
X162966400Y-74574400D01*
X177000000Y-63876900D02*
X177000000Y-59152500D01*
X168427400Y-75898100D02*
X164290100Y-75898100D01*
%TO.N,Net-(R2-Pad1)*%
X184096300Y-77089000D02*
X186258200Y-77089000D01*
X186258200Y-77089000D02*
X186283600Y-77063600D01*
X182765700Y-75758400D02*
X184096300Y-77089000D01*
X182000000Y-63993600D02*
X182000000Y-59370800D01*
%TO.N,Net-(R4-Pad2)*%
X165917400Y-48992400D02*
X165917400Y-51977400D01*
X165917400Y-51977400D02*
X165842400Y-52052400D01*
%TO.N,Net-(R6-Pad1)*%
X153714100Y-62592300D02*
X149352000Y-66954400D01*
X155490000Y-71600000D02*
X153105000Y-71600000D01*
X161701000Y-62592300D02*
X153714100Y-62592300D01*
X149352000Y-66954400D02*
X149352000Y-70561200D01*
X150305800Y-71515000D02*
X153020000Y-71515000D01*
X163302400Y-60990900D02*
X161701000Y-62592300D01*
X149352000Y-70561200D02*
X150305800Y-71515000D01*
X163302400Y-59672400D02*
X163302400Y-60990900D01*
X153105000Y-71600000D02*
X153020000Y-71515000D01*
%TO.N,Net-(R8-Pad1)*%
X150695000Y-74055000D02*
X153020000Y-74055000D01*
X135823200Y-87426800D02*
X130531800Y-87426800D01*
X149500000Y-75250000D02*
X150695000Y-74055000D01*
X130531800Y-87426800D02*
X130400000Y-87295000D01*
%TO.N,Net-(R9-Pad1)*%
X192532000Y-77216000D02*
X196294100Y-77216000D01*
X186750000Y-59402500D02*
X186750000Y-64126900D01*
X192481200Y-77165200D02*
X192532000Y-77216000D01*
X196294100Y-77216000D02*
X197446900Y-76063200D01*
D35*
%TO.N,Net-(J_fan1-Pad1)*%
X194056000Y-86309200D02*
X191719200Y-88646000D01*
X191719200Y-105994200D02*
X194183000Y-108458000D01*
X191719200Y-88646000D02*
X191719200Y-105994200D01*
X197446900Y-86309200D02*
X194056000Y-86309200D01*
%TO.N,Net-(J_fan1-Pad2)*%
X199183000Y-108458000D02*
X199183000Y-95284300D01*
X199183000Y-95284300D02*
X197446900Y-93548200D01*
D33*
%TO.N,D14*%
X166000000Y-44465000D02*
X166000000Y-46369800D01*
X171857500Y-38607500D02*
X166000000Y-44465000D01*
X166000000Y-46369800D02*
X165917400Y-46452400D01*
%TO.N,D26*%
X176857500Y-38607500D02*
X176857500Y-53930000D01*
X176857500Y-53930000D02*
X177000000Y-54072500D01*
%TO.N,D27*%
X181857500Y-38607500D02*
X181857500Y-54046700D01*
X181857500Y-54046700D02*
X182050800Y-54240000D01*
%TD*%
M02*
