%TF.GenerationSoftware,KiCad,Pcbnew,6.0.11+dfsg-1*%
%TF.CreationDate,2023-04-02T16:47:01-05:00*%
%TF.ProjectId,power_control,706f7765-725f-4636-9f6e-74726f6c2e6b,rev?*%
%TF.SameCoordinates,Original*%
%TF.FileFunction,Legend,Top*%
%TF.FilePolarity,Positive*%
%FSLAX46Y46*%
G04 Gerber Fmt 4.6, Leading zero omitted, Abs format (unit mm)*
G04 Created by KiCad (PCBNEW 6.0.11+dfsg-1) date 2023-04-02 16:47:01*
%MOMM*%
%LPD*%
G01*
G04 APERTURE LIST*
%ADD10C,0.150000*%
%ADD11C,0.120000*%
G04 APERTURE END LIST*
D10*
%TO.C,J1*%
X179966666Y-39952380D02*
X179966666Y-40666666D01*
X179919047Y-40809523D01*
X179823809Y-40904761D01*
X179680952Y-40952380D01*
X179585714Y-40952380D01*
X180966666Y-40952380D02*
X180395238Y-40952380D01*
X180680952Y-40952380D02*
X180680952Y-39952380D01*
X180585714Y-40095238D01*
X180490476Y-40190476D01*
X180395238Y-40238095D01*
%TO.C,J_wpump1*%
X179110095Y-103211380D02*
X179110095Y-103925666D01*
X179062476Y-104068523D01*
X178967238Y-104163761D01*
X178824380Y-104211380D01*
X178729142Y-104211380D01*
X179348190Y-104306619D02*
X180110095Y-104306619D01*
X180252952Y-103544714D02*
X180443428Y-104211380D01*
X180633904Y-103735190D01*
X180824380Y-104211380D01*
X181014857Y-103544714D01*
X181395809Y-103544714D02*
X181395809Y-104544714D01*
X181395809Y-103592333D02*
X181491047Y-103544714D01*
X181681523Y-103544714D01*
X181776761Y-103592333D01*
X181824380Y-103639952D01*
X181872000Y-103735190D01*
X181872000Y-104020904D01*
X181824380Y-104116142D01*
X181776761Y-104163761D01*
X181681523Y-104211380D01*
X181491047Y-104211380D01*
X181395809Y-104163761D01*
X182729142Y-103544714D02*
X182729142Y-104211380D01*
X182300571Y-103544714D02*
X182300571Y-104068523D01*
X182348190Y-104163761D01*
X182443428Y-104211380D01*
X182586285Y-104211380D01*
X182681523Y-104163761D01*
X182729142Y-104116142D01*
X183205333Y-104211380D02*
X183205333Y-103544714D01*
X183205333Y-103639952D02*
X183252952Y-103592333D01*
X183348190Y-103544714D01*
X183491047Y-103544714D01*
X183586285Y-103592333D01*
X183633904Y-103687571D01*
X183633904Y-104211380D01*
X183633904Y-103687571D02*
X183681523Y-103592333D01*
X183776761Y-103544714D01*
X183919619Y-103544714D01*
X184014857Y-103592333D01*
X184062476Y-103687571D01*
X184062476Y-104211380D01*
X184538666Y-103544714D02*
X184538666Y-104544714D01*
X184538666Y-103592333D02*
X184633904Y-103544714D01*
X184824380Y-103544714D01*
X184919619Y-103592333D01*
X184967238Y-103639952D01*
X185014857Y-103735190D01*
X185014857Y-104020904D01*
X184967238Y-104116142D01*
X184919619Y-104163761D01*
X184824380Y-104211380D01*
X184633904Y-104211380D01*
X184538666Y-104163761D01*
X185967238Y-104211380D02*
X185395809Y-104211380D01*
X185681523Y-104211380D02*
X185681523Y-103211380D01*
X185586285Y-103354238D01*
X185491047Y-103449476D01*
X185395809Y-103497095D01*
%TO.C,J_fan1*%
X195072238Y-103338380D02*
X195072238Y-104052666D01*
X195024619Y-104195523D01*
X194929380Y-104290761D01*
X194786523Y-104338380D01*
X194691285Y-104338380D01*
X195310333Y-104433619D02*
X196072238Y-104433619D01*
X196167476Y-103671714D02*
X196548428Y-103671714D01*
X196310333Y-104338380D02*
X196310333Y-103481238D01*
X196357952Y-103386000D01*
X196453190Y-103338380D01*
X196548428Y-103338380D01*
X197310333Y-104338380D02*
X197310333Y-103814571D01*
X197262714Y-103719333D01*
X197167476Y-103671714D01*
X196977000Y-103671714D01*
X196881761Y-103719333D01*
X197310333Y-104290761D02*
X197215095Y-104338380D01*
X196977000Y-104338380D01*
X196881761Y-104290761D01*
X196834142Y-104195523D01*
X196834142Y-104100285D01*
X196881761Y-104005047D01*
X196977000Y-103957428D01*
X197215095Y-103957428D01*
X197310333Y-103909809D01*
X197786523Y-103671714D02*
X197786523Y-104338380D01*
X197786523Y-103766952D02*
X197834142Y-103719333D01*
X197929380Y-103671714D01*
X198072238Y-103671714D01*
X198167476Y-103719333D01*
X198215095Y-103814571D01*
X198215095Y-104338380D01*
X199215095Y-104338380D02*
X198643666Y-104338380D01*
X198929380Y-104338380D02*
X198929380Y-103338380D01*
X198834142Y-103481238D01*
X198738904Y-103576476D01*
X198643666Y-103624095D01*
%TO.C,R2*%
X187650380Y-54054666D02*
X187174190Y-54388000D01*
X187650380Y-54626095D02*
X186650380Y-54626095D01*
X186650380Y-54245142D01*
X186698000Y-54149904D01*
X186745619Y-54102285D01*
X186840857Y-54054666D01*
X186983714Y-54054666D01*
X187078952Y-54102285D01*
X187126571Y-54149904D01*
X187174190Y-54245142D01*
X187174190Y-54626095D01*
X186745619Y-53673714D02*
X186698000Y-53626095D01*
X186650380Y-53530857D01*
X186650380Y-53292761D01*
X186698000Y-53197523D01*
X186745619Y-53149904D01*
X186840857Y-53102285D01*
X186936095Y-53102285D01*
X187078952Y-53149904D01*
X187650380Y-53721333D01*
X187650380Y-53102285D01*
%TO.C,H4*%
X130352895Y-50043180D02*
X130352895Y-49043180D01*
X130352895Y-49519371D02*
X130924323Y-49519371D01*
X130924323Y-50043180D02*
X130924323Y-49043180D01*
X131829085Y-49376514D02*
X131829085Y-50043180D01*
X131590990Y-48995561D02*
X131352895Y-49709847D01*
X131971942Y-49709847D01*
%TO.C,H2*%
X198729695Y-50043180D02*
X198729695Y-49043180D01*
X198729695Y-49519371D02*
X199301123Y-49519371D01*
X199301123Y-50043180D02*
X199301123Y-49043180D01*
X199729695Y-49138419D02*
X199777314Y-49090800D01*
X199872552Y-49043180D01*
X200110647Y-49043180D01*
X200205885Y-49090800D01*
X200253504Y-49138419D01*
X200301123Y-49233657D01*
X200301123Y-49328895D01*
X200253504Y-49471752D01*
X199682076Y-50043180D01*
X200301123Y-50043180D01*
%TO.C,U3*%
X167819780Y-56760004D02*
X168629304Y-56760004D01*
X168724542Y-56712385D01*
X168772161Y-56664766D01*
X168819780Y-56569528D01*
X168819780Y-56379052D01*
X168772161Y-56283814D01*
X168724542Y-56236195D01*
X168629304Y-56188576D01*
X167819780Y-56188576D01*
X167819780Y-55807623D02*
X167819780Y-55188576D01*
X168200733Y-55521909D01*
X168200733Y-55379052D01*
X168248352Y-55283814D01*
X168295971Y-55236195D01*
X168391209Y-55188576D01*
X168629304Y-55188576D01*
X168724542Y-55236195D01*
X168772161Y-55283814D01*
X168819780Y-55379052D01*
X168819780Y-55664766D01*
X168772161Y-55760004D01*
X168724542Y-55807623D01*
%TO.C,U_wpump1*%
X187377319Y-78567423D02*
X186567795Y-78567423D01*
X186472557Y-78615042D01*
X186424938Y-78662661D01*
X186377319Y-78757900D01*
X186377319Y-78948376D01*
X186424938Y-79043614D01*
X186472557Y-79091233D01*
X186567795Y-79138852D01*
X187377319Y-79138852D01*
X186282080Y-79376947D02*
X186282080Y-80138852D01*
X187043985Y-80281709D02*
X186377319Y-80472185D01*
X186853509Y-80662661D01*
X186377319Y-80853138D01*
X187043985Y-81043614D01*
X187043985Y-81424566D02*
X186043985Y-81424566D01*
X186996366Y-81424566D02*
X187043985Y-81519804D01*
X187043985Y-81710280D01*
X186996366Y-81805519D01*
X186948747Y-81853138D01*
X186853509Y-81900757D01*
X186567795Y-81900757D01*
X186472557Y-81853138D01*
X186424938Y-81805519D01*
X186377319Y-81710280D01*
X186377319Y-81519804D01*
X186424938Y-81424566D01*
X187043985Y-82757900D02*
X186377319Y-82757900D01*
X187043985Y-82329328D02*
X186520176Y-82329328D01*
X186424938Y-82376947D01*
X186377319Y-82472185D01*
X186377319Y-82615042D01*
X186424938Y-82710280D01*
X186472557Y-82757900D01*
X186377319Y-83234090D02*
X187043985Y-83234090D01*
X186948747Y-83234090D02*
X186996366Y-83281709D01*
X187043985Y-83376947D01*
X187043985Y-83519804D01*
X186996366Y-83615042D01*
X186901128Y-83662661D01*
X186377319Y-83662661D01*
X186901128Y-83662661D02*
X186996366Y-83710280D01*
X187043985Y-83805519D01*
X187043985Y-83948376D01*
X186996366Y-84043614D01*
X186901128Y-84091233D01*
X186377319Y-84091233D01*
X187043985Y-84567423D02*
X186043985Y-84567423D01*
X186996366Y-84567423D02*
X187043985Y-84662661D01*
X187043985Y-84853138D01*
X186996366Y-84948376D01*
X186948747Y-84995995D01*
X186853509Y-85043614D01*
X186567795Y-85043614D01*
X186472557Y-84995995D01*
X186424938Y-84948376D01*
X186377319Y-84853138D01*
X186377319Y-84662661D01*
X186424938Y-84567423D01*
X186377319Y-85995995D02*
X186377319Y-85424566D01*
X186377319Y-85710280D02*
X187377319Y-85710280D01*
X187234461Y-85615042D01*
X187139223Y-85519804D01*
X187091604Y-85424566D01*
%TO.C,U1*%
X148448095Y-66097380D02*
X148448095Y-66906904D01*
X148495714Y-67002142D01*
X148543333Y-67049761D01*
X148638571Y-67097380D01*
X148829047Y-67097380D01*
X148924285Y-67049761D01*
X148971904Y-67002142D01*
X149019523Y-66906904D01*
X149019523Y-66097380D01*
X150019523Y-67097380D02*
X149448095Y-67097380D01*
X149733809Y-67097380D02*
X149733809Y-66097380D01*
X149638571Y-66240238D01*
X149543333Y-66335476D01*
X149448095Y-66383095D01*
%TO.C,OUT2*%
X132723809Y-103211380D02*
X132914285Y-103211380D01*
X133009523Y-103259000D01*
X133104761Y-103354238D01*
X133152380Y-103544714D01*
X133152380Y-103878047D01*
X133104761Y-104068523D01*
X133009523Y-104163761D01*
X132914285Y-104211380D01*
X132723809Y-104211380D01*
X132628571Y-104163761D01*
X132533333Y-104068523D01*
X132485714Y-103878047D01*
X132485714Y-103544714D01*
X132533333Y-103354238D01*
X132628571Y-103259000D01*
X132723809Y-103211380D01*
X133580952Y-103211380D02*
X133580952Y-104020904D01*
X133628571Y-104116142D01*
X133676190Y-104163761D01*
X133771428Y-104211380D01*
X133961904Y-104211380D01*
X134057142Y-104163761D01*
X134104761Y-104116142D01*
X134152380Y-104020904D01*
X134152380Y-103211380D01*
X134485714Y-103211380D02*
X135057142Y-103211380D01*
X134771428Y-104211380D02*
X134771428Y-103211380D01*
X135342857Y-103306619D02*
X135390476Y-103259000D01*
X135485714Y-103211380D01*
X135723809Y-103211380D01*
X135819047Y-103259000D01*
X135866666Y-103306619D01*
X135914285Y-103401857D01*
X135914285Y-103497095D01*
X135866666Y-103639952D01*
X135295238Y-104211380D01*
X135914285Y-104211380D01*
%TO.C,R6*%
X156593333Y-70132380D02*
X156260000Y-69656190D01*
X156021904Y-70132380D02*
X156021904Y-69132380D01*
X156402857Y-69132380D01*
X156498095Y-69180000D01*
X156545714Y-69227619D01*
X156593333Y-69322857D01*
X156593333Y-69465714D01*
X156545714Y-69560952D01*
X156498095Y-69608571D01*
X156402857Y-69656190D01*
X156021904Y-69656190D01*
X157450476Y-69132380D02*
X157260000Y-69132380D01*
X157164761Y-69180000D01*
X157117142Y-69227619D01*
X157021904Y-69370476D01*
X156974285Y-69560952D01*
X156974285Y-69941904D01*
X157021904Y-70037142D01*
X157069523Y-70084761D01*
X157164761Y-70132380D01*
X157355238Y-70132380D01*
X157450476Y-70084761D01*
X157498095Y-70037142D01*
X157545714Y-69941904D01*
X157545714Y-69703809D01*
X157498095Y-69608571D01*
X157450476Y-69560952D01*
X157355238Y-69513333D01*
X157164761Y-69513333D01*
X157069523Y-69560952D01*
X157021904Y-69608571D01*
X156974285Y-69703809D01*
%TO.C,Q2*%
X132904761Y-94002619D02*
X132809523Y-93955000D01*
X132714285Y-93859761D01*
X132571428Y-93716904D01*
X132476190Y-93669285D01*
X132380952Y-93669285D01*
X132428571Y-93907380D02*
X132333333Y-93859761D01*
X132238095Y-93764523D01*
X132190476Y-93574047D01*
X132190476Y-93240714D01*
X132238095Y-93050238D01*
X132333333Y-92955000D01*
X132428571Y-92907380D01*
X132619047Y-92907380D01*
X132714285Y-92955000D01*
X132809523Y-93050238D01*
X132857142Y-93240714D01*
X132857142Y-93574047D01*
X132809523Y-93764523D01*
X132714285Y-93859761D01*
X132619047Y-93907380D01*
X132428571Y-93907380D01*
X133238095Y-93002619D02*
X133285714Y-92955000D01*
X133380952Y-92907380D01*
X133619047Y-92907380D01*
X133714285Y-92955000D01*
X133761904Y-93002619D01*
X133809523Y-93097857D01*
X133809523Y-93193095D01*
X133761904Y-93335952D01*
X133190476Y-93907380D01*
X133809523Y-93907380D01*
%TO.C,R1*%
X181503580Y-53864666D02*
X181027390Y-54198000D01*
X181503580Y-54436095D02*
X180503580Y-54436095D01*
X180503580Y-54055142D01*
X180551200Y-53959904D01*
X180598819Y-53912285D01*
X180694057Y-53864666D01*
X180836914Y-53864666D01*
X180932152Y-53912285D01*
X180979771Y-53959904D01*
X181027390Y-54055142D01*
X181027390Y-54436095D01*
X181503580Y-52912285D02*
X181503580Y-53483714D01*
X181503580Y-53198000D02*
X180503580Y-53198000D01*
X180646438Y-53293238D01*
X180741676Y-53388476D01*
X180789295Y-53483714D01*
%TO.C,U_fan1*%
X202058519Y-80229366D02*
X201248995Y-80229366D01*
X201153757Y-80276985D01*
X201106138Y-80324604D01*
X201058519Y-80419842D01*
X201058519Y-80610319D01*
X201106138Y-80705557D01*
X201153757Y-80753176D01*
X201248995Y-80800795D01*
X202058519Y-80800795D01*
X200963280Y-81038890D02*
X200963280Y-81800795D01*
X201725185Y-81896033D02*
X201725185Y-82276985D01*
X201058519Y-82038890D02*
X201915661Y-82038890D01*
X202010900Y-82086509D01*
X202058519Y-82181747D01*
X202058519Y-82276985D01*
X201058519Y-83038890D02*
X201582328Y-83038890D01*
X201677566Y-82991271D01*
X201725185Y-82896033D01*
X201725185Y-82705557D01*
X201677566Y-82610319D01*
X201106138Y-83038890D02*
X201058519Y-82943652D01*
X201058519Y-82705557D01*
X201106138Y-82610319D01*
X201201376Y-82562700D01*
X201296614Y-82562700D01*
X201391852Y-82610319D01*
X201439471Y-82705557D01*
X201439471Y-82943652D01*
X201487090Y-83038890D01*
X201725185Y-83515080D02*
X201058519Y-83515080D01*
X201629947Y-83515080D02*
X201677566Y-83562700D01*
X201725185Y-83657938D01*
X201725185Y-83800795D01*
X201677566Y-83896033D01*
X201582328Y-83943652D01*
X201058519Y-83943652D01*
X201058519Y-84943652D02*
X201058519Y-84372223D01*
X201058519Y-84657938D02*
X202058519Y-84657938D01*
X201915661Y-84562700D01*
X201820423Y-84467461D01*
X201772804Y-84372223D01*
%TO.C,R9*%
X191623180Y-54116266D02*
X191146990Y-54449600D01*
X191623180Y-54687695D02*
X190623180Y-54687695D01*
X190623180Y-54306742D01*
X190670800Y-54211504D01*
X190718419Y-54163885D01*
X190813657Y-54116266D01*
X190956514Y-54116266D01*
X191051752Y-54163885D01*
X191099371Y-54211504D01*
X191146990Y-54306742D01*
X191146990Y-54687695D01*
X191623180Y-53640076D02*
X191623180Y-53449600D01*
X191575561Y-53354361D01*
X191527942Y-53306742D01*
X191385085Y-53211504D01*
X191194609Y-53163885D01*
X190813657Y-53163885D01*
X190718419Y-53211504D01*
X190670800Y-53259123D01*
X190623180Y-53354361D01*
X190623180Y-53544838D01*
X190670800Y-53640076D01*
X190718419Y-53687695D01*
X190813657Y-53735314D01*
X191051752Y-53735314D01*
X191146990Y-53687695D01*
X191194609Y-53640076D01*
X191242228Y-53544838D01*
X191242228Y-53354361D01*
X191194609Y-53259123D01*
X191146990Y-53211504D01*
X191051752Y-53163885D01*
%TO.C,5V1*%
X144697133Y-49713980D02*
X144220942Y-49713980D01*
X144173323Y-50190171D01*
X144220942Y-50142552D01*
X144316180Y-50094933D01*
X144554276Y-50094933D01*
X144649514Y-50142552D01*
X144697133Y-50190171D01*
X144744752Y-50285409D01*
X144744752Y-50523504D01*
X144697133Y-50618742D01*
X144649514Y-50666361D01*
X144554276Y-50713980D01*
X144316180Y-50713980D01*
X144220942Y-50666361D01*
X144173323Y-50618742D01*
X145030466Y-49713980D02*
X145363800Y-50713980D01*
X145697133Y-49713980D01*
X146554276Y-50713980D02*
X145982847Y-50713980D01*
X146268561Y-50713980D02*
X146268561Y-49713980D01*
X146173323Y-49856838D01*
X146078085Y-49952076D01*
X145982847Y-49999695D01*
%TO.C,J_oxygen1*%
X163824285Y-103211380D02*
X163824285Y-103925666D01*
X163776666Y-104068523D01*
X163681428Y-104163761D01*
X163538571Y-104211380D01*
X163443333Y-104211380D01*
X164062380Y-104306619D02*
X164824285Y-104306619D01*
X165205238Y-104211380D02*
X165110000Y-104163761D01*
X165062380Y-104116142D01*
X165014761Y-104020904D01*
X165014761Y-103735190D01*
X165062380Y-103639952D01*
X165110000Y-103592333D01*
X165205238Y-103544714D01*
X165348095Y-103544714D01*
X165443333Y-103592333D01*
X165490952Y-103639952D01*
X165538571Y-103735190D01*
X165538571Y-104020904D01*
X165490952Y-104116142D01*
X165443333Y-104163761D01*
X165348095Y-104211380D01*
X165205238Y-104211380D01*
X165871904Y-104211380D02*
X166395714Y-103544714D01*
X165871904Y-103544714D02*
X166395714Y-104211380D01*
X166681428Y-103544714D02*
X166919523Y-104211380D01*
X167157619Y-103544714D02*
X166919523Y-104211380D01*
X166824285Y-104449476D01*
X166776666Y-104497095D01*
X166681428Y-104544714D01*
X167967142Y-103544714D02*
X167967142Y-104354238D01*
X167919523Y-104449476D01*
X167871904Y-104497095D01*
X167776666Y-104544714D01*
X167633809Y-104544714D01*
X167538571Y-104497095D01*
X167967142Y-104163761D02*
X167871904Y-104211380D01*
X167681428Y-104211380D01*
X167586190Y-104163761D01*
X167538571Y-104116142D01*
X167490952Y-104020904D01*
X167490952Y-103735190D01*
X167538571Y-103639952D01*
X167586190Y-103592333D01*
X167681428Y-103544714D01*
X167871904Y-103544714D01*
X167967142Y-103592333D01*
X168824285Y-104163761D02*
X168729047Y-104211380D01*
X168538571Y-104211380D01*
X168443333Y-104163761D01*
X168395714Y-104068523D01*
X168395714Y-103687571D01*
X168443333Y-103592333D01*
X168538571Y-103544714D01*
X168729047Y-103544714D01*
X168824285Y-103592333D01*
X168871904Y-103687571D01*
X168871904Y-103782809D01*
X168395714Y-103878047D01*
X169300476Y-103544714D02*
X169300476Y-104211380D01*
X169300476Y-103639952D02*
X169348095Y-103592333D01*
X169443333Y-103544714D01*
X169586190Y-103544714D01*
X169681428Y-103592333D01*
X169729047Y-103687571D01*
X169729047Y-104211380D01*
X170729047Y-104211380D02*
X170157619Y-104211380D01*
X170443333Y-104211380D02*
X170443333Y-103211380D01*
X170348095Y-103354238D01*
X170252857Y-103449476D01*
X170157619Y-103497095D01*
%TO.C,R8*%
X132772380Y-90471666D02*
X132296190Y-90805000D01*
X132772380Y-91043095D02*
X131772380Y-91043095D01*
X131772380Y-90662142D01*
X131820000Y-90566904D01*
X131867619Y-90519285D01*
X131962857Y-90471666D01*
X132105714Y-90471666D01*
X132200952Y-90519285D01*
X132248571Y-90566904D01*
X132296190Y-90662142D01*
X132296190Y-91043095D01*
X132200952Y-89900238D02*
X132153333Y-89995476D01*
X132105714Y-90043095D01*
X132010476Y-90090714D01*
X131962857Y-90090714D01*
X131867619Y-90043095D01*
X131820000Y-89995476D01*
X131772380Y-89900238D01*
X131772380Y-89709761D01*
X131820000Y-89614523D01*
X131867619Y-89566904D01*
X131962857Y-89519285D01*
X132010476Y-89519285D01*
X132105714Y-89566904D01*
X132153333Y-89614523D01*
X132200952Y-89709761D01*
X132200952Y-89900238D01*
X132248571Y-89995476D01*
X132296190Y-90043095D01*
X132391428Y-90090714D01*
X132581904Y-90090714D01*
X132677142Y-90043095D01*
X132724761Y-89995476D01*
X132772380Y-89900238D01*
X132772380Y-89709761D01*
X132724761Y-89614523D01*
X132677142Y-89566904D01*
X132581904Y-89519285D01*
X132391428Y-89519285D01*
X132296190Y-89566904D01*
X132248571Y-89614523D01*
X132200952Y-89709761D01*
%TO.C,U_oxygen1*%
X173039019Y-78683314D02*
X172229495Y-78683314D01*
X172134257Y-78730933D01*
X172086638Y-78778552D01*
X172039019Y-78873790D01*
X172039019Y-79064266D01*
X172086638Y-79159504D01*
X172134257Y-79207123D01*
X172229495Y-79254742D01*
X173039019Y-79254742D01*
X171943780Y-79492838D02*
X171943780Y-80254742D01*
X172039019Y-80635695D02*
X172086638Y-80540457D01*
X172134257Y-80492838D01*
X172229495Y-80445219D01*
X172515209Y-80445219D01*
X172610447Y-80492838D01*
X172658066Y-80540457D01*
X172705685Y-80635695D01*
X172705685Y-80778552D01*
X172658066Y-80873790D01*
X172610447Y-80921409D01*
X172515209Y-80969028D01*
X172229495Y-80969028D01*
X172134257Y-80921409D01*
X172086638Y-80873790D01*
X172039019Y-80778552D01*
X172039019Y-80635695D01*
X172039019Y-81302361D02*
X172705685Y-81826171D01*
X172705685Y-81302361D02*
X172039019Y-81826171D01*
X172705685Y-82111885D02*
X172039019Y-82349980D01*
X172705685Y-82588076D02*
X172039019Y-82349980D01*
X171800923Y-82254742D01*
X171753304Y-82207123D01*
X171705685Y-82111885D01*
X172705685Y-83397600D02*
X171896161Y-83397600D01*
X171800923Y-83349980D01*
X171753304Y-83302361D01*
X171705685Y-83207123D01*
X171705685Y-83064266D01*
X171753304Y-82969028D01*
X172086638Y-83397600D02*
X172039019Y-83302361D01*
X172039019Y-83111885D01*
X172086638Y-83016647D01*
X172134257Y-82969028D01*
X172229495Y-82921409D01*
X172515209Y-82921409D01*
X172610447Y-82969028D01*
X172658066Y-83016647D01*
X172705685Y-83111885D01*
X172705685Y-83302361D01*
X172658066Y-83397600D01*
X172086638Y-84254742D02*
X172039019Y-84159504D01*
X172039019Y-83969028D01*
X172086638Y-83873790D01*
X172181876Y-83826171D01*
X172562828Y-83826171D01*
X172658066Y-83873790D01*
X172705685Y-83969028D01*
X172705685Y-84159504D01*
X172658066Y-84254742D01*
X172562828Y-84302361D01*
X172467590Y-84302361D01*
X172372352Y-83826171D01*
X172705685Y-84730933D02*
X172039019Y-84730933D01*
X172610447Y-84730933D02*
X172658066Y-84778552D01*
X172705685Y-84873790D01*
X172705685Y-85016647D01*
X172658066Y-85111885D01*
X172562828Y-85159504D01*
X172039019Y-85159504D01*
X172039019Y-86159504D02*
X172039019Y-85588076D01*
X172039019Y-85873790D02*
X173039019Y-85873790D01*
X172896161Y-85778552D01*
X172800923Y-85683314D01*
X172753304Y-85588076D01*
%TO.C,R4*%
X169019780Y-46784766D02*
X168543590Y-47118100D01*
X169019780Y-47356195D02*
X168019780Y-47356195D01*
X168019780Y-46975242D01*
X168067400Y-46880004D01*
X168115019Y-46832385D01*
X168210257Y-46784766D01*
X168353114Y-46784766D01*
X168448352Y-46832385D01*
X168495971Y-46880004D01*
X168543590Y-46975242D01*
X168543590Y-47356195D01*
X168353114Y-45927623D02*
X169019780Y-45927623D01*
X167972161Y-46165719D02*
X168686447Y-46403814D01*
X168686447Y-45784766D01*
D11*
%TO.C,J1*%
X172690000Y-41590000D02*
X172690000Y-45610000D01*
X187910000Y-41590000D02*
X172690000Y-41590000D01*
X172690000Y-44110000D02*
X173690000Y-44110000D01*
X172390000Y-45910000D02*
X174890000Y-45910000D01*
X173190000Y-43300000D02*
X173190000Y-42090000D01*
X187410000Y-42090000D02*
X187410000Y-43300000D01*
X172690000Y-43300000D02*
X173190000Y-43300000D01*
X173190000Y-42090000D02*
X187410000Y-42090000D01*
X187910000Y-45610000D02*
X187910000Y-41590000D01*
X186910000Y-44110000D02*
X186910000Y-45610000D01*
X172690000Y-45610000D02*
X187910000Y-45610000D01*
X172390000Y-43410000D02*
X172390000Y-45910000D01*
X187410000Y-43300000D02*
X187910000Y-43300000D01*
X187910000Y-44110000D02*
X186910000Y-44110000D01*
X173690000Y-44110000D02*
X173690000Y-45610000D01*
%TO.C,J_wpump1*%
X187111500Y-113789000D02*
X187611500Y-114039000D01*
X187611500Y-107239000D02*
X187611500Y-102139000D01*
X187611500Y-112089000D02*
X187111500Y-112339000D01*
X187111500Y-106939000D02*
X187611500Y-107239000D01*
X187611500Y-112139000D02*
X187611500Y-112089000D01*
X176761500Y-114739000D02*
X187111500Y-114739000D01*
X187111500Y-114739000D02*
X187111500Y-113789000D01*
X187111500Y-112339000D02*
X187111500Y-106939000D01*
X187611500Y-114039000D02*
X187611500Y-112139000D01*
X187611500Y-102139000D02*
X176761500Y-102139000D01*
X176761500Y-102139000D02*
X176761500Y-114739000D01*
%TO.C,J_fan1*%
X202383000Y-112158000D02*
X202383000Y-112108000D01*
X202383000Y-114058000D02*
X202383000Y-112158000D01*
X191533000Y-102158000D02*
X191533000Y-114758000D01*
X201883000Y-112358000D02*
X201883000Y-106958000D01*
X201883000Y-106958000D02*
X202383000Y-107258000D01*
X202383000Y-102158000D02*
X191533000Y-102158000D01*
X191533000Y-114758000D02*
X201883000Y-114758000D01*
X202383000Y-112108000D02*
X201883000Y-112358000D01*
X201883000Y-114758000D02*
X201883000Y-113808000D01*
X202383000Y-107258000D02*
X202383000Y-102158000D01*
X201883000Y-113808000D02*
X202383000Y-114058000D01*
%TO.C,R2*%
X187198000Y-55468000D02*
X187198000Y-52308000D01*
X188118000Y-56388000D02*
G75*
G03*
X188118000Y-56388000I-920000J0D01*
G01*
%TO.C,U3*%
X172222400Y-53358100D02*
X164482400Y-53358100D01*
X164482400Y-53358100D02*
X164482400Y-58658100D01*
X172222400Y-58658100D02*
X172222400Y-57008100D01*
X164482400Y-58658100D02*
X172222400Y-58658100D01*
X172222400Y-55008100D02*
X172222400Y-53358100D01*
X172222400Y-55008100D02*
G75*
G03*
X172222400Y-57008100I0J-1000000D01*
G01*
%TO.C,U_wpump1*%
X185432700Y-70954900D02*
X180225700Y-70954900D01*
X180225700Y-70954900D02*
X180225700Y-95465900D01*
X180225700Y-95465900D02*
X185432700Y-95465900D01*
X185432700Y-95465900D02*
X185432700Y-70954900D01*
%TO.C,U1*%
X151860000Y-85545000D02*
X151860000Y-67645000D01*
X146560000Y-67645000D02*
X146560000Y-85545000D01*
X146560000Y-85545000D02*
X151860000Y-85545000D01*
X148210000Y-67645000D02*
X146560000Y-67645000D01*
X151860000Y-67645000D02*
X150210000Y-67645000D01*
X148210000Y-67645000D02*
G75*
G03*
X150210000Y-67645000I1000000J0D01*
G01*
%TO.C,OUT2*%
X139835000Y-107000000D02*
X139835000Y-101900000D01*
X139335000Y-113550000D02*
X139835000Y-113800000D01*
X139335000Y-112100000D02*
X139335000Y-106700000D01*
X139335000Y-114500000D02*
X139335000Y-113550000D01*
X139835000Y-113800000D02*
X139835000Y-111900000D01*
X128985000Y-114500000D02*
X139335000Y-114500000D01*
X128985000Y-101900000D02*
X128985000Y-114500000D01*
X139835000Y-111900000D02*
X139835000Y-111850000D01*
X139835000Y-111850000D02*
X139335000Y-112100000D01*
X139835000Y-101900000D02*
X128985000Y-101900000D01*
X139335000Y-106700000D02*
X139835000Y-107000000D01*
%TO.C,R6*%
X156410000Y-71600000D02*
G75*
G03*
X156410000Y-71600000I-920000J0D01*
G01*
X156410000Y-71600000D02*
X157030000Y-71600000D01*
%TO.C,Q2*%
X127880000Y-92730000D02*
X138120000Y-92730000D01*
X134851000Y-92730000D02*
X134851000Y-94240000D01*
X127880000Y-92730000D02*
X127880000Y-97371000D01*
X127880000Y-97371000D02*
X138120000Y-97371000D01*
X127880000Y-94240000D02*
X138120000Y-94240000D01*
X131150000Y-92730000D02*
X131150000Y-94240000D01*
X138120000Y-92730000D02*
X138120000Y-97371000D01*
%TO.C,R1*%
X181051200Y-55468000D02*
X181051200Y-52308000D01*
X181971200Y-56388000D02*
G75*
G03*
X181971200Y-56388000I-920000J0D01*
G01*
%TO.C,U_fan1*%
X200113900Y-71259700D02*
X194906900Y-71259700D01*
X194906900Y-71259700D02*
X194906900Y-95770700D01*
X194906900Y-95770700D02*
X200113900Y-95770700D01*
X200113900Y-95770700D02*
X200113900Y-71259700D01*
%TO.C,R9*%
X193090800Y-55569600D02*
X193090800Y-52409600D01*
X194010800Y-56489600D02*
G75*
G03*
X194010800Y-56489600I-920000J0D01*
G01*
%TO.C,5V1*%
X139678800Y-43391600D02*
X139678800Y-43441600D01*
X150528800Y-40791600D02*
X140178800Y-40791600D01*
X139678800Y-41491600D02*
X139678800Y-43391600D01*
X140178800Y-43191600D02*
X140178800Y-48591600D01*
X140178800Y-40791600D02*
X140178800Y-41741600D01*
X140178800Y-41741600D02*
X139678800Y-41491600D01*
X150528800Y-53391600D02*
X150528800Y-40791600D01*
X139678800Y-53391600D02*
X150528800Y-53391600D01*
X139678800Y-43441600D02*
X140178800Y-43191600D01*
X139678800Y-48291600D02*
X139678800Y-53391600D01*
X140178800Y-48591600D02*
X139678800Y-48291600D01*
%TO.C,J_oxygen1*%
X172745000Y-107258000D02*
X172745000Y-102158000D01*
X161895000Y-114758000D02*
X172245000Y-114758000D01*
X161895000Y-102158000D02*
X161895000Y-114758000D01*
X172745000Y-102158000D02*
X161895000Y-102158000D01*
X172245000Y-114758000D02*
X172245000Y-113808000D01*
X172745000Y-114058000D02*
X172745000Y-112158000D01*
X172245000Y-112358000D02*
X172245000Y-106958000D01*
X172745000Y-112158000D02*
X172745000Y-112108000D01*
X172745000Y-112108000D02*
X172245000Y-112358000D01*
X172245000Y-106958000D02*
X172745000Y-107258000D01*
X172245000Y-113808000D02*
X172745000Y-114058000D01*
%TO.C,R8*%
X130400000Y-89955000D02*
X130400000Y-90575000D01*
X131320000Y-89035000D02*
G75*
G03*
X131320000Y-89035000I-920000J0D01*
G01*
%TO.C,U_oxygen1*%
X171094400Y-71094600D02*
X165887400Y-71094600D01*
X165887400Y-71094600D02*
X165887400Y-95605600D01*
X165887400Y-95605600D02*
X171094400Y-95605600D01*
X171094400Y-95605600D02*
X171094400Y-71094600D01*
%TO.C,R4*%
X170967400Y-47518100D02*
X170967400Y-48138100D01*
X171887400Y-46598100D02*
G75*
G03*
X171887400Y-46598100I-920000J0D01*
G01*
%TD*%
M02*
