%TF.GenerationSoftware,KiCad,Pcbnew,6.0.11+dfsg-1*%
%TF.CreationDate,2023-04-18T18:28:47-05:00*%
%TF.ProjectId,power_control,706f7765-725f-4636-9f6e-74726f6c2e6b,rev?*%
%TF.SameCoordinates,Original*%
%TF.FileFunction,Copper,L1,Top*%
%TF.FilePolarity,Positive*%
%FSLAX46Y46*%
G04 Gerber Fmt 4.6, Leading zero omitted, Abs format (unit mm)*
G04 Created by KiCad (PCBNEW 6.0.11+dfsg-1) date 2023-04-18 18:28:47*
%MOMM*%
%LPD*%
G01*
G04 APERTURE LIST*
%TA.AperFunction,NonConductor*%
%ADD10C,0.200000*%
%TD*%
%ADD11C,0.300000*%
%TA.AperFunction,NonConductor*%
%ADD12C,0.300000*%
%TD*%
%TA.AperFunction,ComponentPad*%
%ADD13R,3.000000X3.960000*%
%TD*%
%TA.AperFunction,ComponentPad*%
%ADD14O,3.000000X3.960000*%
%TD*%
%TA.AperFunction,ComponentPad*%
%ADD15C,2.500000*%
%TD*%
%TA.AperFunction,ComponentPad*%
%ADD16O,2.500000X1.750000*%
%TD*%
%TA.AperFunction,ComponentPad*%
%ADD17C,5.600000*%
%TD*%
%TA.AperFunction,ComponentPad*%
%ADD18R,1.800000X3.000000*%
%TD*%
%TA.AperFunction,ComponentPad*%
%ADD19O,1.800000X3.000000*%
%TD*%
%TA.AperFunction,ComponentPad*%
%ADD20O,2.000000X3.000000*%
%TD*%
%TA.AperFunction,ComponentPad*%
%ADD21C,3.000000*%
%TD*%
%TA.AperFunction,ComponentPad*%
%ADD22R,3.000000X2.000000*%
%TD*%
%TA.AperFunction,ComponentPad*%
%ADD23O,3.000000X2.100000*%
%TD*%
%TA.AperFunction,ComponentPad*%
%ADD24O,3.000000X2.000000*%
%TD*%
%TA.AperFunction,ComponentPad*%
%ADD25O,3.000000X1.600000*%
%TD*%
%TA.AperFunction,ComponentPad*%
%ADD26O,2.000000X2.250000*%
%TD*%
%TA.AperFunction,ComponentPad*%
%ADD27O,2.500000X1.600000*%
%TD*%
%TA.AperFunction,ComponentPad*%
%ADD28C,2.100000*%
%TD*%
%TA.AperFunction,ComponentPad*%
%ADD29O,2.100000X2.500000*%
%TD*%
%TA.AperFunction,ComponentPad*%
%ADD30R,2.000000X3.000000*%
%TD*%
%TA.AperFunction,ComponentPad*%
%ADD31R,2.050000X3.000000*%
%TD*%
%TA.AperFunction,ComponentPad*%
%ADD32O,2.050000X3.000000*%
%TD*%
%TA.AperFunction,ComponentPad*%
%ADD33R,3.000000X2.100000*%
%TD*%
%TA.AperFunction,ComponentPad*%
%ADD34C,2.000000*%
%TD*%
%TA.AperFunction,ComponentPad*%
%ADD35O,2.000000X2.000000*%
%TD*%
%TA.AperFunction,ComponentPad*%
%ADD36O,2.650000X2.100000*%
%TD*%
%TA.AperFunction,ViaPad*%
%ADD37C,2.300000*%
%TD*%
%TA.AperFunction,Conductor*%
%ADD38C,1.330000*%
%TD*%
G04 APERTURE END LIST*
D10*
X203894000Y-38603000D02*
X126647000Y-38603000D01*
X126647000Y-38603000D02*
X126647000Y-115600000D01*
X126647000Y-115600000D02*
X203894000Y-115600000D01*
X203894000Y-115600000D02*
X203894000Y-38603000D01*
D11*
D12*
X130566666Y-45900000D02*
X130376190Y-45804761D01*
X130090476Y-45804761D01*
X129804761Y-45900000D01*
X129614285Y-46090476D01*
X129519047Y-46280952D01*
X129423809Y-46661904D01*
X129423809Y-46947619D01*
X129519047Y-47328571D01*
X129614285Y-47519047D01*
X129804761Y-47709523D01*
X130090476Y-47804761D01*
X130280952Y-47804761D01*
X130566666Y-47709523D01*
X130661904Y-47614285D01*
X130661904Y-46947619D01*
X130280952Y-46947619D01*
X131519047Y-47804761D02*
X131519047Y-45804761D01*
X132661904Y-47804761D01*
X132661904Y-45804761D01*
X133614285Y-47804761D02*
X133614285Y-45804761D01*
X134090476Y-45804761D01*
X134376190Y-45900000D01*
X134566666Y-46090476D01*
X134661904Y-46280952D01*
X134757142Y-46661904D01*
X134757142Y-46947619D01*
X134661904Y-47328571D01*
X134566666Y-47519047D01*
X134376190Y-47709523D01*
X134090476Y-47804761D01*
X133614285Y-47804761D01*
X136566666Y-45804761D02*
X135614285Y-45804761D01*
X135519047Y-46757142D01*
X135614285Y-46661904D01*
X135804761Y-46566666D01*
X136280952Y-46566666D01*
X136471428Y-46661904D01*
X136566666Y-46757142D01*
X136661904Y-46947619D01*
X136661904Y-47423809D01*
X136566666Y-47614285D01*
X136471428Y-47709523D01*
X136280952Y-47804761D01*
X135804761Y-47804761D01*
X135614285Y-47709523D01*
X135519047Y-47614285D01*
X137233333Y-45804761D02*
X137900000Y-47804761D01*
X138566666Y-45804761D01*
D11*
D12*
X173339198Y-110016666D02*
X174243960Y-110016666D01*
X173090388Y-110559523D02*
X173961222Y-108659523D01*
X174357055Y-110559523D01*
X176098722Y-110378571D02*
X175996936Y-110469047D01*
X175714198Y-110559523D01*
X175533245Y-110559523D01*
X175273126Y-110469047D01*
X175114793Y-110288095D01*
X175046936Y-110107142D01*
X175001698Y-109745238D01*
X175035626Y-109473809D01*
X175171341Y-109111904D01*
X175284436Y-108930952D01*
X175488007Y-108750000D01*
X175770745Y-108659523D01*
X175951698Y-108659523D01*
X176211817Y-108750000D01*
X176290983Y-108840476D01*
D11*
D12*
X140500000Y-113033333D02*
X140404761Y-113223809D01*
X140404761Y-113509523D01*
X140500000Y-113795238D01*
X140690476Y-113985714D01*
X140880952Y-114080952D01*
X141261904Y-114176190D01*
X141547619Y-114176190D01*
X141928571Y-114080952D01*
X142119047Y-113985714D01*
X142309523Y-113795238D01*
X142404761Y-113509523D01*
X142404761Y-113319047D01*
X142309523Y-113033333D01*
X142214285Y-112938095D01*
X141547619Y-112938095D01*
X141547619Y-113319047D01*
X142404761Y-112080952D02*
X140404761Y-112080952D01*
X142404761Y-110938095D01*
X140404761Y-110938095D01*
X142404761Y-109985714D02*
X140404761Y-109985714D01*
X140404761Y-109509523D01*
X140500000Y-109223809D01*
X140690476Y-109033333D01*
X140880952Y-108938095D01*
X141261904Y-108842857D01*
X141547619Y-108842857D01*
X141928571Y-108938095D01*
X142119047Y-109033333D01*
X142309523Y-109223809D01*
X142404761Y-109509523D01*
X142404761Y-109985714D01*
X140404761Y-107033333D02*
X140404761Y-107985714D01*
X141357142Y-108080952D01*
X141261904Y-107985714D01*
X141166666Y-107795238D01*
X141166666Y-107319047D01*
X141261904Y-107128571D01*
X141357142Y-107033333D01*
X141547619Y-106938095D01*
X142023809Y-106938095D01*
X142214285Y-107033333D01*
X142309523Y-107128571D01*
X142404761Y-107319047D01*
X142404761Y-107795238D01*
X142309523Y-107985714D01*
X142214285Y-108080952D01*
X140404761Y-106366666D02*
X142404761Y-105700000D01*
X140404761Y-105033333D01*
D11*
D12*
X157985598Y-110016666D02*
X158890360Y-110016666D01*
X157736788Y-110559523D02*
X158607622Y-108659523D01*
X159003455Y-110559523D01*
X160745122Y-110378571D02*
X160643336Y-110469047D01*
X160360598Y-110559523D01*
X160179645Y-110559523D01*
X159919526Y-110469047D01*
X159761193Y-110288095D01*
X159693336Y-110107142D01*
X159648098Y-109745238D01*
X159682026Y-109473809D01*
X159817741Y-109111904D01*
X159930836Y-108930952D01*
X160134407Y-108750000D01*
X160417145Y-108659523D01*
X160598098Y-108659523D01*
X160858217Y-108750000D01*
X160937383Y-108840476D01*
D11*
D12*
X132460654Y-99804761D02*
X132841607Y-99804761D01*
X133020178Y-99900000D01*
X133186845Y-100090476D01*
X133234464Y-100471428D01*
X133151130Y-101138095D01*
X133008273Y-101519047D01*
X132793988Y-101709523D01*
X132591607Y-101804761D01*
X132210654Y-101804761D01*
X132032083Y-101709523D01*
X131865416Y-101519047D01*
X131817797Y-101138095D01*
X131901130Y-100471428D01*
X132043988Y-100090476D01*
X132258273Y-99900000D01*
X132460654Y-99804761D01*
X134174940Y-99804761D02*
X133972559Y-101423809D01*
X134043988Y-101614285D01*
X134127321Y-101709523D01*
X134305892Y-101804761D01*
X134686845Y-101804761D01*
X134889226Y-101709523D01*
X134996369Y-101614285D01*
X135115416Y-101423809D01*
X135317797Y-99804761D01*
X135984464Y-99804761D02*
X137127321Y-99804761D01*
X136305892Y-101804761D02*
X136555892Y-99804761D01*
D11*
D12*
X188121998Y-110016666D02*
X189026760Y-110016666D01*
X187873188Y-110559523D02*
X188744022Y-108659523D01*
X189139855Y-110559523D01*
X190881522Y-110378571D02*
X190779736Y-110469047D01*
X190496998Y-110559523D01*
X190316045Y-110559523D01*
X190055926Y-110469047D01*
X189897593Y-110288095D01*
X189829736Y-110107142D01*
X189784498Y-109745238D01*
X189818426Y-109473809D01*
X189954141Y-109111904D01*
X190067236Y-108930952D01*
X190270807Y-108750000D01*
X190553545Y-108659523D01*
X190734498Y-108659523D01*
X190994617Y-108750000D01*
X191073783Y-108840476D01*
D11*
D12*
X129553511Y-42604761D02*
X129803511Y-40604761D01*
X130505892Y-42604761D02*
X130755892Y-40604761D01*
X131648750Y-42604761D01*
X131898750Y-40604761D01*
X132601130Y-42604761D02*
X132851130Y-40604761D01*
X133613035Y-40604761D01*
X133791607Y-40700000D01*
X133874940Y-40795238D01*
X133946369Y-40985714D01*
X133910654Y-41271428D01*
X133791607Y-41461904D01*
X133684464Y-41557142D01*
X133482083Y-41652380D01*
X132720178Y-41652380D01*
X134851130Y-40604761D02*
X134648750Y-42223809D01*
X134720178Y-42414285D01*
X134803511Y-42509523D01*
X134982083Y-42604761D01*
X135363035Y-42604761D01*
X135565416Y-42509523D01*
X135672559Y-42414285D01*
X135791607Y-42223809D01*
X135993988Y-40604761D01*
X136660654Y-40604761D02*
X137803511Y-40604761D01*
X136982083Y-42604761D02*
X137232083Y-40604761D01*
D11*
D12*
X127204761Y-111758392D02*
X127204761Y-112710773D01*
X128157142Y-112925059D01*
X128061904Y-112817916D01*
X127966666Y-112615535D01*
X127966666Y-112139345D01*
X128061904Y-111960773D01*
X128157142Y-111877440D01*
X128347619Y-111806011D01*
X128823809Y-111865535D01*
X129014285Y-111984583D01*
X129109523Y-112091726D01*
X129204761Y-112294107D01*
X129204761Y-112770297D01*
X129109523Y-112948869D01*
X129014285Y-113032202D01*
X127204761Y-111091726D02*
X129204761Y-110675059D01*
X127204761Y-109758392D01*
X128442857Y-109246488D02*
X128442857Y-107722678D01*
X129204761Y-108579821D02*
X127680952Y-108389345D01*
D11*
D12*
X152580952Y-45843961D02*
X151628571Y-45843961D01*
X151533333Y-46796342D01*
X151628571Y-46701104D01*
X151819047Y-46605866D01*
X152295238Y-46605866D01*
X152485714Y-46701104D01*
X152580952Y-46796342D01*
X152676190Y-46986819D01*
X152676190Y-47463009D01*
X152580952Y-47653485D01*
X152485714Y-47748723D01*
X152295238Y-47843961D01*
X151819047Y-47843961D01*
X151628571Y-47748723D01*
X151533333Y-47653485D01*
X153247619Y-45843961D02*
X153914285Y-47843961D01*
X154580952Y-45843961D01*
X155247619Y-47082057D02*
X156771428Y-47082057D01*
X156009523Y-47843961D02*
X156009523Y-46320152D01*
D11*
D12*
X189966666Y-42800000D02*
X189776190Y-42704761D01*
X189490476Y-42704761D01*
X189204761Y-42800000D01*
X189014285Y-42990476D01*
X188919047Y-43180952D01*
X188823809Y-43561904D01*
X188823809Y-43847619D01*
X188919047Y-44228571D01*
X189014285Y-44419047D01*
X189204761Y-44609523D01*
X189490476Y-44704761D01*
X189680952Y-44704761D01*
X189966666Y-44609523D01*
X190061904Y-44514285D01*
X190061904Y-43847619D01*
X189680952Y-43847619D01*
X190919047Y-44704761D02*
X190919047Y-42704761D01*
X192061904Y-44704761D01*
X192061904Y-42704761D01*
X193014285Y-44704761D02*
X193014285Y-42704761D01*
X193490476Y-42704761D01*
X193776190Y-42800000D01*
X193966666Y-42990476D01*
X194061904Y-43180952D01*
X194157142Y-43561904D01*
X194157142Y-43847619D01*
X194061904Y-44228571D01*
X193966666Y-44419047D01*
X193776190Y-44609523D01*
X193490476Y-44704761D01*
X193014285Y-44704761D01*
X195966666Y-42704761D02*
X195014285Y-42704761D01*
X194919047Y-43657142D01*
X195014285Y-43561904D01*
X195204761Y-43466666D01*
X195680952Y-43466666D01*
X195871428Y-43561904D01*
X195966666Y-43657142D01*
X196061904Y-43847619D01*
X196061904Y-44323809D01*
X195966666Y-44514285D01*
X195871428Y-44609523D01*
X195680952Y-44704761D01*
X195204761Y-44704761D01*
X195014285Y-44609523D01*
X194919047Y-44514285D01*
X196633333Y-42704761D02*
X197300000Y-44704761D01*
X197966666Y-42704761D01*
D13*
%TO.P,J_wpump1,1,Pin_1*%
%TO.N,Net-(J_wpump1-Pad1)*%
X179411500Y-108439000D03*
D14*
%TO.P,J_wpump1,2,Pin_2*%
%TO.N,Net-(J_wpump1-Pad2)*%
X184411500Y-108439000D03*
%TD*%
D13*
%TO.P,J_fan1,1,Pin_1*%
%TO.N,Net-(J_fan1-Pad1)*%
X194183000Y-108458000D03*
D14*
%TO.P,J_fan1,2,Pin_2*%
%TO.N,Net-(J_fan1-Pad2)*%
X199183000Y-108458000D03*
%TD*%
D15*
%TO.P,R2,1*%
%TO.N,Net-(R2-Pad1)*%
X187198000Y-56388000D03*
D16*
%TO.P,R2,2*%
%TO.N,D27*%
X187198000Y-51308000D03*
%TD*%
D17*
%TO.P,H4,1*%
%TO.N,N/C*%
X131114800Y-53390800D03*
%TD*%
%TO.P,H2,1*%
%TO.N,N/C*%
X199491600Y-53390800D03*
%TD*%
D18*
%TO.P,U3,1*%
%TO.N,Net-(R4-Pad2)*%
X170892400Y-52198100D03*
D19*
%TO.P,U3,2*%
%TO.N,GND5V*%
X168352400Y-52198100D03*
D20*
%TO.P,U3,3,NC*%
%TO.N,unconnected-(U3-Pad3)*%
X165812400Y-52198100D03*
D19*
%TO.P,U3,4*%
%TO.N,GND5V*%
X165812400Y-59818100D03*
%TO.P,U3,5*%
%TO.N,Net-(R6-Pad1)*%
X168352400Y-59818100D03*
D20*
%TO.P,U3,6*%
%TO.N,unconnected-(U3-Pad6)*%
X170892400Y-59818100D03*
%TD*%
D21*
%TO.P,U_wpump1,11*%
%TO.N,Net-(J_wpump1-Pad1)*%
X182765700Y-86004400D03*
%TO.P,U_wpump1,14*%
%TO.N,Net-(J_wpump1-Pad2)*%
X182765700Y-93243400D03*
D22*
%TO.P,U_wpump1,A1*%
%TO.N,Net-(R2-Pad1)*%
X182765700Y-75758400D03*
D23*
%TO.P,U_wpump1,A2*%
%TO.N,GND5V*%
X182765700Y-73177400D03*
%TD*%
D22*
%TO.P,U1,1*%
%TO.N,N/C*%
X145400000Y-68975000D03*
D24*
%TO.P,U1,2*%
X145400000Y-71515000D03*
%TO.P,U1,3*%
%TO.N,unconnected-(U1-Pad3)*%
X145400000Y-74055000D03*
%TO.P,U1,4*%
%TO.N,unconnected-(U1-Pad4)*%
X145400000Y-76595000D03*
%TO.P,U1,5*%
%TO.N,unconnected-(U1-Pad5)*%
X145400000Y-79135000D03*
%TO.P,U1,6*%
%TO.N,unconnected-(U1-Pad6)*%
X145400000Y-81675000D03*
D25*
%TO.P,U1,7,VSS*%
%TO.N,GND5V*%
X145400000Y-84215000D03*
D24*
%TO.P,U1,8*%
%TO.N,unconnected-(U1-Pad8)*%
X153020000Y-84215000D03*
%TO.P,U1,9*%
%TO.N,unconnected-(U1-Pad9)*%
X153020000Y-81675000D03*
%TO.P,U1,10*%
%TO.N,unconnected-(U1-Pad10)*%
X153020000Y-79135000D03*
%TO.P,U1,11*%
%TO.N,unconnected-(U1-Pad11)*%
X153020000Y-76595000D03*
%TO.P,U1,12*%
%TO.N,Net-(R8-Pad1)*%
X153020000Y-74055000D03*
D26*
%TO.P,U1,13*%
%TO.N,Net-(R6-Pad1)*%
X153020000Y-71515000D03*
D27*
%TO.P,U1,14,VDD*%
%TO.N,5v*%
X153020000Y-68975000D03*
%TD*%
D13*
%TO.P,OUT2,1,Pin_1*%
%TO.N,Net-(OUT2-Pad1)*%
X131635000Y-108200000D03*
D14*
%TO.P,OUT2,2,Pin_2*%
%TO.N,GND5V*%
X136635000Y-108200000D03*
%TD*%
D28*
%TO.P,R6,1*%
%TO.N,Net-(R6-Pad1)*%
X155490000Y-71600000D03*
D29*
%TO.P,R6,2*%
%TO.N,5v*%
X158030000Y-71600000D03*
%TD*%
D30*
%TO.P,Q2,1,B*%
%TO.N,Net-(Q2-Pad1)*%
X130460000Y-96000000D03*
D20*
%TO.P,Q2,2,C*%
%TO.N,5v*%
X133000000Y-96000000D03*
%TO.P,Q2,3,E*%
%TO.N,Net-(OUT2-Pad1)*%
X135540000Y-96000000D03*
%TD*%
D31*
%TO.P,J1,1,Pin_1*%
%TO.N,D14*%
X175300000Y-43300000D03*
D32*
%TO.P,J1,2,Pin_2*%
%TO.N,D26*%
X177800000Y-43300000D03*
%TO.P,J1,3,Pin_3*%
%TO.N,D27*%
X180300000Y-43300000D03*
%TO.P,J1,4,Pin_4*%
%TO.N,D33*%
X182800000Y-43300000D03*
%TO.P,J1,5,Pin_5*%
%TO.N,GND5V*%
X185300000Y-43300000D03*
%TD*%
D15*
%TO.P,R1,1*%
%TO.N,Net-(R1-Pad1)*%
X181051200Y-56388000D03*
D16*
%TO.P,R1,2*%
%TO.N,D26*%
X181051200Y-51308000D03*
%TD*%
D21*
%TO.P,U_fan1,11*%
%TO.N,Net-(J_fan1-Pad1)*%
X197446900Y-86309200D03*
%TO.P,U_fan1,14*%
%TO.N,Net-(J_fan1-Pad2)*%
X197446900Y-93548200D03*
D33*
%TO.P,U_fan1,A1*%
%TO.N,Net-(R9-Pad1)*%
X197446900Y-76063200D03*
D23*
%TO.P,U_fan1,A2*%
%TO.N,GND5V*%
X197446900Y-73482200D03*
%TD*%
D15*
%TO.P,R9,1*%
%TO.N,Net-(R9-Pad1)*%
X193090800Y-56489600D03*
D16*
%TO.P,R9,2*%
%TO.N,D33*%
X193090800Y-51409600D03*
%TD*%
D13*
%TO.P,5V1,1,Pin_1*%
%TO.N,5v*%
X147878800Y-47091600D03*
D14*
%TO.P,5V1,2,Pin_2*%
%TO.N,GND5V*%
X142878800Y-47091600D03*
%TD*%
D13*
%TO.P,J_oxygen1,1,Pin_1*%
%TO.N,Net-(J_oxygen1-Pad1)*%
X164545000Y-108458000D03*
D14*
%TO.P,J_oxygen1,2,Pin_2*%
%TO.N,Net-(J_oxygen1-Pad2)*%
X169545000Y-108458000D03*
%TD*%
D34*
%TO.P,R8,1*%
%TO.N,Net-(R8-Pad1)*%
X130400000Y-89035000D03*
D35*
%TO.P,R8,2*%
%TO.N,Net-(Q2-Pad1)*%
X130400000Y-91575000D03*
%TD*%
D21*
%TO.P,U_oxygen1,11*%
%TO.N,Net-(J_oxygen1-Pad1)*%
X168427400Y-86144100D03*
%TO.P,U_oxygen1,14*%
%TO.N,Net-(J_oxygen1-Pad2)*%
X168427400Y-93383100D03*
D22*
%TO.P,U_oxygen1,A1*%
%TO.N,Net-(R1-Pad1)*%
X168427400Y-75898100D03*
D24*
%TO.P,U_oxygen1,A2*%
%TO.N,GND5V*%
X168427400Y-73317100D03*
%TD*%
D36*
%TO.P,R4,1*%
%TO.N,D14*%
X170967400Y-46598100D03*
%TO.P,R4,2*%
%TO.N,Net-(R4-Pad2)*%
X170967400Y-49138100D03*
%TD*%
D37*
%TO.N,5v*%
X138419600Y-90830400D03*
X156500000Y-65495000D03*
X158000000Y-76000000D03*
X148285200Y-54914800D03*
%TO.N,Net-(R1-Pad1)*%
X181051200Y-61112400D03*
X162966400Y-72745600D03*
%TO.N,Net-(R2-Pad1)*%
X186283600Y-77063600D03*
X187147200Y-61061600D03*
%TO.N,Net-(R8-Pad1)*%
X149500000Y-75250000D03*
X134250000Y-87500000D03*
%TO.N,Net-(R9-Pad1)*%
X192938400Y-61366400D03*
X192481200Y-77165200D03*
%TD*%
D38*
%TO.N,Net-(Q2-Pad1)*%
X130460000Y-91635000D02*
X130400000Y-91575000D01*
%TO.N,5v*%
X151485600Y-90932000D02*
X158000000Y-84417600D01*
X156500000Y-65495000D02*
X156500000Y-63129600D01*
X138521200Y-90932000D02*
X151485600Y-90932000D01*
X158000000Y-84417600D02*
X158000000Y-76000000D01*
X138419600Y-90830400D02*
X138521200Y-90932000D01*
X156500000Y-63129600D02*
X148285200Y-54914800D01*
%TO.N,Net-(R1-Pad1)*%
X162966400Y-70815200D02*
X165608000Y-68173600D01*
X162966400Y-72745600D02*
X162966400Y-70815200D01*
X181051200Y-62128400D02*
X181051200Y-61112400D01*
X165608000Y-68173600D02*
X175006000Y-68173600D01*
X175006000Y-68173600D02*
X181051200Y-62128400D01*
%TO.N,Net-(R2-Pad1)*%
X187706000Y-61620400D02*
X187147200Y-61061600D01*
X187706000Y-75641200D02*
X187706000Y-61620400D01*
X187263700Y-56388000D02*
X187198000Y-56388000D01*
X186283600Y-77063600D02*
X187706000Y-75641200D01*
%TO.N,Net-(R4-Pad2)*%
X170967400Y-52123100D02*
X170892400Y-52198100D01*
%TO.N,Net-(R6-Pad1)*%
X153105000Y-71600000D02*
X153020000Y-71515000D01*
%TO.N,Net-(R8-Pad1)*%
X147116800Y-87426800D02*
X149504400Y-85039200D01*
X149504400Y-85039200D02*
X149504400Y-75590400D01*
X134323200Y-87426800D02*
X134250000Y-87500000D01*
X149500000Y-75250000D02*
X150195000Y-74555000D01*
X147116800Y-87426800D02*
X134323200Y-87426800D01*
%TO.N,Net-(R9-Pad1)*%
X191516000Y-76200000D02*
X191516000Y-62788800D01*
X191516000Y-62788800D02*
X192938400Y-61366400D01*
X192481200Y-77165200D02*
X191516000Y-76200000D01*
%TD*%
M02*
