M48
; DRILL file {KiCad 6.0.11+dfsg-1} date Tue 21 Mar 2023 08:25:45 PM -05
; FORMAT={-:-/ absolute / inch / decimal}
; #@! TF.CreationDate,2023-03-21T20:25:45-05:00
; #@! TF.GenerationSoftware,Kicad,Pcbnew,6.0.11+dfsg-1
; #@! TF.FileFunction,Plated,1,2,PTH
FMAT,2
INCH
; #@! TA.AperFunction,Plated,PTH,ComponentDrill
T1C0.0276
; #@! TA.AperFunction,Plated,PTH,ViaDrill
T2C0.0295
; #@! TA.AperFunction,Plated,PTH,ComponentDrill
T3C0.0315
; #@! TA.AperFunction,Plated,PTH,ComponentDrill
T4C0.0374
; #@! TA.AperFunction,Plated,PTH,ComponentDrill
T5C0.0433
; #@! TA.AperFunction,Plated,PTH,ComponentDrill
T6C0.0512
; #@! TA.AperFunction,Plated,PTH,ComponentDrill
T7C0.0520
; #@! TA.AperFunction,Plated,PTH,ComponentDrill
T8C0.1260
%
G90
G05
T1
X5.1339Y-3.5053
X5.1339Y-3.6053
X6.1217Y-2.8189
X6.2217Y-2.8189
X6.731Y-1.8346
X6.731Y-1.9346
X7.128Y-2.02
X7.128Y-2.22
X7.37Y-2.02
X7.37Y-2.22
X7.602Y-2.024
X7.602Y-2.224
T2
X5.592Y-3.576
X5.838Y-2.162
X6.026Y-2.63
X6.416Y-2.996
X7.128Y-2.406
X7.334Y-3.034
X7.368Y-2.404
X7.578Y-3.038
X7.596Y-2.416
T3
X5.7244Y-2.7156
X5.7244Y-2.8156
X5.7244Y-2.9156
X5.7244Y-3.0156
X5.7244Y-3.1156
X5.7244Y-3.2156
X5.7244Y-3.3156
X6.0244Y-2.7156
X6.0244Y-2.8156
X6.0244Y-2.9156
X6.0244Y-3.0156
X6.0244Y-3.1156
X6.0244Y-3.2156
X6.0244Y-3.3156
X6.528Y-2.055
X6.528Y-2.355
X6.628Y-2.055
X6.628Y-2.355
X6.728Y-2.055
X6.728Y-2.355
T4
X6.9191Y-1.7126
X7.0176Y-1.7126
X7.116Y-1.7126
X7.2144Y-1.7126
X7.3129Y-1.7126
T5
X5.1362Y-3.7795
X5.2362Y-3.7795
X5.3362Y-3.7795
T6
X6.6011Y-2.9039
X6.6011Y-3.0515
X6.6011Y-3.6913
X6.6011Y-3.8881
X7.21Y-2.8874
X7.21Y-3.035
X7.21Y-3.6748
X7.7789Y-2.8924
X7.7789Y-3.04
X7.7789Y-3.6798
X7.7789Y-3.8766
T7
X5.1825Y-4.2598
X5.3793Y-4.2598
X5.6251Y-1.854
X5.822Y-1.854
X6.4781Y-4.27
X6.675Y-4.27
X7.0634Y-4.2693
X7.2603Y-4.2693
X7.645Y-4.27
X7.8419Y-4.27
T8
X5.16Y-3.062
X5.162Y-2.102
X6.005Y-4.305
X7.864Y-2.102
T6
G00X7.21Y-3.8716
M15
G01X7.21Y-3.8716
M16
G05
T0
M30
