%TF.GenerationSoftware,KiCad,Pcbnew,6.0.11+dfsg-1*%
%TF.CreationDate,2023-03-21T20:25:38-05:00*%
%TF.ProjectId,power_control,706f7765-725f-4636-9f6e-74726f6c2e6b,rev?*%
%TF.SameCoordinates,Original*%
%TF.FileFunction,Legend,Top*%
%TF.FilePolarity,Positive*%
%FSLAX46Y46*%
G04 Gerber Fmt 4.6, Leading zero omitted, Abs format (unit mm)*
G04 Created by KiCad (PCBNEW 6.0.11+dfsg-1) date 2023-03-21 20:25:38*
%MOMM*%
%LPD*%
G01*
G04 APERTURE LIST*
%ADD10C,0.150000*%
%ADD11C,0.120000*%
G04 APERTURE END LIST*
D10*
%TO.C,J_wpump1*%
X179110095Y-103211380D02*
X179110095Y-103925666D01*
X179062476Y-104068523D01*
X178967238Y-104163761D01*
X178824380Y-104211380D01*
X178729142Y-104211380D01*
X179348190Y-104306619D02*
X180110095Y-104306619D01*
X180252952Y-103544714D02*
X180443428Y-104211380D01*
X180633904Y-103735190D01*
X180824380Y-104211380D01*
X181014857Y-103544714D01*
X181395809Y-103544714D02*
X181395809Y-104544714D01*
X181395809Y-103592333D02*
X181491047Y-103544714D01*
X181681523Y-103544714D01*
X181776761Y-103592333D01*
X181824380Y-103639952D01*
X181872000Y-103735190D01*
X181872000Y-104020904D01*
X181824380Y-104116142D01*
X181776761Y-104163761D01*
X181681523Y-104211380D01*
X181491047Y-104211380D01*
X181395809Y-104163761D01*
X182729142Y-103544714D02*
X182729142Y-104211380D01*
X182300571Y-103544714D02*
X182300571Y-104068523D01*
X182348190Y-104163761D01*
X182443428Y-104211380D01*
X182586285Y-104211380D01*
X182681523Y-104163761D01*
X182729142Y-104116142D01*
X183205333Y-104211380D02*
X183205333Y-103544714D01*
X183205333Y-103639952D02*
X183252952Y-103592333D01*
X183348190Y-103544714D01*
X183491047Y-103544714D01*
X183586285Y-103592333D01*
X183633904Y-103687571D01*
X183633904Y-104211380D01*
X183633904Y-103687571D02*
X183681523Y-103592333D01*
X183776761Y-103544714D01*
X183919619Y-103544714D01*
X184014857Y-103592333D01*
X184062476Y-103687571D01*
X184062476Y-104211380D01*
X184538666Y-103544714D02*
X184538666Y-104544714D01*
X184538666Y-103592333D02*
X184633904Y-103544714D01*
X184824380Y-103544714D01*
X184919619Y-103592333D01*
X184967238Y-103639952D01*
X185014857Y-103735190D01*
X185014857Y-104020904D01*
X184967238Y-104116142D01*
X184919619Y-104163761D01*
X184824380Y-104211380D01*
X184633904Y-104211380D01*
X184538666Y-104163761D01*
X185967238Y-104211380D02*
X185395809Y-104211380D01*
X185681523Y-104211380D02*
X185681523Y-103211380D01*
X185586285Y-103354238D01*
X185491047Y-103449476D01*
X185395809Y-103497095D01*
%TO.C,J_fan1*%
X195072238Y-103338380D02*
X195072238Y-104052666D01*
X195024619Y-104195523D01*
X194929380Y-104290761D01*
X194786523Y-104338380D01*
X194691285Y-104338380D01*
X195310333Y-104433619D02*
X196072238Y-104433619D01*
X196167476Y-103671714D02*
X196548428Y-103671714D01*
X196310333Y-104338380D02*
X196310333Y-103481238D01*
X196357952Y-103386000D01*
X196453190Y-103338380D01*
X196548428Y-103338380D01*
X197310333Y-104338380D02*
X197310333Y-103814571D01*
X197262714Y-103719333D01*
X197167476Y-103671714D01*
X196977000Y-103671714D01*
X196881761Y-103719333D01*
X197310333Y-104290761D02*
X197215095Y-104338380D01*
X196977000Y-104338380D01*
X196881761Y-104290761D01*
X196834142Y-104195523D01*
X196834142Y-104100285D01*
X196881761Y-104005047D01*
X196977000Y-103957428D01*
X197215095Y-103957428D01*
X197310333Y-103909809D01*
X197786523Y-103671714D02*
X197786523Y-104338380D01*
X197786523Y-103766952D02*
X197834142Y-103719333D01*
X197929380Y-103671714D01*
X198072238Y-103671714D01*
X198167476Y-103719333D01*
X198215095Y-103814571D01*
X198215095Y-104338380D01*
X199215095Y-104338380D02*
X198643666Y-104338380D01*
X198929380Y-104338380D02*
X198929380Y-103338380D01*
X198834142Y-103481238D01*
X198738904Y-103576476D01*
X198643666Y-103624095D01*
%TO.C,R2*%
X187650380Y-54054666D02*
X187174190Y-54388000D01*
X187650380Y-54626095D02*
X186650380Y-54626095D01*
X186650380Y-54245142D01*
X186698000Y-54149904D01*
X186745619Y-54102285D01*
X186840857Y-54054666D01*
X186983714Y-54054666D01*
X187078952Y-54102285D01*
X187126571Y-54149904D01*
X187174190Y-54245142D01*
X187174190Y-54626095D01*
X186745619Y-53673714D02*
X186698000Y-53626095D01*
X186650380Y-53530857D01*
X186650380Y-53292761D01*
X186698000Y-53197523D01*
X186745619Y-53149904D01*
X186840857Y-53102285D01*
X186936095Y-53102285D01*
X187078952Y-53149904D01*
X187650380Y-53721333D01*
X187650380Y-53102285D01*
%TO.C,H4*%
X130352895Y-50043180D02*
X130352895Y-49043180D01*
X130352895Y-49519371D02*
X130924323Y-49519371D01*
X130924323Y-50043180D02*
X130924323Y-49043180D01*
X131829085Y-49376514D02*
X131829085Y-50043180D01*
X131590990Y-48995561D02*
X131352895Y-49709847D01*
X131971942Y-49709847D01*
%TO.C,H2*%
X198983695Y-50043180D02*
X198983695Y-49043180D01*
X198983695Y-49519371D02*
X199555123Y-49519371D01*
X199555123Y-50043180D02*
X199555123Y-49043180D01*
X199983695Y-49138419D02*
X200031314Y-49090800D01*
X200126552Y-49043180D01*
X200364647Y-49043180D01*
X200459885Y-49090800D01*
X200507504Y-49138419D01*
X200555123Y-49233657D01*
X200555123Y-49328895D01*
X200507504Y-49471752D01*
X199936076Y-50043180D01*
X200555123Y-50043180D01*
%TO.C,U3*%
X167819780Y-56760004D02*
X168629304Y-56760004D01*
X168724542Y-56712385D01*
X168772161Y-56664766D01*
X168819780Y-56569528D01*
X168819780Y-56379052D01*
X168772161Y-56283814D01*
X168724542Y-56236195D01*
X168629304Y-56188576D01*
X167819780Y-56188576D01*
X167819780Y-55807623D02*
X167819780Y-55188576D01*
X168200733Y-55521909D01*
X168200733Y-55379052D01*
X168248352Y-55283814D01*
X168295971Y-55236195D01*
X168391209Y-55188576D01*
X168629304Y-55188576D01*
X168724542Y-55236195D01*
X168772161Y-55283814D01*
X168819780Y-55379052D01*
X168819780Y-55664766D01*
X168772161Y-55760004D01*
X168724542Y-55807623D01*
%TO.C,U_wpump1*%
X184786380Y-91029476D02*
X185595904Y-91029476D01*
X185691142Y-90981857D01*
X185738761Y-90934238D01*
X185786380Y-90839000D01*
X185786380Y-90648523D01*
X185738761Y-90553285D01*
X185691142Y-90505666D01*
X185595904Y-90458047D01*
X184786380Y-90458047D01*
X185881619Y-90219952D02*
X185881619Y-89458047D01*
X185119714Y-89315190D02*
X185786380Y-89124714D01*
X185310190Y-88934238D01*
X185786380Y-88743761D01*
X185119714Y-88553285D01*
X185119714Y-88172333D02*
X186119714Y-88172333D01*
X185167333Y-88172333D02*
X185119714Y-88077095D01*
X185119714Y-87886619D01*
X185167333Y-87791380D01*
X185214952Y-87743761D01*
X185310190Y-87696142D01*
X185595904Y-87696142D01*
X185691142Y-87743761D01*
X185738761Y-87791380D01*
X185786380Y-87886619D01*
X185786380Y-88077095D01*
X185738761Y-88172333D01*
X185119714Y-86839000D02*
X185786380Y-86839000D01*
X185119714Y-87267571D02*
X185643523Y-87267571D01*
X185738761Y-87219952D01*
X185786380Y-87124714D01*
X185786380Y-86981857D01*
X185738761Y-86886619D01*
X185691142Y-86839000D01*
X185786380Y-86362809D02*
X185119714Y-86362809D01*
X185214952Y-86362809D02*
X185167333Y-86315190D01*
X185119714Y-86219952D01*
X185119714Y-86077095D01*
X185167333Y-85981857D01*
X185262571Y-85934238D01*
X185786380Y-85934238D01*
X185262571Y-85934238D02*
X185167333Y-85886619D01*
X185119714Y-85791380D01*
X185119714Y-85648523D01*
X185167333Y-85553285D01*
X185262571Y-85505666D01*
X185786380Y-85505666D01*
X185119714Y-85029476D02*
X186119714Y-85029476D01*
X185167333Y-85029476D02*
X185119714Y-84934238D01*
X185119714Y-84743761D01*
X185167333Y-84648523D01*
X185214952Y-84600904D01*
X185310190Y-84553285D01*
X185595904Y-84553285D01*
X185691142Y-84600904D01*
X185738761Y-84648523D01*
X185786380Y-84743761D01*
X185786380Y-84934238D01*
X185738761Y-85029476D01*
X185786380Y-83600904D02*
X185786380Y-84172333D01*
X185786380Y-83886619D02*
X184786380Y-83886619D01*
X184929238Y-83981857D01*
X185024476Y-84077095D01*
X185072095Y-84172333D01*
%TO.C,U1*%
X148448095Y-66097380D02*
X148448095Y-66906904D01*
X148495714Y-67002142D01*
X148543333Y-67049761D01*
X148638571Y-67097380D01*
X148829047Y-67097380D01*
X148924285Y-67049761D01*
X148971904Y-67002142D01*
X149019523Y-66906904D01*
X149019523Y-66097380D01*
X150019523Y-67097380D02*
X149448095Y-67097380D01*
X149733809Y-67097380D02*
X149733809Y-66097380D01*
X149638571Y-66240238D01*
X149543333Y-66335476D01*
X149448095Y-66383095D01*
%TO.C,OUT2*%
X132723809Y-103211380D02*
X132914285Y-103211380D01*
X133009523Y-103259000D01*
X133104761Y-103354238D01*
X133152380Y-103544714D01*
X133152380Y-103878047D01*
X133104761Y-104068523D01*
X133009523Y-104163761D01*
X132914285Y-104211380D01*
X132723809Y-104211380D01*
X132628571Y-104163761D01*
X132533333Y-104068523D01*
X132485714Y-103878047D01*
X132485714Y-103544714D01*
X132533333Y-103354238D01*
X132628571Y-103259000D01*
X132723809Y-103211380D01*
X133580952Y-103211380D02*
X133580952Y-104020904D01*
X133628571Y-104116142D01*
X133676190Y-104163761D01*
X133771428Y-104211380D01*
X133961904Y-104211380D01*
X134057142Y-104163761D01*
X134104761Y-104116142D01*
X134152380Y-104020904D01*
X134152380Y-103211380D01*
X134485714Y-103211380D02*
X135057142Y-103211380D01*
X134771428Y-104211380D02*
X134771428Y-103211380D01*
X135342857Y-103306619D02*
X135390476Y-103259000D01*
X135485714Y-103211380D01*
X135723809Y-103211380D01*
X135819047Y-103259000D01*
X135866666Y-103306619D01*
X135914285Y-103401857D01*
X135914285Y-103497095D01*
X135866666Y-103639952D01*
X135295238Y-104211380D01*
X135914285Y-104211380D01*
%TO.C,R6*%
X156593333Y-70132380D02*
X156260000Y-69656190D01*
X156021904Y-70132380D02*
X156021904Y-69132380D01*
X156402857Y-69132380D01*
X156498095Y-69180000D01*
X156545714Y-69227619D01*
X156593333Y-69322857D01*
X156593333Y-69465714D01*
X156545714Y-69560952D01*
X156498095Y-69608571D01*
X156402857Y-69656190D01*
X156021904Y-69656190D01*
X157450476Y-69132380D02*
X157260000Y-69132380D01*
X157164761Y-69180000D01*
X157117142Y-69227619D01*
X157021904Y-69370476D01*
X156974285Y-69560952D01*
X156974285Y-69941904D01*
X157021904Y-70037142D01*
X157069523Y-70084761D01*
X157164761Y-70132380D01*
X157355238Y-70132380D01*
X157450476Y-70084761D01*
X157498095Y-70037142D01*
X157545714Y-69941904D01*
X157545714Y-69703809D01*
X157498095Y-69608571D01*
X157450476Y-69560952D01*
X157355238Y-69513333D01*
X157164761Y-69513333D01*
X157069523Y-69560952D01*
X157021904Y-69608571D01*
X156974285Y-69703809D01*
%TO.C,Q2*%
X132904761Y-94002619D02*
X132809523Y-93955000D01*
X132714285Y-93859761D01*
X132571428Y-93716904D01*
X132476190Y-93669285D01*
X132380952Y-93669285D01*
X132428571Y-93907380D02*
X132333333Y-93859761D01*
X132238095Y-93764523D01*
X132190476Y-93574047D01*
X132190476Y-93240714D01*
X132238095Y-93050238D01*
X132333333Y-92955000D01*
X132428571Y-92907380D01*
X132619047Y-92907380D01*
X132714285Y-92955000D01*
X132809523Y-93050238D01*
X132857142Y-93240714D01*
X132857142Y-93574047D01*
X132809523Y-93764523D01*
X132714285Y-93859761D01*
X132619047Y-93907380D01*
X132428571Y-93907380D01*
X133238095Y-93002619D02*
X133285714Y-92955000D01*
X133380952Y-92907380D01*
X133619047Y-92907380D01*
X133714285Y-92955000D01*
X133761904Y-93002619D01*
X133809523Y-93097857D01*
X133809523Y-93193095D01*
X133761904Y-93335952D01*
X133190476Y-93907380D01*
X133809523Y-93907380D01*
%TO.C,R1*%
X181503580Y-53864666D02*
X181027390Y-54198000D01*
X181503580Y-54436095D02*
X180503580Y-54436095D01*
X180503580Y-54055142D01*
X180551200Y-53959904D01*
X180598819Y-53912285D01*
X180694057Y-53864666D01*
X180836914Y-53864666D01*
X180932152Y-53912285D01*
X180979771Y-53959904D01*
X181027390Y-54055142D01*
X181027390Y-54436095D01*
X181503580Y-52912285D02*
X181503580Y-53483714D01*
X181503580Y-53198000D02*
X180503580Y-53198000D01*
X180646438Y-53293238D01*
X180741676Y-53388476D01*
X180789295Y-53483714D01*
%TO.C,H1*%
X151765095Y-105999380D02*
X151765095Y-104999380D01*
X151765095Y-105475571D02*
X152336523Y-105475571D01*
X152336523Y-105999380D02*
X152336523Y-104999380D01*
X153336523Y-105999380D02*
X152765095Y-105999380D01*
X153050809Y-105999380D02*
X153050809Y-104999380D01*
X152955571Y-105142238D01*
X152860333Y-105237476D01*
X152765095Y-105285095D01*
%TO.C,U_fan1*%
X199235380Y-89799333D02*
X200044904Y-89799333D01*
X200140142Y-89751714D01*
X200187761Y-89704095D01*
X200235380Y-89608857D01*
X200235380Y-89418380D01*
X200187761Y-89323142D01*
X200140142Y-89275523D01*
X200044904Y-89227904D01*
X199235380Y-89227904D01*
X200330619Y-88989809D02*
X200330619Y-88227904D01*
X199568714Y-88132666D02*
X199568714Y-87751714D01*
X200235380Y-87989809D02*
X199378238Y-87989809D01*
X199283000Y-87942190D01*
X199235380Y-87846952D01*
X199235380Y-87751714D01*
X200235380Y-86989809D02*
X199711571Y-86989809D01*
X199616333Y-87037428D01*
X199568714Y-87132666D01*
X199568714Y-87323142D01*
X199616333Y-87418380D01*
X200187761Y-86989809D02*
X200235380Y-87085047D01*
X200235380Y-87323142D01*
X200187761Y-87418380D01*
X200092523Y-87466000D01*
X199997285Y-87466000D01*
X199902047Y-87418380D01*
X199854428Y-87323142D01*
X199854428Y-87085047D01*
X199806809Y-86989809D01*
X199568714Y-86513619D02*
X200235380Y-86513619D01*
X199663952Y-86513619D02*
X199616333Y-86466000D01*
X199568714Y-86370761D01*
X199568714Y-86227904D01*
X199616333Y-86132666D01*
X199711571Y-86085047D01*
X200235380Y-86085047D01*
X200235380Y-85085047D02*
X200235380Y-85656476D01*
X200235380Y-85370761D02*
X199235380Y-85370761D01*
X199378238Y-85466000D01*
X199473476Y-85561238D01*
X199521095Y-85656476D01*
%TO.C,H3*%
X131927695Y-75102980D02*
X131927695Y-74102980D01*
X131927695Y-74579171D02*
X132499123Y-74579171D01*
X132499123Y-75102980D02*
X132499123Y-74102980D01*
X132880076Y-74102980D02*
X133499123Y-74102980D01*
X133165790Y-74483933D01*
X133308647Y-74483933D01*
X133403885Y-74531552D01*
X133451504Y-74579171D01*
X133499123Y-74674409D01*
X133499123Y-74912504D01*
X133451504Y-75007742D01*
X133403885Y-75055361D01*
X133308647Y-75102980D01*
X133022933Y-75102980D01*
X132927695Y-75055361D01*
X132880076Y-75007742D01*
%TO.C,R9*%
X191623180Y-54116266D02*
X191146990Y-54449600D01*
X191623180Y-54687695D02*
X190623180Y-54687695D01*
X190623180Y-54306742D01*
X190670800Y-54211504D01*
X190718419Y-54163885D01*
X190813657Y-54116266D01*
X190956514Y-54116266D01*
X191051752Y-54163885D01*
X191099371Y-54211504D01*
X191146990Y-54306742D01*
X191146990Y-54687695D01*
X191623180Y-53640076D02*
X191623180Y-53449600D01*
X191575561Y-53354361D01*
X191527942Y-53306742D01*
X191385085Y-53211504D01*
X191194609Y-53163885D01*
X190813657Y-53163885D01*
X190718419Y-53211504D01*
X190670800Y-53259123D01*
X190623180Y-53354361D01*
X190623180Y-53544838D01*
X190670800Y-53640076D01*
X190718419Y-53687695D01*
X190813657Y-53735314D01*
X191051752Y-53735314D01*
X191146990Y-53687695D01*
X191194609Y-53640076D01*
X191242228Y-53544838D01*
X191242228Y-53354361D01*
X191194609Y-53259123D01*
X191146990Y-53211504D01*
X191051752Y-53163885D01*
%TO.C,J1*%
X180413066Y-40152480D02*
X180413066Y-40866766D01*
X180365447Y-41009623D01*
X180270209Y-41104861D01*
X180127352Y-41152480D01*
X180032114Y-41152480D01*
X181413066Y-41152480D02*
X180841638Y-41152480D01*
X181127352Y-41152480D02*
X181127352Y-40152480D01*
X181032114Y-40295338D01*
X180936876Y-40390576D01*
X180841638Y-40438195D01*
%TO.C,5V1*%
X144697133Y-49713980D02*
X144220942Y-49713980D01*
X144173323Y-50190171D01*
X144220942Y-50142552D01*
X144316180Y-50094933D01*
X144554276Y-50094933D01*
X144649514Y-50142552D01*
X144697133Y-50190171D01*
X144744752Y-50285409D01*
X144744752Y-50523504D01*
X144697133Y-50618742D01*
X144649514Y-50666361D01*
X144554276Y-50713980D01*
X144316180Y-50713980D01*
X144220942Y-50666361D01*
X144173323Y-50618742D01*
X145030466Y-49713980D02*
X145363800Y-50713980D01*
X145697133Y-49713980D01*
X146554276Y-50713980D02*
X145982847Y-50713980D01*
X146268561Y-50713980D02*
X146268561Y-49713980D01*
X146173323Y-49856838D01*
X146078085Y-49952076D01*
X145982847Y-49999695D01*
%TO.C,J_oxygen1*%
X163824285Y-103211380D02*
X163824285Y-103925666D01*
X163776666Y-104068523D01*
X163681428Y-104163761D01*
X163538571Y-104211380D01*
X163443333Y-104211380D01*
X164062380Y-104306619D02*
X164824285Y-104306619D01*
X165205238Y-104211380D02*
X165110000Y-104163761D01*
X165062380Y-104116142D01*
X165014761Y-104020904D01*
X165014761Y-103735190D01*
X165062380Y-103639952D01*
X165110000Y-103592333D01*
X165205238Y-103544714D01*
X165348095Y-103544714D01*
X165443333Y-103592333D01*
X165490952Y-103639952D01*
X165538571Y-103735190D01*
X165538571Y-104020904D01*
X165490952Y-104116142D01*
X165443333Y-104163761D01*
X165348095Y-104211380D01*
X165205238Y-104211380D01*
X165871904Y-104211380D02*
X166395714Y-103544714D01*
X165871904Y-103544714D02*
X166395714Y-104211380D01*
X166681428Y-103544714D02*
X166919523Y-104211380D01*
X167157619Y-103544714D02*
X166919523Y-104211380D01*
X166824285Y-104449476D01*
X166776666Y-104497095D01*
X166681428Y-104544714D01*
X167967142Y-103544714D02*
X167967142Y-104354238D01*
X167919523Y-104449476D01*
X167871904Y-104497095D01*
X167776666Y-104544714D01*
X167633809Y-104544714D01*
X167538571Y-104497095D01*
X167967142Y-104163761D02*
X167871904Y-104211380D01*
X167681428Y-104211380D01*
X167586190Y-104163761D01*
X167538571Y-104116142D01*
X167490952Y-104020904D01*
X167490952Y-103735190D01*
X167538571Y-103639952D01*
X167586190Y-103592333D01*
X167681428Y-103544714D01*
X167871904Y-103544714D01*
X167967142Y-103592333D01*
X168824285Y-104163761D02*
X168729047Y-104211380D01*
X168538571Y-104211380D01*
X168443333Y-104163761D01*
X168395714Y-104068523D01*
X168395714Y-103687571D01*
X168443333Y-103592333D01*
X168538571Y-103544714D01*
X168729047Y-103544714D01*
X168824285Y-103592333D01*
X168871904Y-103687571D01*
X168871904Y-103782809D01*
X168395714Y-103878047D01*
X169300476Y-103544714D02*
X169300476Y-104211380D01*
X169300476Y-103639952D02*
X169348095Y-103592333D01*
X169443333Y-103544714D01*
X169586190Y-103544714D01*
X169681428Y-103592333D01*
X169729047Y-103687571D01*
X169729047Y-104211380D01*
X170729047Y-104211380D02*
X170157619Y-104211380D01*
X170443333Y-104211380D02*
X170443333Y-103211380D01*
X170348095Y-103354238D01*
X170252857Y-103449476D01*
X170157619Y-103497095D01*
%TO.C,R8*%
X132772380Y-90471666D02*
X132296190Y-90805000D01*
X132772380Y-91043095D02*
X131772380Y-91043095D01*
X131772380Y-90662142D01*
X131820000Y-90566904D01*
X131867619Y-90519285D01*
X131962857Y-90471666D01*
X132105714Y-90471666D01*
X132200952Y-90519285D01*
X132248571Y-90566904D01*
X132296190Y-90662142D01*
X132296190Y-91043095D01*
X132200952Y-89900238D02*
X132153333Y-89995476D01*
X132105714Y-90043095D01*
X132010476Y-90090714D01*
X131962857Y-90090714D01*
X131867619Y-90043095D01*
X131820000Y-89995476D01*
X131772380Y-89900238D01*
X131772380Y-89709761D01*
X131820000Y-89614523D01*
X131867619Y-89566904D01*
X131962857Y-89519285D01*
X132010476Y-89519285D01*
X132105714Y-89566904D01*
X132153333Y-89614523D01*
X132200952Y-89709761D01*
X132200952Y-89900238D01*
X132248571Y-89995476D01*
X132296190Y-90043095D01*
X132391428Y-90090714D01*
X132581904Y-90090714D01*
X132677142Y-90043095D01*
X132724761Y-89995476D01*
X132772380Y-89900238D01*
X132772380Y-89709761D01*
X132724761Y-89614523D01*
X132677142Y-89566904D01*
X132581904Y-89519285D01*
X132391428Y-89519285D01*
X132296190Y-89566904D01*
X132248571Y-89614523D01*
X132200952Y-89709761D01*
%TO.C,U_oxygen1*%
X169319880Y-91472285D02*
X170129404Y-91472285D01*
X170224642Y-91424666D01*
X170272261Y-91377047D01*
X170319880Y-91281809D01*
X170319880Y-91091333D01*
X170272261Y-90996095D01*
X170224642Y-90948476D01*
X170129404Y-90900857D01*
X169319880Y-90900857D01*
X170415119Y-90662761D02*
X170415119Y-89900857D01*
X170319880Y-89519904D02*
X170272261Y-89615142D01*
X170224642Y-89662761D01*
X170129404Y-89710380D01*
X169843690Y-89710380D01*
X169748452Y-89662761D01*
X169700833Y-89615142D01*
X169653214Y-89519904D01*
X169653214Y-89377047D01*
X169700833Y-89281809D01*
X169748452Y-89234190D01*
X169843690Y-89186571D01*
X170129404Y-89186571D01*
X170224642Y-89234190D01*
X170272261Y-89281809D01*
X170319880Y-89377047D01*
X170319880Y-89519904D01*
X170319880Y-88853238D02*
X169653214Y-88329428D01*
X169653214Y-88853238D02*
X170319880Y-88329428D01*
X169653214Y-88043714D02*
X170319880Y-87805619D01*
X169653214Y-87567523D02*
X170319880Y-87805619D01*
X170557976Y-87900857D01*
X170605595Y-87948476D01*
X170653214Y-88043714D01*
X169653214Y-86758000D02*
X170462738Y-86758000D01*
X170557976Y-86805619D01*
X170605595Y-86853238D01*
X170653214Y-86948476D01*
X170653214Y-87091333D01*
X170605595Y-87186571D01*
X170272261Y-86758000D02*
X170319880Y-86853238D01*
X170319880Y-87043714D01*
X170272261Y-87138952D01*
X170224642Y-87186571D01*
X170129404Y-87234190D01*
X169843690Y-87234190D01*
X169748452Y-87186571D01*
X169700833Y-87138952D01*
X169653214Y-87043714D01*
X169653214Y-86853238D01*
X169700833Y-86758000D01*
X170272261Y-85900857D02*
X170319880Y-85996095D01*
X170319880Y-86186571D01*
X170272261Y-86281809D01*
X170177023Y-86329428D01*
X169796071Y-86329428D01*
X169700833Y-86281809D01*
X169653214Y-86186571D01*
X169653214Y-85996095D01*
X169700833Y-85900857D01*
X169796071Y-85853238D01*
X169891309Y-85853238D01*
X169986547Y-86329428D01*
X169653214Y-85424666D02*
X170319880Y-85424666D01*
X169748452Y-85424666D02*
X169700833Y-85377047D01*
X169653214Y-85281809D01*
X169653214Y-85138952D01*
X169700833Y-85043714D01*
X169796071Y-84996095D01*
X170319880Y-84996095D01*
X170319880Y-83996095D02*
X170319880Y-84567523D01*
X170319880Y-84281809D02*
X169319880Y-84281809D01*
X169462738Y-84377047D01*
X169557976Y-84472285D01*
X169605595Y-84567523D01*
%TO.C,R4*%
X169019780Y-46784766D02*
X168543590Y-47118100D01*
X169019780Y-47356195D02*
X168019780Y-47356195D01*
X168019780Y-46975242D01*
X168067400Y-46880004D01*
X168115019Y-46832385D01*
X168210257Y-46784766D01*
X168353114Y-46784766D01*
X168448352Y-46832385D01*
X168495971Y-46880004D01*
X168543590Y-46975242D01*
X168543590Y-47356195D01*
X168353114Y-45927623D02*
X169019780Y-45927623D01*
X167972161Y-46165719D02*
X168686447Y-46403814D01*
X168686447Y-45784766D01*
D11*
%TO.C,J_wpump1*%
X187111500Y-113789000D02*
X187611500Y-114039000D01*
X187611500Y-107239000D02*
X187611500Y-102139000D01*
X187611500Y-112089000D02*
X187111500Y-112339000D01*
X187111500Y-106939000D02*
X187611500Y-107239000D01*
X187611500Y-112139000D02*
X187611500Y-112089000D01*
X176761500Y-114739000D02*
X187111500Y-114739000D01*
X187111500Y-114739000D02*
X187111500Y-113789000D01*
X187111500Y-112339000D02*
X187111500Y-106939000D01*
X187611500Y-114039000D02*
X187611500Y-112139000D01*
X187611500Y-102139000D02*
X176761500Y-102139000D01*
X176761500Y-102139000D02*
X176761500Y-114739000D01*
%TO.C,J_fan1*%
X202383000Y-112158000D02*
X202383000Y-112108000D01*
X202383000Y-114058000D02*
X202383000Y-112158000D01*
X191533000Y-102158000D02*
X191533000Y-114758000D01*
X201883000Y-112358000D02*
X201883000Y-106958000D01*
X201883000Y-106958000D02*
X202383000Y-107258000D01*
X202383000Y-102158000D02*
X191533000Y-102158000D01*
X191533000Y-114758000D02*
X201883000Y-114758000D01*
X202383000Y-112108000D02*
X201883000Y-112358000D01*
X201883000Y-114758000D02*
X201883000Y-113808000D01*
X202383000Y-107258000D02*
X202383000Y-102158000D01*
X201883000Y-113808000D02*
X202383000Y-114058000D01*
%TO.C,R2*%
X187198000Y-55468000D02*
X187198000Y-52308000D01*
X188118000Y-56388000D02*
G75*
G03*
X188118000Y-56388000I-920000J0D01*
G01*
%TO.C,U3*%
X172222400Y-53358100D02*
X164482400Y-53358100D01*
X164482400Y-53358100D02*
X164482400Y-58658100D01*
X172222400Y-58658100D02*
X172222400Y-57008100D01*
X164482400Y-58658100D02*
X172222400Y-58658100D01*
X172222400Y-55008100D02*
X172222400Y-53358100D01*
X172222400Y-55008100D02*
G75*
G03*
X172222400Y-57008100I0J-1000000D01*
G01*
%TO.C,U_wpump1*%
X179334000Y-100339000D02*
X179334000Y-72139000D01*
X184534000Y-72139000D02*
X184134000Y-72139000D01*
X184734000Y-78089000D02*
X184734000Y-76089000D01*
X184534000Y-100339000D02*
X179334000Y-100339000D01*
X184534000Y-72139000D02*
X184534000Y-100339000D01*
X179334000Y-72139000D02*
X182134000Y-72139000D01*
%TO.C,U1*%
X151860000Y-85545000D02*
X151860000Y-67645000D01*
X146560000Y-67645000D02*
X146560000Y-85545000D01*
X146560000Y-85545000D02*
X151860000Y-85545000D01*
X148210000Y-67645000D02*
X146560000Y-67645000D01*
X151860000Y-67645000D02*
X150210000Y-67645000D01*
X148210000Y-67645000D02*
G75*
G03*
X150210000Y-67645000I1000000J0D01*
G01*
%TO.C,OUT2*%
X139835000Y-107000000D02*
X139835000Y-101900000D01*
X139335000Y-113550000D02*
X139835000Y-113800000D01*
X139335000Y-112100000D02*
X139335000Y-106700000D01*
X139335000Y-114500000D02*
X139335000Y-113550000D01*
X139835000Y-113800000D02*
X139835000Y-111900000D01*
X128985000Y-114500000D02*
X139335000Y-114500000D01*
X128985000Y-101900000D02*
X128985000Y-114500000D01*
X139835000Y-111900000D02*
X139835000Y-111850000D01*
X139835000Y-111850000D02*
X139335000Y-112100000D01*
X139835000Y-101900000D02*
X128985000Y-101900000D01*
X139335000Y-106700000D02*
X139835000Y-107000000D01*
%TO.C,R6*%
X156410000Y-71600000D02*
X157030000Y-71600000D01*
X156410000Y-71600000D02*
G75*
G03*
X156410000Y-71600000I-920000J0D01*
G01*
%TO.C,Q2*%
X127880000Y-92730000D02*
X138120000Y-92730000D01*
X134851000Y-92730000D02*
X134851000Y-94240000D01*
X127880000Y-92730000D02*
X127880000Y-97371000D01*
X127880000Y-97371000D02*
X138120000Y-97371000D01*
X127880000Y-94240000D02*
X138120000Y-94240000D01*
X131150000Y-92730000D02*
X131150000Y-94240000D01*
X138120000Y-92730000D02*
X138120000Y-97371000D01*
%TO.C,R1*%
X181051200Y-55468000D02*
X181051200Y-52308000D01*
X181971200Y-56388000D02*
G75*
G03*
X181971200Y-56388000I-920000J0D01*
G01*
%TO.C,U_fan1*%
X198983000Y-72266000D02*
X198583000Y-72266000D01*
X199183000Y-78216000D02*
X199183000Y-76216000D01*
X198983000Y-100466000D02*
X193783000Y-100466000D01*
X198983000Y-72266000D02*
X198983000Y-100466000D01*
X193783000Y-100466000D02*
X193783000Y-72266000D01*
X193783000Y-72266000D02*
X196583000Y-72266000D01*
%TO.C,R9*%
X193090800Y-55569600D02*
X193090800Y-52409600D01*
X194010800Y-56489600D02*
G75*
G03*
X194010800Y-56489600I-920000J0D01*
G01*
%TO.C,J1*%
X173636400Y-42290100D02*
X187856400Y-42290100D01*
X174136400Y-44310100D02*
X174136400Y-45810100D01*
X187856400Y-42290100D02*
X187856400Y-43500100D01*
X188356400Y-45810100D02*
X188356400Y-41790100D01*
X173136400Y-41790100D02*
X173136400Y-45810100D01*
X173636400Y-43500100D02*
X173636400Y-42290100D01*
X188356400Y-44310100D02*
X187356400Y-44310100D01*
X187856400Y-43500100D02*
X188356400Y-43500100D01*
X173136400Y-45810100D02*
X188356400Y-45810100D01*
X188356400Y-41790100D02*
X173136400Y-41790100D01*
X173136400Y-43500100D02*
X173636400Y-43500100D01*
X173136400Y-44310100D02*
X174136400Y-44310100D01*
X172836400Y-46110100D02*
X175336400Y-46110100D01*
X187356400Y-44310100D02*
X187356400Y-45810100D01*
X172836400Y-43610100D02*
X172836400Y-46110100D01*
%TO.C,5V1*%
X139678800Y-43391600D02*
X139678800Y-43441600D01*
X150528800Y-40791600D02*
X140178800Y-40791600D01*
X139678800Y-41491600D02*
X139678800Y-43391600D01*
X140178800Y-43191600D02*
X140178800Y-48591600D01*
X140178800Y-40791600D02*
X140178800Y-41741600D01*
X140178800Y-41741600D02*
X139678800Y-41491600D01*
X150528800Y-53391600D02*
X150528800Y-40791600D01*
X139678800Y-53391600D02*
X150528800Y-53391600D01*
X139678800Y-43441600D02*
X140178800Y-43191600D01*
X139678800Y-48291600D02*
X139678800Y-53391600D01*
X140178800Y-48591600D02*
X139678800Y-48291600D01*
%TO.C,J_oxygen1*%
X172745000Y-107258000D02*
X172745000Y-102158000D01*
X161895000Y-114758000D02*
X172245000Y-114758000D01*
X161895000Y-102158000D02*
X161895000Y-114758000D01*
X172745000Y-102158000D02*
X161895000Y-102158000D01*
X172245000Y-114758000D02*
X172245000Y-113808000D01*
X172745000Y-114058000D02*
X172745000Y-112158000D01*
X172245000Y-112358000D02*
X172245000Y-106958000D01*
X172745000Y-112158000D02*
X172745000Y-112108000D01*
X172745000Y-112108000D02*
X172245000Y-112358000D01*
X172245000Y-106958000D02*
X172745000Y-107258000D01*
X172245000Y-113808000D02*
X172745000Y-114058000D01*
%TO.C,R8*%
X130400000Y-89955000D02*
X130400000Y-90575000D01*
X131320000Y-89035000D02*
G75*
G03*
X131320000Y-89035000I-920000J0D01*
G01*
%TO.C,U_oxygen1*%
X169267500Y-78508000D02*
X169267500Y-76508000D01*
X169067500Y-72558000D02*
X169067500Y-100758000D01*
X163867500Y-72558000D02*
X166667500Y-72558000D01*
X169067500Y-72558000D02*
X168667500Y-72558000D01*
X163867500Y-100758000D02*
X163867500Y-72558000D01*
X169067500Y-100758000D02*
X163867500Y-100758000D01*
%TO.C,R4*%
X170967400Y-47518100D02*
X170967400Y-48138100D01*
X171887400Y-46598100D02*
G75*
G03*
X171887400Y-46598100I-920000J0D01*
G01*
%TD*%
M02*
