%TF.GenerationSoftware,KiCad,Pcbnew,6.0.11+dfsg-1*%
%TF.CreationDate,2023-04-02T16:47:01-05:00*%
%TF.ProjectId,power_control,706f7765-725f-4636-9f6e-74726f6c2e6b,rev?*%
%TF.SameCoordinates,Original*%
%TF.FileFunction,Copper,L2,Bot*%
%TF.FilePolarity,Positive*%
%FSLAX46Y46*%
G04 Gerber Fmt 4.6, Leading zero omitted, Abs format (unit mm)*
G04 Created by KiCad (PCBNEW 6.0.11+dfsg-1) date 2023-04-02 16:47:01*
%MOMM*%
%LPD*%
G01*
G04 APERTURE LIST*
%TA.AperFunction,ComponentPad*%
%ADD10O,2.050000X3.000000*%
%TD*%
%TA.AperFunction,ComponentPad*%
%ADD11R,2.050000X3.000000*%
%TD*%
%TA.AperFunction,ComponentPad*%
%ADD12R,3.000000X3.960000*%
%TD*%
%TA.AperFunction,ComponentPad*%
%ADD13O,3.000000X3.960000*%
%TD*%
%TA.AperFunction,ComponentPad*%
%ADD14C,2.500000*%
%TD*%
%TA.AperFunction,ComponentPad*%
%ADD15O,2.500000X1.750000*%
%TD*%
%TA.AperFunction,ComponentPad*%
%ADD16C,5.600000*%
%TD*%
%TA.AperFunction,ComponentPad*%
%ADD17R,1.800000X3.000000*%
%TD*%
%TA.AperFunction,ComponentPad*%
%ADD18O,1.800000X3.000000*%
%TD*%
%TA.AperFunction,ComponentPad*%
%ADD19O,2.000000X2.000000*%
%TD*%
%TA.AperFunction,ComponentPad*%
%ADD20C,3.000000*%
%TD*%
%TA.AperFunction,ComponentPad*%
%ADD21R,3.000000X2.000000*%
%TD*%
%TA.AperFunction,ComponentPad*%
%ADD22O,3.000000X2.100000*%
%TD*%
%TA.AperFunction,ComponentPad*%
%ADD23O,3.000000X2.000000*%
%TD*%
%TA.AperFunction,ComponentPad*%
%ADD24O,3.000000X1.600000*%
%TD*%
%TA.AperFunction,ComponentPad*%
%ADD25O,1.650000X1.650000*%
%TD*%
%TA.AperFunction,ComponentPad*%
%ADD26O,2.500000X1.600000*%
%TD*%
%TA.AperFunction,ComponentPad*%
%ADD27O,2.100000X2.500000*%
%TD*%
%TA.AperFunction,ComponentPad*%
%ADD28C,2.100000*%
%TD*%
%TA.AperFunction,ComponentPad*%
%ADD29R,2.000000X3.000000*%
%TD*%
%TA.AperFunction,ComponentPad*%
%ADD30O,2.000000X3.000000*%
%TD*%
%TA.AperFunction,ComponentPad*%
%ADD31R,3.000000X2.100000*%
%TD*%
%TA.AperFunction,ComponentPad*%
%ADD32C,2.000000*%
%TD*%
%TA.AperFunction,ComponentPad*%
%ADD33O,2.650000X2.100000*%
%TD*%
%TA.AperFunction,ViaPad*%
%ADD34C,2.300000*%
%TD*%
%TA.AperFunction,Conductor*%
%ADD35C,1.330000*%
%TD*%
%TA.AperFunction,Conductor*%
%ADD36C,2.000000*%
%TD*%
%TA.AperFunction,Conductor*%
%ADD37C,2.500000*%
%TD*%
G04 APERTURE END LIST*
D10*
%TO.P,J1,5,Pin_5*%
%TO.N,GND5V*%
X185300000Y-43300000D03*
%TO.P,J1,4,Pin_4*%
%TO.N,D33*%
X182800000Y-43300000D03*
%TO.P,J1,3,Pin_3*%
%TO.N,D27*%
X180300000Y-43300000D03*
%TO.P,J1,2,Pin_2*%
%TO.N,D26*%
X177800000Y-43300000D03*
D11*
%TO.P,J1,1,Pin_1*%
%TO.N,D14*%
X175300000Y-43300000D03*
%TD*%
D12*
%TO.P,J_wpump1,1,Pin_1*%
%TO.N,Net-(J_wpump1-Pad1)*%
X179411500Y-108439000D03*
D13*
%TO.P,J_wpump1,2,Pin_2*%
%TO.N,Net-(J_wpump1-Pad2)*%
X184411500Y-108439000D03*
%TD*%
D12*
%TO.P,J_fan1,1,Pin_1*%
%TO.N,Net-(J_fan1-Pad1)*%
X194183000Y-108458000D03*
D13*
%TO.P,J_fan1,2,Pin_2*%
%TO.N,Net-(J_fan1-Pad2)*%
X199183000Y-108458000D03*
%TD*%
D14*
%TO.P,R2,1*%
%TO.N,Net-(R2-Pad1)*%
X187198000Y-56388000D03*
D15*
%TO.P,R2,2*%
%TO.N,D27*%
X187198000Y-51308000D03*
%TD*%
D16*
%TO.P,H4,1*%
%TO.N,N/C*%
X131114800Y-53390800D03*
%TD*%
%TO.P,H2,1*%
%TO.N,N/C*%
X199491600Y-53390800D03*
%TD*%
D17*
%TO.P,U3,1*%
%TO.N,Net-(R4-Pad2)*%
X170892400Y-52198100D03*
D18*
%TO.P,U3,2*%
%TO.N,GND5V*%
X168352400Y-52198100D03*
D19*
%TO.P,U3,3,NC*%
%TO.N,unconnected-(U3-Pad3)*%
X165812400Y-52198100D03*
D18*
%TO.P,U3,4*%
%TO.N,GND5V*%
X165812400Y-59818100D03*
%TO.P,U3,5*%
%TO.N,Net-(R6-Pad1)*%
X168352400Y-59818100D03*
D19*
%TO.P,U3,6*%
%TO.N,unconnected-(U3-Pad6)*%
X170892400Y-59818100D03*
%TD*%
D20*
%TO.P,U_wpump1,11*%
%TO.N,Net-(J_wpump1-Pad1)*%
X182765700Y-86004400D03*
%TO.P,U_wpump1,14*%
%TO.N,Net-(J_wpump1-Pad2)*%
X182765700Y-93243400D03*
D21*
%TO.P,U_wpump1,A1*%
%TO.N,Net-(R2-Pad1)*%
X182765700Y-75758400D03*
D22*
%TO.P,U_wpump1,A2*%
%TO.N,GND5V*%
X182765700Y-73177400D03*
%TD*%
D21*
%TO.P,U1,1*%
%TO.N,N/C*%
X145400000Y-68975000D03*
D23*
%TO.P,U1,2*%
X145400000Y-71515000D03*
%TO.P,U1,3*%
%TO.N,unconnected-(U1-Pad3)*%
X145400000Y-74055000D03*
%TO.P,U1,4*%
%TO.N,unconnected-(U1-Pad4)*%
X145400000Y-76595000D03*
%TO.P,U1,5*%
%TO.N,unconnected-(U1-Pad5)*%
X145400000Y-79135000D03*
%TO.P,U1,6*%
%TO.N,unconnected-(U1-Pad6)*%
X145400000Y-81675000D03*
D24*
%TO.P,U1,7,VSS*%
%TO.N,GND5V*%
X145400000Y-84215000D03*
D23*
%TO.P,U1,8*%
%TO.N,unconnected-(U1-Pad8)*%
X153020000Y-84215000D03*
%TO.P,U1,9*%
%TO.N,unconnected-(U1-Pad9)*%
X153020000Y-81675000D03*
%TO.P,U1,10*%
%TO.N,unconnected-(U1-Pad10)*%
X153020000Y-79135000D03*
%TO.P,U1,11*%
%TO.N,unconnected-(U1-Pad11)*%
X153020000Y-76595000D03*
D19*
%TO.P,U1,12*%
%TO.N,Net-(R8-Pad1)*%
X153020000Y-74055000D03*
D25*
%TO.P,U1,13*%
%TO.N,Net-(R6-Pad1)*%
X153020000Y-71515000D03*
D26*
%TO.P,U1,14,VDD*%
%TO.N,5v*%
X153020000Y-68975000D03*
%TD*%
D12*
%TO.P,OUT2,1,Pin_1*%
%TO.N,Net-(OUT2-Pad1)*%
X131635000Y-108200000D03*
D13*
%TO.P,OUT2,2,Pin_2*%
%TO.N,GND5V*%
X136635000Y-108200000D03*
%TD*%
D27*
%TO.P,R6,2*%
%TO.N,5v*%
X158030000Y-71600000D03*
D28*
%TO.P,R6,1*%
%TO.N,Net-(R6-Pad1)*%
X155490000Y-71600000D03*
%TD*%
D29*
%TO.P,Q2,1,B*%
%TO.N,Net-(Q2-Pad1)*%
X130460000Y-96000000D03*
D30*
%TO.P,Q2,2,C*%
%TO.N,5v*%
X133000000Y-96000000D03*
%TO.P,Q2,3,E*%
%TO.N,Net-(OUT2-Pad1)*%
X135540000Y-96000000D03*
%TD*%
D14*
%TO.P,R1,1*%
%TO.N,Net-(R1-Pad1)*%
X181051200Y-56388000D03*
D15*
%TO.P,R1,2*%
%TO.N,D26*%
X181051200Y-51308000D03*
%TD*%
D20*
%TO.P,U_fan1,11*%
%TO.N,Net-(J_fan1-Pad1)*%
X197446900Y-86309200D03*
%TO.P,U_fan1,14*%
%TO.N,Net-(J_fan1-Pad2)*%
X197446900Y-93548200D03*
D31*
%TO.P,U_fan1,A1*%
%TO.N,Net-(R9-Pad1)*%
X197446900Y-76063200D03*
D22*
%TO.P,U_fan1,A2*%
%TO.N,GND5V*%
X197446900Y-73482200D03*
%TD*%
D14*
%TO.P,R9,1*%
%TO.N,Net-(R9-Pad1)*%
X193090800Y-56489600D03*
D15*
%TO.P,R9,2*%
%TO.N,D33*%
X193090800Y-51409600D03*
%TD*%
D12*
%TO.P,5V1,1,Pin_1*%
%TO.N,5v*%
X147878800Y-47091600D03*
D13*
%TO.P,5V1,2,Pin_2*%
%TO.N,GND5V*%
X142878800Y-47091600D03*
%TD*%
D12*
%TO.P,J_oxygen1,1,Pin_1*%
%TO.N,Net-(J_oxygen1-Pad1)*%
X164545000Y-108458000D03*
D13*
%TO.P,J_oxygen1,2,Pin_2*%
%TO.N,Net-(J_oxygen1-Pad2)*%
X169545000Y-108458000D03*
%TD*%
D32*
%TO.P,R8,1*%
%TO.N,Net-(R8-Pad1)*%
X130400000Y-89035000D03*
D19*
%TO.P,R8,2*%
%TO.N,Net-(Q2-Pad1)*%
X130400000Y-91575000D03*
%TD*%
D20*
%TO.P,U_oxygen1,11*%
%TO.N,Net-(J_oxygen1-Pad1)*%
X168427400Y-86144100D03*
%TO.P,U_oxygen1,14*%
%TO.N,Net-(J_oxygen1-Pad2)*%
X168427400Y-93383100D03*
D21*
%TO.P,U_oxygen1,A1*%
%TO.N,Net-(R1-Pad1)*%
X168427400Y-75898100D03*
D23*
%TO.P,U_oxygen1,A2*%
%TO.N,GND5V*%
X168427400Y-73317100D03*
%TD*%
D33*
%TO.P,R4,1*%
%TO.N,D14*%
X170967400Y-46598100D03*
%TO.P,R4,2*%
%TO.N,Net-(R4-Pad2)*%
X170967400Y-49138100D03*
%TD*%
D34*
%TO.N,5v*%
X142036800Y-90830400D03*
X156500000Y-65495000D03*
X148285200Y-54914800D03*
%TO.N,Net-(R1-Pad1)*%
X181051200Y-61112400D03*
X162966400Y-72745600D03*
%TO.N,Net-(R2-Pad1)*%
X186283600Y-77063600D03*
X187147200Y-61061600D03*
%TO.N,Net-(R9-Pad1)*%
X192938400Y-61366400D03*
X192481200Y-77165200D03*
%TD*%
D35*
%TO.N,GND5V*%
X185300000Y-43300000D02*
X185300000Y-42100000D01*
X185300000Y-42100000D02*
X183205000Y-40005000D01*
X183205000Y-40005000D02*
X171333500Y-40005000D01*
X171333500Y-40005000D02*
X168352400Y-42986100D01*
%TO.N,Net-(R6-Pad1)*%
X153020000Y-71515000D02*
X150305800Y-71515000D01*
X168352400Y-61136600D02*
X168352400Y-59818100D01*
X150305800Y-71515000D02*
X149352000Y-70561200D01*
X149352000Y-70561200D02*
X149352000Y-66954400D01*
X149352000Y-66954400D02*
X153568400Y-62738000D01*
X153568400Y-62738000D02*
X166751000Y-62738000D01*
X166751000Y-62738000D02*
X168352400Y-61136600D01*
%TO.N,5v*%
X156500000Y-65495000D02*
X153020000Y-68975000D01*
X153060400Y-68934600D02*
X153020000Y-68975000D01*
X158030000Y-71600000D02*
X158030000Y-68805000D01*
X158030000Y-68805000D02*
X157525000Y-68300000D01*
X153695000Y-68300000D02*
X153020000Y-68975000D01*
X157525000Y-68300000D02*
X153695000Y-68300000D01*
%TO.N,GND5V*%
X168352400Y-42986100D02*
X166400000Y-44938500D01*
X166400000Y-44938500D02*
X168300000Y-46838500D01*
X168300000Y-46838500D02*
X168300000Y-52145700D01*
X168300000Y-52145700D02*
X168352400Y-52198100D01*
X168352400Y-42986100D02*
X166638500Y-44700000D01*
X166638500Y-44700000D02*
X164100000Y-44700000D01*
X164100000Y-44700000D02*
X161818000Y-42418000D01*
X161818000Y-42418000D02*
X146253200Y-42418000D01*
X146253200Y-42418000D02*
X142878800Y-45792400D01*
X142878800Y-45792400D02*
X142878800Y-47091600D01*
%TO.N,D14*%
X170967400Y-46598100D02*
X174001900Y-46598100D01*
X174001900Y-46598100D02*
X175300000Y-45300000D01*
X175300000Y-45300000D02*
X175300000Y-43300000D01*
%TO.N,D26*%
X177800000Y-43300000D02*
X177800000Y-46900000D01*
X177800000Y-46900000D02*
X181051200Y-50151200D01*
X181051200Y-50151200D02*
X181051200Y-51308000D01*
%TO.N,D27*%
X187198000Y-51308000D02*
X186108000Y-51308000D01*
X186108000Y-51308000D02*
X180300000Y-45500000D01*
X180300000Y-45500000D02*
X180300000Y-43300000D01*
%TO.N,D33*%
X193090800Y-51409600D02*
X188681200Y-47000000D01*
X188681200Y-47000000D02*
X185852136Y-47000000D01*
X185852136Y-47000000D02*
X182800000Y-43947864D01*
X182800000Y-43947864D02*
X182800000Y-43300000D01*
D36*
%TO.N,GND5V*%
X183261000Y-73466000D02*
X183134000Y-73339000D01*
X145400000Y-84215000D02*
X143041400Y-84215000D01*
X177292000Y-74777600D02*
X175853400Y-73339000D01*
X145400000Y-86218000D02*
X148463000Y-89281000D01*
X197583000Y-73466000D02*
X183261000Y-73466000D01*
X177292000Y-77622400D02*
X177292000Y-74777600D01*
X174040800Y-80873600D02*
X177292000Y-77622400D01*
X138125200Y-51845200D02*
X142878800Y-47091600D01*
X183134000Y-73339000D02*
X178876000Y-73339000D01*
X165303200Y-80873600D02*
X174040800Y-80873600D01*
X138125200Y-79298800D02*
X138125200Y-51845200D01*
X173059400Y-73339000D02*
X168086500Y-73339000D01*
X178876000Y-73339000D02*
X173059400Y-73339000D01*
D35*
X165812400Y-57606000D02*
X168352400Y-55066000D01*
D36*
X145400000Y-84215000D02*
X145400000Y-86218000D01*
X175853400Y-73339000D02*
X173059400Y-73339000D01*
X136635000Y-108200000D02*
X138053000Y-108200000D01*
X156972000Y-89204800D02*
X165303200Y-80873600D01*
X156972000Y-89281000D02*
X156972000Y-89204800D01*
X138053000Y-108200000D02*
X156972000Y-89281000D01*
X156972000Y-89281000D02*
X148463000Y-89281000D01*
D35*
X165812400Y-59818100D02*
X165812400Y-57606000D01*
D36*
X143041400Y-84215000D02*
X138125200Y-79298800D01*
D35*
X168352400Y-55066000D02*
X168352400Y-52198100D01*
%TO.N,D26*%
X181077400Y-51281800D02*
X181051200Y-51308000D01*
D37*
%TO.N,Net-(J_oxygen1-Pad1)*%
X168427400Y-86144100D02*
X164545000Y-90026500D01*
X164545000Y-90026500D02*
X164545000Y-108458000D01*
%TO.N,Net-(J_oxygen1-Pad2)*%
X169545000Y-108458000D02*
X169545000Y-94500700D01*
X169545000Y-94500700D02*
X168427400Y-93383100D01*
%TO.N,Net-(J_wpump1-Pad1)*%
X177342800Y-106476800D02*
X177342800Y-89103200D01*
X180441600Y-86004400D02*
X182765700Y-86004400D01*
X179305000Y-108439000D02*
X177342800Y-106476800D01*
X179411500Y-108439000D02*
X179305000Y-108439000D01*
X177342800Y-89103200D02*
X180441600Y-86004400D01*
%TO.N,Net-(J_wpump1-Pad2)*%
X184411500Y-94889200D02*
X182765700Y-93243400D01*
X184411500Y-108439000D02*
X184411500Y-94889200D01*
D36*
%TO.N,Net-(OUT2-Pad1)*%
X131635000Y-108200000D02*
X131635000Y-104204000D01*
X131635000Y-104204000D02*
X135540000Y-100299000D01*
X135540000Y-100299000D02*
X135540000Y-96000000D01*
D35*
%TO.N,Net-(Q2-Pad1)*%
X130400000Y-95940000D02*
X130460000Y-96000000D01*
X130400000Y-91575000D02*
X130400000Y-95940000D01*
%TO.N,5v*%
X147878800Y-54508400D02*
X148285200Y-54914800D01*
X142036800Y-90830400D02*
X135636000Y-90830400D01*
X133000000Y-93466400D02*
X133000000Y-96000000D01*
X135636000Y-90830400D02*
X133000000Y-93466400D01*
X147878800Y-47091600D02*
X147878800Y-54508400D01*
%TO.N,Net-(R1-Pad1)*%
X162966400Y-74574400D02*
X162966400Y-72745600D01*
X164290100Y-75898100D02*
X162966400Y-74574400D01*
X181051200Y-61112400D02*
X181051200Y-56388000D01*
X168427400Y-75898100D02*
X164290100Y-75898100D01*
%TO.N,Net-(R2-Pad1)*%
X187147200Y-56438800D02*
X187198000Y-56388000D01*
X184096300Y-77089000D02*
X186258200Y-77089000D01*
X186258200Y-77089000D02*
X186283600Y-77063600D01*
X182765700Y-75758400D02*
X184096300Y-77089000D01*
X187147200Y-61061600D02*
X187147200Y-56438800D01*
%TO.N,Net-(R4-Pad2)*%
X170967400Y-49138100D02*
X170967400Y-52123100D01*
X170967400Y-52123100D02*
X170892400Y-52198100D01*
%TO.N,Net-(R6-Pad1)*%
X155490000Y-71600000D02*
X153105000Y-71600000D01*
X153105000Y-71600000D02*
X153020000Y-71515000D01*
%TO.N,Net-(R9-Pad1)*%
X193090800Y-61214000D02*
X192938400Y-61366400D01*
X192532000Y-77216000D02*
X196294100Y-77216000D01*
X193090800Y-56489600D02*
X193090800Y-61214000D01*
X192481200Y-77165200D02*
X192532000Y-77216000D01*
X196294100Y-77216000D02*
X197446900Y-76063200D01*
D37*
%TO.N,Net-(J_fan1-Pad1)*%
X194056000Y-86309200D02*
X191719200Y-88646000D01*
X191719200Y-105994200D02*
X194183000Y-108458000D01*
X191719200Y-88646000D02*
X191719200Y-105994200D01*
X197446900Y-86309200D02*
X194056000Y-86309200D01*
%TO.N,Net-(J_fan1-Pad2)*%
X199183000Y-108458000D02*
X199183000Y-95284300D01*
X199183000Y-95284300D02*
X197446900Y-93548200D01*
%TD*%
M02*
