%TF.GenerationSoftware,KiCad,Pcbnew,6.0.11+dfsg-1*%
%TF.CreationDate,2023-03-21T20:25:38-05:00*%
%TF.ProjectId,power_control,706f7765-725f-4636-9f6e-74726f6c2e6b,rev?*%
%TF.SameCoordinates,Original*%
%TF.FileFunction,Copper,L2,Bot*%
%TF.FilePolarity,Positive*%
%FSLAX46Y46*%
G04 Gerber Fmt 4.6, Leading zero omitted, Abs format (unit mm)*
G04 Created by KiCad (PCBNEW 6.0.11+dfsg-1) date 2023-03-21 20:25:38*
%MOMM*%
%LPD*%
G01*
G04 APERTURE LIST*
G04 Aperture macros list*
%AMRoundRect*
0 Rectangle with rounded corners*
0 $1 Rounding radius*
0 $2 $3 $4 $5 $6 $7 $8 $9 X,Y pos of 4 corners*
0 Add a 4 corners polygon primitive as box body*
4,1,4,$2,$3,$4,$5,$6,$7,$8,$9,$2,$3,0*
0 Add four circle primitives for the rounded corners*
1,1,$1+$1,$2,$3*
1,1,$1+$1,$4,$5*
1,1,$1+$1,$6,$7*
1,1,$1+$1,$8,$9*
0 Add four rect primitives between the rounded corners*
20,1,$1+$1,$2,$3,$4,$5,0*
20,1,$1+$1,$4,$5,$6,$7,0*
20,1,$1+$1,$6,$7,$8,$9,0*
20,1,$1+$1,$8,$9,$2,$3,0*%
G04 Aperture macros list end*
%TA.AperFunction,ComponentPad*%
%ADD10R,2.500000X3.960000*%
%TD*%
%TA.AperFunction,ComponentPad*%
%ADD11O,2.500000X3.960000*%
%TD*%
%TA.AperFunction,ComponentPad*%
%ADD12R,1.980000X3.960000*%
%TD*%
%TA.AperFunction,ComponentPad*%
%ADD13O,1.980000X3.960000*%
%TD*%
%TA.AperFunction,ComponentPad*%
%ADD14C,2.500000*%
%TD*%
%TA.AperFunction,ComponentPad*%
%ADD15O,2.500000X1.750000*%
%TD*%
%TA.AperFunction,ComponentPad*%
%ADD16C,5.600000*%
%TD*%
%TA.AperFunction,ComponentPad*%
%ADD17R,1.800000X3.000000*%
%TD*%
%TA.AperFunction,ComponentPad*%
%ADD18O,1.800000X3.000000*%
%TD*%
%TA.AperFunction,ComponentPad*%
%ADD19O,1.600000X1.600000*%
%TD*%
%TA.AperFunction,ComponentPad*%
%ADD20C,3.500000*%
%TD*%
%TA.AperFunction,ComponentPad*%
%ADD21RoundRect,0.312000X-1.188000X1.188000X-1.188000X-1.188000X1.188000X-1.188000X1.188000X1.188000X0*%
%TD*%
%TA.AperFunction,ComponentPad*%
%ADD22C,3.000000*%
%TD*%
%TA.AperFunction,ComponentPad*%
%ADD23R,1.600000X1.600000*%
%TD*%
%TA.AperFunction,ComponentPad*%
%ADD24O,2.500000X1.600000*%
%TD*%
%TA.AperFunction,ComponentPad*%
%ADD25O,1.650000X1.650000*%
%TD*%
%TA.AperFunction,ComponentPad*%
%ADD26C,1.650000*%
%TD*%
%TA.AperFunction,ComponentPad*%
%ADD27O,1.400000X2.500000*%
%TD*%
%TA.AperFunction,ComponentPad*%
%ADD28R,1.905000X3.000000*%
%TD*%
%TA.AperFunction,ComponentPad*%
%ADD29O,1.905000X3.000000*%
%TD*%
%TA.AperFunction,ComponentPad*%
%ADD30RoundRect,0.249600X-0.950400X0.950400X-0.950400X-0.950400X0.950400X-0.950400X0.950400X0.950400X0*%
%TD*%
%TA.AperFunction,ComponentPad*%
%ADD31C,2.400000*%
%TD*%
%TA.AperFunction,ComponentPad*%
%ADD32RoundRect,0.250000X-0.600000X-1.000000X0.600000X-1.000000X0.600000X1.000000X-0.600000X1.000000X0*%
%TD*%
%TA.AperFunction,ComponentPad*%
%ADD33O,1.700000X2.500000*%
%TD*%
%TA.AperFunction,ComponentPad*%
%ADD34C,1.800000*%
%TD*%
%TA.AperFunction,ComponentPad*%
%ADD35O,1.800000X1.800000*%
%TD*%
%TA.AperFunction,ComponentPad*%
%ADD36C,1.750000*%
%TD*%
%TA.AperFunction,ComponentPad*%
%ADD37O,1.750000X1.750000*%
%TD*%
%TA.AperFunction,ViaPad*%
%ADD38C,1.333000*%
%TD*%
%TA.AperFunction,ViaPad*%
%ADD39C,1.330000*%
%TD*%
%TA.AperFunction,ViaPad*%
%ADD40C,1.250000*%
%TD*%
%TA.AperFunction,Conductor*%
%ADD41C,1.330000*%
%TD*%
%TA.AperFunction,Conductor*%
%ADD42C,2.000000*%
%TD*%
%TA.AperFunction,Conductor*%
%ADD43C,1.850000*%
%TD*%
%TA.AperFunction,Conductor*%
%ADD44C,2.250000*%
%TD*%
G04 APERTURE END LIST*
D10*
%TO.P,J_wpump1,1,Pin_1*%
%TO.N,Net-(J_wpump1-Pad1)*%
X179411500Y-108439000D03*
D11*
%TO.P,J_wpump1,2,Pin_2*%
%TO.N,Net-(J_wpump1-Pad2)*%
X184411500Y-108439000D03*
%TD*%
D12*
%TO.P,J_fan1,1,Pin_1*%
%TO.N,Net-(J_fan1-Pad1)*%
X194183000Y-108458000D03*
D13*
%TO.P,J_fan1,2,Pin_2*%
%TO.N,Net-(J_fan1-Pad2)*%
X199183000Y-108458000D03*
%TD*%
D14*
%TO.P,R2,1*%
%TO.N,Net-(R2-Pad1)*%
X187198000Y-56388000D03*
D15*
%TO.P,R2,2*%
%TO.N,D33*%
X187198000Y-51308000D03*
%TD*%
D16*
%TO.P,H4,1*%
%TO.N,N/C*%
X131114800Y-53390800D03*
%TD*%
%TO.P,H2,1*%
%TO.N,N/C*%
X199745600Y-53390800D03*
%TD*%
D17*
%TO.P,U3,1*%
%TO.N,Net-(R4-Pad2)*%
X170892400Y-52198100D03*
D18*
%TO.P,U3,2*%
%TO.N,GND5V*%
X168352400Y-52198100D03*
D19*
%TO.P,U3,3,NC*%
%TO.N,unconnected-(U3-Pad3)*%
X165812400Y-52198100D03*
D18*
%TO.P,U3,4*%
%TO.N,GND5V*%
X165812400Y-59818100D03*
%TO.P,U3,5*%
%TO.N,Net-(R6-Pad1)*%
X168352400Y-59818100D03*
D19*
%TO.P,U3,6*%
%TO.N,unconnected-(U3-Pad6)*%
X170892400Y-59818100D03*
%TD*%
D20*
%TO.P,U_wpump1,11*%
%TO.N,Net-(J_wpump1-Pad1)*%
X183134000Y-93339000D03*
%TO.P,U_wpump1,14*%
%TO.N,Net-(J_wpump1-Pad2)*%
X183134000Y-98339000D03*
D21*
%TO.P,U_wpump1,A1*%
%TO.N,Net-(R2-Pad1)*%
X183134000Y-77089000D03*
D22*
%TO.P,U_wpump1,A2*%
%TO.N,GND5V*%
X183134000Y-73339000D03*
%TD*%
D23*
%TO.P,U1,1*%
%TO.N,N/C*%
X145400000Y-68975000D03*
D19*
%TO.P,U1,2*%
X145400000Y-71515000D03*
%TO.P,U1,3*%
%TO.N,unconnected-(U1-Pad3)*%
X145400000Y-74055000D03*
%TO.P,U1,4*%
%TO.N,unconnected-(U1-Pad4)*%
X145400000Y-76595000D03*
%TO.P,U1,5*%
%TO.N,unconnected-(U1-Pad5)*%
X145400000Y-79135000D03*
%TO.P,U1,6*%
%TO.N,unconnected-(U1-Pad6)*%
X145400000Y-81675000D03*
D24*
%TO.P,U1,7,VSS*%
%TO.N,GND5V*%
X145400000Y-84215000D03*
D19*
%TO.P,U1,8*%
%TO.N,unconnected-(U1-Pad8)*%
X153020000Y-84215000D03*
%TO.P,U1,9*%
%TO.N,unconnected-(U1-Pad9)*%
X153020000Y-81675000D03*
%TO.P,U1,10*%
%TO.N,unconnected-(U1-Pad10)*%
X153020000Y-79135000D03*
%TO.P,U1,11*%
%TO.N,unconnected-(U1-Pad11)*%
X153020000Y-76595000D03*
D25*
%TO.P,U1,12*%
%TO.N,Net-(R8-Pad1)*%
X153020000Y-74055000D03*
%TO.P,U1,13*%
%TO.N,Net-(R6-Pad1)*%
X153020000Y-71515000D03*
D24*
%TO.P,U1,14,VDD*%
%TO.N,5v*%
X153020000Y-68975000D03*
%TD*%
D10*
%TO.P,OUT2,1,Pin_1*%
%TO.N,Net-(OUT2-Pad1)*%
X131635000Y-108200000D03*
D11*
%TO.P,OUT2,2,Pin_2*%
%TO.N,GND5V*%
X136635000Y-108200000D03*
%TD*%
D26*
%TO.P,R6,1*%
%TO.N,Net-(R6-Pad1)*%
X155490000Y-71600000D03*
D27*
%TO.P,R6,2*%
%TO.N,5v*%
X158030000Y-71600000D03*
%TD*%
D28*
%TO.P,Q2,1,B*%
%TO.N,Net-(Q2-Pad1)*%
X130460000Y-96000000D03*
D29*
%TO.P,Q2,2,C*%
%TO.N,5v*%
X133000000Y-96000000D03*
%TO.P,Q2,3,E*%
%TO.N,Net-(OUT2-Pad1)*%
X135540000Y-96000000D03*
%TD*%
D14*
%TO.P,R1,1*%
%TO.N,Net-(R1-Pad1)*%
X181051200Y-56388000D03*
D15*
%TO.P,R1,2*%
%TO.N,D32*%
X181051200Y-51308000D03*
%TD*%
D16*
%TO.P,H1,1*%
%TO.N,N/C*%
X152527000Y-109347000D03*
%TD*%
D20*
%TO.P,U_fan1,11*%
%TO.N,Net-(J_fan1-Pad1)*%
X197583000Y-93466000D03*
%TO.P,U_fan1,14*%
%TO.N,Net-(J_fan1-Pad2)*%
X197583000Y-98466000D03*
D30*
%TO.P,U_fan1,A1*%
%TO.N,Net-(R9-Pad1)*%
X197583000Y-77216000D03*
D31*
%TO.P,U_fan1,A2*%
%TO.N,GND5V*%
X197583000Y-73466000D03*
%TD*%
D16*
%TO.P,H3,1*%
%TO.N,N/C*%
X131064000Y-77774800D03*
%TD*%
D14*
%TO.P,R9,1*%
%TO.N,Net-(R9-Pad1)*%
X193090800Y-56489600D03*
D15*
%TO.P,R9,2*%
%TO.N,D34*%
X193090800Y-51409600D03*
%TD*%
D32*
%TO.P,J1,1,Pin_1*%
%TO.N,D25*%
X175746400Y-43500100D03*
D33*
%TO.P,J1,2,Pin_2*%
%TO.N,D32*%
X178246400Y-43500100D03*
%TO.P,J1,3,Pin_3*%
%TO.N,D33*%
X180746400Y-43500100D03*
%TO.P,J1,4,Pin_4*%
%TO.N,D34*%
X183246400Y-43500100D03*
%TO.P,J1,5,Pin_5*%
%TO.N,GND5V*%
X185746400Y-43500100D03*
%TD*%
D12*
%TO.P,5V1,1,Pin_1*%
%TO.N,5v*%
X147878800Y-47091600D03*
D13*
%TO.P,5V1,2,Pin_2*%
%TO.N,GND5V*%
X142878800Y-47091600D03*
%TD*%
D10*
%TO.P,J_oxygen1,1,Pin_1*%
%TO.N,Net-(J_oxygen1-Pad1)*%
X164545000Y-108458000D03*
D11*
%TO.P,J_oxygen1,2,Pin_2*%
%TO.N,Net-(J_oxygen1-Pad2)*%
X169545000Y-108458000D03*
%TD*%
D34*
%TO.P,R8,1*%
%TO.N,Net-(R8-Pad1)*%
X130400000Y-89035000D03*
D35*
%TO.P,R8,2*%
%TO.N,Net-(Q2-Pad1)*%
X130400000Y-91575000D03*
%TD*%
D20*
%TO.P,U_oxygen1,11*%
%TO.N,Net-(J_oxygen1-Pad1)*%
X167667500Y-93758000D03*
%TO.P,U_oxygen1,14*%
%TO.N,Net-(J_oxygen1-Pad2)*%
X167667500Y-98758000D03*
D21*
%TO.P,U_oxygen1,A1*%
%TO.N,Net-(R1-Pad1)*%
X167667500Y-77508000D03*
D22*
%TO.P,U_oxygen1,A2*%
%TO.N,GND5V*%
X167667500Y-73758000D03*
%TD*%
D36*
%TO.P,R4,1*%
%TO.N,D25*%
X170967400Y-46598100D03*
D37*
%TO.P,R4,2*%
%TO.N,Net-(R4-Pad2)*%
X170967400Y-49138100D03*
%TD*%
D38*
%TO.N,5v*%
X142036800Y-90830400D03*
D39*
X153060400Y-66802000D03*
X148285200Y-54914800D03*
%TO.N,Net-(R1-Pad1)*%
X181051200Y-61112400D03*
D40*
X162966400Y-76098400D03*
D39*
%TO.N,Net-(R2-Pad1)*%
X186283600Y-77063600D03*
X187147200Y-61061600D03*
%TO.N,Net-(R9-Pad1)*%
X192938400Y-61366400D03*
X192481200Y-77165200D03*
%TD*%
D41*
%TO.N,GND5V*%
X168352400Y-42986100D02*
X167784300Y-42418000D01*
X142878800Y-45792400D02*
X142878800Y-47091600D01*
X167784300Y-42418000D02*
X146253200Y-42418000D01*
X146253200Y-42418000D02*
X142878800Y-45792400D01*
%TO.N,5v*%
X147878800Y-47091600D02*
X147878800Y-54508400D01*
X147878800Y-54508400D02*
X148285200Y-54914800D01*
D42*
%TO.N,GND5V*%
X145400000Y-84215000D02*
X143041400Y-84215000D01*
X143041400Y-84215000D02*
X138125200Y-79298800D01*
X138125200Y-79298800D02*
X138125200Y-51845200D01*
X138125200Y-51845200D02*
X142878800Y-47091600D01*
X178876000Y-73339000D02*
X178876000Y-73981000D01*
X183261000Y-73466000D02*
X183134000Y-73339000D01*
X178876000Y-73339000D02*
X168086500Y-73339000D01*
D41*
X184175400Y-40752100D02*
X170586400Y-40752100D01*
D42*
X168086500Y-73339000D02*
X167667500Y-73758000D01*
X145400000Y-86218000D02*
X148463000Y-89281000D01*
X197583000Y-73466000D02*
X183261000Y-73466000D01*
D41*
X168352400Y-42986100D02*
X168352400Y-52198100D01*
D42*
X183134000Y-73339000D02*
X178876000Y-73339000D01*
D41*
X185746400Y-42323100D02*
X184175400Y-40752100D01*
D42*
X163576000Y-89281000D02*
X156972000Y-89281000D01*
D41*
X170586400Y-40752100D02*
X168352400Y-42986100D01*
X165812400Y-57606000D02*
X168352400Y-55066000D01*
D42*
X145400000Y-84215000D02*
X145400000Y-86218000D01*
X136635000Y-108200000D02*
X138053000Y-108200000D01*
D43*
X167467500Y-73558000D02*
X167667500Y-73758000D01*
D42*
X178876000Y-73981000D02*
X163576000Y-89281000D01*
X138053000Y-108200000D02*
X156972000Y-89281000D01*
X156972000Y-89281000D02*
X148463000Y-89281000D01*
D41*
X165812400Y-59818100D02*
X165812400Y-57606000D01*
X185746400Y-43500100D02*
X185746400Y-42323100D01*
X168352400Y-55066000D02*
X168352400Y-52198100D01*
%TO.N,D25*%
X172648400Y-46598100D02*
X175746400Y-43500100D01*
X170967400Y-46598100D02*
X172648400Y-46598100D01*
%TO.N,D32*%
X181077400Y-49211100D02*
X178246400Y-46380100D01*
X181077400Y-51281800D02*
X181051200Y-51308000D01*
X181077400Y-49211100D02*
X181077400Y-51281800D01*
X178246400Y-46380100D02*
X178246400Y-43500100D01*
%TO.N,D33*%
X187198000Y-51308000D02*
X186247700Y-51308000D01*
X180746400Y-45806700D02*
X180746400Y-43500100D01*
X186247700Y-51308000D02*
X180746400Y-45806700D01*
D44*
%TO.N,Net-(J_oxygen1-Pad1)*%
X167667500Y-93758000D02*
X163425000Y-93758000D01*
X164103000Y-108458000D02*
X164545000Y-108458000D01*
X162256000Y-94927000D02*
X162256000Y-106611000D01*
X163425000Y-93758000D02*
X162256000Y-94927000D01*
X162256000Y-106611000D02*
X164103000Y-108458000D01*
%TO.N,Net-(J_oxygen1-Pad2)*%
X167667500Y-98758000D02*
X168373000Y-98758000D01*
X169545000Y-99930000D02*
X169545000Y-108458000D01*
X168373000Y-98758000D02*
X169545000Y-99930000D01*
%TO.N,Net-(J_wpump1-Pad1)*%
X177790500Y-106818000D02*
X179411500Y-108439000D01*
X180302500Y-93339000D02*
X177790500Y-95851000D01*
X183134000Y-93339000D02*
X180302500Y-93339000D01*
X177790500Y-95851000D02*
X177790500Y-106818000D01*
%TO.N,Net-(J_wpump1-Pad2)*%
X184411500Y-108439000D02*
X184411500Y-99616500D01*
X184411500Y-99616500D02*
X183134000Y-98339000D01*
D42*
%TO.N,Net-(OUT2-Pad1)*%
X131635000Y-108200000D02*
X131635000Y-104204000D01*
X131635000Y-104204000D02*
X135540000Y-100299000D01*
X135540000Y-100299000D02*
X135540000Y-96000000D01*
D41*
%TO.N,Net-(Q2-Pad1)*%
X130400000Y-95940000D02*
X130460000Y-96000000D01*
X130400000Y-91575000D02*
X130400000Y-95940000D01*
%TO.N,5v*%
X158030000Y-68805000D02*
X157860000Y-68975000D01*
X142036800Y-90830400D02*
X135636000Y-90830400D01*
X153060400Y-68934600D02*
X153020000Y-68975000D01*
X158030000Y-68805000D02*
X158030000Y-71600000D01*
X133000000Y-93466400D02*
X133000000Y-96000000D01*
X135636000Y-90830400D02*
X133000000Y-93466400D01*
X153060400Y-66802000D02*
X153060400Y-68934600D01*
X157860000Y-68975000D02*
X153020000Y-68975000D01*
%TO.N,Net-(R1-Pad1)*%
X162966400Y-76098400D02*
X164376000Y-77508000D01*
X164376000Y-77508000D02*
X167667500Y-77508000D01*
X181051200Y-61112400D02*
X181051200Y-56388000D01*
%TO.N,Net-(R2-Pad1)*%
X187147200Y-56438800D02*
X187198000Y-56388000D01*
X183134000Y-77089000D02*
X186258200Y-77089000D01*
X186258200Y-77089000D02*
X186283600Y-77063600D01*
X187147200Y-61061600D02*
X187147200Y-56438800D01*
%TO.N,Net-(R4-Pad2)*%
X170967400Y-49138100D02*
X170967400Y-52123100D01*
X170967400Y-52123100D02*
X170892400Y-52198100D01*
%TO.N,Net-(R6-Pad1)*%
X167995600Y-62738000D02*
X168656000Y-62077600D01*
X155490000Y-71600000D02*
X153105000Y-71600000D01*
X153020000Y-71515000D02*
X150305800Y-71515000D01*
X149352000Y-70561200D02*
X149352000Y-66954400D01*
X153568400Y-62738000D02*
X167995600Y-62738000D01*
X168656000Y-62077600D02*
X168656000Y-60121700D01*
X168656000Y-60121700D02*
X168352400Y-59818100D01*
X150305800Y-71515000D02*
X149352000Y-70561200D01*
X153105000Y-71600000D02*
X153020000Y-71515000D01*
X149352000Y-66954400D02*
X153568400Y-62738000D01*
%TO.N,D34*%
X183246400Y-45157100D02*
X183246400Y-43500100D01*
X185216800Y-47127500D02*
X183246400Y-45157100D01*
X188808700Y-47127500D02*
X185216800Y-47127500D01*
X193090800Y-51409600D02*
X188808700Y-47127500D01*
%TO.N,Net-(R9-Pad1)*%
X193090800Y-61214000D02*
X192938400Y-61366400D01*
X192532000Y-77216000D02*
X192481200Y-77165200D01*
X193090800Y-56489600D02*
X193090800Y-61214000D01*
X197583000Y-77216000D02*
X192532000Y-77216000D01*
D44*
%TO.N,Net-(J_fan1-Pad1)*%
X194183000Y-95025000D02*
X194183000Y-108458000D01*
X195430000Y-93466000D02*
X194027000Y-94869000D01*
D42*
X194027000Y-94869000D02*
X194183000Y-95025000D01*
D44*
X197583000Y-93466000D02*
X195430000Y-93466000D01*
%TO.N,Net-(J_fan1-Pad2)*%
X199183000Y-100066000D02*
X197583000Y-98466000D01*
X199183000Y-108458000D02*
X199183000Y-100066000D01*
%TD*%
M02*
