%TF.GenerationSoftware,KiCad,Pcbnew,6.0.11+dfsg-1*%
%TF.CreationDate,2023-05-04T08:29:04-05:00*%
%TF.ProjectId,lights_control,6c696768-7473-45f6-936f-6e74726f6c2e,rev?*%
%TF.SameCoordinates,Original*%
%TF.FileFunction,Soldermask,Bot*%
%TF.FilePolarity,Negative*%
%FSLAX46Y46*%
G04 Gerber Fmt 4.6, Leading zero omitted, Abs format (unit mm)*
G04 Created by KiCad (PCBNEW 6.0.11+dfsg-1) date 2023-05-04 08:29:04*
%MOMM*%
%LPD*%
G01*
G04 APERTURE LIST*
%ADD10C,4.400000*%
%ADD11R,3.000000X3.500000*%
%ADD12O,3.500000X4.000000*%
%ADD13R,2.125000X3.000000*%
%ADD14O,2.125000X3.000000*%
%ADD15O,2.500000X2.125000*%
%ADD16R,3.000000X2.125000*%
%ADD17O,3.000000X2.125000*%
%ADD18O,2.125000X2.500000*%
%ADD19R,2.125000X2.800000*%
%ADD20O,2.125000X2.800000*%
%ADD21C,2.125000*%
%ADD22O,2.125000X2.125000*%
%ADD23R,3.000000X5.000000*%
%ADD24O,3.000000X5.000000*%
G04 APERTURE END LIST*
D10*
%TO.C,H3*%
X131200000Y-55800000D03*
%TD*%
D11*
%TO.C,12V1*%
X108542500Y-113992500D03*
D12*
X113542500Y-113992500D03*
%TD*%
D10*
%TO.C,H7*%
X64220000Y-59100000D03*
%TD*%
D13*
%TO.C,Q1*%
X114004250Y-101300000D03*
D14*
X116544250Y-101300000D03*
X119084250Y-101300000D03*
%TD*%
D10*
%TO.C,H5*%
X64020000Y-116200000D03*
%TD*%
D15*
%TO.C,R1*%
X112800000Y-57936250D03*
X112800000Y-60476250D03*
%TD*%
D16*
%TO.C,U2*%
X101700000Y-74475000D03*
D17*
X101700000Y-77015000D03*
X101700000Y-79555000D03*
X101700000Y-82095000D03*
X101700000Y-84635000D03*
X101700000Y-87175000D03*
X101700000Y-89715000D03*
X109320000Y-89715000D03*
X109320000Y-87175000D03*
X109320000Y-84635000D03*
X109320000Y-82095000D03*
X109320000Y-79555000D03*
X109320000Y-77015000D03*
X109320000Y-74475000D03*
%TD*%
D10*
%TO.C,H1*%
X131200000Y-118000000D03*
%TD*%
%TO.C,H2*%
X100600000Y-118000000D03*
%TD*%
D18*
%TO.C,R3*%
X106836250Y-101300000D03*
X109376250Y-101300000D03*
%TD*%
D10*
%TO.C,H4*%
X91300000Y-116200000D03*
%TD*%
D19*
%TO.C,U1*%
X106825000Y-57900000D03*
D20*
X104285000Y-57900000D03*
X101745000Y-57900000D03*
X101745000Y-65520000D03*
X104285000Y-65520000D03*
X106825000Y-65520000D03*
%TD*%
D21*
%TO.C,R2*%
X104280000Y-68800000D03*
D22*
X106820000Y-68800000D03*
%TD*%
D11*
%TO.C,OUT1*%
X124657500Y-114407500D03*
D12*
X119657500Y-114407500D03*
%TD*%
D23*
%TO.C,12V2*%
X124300000Y-60500000D03*
D24*
X119300000Y-60500000D03*
%TD*%
D10*
%TO.C,H6*%
X91500000Y-59100000D03*
%TD*%
M02*
