M48
; DRILL file {KiCad 6.0.11+dfsg-1} date Mon 08 May 2023 11:30:51 AM -05
; FORMAT={-:-/ absolute / inch / decimal}
; #@! TF.CreationDate,2023-05-08T11:30:51-05:00
; #@! TF.GenerationSoftware,Kicad,Pcbnew,6.0.11+dfsg-1
; #@! TF.FileFunction,Plated,1,2,PTH
FMAT,2
INCH
; #@! TA.AperFunction,Plated,PTH,ComponentDrill
T1C0.0276
; #@! TA.AperFunction,Plated,PTH,ComponentDrill
T2C0.0315
; #@! TA.AperFunction,Plated,PTH,ComponentDrill
T3C0.0433
; #@! TA.AperFunction,Plated,PTH,ComponentDrill
T4C0.0591
; #@! TA.AperFunction,Plated,PTH,ComponentDrill
T5C0.0866
%
G90
G05
T1
X3.1372Y-2.281
X3.1372Y-2.381
X3.272Y-3.9882
X3.372Y-3.9882
X3.3727Y-2.7087
X3.4727Y-2.7087
T2
X3.2742Y-2.9321
X3.2742Y-3.0321
X3.2742Y-3.1321
X3.2742Y-3.2321
X3.2742Y-3.3321
X3.2742Y-3.4321
X3.2742Y-3.5321
X3.3725Y-2.2795
X3.3725Y-2.5795
X3.4725Y-2.2795
X3.4725Y-2.5795
X3.5725Y-2.2795
X3.5725Y-2.5795
X3.5742Y-2.9321
X3.5742Y-3.0321
X3.5742Y-3.1321
X3.5742Y-3.2321
X3.5742Y-3.3321
X3.5742Y-3.4321
X3.5742Y-3.5321
T3
X2.8898Y-3.9882
X2.9898Y-3.9882
X3.0898Y-3.9882
T4
X2.6704Y-4.5042
X2.6845Y-2.3819
X2.8673Y-4.5042
X2.8813Y-2.3819
X3.108Y-4.4879
X3.3049Y-4.4879
T5
X2.4128Y-2.1969
X2.4128Y-4.6457
X3.6176Y-4.6457
X3.9758Y-2.3268
X3.9837Y-4.5748
X5.0498Y-2.3268
X5.0577Y-4.5748
T0
M30
