M48
; DRILL file {KiCad 6.0.11+dfsg-1} date Thu 04 May 2023 08:28:59 AM -05
; FORMAT={-:-/ absolute / inch / decimal}
; #@! TF.CreationDate,2023-05-04T08:28:59-05:00
; #@! TF.GenerationSoftware,Kicad,Pcbnew,6.0.11+dfsg-1
; #@! TF.FileFunction,Plated,1,2,PTH
FMAT,2
INCH
; #@! TA.AperFunction,Plated,PTH,ComponentDrill
T1C0.0276
; #@! TA.AperFunction,Plated,PTH,ComponentDrill
T2C0.0315
; #@! TA.AperFunction,Plated,PTH,ComponentDrill
T3C0.0433
; #@! TA.AperFunction,Plated,PTH,ComponentDrill
T4C0.0591
; #@! TA.AperFunction,Plated,PTH,ComponentDrill
T5C0.0866
%
G90
G05
T1
X4.1055Y-2.7087
X4.2055Y-2.7087
X4.2062Y-3.9882
X4.3062Y-3.9882
X4.4409Y-2.281
X4.4409Y-2.381
T2
X4.0039Y-2.9321
X4.0039Y-3.0321
X4.0039Y-3.1321
X4.0039Y-3.2321
X4.0039Y-3.3321
X4.0039Y-3.4321
X4.0039Y-3.5321
X4.0057Y-2.2795
X4.0057Y-2.5795
X4.1057Y-2.2795
X4.1057Y-2.5795
X4.2057Y-2.2795
X4.2057Y-2.5795
X4.3039Y-2.9321
X4.3039Y-3.0321
X4.3039Y-3.1321
X4.3039Y-3.2321
X4.3039Y-3.3321
X4.3039Y-3.4321
X4.3039Y-3.5321
T3
X4.4884Y-3.9882
X4.5884Y-3.9882
X4.6884Y-3.9882
T4
X4.2733Y-4.4879
X4.4702Y-4.4879
X4.6969Y-2.3819
X4.7109Y-4.5042
X4.8937Y-2.3819
X4.9078Y-4.5042
T5
X2.5205Y-4.5748
X2.5283Y-2.3268
X3.5945Y-4.5748
X3.6024Y-2.3268
X3.9606Y-4.6457
X5.1654Y-2.1969
X5.1654Y-4.6457
T0
M30
