%TF.GenerationSoftware,KiCad,Pcbnew,6.0.7+dfsg-1+b1*%
%TF.CreationDate,2022-09-28T14:19:47-05:00*%
%TF.ProjectId,esp32,65737033-322e-46b6-9963-61645f706362,rev?*%
%TF.SameCoordinates,Original*%
%TF.FileFunction,Copper,L2,Bot*%
%TF.FilePolarity,Positive*%
%FSLAX46Y46*%
G04 Gerber Fmt 4.6, Leading zero omitted, Abs format (unit mm)*
G04 Created by KiCad (PCBNEW 6.0.7+dfsg-1+b1) date 2022-09-28 14:19:47*
%MOMM*%
%LPD*%
G01*
G04 APERTURE LIST*
G04 Aperture macros list*
%AMRoundRect*
0 Rectangle with rounded corners*
0 $1 Rounding radius*
0 $2 $3 $4 $5 $6 $7 $8 $9 X,Y pos of 4 corners*
0 Add a 4 corners polygon primitive as box body*
4,1,4,$2,$3,$4,$5,$6,$7,$8,$9,$2,$3,0*
0 Add four circle primitives for the rounded corners*
1,1,$1+$1,$2,$3*
1,1,$1+$1,$4,$5*
1,1,$1+$1,$6,$7*
1,1,$1+$1,$8,$9*
0 Add four rect primitives between the rounded corners*
20,1,$1+$1,$2,$3,$4,$5,0*
20,1,$1+$1,$4,$5,$6,$7,0*
20,1,$1+$1,$6,$7,$8,$9,0*
20,1,$1+$1,$8,$9,$2,$3,0*%
G04 Aperture macros list end*
%TA.AperFunction,ComponentPad*%
%ADD10R,2.500000X2.500000*%
%TD*%
%TA.AperFunction,ComponentPad*%
%ADD11C,2.500000*%
%TD*%
%TA.AperFunction,ComponentPad*%
%ADD12RoundRect,0.250000X-0.620000X0.620000X-0.620000X-0.620000X0.620000X-0.620000X0.620000X0.620000X0*%
%TD*%
%TA.AperFunction,ComponentPad*%
%ADD13C,1.740000*%
%TD*%
%TA.AperFunction,ComponentPad*%
%ADD14RoundRect,0.250000X0.620000X-0.620000X0.620000X0.620000X-0.620000X0.620000X-0.620000X-0.620000X0*%
%TD*%
G04 APERTURE END LIST*
D10*
%TO.P,J3,1,Pin_1*%
%TO.N,GND*%
X118500000Y-149100000D03*
D11*
%TO.P,J3,2,Pin_2*%
%TO.N,VIN*%
X113500000Y-149100000D03*
%TD*%
D12*
%TO.P,J5,1,Pin_1*%
%TO.N,EN*%
X92650000Y-102920000D03*
D13*
%TO.P,J5,2,Pin_2*%
%TO.N,VP*%
X92650000Y-105460000D03*
%TO.P,J5,3,Pin_3*%
%TO.N,VN*%
X92650000Y-108000000D03*
%TO.P,J5,4,Pin_4*%
%TO.N,D34*%
X92650000Y-110540000D03*
%TO.P,J5,5,Pin_5*%
%TO.N,D35*%
X92650000Y-113080000D03*
%TO.P,J5,6,Pin_6*%
%TO.N,D32*%
X92650000Y-115620000D03*
%TO.P,J5,7,Pin_7*%
%TO.N,D33*%
X92650000Y-118160000D03*
%TO.P,J5,8,Pin_8*%
%TO.N,D25*%
X92650000Y-120700000D03*
%TO.P,J5,9,Pin_9*%
%TO.N,D26*%
X92650000Y-123240000D03*
%TO.P,J5,10,Pin_10*%
%TO.N,D27*%
X92650000Y-125780000D03*
%TO.P,J5,11,Pin_11*%
%TO.N,D14*%
X92650000Y-128320000D03*
%TO.P,J5,12,Pin_12*%
%TO.N,D12*%
X92650000Y-130860000D03*
%TO.P,J5,13,Pin_13*%
%TO.N,D13*%
X92650000Y-133400000D03*
%TO.P,J5,14,Pin_14*%
%TO.N,GND*%
X92650000Y-135940000D03*
%TO.P,J5,15,Pin_15*%
%TO.N,VIN*%
X92650000Y-138480000D03*
%TD*%
D12*
%TO.P,J1,1,Pin_1*%
%TO.N,EN*%
X97950000Y-102920000D03*
D13*
%TO.P,J1,2,Pin_2*%
%TO.N,VP*%
X97950000Y-105460000D03*
%TO.P,J1,3,Pin_3*%
%TO.N,VN*%
X97950000Y-108000000D03*
%TO.P,J1,4,Pin_4*%
%TO.N,D34*%
X97950000Y-110540000D03*
%TO.P,J1,5,Pin_5*%
%TO.N,D35*%
X97950000Y-113080000D03*
%TO.P,J1,6,Pin_6*%
%TO.N,D32*%
X97950000Y-115620000D03*
%TO.P,J1,7,Pin_7*%
%TO.N,D33*%
X97950000Y-118160000D03*
%TO.P,J1,8,Pin_8*%
%TO.N,D25*%
X97950000Y-120700000D03*
%TO.P,J1,9,Pin_9*%
%TO.N,D26*%
X97950000Y-123240000D03*
%TO.P,J1,10,Pin_10*%
%TO.N,D27*%
X97950000Y-125780000D03*
%TO.P,J1,11,Pin_11*%
%TO.N,D14*%
X97950000Y-128320000D03*
%TO.P,J1,12,Pin_12*%
%TO.N,D12*%
X97950000Y-130860000D03*
%TO.P,J1,13,Pin_13*%
%TO.N,D13*%
X97950000Y-133400000D03*
%TO.P,J1,14,Pin_14*%
%TO.N,GND*%
X97950000Y-135940000D03*
%TO.P,J1,15,Pin_15*%
%TO.N,VIN*%
X97950000Y-138480000D03*
%TD*%
D14*
%TO.P,J8der1,1,Pin_1*%
%TO.N,3V3*%
X146000000Y-138500000D03*
D13*
%TO.P,J8der1,2,Pin_2*%
%TO.N,GND2*%
X146000000Y-135960000D03*
%TO.P,J8der1,3,Pin_3*%
%TO.N,D15*%
X146000000Y-133420000D03*
%TO.P,J8der1,4,Pin_4*%
%TO.N,D2*%
X146000000Y-130880000D03*
%TO.P,J8der1,5,Pin_5*%
%TO.N,D4*%
X146000000Y-128340000D03*
%TO.P,J8der1,6,Pin_6*%
%TO.N,RX2*%
X146000000Y-125800000D03*
%TO.P,J8der1,7,Pin_7*%
%TO.N,TX2*%
X146000000Y-123260000D03*
%TO.P,J8der1,8,Pin_8*%
%TO.N,D5*%
X146000000Y-120720000D03*
%TO.P,J8der1,9,Pin_9*%
%TO.N,D18*%
X146000000Y-118180000D03*
%TO.P,J8der1,10,Pin_10*%
%TO.N,D19*%
X146000000Y-115640000D03*
%TO.P,J8der1,11,Pin_11*%
%TO.N,D21*%
X146000000Y-113100000D03*
%TO.P,J8der1,12,Pin_12*%
%TO.N,RX0*%
X146000000Y-110560000D03*
%TO.P,J8der1,13,Pin_13*%
%TO.N,TX0*%
X146000000Y-108020000D03*
%TO.P,J8der1,14,Pin_14*%
%TO.N,D22*%
X146000000Y-105480000D03*
%TO.P,J8der1,15,Pin_15*%
%TO.N,D23*%
X146000000Y-102940000D03*
%TD*%
D14*
%TO.P,J6der1,1,Pin_1*%
%TO.N,3V3*%
X129350000Y-138380000D03*
D13*
%TO.P,J6der1,2,Pin_2*%
%TO.N,GND2*%
X129350000Y-135840000D03*
%TO.P,J6der1,3,Pin_3*%
%TO.N,D15*%
X129350000Y-133300000D03*
%TO.P,J6der1,4,Pin_4*%
%TO.N,D2*%
X129350000Y-130760000D03*
%TO.P,J6der1,5,Pin_5*%
%TO.N,D4*%
X129350000Y-128220000D03*
%TO.P,J6der1,6,Pin_6*%
%TO.N,RX2*%
X129350000Y-125680000D03*
%TO.P,J6der1,7,Pin_7*%
%TO.N,TX2*%
X129350000Y-123140000D03*
%TO.P,J6der1,8,Pin_8*%
%TO.N,D5*%
X129350000Y-120600000D03*
%TO.P,J6der1,9,Pin_9*%
%TO.N,D18*%
X129350000Y-118060000D03*
%TO.P,J6der1,10,Pin_10*%
%TO.N,D19*%
X129350000Y-115520000D03*
%TO.P,J6der1,11,Pin_11*%
%TO.N,D21*%
X129350000Y-112980000D03*
%TO.P,J6der1,12,Pin_12*%
%TO.N,RX0*%
X129350000Y-110440000D03*
%TO.P,J6der1,13,Pin_13*%
%TO.N,TX0*%
X129350000Y-107900000D03*
%TO.P,J6der1,14,Pin_14*%
%TO.N,D22*%
X129350000Y-105360000D03*
%TO.P,J6der1,15,Pin_15*%
%TO.N,D23*%
X129350000Y-102820000D03*
%TD*%
D14*
%TO.P,J7der1,1,Pin_1*%
%TO.N,3V3*%
X140800000Y-138400000D03*
D13*
%TO.P,J7der1,2,Pin_2*%
%TO.N,GND2*%
X140800000Y-135860000D03*
%TO.P,J7der1,3,Pin_3*%
%TO.N,D15*%
X140800000Y-133320000D03*
%TO.P,J7der1,4,Pin_4*%
%TO.N,D2*%
X140800000Y-130780000D03*
%TO.P,J7der1,5,Pin_5*%
%TO.N,D4*%
X140800000Y-128240000D03*
%TO.P,J7der1,6,Pin_6*%
%TO.N,RX2*%
X140800000Y-125700000D03*
%TO.P,J7der1,7,Pin_7*%
%TO.N,TX2*%
X140800000Y-123160000D03*
%TO.P,J7der1,8,Pin_8*%
%TO.N,D5*%
X140800000Y-120620000D03*
%TO.P,J7der1,9,Pin_9*%
%TO.N,D18*%
X140800000Y-118080000D03*
%TO.P,J7der1,10,Pin_10*%
%TO.N,D19*%
X140800000Y-115540000D03*
%TO.P,J7der1,11,Pin_11*%
%TO.N,D21*%
X140800000Y-113000000D03*
%TO.P,J7der1,12,Pin_12*%
%TO.N,RX0*%
X140800000Y-110460000D03*
%TO.P,J7der1,13,Pin_13*%
%TO.N,TX0*%
X140800000Y-107920000D03*
%TO.P,J7der1,14,Pin_14*%
%TO.N,D22*%
X140800000Y-105380000D03*
%TO.P,J7der1,15,Pin_15*%
%TO.N,D23*%
X140800000Y-102840000D03*
%TD*%
%TO.P,J3,15,Pin_15*%
%TO.N,VIN*%
X87250000Y-138480000D03*
%TO.P,J3,14,Pin_14*%
%TO.N,GND*%
X87250000Y-135940000D03*
%TO.P,J3,13,Pin_13*%
%TO.N,D13*%
X87250000Y-133400000D03*
%TO.P,J3,12,Pin_12*%
%TO.N,D12*%
X87250000Y-130860000D03*
%TO.P,J3,11,Pin_11*%
%TO.N,D14*%
X87250000Y-128320000D03*
%TO.P,J3,10,Pin_10*%
%TO.N,D27*%
X87250000Y-125780000D03*
%TO.P,J3,9,Pin_9*%
%TO.N,D26*%
X87250000Y-123240000D03*
%TO.P,J3,8,Pin_8*%
%TO.N,D25*%
X87250000Y-120700000D03*
%TO.P,J3,7,Pin_7*%
%TO.N,D33*%
X87250000Y-118160000D03*
%TO.P,J3,6,Pin_6*%
%TO.N,D32*%
X87250000Y-115620000D03*
%TO.P,J3,5,Pin_5*%
%TO.N,D35*%
X87250000Y-113080000D03*
%TO.P,J3,4,Pin_4*%
%TO.N,D34*%
X87250000Y-110540000D03*
%TO.P,J3,3,Pin_3*%
%TO.N,VN*%
X87250000Y-108000000D03*
%TO.P,J3,2,Pin_2*%
%TO.N,VP*%
X87250000Y-105460000D03*
D12*
%TO.P,J3,1,Pin_1*%
%TO.N,EN*%
X87250000Y-102920000D03*
%TD*%
%TO.P,J4,1,Pin_1*%
%TO.N,EN*%
X104250000Y-102820000D03*
D13*
%TO.P,J4,2,Pin_2*%
%TO.N,VP*%
X104250000Y-105360000D03*
%TO.P,J4,3,Pin_3*%
%TO.N,VN*%
X104250000Y-107900000D03*
%TO.P,J4,4,Pin_4*%
%TO.N,D34*%
X104250000Y-110440000D03*
%TO.P,J4,5,Pin_5*%
%TO.N,D35*%
X104250000Y-112980000D03*
%TO.P,J4,6,Pin_6*%
%TO.N,D32*%
X104250000Y-115520000D03*
%TO.P,J4,7,Pin_7*%
%TO.N,D33*%
X104250000Y-118060000D03*
%TO.P,J4,8,Pin_8*%
%TO.N,D25*%
X104250000Y-120600000D03*
%TO.P,J4,9,Pin_9*%
%TO.N,D26*%
X104250000Y-123140000D03*
%TO.P,J4,10,Pin_10*%
%TO.N,D27*%
X104250000Y-125680000D03*
%TO.P,J4,11,Pin_11*%
%TO.N,D14*%
X104250000Y-128220000D03*
%TO.P,J4,12,Pin_12*%
%TO.N,D12*%
X104250000Y-130760000D03*
%TO.P,J4,13,Pin_13*%
%TO.N,D13*%
X104250000Y-133300000D03*
%TO.P,J4,14,Pin_14*%
%TO.N,GND*%
X104250000Y-135840000D03*
%TO.P,J4,15,Pin_15*%
%TO.N,VIN*%
X104250000Y-138380000D03*
%TD*%
D14*
%TO.P,J10der1,1,Pin_1*%
%TO.N,3V3*%
X135100000Y-138400000D03*
D13*
%TO.P,J10der1,2,Pin_2*%
%TO.N,GND2*%
X135100000Y-135860000D03*
%TO.P,J10der1,3,Pin_3*%
%TO.N,D15*%
X135100000Y-133320000D03*
%TO.P,J10der1,4,Pin_4*%
%TO.N,D2*%
X135100000Y-130780000D03*
%TO.P,J10der1,5,Pin_5*%
%TO.N,D4*%
X135100000Y-128240000D03*
%TO.P,J10der1,6,Pin_6*%
%TO.N,RX2*%
X135100000Y-125700000D03*
%TO.P,J10der1,7,Pin_7*%
%TO.N,TX2*%
X135100000Y-123160000D03*
%TO.P,J10der1,8,Pin_8*%
%TO.N,D5*%
X135100000Y-120620000D03*
%TO.P,J10der1,9,Pin_9*%
%TO.N,D18*%
X135100000Y-118080000D03*
%TO.P,J10der1,10,Pin_10*%
%TO.N,D19*%
X135100000Y-115540000D03*
%TO.P,J10der1,11,Pin_11*%
%TO.N,D21*%
X135100000Y-113000000D03*
%TO.P,J10der1,12,Pin_12*%
%TO.N,RX0*%
X135100000Y-110460000D03*
%TO.P,J10der1,13,Pin_13*%
%TO.N,TX0*%
X135100000Y-107920000D03*
%TO.P,J10der1,14,Pin_14*%
%TO.N,D22*%
X135100000Y-105380000D03*
%TO.P,J10der1,15,Pin_15*%
%TO.N,D23*%
X135100000Y-102840000D03*
%TD*%
M02*
