M48
; DRILL file {KiCad 6.0.7+dfsg-1+b1} date Wed 28 Sep 2022 02:19:40 PM -05
; FORMAT={-:-/ absolute / inch / decimal}
; #@! TF.CreationDate,2022-09-28T14:19:40-05:00
; #@! TF.GenerationSoftware,Kicad,Pcbnew,6.0.7+dfsg-1+b1
; #@! TF.FileFunction,Plated,1,2,PTH
FMAT,2
INCH
; #@! TA.AperFunction,Plated,PTH,ComponentDrill
T1C0.0429
; #@! TA.AperFunction,Plated,PTH,ComponentDrill
T2C0.0512
%
G90
G05
T1
X3.435Y-4.052
X3.435Y-4.152
X3.435Y-4.252
X3.435Y-4.352
X3.435Y-4.452
X3.435Y-4.552
X3.435Y-4.652
X3.435Y-4.752
X3.435Y-4.852
X3.435Y-4.952
X3.435Y-5.052
X3.435Y-5.152
X3.435Y-5.252
X3.435Y-5.352
X3.435Y-5.452
X3.6476Y-4.052
X3.6476Y-4.152
X3.6476Y-4.252
X3.6476Y-4.352
X3.6476Y-4.452
X3.6476Y-4.552
X3.6476Y-4.652
X3.6476Y-4.752
X3.6476Y-4.852
X3.6476Y-4.952
X3.6476Y-5.052
X3.6476Y-5.152
X3.6476Y-5.252
X3.6476Y-5.352
X3.6476Y-5.452
X3.8563Y-4.052
X3.8563Y-4.152
X3.8563Y-4.252
X3.8563Y-4.352
X3.8563Y-4.452
X3.8563Y-4.552
X3.8563Y-4.652
X3.8563Y-4.752
X3.8563Y-4.852
X3.8563Y-4.952
X3.8563Y-5.052
X3.8563Y-5.152
X3.8563Y-5.252
X3.8563Y-5.352
X3.8563Y-5.452
X4.1043Y-4.048
X4.1043Y-4.148
X4.1043Y-4.248
X4.1043Y-4.348
X4.1043Y-4.448
X4.1043Y-4.548
X4.1043Y-4.648
X4.1043Y-4.748
X4.1043Y-4.848
X4.1043Y-4.948
X4.1043Y-5.048
X4.1043Y-5.148
X4.1043Y-5.248
X4.1043Y-5.348
X4.1043Y-5.448
X5.0925Y-4.048
X5.0925Y-4.148
X5.0925Y-4.248
X5.0925Y-4.348
X5.0925Y-4.448
X5.0925Y-4.548
X5.0925Y-4.648
X5.0925Y-4.748
X5.0925Y-4.848
X5.0925Y-4.948
X5.0925Y-5.048
X5.0925Y-5.148
X5.0925Y-5.248
X5.0925Y-5.348
X5.0925Y-5.448
X5.3189Y-4.0488
X5.3189Y-4.1488
X5.3189Y-4.2488
X5.3189Y-4.3488
X5.3189Y-4.4488
X5.3189Y-4.5488
X5.3189Y-4.6488
X5.3189Y-4.7488
X5.3189Y-4.8488
X5.3189Y-4.9488
X5.3189Y-5.0488
X5.3189Y-5.1488
X5.3189Y-5.2488
X5.3189Y-5.3488
X5.3189Y-5.4488
X5.5433Y-4.0488
X5.5433Y-4.1488
X5.5433Y-4.2488
X5.5433Y-4.3488
X5.5433Y-4.4488
X5.5433Y-4.5488
X5.5433Y-4.6488
X5.5433Y-4.7488
X5.5433Y-4.8488
X5.5433Y-4.9488
X5.5433Y-5.0488
X5.5433Y-5.1488
X5.5433Y-5.2488
X5.5433Y-5.3488
X5.5433Y-5.4488
X5.748Y-4.0528
X5.748Y-4.1528
X5.748Y-4.2528
X5.748Y-4.3528
X5.748Y-4.4528
X5.748Y-4.5528
X5.748Y-4.6528
X5.748Y-4.7528
X5.748Y-4.8528
X5.748Y-4.9528
X5.748Y-5.0528
X5.748Y-5.1528
X5.748Y-5.2528
X5.748Y-5.3528
X5.748Y-5.4528
T2
X4.4685Y-5.8701
X4.6654Y-5.8701
T0
M30
