%TF.GenerationSoftware,KiCad,Pcbnew,6.0.7+dfsg-1+b1*%
%TF.CreationDate,2022-09-28T14:19:47-05:00*%
%TF.ProjectId,esp32,65737033-322e-46b6-9963-61645f706362,rev?*%
%TF.SameCoordinates,Original*%
%TF.FileFunction,Soldermask,Top*%
%TF.FilePolarity,Negative*%
%FSLAX46Y46*%
G04 Gerber Fmt 4.6, Leading zero omitted, Abs format (unit mm)*
G04 Created by KiCad (PCBNEW 6.0.7+dfsg-1+b1) date 2022-09-28 14:19:47*
%MOMM*%
%LPD*%
G01*
G04 APERTURE LIST*
G04 Aperture macros list*
%AMRoundRect*
0 Rectangle with rounded corners*
0 $1 Rounding radius*
0 $2 $3 $4 $5 $6 $7 $8 $9 X,Y pos of 4 corners*
0 Add a 4 corners polygon primitive as box body*
4,1,4,$2,$3,$4,$5,$6,$7,$8,$9,$2,$3,0*
0 Add four circle primitives for the rounded corners*
1,1,$1+$1,$2,$3*
1,1,$1+$1,$4,$5*
1,1,$1+$1,$6,$7*
1,1,$1+$1,$8,$9*
0 Add four rect primitives between the rounded corners*
20,1,$1+$1,$2,$3,$4,$5,0*
20,1,$1+$1,$4,$5,$6,$7,0*
20,1,$1+$1,$6,$7,$8,$9,0*
20,1,$1+$1,$8,$9,$2,$3,0*%
G04 Aperture macros list end*
%ADD10R,2.500000X2.500000*%
%ADD11C,2.500000*%
%ADD12RoundRect,0.250000X-0.620000X0.620000X-0.620000X-0.620000X0.620000X-0.620000X0.620000X0.620000X0*%
%ADD13C,1.740000*%
%ADD14RoundRect,0.250000X0.620000X-0.620000X0.620000X0.620000X-0.620000X0.620000X-0.620000X-0.620000X0*%
G04 APERTURE END LIST*
D10*
%TO.C,J3*%
X118500000Y-149100000D03*
D11*
X113500000Y-149100000D03*
%TD*%
D12*
%TO.C,J5*%
X92650000Y-102920000D03*
D13*
X92650000Y-105460000D03*
X92650000Y-108000000D03*
X92650000Y-110540000D03*
X92650000Y-113080000D03*
X92650000Y-115620000D03*
X92650000Y-118160000D03*
X92650000Y-120700000D03*
X92650000Y-123240000D03*
X92650000Y-125780000D03*
X92650000Y-128320000D03*
X92650000Y-130860000D03*
X92650000Y-133400000D03*
X92650000Y-135940000D03*
X92650000Y-138480000D03*
%TD*%
D12*
%TO.C,J1*%
X97950000Y-102920000D03*
D13*
X97950000Y-105460000D03*
X97950000Y-108000000D03*
X97950000Y-110540000D03*
X97950000Y-113080000D03*
X97950000Y-115620000D03*
X97950000Y-118160000D03*
X97950000Y-120700000D03*
X97950000Y-123240000D03*
X97950000Y-125780000D03*
X97950000Y-128320000D03*
X97950000Y-130860000D03*
X97950000Y-133400000D03*
X97950000Y-135940000D03*
X97950000Y-138480000D03*
%TD*%
D14*
%TO.C,J8der1*%
X146000000Y-138500000D03*
D13*
X146000000Y-135960000D03*
X146000000Y-133420000D03*
X146000000Y-130880000D03*
X146000000Y-128340000D03*
X146000000Y-125800000D03*
X146000000Y-123260000D03*
X146000000Y-120720000D03*
X146000000Y-118180000D03*
X146000000Y-115640000D03*
X146000000Y-113100000D03*
X146000000Y-110560000D03*
X146000000Y-108020000D03*
X146000000Y-105480000D03*
X146000000Y-102940000D03*
%TD*%
D14*
%TO.C,J6der1*%
X129350000Y-138380000D03*
D13*
X129350000Y-135840000D03*
X129350000Y-133300000D03*
X129350000Y-130760000D03*
X129350000Y-128220000D03*
X129350000Y-125680000D03*
X129350000Y-123140000D03*
X129350000Y-120600000D03*
X129350000Y-118060000D03*
X129350000Y-115520000D03*
X129350000Y-112980000D03*
X129350000Y-110440000D03*
X129350000Y-107900000D03*
X129350000Y-105360000D03*
X129350000Y-102820000D03*
%TD*%
D14*
%TO.C,J7der1*%
X140800000Y-138400000D03*
D13*
X140800000Y-135860000D03*
X140800000Y-133320000D03*
X140800000Y-130780000D03*
X140800000Y-128240000D03*
X140800000Y-125700000D03*
X140800000Y-123160000D03*
X140800000Y-120620000D03*
X140800000Y-118080000D03*
X140800000Y-115540000D03*
X140800000Y-113000000D03*
X140800000Y-110460000D03*
X140800000Y-107920000D03*
X140800000Y-105380000D03*
X140800000Y-102840000D03*
%TD*%
%TO.C,J3*%
X87250000Y-138480000D03*
X87250000Y-135940000D03*
X87250000Y-133400000D03*
X87250000Y-130860000D03*
X87250000Y-128320000D03*
X87250000Y-125780000D03*
X87250000Y-123240000D03*
X87250000Y-120700000D03*
X87250000Y-118160000D03*
X87250000Y-115620000D03*
X87250000Y-113080000D03*
X87250000Y-110540000D03*
X87250000Y-108000000D03*
X87250000Y-105460000D03*
D12*
X87250000Y-102920000D03*
%TD*%
%TO.C,J4*%
X104250000Y-102820000D03*
D13*
X104250000Y-105360000D03*
X104250000Y-107900000D03*
X104250000Y-110440000D03*
X104250000Y-112980000D03*
X104250000Y-115520000D03*
X104250000Y-118060000D03*
X104250000Y-120600000D03*
X104250000Y-123140000D03*
X104250000Y-125680000D03*
X104250000Y-128220000D03*
X104250000Y-130760000D03*
X104250000Y-133300000D03*
X104250000Y-135840000D03*
X104250000Y-138380000D03*
%TD*%
D14*
%TO.C,J10der1*%
X135100000Y-138400000D03*
D13*
X135100000Y-135860000D03*
X135100000Y-133320000D03*
X135100000Y-130780000D03*
X135100000Y-128240000D03*
X135100000Y-125700000D03*
X135100000Y-123160000D03*
X135100000Y-120620000D03*
X135100000Y-118080000D03*
X135100000Y-115540000D03*
X135100000Y-113000000D03*
X135100000Y-110460000D03*
X135100000Y-107920000D03*
X135100000Y-105380000D03*
X135100000Y-102840000D03*
%TD*%
M02*
