%TF.GenerationSoftware,KiCad,Pcbnew,6.0.11+dfsg-1*%
%TF.CreationDate,2023-04-26T14:21:25-05:00*%
%TF.ProjectId,power_control,706f7765-725f-4636-9f6e-74726f6c2e6b,rev?*%
%TF.SameCoordinates,Original*%
%TF.FileFunction,Copper,L1,Top*%
%TF.FilePolarity,Positive*%
%FSLAX46Y46*%
G04 Gerber Fmt 4.6, Leading zero omitted, Abs format (unit mm)*
G04 Created by KiCad (PCBNEW 6.0.11+dfsg-1) date 2023-04-26 14:21:25*
%MOMM*%
%LPD*%
G01*
G04 APERTURE LIST*
%TA.AperFunction,NonConductor*%
%ADD10C,0.200000*%
%TD*%
%ADD11C,0.300000*%
%TA.AperFunction,NonConductor*%
%ADD12C,0.300000*%
%TD*%
%TA.AperFunction,ComponentPad*%
%ADD13R,3.000000X3.960000*%
%TD*%
%TA.AperFunction,ComponentPad*%
%ADD14O,3.000000X3.960000*%
%TD*%
%TA.AperFunction,ComponentPad*%
%ADD15C,2.500000*%
%TD*%
%TA.AperFunction,ComponentPad*%
%ADD16O,2.500000X1.750000*%
%TD*%
%TA.AperFunction,ComponentPad*%
%ADD17C,5.600000*%
%TD*%
%TA.AperFunction,ComponentPad*%
%ADD18R,3.500000X4.500000*%
%TD*%
%TA.AperFunction,ComponentPad*%
%ADD19O,3.500000X4.500000*%
%TD*%
%TA.AperFunction,ComponentPad*%
%ADD20R,1.800000X3.000000*%
%TD*%
%TA.AperFunction,ComponentPad*%
%ADD21O,1.800000X3.000000*%
%TD*%
%TA.AperFunction,ComponentPad*%
%ADD22O,2.000000X3.000000*%
%TD*%
%TA.AperFunction,ComponentPad*%
%ADD23C,3.000000*%
%TD*%
%TA.AperFunction,ComponentPad*%
%ADD24R,3.000000X2.000000*%
%TD*%
%TA.AperFunction,ComponentPad*%
%ADD25O,3.000000X2.100000*%
%TD*%
%TA.AperFunction,ComponentPad*%
%ADD26O,3.000000X2.000000*%
%TD*%
%TA.AperFunction,ComponentPad*%
%ADD27O,3.000000X1.600000*%
%TD*%
%TA.AperFunction,ComponentPad*%
%ADD28O,2.000000X2.250000*%
%TD*%
%TA.AperFunction,ComponentPad*%
%ADD29O,2.500000X1.600000*%
%TD*%
%TA.AperFunction,ComponentPad*%
%ADD30O,2.100000X3.000000*%
%TD*%
%TA.AperFunction,ComponentPad*%
%ADD31R,2.100000X3.000000*%
%TD*%
%TA.AperFunction,ComponentPad*%
%ADD32R,3.000000X2.100000*%
%TD*%
%TA.AperFunction,ComponentPad*%
%ADD33O,3.000000X2.125000*%
%TD*%
%TA.AperFunction,ComponentPad*%
%ADD34O,2.650000X2.100000*%
%TD*%
%TA.AperFunction,ViaPad*%
%ADD35C,2.300000*%
%TD*%
%TA.AperFunction,Conductor*%
%ADD36C,1.330000*%
%TD*%
G04 APERTURE END LIST*
D10*
X203894000Y-30853000D02*
X126647000Y-30853000D01*
X126647000Y-30853000D02*
X126647000Y-115600000D01*
X126647000Y-115600000D02*
X203894000Y-115600000D01*
X203894000Y-115600000D02*
X203894000Y-30853000D01*
D11*
D12*
X185904761Y-49369047D02*
X185904761Y-48130952D01*
X186666666Y-48797619D01*
X186666666Y-48511904D01*
X186761904Y-48321428D01*
X186857142Y-48226190D01*
X187047619Y-48130952D01*
X187523809Y-48130952D01*
X187714285Y-48226190D01*
X187809523Y-48321428D01*
X187904761Y-48511904D01*
X187904761Y-49083333D01*
X187809523Y-49273809D01*
X187714285Y-49369047D01*
X185904761Y-47464285D02*
X185904761Y-46226190D01*
X186666666Y-46892857D01*
X186666666Y-46607142D01*
X186761904Y-46416666D01*
X186857142Y-46321428D01*
X187047619Y-46226190D01*
X187523809Y-46226190D01*
X187714285Y-46321428D01*
X187809523Y-46416666D01*
X187904761Y-46607142D01*
X187904761Y-47178571D01*
X187809523Y-47369047D01*
X187714285Y-47464285D01*
D11*
D12*
X181011904Y-49273809D02*
X180916666Y-49178571D01*
X180821427Y-48988095D01*
X180821427Y-48511904D01*
X180916666Y-48321428D01*
X181011904Y-48226190D01*
X181202380Y-48130952D01*
X181392856Y-48130952D01*
X181678570Y-48226190D01*
X182821427Y-49369047D01*
X182821427Y-48130952D01*
X180821427Y-47464285D02*
X180821427Y-46130952D01*
X182821427Y-46988095D01*
D11*
D12*
X130566666Y-39750000D02*
X130376190Y-39654761D01*
X130090476Y-39654761D01*
X129804761Y-39750000D01*
X129614285Y-39940476D01*
X129519047Y-40130952D01*
X129423809Y-40511904D01*
X129423809Y-40797619D01*
X129519047Y-41178571D01*
X129614285Y-41369047D01*
X129804761Y-41559523D01*
X130090476Y-41654761D01*
X130280952Y-41654761D01*
X130566666Y-41559523D01*
X130661904Y-41464285D01*
X130661904Y-40797619D01*
X130280952Y-40797619D01*
X131519047Y-41654761D02*
X131519047Y-39654761D01*
X132661904Y-41654761D01*
X132661904Y-39654761D01*
X133614285Y-41654761D02*
X133614285Y-39654761D01*
X134090476Y-39654761D01*
X134376190Y-39750000D01*
X134566666Y-39940476D01*
X134661904Y-40130952D01*
X134757142Y-40511904D01*
X134757142Y-40797619D01*
X134661904Y-41178571D01*
X134566666Y-41369047D01*
X134376190Y-41559523D01*
X134090476Y-41654761D01*
X133614285Y-41654761D01*
X136566666Y-39654761D02*
X135614285Y-39654761D01*
X135519047Y-40607142D01*
X135614285Y-40511904D01*
X135804761Y-40416666D01*
X136280952Y-40416666D01*
X136471428Y-40511904D01*
X136566666Y-40607142D01*
X136661904Y-40797619D01*
X136661904Y-41273809D01*
X136566666Y-41464285D01*
X136471428Y-41559523D01*
X136280952Y-41654761D01*
X135804761Y-41654761D01*
X135614285Y-41559523D01*
X135519047Y-41464285D01*
X137233333Y-39654761D02*
X137900000Y-41654761D01*
X138566666Y-39654761D01*
D11*
D12*
X173339198Y-110016666D02*
X174243960Y-110016666D01*
X173090388Y-110559523D02*
X173961222Y-108659523D01*
X174357055Y-110559523D01*
X176098722Y-110378571D02*
X175996936Y-110469047D01*
X175714198Y-110559523D01*
X175533245Y-110559523D01*
X175273126Y-110469047D01*
X175114793Y-110288095D01*
X175046936Y-110107142D01*
X175001698Y-109745238D01*
X175035626Y-109473809D01*
X175171341Y-109111904D01*
X175284436Y-108930952D01*
X175488007Y-108750000D01*
X175770745Y-108659523D01*
X175951698Y-108659523D01*
X176211817Y-108750000D01*
X176290983Y-108840476D01*
D11*
D12*
X140500000Y-113033333D02*
X140404761Y-113223809D01*
X140404761Y-113509523D01*
X140500000Y-113795238D01*
X140690476Y-113985714D01*
X140880952Y-114080952D01*
X141261904Y-114176190D01*
X141547619Y-114176190D01*
X141928571Y-114080952D01*
X142119047Y-113985714D01*
X142309523Y-113795238D01*
X142404761Y-113509523D01*
X142404761Y-113319047D01*
X142309523Y-113033333D01*
X142214285Y-112938095D01*
X141547619Y-112938095D01*
X141547619Y-113319047D01*
X142404761Y-112080952D02*
X140404761Y-112080952D01*
X142404761Y-110938095D01*
X140404761Y-110938095D01*
X142404761Y-109985714D02*
X140404761Y-109985714D01*
X140404761Y-109509523D01*
X140500000Y-109223809D01*
X140690476Y-109033333D01*
X140880952Y-108938095D01*
X141261904Y-108842857D01*
X141547619Y-108842857D01*
X141928571Y-108938095D01*
X142119047Y-109033333D01*
X142309523Y-109223809D01*
X142404761Y-109509523D01*
X142404761Y-109985714D01*
X140404761Y-107033333D02*
X140404761Y-107985714D01*
X141357142Y-108080952D01*
X141261904Y-107985714D01*
X141166666Y-107795238D01*
X141166666Y-107319047D01*
X141261904Y-107128571D01*
X141357142Y-107033333D01*
X141547619Y-106938095D01*
X142023809Y-106938095D01*
X142214285Y-107033333D01*
X142309523Y-107128571D01*
X142404761Y-107319047D01*
X142404761Y-107795238D01*
X142309523Y-107985714D01*
X142214285Y-108080952D01*
X140404761Y-106366666D02*
X142404761Y-105700000D01*
X140404761Y-105033333D01*
D11*
D12*
X157985598Y-110016666D02*
X158890360Y-110016666D01*
X157736788Y-110559523D02*
X158607622Y-108659523D01*
X159003455Y-110559523D01*
X160745122Y-110378571D02*
X160643336Y-110469047D01*
X160360598Y-110559523D01*
X160179645Y-110559523D01*
X159919526Y-110469047D01*
X159761193Y-110288095D01*
X159693336Y-110107142D01*
X159648098Y-109745238D01*
X159682026Y-109473809D01*
X159817741Y-109111904D01*
X159930836Y-108930952D01*
X160134407Y-108750000D01*
X160417145Y-108659523D01*
X160598098Y-108659523D01*
X160858217Y-108750000D01*
X160937383Y-108840476D01*
D11*
D12*
X132460654Y-99154761D02*
X132841607Y-99154761D01*
X133020178Y-99250000D01*
X133186845Y-99440476D01*
X133234464Y-99821428D01*
X133151130Y-100488095D01*
X133008273Y-100869047D01*
X132793988Y-101059523D01*
X132591607Y-101154761D01*
X132210654Y-101154761D01*
X132032083Y-101059523D01*
X131865416Y-100869047D01*
X131817797Y-100488095D01*
X131901130Y-99821428D01*
X132043988Y-99440476D01*
X132258273Y-99250000D01*
X132460654Y-99154761D01*
X134174940Y-99154761D02*
X133972559Y-100773809D01*
X134043988Y-100964285D01*
X134127321Y-101059523D01*
X134305892Y-101154761D01*
X134686845Y-101154761D01*
X134889226Y-101059523D01*
X134996369Y-100964285D01*
X135115416Y-100773809D01*
X135317797Y-99154761D01*
X135984464Y-99154761D02*
X137127321Y-99154761D01*
X136305892Y-101154761D02*
X136555892Y-99154761D01*
D11*
D12*
X188121998Y-110016666D02*
X189026760Y-110016666D01*
X187873188Y-110559523D02*
X188744022Y-108659523D01*
X189139855Y-110559523D01*
X190881522Y-110378571D02*
X190779736Y-110469047D01*
X190496998Y-110559523D01*
X190316045Y-110559523D01*
X190055926Y-110469047D01*
X189897593Y-110288095D01*
X189829736Y-110107142D01*
X189784498Y-109745238D01*
X189818426Y-109473809D01*
X189954141Y-109111904D01*
X190067236Y-108930952D01*
X190270807Y-108750000D01*
X190553545Y-108659523D01*
X190734498Y-108659523D01*
X190994617Y-108750000D01*
X191073783Y-108840476D01*
D11*
D12*
X128453511Y-34904761D02*
X128703511Y-32904761D01*
X129405892Y-34904761D02*
X129655892Y-32904761D01*
X130548750Y-34904761D01*
X130798750Y-32904761D01*
X131501130Y-34904761D02*
X131751130Y-32904761D01*
X132513035Y-32904761D01*
X132691607Y-33000000D01*
X132774940Y-33095238D01*
X132846369Y-33285714D01*
X132810654Y-33571428D01*
X132691607Y-33761904D01*
X132584464Y-33857142D01*
X132382083Y-33952380D01*
X131620178Y-33952380D01*
X133751130Y-32904761D02*
X133548750Y-34523809D01*
X133620178Y-34714285D01*
X133703511Y-34809523D01*
X133882083Y-34904761D01*
X134263035Y-34904761D01*
X134465416Y-34809523D01*
X134572559Y-34714285D01*
X134691607Y-34523809D01*
X134893988Y-32904761D01*
X135560654Y-32904761D02*
X136703511Y-32904761D01*
X135882083Y-34904761D02*
X136132083Y-32904761D01*
D11*
D12*
X127204761Y-111758392D02*
X127204761Y-112710773D01*
X128157142Y-112925059D01*
X128061904Y-112817916D01*
X127966666Y-112615535D01*
X127966666Y-112139345D01*
X128061904Y-111960773D01*
X128157142Y-111877440D01*
X128347619Y-111806011D01*
X128823809Y-111865535D01*
X129014285Y-111984583D01*
X129109523Y-112091726D01*
X129204761Y-112294107D01*
X129204761Y-112770297D01*
X129109523Y-112948869D01*
X129014285Y-113032202D01*
X127204761Y-111091726D02*
X129204761Y-110675059D01*
X127204761Y-109758392D01*
X128442857Y-109246488D02*
X128442857Y-107722678D01*
X129204761Y-108579821D02*
X127680952Y-108389345D01*
D11*
D12*
X152630952Y-39654761D02*
X151678571Y-39654761D01*
X151583333Y-40607142D01*
X151678571Y-40511904D01*
X151869047Y-40416666D01*
X152345238Y-40416666D01*
X152535714Y-40511904D01*
X152630952Y-40607142D01*
X152726190Y-40797619D01*
X152726190Y-41273809D01*
X152630952Y-41464285D01*
X152535714Y-41559523D01*
X152345238Y-41654761D01*
X151869047Y-41654761D01*
X151678571Y-41559523D01*
X151583333Y-41464285D01*
X153297619Y-39654761D02*
X153964285Y-41654761D01*
X154630952Y-39654761D01*
X155297619Y-40892857D02*
X156821428Y-40892857D01*
X156059523Y-41654761D02*
X156059523Y-40130952D01*
D11*
D12*
X196000000Y-42083333D02*
X195904761Y-42273809D01*
X195904761Y-42559523D01*
X196000000Y-42845238D01*
X196190476Y-43035714D01*
X196380952Y-43130952D01*
X196761904Y-43226190D01*
X197047619Y-43226190D01*
X197428571Y-43130952D01*
X197619047Y-43035714D01*
X197809523Y-42845238D01*
X197904761Y-42559523D01*
X197904761Y-42369047D01*
X197809523Y-42083333D01*
X197714285Y-41988095D01*
X197047619Y-41988095D01*
X197047619Y-42369047D01*
X197904761Y-41130952D02*
X195904761Y-41130952D01*
X197904761Y-39988095D01*
X195904761Y-39988095D01*
X197904761Y-39035714D02*
X195904761Y-39035714D01*
X195904761Y-38559523D01*
X196000000Y-38273809D01*
X196190476Y-38083333D01*
X196380952Y-37988095D01*
X196761904Y-37892857D01*
X197047619Y-37892857D01*
X197428571Y-37988095D01*
X197619047Y-38083333D01*
X197809523Y-38273809D01*
X197904761Y-38559523D01*
X197904761Y-39035714D01*
X195904761Y-36083333D02*
X195904761Y-37035714D01*
X196857142Y-37130952D01*
X196761904Y-37035714D01*
X196666666Y-36845238D01*
X196666666Y-36369047D01*
X196761904Y-36178571D01*
X196857142Y-36083333D01*
X197047619Y-35988095D01*
X197523809Y-35988095D01*
X197714285Y-36083333D01*
X197809523Y-36178571D01*
X197904761Y-36369047D01*
X197904761Y-36845238D01*
X197809523Y-37035714D01*
X197714285Y-37130952D01*
X195904761Y-35416666D02*
X197904761Y-34750000D01*
X195904761Y-34083333D01*
D11*
D12*
X172654761Y-48130952D02*
X172654761Y-49273809D01*
X172654761Y-48702380D02*
X170654761Y-48702380D01*
X170940476Y-48892857D01*
X171130952Y-49083333D01*
X171226190Y-49273809D01*
X171321428Y-46416666D02*
X172654761Y-46416666D01*
X170559523Y-46892857D02*
X171988095Y-47369047D01*
X171988095Y-46130952D01*
D11*
D12*
X175928571Y-49273809D02*
X175833333Y-49178571D01*
X175738094Y-48988095D01*
X175738094Y-48511904D01*
X175833333Y-48321428D01*
X175928571Y-48226190D01*
X176119047Y-48130952D01*
X176309523Y-48130952D01*
X176595237Y-48226190D01*
X177738094Y-49369047D01*
X177738094Y-48130952D01*
X175738094Y-46416666D02*
X175738094Y-46797619D01*
X175833333Y-46988095D01*
X175928571Y-47083333D01*
X176214285Y-47273809D01*
X176595237Y-47369047D01*
X177357142Y-47369047D01*
X177547618Y-47273809D01*
X177642856Y-47178571D01*
X177738094Y-46988095D01*
X177738094Y-46607142D01*
X177642856Y-46416666D01*
X177547618Y-46321428D01*
X177357142Y-46226190D01*
X176880952Y-46226190D01*
X176690475Y-46321428D01*
X176595237Y-46416666D01*
X176499999Y-46607142D01*
X176499999Y-46988095D01*
X176595237Y-47178571D01*
X176690475Y-47273809D01*
X176880952Y-47369047D01*
D13*
%TO.P,J_wpump1,1,Pin_1*%
%TO.N,Net-(J_wpump1-Pad1)*%
X179411500Y-108439000D03*
D14*
%TO.P,J_wpump1,2,Pin_2*%
%TO.N,Net-(J_wpump1-Pad2)*%
X184411500Y-108439000D03*
%TD*%
D13*
%TO.P,J_fan1,1,Pin_1*%
%TO.N,Net-(J_fan1-Pad1)*%
X194183000Y-108458000D03*
D14*
%TO.P,J_fan1,2,Pin_2*%
%TO.N,Net-(J_fan1-Pad2)*%
X199183000Y-108458000D03*
%TD*%
D15*
%TO.P,R2,1*%
%TO.N,Net-(R2-Pad1)*%
X182050800Y-59320000D03*
D16*
%TO.P,R2,2*%
%TO.N,D27*%
X182050800Y-54240000D03*
%TD*%
D17*
%TO.P,H4,1*%
%TO.N,N/C*%
X131114800Y-53390800D03*
%TD*%
%TO.P,H2,1*%
%TO.N,N/C*%
X199491600Y-53390800D03*
%TD*%
D18*
%TO.P,J1,1,Pin_1*%
%TO.N,GND5V*%
X191857500Y-38607500D03*
D19*
%TO.P,J1,2,Pin_2*%
%TO.N,D33*%
X186857500Y-38607500D03*
%TO.P,J1,3,Pin_3*%
%TO.N,D27*%
X181857500Y-38607500D03*
%TO.P,J1,4,Pin_4*%
%TO.N,D26*%
X176857500Y-38607500D03*
%TO.P,J1,5,Pin_5*%
%TO.N,D14*%
X171857500Y-38607500D03*
%TD*%
D20*
%TO.P,U3,1*%
%TO.N,Net-(R4-Pad2)*%
X165842400Y-52052400D03*
D21*
%TO.P,U3,2*%
%TO.N,GND5V*%
X163302400Y-52052400D03*
D22*
%TO.P,U3,3,NC*%
%TO.N,unconnected-(U3-Pad3)*%
X160762400Y-52052400D03*
D21*
%TO.P,U3,4*%
%TO.N,GND5V*%
X160762400Y-59672400D03*
%TO.P,U3,5*%
%TO.N,Net-(R6-Pad1)*%
X163302400Y-59672400D03*
D22*
%TO.P,U3,6*%
%TO.N,unconnected-(U3-Pad6)*%
X165842400Y-59672400D03*
%TD*%
D23*
%TO.P,U_wpump1,11*%
%TO.N,Net-(J_wpump1-Pad1)*%
X182765700Y-86004400D03*
%TO.P,U_wpump1,14*%
%TO.N,Net-(J_wpump1-Pad2)*%
X182765700Y-93243400D03*
D24*
%TO.P,U_wpump1,A1*%
%TO.N,Net-(R2-Pad1)*%
X182765700Y-75758400D03*
D25*
%TO.P,U_wpump1,A2*%
%TO.N,GND5V*%
X182765700Y-73177400D03*
%TD*%
D24*
%TO.P,U1,1*%
%TO.N,N/C*%
X145400000Y-68975000D03*
D26*
%TO.P,U1,2*%
X145400000Y-71515000D03*
%TO.P,U1,3*%
%TO.N,unconnected-(U1-Pad3)*%
X145400000Y-74055000D03*
%TO.P,U1,4*%
%TO.N,unconnected-(U1-Pad4)*%
X145400000Y-76595000D03*
%TO.P,U1,5*%
%TO.N,unconnected-(U1-Pad5)*%
X145400000Y-79135000D03*
%TO.P,U1,6*%
%TO.N,unconnected-(U1-Pad6)*%
X145400000Y-81675000D03*
D27*
%TO.P,U1,7,VSS*%
%TO.N,GND5V*%
X145400000Y-84215000D03*
D26*
%TO.P,U1,8*%
%TO.N,unconnected-(U1-Pad8)*%
X153020000Y-84215000D03*
%TO.P,U1,9*%
%TO.N,unconnected-(U1-Pad9)*%
X153020000Y-81675000D03*
%TO.P,U1,10*%
%TO.N,unconnected-(U1-Pad10)*%
X153020000Y-79135000D03*
%TO.P,U1,11*%
%TO.N,unconnected-(U1-Pad11)*%
X153020000Y-76595000D03*
%TO.P,U1,12*%
%TO.N,Net-(R8-Pad1)*%
X153020000Y-74055000D03*
D28*
%TO.P,U1,13*%
%TO.N,Net-(R6-Pad1)*%
X153020000Y-71515000D03*
D29*
%TO.P,U1,14,VDD*%
%TO.N,5v*%
X153020000Y-68975000D03*
%TD*%
D13*
%TO.P,OUT2,1,Pin_1*%
%TO.N,Net-(OUT2-Pad1)*%
X131635000Y-108200000D03*
D14*
%TO.P,OUT2,2,Pin_2*%
%TO.N,GND5V*%
X136635000Y-108200000D03*
%TD*%
D30*
%TO.P,R6,1*%
%TO.N,Net-(R6-Pad1)*%
X155490000Y-71600000D03*
%TO.P,R6,2*%
%TO.N,5v*%
X158030000Y-71600000D03*
%TD*%
D31*
%TO.P,Q2,1,B*%
%TO.N,Net-(Q2-Pad1)*%
X130460000Y-96000000D03*
D30*
%TO.P,Q2,2,C*%
%TO.N,5v*%
X133000000Y-96000000D03*
%TO.P,Q2,3,E*%
%TO.N,Net-(OUT2-Pad1)*%
X135540000Y-96000000D03*
%TD*%
D15*
%TO.P,R1,1*%
%TO.N,Net-(R1-Pad1)*%
X177000000Y-59152500D03*
D16*
%TO.P,R1,2*%
%TO.N,D26*%
X177000000Y-54072500D03*
%TD*%
D23*
%TO.P,U_fan1,11*%
%TO.N,Net-(J_fan1-Pad1)*%
X197446900Y-86309200D03*
%TO.P,U_fan1,14*%
%TO.N,Net-(J_fan1-Pad2)*%
X197446900Y-93548200D03*
D32*
%TO.P,U_fan1,A1*%
%TO.N,Net-(R9-Pad1)*%
X197446900Y-76063200D03*
D25*
%TO.P,U_fan1,A2*%
%TO.N,GND5V*%
X197446900Y-73482200D03*
%TD*%
D15*
%TO.P,R9,1*%
%TO.N,Net-(R9-Pad1)*%
X186750000Y-59402500D03*
D16*
%TO.P,R9,2*%
%TO.N,D33*%
X186750000Y-54322500D03*
%TD*%
D13*
%TO.P,5V1,1,Pin_1*%
%TO.N,5v*%
X147878800Y-39250000D03*
D14*
%TO.P,5V1,2,Pin_2*%
%TO.N,GND5V*%
X142878800Y-39250000D03*
%TD*%
D13*
%TO.P,J_oxygen1,1,Pin_1*%
%TO.N,Net-(J_oxygen1-Pad1)*%
X164545000Y-108458000D03*
D14*
%TO.P,J_oxygen1,2,Pin_2*%
%TO.N,Net-(J_oxygen1-Pad2)*%
X169545000Y-108458000D03*
%TD*%
D33*
%TO.P,R8,1*%
%TO.N,Net-(R8-Pad1)*%
X130400000Y-87295000D03*
%TO.P,R8,2*%
%TO.N,Net-(Q2-Pad1)*%
X130400000Y-89835000D03*
%TD*%
D23*
%TO.P,U_oxygen1,11*%
%TO.N,Net-(J_oxygen1-Pad1)*%
X168427400Y-86144100D03*
%TO.P,U_oxygen1,14*%
%TO.N,Net-(J_oxygen1-Pad2)*%
X168427400Y-93383100D03*
D24*
%TO.P,U_oxygen1,A1*%
%TO.N,Net-(R1-Pad1)*%
X168427400Y-75898100D03*
D26*
%TO.P,U_oxygen1,A2*%
%TO.N,GND5V*%
X168427400Y-73317100D03*
%TD*%
D34*
%TO.P,R4,1*%
%TO.N,D14*%
X165917400Y-46452400D03*
%TO.P,R4,2*%
%TO.N,Net-(R4-Pad2)*%
X165917400Y-48992400D03*
%TD*%
D35*
%TO.N,5v*%
X138419600Y-90830400D03*
X156500000Y-65495000D03*
X158000000Y-76000000D03*
X148285200Y-54914800D03*
%TO.N,Net-(R1-Pad1)*%
X177000000Y-63876900D03*
X162966400Y-72745600D03*
%TO.N,Net-(R2-Pad1)*%
X186283600Y-77063600D03*
X182000000Y-63993600D03*
%TO.N,Net-(R8-Pad1)*%
X149500000Y-75250000D03*
X135823200Y-87426800D03*
%TO.N,Net-(R9-Pad1)*%
X186597600Y-64279300D03*
X192481200Y-77165200D03*
%TD*%
D36*
%TO.N,5v*%
X151485600Y-90932000D02*
X158000000Y-84417600D01*
X156500000Y-65495000D02*
X156500000Y-63129600D01*
X138521200Y-90932000D02*
X151485600Y-90932000D01*
X158000000Y-84417600D02*
X158000000Y-76000000D01*
X138419600Y-90830400D02*
X138521200Y-90932000D01*
X156500000Y-63129600D02*
X148285200Y-54914800D01*
%TO.N,Net-(R1-Pad1)*%
X169904700Y-63876900D02*
X162966400Y-70815200D01*
X162966400Y-70815200D02*
X162966400Y-72745600D01*
X177000000Y-63876900D02*
X169904700Y-63876900D01*
%TO.N,Net-(R2-Pad1)*%
X182000000Y-65250000D02*
X187250000Y-70500000D01*
X187250000Y-70500000D02*
X187250000Y-76097200D01*
X187250000Y-76097200D02*
X186283600Y-77063600D01*
X182000000Y-63993600D02*
X182000000Y-65250000D01*
%TO.N,Net-(R4-Pad2)*%
X165917400Y-51977400D02*
X165842400Y-52052400D01*
%TO.N,Net-(R6-Pad1)*%
X153105000Y-71600000D02*
X153020000Y-71515000D01*
%TO.N,Net-(R8-Pad1)*%
X149504400Y-85039200D02*
X149504400Y-75590400D01*
X147116800Y-87426800D02*
X149504400Y-85039200D01*
X135823200Y-87426800D02*
X147116800Y-87426800D01*
%TO.N,Net-(R9-Pad1)*%
X186597600Y-64279300D02*
X192481200Y-70162900D01*
X192481200Y-70162900D02*
X192481200Y-77165200D01*
%TD*%
M02*
