%TF.GenerationSoftware,KiCad,Pcbnew,6.0.11+dfsg-1*%
%TF.CreationDate,2023-04-26T14:21:26-05:00*%
%TF.ProjectId,power_control,706f7765-725f-4636-9f6e-74726f6c2e6b,rev?*%
%TF.SameCoordinates,Original*%
%TF.FileFunction,Soldermask,Top*%
%TF.FilePolarity,Negative*%
%FSLAX46Y46*%
G04 Gerber Fmt 4.6, Leading zero omitted, Abs format (unit mm)*
G04 Created by KiCad (PCBNEW 6.0.11+dfsg-1) date 2023-04-26 14:21:26*
%MOMM*%
%LPD*%
G01*
G04 APERTURE LIST*
%ADD10R,3.000000X3.960000*%
%ADD11O,3.000000X3.960000*%
%ADD12C,2.500000*%
%ADD13O,2.500000X1.750000*%
%ADD14C,5.600000*%
%ADD15R,3.500000X4.500000*%
%ADD16O,3.500000X4.500000*%
%ADD17R,1.800000X3.000000*%
%ADD18O,1.800000X3.000000*%
%ADD19O,2.000000X3.000000*%
%ADD20C,3.000000*%
%ADD21R,3.000000X2.000000*%
%ADD22O,3.000000X2.100000*%
%ADD23O,3.000000X2.000000*%
%ADD24O,3.000000X1.600000*%
%ADD25O,2.000000X2.250000*%
%ADD26O,2.500000X1.600000*%
%ADD27O,2.100000X3.000000*%
%ADD28R,2.100000X3.000000*%
%ADD29R,3.000000X2.100000*%
%ADD30O,3.000000X2.125000*%
%ADD31O,2.650000X2.100000*%
G04 APERTURE END LIST*
D10*
%TO.C,J_wpump1*%
X179411500Y-108439000D03*
D11*
X184411500Y-108439000D03*
%TD*%
D10*
%TO.C,J_fan1*%
X194183000Y-108458000D03*
D11*
X199183000Y-108458000D03*
%TD*%
D12*
%TO.C,R2*%
X182050800Y-59320000D03*
D13*
X182050800Y-54240000D03*
%TD*%
D14*
%TO.C,H4*%
X131114800Y-53390800D03*
%TD*%
%TO.C,H2*%
X199491600Y-53390800D03*
%TD*%
D15*
%TO.C,J1*%
X191857500Y-38607500D03*
D16*
X186857500Y-38607500D03*
X181857500Y-38607500D03*
X176857500Y-38607500D03*
X171857500Y-38607500D03*
%TD*%
D17*
%TO.C,U3*%
X165842400Y-52052400D03*
D18*
X163302400Y-52052400D03*
D19*
X160762400Y-52052400D03*
D18*
X160762400Y-59672400D03*
X163302400Y-59672400D03*
D19*
X165842400Y-59672400D03*
%TD*%
D20*
%TO.C,U_wpump1*%
X182765700Y-86004400D03*
X182765700Y-93243400D03*
D21*
X182765700Y-75758400D03*
D22*
X182765700Y-73177400D03*
%TD*%
D21*
%TO.C,U1*%
X145400000Y-68975000D03*
D23*
X145400000Y-71515000D03*
X145400000Y-74055000D03*
X145400000Y-76595000D03*
X145400000Y-79135000D03*
X145400000Y-81675000D03*
D24*
X145400000Y-84215000D03*
D23*
X153020000Y-84215000D03*
X153020000Y-81675000D03*
X153020000Y-79135000D03*
X153020000Y-76595000D03*
X153020000Y-74055000D03*
D25*
X153020000Y-71515000D03*
D26*
X153020000Y-68975000D03*
%TD*%
D10*
%TO.C,OUT2*%
X131635000Y-108200000D03*
D11*
X136635000Y-108200000D03*
%TD*%
D27*
%TO.C,R6*%
X155490000Y-71600000D03*
X158030000Y-71600000D03*
%TD*%
D28*
%TO.C,Q2*%
X130460000Y-96000000D03*
D27*
X133000000Y-96000000D03*
X135540000Y-96000000D03*
%TD*%
D12*
%TO.C,R1*%
X177000000Y-59152500D03*
D13*
X177000000Y-54072500D03*
%TD*%
D20*
%TO.C,U_fan1*%
X197446900Y-86309200D03*
X197446900Y-93548200D03*
D29*
X197446900Y-76063200D03*
D22*
X197446900Y-73482200D03*
%TD*%
D12*
%TO.C,R9*%
X186750000Y-59402500D03*
D13*
X186750000Y-54322500D03*
%TD*%
D10*
%TO.C,5V1*%
X147878800Y-39250000D03*
D11*
X142878800Y-39250000D03*
%TD*%
D10*
%TO.C,J_oxygen1*%
X164545000Y-108458000D03*
D11*
X169545000Y-108458000D03*
%TD*%
D30*
%TO.C,R8*%
X130400000Y-87295000D03*
X130400000Y-89835000D03*
%TD*%
D20*
%TO.C,U_oxygen1*%
X168427400Y-86144100D03*
X168427400Y-93383100D03*
D21*
X168427400Y-75898100D03*
D23*
X168427400Y-73317100D03*
%TD*%
D31*
%TO.C,R4*%
X165917400Y-46452400D03*
X165917400Y-48992400D03*
%TD*%
M02*
