%TF.GenerationSoftware,KiCad,Pcbnew,6.0.7+dfsg-1+b1*%
%TF.CreationDate,2022-09-30T15:10:01-05:00*%
%TF.ProjectId,esp32,65737033-322e-46b6-9963-61645f706362,rev?*%
%TF.SameCoordinates,Original*%
%TF.FileFunction,Soldermask,Bot*%
%TF.FilePolarity,Negative*%
%FSLAX46Y46*%
G04 Gerber Fmt 4.6, Leading zero omitted, Abs format (unit mm)*
G04 Created by KiCad (PCBNEW 6.0.7+dfsg-1+b1) date 2022-09-30 15:10:01*
%MOMM*%
%LPD*%
G01*
G04 APERTURE LIST*
G04 Aperture macros list*
%AMRoundRect*
0 Rectangle with rounded corners*
0 $1 Rounding radius*
0 $2 $3 $4 $5 $6 $7 $8 $9 X,Y pos of 4 corners*
0 Add a 4 corners polygon primitive as box body*
4,1,4,$2,$3,$4,$5,$6,$7,$8,$9,$2,$3,0*
0 Add four circle primitives for the rounded corners*
1,1,$1+$1,$2,$3*
1,1,$1+$1,$4,$5*
1,1,$1+$1,$6,$7*
1,1,$1+$1,$8,$9*
0 Add four rect primitives between the rounded corners*
20,1,$1+$1,$2,$3,$4,$5,0*
20,1,$1+$1,$4,$5,$6,$7,0*
20,1,$1+$1,$6,$7,$8,$9,0*
20,1,$1+$1,$8,$9,$2,$3,0*%
G04 Aperture macros list end*
%ADD10RoundRect,0.250000X1.020000X-0.620000X1.020000X0.620000X-1.020000X0.620000X-1.020000X-0.620000X0*%
%ADD11R,2.540000X1.740000*%
%ADD12RoundRect,0.250000X-0.620000X-1.250000X0.620000X-1.250000X0.620000X1.250000X-0.620000X1.250000X0*%
%ADD13R,1.740000X2.540000*%
%ADD14C,2.100000*%
%ADD15RoundRect,0.250000X-1.020000X0.620000X-1.020000X-0.620000X1.020000X-0.620000X1.020000X0.620000X0*%
%ADD16R,2.500000X2.500000*%
%ADD17C,2.500000*%
%ADD18RoundRect,0.250000X-1.250000X0.620000X-1.250000X-0.620000X1.250000X-0.620000X1.250000X0.620000X0*%
G04 APERTURE END LIST*
D10*
%TO.C,J6der1*%
X119937500Y-119590000D03*
D11*
X119937500Y-117050000D03*
X119937500Y-114510000D03*
X119937500Y-111970000D03*
X119937500Y-109430000D03*
X119937500Y-106890000D03*
X119937500Y-104350000D03*
X119937500Y-101810000D03*
X119937500Y-99270000D03*
X119937500Y-96730000D03*
X119937500Y-94190000D03*
X119937500Y-91650000D03*
X119937500Y-89110000D03*
X119937500Y-86570000D03*
X119937500Y-84030000D03*
%TD*%
D12*
%TO.C,J1*%
X128460000Y-69140000D03*
D13*
X131000000Y-69140000D03*
%TD*%
D14*
%TO.C,H4*%
X109930000Y-68490000D03*
%TD*%
%TO.C,H2*%
X110000000Y-149400000D03*
%TD*%
D12*
%TO.C,J7*%
X119030000Y-69140000D03*
D13*
X121570000Y-69140000D03*
%TD*%
D14*
%TO.C,H1*%
X170000000Y-149400000D03*
%TD*%
D15*
%TO.C,J4*%
X160437500Y-84020000D03*
D11*
X160437500Y-86560000D03*
X160437500Y-89100000D03*
X160437500Y-91640000D03*
X160437500Y-94180000D03*
X160437500Y-96720000D03*
X160437500Y-99260000D03*
X160437500Y-101800000D03*
X160437500Y-104340000D03*
X160437500Y-106880000D03*
X160437500Y-109420000D03*
X160437500Y-111960000D03*
X160437500Y-114500000D03*
X160437500Y-117040000D03*
X160437500Y-119580000D03*
%TD*%
D10*
%TO.C,J7der1*%
X112415000Y-119570000D03*
D11*
X112415000Y-117030000D03*
X112415000Y-114490000D03*
X112415000Y-111950000D03*
X112415000Y-109410000D03*
X112415000Y-106870000D03*
X112415000Y-104330000D03*
X112415000Y-101790000D03*
X112415000Y-99250000D03*
X112415000Y-96710000D03*
X112415000Y-94170000D03*
X112415000Y-91630000D03*
X112415000Y-89090000D03*
X112415000Y-86550000D03*
X112415000Y-84010000D03*
%TD*%
D14*
%TO.C,H3*%
X169930000Y-68490000D03*
%TD*%
D16*
%TO.C,J3*%
X142500000Y-144000000D03*
D17*
X137500000Y-144000000D03*
%TD*%
D18*
%TO.C,J6*%
X121842500Y-146730000D03*
D11*
X121842500Y-149270000D03*
%TD*%
D10*
%TO.C,J8der1*%
X127600000Y-119570000D03*
D11*
X127600000Y-117030000D03*
X127600000Y-114490000D03*
X127600000Y-111950000D03*
X127600000Y-109410000D03*
X127600000Y-106870000D03*
X127600000Y-104330000D03*
X127600000Y-101790000D03*
X127600000Y-99250000D03*
X127600000Y-96710000D03*
X127600000Y-94170000D03*
X127600000Y-91630000D03*
X127600000Y-89090000D03*
X127600000Y-86550000D03*
X127600000Y-84010000D03*
%TD*%
D18*
%TO.C,J8*%
X121842500Y-138330000D03*
D11*
X121842500Y-140870000D03*
%TD*%
D15*
%TO.C,J5*%
X152687500Y-84020000D03*
D11*
X152687500Y-86560000D03*
X152687500Y-89100000D03*
X152687500Y-91640000D03*
X152687500Y-94180000D03*
X152687500Y-96720000D03*
X152687500Y-99260000D03*
X152687500Y-101800000D03*
X152687500Y-104340000D03*
X152687500Y-106880000D03*
X152687500Y-109420000D03*
X152687500Y-111960000D03*
X152687500Y-114500000D03*
X152687500Y-117040000D03*
X152687500Y-119580000D03*
%TD*%
D15*
%TO.C,J2*%
X167915000Y-84020000D03*
D11*
X167915000Y-86560000D03*
X167915000Y-89100000D03*
X167915000Y-91640000D03*
X167915000Y-94180000D03*
X167915000Y-96720000D03*
X167915000Y-99260000D03*
X167915000Y-101800000D03*
X167915000Y-104340000D03*
X167915000Y-106880000D03*
X167915000Y-109420000D03*
X167915000Y-111960000D03*
X167915000Y-114500000D03*
X167915000Y-117040000D03*
X167915000Y-119580000D03*
%TD*%
M02*
